<?xml version="1.0" encoding="utf-8"?>
<!-- Generator: Adobe Illustrator 25.2.0, SVG Export Plug-In . SVG Version: 6.00 Build 0)  -->
<svg version="1.1" xmlns="http://www.w3.org/2000/svg" xmlns:xlink="http://www.w3.org/1999/xlink" x="0px" y="0px"
	 viewBox="0 0 1437.3 1145.5" style="enable-background:new 0 0 1437.3 1145.5;" xml:space="preserve">
<style type="text/css">
	.st0{display:none;}
	.st1{display:inline;}
	.st2{fill:none;}
	.st3{opacity:0.1;fill:#8000FF;}
	.st4{opacity:0.1;fill:#1996F3;}
	.st5{opacity:0.1;fill:#4DF3CE;}
	.st6{opacity:0.1;fill:#B3F396;}
	.st7{opacity:0.1;fill:#E6CE74;}
	.st8{opacity:0.1;fill:#FF964F;}
	.st9{opacity:0.1;fill:#FF0000;}
	.st10{fill:none;stroke:#000000;stroke-miterlimit:10;}
	.st11{font-family:'Lato-Regular';}
	.st12{font-size:11px;}
	.st13{font-family:'Lato-Italic';}
	.st14{font-size:9px;}
	.st15{font-size:8px;}
	.st16{fill:none;stroke:#CCCCCC;stroke-width:0.5;}
	.st17{font-size:10.7348px;}
	.st18{font-size:8.783px;}
	.st19{fill:none;stroke:#000000;stroke-width:0.5;}
	.st20{fill:#FF0000;stroke:#000000;stroke-miterlimit:10;}
	.st21{fill:#1996F3;stroke:#000000;}
	.st22{opacity:0.75;fill:#8000FF;stroke:#000000;}
	.st23{fill:#B3F396;stroke:#000000;}
	.st24{fill:#E6CE74;stroke:#000000;}
	.st25{fill:#FF964F;stroke:#000000;}
	.st26{fill:#4DF3CE;stroke:#000000;}
	.st27{font-family:'Lato-Bold';}
	.st28{font-size:16px;}
</style>
<g id="Layer_1" class="st0">
	<g transform="translate(0,0)" class="st1">
		<g>
			<g transform="translate(0,0)">
				<path class="st2" d="M476.9,114h601v974h-601V114z"/>
			</g>
		</g>
	</g>
</g>
<g id="Rectangles">
	<rect x="168.3" y="42.5" class="st3" width="961.1" height="123.3"/>
	<rect x="168.3" y="165.8" class="st4" width="961.1" height="395.8"/>
	<rect x="168.3" y="560.7" class="st5" width="961.1" height="56.2"/>
	<rect x="168.3" y="616.9" class="st6" width="961.1" height="56.2"/>
	<rect x="168.3" y="673" class="st7" width="961.1" height="108.9"/>
	<rect x="168.3" y="781" class="st8" width="961.1" height="69.1"/>
	<rect x="168.3" y="850.1" class="st9" width="961.1" height="69.1"/>
	<rect x="168.3" y="42.5" class="st10" width="960.1" height="876.7"/>
	<rect x="345.1" y="42.5" class="st10" width="783.2" height="876.7"/>
</g>
<g id="Node_Labels">
	<text transform="matrix(1 0 0 1 755.9069 889.5938)" class="st11 st12">Auspice</text>
	<text transform="matrix(1 0 0 1 682.7751 351.489)" class="st11 st12">Low Complexity Filter</text>
	<text transform="matrix(1 0 0 1 578.9775 351.4887)" class="st11 st12">Repeats Filter</text>
	<text transform="matrix(1 0 0 1 833.901 351.489)" class="st11 st12">SNP Density Filter</text>
	<text transform="matrix(1 0 0 1 684.847 135.3802)" class="st11 st12">Download Reference</text>
	<text transform="matrix(1 0 0 1 831.6001 135.5013)" class="st11 st12">Download SRA</text>
	<text transform="matrix(1 0 0 1 831.6009 207.3048)" class="st11 st12">Pairwise Alignment</text>
	<text transform="matrix(1 0 0 1 598.4296 646.276)" class="st11 st12">Maximum Likelihood Phylogeny</text>
	<text transform="matrix(1 0 0 1 642.343 713.2732)" class="st11 st12">Root-To-Tip Regression</text>
	<text transform="matrix(1 0 0 1 641.9228 750.2357)" class="st11 st12">Time-Scaled Phylogeny</text>
	<text transform="matrix(1 0 0 1 554.5065 819.906)" class="st11 st12">Discrete Phylogeography</text>
	<text transform="matrix(1 0 0 1 683.7814 440.3122)" class="st11 st12">Multiple Alignment</text>
	<text transform="matrix(1 0 0 1 683.7814 495.6676)" class="st11 st12">Extract Chromosome</text>
	<text transform="matrix(1 0 0 1 682.5745 540.2159)" class="st11 st12">Missing Sites Filter</text>
	<text transform="matrix(1 0 0 1 685.2155 268.5303)" class="st11 st12">Variant Calling</text>
	<text transform="matrix(1 0 0 1 525.1896 135.542)" class="st11 st12">Download Assemblies</text>
	<text transform="matrix(1 0 0 1 831.6008 220.9478)" class="st13 st14">nf-core/eager</text>
	<text transform="matrix(1 0 0 1 831.6001 149.12)" class="st13 st14">SRA Toolkit</text>
	<rect x="926.2" y="301.4" class="st2" width="2" height="0"/>
	<text transform="matrix(1 0 0 1 525.1943 216.3803)" class="st13 st14">snippy</text>
	<text transform="matrix(1 0 0 1 683.7767 452.2337)" class="st13 st14">snippy-core</text>
	<text transform="matrix(1 0 0 1 685.8535 278.6333)" class="st13 st14">snippy</text>
	<text transform="matrix(1 0 0 1 579.9841 362.938)" class="st13 st14">nucmer</text>
	<text transform="matrix(1 0 0 1 683.7714 362.9923)" class="st13 st14">dustmasker</text>
	<text transform="matrix(1 0 0 1 834.2635 365.7751)" class="st13 st14">vcftools</text>
	<text transform="matrix(1 0 0 1 685.1488 505.532)" class="st13 st15">samtools</text>
	<text transform="matrix(1 0 0 1 686.5546 146.1805)" class="st13 st14">wget</text>
	<text transform="matrix(1 0 0 1 526.196 146.1803)" class="st13 st14">wget</text>
	<text transform="matrix(1 0 0 1 1002.2372 149.1197)" class="st13 st14">wget</text>
	<text transform="matrix(1 0 0 1 685.8536 550.7812)" class="st13 st14">biopython</text>
	<text transform="matrix(1 0 0 1 599.436 659.2609)" class="st13 st14">IQTREE2</text>
	<text transform="matrix(1 0 0 1 597.4233 596.6683)" class="st11 st12">Full Dataset</text>
	<text transform="matrix(1 0 0 1 642.0878 764.4051)" class="st13 st14">LSD2</text>
	<text transform="matrix(1 0 0 1 851.842 721.9518)" class="st13 st14">BETS</text>
	<text transform="matrix(1 0 0 1 763.7487 66.324)" class="st11 st12">Construct Metadata Database</text>
	<text transform="matrix(1 0 0 1 763.7484 78.9794)" class="st13 st14">NCBImeta</text>
	<text transform="matrix(1 0 0 1 643.3492 725.0001)" class="st13 st14">statsmodels</text>
	<text transform="matrix(1 0 0 1 553.5956 833.0624)" class="st13 st14">TreeTime</text>
	<text transform="matrix(1 0 0 1 400.7578 833.1164)" class="st13 st14">geopy</text>
	<text transform="matrix(1 0 0 1 399.7516 819.8834)" class="st11 st12">Isolation by Distance</text>
	<path class="st16" d="M878.3,711.1"/>
	<path class="st16" d="M878.3,711.1"/>
	<path class="st16" d="M878.3,711.1"/>
	<text transform="matrix(1 0 0 1 1001.2311 135.3802)" class="st11 st12">Download Outgroup</text>
	<text transform="matrix(1 0 0 1 525.1902 206.667)" class="st11 st12">Pairwise Alignment</text>
	<text transform="matrix(1 0 0 1 777.8324 601.6652)" class="st11 st17">Reduced Dataset</text>
	<text transform="matrix(1 0 0 1 847.9159 712.3019)" class="st11 st17">Temporal Signal Test</text>
	<text transform="matrix(1 0 0 1 849.9589 764.3986)" class="st13 st18">BEAST</text>
	<text transform="matrix(1 0 0 1 847.8163 752.0099)" class="st11 st17"> Time-Scaled Phylogeny</text>
	<text transform="matrix(1 0 0 1 852.7694 820.9992)" class="st11 st17">Discrete Phylogeography</text>
	<path class="st16" d="M938.9,830.7"/>
	<text transform="matrix(1 0 0 1 853.7509 833.175)" class="st13 st18">BEAST</text>
	<text transform="matrix(1 0 0 1 928.8096 595.8879)" class="st11 st12">Clade Dataset</text>
</g>
<g id="Paths">
	<path class="st19" d="M729,960.3"/>
	<path class="st19" d="M669.9,435.9c0-108,0.4,17.9,0.4-90"/>
	<path class="st19" d="M669.9,435.9c0-70.2-105.6-14.2-105.6-84.4"/>
	<path class="st19" d="M669.9,435.9c0-36,148-52,148-88"/>
	<path class="st19" d="M803.9,420"/>
	<path class="st19" d="M669.9,435.9"/>
	<path class="st19" d="M669.9,435.9"/>
	<path class="st19" d="M670.8,263.6c0-72-0.9-59.6-0.9-131.5"/>
	<path class="st19" d="M814.2,204c0-36-144.3-36-144.3-71.9"/>
	<path class="st19" d="M670.4,265.9"/>
	<path class="st19" d="M564.4,348"/>
	<path class="st19" d="M814.2,204c0-36,0-36,0-72"/>
	<path class="st19" d="M670.8,263.6c0-36,143.4-23.6,143.4-59.6"/>
	<path class="st19" d="M538.5,816.5c0-160.3,8.5-133.3,44.6-173"/>
	<path class="st19" d="M628.8,749.1c0.2-2.1,0.1-37.2,0.4-42.8"/>
	<path class="st19" d="M729,960.3"/>
	<path class="st19" d="M629.2,706.3c0-40.3-45.1-22.7-46.1-62.8"/>
	<path class="st19" d="M836.7,704"/>
	<path class="st19" d="M538.5,816.5"/>
	<path class="st19" d="M629.2,706.3"/>
	<path class="st19" d="M628.6,762.4"/>
	<path class="st19" d="M628.6,762.4"/>
	<path class="st19" d="M729,960.3"/>
	<path class="st19" d="M538.5,816.5"/>
	<path class="st19" d="M729,960.3"/>
	<path class="st19" d="M668.9,491c0-36,1-19,1-55"/>
	<path class="st19" d="M668.9,536c0-36,0-9,0-45"/>
	<path class="st19" d="M668.9,491"/>
	<path class="st19" d="M583.1,643.6"/>
	<path class="st19" d="M668.9,491"/>
	<path class="st19" d="M628.6,762.4"/>
	<path class="st19" d="M668.9,536"/>
	<path class="st19" d="M584.1,593.8c0-47.8,84.8,17.3,84.8-57.8"/>
	<path class="st19" d="M668.9,536"/>
	<path class="st19" d="M628.6,762.4"/>
	<path class="st19" d="M670.8,263.6"/>
	<path class="st19" d="M669.9,435.9"/>
	<path class="st19" d="M670.8,263.6"/>
	<path class="st19" d="M817.9,348"/>
	<path class="st19" d="M507.8,201.8c0-36,0-36,0-72"/>
	<path class="st19" d="M670.4,265.9c0-36-161.8-25.9-161.8-61.9"/>
	<path class="st19" d="M508.5,204c0-36,161.4-36,161.4-72"/>
	<path class="st19" d="M564.6,344.7c0-36,105.8-42.8,105.8-78.8"/>
	<path class="st19" d="M820.4,344.7c0-36-150.1-42.9-150.1-78.8"/>
	<path class="st19" d="M670.4,345.9c0-72,0-8.1,0-80"/>
	<path class="st19" d="M836.7,704"/>
	<path class="st19" d="M583.1,643.6c0-13.9,1-35.9,1-49.8"/>
	<path class="st19" d="M507.9,129.8c0-36,237.5-11.2,237.5-67.4"/>
	<path class="st19" d="M745.4,62.4c-1.3,55.4,240.9,32.3,240.9,68.3"/>
	<path class="st19" d="M669.9,132c0-36,75.5-10,75.5-69.6"/>
	<path class="st19" d="M745.4,62.4c0,59.6,68.9,33.6,68.9,69.6"/>
	<path class="st19" d="M385.4,815.8c0-160.3,161.6-132.6,197.7-172.2"/>
	<path class="st19" d="M741.2,887.3c1.9-93.4-113-72-112.7-139"/>
	<path class="st19" d="M837.6,747c0.3,67-96.4,60.2-96.4,140.2"/>
	<path class="st19" d="M741.2,887.3c0-67.4-203.7-3.1-203.4-70"/>
	<path class="st19" d="M838.6,817.2c0,64.3-97.4,13.9-97.4,74.5"/>
	<path class="st19" d="M838.6,817.2c0-8-0.6-65-1-70.2"/>
	<path class="st19" d="M837.6,747c-0.2-36.7-0.3,49.7,0.1-40.7"/>
	<path class="st19" d="M837.7,706.3c-0.2-36.7-73.6-23-73.2-113.4"/>
	<path class="st19" d="M837.7,706.3c0.3-31.2,83.6-40.4,77.8-114.8"/>
	<path class="st19" d="M915.5,591.6c0.3-45.6-246.6,0-246.6-55.6"/>
	<path class="st19" d="M764.5,593c0-22.1-98.9,0.8-95.6-57"/>
	<rect x="946.3" y="639.7" class="st2" width="2.3" height="0"/>
</g>
<g id="Nodes">
	<path class="st16" d="M385.4,815.8"/>
	<path class="st20" d="M751.2,887.3c0,5.5-4.5,10-10,10c-5.5,0-10-4.5-10-10s4.5-10,10-10C746.7,877.3,751.2,881.7,751.2,887.3"/>
	<path class="st21" d="M680.4,345.9c0,5.5-4.5,10-10,10s-10-4.5-10-10c0-5.5,4.5-10,10-10S680.4,340.4,680.4,345.9"/>
	<path class="st21" d="M574.4,348c0,7.9-9.1,13.6-17.3,7.3c-6.3-8.2-0.5-17.3,7.3-17.3C569.9,338,574.4,342.5,574.4,348"/>
	<path class="st21" d="M827.9,348c0,5.5-4.5,10-10,10c-5.5,0-10-4.5-10-10c0-5.5,4.5-10,10-10C823.4,338,827.9,342.5,827.9,348"/>
	<path class="st22" d="M679.9,132c0,5.5-4.5,10-10,10s-10-4.5-10-10c0-5.5,4.5-10,10-10S679.9,126.5,679.9,132"/>
	<path class="st22" d="M824.3,132c0,5.5-4.5,10-10,10s-10-4.5-10-10c0-5.5,4.5-10,10-10S824.3,126.5,824.3,132"/>
	<path class="st21" d="M824.2,204c0,5.5-4.5,10-10,10c-5.5,0-10-4.5-10-10s4.5-10,10-10C819.8,194,824.2,198.4,824.2,204"/>
	<path class="st23" d="M593.1,643.6c0,7.9-9.1,13.6-17.3,7.3c-6.3-8.2-0.5-17.3,7.3-17.3C588.6,633.6,593.1,638,593.1,643.6"/>
	<path class="st24" d="M639.2,706.3c0,5.5-4.5,10-10,10c-5.5,0-10-4.5-10-10c0-5.5,4.5-10,10-10
		C634.7,696.3,639.2,700.8,639.2,706.3"/>
	<path class="st24" d="M638.6,747c0,5.6-4.6,10.2-10.3,10c-5.2-0.1-9.6-4.5-9.7-9.7c-0.2-5.7,4.4-10.3,10-10.3
		C634.1,737,638.6,741.5,638.6,747"/>
	<path class="st25" d="M548.5,816.5c0,5.5-4.5,10-10,10c-5.5,0-10-4.5-10-10s4.5-10,10-10C544,806.5,548.5,811,548.5,816.5"/>
	<path class="st21" d="M679.9,435.9c0,5.5-4.5,10-10,10c-5.5,0-10-4.5-10-10c0-5.5,4.5-10,10-10
		C675.5,425.9,679.9,430.4,679.9,435.9"/>
	<path class="st21" d="M678.9,491c0,5.5-4.5,10-10,10s-10-4.5-10-10c0-5.5,4.5-10,10-10S678.9,485.4,678.9,491"/>
	<path class="st21" d="M678.9,536c0,5.6-4.6,10.2-10.3,10c-5.2-0.1-9.6-4.5-9.7-9.7c-0.2-5.7,4.4-10.3,10-10.3
		C674.4,526,678.9,530.4,678.9,536"/>
	<path class="st21" d="M680.4,265.9c0,7.8-9,13.5-17.2,7.4c-0.1-0.1-0.2-0.2-0.2-0.2c-6.1-8.2-0.4-17.2,7.4-17.2
		C675.9,255.9,680.4,260.4,680.4,265.9"/>
	<path class="st22" d="M507.8,142c5.5,0,10-4.5,10-10c0-5.6-4.6-10.2-10.3-10c-5.2,0.1-9.6,4.5-9.7,9.7
		C497.7,137.4,502.2,142,507.8,142z"/>
	<path class="st22" d="M996.3,132c0,5.5-4.5,10-10,10c-5.5,0-10-4.5-10-10c0-5.5,4.5-10,10-10C991.8,122,996.3,126.5,996.3,132"/>
	<path class="st21" d="M517.8,204c0,5.6-4.6,10.2-10.3,10c-5.2-0.1-9.6-4.5-9.7-9.7c-0.2-5.7,4.4-10.3,10-10.3
		C513.4,194,517.8,198.5,517.8,204"/>
	<path class="st26" d="M594.1,593.8c0,7.9-9.1,13.6-17.3,7.3c-6.3-8.2-0.5-17.3,7.3-17.3C589.6,583.8,594.1,588.2,594.1,593.8"/>
	<path class="st26" d="M774.5,593c0,7.9-9.1,13.6-17.3,7.3c-6.3-8.2-0.5-17.3,7.3-17.3C770,583,774.5,587.5,774.5,593"/>
	<path class="st26" d="M925.5,593c0,7.9-9.1,13.6-17.3,7.3c-6.3-8.2-0.5-17.3,7.3-17.3C921,583,925.5,587.5,925.5,593"/>
	<path class="st24" d="M848,706.3c0,7.9-9.1,13.6-17.3,7.3c-6.3-8.2-0.5-17.3,7.3-17.3C843.5,696.3,848,700.8,848,706.3"/>
	<path class="st16" d="M639.7,817.2"/>
	<path class="st25" d="M385.4,825.8c5.5,0,10-4.5,10-10c0-5.5-4.5-10-10-10c-5.5,0-10,4.5-10,10
		C375.4,821.3,379.9,825.8,385.4,825.8z"/>
	<path class="st16" d="M836.6,744.7"/>
	<path class="st16" d="M836.6,744.7"/>
	<path class="st24" d="M847.9,747c0,7.9-9.1,13.6-17.3,7.3c-6.3-8.2-0.5-17.3,7.3-17.3C843.4,737,847.9,741.5,847.9,747"/>
	<path class="st22" d="M755.4,62.4c0,7.8-9,13.6-17.2,7.4c-0.1,0-0.1-0.1-0.1-0.1c-6.2-8.2-0.5-17.2,7.4-17.2
		C750.9,52.4,755.4,56.9,755.4,62.4"/>
	<path class="st16" d="M838.6,817.2"/>
	<path class="st16" d="M838.6,817.2"/>
	<path class="st25" d="M848.6,817.2c0,5.5-4.5,10-10,10c-5.5,0-10-4.5-10-10c0-5.5,4.5-10,10-10
		C844.1,807.2,848.6,811.7,848.6,817.2"/>
</g>
<g id="Section_Labels">
	<text transform="matrix(1 0 0 1 208.6995 104.2664)" class="st27 st28">Data Collection</text>
	<text transform="matrix(1 0 0 1 227.167 335.9071)" class="st27 st28">Alignment</text>
	<text transform="matrix(1 0 0 1 214.0309 646.2754)" class="st27 st28">Phylogenetics</text>
	<text transform="matrix(1 0 0 1 210.2512 743.3615)" class="st27 st28">Phylodynamics</text>
	<text transform="matrix(1 0 0 1 206.3552 825.6698)" class="st27 st28">Phylogeography</text>
	<text transform="matrix(1 0 0 1 219.2173 895.1033)" class="st27 st28">Visualization</text>
	<text transform="matrix(1 0 0 1 199.6908 596.7565)" class="st27 st28">Modified Datasets</text>
</g>
</svg>
