<?xml version="1.0" encoding="utf-8"?>
<!-- Generator: Adobe Illustrator 25.2.0, SVG Export Plug-In . SVG Version: 6.00 Build 0)  -->
<svg version="1.1" id="Layer_1" xmlns="http://www.w3.org/2000/svg" xmlns:xlink="http://www.w3.org/1999/xlink" x="0px" y="0px"
	 viewBox="0 0 1437.3 1145.5" style="enable-background:new 0 0 1437.3 1145.5;" xml:space="preserve">
<style type="text/css">
	.st0{fill:none;stroke:#000000;stroke-width:0.5;}
	.st1{display:none;}
	.st2{display:inline;}
	.st3{fill:none;}
	.st4{opacity:0.1;fill:#8000FF;enable-background:new    ;}
	.st5{opacity:0.1;fill:#1996F3;enable-background:new    ;}
	.st6{opacity:0.1;fill:#4DF3CE;enable-background:new    ;}
	.st7{opacity:0.1;fill:#B3F396;enable-background:new    ;}
	.st8{opacity:0.1;fill:#E6CE74;enable-background:new    ;}
	.st9{opacity:0.1;fill:#FF964F;enable-background:new    ;}
	.st10{opacity:0.1;fill:#FF0000;enable-background:new    ;}
	.st11{fill:none;stroke:#000000;stroke-miterlimit:10;}
	.st12{font-family:'Lato-Regular';}
	.st13{font-size:11px;}
	.st14{font-family:'Lato-Italic';}
	.st15{font-size:9px;}
	.st16{font-size:8px;}
	.st17{fill:none;stroke:#CCCCCC;stroke-width:0.5;}
	.st18{font-size:10.7348px;}
	.st19{font-size:8.783px;}
	.st20{fill:#FF0000;stroke:#000000;stroke-miterlimit:10;}
	.st21{fill:#1996F3;stroke:#000000;}
	.st22{fill:#8000FF;stroke:#000000;}
	.st23{fill:#B3F396;stroke:#000000;}
	.st24{fill:#E6CE74;stroke:#000000;}
	.st25{fill:#FF964F;stroke:#000000;}
	.st26{fill:#4DF3CE;stroke:#000000;}
	.st27{font-family:'Lato-Bold';}
	.st28{font-size:16px;}
</style>
<path class="st0" d="M362.8,132c-1.3,55.4,145.8,36,145.8,72"/>
<g id="Layer_1_1_" class="st1">
	<g transform="translate(0,0)" class="st2">
		<g>
			<g transform="translate(0,0)">
				<path class="st3" d="M476.9,114h601v974h-601L476.9,114L476.9,114z"/>
			</g>
		</g>
	</g>
</g>
<g id="Rectangles">
	<g id="Color">
		<rect x="168.3" y="42.5" class="st4" width="847.8" height="123.3"/>
		<rect x="168.3" y="165.8" class="st5" width="847.8" height="395.8"/>
		<rect x="168.3" y="560.7" class="st6" width="847.8" height="56.2"/>
		<rect x="168.3" y="616.9" class="st7" width="847.8" height="56.2"/>
		<rect x="168.3" y="673" class="st8" width="847.8" height="108.9"/>
		<rect x="168.3" y="781" class="st9" width="847.8" height="69.1"/>
		<rect x="168.3" y="850.1" class="st10" width="847.8" height="69.1"/>
	</g>
	<g id="Border">
		<rect x="168.3" y="42.5" class="st11" width="846.9" height="876.7"/>
		<rect x="324.3" y="42.5" class="st11" width="690.9" height="876.7"/>
	</g>
</g>
<g id="Node_Labels">
	<text transform="matrix(1 0 0 1 757.7887 891.8876)" class="st12 st13">Auspice</text>
	<text transform="matrix(1 0 0 1 682.7751 351.489)" class="st12 st13">Low Complexity Filter</text>
	<text transform="matrix(1 0 0 1 578.9775 351.4887)" class="st12 st13">Repeats Filter</text>
	<text transform="matrix(1 0 0 1 833.901 351.489)" class="st12 st13">SNP Density Filter</text>
	<text transform="matrix(1 0 0 1 684.847 135.3802)" class="st12 st13">Download Reference</text>
	<text transform="matrix(1 0 0 1 831.6001 135.5013)" class="st12 st13">Download SRA</text>
	<text transform="matrix(1 0 0 1 831.6009 207.3048)" class="st12 st13">Pairwise Alignment</text>
	<text transform="matrix(1 0 0 1 598.4296 646.276)" class="st12 st13">Maximum Likelihood Phylogeny</text>
	<text transform="matrix(1 0 0 1 642.343 713.2732)" class="st12 st13">Root-To-Tip Regression</text>
	<text transform="matrix(1 0 0 1 641.9228 750.2357)" class="st12 st13">Time-Scaled Phylogeny</text>
	<text transform="matrix(1 0 0 1 512.6309 823.4061)" class="st12 st13">Discrete Phylogeography</text>
	<text transform="matrix(1 0 0 1 683.7814 440.3122)" class="st12 st13">Multiple Alignment</text>
	<text transform="matrix(1 0 0 1 683.7814 495.6676)" class="st12 st13">Extract Chromosome</text>
	<text transform="matrix(1 0 0 1 682.5745 540.2159)" class="st12 st13">Missing Sites Filter</text>
	<text transform="matrix(1 0 0 1 685.2155 268.5303)" class="st12 st13">Variant Calling</text>
	<text transform="matrix(1 0 0 1 525.1896 135.542)" class="st12 st13">Download Assemblies</text>
	<text transform="matrix(1 0 0 1 831.6008 220.9478)" class="st14 st15">nf-core/eager</text>
	<text transform="matrix(1 0 0 1 831.6001 149.12)" class="st14 st15">SRA Toolkit</text>
	<polygon class="st3" points="926.2,301.4 928.2,301.4 928.2,301.4 	"/>
	<text transform="matrix(1 0 0 1 525.1943 216.3803)" class="st14 st15">snippy</text>
	<text transform="matrix(1 0 0 1 683.7767 452.2337)" class="st14 st15">snippy-core</text>
	<text transform="matrix(1 0 0 1 685.8535 278.6333)" class="st14 st15">snippy</text>
	<text transform="matrix(1 0 0 1 579.9841 362.938)" class="st14 st15">nucmer</text>
	<text transform="matrix(1 0 0 1 683.7714 362.9923)" class="st14 st15">dustmasker</text>
	<text transform="matrix(1 0 0 1 834.2635 365.7751)" class="st14 st15">vcftools</text>
	<text transform="matrix(1 0 0 1 685.1488 505.532)" class="st14 st16">samtools</text>
	<text transform="matrix(1 0 0 1 686.5546 146.1805)" class="st14 st15">wget</text>
	<text transform="matrix(1 0 0 1 526.196 146.1803)" class="st14 st15">wget</text>
	<text transform="matrix(1 0 0 1 378.7718 147.2303)" class="st14 st15">wget</text>
	<text transform="matrix(1 0 0 1 685.8536 550.7812)" class="st14 st15">biopython</text>
	<text transform="matrix(1 0 0 1 599.436 659.2609)" class="st14 st15">IQTREE2</text>
	<text transform="matrix(1 0 0 1 597.4233 596.6683)" class="st12 st13">Full Dataset</text>
	<text transform="matrix(1 0 0 1 642.0878 764.4051)" class="st14 st15">LSD2</text>
	<text transform="matrix(1 0 0 1 851.842 721.9518)" class="st14 st15">BETS</text>
	<text transform="matrix(1 0 0 1 763.7487 66.324)" class="st12 st13">Construct Metadata Database</text>
	<text transform="matrix(1 0 0 1 763.7484 78.9794)" class="st14 st15">NCBImeta</text>
	<text transform="matrix(1 0 0 1 643.3492 725.0001)" class="st14 st15">statsmodels</text>
	<text transform="matrix(1 0 0 1 511.72 836.5625)" class="st14 st15">TreeTime</text>
	<text transform="matrix(1 0 0 1 358.8823 836.6165)" class="st14 st15">geopy</text>
	<text transform="matrix(1 0 0 1 357.876 823.3835)" class="st12 st13">Isolation by Distance</text>
	<path class="st17" d="M878.3,711.1"/>
	<path class="st17" d="M878.3,711.1"/>
	<path class="st17" d="M878.3,711.1"/>
	<text transform="matrix(1 0 0 1 377.7657 133.4908)" class="st12 st13">Download Outgroup</text>
	<text transform="matrix(1 0 0 1 525.1902 206.667)" class="st12 st13">Pairwise Alignment</text>
	<text transform="matrix(1 0 0 1 777.8324 601.6652)" class="st12 st18">Reduced Dataset</text>
	<text transform="matrix(1 0 0 1 847.9159 712.3019)" class="st12 st18">Temporal Signal Test</text>
	<text transform="matrix(1 0 0 1 849.9589 764.3986)" class="st14 st19">BEAST</text>
	<text transform="matrix(1 0 0 1 847.8163 752.0099)" class="st12 st18"> Time-Scaled Phylogeny</text>
	<text transform="matrix(1 0 0 1 852.7694 820.9992)" class="st12 st18">Discrete Phylogeography</text>
	<path class="st17" d="M938.9,830.7"/>
	<text transform="matrix(1 0 0 1 853.7509 833.175)" class="st14 st19">BEAST</text>
	<text transform="matrix(1 0 0 1 928.8096 595.8879)" class="st12 st13">Clade Dataset</text>
</g>
<g id="Paths">
	<path class="st0" d="M507.8,201.8c0-36,0-36,0-72"/>
	<path class="st0" d="M729,960.3"/>
	<path class="st0" d="M669.9,435.9c0-7.9,0.4,17.9,0.4-90"/>
	<path class="st0" d="M669.9,435.9c0-50.8-105.6-14.2-105.6-84.4"/>
	<path class="st0" d="M669.9,435.9c-1.1-59,162.7-15.9,148-88"/>
	<path class="st0" d="M803.9,420"/>
	<path class="st0" d="M669.9,435.9"/>
	<path class="st0" d="M669.9,435.9"/>
	<path class="st0" d="M670.8,263.6c0-72-0.9-59.6-0.9-131.5"/>
	<path class="st0" d="M814.2,204c0-36-144.3-36-144.3-71.9"/>
	<path class="st0" d="M670.4,265.9"/>
	<path class="st0" d="M564.4,348"/>
	<path class="st0" d="M814.2,204c0-36,0-36,0-72"/>
	<path class="st0" d="M670.8,263.6c0-36,143.4-23.6,143.4-59.6"/>
	<path class="st0" d="M496.6,820c0-160.3,50.4-136.8,86.5-176.5"/>
	<path class="st0" d="M628.8,749.1c0.2-2.1,0.1-37.2,0.4-42.8"/>
	<path class="st0" d="M729,960.3"/>
	<path class="st0" d="M629.2,706.3c0-40.3-45.1-22.7-46.1-62.8"/>
	<path class="st0" d="M836.7,704"/>
	<path class="st0" d="M496.6,820"/>
	<path class="st0" d="M629.2,706.3"/>
	<path class="st0" d="M628.6,762.4"/>
	<path class="st0" d="M628.6,762.4"/>
	<path class="st0" d="M729,960.3"/>
	<path class="st0" d="M496.6,820"/>
	<path class="st0" d="M729,960.3"/>
	<path class="st0" d="M668.9,491c0-36,1-19,1-55"/>
	<path class="st0" d="M668.9,536c0-36,0-9,0-45"/>
	<path class="st0" d="M668.9,491"/>
	<path class="st0" d="M583.1,643.6"/>
	<path class="st0" d="M668.9,491"/>
	<path class="st0" d="M628.6,762.4"/>
	<path class="st0" d="M668.9,536"/>
	<path class="st0" d="M584.1,593.8c0-47.8,84.8,17.3,84.8-57.8"/>
	<path class="st0" d="M668.9,536"/>
	<path class="st0" d="M628.6,762.4"/>
	<path class="st0" d="M670.8,263.6"/>
	<path class="st0" d="M669.9,435.9"/>
	<path class="st0" d="M670.8,263.6"/>
	<path class="st0" d="M817.9,348"/>
	<path class="st0" d="M670.4,265.9c0-36-161.8-25.9-161.8-61.9"/>
	<path class="st0" d="M508.5,204c0-36,161.4-36,161.4-72"/>
	<path class="st0" d="M564.6,344.7c0-36,105.8-42.8,105.8-78.8"/>
	<path class="st0" d="M820.4,344.7c0-36-150.1-42.9-150.1-78.8"/>
	<path class="st0" d="M670.4,345.9c0-72,0-8.1,0-80"/>
	<path class="st0" d="M836.7,704"/>
	<path class="st0" d="M583.1,643.6c0-13.9,1-35.9,1-49.8"/>
	<path class="st0" d="M507.9,129.8c0-36,237.5-11.2,237.5-67.4"/>
	<path class="st0" d="M745.4,62.4c-1.3,55.4-382.6,30.4-382.6,66.4"/>
	<path class="st0" d="M669.9,132c0-36,75.5-10,75.5-69.6"/>
	<path class="st0" d="M745.4,62.4c0,59.6,68.9,33.6,68.9,69.6"/>
	<path class="st0" d="M343.5,819.3c0-160.3,203.5-136.1,239.6-175.7"/>
	<path class="st0" d="M743.1,889.6c1.9-93.4-114.9-74.3-114.6-141.3"/>
	<path class="st0" d="M837.6,747c0.3,67-94.5,62.5-94.5,142.5"/>
	<path class="st0" d="M743.1,889.6c0-67.4-247.5-1.9-247.2-68.8"/>
	<path class="st0" d="M838.6,817.2c0,64.3-95.5,16.2-95.5,76.8"/>
	<path class="st0" d="M838.6,817.2c0-8-0.6-65-1-70.2"/>
	<path class="st0" d="M837.6,747c-0.2-36.7-0.3,49.7,0.1-40.7"/>
	<path class="st0" d="M837.7,706.3c-0.2-36.7-73.6-23-73.2-113.4"/>
	<path class="st0" d="M837.7,706.3c0.3-31.2,83.6-40.4,77.8-114.8"/>
	<path class="st0" d="M915.5,591.6c0.3-45.6-246.6,0-246.6-55.6"/>
	<path class="st0" d="M764.5,593c0-22.1-98.9,0.8-95.6-57"/>
	<polygon class="st3" points="946.3,639.7 948.6,639.7 948.6,639.7 	"/>
</g>
<g id="Nodes">
	<path class="st17" d="M343.5,819.3"/>
	<path class="st20" d="M753.1,889.6c0,5.5-4.5,10-10,10s-10-4.5-10-10s4.5-10,10-10S753.1,884,753.1,889.6"/>
	<path class="st21" d="M680.4,345.9c0,5.5-4.5,10-10,10s-10-4.5-10-10s4.5-10,10-10S680.4,340.4,680.4,345.9"/>
	<path class="st21" d="M574.4,348c0,7.9-9.1,13.6-17.3,7.3c-6.3-8.2-0.5-17.3,7.3-17.3C569.9,338,574.4,342.5,574.4,348"/>
	<path class="st21" d="M827.9,348c0,5.5-4.5,10-10,10s-10-4.5-10-10s4.5-10,10-10S827.9,342.5,827.9,348"/>
	<path class="st22" d="M679.9,132c0,5.5-4.5,10-10,10s-10-4.5-10-10s4.5-10,10-10S679.9,126.5,679.9,132"/>
	<path class="st22" d="M824.3,132c0,5.5-4.5,10-10,10s-10-4.5-10-10s4.5-10,10-10S824.3,126.5,824.3,132"/>
	<path class="st21" d="M824.2,204c0,5.5-4.5,10-10,10s-10-4.5-10-10s4.5-10,10-10C819.8,194,824.2,198.4,824.2,204"/>
	<path class="st23" d="M593.1,643.6c0,7.9-9.1,13.6-17.3,7.3c-6.3-8.2-0.5-17.3,7.3-17.3C588.6,633.6,593.1,638,593.1,643.6"/>
	<path class="st24" d="M639.2,706.3c0,5.5-4.5,10-10,10s-10-4.5-10-10s4.5-10,10-10S639.2,700.8,639.2,706.3"/>
	<path class="st24" d="M638.6,747c0,5.6-4.6,10.2-10.3,10c-5.2-0.1-9.6-4.5-9.7-9.7c-0.2-5.7,4.4-10.3,10-10.3
		C634.1,737,638.6,741.5,638.6,747"/>
	<path class="st25" d="M506.6,820c0,5.5-4.5,10-10,10s-10-4.5-10-10s4.5-10,10-10S506.6,814.5,506.6,820"/>
	<path class="st21" d="M679.9,435.9c0,5.5-4.5,10-10,10s-10-4.5-10-10s4.5-10,10-10C675.5,425.9,679.9,430.4,679.9,435.9"/>
	<path class="st21" d="M678.9,491c0,5.5-4.5,10-10,10s-10-4.5-10-10s4.5-10,10-10S678.9,485.4,678.9,491"/>
	<path class="st21" d="M678.9,536c0,5.6-4.6,10.2-10.3,10c-5.2-0.1-9.6-4.5-9.7-9.7c-0.2-5.7,4.4-10.3,10-10.3
		C674.4,526,678.9,530.4,678.9,536"/>
	<path class="st21" d="M680.4,265.9c0,7.8-9,13.5-17.2,7.4c-0.1-0.1-0.2-0.2-0.2-0.2c-6.1-8.2-0.4-17.2,7.4-17.2
		C675.9,255.9,680.4,260.4,680.4,265.9"/>
	<path class="st22" d="M372.8,130.1c0,5.5-4.5,10-10,10s-10-4.5-10-10c0-5.5,4.5-10,10-10S372.8,124.6,372.8,130.1"/>
	<path class="st21" d="M517.8,204c0,5.6-4.6,10.2-10.3,10c-5.2-0.1-9.6-4.5-9.7-9.7c-0.2-5.7,4.4-10.3,10-10.3
		C513.4,194,517.8,198.5,517.8,204"/>
	<path class="st26" d="M594.1,593.8c0,7.9-9.1,13.6-17.3,7.3c-6.3-8.2-0.5-17.3,7.3-17.3C589.6,583.8,594.1,588.2,594.1,593.8"/>
	<path class="st26" d="M774.5,593c0,7.9-9.1,13.6-17.3,7.3c-6.3-8.2-0.5-17.3,7.3-17.3C770,583,774.5,587.5,774.5,593"/>
	<path class="st26" d="M925.5,593c0,7.9-9.1,13.6-17.3,7.3c-6.3-8.2-0.5-17.3,7.3-17.3C921,583,925.5,587.5,925.5,593"/>
	<path class="st24" d="M848,706.3c0,7.9-9.1,13.6-17.3,7.3c-6.3-8.2-0.5-17.3,7.3-17.3C843.5,696.3,848,700.8,848,706.3"/>
	<path class="st17" d="M639.7,817.2"/>
	<path class="st25" d="M343.5,829.3c5.5,0,10-4.5,10-10s-4.5-10-10-10s-10,4.5-10,10S338,829.3,343.5,829.3z"/>
	<path class="st17" d="M836.6,744.7"/>
	<path class="st17" d="M836.6,744.7"/>
	<path class="st24" d="M847.9,747c0,7.9-9.1,13.6-17.3,7.3c-6.3-8.2-0.5-17.3,7.3-17.3C843.4,737,847.9,741.5,847.9,747"/>
	<path class="st22" d="M755.4,62.4c0,7.8-9,13.6-17.2,7.4c-0.1,0-0.1-0.1-0.1-0.1c-6.2-8.2-0.5-17.2,7.4-17.2
		C750.9,52.4,755.4,56.9,755.4,62.4"/>
	<path class="st17" d="M838.6,817.2"/>
	<path class="st17" d="M838.6,817.2"/>
	<path class="st25" d="M848.6,817.2c0,5.5-4.5,10-10,10s-10-4.5-10-10s4.5-10,10-10S848.6,811.7,848.6,817.2"/>
	<path class="st22" d="M507.8,142c5.5,0,10-4.5,10-10c0-5.6-4.6-10.2-10.3-10c-5.2,0.1-9.6,4.5-9.7,9.7
		C497.7,137.4,502.2,142,507.8,142z"/>
</g>
<g id="Section_Labels">
	<text transform="matrix(1 0 0 1 189.1758 104.213)" class="st27 st28">Data Collection</text>
	<text transform="matrix(1 0 0 1 207.6433 335.8536)" class="st27 st28">Alignment</text>
	<text transform="matrix(1 0 0 1 194.5072 646.2219)" class="st27 st28">Phylogenetics</text>
	<text transform="matrix(1 0 0 1 190.7275 743.3081)" class="st27 st28">Phylodynamics</text>
	<text transform="matrix(1 0 0 1 186.8315 825.6163)" class="st27 st28">Phylogeography</text>
	<text transform="matrix(1 0 0 1 199.6936 895.0498)" class="st27 st28">Visualization</text>
	<text transform="matrix(1 0 0 1 180.1671 596.703)" class="st27 st28">Modified Datasets</text>
</g>
</svg>
