<?xml version="1.0" encoding="utf-8" standalone="no"?>
<!DOCTYPE svg PUBLIC "-//W3C//DTD SVG 1.1//EN"
  "http://www.w3.org/Graphics/SVG/1.1/DTD/svg11.dtd">
<!-- Created with matplotlib (https://matplotlib.org/) -->
<svg height="440.963125pt" version="1.1" viewBox="0 0 471.480687 440.963125" width="471.480687pt" xmlns="http://www.w3.org/2000/svg" xmlns:xlink="http://www.w3.org/1999/xlink">
 <metadata>
  <rdf:RDF xmlns:cc="http://creativecommons.org/ns#" xmlns:dc="http://purl.org/dc/elements/1.1/" xmlns:rdf="http://www.w3.org/1999/02/22-rdf-syntax-ns#">
   <cc:Work>
    <dc:type rdf:resource="http://purl.org/dc/dcmitype/StillImage"/>
    <dc:date>2021-08-27T10:01:02.463514</dc:date>
    <dc:format>image/svg+xml</dc:format>
    <dc:creator>
     <cc:Agent>
      <dc:title>Matplotlib v3.3.2, https://matplotlib.org/</dc:title>
     </cc:Agent>
    </dc:creator>
   </cc:Work>
  </rdf:RDF>
 </metadata>
 <defs>
  <style type="text/css">*{stroke-linecap:butt;stroke-linejoin:round;}</style>
 </defs>
 <g id="figure_1">
  <g id="patch_1">
   <path d="M 0 440.963125 
L 471.480687 440.963125 
L 471.480687 0 
L 0 0 
z
" style="fill:#ffffff;"/>
  </g>
  <g id="axes_1">
   <g id="patch_2">
    <path d="M 84.200688 397.6 
L 400.934021 397.6 
L 400.934021 75.866667 
L 84.200688 75.866667 
z
" style="fill:#ffffff;"/>
   </g>
   <g id="matplotlib.axis_1">
    <g id="xtick_1">
     <g id="line2d_1">
      <defs>
       <path d="M 0 0 
L 0 3.5 
" id="m16adcfcfa4" style="stroke:#000000;stroke-width:0.8;"/>
      </defs>
      <g>
       <use style="stroke:#000000;stroke-width:0.8;" x="111.012703" xlink:href="#m16adcfcfa4" y="397.6"/>
      </g>
     </g>
     <g id="text_1">
      <text style="font-family:DejaVu Sans;font-size:12px;font-stretch:normal;font-style:normal;font-weight:normal;text-anchor:middle;" transform="rotate(-0, 111.012703, 413.718125)" x="111.012703" y="413.718125">1950</text>
     </g>
    </g>
    <g id="xtick_2">
     <g id="line2d_2">
      <g>
       <use style="stroke:#000000;stroke-width:0.8;" x="153.449688" xlink:href="#m16adcfcfa4" y="397.6"/>
      </g>
     </g>
     <g id="text_2">
      <text style="font-family:DejaVu Sans;font-size:12px;font-stretch:normal;font-style:normal;font-weight:normal;text-anchor:middle;" transform="rotate(-0, 153.449688, 413.718125)" x="153.449688" y="413.718125">1960</text>
     </g>
    </g>
    <g id="xtick_3">
     <g id="line2d_3">
      <g>
       <use style="stroke:#000000;stroke-width:0.8;" x="195.886672" xlink:href="#m16adcfcfa4" y="397.6"/>
      </g>
     </g>
     <g id="text_3">
      <text style="font-family:DejaVu Sans;font-size:12px;font-stretch:normal;font-style:normal;font-weight:normal;text-anchor:middle;" transform="rotate(-0, 195.886672, 413.718125)" x="195.886672" y="413.718125">1970</text>
     </g>
    </g>
    <g id="xtick_4">
     <g id="line2d_4">
      <g>
       <use style="stroke:#000000;stroke-width:0.8;" x="238.323656" xlink:href="#m16adcfcfa4" y="397.6"/>
      </g>
     </g>
     <g id="text_4">
      <text style="font-family:DejaVu Sans;font-size:12px;font-stretch:normal;font-style:normal;font-weight:normal;text-anchor:middle;" transform="rotate(-0, 238.323656, 413.718125)" x="238.323656" y="413.718125">1980</text>
     </g>
    </g>
    <g id="xtick_5">
     <g id="line2d_5">
      <g>
       <use style="stroke:#000000;stroke-width:0.8;" x="280.76064" xlink:href="#m16adcfcfa4" y="397.6"/>
      </g>
     </g>
     <g id="text_5">
      <text style="font-family:DejaVu Sans;font-size:12px;font-stretch:normal;font-style:normal;font-weight:normal;text-anchor:middle;" transform="rotate(-0, 280.76064, 413.718125)" x="280.76064" y="413.718125">1990</text>
     </g>
    </g>
    <g id="xtick_6">
     <g id="line2d_6">
      <g>
       <use style="stroke:#000000;stroke-width:0.8;" x="323.197624" xlink:href="#m16adcfcfa4" y="397.6"/>
      </g>
     </g>
     <g id="text_6">
      <text style="font-family:DejaVu Sans;font-size:12px;font-stretch:normal;font-style:normal;font-weight:normal;text-anchor:middle;" transform="rotate(-0, 323.197624, 413.718125)" x="323.197624" y="413.718125">2000</text>
     </g>
    </g>
    <g id="xtick_7">
     <g id="line2d_7">
      <g>
       <use style="stroke:#000000;stroke-width:0.8;" x="365.634608" xlink:href="#m16adcfcfa4" y="397.6"/>
      </g>
     </g>
     <g id="text_7">
      <text style="font-family:DejaVu Sans;font-size:12px;font-stretch:normal;font-style:normal;font-weight:normal;text-anchor:middle;" transform="rotate(-0, 365.634608, 413.718125)" x="365.634608" y="413.718125">2010</text>
     </g>
    </g>
    <g id="text_8">
     <text style="font-family:DejaVu Sans;font-size:14px;font-stretch:normal;font-style:normal;font-weight:normal;text-anchor:middle;" transform="rotate(-0, 242.567354, 430.851562)" x="242.567354" y="430.851562">Collection Date</text>
    </g>
   </g>
   <g id="matplotlib.axis_2">
    <g id="ytick_1">
     <g id="line2d_8">
      <defs>
       <path d="M 0 0 
L -3.5 0 
" id="m0933ba81b9" style="stroke:#000000;stroke-width:0.8;"/>
      </defs>
      <g>
       <use style="stroke:#000000;stroke-width:0.8;" x="84.200688" xlink:href="#m0933ba81b9" y="353.727273"/>
      </g>
     </g>
     <g id="text_9">
      <text style="font-family:DejaVu Sans;font-size:12px;font-stretch:normal;font-style:normal;font-weight:normal;text-anchor:end;" transform="rotate(-0, 77.200688, 358.286335)" x="77.200688" y="358.286335">−0.04</text>
     </g>
    </g>
    <g id="ytick_2">
     <g id="line2d_9">
      <g>
       <use style="stroke:#000000;stroke-width:0.8;" x="84.200688" xlink:href="#m0933ba81b9" y="295.230303"/>
      </g>
     </g>
     <g id="text_10">
      <text style="font-family:DejaVu Sans;font-size:12px;font-stretch:normal;font-style:normal;font-weight:normal;text-anchor:end;" transform="rotate(-0, 77.200688, 299.789366)" x="77.200688" y="299.789366">−0.02</text>
     </g>
    </g>
    <g id="ytick_3">
     <g id="line2d_10">
      <g>
       <use style="stroke:#000000;stroke-width:0.8;" x="84.200688" xlink:href="#m0933ba81b9" y="236.733333"/>
      </g>
     </g>
     <g id="text_11">
      <text style="font-family:DejaVu Sans;font-size:12px;font-stretch:normal;font-style:normal;font-weight:normal;text-anchor:end;" transform="rotate(-0, 77.200688, 241.292396)" x="77.200688" y="241.292396">0.00</text>
     </g>
    </g>
    <g id="ytick_4">
     <g id="line2d_11">
      <g>
       <use style="stroke:#000000;stroke-width:0.8;" x="84.200688" xlink:href="#m0933ba81b9" y="178.236364"/>
      </g>
     </g>
     <g id="text_12">
      <text style="font-family:DejaVu Sans;font-size:12px;font-stretch:normal;font-style:normal;font-weight:normal;text-anchor:end;" transform="rotate(-0, 77.200688, 182.795426)" x="77.200688" y="182.795426">0.02</text>
     </g>
    </g>
    <g id="ytick_5">
     <g id="line2d_12">
      <g>
       <use style="stroke:#000000;stroke-width:0.8;" x="84.200688" xlink:href="#m0933ba81b9" y="119.739394"/>
      </g>
     </g>
     <g id="text_13">
      <text style="font-family:DejaVu Sans;font-size:12px;font-stretch:normal;font-style:normal;font-weight:normal;text-anchor:end;" transform="rotate(-0, 77.200688, 124.298456)" x="77.200688" y="124.298456">0.04</text>
     </g>
    </g>
    <g id="text_14">
     <text style="font-family:DejaVu Sans;font-size:14px;font-stretch:normal;font-style:normal;font-weight:normal;" transform="translate(17.837813 355.283802)rotate(-90)">Geographic Distance to the MRCA</text>
     <text style="font-family:DejaVu Sans;font-size:14px;font-stretch:normal;font-style:normal;font-weight:normal;" transform="translate(33.51475 253.067396)rotate(-90)">(km)</text>
    </g>
   </g>
   <g id="PathCollection_1">
    <defs>
     <path d="M 0 2.738613 
C 0.726289 2.738613 1.422928 2.450055 1.936492 1.936492 
C 2.450055 1.422928 2.738613 0.726289 2.738613 0 
C 2.738613 -0.726289 2.450055 -1.422928 1.936492 -1.936492 
C 1.422928 -2.450055 0.726289 -2.738613 0 -2.738613 
C -0.726289 -2.738613 -1.422928 -2.450055 -1.936492 -1.936492 
C -2.450055 -1.422928 -2.738613 -0.726289 -2.738613 0 
C -2.738613 0.726289 -2.450055 1.422928 -1.936492 1.936492 
C -1.422928 2.450055 -0.726289 2.738613 0 2.738613 
z
" id="m2a37926f43" style="stroke:#000000;stroke-width:0.438178;"/>
    </defs>
    <g clip-path="url(#pcf265169ca)">
     <use style="fill:#ff4824;stroke:#000000;stroke-width:0.438178;" x="234.079957" xlink:href="#m2a37926f43" y="236.733333"/>
     <use style="fill:#ff4824;stroke:#000000;stroke-width:0.438178;" x="221.348862" xlink:href="#m2a37926f43" y="236.733333"/>
     <use style="fill:#ff4824;stroke:#000000;stroke-width:0.438178;" x="246.811053" xlink:href="#m2a37926f43" y="236.733333"/>
     <use style="fill:#ff4824;stroke:#000000;stroke-width:0.438178;" x="348.659814" xlink:href="#m2a37926f43" y="236.733333"/>
     <use style="fill:#ff4824;stroke:#000000;stroke-width:0.438178;" x="140.718592" xlink:href="#m2a37926f43" y="236.733333"/>
     <use style="fill:#ff4824;stroke:#000000;stroke-width:0.438178;" x="225.592561" xlink:href="#m2a37926f43" y="236.733333"/>
     <use style="fill:#ff4824;stroke:#000000;stroke-width:0.438178;" x="127.987497" xlink:href="#m2a37926f43" y="236.733333"/>
     <use style="fill:#ff4824;stroke:#000000;stroke-width:0.438178;" x="259.542148" xlink:href="#m2a37926f43" y="236.733333"/>
     <use style="fill:#ff4824;stroke:#000000;stroke-width:0.438178;" x="127.987497" xlink:href="#m2a37926f43" y="236.733333"/>
     <use style="fill:#ff4824;stroke:#000000;stroke-width:0.438178;" x="225.592561" xlink:href="#m2a37926f43" y="236.733333"/>
     <use style="fill:#ff4824;stroke:#000000;stroke-width:0.438178;" x="285.004338" xlink:href="#m2a37926f43" y="236.733333"/>
     <use style="fill:#ff4824;stroke:#000000;stroke-width:0.438178;" x="246.811053" xlink:href="#m2a37926f43" y="236.733333"/>
     <use style="fill:#ff4824;stroke:#000000;stroke-width:0.438178;" x="170.424481" xlink:href="#m2a37926f43" y="236.733333"/>
     <use style="fill:#ff4824;stroke:#000000;stroke-width:0.438178;" x="170.424481" xlink:href="#m2a37926f43" y="236.733333"/>
     <use style="fill:#ff4824;stroke:#000000;stroke-width:0.438178;" x="255.298449" xlink:href="#m2a37926f43" y="236.733333"/>
     <use style="fill:#ff4824;stroke:#000000;stroke-width:0.438178;" x="246.811053" xlink:href="#m2a37926f43" y="236.733333"/>
     <use style="fill:#ff4824;stroke:#000000;stroke-width:0.438178;" x="234.079957" xlink:href="#m2a37926f43" y="236.733333"/>
     <use style="fill:#ff4824;stroke:#000000;stroke-width:0.438178;" x="170.424481" xlink:href="#m2a37926f43" y="236.733333"/>
     <use style="fill:#ff4824;stroke:#000000;stroke-width:0.438178;" x="280.76064" xlink:href="#m2a37926f43" y="236.733333"/>
     <use style="fill:#ff4824;stroke:#000000;stroke-width:0.438178;" x="285.004338" xlink:href="#m2a37926f43" y="236.733333"/>
     <use style="fill:#ff4824;stroke:#000000;stroke-width:0.438178;" x="127.987497" xlink:href="#m2a37926f43" y="236.733333"/>
     <use style="fill:#ff4824;stroke:#000000;stroke-width:0.438178;" x="170.424481" xlink:href="#m2a37926f43" y="236.733333"/>
     <use style="fill:#ff4824;stroke:#000000;stroke-width:0.438178;" x="272.273243" xlink:href="#m2a37926f43" y="236.733333"/>
     <use style="fill:#ff4824;stroke:#000000;stroke-width:0.438178;" x="127.987497" xlink:href="#m2a37926f43" y="236.733333"/>
     <use style="fill:#ff4824;stroke:#000000;stroke-width:0.438178;" x="174.66818" xlink:href="#m2a37926f43" y="236.733333"/>
     <use style="fill:#ff4824;stroke:#000000;stroke-width:0.438178;" x="276.516941" xlink:href="#m2a37926f43" y="236.733333"/>
     <use style="fill:#ff4824;stroke:#000000;stroke-width:0.438178;" x="217.105164" xlink:href="#m2a37926f43" y="236.733333"/>
     <use style="fill:#ff4824;stroke:#000000;stroke-width:0.438178;" x="310.466529" xlink:href="#m2a37926f43" y="236.733333"/>
     <use style="fill:#ff4824;stroke:#000000;stroke-width:0.438178;" x="229.836259" xlink:href="#m2a37926f43" y="236.733333"/>
     <use style="fill:#ff4824;stroke:#000000;stroke-width:0.438178;" x="200.13037" xlink:href="#m2a37926f43" y="236.733333"/>
     <use style="fill:#ff4824;stroke:#000000;stroke-width:0.438178;" x="340.172418" xlink:href="#m2a37926f43" y="236.733333"/>
     <use style="fill:#ff4824;stroke:#000000;stroke-width:0.438178;" x="221.348862" xlink:href="#m2a37926f43" y="236.733333"/>
     <use style="fill:#ff4824;stroke:#000000;stroke-width:0.438178;" x="352.903513" xlink:href="#m2a37926f43" y="236.733333"/>
     <use style="fill:#ff4824;stroke:#000000;stroke-width:0.438178;" x="357.147211" xlink:href="#m2a37926f43" y="236.733333"/>
     <use style="fill:#ff4824;stroke:#000000;stroke-width:0.438178;" x="318.953926" xlink:href="#m2a37926f43" y="236.733333"/>
     <use style="fill:#ff4824;stroke:#000000;stroke-width:0.438178;" x="318.953926" xlink:href="#m2a37926f43" y="236.733333"/>
     <use style="fill:#ff4824;stroke:#000000;stroke-width:0.438178;" x="318.953926" xlink:href="#m2a37926f43" y="236.733333"/>
     <use style="fill:#ff4824;stroke:#000000;stroke-width:0.438178;" x="306.22283" xlink:href="#m2a37926f43" y="236.733333"/>
     <use style="fill:#ff4824;stroke:#000000;stroke-width:0.438178;" x="297.735434" xlink:href="#m2a37926f43" y="236.733333"/>
    </g>
   </g>
   <g id="patch_3">
    <path d="M 84.200688 397.6 
L 84.200688 75.866667 
" style="fill:none;stroke:#000000;stroke-linecap:square;stroke-linejoin:miter;stroke-width:0.8;"/>
   </g>
   <g id="patch_4">
    <path d="M 84.200688 397.6 
L 400.934021 397.6 
" style="fill:none;stroke:#000000;stroke-linecap:square;stroke-linejoin:miter;stroke-width:0.8;"/>
   </g>
  </g>
  <g id="axes_2">
   <g id="patch_5">
    <path d="M 84.200688 75.866667 
L 400.934021 75.866667 
L 400.934021 11.52 
L 84.200688 11.52 
z
" style="fill:#ffffff;"/>
   </g>
   <g id="PolyCollection_1">
    <defs>
     <path d="M 98.597657 -365.474819 
L 98.597657 -365.096458 
L 100.044589 -365.096458 
L 101.49152 -365.096458 
L 102.938452 -365.096458 
L 104.385384 -365.096458 
L 105.832315 -365.096458 
L 107.279247 -365.096458 
L 108.726179 -365.096458 
L 110.17311 -365.096458 
L 111.620042 -365.096458 
L 113.066973 -365.096458 
L 114.513905 -365.096458 
L 115.960837 -365.096458 
L 117.407768 -365.096458 
L 118.8547 -365.096458 
L 120.301632 -365.096458 
L 121.748563 -365.096458 
L 123.195495 -365.096458 
L 124.642426 -365.096458 
L 126.089358 -365.096458 
L 127.53629 -365.096458 
L 128.983221 -365.096458 
L 130.430153 -365.096458 
L 131.877085 -365.096458 
L 133.324016 -365.096458 
L 134.770948 -365.096458 
L 136.21788 -365.096458 
L 137.664811 -365.096458 
L 139.111743 -365.096458 
L 140.558674 -365.096458 
L 142.005606 -365.096458 
L 143.452538 -365.096458 
L 144.899469 -365.096458 
L 146.346401 -365.096458 
L 147.793333 -365.096458 
L 149.240264 -365.096458 
L 150.687196 -365.096458 
L 152.134127 -365.096458 
L 153.581059 -365.096458 
L 155.027991 -365.096458 
L 156.474922 -365.096458 
L 157.921854 -365.096458 
L 159.368786 -365.096458 
L 160.815717 -365.096458 
L 162.262649 -365.096458 
L 163.70958 -365.096458 
L 165.156512 -365.096458 
L 166.603444 -365.096458 
L 168.050375 -365.096458 
L 169.497307 -365.096458 
L 170.944239 -365.096458 
L 172.39117 -365.096458 
L 173.838102 -365.096458 
L 175.285033 -365.096458 
L 176.731965 -365.096458 
L 178.178897 -365.096458 
L 179.625828 -365.096458 
L 181.07276 -365.096458 
L 182.519692 -365.096458 
L 183.966623 -365.096458 
L 185.413555 -365.096458 
L 186.860486 -365.096458 
L 188.307418 -365.096458 
L 189.75435 -365.096458 
L 191.201281 -365.096458 
L 192.648213 -365.096458 
L 194.095145 -365.096458 
L 195.542076 -365.096458 
L 196.989008 -365.096458 
L 198.43594 -365.096458 
L 199.882871 -365.096458 
L 201.329803 -365.096458 
L 202.776734 -365.096458 
L 204.223666 -365.096458 
L 205.670598 -365.096458 
L 207.117529 -365.096458 
L 208.564461 -365.096458 
L 210.011393 -365.096458 
L 211.458324 -365.096458 
L 212.905256 -365.096458 
L 214.352187 -365.096458 
L 215.799119 -365.096458 
L 217.246051 -365.096458 
L 218.692982 -365.096458 
L 220.139914 -365.096458 
L 221.586846 -365.096458 
L 223.033777 -365.096458 
L 224.480709 -365.096458 
L 225.92764 -365.096458 
L 227.374572 -365.096458 
L 228.821504 -365.096458 
L 230.268435 -365.096458 
L 231.715367 -365.096458 
L 233.162299 -365.096458 
L 234.60923 -365.096458 
L 236.056162 -365.096458 
L 237.503093 -365.096458 
L 238.950025 -365.096458 
L 240.396957 -365.096458 
L 241.843888 -365.096458 
L 243.29082 -365.096458 
L 244.737752 -365.096458 
L 246.184683 -365.096458 
L 247.631615 -365.096458 
L 249.078546 -365.096458 
L 250.525478 -365.096458 
L 251.97241 -365.096458 
L 253.419341 -365.096458 
L 254.866273 -365.096458 
L 256.313205 -365.096458 
L 257.760136 -365.096458 
L 259.207068 -365.096458 
L 260.654 -365.096458 
L 262.100931 -365.096458 
L 263.547863 -365.096458 
L 264.994794 -365.096458 
L 266.441726 -365.096458 
L 267.888658 -365.096458 
L 269.335589 -365.096458 
L 270.782521 -365.096458 
L 272.229453 -365.096458 
L 273.676384 -365.096458 
L 275.123316 -365.096458 
L 276.570247 -365.096458 
L 278.017179 -365.096458 
L 279.464111 -365.096458 
L 280.911042 -365.096458 
L 282.357974 -365.096458 
L 283.804906 -365.096458 
L 285.251837 -365.096458 
L 286.698769 -365.096458 
L 288.1457 -365.096458 
L 289.592632 -365.096458 
L 291.039564 -365.096458 
L 292.486495 -365.096458 
L 293.933427 -365.096458 
L 295.380359 -365.096458 
L 296.82729 -365.096458 
L 298.274222 -365.096458 
L 299.721153 -365.096458 
L 301.168085 -365.096458 
L 302.615017 -365.096458 
L 304.061948 -365.096458 
L 305.50888 -365.096458 
L 306.955812 -365.096458 
L 308.402743 -365.096458 
L 309.849675 -365.096458 
L 311.296606 -365.096458 
L 312.743538 -365.096458 
L 314.19047 -365.096458 
L 315.637401 -365.096458 
L 317.084333 -365.096458 
L 318.531265 -365.096458 
L 319.978196 -365.096458 
L 321.425128 -365.096458 
L 322.87206 -365.096458 
L 324.318991 -365.096458 
L 325.765923 -365.096458 
L 327.212854 -365.096458 
L 328.659786 -365.096458 
L 330.106718 -365.096458 
L 331.553649 -365.096458 
L 333.000581 -365.096458 
L 334.447513 -365.096458 
L 335.894444 -365.096458 
L 337.341376 -365.096458 
L 338.788307 -365.096458 
L 340.235239 -365.096458 
L 341.682171 -365.096458 
L 343.129102 -365.096458 
L 344.576034 -365.096458 
L 346.022966 -365.096458 
L 347.469897 -365.096458 
L 348.916829 -365.096458 
L 350.36376 -365.096458 
L 351.810692 -365.096458 
L 353.257624 -365.096458 
L 354.704555 -365.096458 
L 356.151487 -365.096458 
L 357.598419 -365.096458 
L 359.04535 -365.096458 
L 360.492282 -365.096458 
L 361.939213 -365.096458 
L 363.386145 -365.096458 
L 364.833077 -365.096458 
L 366.280008 -365.096458 
L 367.72694 -365.096458 
L 369.173872 -365.096458 
L 370.620803 -365.096458 
L 372.067735 -365.096458 
L 373.514666 -365.096458 
L 374.961598 -365.096458 
L 376.40853 -365.096458 
L 377.855461 -365.096458 
L 379.302393 -365.096458 
L 380.749325 -365.096458 
L 382.196256 -365.096458 
L 383.643188 -365.096458 
L 385.09012 -365.096458 
L 386.537051 -365.096458 
L 386.537051 -365.21921 
L 386.537051 -365.21921 
L 385.09012 -365.289023 
L 383.643188 -365.392397 
L 382.196256 -365.542054 
L 380.749325 -365.75387 
L 379.302393 -366.046921 
L 377.855461 -366.443199 
L 376.40853 -366.966866 
L 374.961598 -367.642989 
L 373.514666 -368.495716 
L 372.067735 -369.545934 
L 370.620803 -370.808567 
L 369.173872 -372.289736 
L 367.72694 -373.98412 
L 366.280008 -375.872875 
L 364.833077 -377.922501 
L 363.386145 -380.084954 
L 361.939213 -382.299197 
L 360.492282 -384.494194 
L 359.04535 -386.593172 
L 357.598419 -388.518777 
L 356.151487 -390.198615 
L 354.704555 -391.570623 
L 353.257624 -392.587717 
L 351.810692 -393.221284 
L 350.36376 -393.463279 
L 348.916829 -393.326834 
L 347.469897 -392.845517 
L 346.022966 -392.071461 
L 344.576034 -391.072645 
L 343.129102 -389.929583 
L 341.682171 -388.731587 
L 340.235239 -387.572655 
L 338.788307 -386.547 
L 337.341376 -385.744166 
L 335.894444 -385.243799 
L 334.447513 -385.110242 
L 333.000581 -385.387311 
L 331.553649 -386.0938 
L 330.106718 -387.220331 
L 328.659786 -388.728184 
L 327.212854 -390.550591 
L 325.765923 -392.596684 
L 324.318991 -394.757946 
L 322.87206 -396.91662 
L 321.425128 -398.955199 
L 319.978196 -400.765939 
L 318.531265 -402.259299 
L 317.084333 -403.3704 
L 315.637401 -404.062872 
L 314.19047 -404.329897 
L 312.743538 -404.192628 
L 311.296606 -403.696518 
L 309.849675 -402.906255 
L 308.402743 -401.900068 
L 306.955812 -400.764046 
L 305.50888 -399.586897 
L 304.061948 -398.455364 
L 302.615017 -397.450261 
L 301.168085 -396.642992 
L 299.721153 -396.092371 
L 298.274222 -395.84163 
L 296.82729 -395.915665 
L 295.380359 -396.318722 
L 293.933427 -397.032889 
L 292.486495 -398.017818 
L 291.039564 -399.212075 
L 289.592632 -400.536355 
L 288.1457 -401.898609 
L 286.698769 -403.2008 
L 285.251837 -404.346756 
L 283.804906 -405.250394 
L 282.357974 -405.843432 
L 280.911042 -406.081754 
L 279.464111 -405.949706 
L 278.017179 -405.461832 
L 276.570247 -404.661858 
L 275.123316 -403.619014 
L 273.676384 -402.422098 
L 272.229453 -401.17189 
L 270.782521 -399.972674 
L 269.335589 -398.923694 
L 267.888658 -398.111322 
L 266.441726 -397.602636 
L 264.994794 -397.440897 
L 263.547863 -397.643264 
L 262.100931 -398.200811 
L 260.654 -399.080768 
L 259.207068 -400.230696 
L 257.760136 -401.584189 
L 256.313205 -403.0676 
L 254.866273 -404.607224 
L 253.419341 -406.136318 
L 251.97241 -407.601326 
L 250.525478 -408.96669 
L 249.078546 -410.217685 
L 247.631615 -411.360846 
L 246.184683 -412.421784 
L 244.737752 -413.440443 
L 243.29082 -414.464227 
L 241.843888 -415.5397 
L 240.396957 -416.703868 
L 238.950025 -417.976147 
L 237.503093 -419.352136 
L 236.056162 -420.80007 
L 234.60923 -422.260569 
L 233.162299 -423.649802 
L 231.715367 -424.865833 
L 230.268435 -425.797455 
L 228.821504 -426.334573 
L 227.374572 -426.378998 
L 225.92764 -425.854494 
L 224.480709 -424.714994 
L 223.033777 -422.950109 
L 221.586846 -420.587326 
L 220.139914 -417.690635 
L 218.692982 -414.355699 
L 217.246051 -410.702064 
L 215.799119 -406.86321 
L 214.352187 -402.975536 
L 212.905256 -399.167476 
L 211.458324 -395.54995 
L 210.011393 -392.209209 
L 208.564461 -389.202788 
L 207.117529 -386.558954 
L 205.670598 -384.279525 
L 204.223666 -382.345559 
L 202.776734 -380.72505 
L 201.329803 -379.381547 
L 199.882871 -378.282554 
L 198.43594 -377.406634 
L 196.989008 -376.748354 
L 195.542076 -376.32049 
L 194.095145 -376.15323 
L 192.648213 -376.290449 
L 191.201281 -376.78343 
L 189.75435 -377.682634 
L 188.307418 -379.028364 
L 186.860486 -380.841299 
L 185.413555 -383.113972 
L 183.966623 -385.804298 
L 182.519692 -388.832162 
L 181.07276 -392.079882 
L 179.625828 -395.397 
L 178.178897 -398.609373 
L 176.731965 -401.531981 
L 175.285033 -403.984277 
L 173.838102 -405.806445 
L 172.39117 -406.874643 
L 170.944239 -407.113306 
L 169.497307 -406.50291 
L 168.050375 -405.082146 
L 166.603444 -402.944248 
L 165.156512 -400.228019 
L 163.70958 -397.104819 
L 162.262649 -393.763281 
L 160.815717 -390.393694 
L 159.368786 -387.173893 
L 157.921854 -384.25808 
L 156.474922 -381.769423 
L 155.027991 -379.79667 
L 153.581059 -378.394406 
L 152.134127 -377.586148 
L 150.687196 -377.369218 
L 149.240264 -377.720254 
L 147.793333 -378.600343 
L 146.346401 -379.958998 
L 144.899469 -381.736555 
L 143.452538 -383.86493 
L 142.005606 -386.267063 
L 140.558674 -388.855698 
L 139.111743 -391.53233 
L 137.664811 -394.187248 
L 136.21788 -396.701429 
L 134.770948 -398.950785 
L 133.324016 -400.812786 
L 131.877085 -402.17498 
L 130.430153 -402.944442 
L 128.983221 -403.056853 
L 127.53629 -402.483766 
L 126.089358 -401.236811 
L 124.642426 -399.36796 
L 123.195495 -396.965614 
L 121.748563 -394.146892 
L 120.301632 -391.047145 
L 118.8547 -387.808065 
L 117.407768 -384.565973 
L 115.960837 -381.441676 
L 114.513905 -378.532996 
L 113.066973 -375.910516 
L 111.620042 -373.616612 
L 110.17311 -371.667348 
L 108.726179 -370.056509 
L 107.279247 -368.760884 
L 105.832315 -367.74594 
L 104.385384 -366.97116 
L 102.938452 -366.394546 
L 101.49152 -365.976015 
L 100.044589 -365.679636 
L 98.597657 -365.474819 
z
" id="mc77961733c" style="stroke:#ff4824;"/>
    </defs>
    <g clip-path="url(#p6d3008bc85)">
     <use style="fill:#ff4824;fill-opacity:0.25;stroke:#ff4824;" x="0" xlink:href="#mc77961733c" y="440.963125"/>
    </g>
   </g>
   <g id="matplotlib.axis_3">
    <g id="xtick_8">
     <g id="line2d_13">
      <g>
       <use style="stroke:#000000;stroke-width:0.8;" x="111.012703" xlink:href="#m16adcfcfa4" y="75.866667"/>
      </g>
     </g>
    </g>
    <g id="xtick_9">
     <g id="line2d_14">
      <g>
       <use style="stroke:#000000;stroke-width:0.8;" x="153.449688" xlink:href="#m16adcfcfa4" y="75.866667"/>
      </g>
     </g>
    </g>
    <g id="xtick_10">
     <g id="line2d_15">
      <g>
       <use style="stroke:#000000;stroke-width:0.8;" x="195.886672" xlink:href="#m16adcfcfa4" y="75.866667"/>
      </g>
     </g>
    </g>
    <g id="xtick_11">
     <g id="line2d_16">
      <g>
       <use style="stroke:#000000;stroke-width:0.8;" x="238.323656" xlink:href="#m16adcfcfa4" y="75.866667"/>
      </g>
     </g>
    </g>
    <g id="xtick_12">
     <g id="line2d_17">
      <g>
       <use style="stroke:#000000;stroke-width:0.8;" x="280.76064" xlink:href="#m16adcfcfa4" y="75.866667"/>
      </g>
     </g>
    </g>
    <g id="xtick_13">
     <g id="line2d_18">
      <g>
       <use style="stroke:#000000;stroke-width:0.8;" x="323.197624" xlink:href="#m16adcfcfa4" y="75.866667"/>
      </g>
     </g>
    </g>
    <g id="xtick_14">
     <g id="line2d_19">
      <g>
       <use style="stroke:#000000;stroke-width:0.8;" x="365.634608" xlink:href="#m16adcfcfa4" y="75.866667"/>
      </g>
     </g>
    </g>
   </g>
   <g id="matplotlib.axis_4">
    <g id="ytick_6"/>
    <g id="ytick_7"/>
   </g>
   <g id="patch_6">
    <path d="M 84.200688 75.866667 
L 400.934021 75.866667 
" style="fill:none;stroke:#000000;stroke-linecap:square;stroke-linejoin:miter;stroke-width:0.8;"/>
   </g>
  </g>
  <g id="axes_3">
   <g id="patch_7">
    <path d="M 400.934021 397.6 
L 464.280687 397.6 
L 464.280687 75.866667 
L 400.934021 75.866667 
z
" style="fill:#ffffff;"/>
   </g>
   <g id="matplotlib.axis_5">
    <g id="xtick_15"/>
    <g id="xtick_16"/>
    <g id="xtick_17"/>
   </g>
   <g id="matplotlib.axis_6">
    <g id="ytick_8">
     <g id="line2d_20">
      <g>
       <use style="stroke:#000000;stroke-width:0.8;" x="400.934021" xlink:href="#m0933ba81b9" y="353.727273"/>
      </g>
     </g>
    </g>
    <g id="ytick_9">
     <g id="line2d_21">
      <g>
       <use style="stroke:#000000;stroke-width:0.8;" x="400.934021" xlink:href="#m0933ba81b9" y="295.230303"/>
      </g>
     </g>
    </g>
    <g id="ytick_10">
     <g id="line2d_22">
      <g>
       <use style="stroke:#000000;stroke-width:0.8;" x="400.934021" xlink:href="#m0933ba81b9" y="236.733333"/>
      </g>
     </g>
    </g>
    <g id="ytick_11">
     <g id="line2d_23">
      <g>
       <use style="stroke:#000000;stroke-width:0.8;" x="400.934021" xlink:href="#m0933ba81b9" y="178.236364"/>
      </g>
     </g>
    </g>
    <g id="ytick_12">
     <g id="line2d_24">
      <g>
       <use style="stroke:#000000;stroke-width:0.8;" x="400.934021" xlink:href="#m0933ba81b9" y="119.739394"/>
      </g>
     </g>
    </g>
   </g>
   <g id="patch_8">
    <path d="M 400.934021 397.6 
L 400.934021 75.866667 
" style="fill:none;stroke:#000000;stroke-linecap:square;stroke-linejoin:miter;stroke-width:0.8;"/>
   </g>
  </g>
  <g id="text_15">
   <text style="font-family:DejaVu Sans;font-size:14px;font-stretch:normal;font-style:normal;font-weight:normal;" transform="translate(247.260375 17.837812)">1.IN</text>
   <text style="font-family:DejaVu Sans;font-size:14px;font-stretch:normal;font-style:normal;font-weight:normal;" transform="translate(192.093813 33.51475)">MRCA: China, 100%</text>
  </g>
 </g>
 <defs>
  <clipPath id="pcf265169ca">
   <rect height="321.733333" width="316.733333" x="84.200688" y="75.866667"/>
  </clipPath>
  <clipPath id="p6d3008bc85">
   <rect height="64.346667" width="316.733333" x="84.200688" y="11.52"/>
  </clipPath>
 </defs>
</svg>
