<?xml version="1.0" encoding="utf-8" standalone="no"?>
<!DOCTYPE svg PUBLIC "-//W3C//DTD SVG 1.1//EN"
  "http://www.w3.org/Graphics/SVG/1.1/DTD/svg11.dtd">
<!-- Created with matplotlib (https://matplotlib.org/) -->
<svg height="248.518125pt" version="1.1" viewBox="0 0 509.928273 248.518125" width="509.928273pt" xmlns="http://www.w3.org/2000/svg" xmlns:xlink="http://www.w3.org/1999/xlink">
 <metadata>
  <rdf:RDF xmlns:cc="http://creativecommons.org/ns#" xmlns:dc="http://purl.org/dc/elements/1.1/" xmlns:rdf="http://www.w3.org/1999/02/22-rdf-syntax-ns#">
   <cc:Work>
    <dc:type rdf:resource="http://purl.org/dc/dcmitype/StillImage"/>
    <dc:date>2021-11-30T10:35:38.624079</dc:date>
    <dc:format>image/svg+xml</dc:format>
    <dc:creator>
     <cc:Agent>
      <dc:title>Matplotlib v3.3.2, https://matplotlib.org/</dc:title>
     </cc:Agent>
    </dc:creator>
   </cc:Work>
  </rdf:RDF>
 </metadata>
 <defs>
  <style type="text/css">*{stroke-linecap:butt;stroke-linejoin:round;}</style>
 </defs>
 <g id="figure_1">
  <g id="patch_1">
   <path d="M 0 248.518125 
L 509.928273 248.518125 
L 509.928273 0 
L 0 0 
z
" style="fill:#ffffff;"/>
  </g>
  <g id="axes_1">
   <g id="patch_2">
    <path d="M 49.190625 224.64 
L 495.590625 224.64 
L 495.590625 7.2 
L 49.190625 7.2 
z
" style="fill:#ffffff;"/>
   </g>
   <g id="matplotlib.axis_1">
    <g id="xtick_1">
     <g id="line2d_1">
      <defs>
       <path d="M 0 0 
L 0 3.5 
" id="maafae126fa" style="stroke:#000000;stroke-width:0.8;"/>
      </defs>
      <g>
       <use style="stroke:#000000;stroke-width:0.8;" x="78.303668" xlink:href="#maafae126fa" y="224.64"/>
      </g>
     </g>
     <g id="text_1">
      <text style="font-family:DejaVu Sans;font-size:10px;font-stretch:normal;font-style:normal;font-weight:normal;text-anchor:middle;" transform="rotate(-0, 78.303668, 239.238437)" x="78.303668" y="239.238437">1000</text>
     </g>
    </g>
    <g id="xtick_2">
     <g id="line2d_2">
      <g>
       <use style="stroke:#000000;stroke-width:0.8;" x="137.117898" xlink:href="#maafae126fa" y="224.64"/>
      </g>
     </g>
     <g id="text_2">
      <text style="font-family:DejaVu Sans;font-size:10px;font-stretch:normal;font-style:normal;font-weight:normal;text-anchor:middle;" transform="rotate(-0, 137.117898, 239.238437)" x="137.117898" y="239.238437">1100</text>
     </g>
    </g>
    <g id="xtick_3">
     <g id="line2d_3">
      <g>
       <use style="stroke:#000000;stroke-width:0.8;" x="195.932127" xlink:href="#maafae126fa" y="224.64"/>
      </g>
     </g>
     <g id="text_3">
      <text style="font-family:DejaVu Sans;font-size:10px;font-stretch:normal;font-style:normal;font-weight:normal;text-anchor:middle;" transform="rotate(-0, 195.932127, 239.238437)" x="195.932127" y="239.238437">1200</text>
     </g>
    </g>
    <g id="xtick_4">
     <g id="line2d_4">
      <g>
       <use style="stroke:#000000;stroke-width:0.8;" x="254.746356" xlink:href="#maafae126fa" y="224.64"/>
      </g>
     </g>
     <g id="text_4">
      <text style="font-family:DejaVu Sans;font-size:10px;font-stretch:normal;font-style:normal;font-weight:normal;text-anchor:middle;" transform="rotate(-0, 254.746356, 239.238437)" x="254.746356" y="239.238437">1300</text>
     </g>
    </g>
    <g id="xtick_5">
     <g id="line2d_5">
      <g>
       <use style="stroke:#000000;stroke-width:0.8;" x="313.560585" xlink:href="#maafae126fa" y="224.64"/>
      </g>
     </g>
     <g id="text_5">
      <text style="font-family:DejaVu Sans;font-size:10px;font-stretch:normal;font-style:normal;font-weight:normal;text-anchor:middle;" transform="rotate(-0, 313.560585, 239.238437)" x="313.560585" y="239.238437">1400</text>
     </g>
    </g>
    <g id="xtick_6">
     <g id="line2d_6">
      <g>
       <use style="stroke:#000000;stroke-width:0.8;" x="372.374815" xlink:href="#maafae126fa" y="224.64"/>
      </g>
     </g>
     <g id="text_6">
      <text style="font-family:DejaVu Sans;font-size:10px;font-stretch:normal;font-style:normal;font-weight:normal;text-anchor:middle;" transform="rotate(-0, 372.374815, 239.238437)" x="372.374815" y="239.238437">1500</text>
     </g>
    </g>
    <g id="xtick_7">
     <g id="line2d_7">
      <g>
       <use style="stroke:#000000;stroke-width:0.8;" x="431.189044" xlink:href="#maafae126fa" y="224.64"/>
      </g>
     </g>
     <g id="text_7">
      <text style="font-family:DejaVu Sans;font-size:10px;font-stretch:normal;font-style:normal;font-weight:normal;text-anchor:middle;" transform="rotate(-0, 431.189044, 239.238437)" x="431.189044" y="239.238437">1600</text>
     </g>
    </g>
    <g id="xtick_8">
     <g id="line2d_8">
      <g>
       <use style="stroke:#000000;stroke-width:0.8;" x="490.003273" xlink:href="#maafae126fa" y="224.64"/>
      </g>
     </g>
     <g id="text_8">
      <text style="font-family:DejaVu Sans;font-size:10px;font-stretch:normal;font-style:normal;font-weight:normal;text-anchor:middle;" transform="rotate(-0, 490.003273, 239.238437)" x="490.003273" y="239.238437">1700</text>
     </g>
    </g>
   </g>
   <g id="matplotlib.axis_2">
    <g id="ytick_1">
     <g id="line2d_9">
      <defs>
       <path d="M 0 0 
L -3.5 0 
" id="m26bbdef319" style="stroke:#000000;stroke-width:0.8;"/>
      </defs>
      <g>
       <use style="stroke:#000000;stroke-width:0.8;" x="49.190625" xlink:href="#m26bbdef319" y="216.978009"/>
      </g>
     </g>
     <g id="text_9">
      <text style="font-family:DejaVu Sans;font-size:10px;font-stretch:normal;font-style:normal;font-weight:normal;text-anchor:end;" transform="rotate(-0, 42.190625, 220.777228)" x="42.190625" y="220.777228">0.0000</text>
     </g>
    </g>
    <g id="ytick_2">
     <g id="line2d_10">
      <g>
       <use style="stroke:#000000;stroke-width:0.8;" x="49.190625" xlink:href="#m26bbdef319" y="188.153777"/>
      </g>
     </g>
     <g id="text_10">
      <text style="font-family:DejaVu Sans;font-size:10px;font-stretch:normal;font-style:normal;font-weight:normal;text-anchor:end;" transform="rotate(-0, 42.190625, 191.952996)" x="42.190625" y="191.952996">0.0005</text>
     </g>
    </g>
    <g id="ytick_3">
     <g id="line2d_11">
      <g>
       <use style="stroke:#000000;stroke-width:0.8;" x="49.190625" xlink:href="#m26bbdef319" y="159.329545"/>
      </g>
     </g>
     <g id="text_11">
      <text style="font-family:DejaVu Sans;font-size:10px;font-stretch:normal;font-style:normal;font-weight:normal;text-anchor:end;" transform="rotate(-0, 42.190625, 163.128764)" x="42.190625" y="163.128764">0.0010</text>
     </g>
    </g>
    <g id="ytick_4">
     <g id="line2d_12">
      <g>
       <use style="stroke:#000000;stroke-width:0.8;" x="49.190625" xlink:href="#m26bbdef319" y="130.505313"/>
      </g>
     </g>
     <g id="text_12">
      <text style="font-family:DejaVu Sans;font-size:10px;font-stretch:normal;font-style:normal;font-weight:normal;text-anchor:end;" transform="rotate(-0, 42.190625, 134.304531)" x="42.190625" y="134.304531">0.0015</text>
     </g>
    </g>
    <g id="ytick_5">
     <g id="line2d_13">
      <g>
       <use style="stroke:#000000;stroke-width:0.8;" x="49.190625" xlink:href="#m26bbdef319" y="101.68108"/>
      </g>
     </g>
     <g id="text_13">
      <text style="font-family:DejaVu Sans;font-size:10px;font-stretch:normal;font-style:normal;font-weight:normal;text-anchor:end;" transform="rotate(-0, 42.190625, 105.480299)" x="42.190625" y="105.480299">0.0020</text>
     </g>
    </g>
    <g id="ytick_6">
     <g id="line2d_14">
      <g>
       <use style="stroke:#000000;stroke-width:0.8;" x="49.190625" xlink:href="#m26bbdef319" y="72.856848"/>
      </g>
     </g>
     <g id="text_14">
      <text style="font-family:DejaVu Sans;font-size:10px;font-stretch:normal;font-style:normal;font-weight:normal;text-anchor:end;" transform="rotate(-0, 42.190625, 76.656067)" x="42.190625" y="76.656067">0.0025</text>
     </g>
    </g>
    <g id="ytick_7">
     <g id="line2d_15">
      <g>
       <use style="stroke:#000000;stroke-width:0.8;" x="49.190625" xlink:href="#m26bbdef319" y="44.032616"/>
      </g>
     </g>
     <g id="text_15">
      <text style="font-family:DejaVu Sans;font-size:10px;font-stretch:normal;font-style:normal;font-weight:normal;text-anchor:end;" transform="rotate(-0, 42.190625, 47.831835)" x="42.190625" y="47.831835">0.0030</text>
     </g>
    </g>
    <g id="ytick_8">
     <g id="line2d_16">
      <g>
       <use style="stroke:#000000;stroke-width:0.8;" x="49.190625" xlink:href="#m26bbdef319" y="15.208384"/>
      </g>
     </g>
     <g id="text_16">
      <text style="font-family:DejaVu Sans;font-size:10px;font-stretch:normal;font-style:normal;font-weight:normal;text-anchor:end;" transform="rotate(-0, 42.190625, 19.007602)" x="42.190625" y="19.007602">0.0035</text>
     </g>
    </g>
   </g>
   <g id="line2d_17">
    <path clip-path="url(#pe0b8d34dd5)" d="M 69.481534 214.756364 
L 73.580708 214.318265 
L 77.679881 213.805451 
L 81.779055 213.207637 
L 85.878228 212.513603 
L 89.977402 211.711196 
L 94.076575 210.78735 
L 98.175749 209.728131 
L 102.274923 208.518809 
L 106.374096 207.143953 
L 110.47327 205.587559 
L 114.572443 203.833212 
L 118.671617 201.864279 
L 122.77079 199.664136 
L 126.869964 197.216432 
L 130.969137 194.505386 
L 135.068311 191.516114 
L 139.167485 188.234984 
L 143.266658 184.649995 
L 147.365832 180.751175 
L 151.465005 176.53099 
L 155.564179 171.98475 
L 159.663352 167.111015 
L 163.762526 161.911986 
L 167.861699 156.393857 
L 171.960873 150.567141 
L 176.060046 144.446942 
L 180.15922 138.053157 
L 184.258394 131.41062 
L 188.357567 124.549153 
L 192.456741 117.50353 
L 196.555914 110.313347 
L 200.655088 103.022783 
L 204.754261 95.680264 
L 208.853435 88.338017 
L 212.952608 81.051528 
L 217.051782 73.878897 
L 221.150956 66.880114 
L 225.250129 60.116259 
L 229.349303 53.648631 
L 233.448476 47.537848 
L 237.54765 41.842907 
L 241.646823 36.620248 
L 245.745997 31.922819 
L 249.84517 27.799195 
L 253.944344 24.292737 
L 258.043518 21.440832 
L 262.142691 19.274238 
L 266.241865 17.816521 
L 270.341038 17.083636 
L 274.440212 17.083636 
L 278.539385 17.816521 
L 282.638559 19.274238 
L 286.737732 21.440832 
L 290.836906 24.292737 
L 294.93608 27.799195 
L 299.035253 31.922819 
L 303.134427 36.620248 
L 307.2336 41.842907 
L 311.332774 47.537848 
L 315.431947 53.648631 
L 319.531121 60.116259 
L 323.630294 66.880114 
L 327.729468 73.878897 
L 331.828642 81.051528 
L 335.927815 88.338017 
L 340.026989 95.680264 
L 344.126162 103.022783 
L 348.225336 110.313347 
L 352.324509 117.50353 
L 356.423683 124.549153 
L 360.522856 131.41062 
L 364.62203 138.053157 
L 368.721204 144.446942 
L 372.820377 150.567141 
L 376.919551 156.393857 
L 381.018724 161.911986 
L 385.117898 167.111015 
L 389.217071 171.98475 
L 393.316245 176.53099 
L 397.415418 180.751175 
L 401.514592 184.649995 
L 405.613765 188.234984 
L 409.712939 191.516114 
L 413.812113 194.505386 
L 417.911286 197.216432 
L 422.01046 199.664136 
L 426.109633 201.864279 
L 430.208807 203.833212 
L 434.30798 205.587559 
L 438.407154 207.143953 
L 442.506327 208.518809 
L 446.605501 209.728131 
L 450.704675 210.78735 
L 454.803848 211.711196 
L 458.903022 212.513603 
L 463.002195 213.207637 
L 467.101369 213.805451 
L 471.200542 214.318265 
L 475.299716 214.756364 
" style="fill:none;stroke:#1f77b4;stroke-linecap:square;stroke-width:2;"/>
   </g>
   <g id="line2d_18">
    <path clip-path="url(#pe0b8d34dd5)" d="M 137.117898 224.64 
L 137.117898 7.2 
" style="fill:none;stroke:#808080;stroke-dasharray:5.55,2.4;stroke-dashoffset:0;stroke-width:1.5;"/>
   </g>
   <g id="line2d_19">
    <path clip-path="url(#pe0b8d34dd5)" d="M 407.663352 224.64 
L 407.663352 7.2 
" style="fill:none;stroke:#808080;stroke-dasharray:5.55,2.4;stroke-dashoffset:0;stroke-width:1.5;"/>
   </g>
   <g id="patch_3">
    <path d="M 49.190625 224.64 
L 49.190625 7.2 
" style="fill:none;stroke:#000000;stroke-linecap:square;stroke-linejoin:miter;stroke-width:0.8;"/>
   </g>
   <g id="patch_4">
    <path d="M 495.590625 224.64 
L 495.590625 7.2 
" style="fill:none;stroke:#000000;stroke-linecap:square;stroke-linejoin:miter;stroke-width:0.8;"/>
   </g>
   <g id="patch_5">
    <path d="M 49.190625 224.64 
L 495.590625 224.64 
" style="fill:none;stroke:#000000;stroke-linecap:square;stroke-linejoin:miter;stroke-width:0.8;"/>
   </g>
   <g id="patch_6">
    <path d="M 49.190625 7.2 
L 495.590625 7.2 
" style="fill:none;stroke:#000000;stroke-linecap:square;stroke-linejoin:miter;stroke-width:0.8;"/>
   </g>
   <g id="text_17">
    <text style="font-family:DejaVu Sans;font-size:10px;font-stretch:normal;font-style:normal;font-weight:normal;text-anchor:end;" transform="rotate(-0, 130.648333, 17.6889)" x="130.648333" y="17.6889">1100</text>
   </g>
   <g id="text_18">
    <text style="font-family:DejaVu Sans;font-size:10px;font-stretch:normal;font-style:normal;font-weight:normal;text-anchor:start;" transform="rotate(-0, 416.838372, 17.6889)" x="416.838372" y="17.6889">1560</text>
   </g>
  </g>
 </g>
 <defs>
  <clipPath id="pe0b8d34dd5">
   <rect height="217.44" width="446.4" x="49.190625" y="7.2"/>
  </clipPath>
 </defs>
</svg>
