<?xml version="1.0" encoding="utf-8"?>
<!-- Generator: Adobe Illustrator 25.2.0, SVG Export Plug-In . SVG Version: 6.00 Build 0)  -->
<svg version="1.1" xmlns="http://www.w3.org/2000/svg" xmlns:xlink="http://www.w3.org/1999/xlink" x="0px" y="0px"
	 viewBox="0 0 1362.3 572.2" style="enable-background:new 0 0 1362.3 572.2;" xml:space="preserve">
<style type="text/css">
	.st0{display:none;}
	.st1{font-family:'ArialMT';}
	.st2{font-size:18px;}
	.st3{font-size:14px;}
	.st4{font-size:8px;}
	.st5{opacity:0.25;fill:#FF0000;}
	.st6{opacity:0.1255;fill:none;stroke:#FF0000;stroke-miterlimit:10;}
	.st7{fill:none;stroke:#FF0000;stroke-width:2;stroke-miterlimit:10;}
	.st8{fill:none;stroke:#FF0000;stroke-linecap:square;stroke-miterlimit:10;}
	.st9{opacity:0.1255;fill:none;stroke:#FF964F;stroke-miterlimit:10;}
	.st10{fill:none;stroke:#FF964F;stroke-miterlimit:10;}
	.st11{fill:none;stroke:#FF964F;stroke-linecap:square;stroke-miterlimit:10;}
	.st12{opacity:0.25;fill:#E6CE74;}
	.st13{opacity:0.1255;fill:none;stroke:#E6CE74;stroke-miterlimit:10;}
	.st14{fill:none;stroke:#E6CE74;stroke-miterlimit:10;}
	.st15{fill:none;stroke:#E6CE74;stroke-linecap:square;stroke-miterlimit:10;}
	.st16{opacity:0.25;fill:#B3F396;}
	.st17{opacity:0.1255;fill:none;stroke:#B3F396;stroke-miterlimit:10;}
	.st18{fill:none;stroke:#B3F396;stroke-miterlimit:10;}
	.st19{fill:none;stroke:#B3F396;stroke-linecap:square;stroke-miterlimit:10;}
	.st20{opacity:0.25;fill:#4DF3CE;}
	.st21{opacity:0.1255;fill:none;stroke:#4DF3CE;stroke-miterlimit:10;}
	.st22{fill:none;stroke:#4DF3CE;stroke-miterlimit:10;}
	.st23{fill:none;stroke:#4DF3CE;stroke-linecap:square;stroke-miterlimit:10;}
	.st24{opacity:0.25;fill:#1996F3;}
	.st25{opacity:0.1255;fill:none;stroke:#1996F3;stroke-miterlimit:10;}
	.st26{fill:none;stroke:#1996F3;stroke-miterlimit:10;}
	.st27{fill:none;stroke:#1996F3;stroke-linecap:square;stroke-miterlimit:10;}
	.st28{opacity:0.25;fill:#4C4FFC;}
	.st29{fill:none;stroke:#4C4FFC;stroke-miterlimit:10;}
	.st30{fill:none;stroke:#4C4FFC;stroke-linecap:square;stroke-miterlimit:10;}
	.st31{opacity:0.25;fill:#8000FF;}
	.st32{fill:none;stroke:#8000FF;stroke-miterlimit:10;}
	.st33{fill:#8000FF;stroke:#8000FF;stroke-miterlimit:10;}
	.st34{display:none;fill:#8000FF;stroke:#8000FF;stroke-linecap:square;stroke-miterlimit:10;}
	.st35{opacity:0.25;fill:#FF964F;}
	.st36{font-family:'Arial-BoldMT';}
	.st37{font-size:26px;}
	.st38{fill:none;stroke:#000000;stroke-miterlimit:10;}
</style>
<g id="Layer_1" class="st0">
</g>
<g id="Plot" class="st0">
</g>
<g id="Text">
	<text transform="matrix(1 0 0 1 70.4522 428.9861)" class="st1 st2">1.0</text>
	<text transform="matrix(1 0 0 1 70.4523 381.1484)" class="st1 st2">2.0</text>
	<text transform="matrix(1 0 0 1 70.4524 334.2672)" class="st1 st2">3.0</text>
	<text transform="matrix(1 0 0 1 70.4523 290.0587)" class="st1 st2">4.0</text>
	<text transform="matrix(1 0 0 1 70.4522 244.4248)" class="st1 st2">5.0</text>
	<text transform="matrix(1 0 0 1 70.4524 197.1581)" class="st1 st2">6.0</text>
	<text transform="matrix(1 0 0 1 70.4525 152.1868)" class="st1 st2">7.0</text>
	<text transform="matrix(1 0 0 1 70.4525 105.0805)" class="st1 st2">8.0</text>
	<text transform="matrix(1 0 0 1 70.4525 60.4342)" class="st1 st2">9.0</text>
	<text transform="matrix(1 0 0 1 71.9638 473.8827)" class="st1 st2">0.0</text>
	<text transform="matrix(1 0 0 1 644.327 491.4396)" class="st0 st1 st3">1.ORI</text>
	<text transform="matrix(1 0 0 1 517.7974 491.4396)" class="st0 st1 st3">1.ANT</text>
	<text transform="matrix(1 0 0 1 763.4924 490.9357)" class="st0 st1 st3">1.PRE</text>
	<text transform="matrix(1 0 0 1 888.6541 491.6076)" class="st0 st1 st3">2.MED</text>
	<text transform="matrix(1 0 0 1 608.673 497.7347)" class="st1 st2">4.ANT</text>
	<text transform="matrix(1 0 0 1 410.7894 497.063)" class="st1 st2">0.ANT4</text>
	<text transform="matrix(1 0 0 1 242.6666 497.2308)" class="st1 st2">0.PE</text>
	<text transform="matrix(1 0 0 1 142.4856 497.0628)" class="st1 st2">0.PRE</text>
	<text transform="matrix(1 0 0 1 329.8539 497.3989)" class="st1 st2">0.ANT</text>
	<text transform="matrix(1 0 0 1 97.4886 38.7197)" class="st1 st2">e</text>
	<text transform="matrix(1 0 0 1 114.2524 33.319)" class="st1 st4">-7</text>
	<text transform="matrix(1 0 0 1 511.5132 497.0629)" class="st1 st2">3.ANT</text>
	<text transform="matrix(1 0 0 1 711.2766 497.0627)" class="st1 st2">2.ANT</text>
	<text transform="matrix(1 0 0 1 814.222 497.7346)" class="st1 st2">2.MED</text>
</g>
<g id="Boxplot">
	<g id="_1.ORI">
		<rect x="1222.2" y="399.4" class="st5" width="74" height="22.7"/>
		<rect x="1222.2" y="399.4" class="st6" width="74" height="22.7"/>
		<line class="st7" x1="1222.2" y1="410.7" x2="1296.2" y2="410.7"/>
		<path class="st8" d="M1259.2,399.4v-7.2 M1259.2,432.4V422"/>
		<rect x="1222.2" y="399.4" class="st8" width="74" height="22.7"/>
	</g>
	<g id="_x31_.ANT">
		<rect x="1022.5" y="425.7" class="st9" width="74" height="27.7"/>
		<line class="st10" x1="1022.5" y1="440.2" x2="1096.5" y2="440.2"/>
		<path class="st11" d="M1059.5,425.7v-21 M1059.5,459.6v-6.1"/>
		<rect x="1022.5" y="425.7" class="st11" width="74" height="27.7"/>
	</g>
	<g id="_x31_.PRE">
		<rect x="912.8" y="442.9" class="st12" width="74" height="10.9"/>
		<rect x="912.8" y="442.9" class="st13" width="74" height="10.2"/>
		<line class="st14" x1="912.8" y1="448.1" x2="986.8" y2="448.1"/>
		<path class="st15" d="M949.8,442.9v-4.6 M949.8,456.9V453"/>
		<rect x="912.8" y="442.9" class="st15" width="74" height="10.2"/>
	</g>
	<g id="_x32_.MED">
		<rect x="804" y="331.4" class="st16" width="74" height="50.6"/>
		<rect x="804" y="331.4" class="st17" width="74" height="50.6"/>
		<line class="st18" x1="804" y1="355.4" x2="878" y2="355.4"/>
		<path class="st19" d="M841,331.4v-12.1 M841,396.4V382"/>
		<rect x="804" y="331.4" class="st19" width="74" height="50.6"/>
	</g>
	<g id="_x34_.ANT">
		<rect x="600.1" y="397.8" class="st20" width="74" height="55.7"/>
		<rect x="600.1" y="397.8" class="st21" width="74" height="55.7"/>
		<line class="st22" x1="600.1" y1="426.8" x2="674.1" y2="426.8"/>
		<path class="st23" d="M637.1,397.8v-40.4 M637.1,462.8v-9.3"/>
		<rect x="600.1" y="397.8" class="st23" width="74" height="55.7"/>
	</g>
	<g id="_x30_.ANT4">
		<rect x="404" y="448.5" class="st24" width="74" height="10.8"/>
		<rect x="404" y="448.5" class="st25" width="74" height="10.8"/>
		<line class="st26" x1="404" y1="453.9" x2="478" y2="453.9"/>
		<path class="st27" d="M441,448.5v-4.1 M441,463.7v-4.3"/>
		<rect x="404" y="448.5" class="st27" width="74" height="10.8"/>
	</g>
	<g id="_x30_.PE">
		<rect x="223.7" y="115.1" class="st28" width="74" height="155.5"/>
		<line class="st29" x1="223.7" y1="188.6" x2="297.7" y2="188.6"/>
		<path class="st30" d="M260.7,115.1V73 M260.7,330v-59.4"/>
		<rect x="223.7" y="115.1" class="st30" width="74" height="155.5"/>
	</g>
	<g id="_x30_.PRE">
		<rect x="131.6" y="440.6" class="st31" width="74" height="11.7"/>
		<rect x="131.6" y="440.2" class="st32" width="74" height="11.7"/>
		<line class="st33" x1="131.6" y1="445.9" x2="205.6" y2="445.9"/>
		<path class="st33" d="M168.6,440.2v-3 M168.6,456.1v-4.3"/>
		<rect x="131.6" y="440.2" class="st34" width="74" height="11.7"/>
	</g>
	<rect x="1022.5" y="425.7" class="st35" width="74" height="27.7"/>
	<text transform="matrix(4.489659e-11 -1 1 4.489659e-11 40.1856 381.1486)" class="st36 st37">Subsitution Rate</text>
	<text transform="matrix(1 0 0 1 674.0669 540.2048)" class="st36 st37">Clade</text>
</g>
<g id="Frame_1_">
	<rect id="Frame" x="106.9" y="55.1" class="st38" width="1228.5" height="415"/>
	<g id="Axis">
		<line class="st38" x1="168.6" y1="470.1" x2="168.6" y2="474.1"/>
		<line class="st38" x1="260.7" y1="470.1" x2="260.7" y2="474.1"/>
		<line class="st38" x1="358" y1="470.1" x2="358" y2="474.1"/>
		<line class="st38" x1="441" y1="470.1" x2="441" y2="474.1"/>
		<line class="st38" x1="537.1" y1="470.1" x2="537.1" y2="474.1"/>
		<line class="st38" x1="637.1" y1="470.1" x2="637.1" y2="474.1"/>
		<line class="st38" x1="735.7" y1="470.1" x2="735.7" y2="474.1"/>
		<line class="st38" x1="841" y1="470.1" x2="841" y2="474.1"/>
		<line class="st38" x1="106.9" y1="470.1" x2="102.9" y2="470.1"/>
		<line class="st38" x1="106.9" y1="447" x2="104.9" y2="447"/>
		<line class="st38" x1="106.9" y1="424" x2="102.9" y2="424"/>
		<line class="st38" x1="106.9" y1="400.9" x2="104.9" y2="400.9"/>
		<line class="st38" x1="106.9" y1="377.9" x2="102.9" y2="377.9"/>
		<line class="st38" x1="106.9" y1="354.8" x2="104.9" y2="354.8"/>
		<line class="st38" x1="106.9" y1="331.8" x2="102.9" y2="331.8"/>
		<line class="st38" x1="106.9" y1="308.7" x2="104.9" y2="308.7"/>
		<line class="st38" x1="106.9" y1="285.6" x2="102.9" y2="285.6"/>
		<line class="st38" x1="106.9" y1="262.6" x2="104.9" y2="262.6"/>
		<line class="st38" x1="106.9" y1="239.5" x2="102.9" y2="239.5"/>
		<line class="st38" x1="106.9" y1="216.5" x2="104.9" y2="216.5"/>
		<line class="st38" x1="106.9" y1="193.4" x2="102.9" y2="193.4"/>
		<line class="st38" x1="106.9" y1="170.4" x2="104.9" y2="170.4"/>
		<line class="st38" x1="106.9" y1="147.3" x2="102.9" y2="147.3"/>
		<line class="st38" x1="106.9" y1="124.3" x2="104.9" y2="124.3"/>
		<line class="st38" x1="106.9" y1="101.2" x2="102.9" y2="101.2"/>
		<line class="st38" x1="106.9" y1="78.1" x2="104.9" y2="78.1"/>
		<line class="st38" x1="106.9" y1="55.1" x2="102.9" y2="55.1"/>
		<text transform="matrix(1 0 0 1 923.0456 497.7577)" class="st1 st2">1.PRE</text>
		<line class="st38" x1="949.8" y1="470.1" x2="949.8" y2="474.1"/>
		<text transform="matrix(1 0 0 1 1139.9966 497.2841)" class="st1 st2">1.IN</text>
		<line class="st38" x1="1160.7" y1="470.3" x2="1160.7" y2="474.3"/>
		<text transform="matrix(1 0 0 1 1238.5454 497.2843)" class="st1 st2">1.ORI</text>
		<line class="st38" x1="1259.2" y1="470.3" x2="1259.2" y2="474.3"/>
		<text transform="matrix(1 0 0 1 1032.7156 498.4296)" class="st1 st2">1.ANT</text>
		<line class="st38" x1="1059.5" y1="470.8" x2="1059.5" y2="474.8"/>
	</g>
</g>
<g id="Layer_6">
</g>
</svg>
