<?xml version="1.0" encoding="utf-8"?>
<!-- Generator: Adobe Illustrator 25.2.0, SVG Export Plug-In . SVG Version: 6.00 Build 0)  -->
<svg version="1.1" id="Layer_1" xmlns="http://www.w3.org/2000/svg" xmlns:xlink="http://www.w3.org/1999/xlink" x="0px" y="0px"
	 viewBox="0 0 817.2 670.7" style="enable-background:new 0 0 817.2 670.7;" xml:space="preserve">
<style type="text/css">
	.st0{display:none;}
	.st1{fill-opacity:0;}
	.st2{fill:#333333;}
	.st3{font-family:'ArialMT';}
	.st4{font-size:18px;}
	.st5{font-size:21.6701px;}
	.st6{clip-path:url(#SVGID_7_);}
	.st7{clip-path:url(#SVGID_13_);}
	.st8{clip-path:url(#SVGID_18_);}
	.st9{clip-path:url(#SVGID_19_);}
	.st10{clip-path:url(#SVGID_25_);}
	.st11{clip-path:url(#SVGID_26_);}
	.st12{clip-path:url(#SVGID_27_);}
	.st13{clip-path:url(#SVGID_28_);}
	.st14{clip-path:url(#SVGID_33_);}
	.st15{clip-path:url(#SVGID_34_);}
	.st16{clip-path:url(#SVGID_39_);}
	.st17{clip-path:url(#SVGID_45_);}
	.st18{clip-path:url(#SVGID_46_);}
	.st19{clip-path:url(#SVGID_53_);}
	.st20{fill:none;}
	.st21{fill:#E6CE74;fill-opacity:0.65;stroke:#E6CE74;stroke-width:0.4942;stroke-miterlimit:1.9768;stroke-opacity:0.85;}
	.st22{fill-opacity:0.65;}
	.st23{fill:none;stroke:#DDDDDD;stroke-width:2;}
	.st24{fill:none;stroke:#EEEEEE;}
	.st25{fill:#777777;}
	.st26{font-family:'Arial-BoldMT';}
	.st27{font-size:9px;}
	.st28{font-size:10px;}
	.st29{opacity:0.5;fill:none;stroke:#707070;stroke-width:16;enable-background:new    ;}
	.st30{opacity:0.5;fill:none;stroke:#707070;stroke-width:15.1408;enable-background:new    ;}
	.st31{opacity:0.5;fill:none;stroke:#CCC39F;stroke-width:8.6469;enable-background:new    ;}
	.st32{opacity:0.5;fill:none;stroke:#707070;stroke-width:15.0269;enable-background:new    ;}
	.st33{opacity:0.5;fill:none;stroke:#707070;stroke-width:14.9114;enable-background:new    ;}
	.st34{opacity:0.5;fill:none;stroke:#707070;stroke-width:14.7942;enable-background:new    ;}
	.st35{opacity:0.5;fill:none;stroke:#707070;stroke-width:14.6752;enable-background:new    ;}
	.st36{opacity:0.5;fill:none;stroke:#707070;stroke-width:12.5942;enable-background:new    ;}
	.st37{opacity:0.5;fill:none;stroke:#707070;stroke-width:12.4272;enable-background:new    ;}
	.st38{opacity:0.5;fill:none;stroke:#707070;stroke-width:9.6752;enable-background:new    ;}
	.st39{opacity:0.5;fill:none;stroke:#707070;stroke-width:9.1795;enable-background:new    ;}
	.st40{opacity:0.5;fill:none;stroke:#707070;stroke-width:11.784;enable-background:new    ;}
	.st41{opacity:0.5;fill:none;stroke:#707070;stroke-width:11.4002;enable-background:new    ;}
	.st42{opacity:0.5;fill:none;stroke:#707070;stroke-width:10.5812;enable-background:new    ;}
	.st43{opacity:0.5;fill:none;stroke:#707070;stroke-width:10.1408;enable-background:new    ;}
	.st44{opacity:0.5;fill:none;stroke:#707070;stroke-width:13.0678;enable-background:new    ;}
	.st45{opacity:0.5;fill:none;stroke:#707070;stroke-width:12.2549;enable-background:new    ;}
	.st46{opacity:0.5;fill:none;stroke:#707070;stroke-width:12.0767;enable-background:new    ;}
	.st47{opacity:0.5;fill:none;stroke:#707070;stroke-width:11;enable-background:new    ;}
	.st48{opacity:0.5;fill:none;stroke:#707070;stroke-width:8.6469;enable-background:new    ;}
	.st49{fill:#FFFF92;stroke:#E6CE74;}
	.st50{stroke:#707070;stroke-width:10;stroke-linecap:round;}
	.st51{stroke:#707070;stroke-width:9.1408;stroke-linecap:round;}
	.st52{stroke:#CCC39F;stroke-width:4.3235;stroke-linecap:round;}
	.st53{stroke:#707070;stroke-width:9.0269;stroke-linecap:round;}
	.st54{stroke:#707070;stroke-width:8.9114;stroke-linecap:round;}
	.st55{stroke:#707070;stroke-width:8.7942;stroke-linecap:round;}
	.st56{stroke:#707070;stroke-width:8.6752;stroke-linecap:round;}
	.st57{stroke:#707070;stroke-width:6.5942;stroke-linecap:round;}
	.st58{stroke:#707070;stroke-width:6.4272;stroke-linecap:round;}
	.st59{stroke:#707070;stroke-width:4.8376;stroke-linecap:round;}
	.st60{stroke:#707070;stroke-width:4.5898;stroke-linecap:round;}
	.st61{stroke:#707070;stroke-width:5.892;stroke-linecap:round;}
	.st62{stroke:#707070;stroke-width:5.7001;stroke-linecap:round;}
	.st63{stroke:#707070;stroke-width:5.2906;stroke-linecap:round;}
	.st64{stroke:#707070;stroke-width:5.0704;stroke-linecap:round;}
	.st65{stroke:#707070;stroke-width:7.0678;stroke-linecap:round;}
	.st66{stroke:#707070;stroke-width:6.2549;stroke-linecap:round;}
	.st67{stroke:#707070;stroke-width:6.0767;stroke-linecap:round;}
	.st68{stroke:#707070;stroke-width:5.5;stroke-linecap:round;}
	.st69{stroke:#707070;stroke-width:4.3235;stroke-linecap:round;}
	.st70{fill:none;stroke:#707070;stroke-width:10;}
	.st71{fill:none;stroke:#707070;stroke-width:9.1408;}
	.st72{fill:none;stroke:#707070;stroke-width:9.0269;}
	.st73{fill:none;stroke:#707070;stroke-width:8.9114;}
	.st74{fill:none;stroke:#707070;stroke-width:8.7942;}
	.st75{fill:none;stroke:#707070;stroke-width:8.6752;}
	.st76{fill:none;stroke:#707070;stroke-width:6.5942;}
	.st77{fill:none;stroke:#707070;stroke-width:6.4272;}
	.st78{fill:none;stroke:#707070;stroke-width:4.8376;}
	.st79{fill:none;stroke:#707070;stroke-width:4.5898;}
	.st80{fill:none;stroke:#707070;stroke-width:5.892;}
	.st81{fill:none;stroke:#707070;stroke-width:5.7001;}
	.st82{fill:none;stroke:#707070;stroke-width:5.2906;}
	.st83{fill:none;stroke:#707070;stroke-width:5.0704;}
	.st84{fill:none;stroke:#707070;stroke-width:7.0678;}
	.st85{fill:none;stroke:#707070;stroke-width:6.2549;}
	.st86{fill:none;stroke:#707070;stroke-width:6.0767;}
	.st87{fill:none;stroke:#707070;stroke-width:5.5;}
	.st88{fill:none;stroke:#707070;stroke-width:4.3235;}
</style>
<g id="Terminal_Branches" class="st0">
</g>
<g id="Layer_1_1_">
	<g id="treeLegend" pointer-events="none">
		<g id="temporalWindow">
			<path class="st1" d="M52,52L52,52L52,52z"/>
			<path class="st1" d="M52,52L52,52L52,52z"/>
		</g>
		<g id="gridText">
			<text transform="matrix(1 0 0 1 43.7274 606.2158)" class="st2 st3 st4">1300</text>
			<text transform="matrix(1 0 0 1 160.6696 606.2158)" class="st2 st3 st4">1400</text>
			<text transform="matrix(1 0 0 1 277.6117 606.2158)" class="st2 st3 st4">1500</text>
			<text transform="matrix(1 0 0 1 394.5538 606.2158)" class="st2 st3 st4">1600</text>
			<text transform="matrix(1 0 0 1 511.7118 606)" class="st2 st3 st4">1700</text>
			<text transform="matrix(1 0 0 1 628.6538 606)" class="st2 st3 st4">1800</text>
		</g>
		<g id="axisText">
			<text transform="matrix(1 0 0 1 368.3257 634.2988)" class="st2 st3 st5">Date</text>
		</g>
		<g>
			<g>
				<g>
					<defs>
						<polygon id="SVGID_1_" points="3,3 4,3 3,4 						"/>
					</defs>
					<clipPath id="SVGID_2_">
						<use xlink:href="#SVGID_1_"  style="overflow:visible;"/>
					</clipPath>
				</g>
			</g>
			<g>
				<g>
					<defs>
						<polygon id="SVGID_3_" points="3,3 4,3 3,4 						"/>
					</defs>
					<clipPath id="SVGID_4_">
						<use xlink:href="#SVGID_3_"  style="overflow:visible;"/>
					</clipPath>
				</g>
				<g>
					<defs>
						<polygon id="SVGID_5_" points="3,3 4,3 3,4 						"/>
					</defs>
					<defs>
						<polygon id="SVGID_6_" points="1,1 0,1 1,0 						"/>
					</defs>
					<clipPath id="SVGID_7_">
						<use xlink:href="#SVGID_5_"  style="overflow:visible;"/>
					</clipPath>
					<clipPath id="SVGID_8_" class="st6">
						<use xlink:href="#SVGID_6_"  style="overflow:visible;"/>
					</clipPath>
				</g>
			</g>
			<g>
				<g>
					<defs>
						<polygon id="SVGID_9_" points="3,3 4,3 3,4 						"/>
					</defs>
					<clipPath id="SVGID_10_">
						<use xlink:href="#SVGID_9_"  style="overflow:visible;"/>
					</clipPath>
				</g>
				<g>
					<defs>
						<polygon id="SVGID_11_" points="3,3 4,3 3,4 						"/>
					</defs>
					<defs>
						<polygon id="SVGID_12_" points="1,1 0,1 1,0 						"/>
					</defs>
					<clipPath id="SVGID_13_">
						<use xlink:href="#SVGID_11_"  style="overflow:visible;"/>
					</clipPath>
					<clipPath id="SVGID_14_" class="st7">
						<use xlink:href="#SVGID_12_"  style="overflow:visible;"/>
					</clipPath>
				</g>
				<g>
					<defs>
						<polygon id="SVGID_15_" points="3,3 4,3 3,4 						"/>
					</defs>
					<defs>
						<polygon id="SVGID_16_" points="1,1 0,1 1,0 						"/>
					</defs>
					<defs>
						<polygon id="SVGID_17_" points="792.5,53 793.5,53 792.5,54 						"/>
					</defs>
					<clipPath id="SVGID_18_">
						<use xlink:href="#SVGID_15_"  style="overflow:visible;"/>
					</clipPath>
					<clipPath id="SVGID_19_" class="st8">
						<use xlink:href="#SVGID_16_"  style="overflow:visible;"/>
					</clipPath>
					<clipPath id="SVGID_20_" class="st9">
						<use xlink:href="#SVGID_17_"  style="overflow:visible;"/>
					</clipPath>
				</g>
				<g>
					<defs>
						<polygon id="SVGID_21_" points="3,3 4,3 3,4 						"/>
					</defs>
					<defs>
						<polygon id="SVGID_22_" points="1,1 0,1 1,0 						"/>
					</defs>
					<defs>
						<polygon id="SVGID_23_" points="792.5,53 793.5,53 792.5,54 						"/>
					</defs>
					<defs>
						<polygon id="SVGID_24_" points="790.5,51 789.5,51 790.5,50 						"/>
					</defs>
					<clipPath id="SVGID_25_">
						<use xlink:href="#SVGID_21_"  style="overflow:visible;"/>
					</clipPath>
					<clipPath id="SVGID_26_" class="st10">
						<use xlink:href="#SVGID_22_"  style="overflow:visible;"/>
					</clipPath>
					<clipPath id="SVGID_27_" class="st11">
						<use xlink:href="#SVGID_23_"  style="overflow:visible;"/>
					</clipPath>
					<clipPath id="SVGID_28_" class="st12">
						<use xlink:href="#SVGID_24_"  style="overflow:visible;"/>
					</clipPath>
					<g class="st13">
						<g id="map">
							<g>
								<g>
									<g>
										<g>
											<g>
												<defs>
													<polygon id="SVGID_29_" points="792.5,53 793.5,53 792.5,54 													"/>
												</defs>
												<clipPath id="SVGID_30_">
													<use xlink:href="#SVGID_29_"  style="overflow:visible;"/>
												</clipPath>
											</g>
											<g>
												<defs>
													<polygon id="SVGID_31_" points="792.5,53 793.5,53 792.5,54 													"/>
												</defs>
												<defs>
													<polygon id="SVGID_32_" points="790.5,51 789.5,51 790.5,50 													"/>
												</defs>
												<clipPath id="SVGID_33_">
													<use xlink:href="#SVGID_31_"  style="overflow:visible;"/>
												</clipPath>
												<clipPath id="SVGID_34_" class="st14">
													<use xlink:href="#SVGID_32_"  style="overflow:visible;"/>
												</clipPath>
												<g class="st15">
													<g>
														<g>
															<g>
																<defs>
																	<polygon id="SVGID_35_" points="792.5,53 793.5,53 792.5,54 																	"/>
																</defs>
																<clipPath id="SVGID_36_">
																	<use xlink:href="#SVGID_35_"  style="overflow:visible;"/>
																</clipPath>
															</g>
															<g>
																<defs>
																	<polygon id="SVGID_37_" points="792.5,53 793.5,53 792.5,54 																	"/>
																</defs>
																<defs>
																	<polygon id="SVGID_38_" points="790.5,51 789.5,51 790.5,50 																	"/>
																</defs>
																<clipPath id="SVGID_39_">
																	<use xlink:href="#SVGID_37_"  style="overflow:visible;"/>
																</clipPath>
																<clipPath id="SVGID_40_" class="st16">
																	<use xlink:href="#SVGID_38_"  style="overflow:visible;"/>
																</clipPath>
															</g>
														</g>
														<g>
															<g>
																<defs>
																	<polygon id="SVGID_41_" points="792.5,53 793.5,53 792.5,54 																	"/>
																</defs>
																<clipPath id="SVGID_42_">
																	<use xlink:href="#SVGID_41_"  style="overflow:visible;"/>
																</clipPath>
															</g>
															<g>
																<defs>
																	<polygon id="SVGID_43_" points="792.5,53 793.5,53 792.5,54 																	"/>
																</defs>
																<defs>
																	<polygon id="SVGID_44_" points="790.5,51 789.5,51 790.5,50 																	"/>
																</defs>
																<clipPath id="SVGID_45_">
																	<use xlink:href="#SVGID_43_"  style="overflow:visible;"/>
																</clipPath>
																<clipPath id="SVGID_46_" class="st17">
																	<use xlink:href="#SVGID_44_"  style="overflow:visible;"/>
																</clipPath>
																<g class="st18">
																	<g>
																		<g>
																			<g>
																				<defs>
																					<polygon id="SVGID_47_" points="792.5,53 793.5,53 792.5,54 																					"/>
																				</defs>
																				<clipPath id="SVGID_48_">
																					<use xlink:href="#SVGID_47_"  style="overflow:visible;"/>
																				</clipPath>
																			</g>
																		</g>
																		<g>
																			<g>
																				<defs>
																					<polygon id="SVGID_49_" points="792.5,53 793.5,53 792.5,54 																					"/>
																				</defs>
																				<clipPath id="SVGID_50_">
																					<use xlink:href="#SVGID_49_"  style="overflow:visible;"/>
																				</clipPath>
																			</g>
																			<g>
																				<defs>
																					<polygon id="SVGID_51_" points="792.5,53 793.5,53 792.5,54 																					"/>
																				</defs>
																				<defs>
																					<polygon id="SVGID_52_" points="790.5,51 789.5,51 790.5,50 																					"/>
																				</defs>
																				<clipPath id="SVGID_53_">
																					<use xlink:href="#SVGID_51_"  style="overflow:visible;"/>
																				</clipPath>
																				<clipPath id="SVGID_54_" class="st19">
																					<use xlink:href="#SVGID_52_"  style="overflow:visible;"/>
																				</clipPath>
																			</g>
																		</g>
																	</g>
																</g>
															</g>
														</g>
													</g>
												</g>
											</g>
										</g>
									</g>
								</g>
								<g>
									<path class="st20" d="M-350.1,1640.7l-0.4,0.7c-0.4,0.7-1.3,2.2-2.1,3.7c-0.8,1.5-1.5,2.9-2.1,4.3s-1.2,2.9-1.6,4.3
										c-0.5,1.4-0.9,2.8-1.2,4.2c-0.3,1.4-0.5,2.8-0.7,4.1s-0.2,2.7-0.2,4.1s0.1,2.7,0.3,4c0.2,1.3,0.4,2.6,0.8,4
										c0.3,1.3,0.8,2.6,1.3,3.9s1.1,2.6,1.7,3.8c0.7,1.3,1.4,2.5,2.2,3.8c0.8,1.2,1.7,2.5,2.7,3.7s2,2.4,3.2,3.6
										c1.1,1.2,2.4,2.4,3,3l0.6,0.6"/>
									<path class="st20" d="M1674.2,1640.7l-0.4,0.7c-0.4,0.7-1.3,2.2-2.1,3.7s-1.5,2.9-2.1,4.3s-1.2,2.9-1.6,4.3
										c-0.5,1.4-0.9,2.8-1.2,4.2c-0.3,1.4-0.5,2.8-0.7,4.1c-0.1,1.4-0.2,2.7-0.2,4.1s0.1,2.7,0.3,4c0.2,1.3,0.4,2.6,0.8,4
										c0.3,1.3,0.8,2.6,1.3,3.9s1.1,2.6,1.7,3.8c0.7,1.3,1.4,2.5,2.2,3.8c0.8,1.2,1.7,2.5,2.7,3.7s2,2.4,3.2,3.6s2.4,2.4,3,3
										l0.6,0.6"/>
									<path class="st20" d="M-350.1,1640.7l-0.5-0.8c-0.5-0.8-1.5-2.5-2.5-4.1s-2.1-3.1-3.2-4.6s-2.2-2.8-3.4-4.1
										c-1.2-1.3-2.4-2.5-3.6-3.7s-2.5-2.2-3.8-3.2s-2.7-1.9-4.1-2.8c-1.4-0.8-2.8-1.6-4.3-2.3c-1.5-0.7-3-1.3-4.5-1.9
										s-3.1-1-4.7-1.4s-3.2-0.7-4.9-0.9c-1.7-0.2-3.4-0.4-5.1-0.5s-3.5-0.1-5.4,0c-1.8,0.1-3.7,0.2-5.6,0.4
										c-1.9,0.2-3.8,0.5-4.8,0.7l-1,0.1"/>
									<path class="st20" d="M1674.2,1640.7l-0.5-0.8c-0.5-0.8-1.5-2.5-2.5-4.1s-2.1-3.1-3.2-4.6s-2.2-2.8-3.4-4.1
										c-1.2-1.3-2.4-2.5-3.6-3.7s-2.5-2.2-3.8-3.2s-2.7-1.9-4.1-2.8c-1.4-0.8-2.8-1.6-4.3-2.3s-3-1.3-4.5-1.9s-3.1-1-4.7-1.4
										s-3.2-0.7-4.9-0.9s-3.4-0.4-5.1-0.5s-3.5-0.1-5.4,0c-1.8,0.1-3.7,0.2-5.6,0.4c-1.9,0.2-3.8,0.5-4.8,0.7l-1,0.1"/>
									<path class="st20" d="M-350.1,1640.7l-0.6-0.8c-0.6-0.8-1.8-2.4-3-3.9s-2.5-2.9-3.7-4.3c-1.3-1.3-2.6-2.6-3.9-3.8
										c-1.3-1.2-2.7-2.3-4.1-3.3s-2.8-2-4.2-2.8c-1.4-0.9-2.9-1.6-4.4-2.3c-1.5-0.7-3-1.3-4.6-1.9c-1.6-0.5-3.1-1-4.7-1.4
										s-3.2-0.7-4.9-0.9c-1.7-0.2-3.4-0.4-5.1-0.4c-1.7-0.1-3.5,0-5.2,0.1c-1.8,0.1-3.6,0.3-5.4,0.5c-1.8,0.3-3.7,0.6-5.6,1
										s-3.8,0.9-4.8,1.2l-1,0.2"/>
									<path class="st20" d="M1674.2,1640.7l-0.6-0.8c-0.6-0.8-1.8-2.4-3-3.9s-2.5-2.9-3.7-4.3s-2.6-2.6-3.9-3.8
										c-1.3-1.2-2.7-2.3-4.1-3.3s-2.8-2-4.2-2.8c-1.4-0.9-2.9-1.6-4.4-2.3c-1.5-0.7-3-1.3-4.6-1.9s-3.1-1-4.7-1.4
										s-3.2-0.7-4.9-0.9c-1.7-0.2-3.4-0.4-5.1-0.4c-1.7-0.1-3.5,0-5.2,0.1s-3.6,0.3-5.4,0.5s-3.7,0.6-5.6,1s-3.8,0.9-4.8,1.2
										l-1,0.2"/>
									<path class="st20" d="M3698.4,1640.7l-0.6-0.8c-0.6-0.8-1.8-2.4-3-3.9s-2.5-2.9-3.7-4.3c-1.3-1.3-2.6-2.6-3.9-3.8
										c-1.3-1.2-2.7-2.3-4.1-3.3c-1.4-1-2.8-2-4.2-2.8c-1.4-0.9-2.9-1.6-4.4-2.3c-1.5-0.7-3-1.3-4.6-1.9c-1.6-0.5-3.1-1-4.7-1.4
										c-1.6-0.4-3.2-0.7-4.9-0.9c-1.7-0.2-3.4-0.4-5.1-0.4c-1.7-0.1-3.5,0-5.2,0.1s-3.6,0.3-5.4,0.5c-1.8,0.3-3.7,0.6-5.6,1
										c-1.9,0.4-3.8,0.9-4.8,1.2l-1,0.2"/>
									<path class="st20" d="M-415.4,1617.9l2.6,1.1c2.6,1.1,7.9,3.2,13.2,5.3c5.3,2,10.6,4,15.9,5.8s10.7,3.6,16,5.2
										c5.4,1.6,10.7,3.2,16.1,4.6s10.8,2.7,16.2,4c5.4,1.2,10.9,2.3,16.3,3.3c5.5,1,10.9,1.9,16.4,2.7c5.5,0.8,11,1.5,16.5,2.1
										s11,1.1,16.6,1.5c5.5,0.4,11.1,0.7,16.7,0.8c5.6,0.2,11.2,0.2,16.8,0.2s11.2-0.2,16.9-0.4c5.6-0.2,11.3-0.6,17-1
										s11.3-1,14.2-1.3l2.8-0.3"/>
									<path class="st20" d="M1608.9,1617.9l2.6,1.1c2.6,1.1,7.9,3.2,13.2,5.3c5.3,2,10.6,4,15.9,5.8s10.7,3.6,16,5.2
										c5.4,1.6,10.7,3.2,16.1,4.6s10.8,2.7,16.2,4c5.4,1.2,10.9,2.3,16.3,3.3c5.5,1,10.9,1.9,16.4,2.7c5.5,0.8,11,1.5,16.5,2.1
										s11,1.1,16.6,1.5c5.5,0.4,11.1,0.7,16.7,0.8c5.6,0.2,11.2,0.2,16.8,0.2c5.6,0,11.2-0.2,16.9-0.4c5.6-0.2,11.3-0.6,17-1
										s11.3-1,14.2-1.3l2.8-0.3"/>
									<path class="st20" d="M3633.2,1617.9l2.6,1.1c2.6,1.1,7.9,3.2,13.2,5.3c5.3,2,10.6,4,15.9,5.8c5.3,1.8,10.7,3.6,16,5.2
										c5.4,1.6,10.7,3.2,16.1,4.6c5.4,1.4,10.8,2.7,16.2,4c5.4,1.2,10.9,2.3,16.3,3.3c5.5,1,10.9,1.9,16.4,2.7
										c5.5,0.8,11,1.5,16.5,2.1s11,1.1,16.6,1.5c5.5,0.4,11.1,0.7,16.7,0.8c5.6,0.2,11.2,0.2,16.8,0.2s11.2-0.2,16.9-0.4
										c5.6-0.2,11.3-0.6,17-1s11.3-1,14.2-1.3l2.8-0.3"/>
									<path class="st20" d="M-185.1,1651.5l-2.4-0.3c-2.4-0.3-7.3-1-12.1-1.5s-9.6-1-14.4-1.3c-4.8-0.3-9.6-0.6-14.3-0.7
										c-4.8-0.1-9.5-0.2-14.3-0.1c-4.7,0.1-9.5,0.3-14.2,0.5c-4.7,0.3-9.4,0.7-14.1,1.1c-4.7,0.5-9.3,1.1-14,1.7
										s-9.3,1.5-13.9,2.4s-9.2,1.9-13.8,3c-4.6,1.1-9.2,2.3-13.7,3.6c-4.6,1.3-9.1,2.7-13.6,4.2s-9,3.1-13.5,4.8
										c-4.5,1.7-9,3.5-13.5,5.4s-8.9,3.9-11.2,4.9l-2.2,1"/>
									<path class="st20" d="M1839.2,1651.5l-2.4-0.3c-2.4-0.3-7.3-1-12.1-1.5c-4.8-0.5-9.6-1-14.4-1.3s-9.6-0.6-14.3-0.7
										c-4.8-0.1-9.5-0.2-14.3-0.1c-4.7,0.1-9.5,0.3-14.2,0.5c-4.7,0.3-9.4,0.7-14.1,1.1c-4.7,0.5-9.3,1.1-14,1.7
										c-4.6,0.7-9.3,1.5-13.9,2.4s-9.2,1.9-13.8,3c-4.6,1.1-9.2,2.3-13.7,3.6c-4.6,1.3-9.1,2.7-13.6,4.2s-9,3.1-13.5,4.8
										c-4.5,1.7-9,3.5-13.5,5.4s-8.9,3.9-11.2,4.9l-2.2,1"/>
									<path class="st20" d="M-185.1,1651.5l-0.1,0.7c-0.1,0.7-0.2,2.2-0.2,3.6c-0.1,1.4-0.1,2.7,0,4s0.2,2.5,0.4,3.7
										s0.4,2.4,0.7,3.5s0.7,2.2,1.1,3.2c0.4,1,0.9,2,1.4,2.9s1.1,1.8,1.8,2.6c0.7,0.8,1.4,1.6,2.2,2.3s1.6,1.4,2.5,2
										s1.9,1.2,2.9,1.7s2.1,1,3.2,1.4c1.1,0.4,2.3,0.8,3.6,1.1c1.3,0.3,2.6,0.6,4,0.8c1.4,0.2,2.8,0.4,3.5,0.5l0.7,0.1"/>
									<path class="st20" d="M1839.2,1651.5l-0.1,0.7c-0.1,0.7-0.2,2.2-0.2,3.6s-0.1,2.7,0,4s0.2,2.5,0.4,3.7
										c0.2,1.2,0.4,2.4,0.7,3.5c0.3,1.1,0.7,2.2,1.1,3.2s0.9,2,1.4,2.9s1.1,1.8,1.8,2.6s1.4,1.6,2.2,2.3c0.8,0.7,1.6,1.4,2.5,2
										s1.9,1.2,2.9,1.7s2.1,1,3.2,1.4s2.3,0.8,3.6,1.1c1.3,0.3,2.6,0.6,4,0.8c1.4,0.2,2.8,0.4,3.5,0.5l0.7,0.1"/>
									<path class="st20" d="M-350.1,1640.7l-0.2-0.3c-0.2-0.3-0.7-1-1.2-1.6s-0.9-1.1-1.4-1.6c-0.4-0.5-0.9-0.9-1.3-1.3
										s-0.8-0.7-1.2-1c-0.4-0.3-0.8-0.5-1.1-0.6c-0.4-0.2-0.7-0.3-1.1-0.3c-0.3,0-0.7,0-1,0c-0.3,0.1-0.6,0.2-0.9,0.4
										c-0.3,0.2-0.6,0.4-0.8,0.7c-0.3,0.3-0.5,0.6-0.8,1.1c-0.2,0.4-0.5,0.9-0.7,1.4s-0.4,1.1-0.6,1.7s-0.4,1.3-0.5,2.1
										c-0.2,0.7-0.3,1.5-0.4,1.9l-0.1,0.4"/>
									<path class="st20" d="M1674.2,1640.7l-0.2-0.3c-0.2-0.3-0.7-1-1.2-1.6s-0.9-1.1-1.4-1.6c-0.4-0.5-0.9-0.9-1.3-1.3
										s-0.8-0.7-1.2-1s-0.8-0.5-1.1-0.6c-0.4-0.2-0.7-0.3-1.1-0.3s-0.7,0-1,0c-0.3,0.1-0.6,0.2-0.9,0.4c-0.3,0.2-0.6,0.4-0.8,0.7
										c-0.3,0.3-0.5,0.6-0.8,1.1c-0.2,0.4-0.5,0.9-0.7,1.4s-0.4,1.1-0.6,1.7s-0.4,1.3-0.5,2.1c-0.2,0.7-0.3,1.5-0.4,1.9l-0.1,0.4
										"/>
									<path class="st20" d="M-363.5,1643.6l1.4-0.2c1.4-0.2,4.2-0.5,7-0.9s5.5-0.9,8.1-1.5c2.7-0.6,5.3-1.2,7.8-2
										c2.6-0.7,5.1-1.5,7.5-2.4s4.9-1.8,7.2-2.9c2.4-1,4.7-2.2,6.9-3.4c2.3-1.2,4.5-2.5,6.6-3.8c2.2-1.4,4.3-2.8,6.3-4.3
										c2.1-1.5,4.1-3.1,6.1-4.8c2-1.7,3.9-3.4,5.8-5.2c1.9-1.8,3.7-3.7,5.5-5.7s3.5-4,5.2-6.2s3.3-4.3,4.9-6.6
										c1.6-2.3,3.1-4.7,3.9-5.8l0.8-1.2"/>
									<path class="st20" d="M1660.8,1643.6l1.4-0.2c1.4-0.2,4.2-0.5,7-0.9s5.5-0.9,8.1-1.5s5.3-1.2,7.8-2
										c2.6-0.7,5.1-1.5,7.5-2.4s4.9-1.8,7.2-2.9c2.4-1,4.7-2.2,6.9-3.4c2.3-1.2,4.5-2.5,6.6-3.8c2.2-1.4,4.3-2.8,6.3-4.3
										s4.1-3.1,6.1-4.8s3.9-3.4,5.8-5.2c1.9-1.8,3.7-3.7,5.5-5.7s3.5-4,5.2-6.2s3.3-4.3,4.9-6.6c1.6-2.3,3.1-4.7,3.9-5.8l0.8-1.2
										"/>
									<path class="st20" d="M-272.5,1586.8l-0.5-0.4c-0.5-0.4-1.6-1.3-2.7-2c-1.1-0.8-2.1-1.5-3.2-2.1s-2.1-1.2-3.1-1.6
										c-1-0.5-2.1-0.9-3.1-1.2c-1-0.3-2-0.6-3-0.7c-1-0.2-2-0.3-3-0.3s-1.9,0-2.9,0.2c-1,0.1-1.9,0.3-2.8,0.6
										c-0.9,0.3-1.9,0.6-2.8,1.1c-0.9,0.4-1.8,0.9-2.7,1.5c-0.9,0.6-1.8,1.2-2.6,2c-0.9,0.7-1.7,1.5-2.6,2.4s-1.7,1.8-2.5,2.9
										c-0.8,1-1.7,2.1-2.1,2.7l-0.4,0.6"/>
									<path class="st20" d="M1751.7,1586.8l-0.5-0.4c-0.5-0.4-1.6-1.3-2.7-2c-1.1-0.8-2.1-1.5-3.2-2.1s-2.1-1.2-3.1-1.6
										c-1-0.5-2.1-0.9-3.1-1.2s-2-0.6-3-0.7c-1-0.2-2-0.3-3-0.3s-1.9,0-2.9,0.2c-1,0.1-1.9,0.3-2.8,0.6c-0.9,0.3-1.9,0.6-2.8,1.1
										c-0.9,0.4-1.8,0.9-2.7,1.5c-0.9,0.6-1.8,1.2-2.6,2c-0.9,0.7-1.7,1.5-2.6,2.4s-1.7,1.8-2.5,2.9c-0.8,1-1.7,2.1-2.1,2.7
										l-0.4,0.6"/>
									<path class="st20" d="M-350.1,1640.7l0.6-0.3c0.6-0.3,1.8-0.8,2.9-1.4s2.1-1.2,3.1-1.8c1-0.6,1.8-1.3,2.7-1.9
										s1.6-1.4,2.2-2.1c0.7-0.7,1.3-1.4,1.8-2.2s1-1.5,1.4-2.3s0.7-1.6,1-2.4s0.4-1.7,0.5-2.6s0.1-1.8,0.1-2.7
										c0-0.9-0.1-1.9-0.3-2.8c-0.2-1-0.4-1.9-0.7-2.9c-0.3-1-0.7-2-1.2-3.1c-0.5-1-1-2.1-1.6-3.2s-1.3-2.2-1.6-2.8l-0.3-0.6"/>
									<path class="st20" d="M1674.2,1640.7l0.6-0.3c0.6-0.3,1.8-0.8,2.9-1.4s2.1-1.2,3.1-1.8c1-0.6,1.8-1.3,2.7-1.9
										c0.8-0.7,1.6-1.4,2.2-2.1c0.7-0.7,1.3-1.4,1.8-2.2s1-1.5,1.4-2.3s0.7-1.6,1-2.4c0.2-0.8,0.4-1.7,0.5-2.6s0.1-1.8,0.1-2.7
										c0-0.9-0.1-1.9-0.3-2.8c-0.2-1-0.4-1.9-0.7-2.9s-0.7-2-1.2-3.1c-0.5-1-1-2.1-1.6-3.2s-1.3-2.2-1.6-2.8l-0.3-0.6"/>
									<path class="st20" d="M-339.7,1605.6l-0.8,0.4c-0.8,0.4-2.4,1.1-3.9,1.9s-3,1.6-4.3,2.5c-1.4,0.9-2.7,1.7-3.9,2.7
										c-1.2,0.9-2.4,1.9-3.5,2.9s-2.1,2.1-3,3.1c-0.9,1.1-1.8,2.2-2.6,3.4c-0.8,1.2-1.5,2.4-2.2,3.6c-0.6,1.2-1.2,2.5-1.7,3.8
										s-0.9,2.7-1.3,4c-0.4,1.4-0.6,2.8-0.9,4.3c-0.2,1.5-0.4,3-0.4,4.5c-0.1,1.5-0.1,3.1,0,4.7s0.2,3.3,0.5,5
										c0.2,1.7,0.5,3.4,0.7,4.3l0.1,0.9"/>
									<path class="st20" d="M1684.5,1605.6l-0.8,0.4c-0.8,0.4-2.4,1.1-3.9,1.9s-3,1.6-4.3,2.5c-1.4,0.9-2.7,1.7-3.9,2.7
										c-1.2,0.9-2.4,1.9-3.5,2.9s-2.1,2.1-3,3.1c-0.9,1.1-1.8,2.2-2.6,3.4c-0.8,1.2-1.5,2.4-2.2,3.6c-0.6,1.2-1.2,2.5-1.7,3.8
										s-0.9,2.7-1.3,4c-0.4,1.4-0.6,2.8-0.9,4.3c-0.2,1.5-0.4,3-0.4,4.5c-0.1,1.5-0.1,3.1,0,4.7s0.2,3.3,0.5,5
										c0.2,1.7,0.5,3.4,0.7,4.3l0.1,0.9"/>
									<path class="st20" d="M-350.1,1640.7l-0.1-0.7c-0.1-0.7-0.3-2.1-0.6-3.4c-0.3-1.3-0.6-2.6-1-3.7c-0.4-1.2-0.8-2.3-1.2-3.4
										c-0.4-1.1-0.9-2.1-1.5-3c-0.5-0.9-1.1-1.8-1.7-2.6s-1.3-1.6-2-2.3c-0.7-0.7-1.5-1.3-2.3-1.9s-1.6-1.1-2.5-1.5
										s-1.8-0.8-2.8-1.1c-1-0.3-2-0.6-3.1-0.8c-1.1-0.2-2.2-0.3-3.3-0.4c-1.2-0.1-2.3-0.1-3.6,0c-1.2,0.1-2.5,0.2-3.8,0.4
										c-1.3,0.2-2.7,0.4-3.4,0.5l-0.7,0.1"/>
									<path class="st20" d="M1674.2,1640.7l-0.1-0.7c-0.1-0.7-0.3-2.1-0.6-3.4c-0.3-1.3-0.6-2.6-1-3.7s-0.8-2.3-1.2-3.4
										c-0.4-1.1-0.9-2.1-1.5-3c-0.5-0.9-1.1-1.8-1.7-2.6c-0.6-0.8-1.3-1.6-2-2.3c-0.7-0.7-1.5-1.3-2.3-1.9s-1.6-1.1-2.5-1.5
										s-1.8-0.8-2.8-1.1s-2-0.6-3.1-0.8c-1.1-0.2-2.2-0.3-3.3-0.4c-1.2-0.1-2.3-0.1-3.6,0c-1.2,0.1-2.5,0.2-3.8,0.4
										c-1.3,0.2-2.7,0.4-3.4,0.5l-0.7,0.1"/>
									<path class="st20" d="M-350.1,1640.7l0.6-1.3c0.6-1.3,1.7-3.9,2.7-6.5s1.9-5.2,2.8-7.8c0.8-2.6,1.6-5.2,2.2-7.8
										c0.6-2.6,1.2-5.2,1.7-7.7c0.5-2.6,0.8-5.1,1.1-7.7s0.5-5.1,0.5-7.7c0.1-2.6,0.1-5.1,0-7.7s-0.3-5.1-0.6-7.7
										c-0.3-2.5-0.6-5.1-1.1-7.6s-1-5.1-1.7-7.6c-0.6-2.5-1.4-5.1-2.2-7.6c-0.8-2.5-1.8-5-2.8-7.6c-1-2.5-2.1-5-3.3-7.5
										c-1.2-2.5-2.5-5-3.1-6.3l-0.6-1.3"/>
									<path class="st20" d="M1674.2,1640.7l0.6-1.3c0.6-1.3,1.7-3.9,2.7-6.5s1.9-5.2,2.8-7.8c0.8-2.6,1.6-5.2,2.2-7.8
										c0.6-2.6,1.2-5.2,1.7-7.7c0.5-2.6,0.8-5.1,1.1-7.7s0.5-5.1,0.5-7.7s0.1-5.1,0-7.7s-0.3-5.1-0.6-7.7
										c-0.3-2.5-0.6-5.1-1.1-7.6s-1-5.1-1.7-7.6c-0.6-2.5-1.4-5.1-2.2-7.6s-1.8-5-2.8-7.6c-1-2.5-2.1-5-3.3-7.5
										c-1.2-2.5-2.5-5-3.1-6.3l-0.6-1.3"/>
									<path class="st20" d="M-350.1,1640.7l-0.6-0.8c-0.6-0.8-1.8-2.4-3-3.9s-2.5-3-3.7-4.3c-1.3-1.4-2.6-2.6-3.9-3.8
										c-1.3-1.2-2.7-2.3-4.1-3.3s-2.8-2-4.2-2.8c-1.4-0.9-2.9-1.7-4.4-2.4c-1.5-0.7-3-1.3-4.6-1.9c-1.6-0.5-3.1-1-4.7-1.4
										s-3.2-0.7-4.9-0.9c-1.7-0.2-3.4-0.3-5.1-0.4s-3.5,0-5.3,0.1s-3.6,0.3-5.4,0.6c-1.8,0.3-3.7,0.6-5.6,1.1
										c-1.9,0.4-3.8,1-4.8,1.2l-1,0.3"/>
									<path class="st20" d="M1674.2,1640.7l-0.6-0.8c-0.6-0.8-1.8-2.4-3-3.9s-2.5-3-3.7-4.3c-1.3-1.4-2.6-2.6-3.9-3.8
										c-1.3-1.2-2.7-2.3-4.1-3.3s-2.8-2-4.2-2.8c-1.4-0.9-2.9-1.7-4.4-2.4s-3-1.3-4.6-1.9c-1.6-0.5-3.1-1-4.7-1.4
										s-3.2-0.7-4.9-0.9c-1.7-0.2-3.4-0.3-5.1-0.4s-3.5,0-5.3,0.1s-3.6,0.3-5.4,0.6c-1.8,0.3-3.7,0.6-5.6,1.1
										c-1.9,0.4-3.8,1-4.8,1.2l-1,0.3"/>
									<path class="st20" d="M3698.4,1640.7l-0.6-0.8c-0.6-0.8-1.8-2.4-3-3.9s-2.5-3-3.7-4.3c-1.3-1.4-2.6-2.6-3.9-3.8
										c-1.3-1.2-2.7-2.3-4.1-3.3c-1.4-1-2.8-2-4.2-2.8c-1.4-0.9-2.9-1.7-4.4-2.4s-3-1.3-4.6-1.9c-1.6-0.5-3.1-1-4.7-1.4
										c-1.6-0.4-3.2-0.7-4.9-0.9c-1.7-0.2-3.4-0.3-5.1-0.4c-1.7-0.1-3.5,0-5.3,0.1s-3.6,0.3-5.4,0.6c-1.8,0.3-3.7,0.6-5.6,1.1
										c-1.9,0.4-3.8,1-4.8,1.2l-1,0.3"/>
									<path class="st20" d="M-350.1,1640.7l-1.1,0.3c-1.1,0.3-3.2,0.8-5.3,1.5s-4.1,1.3-6,2.1c-1.9,0.7-3.8,1.6-5.6,2.4
										c-1.8,0.9-3.6,1.8-5.3,2.8c-1.7,1-3.3,2-4.9,3.1s-3.1,2.3-4.5,3.5s-2.8,2.5-4.1,3.9c-1.3,1.4-2.6,2.8-3.8,4.2
										c-1.2,1.5-2.3,3-3.4,4.6s-2.1,3.3-3,5s-1.8,3.5-2.6,5.3c-0.8,1.8-1.6,3.7-2.3,5.7c-0.7,2-1.3,4-1.9,6.1s-1.1,4.2-1.3,5.3
										l-0.3,1.1"/>
									<path class="st20" d="M1674.2,1640.7l-1.1,0.3c-1.1,0.3-3.2,0.8-5.3,1.5c-2.1,0.6-4.1,1.3-6,2.1s-3.8,1.6-5.6,2.4
										s-3.6,1.8-5.3,2.8c-1.7,1-3.3,2-4.9,3.1s-3.1,2.3-4.5,3.5s-2.8,2.5-4.1,3.9c-1.3,1.4-2.6,2.8-3.8,4.2
										c-1.2,1.5-2.3,3-3.4,4.6s-2.1,3.3-3,5s-1.8,3.5-2.6,5.3c-0.8,1.8-1.6,3.7-2.3,5.7c-0.7,2-1.3,4-1.9,6.1s-1.1,4.2-1.3,5.3
										l-0.3,1.1"/>
									<path class="st20" d="M-383.7,1616.9l-0.7,0.7c-0.7,0.7-2.2,2-3.6,3.3s-2.7,2.7-3.9,4.1c-1.2,1.4-2.4,2.8-3.4,4.2
										c-1.1,1.4-2.1,2.9-3,4.3c-0.9,1.5-1.7,2.9-2.5,4.4c-0.7,1.5-1.4,3-2,4.6s-1.1,3.1-1.5,4.7s-0.7,3.2-1,4.8
										c-0.2,1.6-0.4,3.3-0.5,5s-0.1,3.4,0,5.1s0.2,3.5,0.5,5.2c0.2,1.8,0.6,3.5,1,5.3s0.9,3.6,1.5,5.5c0.6,1.8,1.2,3.7,1.6,4.6
										l0.3,0.9"/>
									<path class="st20" d="M1640.6,1616.9l-0.7,0.7c-0.7,0.7-2.2,2-3.6,3.3s-2.7,2.7-3.9,4.1c-1.2,1.4-2.4,2.8-3.4,4.2
										s-2.1,2.9-3,4.3c-0.9,1.5-1.7,2.9-2.5,4.4c-0.7,1.5-1.4,3-2,4.6c-0.6,1.5-1.1,3.1-1.5,4.7s-0.7,3.2-1,4.8
										c-0.2,1.6-0.4,3.3-0.5,5s-0.1,3.4,0,5.1s0.2,3.5,0.5,5.2c0.2,1.8,0.6,3.5,1,5.3s0.9,3.6,1.5,5.5c0.6,1.8,1.2,3.7,1.6,4.6
										l0.3,0.9"/>
									<path class="st20" d="M-383.7,1616.9l3.1,0.3c3.1,0.3,9.3,0.8,15.5,1.2c6.2,0.4,12.4,0.7,18.6,0.9
										c6.2,0.2,12.3,0.3,18.5,0.3c6.1,0,12.3-0.1,18.4-0.4c6.1-0.2,12.2-0.6,18.3-1c6.1-0.4,12.2-1,18.2-1.6
										c6.1-0.6,12.1-1.4,18.1-2.3s12-1.8,18-2.9s12-2.2,17.9-3.5c6-1.3,11.9-2.7,17.8-4.2c5.9-1.5,11.9-3.1,17.8-4.8
										c5.9-1.7,11.8-3.5,17.7-5.4s11.7-3.9,17.6-6.1c5.8-2.1,11.7-4.4,14.6-5.5l2.9-1.1"/>
									<path class="st20" d="M1640.6,1616.9l3.1,0.3c3.1,0.3,9.3,0.8,15.5,1.2c6.2,0.4,12.4,0.7,18.6,0.9s12.3,0.3,18.5,0.3
										s12.3-0.1,18.4-0.4s12.2-0.6,18.3-1c6.1-0.4,12.2-1,18.2-1.6c6.1-0.6,12.1-1.4,18.1-2.3s12-1.8,18-2.9s12-2.2,17.9-3.5
										c6-1.3,11.9-2.7,17.8-4.2s11.9-3.1,17.8-4.8c5.9-1.7,11.8-3.5,17.7-5.4c5.9-1.9,11.7-3.9,17.6-6.1s11.7-4.4,14.6-5.5
										l2.9-1.1"/>
									<path class="st21" d="M-342.7,1693.2c1.8,0,3.3,1.5,3.3,3.3s-1.5,3.3-3.3,3.3l0,0c-1.8,0-3.3-1.5-3.3-3.3
										S-344.5,1693.2-342.7,1693.2L-342.7,1693.2z"/>
									<path class="st22" d="M-342.7,1693.2v3.3V1693.2z"/>
									<path class="st21" d="M-350.1,1634c3.7,0,6.6,3,6.6,6.6c0,3.7-3,6.6-6.6,6.6l0,0c-3.7,0-6.6-3-6.6-6.6
										C-356.8,1637-353.8,1634-350.1,1634L-350.1,1634z"/>
									<path class="st22" d="M-350.1,1634v6.6V1634z"/>
									<path class="st21" d="M-411.4,1608.2c1.8,0,3.3,1.5,3.3,3.3s-1.5,3.3-3.3,3.3l0,0c-1.8,0-3.3-1.5-3.3-3.3
										C-414.7,1609.7-413.2,1608.2-411.4,1608.2L-411.4,1608.2z"/>
									<path class="st22" d="M-411.4,1608.2v3.3V1608.2z"/>
									<path class="st21" d="M-185.1,1646.8c2.6,0,4.7,2.1,4.7,4.7s-2.1,4.7-4.7,4.7s-4.7-2.1-4.7-4.7S-187.6,1646.8-185.1,1646.8
										z"/>
									<path class="st22" d="M-185.1,1646.8v4.7V1646.8z"/>
									<path class="st21" d="M-157.4,1682.3c1.8,0,3.3,1.5,3.3,3.3s-1.5,3.3-3.3,3.3l0,0c-1.8,0-3.3-1.5-3.3-3.3
										S-159.2,1682.3-157.4,1682.3L-157.4,1682.3z"/>
									<path class="st22" d="M-157.4,1682.3v3.3V1682.3z"/>
									<path class="st21" d="M-380.3,1672.8c4.1,0,7.4,3.3,7.4,7.4s-3.3,7.4-7.4,7.4s-7.4-3.3-7.4-7.4S-384.4,1672.8-380.3,1672.8
										z"/>
									<path class="st22" d="M-380.3,1672.8v7.4V1672.8z"/>
									<path class="st21" d="M-363.5,1640.3c1.8,0,3.3,1.5,3.3,3.3s-1.5,3.3-3.3,3.3l0,0c-1.8,0-3.3-1.5-3.3-3.3
										S-365.3,1640.3-363.5,1640.3L-363.5,1640.3z"/>
									<path class="st22" d="M-363.5,1640.3v3.3V1640.3z"/>
									<path class="st21" d="M-272.5,1581.1c3.2,0,5.7,2.6,5.7,5.7c0,3.2-2.6,5.7-5.7,5.7l0,0c-3.2,0-5.7-2.6-5.7-5.7
										C-278.3,1583.6-275.7,1581.1-272.5,1581.1L-272.5,1581.1z"/>
									<path class="st22" d="M-272.5,1581.1v5.7V1581.1z"/>
									<path class="st21" d="M-312.6,1588.9c1.8,0,3.3,1.5,3.3,3.3s-1.5,3.3-3.3,3.3l0,0c-1.8,0-3.3-1.5-3.3-3.3
										S-314.4,1588.9-312.6,1588.9L-312.6,1588.9z"/>
									<path class="st22" d="M-312.6,1588.9v3.3V1588.9z"/>
									<path class="st21" d="M-339.7,1602.3c1.8,0,3.3,1.5,3.3,3.3s-1.5,3.3-3.3,3.3l0,0c-1.8,0-3.3-1.5-3.3-3.3
										S-341.6,1602.3-339.7,1602.3L-339.7,1602.3z"/>
									<path class="st22" d="M-339.7,1602.3v3.3V1602.3z"/>
									<path class="st21" d="M-366.9,1648.1c5.2,0,9.4,4.2,9.4,9.4c0,5.2-4.2,9.4-9.4,9.4s-9.4-4.2-9.4-9.4
										C-376.3,1652.3-372.1,1648.1-366.9,1648.1z"/>
									<path class="st22" d="M-366.9,1648.1v9.4V1648.1z"/>
									<path class="st21" d="M-354.1,1530.1c1.8,0,3.3,1.5,3.3,3.3s-1.5,3.3-3.3,3.3l0,0c-1.8,0-3.3-1.5-3.3-3.3
										S-355.9,1530.1-354.1,1530.1L-354.1,1530.1z"/>
									<path class="st22" d="M-354.1,1530.1v3.3V1530.1z"/>
									<path class="st21" d="M-405.5,1694.2c1.8,0,3.3,1.5,3.3,3.3s-1.5,3.3-3.3,3.3l0,0c-1.8,0-3.3-1.5-3.3-3.3
										S-407.3,1694.2-405.5,1694.2L-405.5,1694.2z"/>
									<path class="st22" d="M-405.5,1694.2v3.3V1694.2z"/>
									<path class="st21" d="M-401,1680.3c1.8,0,3.3,1.5,3.3,3.3s-1.5,3.3-3.3,3.3l0,0c-1.8,0-3.3-1.5-3.3-3.3
										S-402.9,1680.3-401,1680.3L-401,1680.3z"/>
									<path class="st22" d="M-401,1680.3v3.3V1680.3z"/>
									<path class="st21" d="M-383.7,1612.3c2.6,0,4.7,2.1,4.7,4.7s-2.1,4.7-4.7,4.7s-4.7-2.1-4.7-4.7S-386.3,1612.3-383.7,1612.3
										z"/>
									<path class="st22" d="M-383.7,1612.3v4.7V1612.3z"/>
									<path class="st21" d="M-130.7,1577.5c1.8,0,3.3,1.5,3.3,3.3s-1.5,3.3-3.3,3.3l0,0c-1.8,0-3.3-1.5-3.3-3.3
										S-132.5,1577.6-130.7,1577.5L-130.7,1577.5z"/>
									<path class="st22" d="M-130.7,1577.5v3.3V1577.5z"/>
									<path class="st21" d="M1681.6,1693.2c1.8,0,3.3,1.5,3.3,3.3s-1.5,3.3-3.3,3.3l0,0c-1.8,0-3.3-1.5-3.3-3.3
										S1679.7,1693.2,1681.6,1693.2L1681.6,1693.2z"/>
									<path class="st22" d="M1681.6,1693.2v3.3V1693.2z"/>
									<path class="st21" d="M1674.2,1634c3.7,0,6.6,3,6.6,6.6c0,3.7-3,6.6-6.6,6.6l0,0c-3.7,0-6.6-3-6.6-6.6
										C1667.5,1637,1670.5,1634,1674.2,1634L1674.2,1634z"/>
									<path class="st22" d="M1674.2,1634v6.6V1634z"/>
									<path class="st21" d="M1612.9,1608.2c1.8,0,3.3,1.5,3.3,3.3s-1.5,3.3-3.3,3.3l0,0c-1.8,0-3.3-1.5-3.3-3.3
										S1611,1608.2,1612.9,1608.2L1612.9,1608.2z"/>
									<path class="st22" d="M1612.9,1608.2v3.3V1608.2z"/>
									<path class="st21" d="M1608.9,1610.5c4.1,0,7.4,3.3,7.4,7.4s-3.3,7.4-7.4,7.4s-7.4-3.3-7.4-7.4
										S1604.8,1610.5,1608.9,1610.5z"/>
									<path class="st22" d="M1608.9,1610.5v7.4V1610.5z"/>
									<path class="st21" d="M1839.2,1646.8c2.6,0,4.7,2.1,4.7,4.7s-2.1,4.7-4.7,4.7s-4.7-2.1-4.7-4.7
										S1836.6,1646.8,1839.2,1646.8z"/>
									<path class="st22" d="M1839.2,1646.8v4.7V1646.8z"/>
									<path class="st21" d="M1866.9,1682.3c1.8,0,3.3,1.5,3.3,3.3s-1.5,3.3-3.3,3.3l0,0c-1.8,0-3.3-1.5-3.3-3.3
										S1865.1,1682.3,1866.9,1682.3L1866.9,1682.3z"/>
									<path class="st22" d="M1866.9,1682.3v3.3V1682.3z"/>
									<path class="st21" d="M1644,1672.8c4.1,0,7.4,3.3,7.4,7.4s-3.3,7.4-7.4,7.4s-7.4-3.3-7.4-7.4S1639.9,1672.8,1644,1672.8z"
										/>
									<path class="st22" d="M1644,1672.8v7.4V1672.8z"/>
									<path class="st21" d="M1660.8,1640.3c1.8,0,3.3,1.5,3.3,3.3s-1.5,3.3-3.3,3.3l0,0c-1.8,0-3.3-1.5-3.3-3.3
										S1659,1640.3,1660.8,1640.3L1660.8,1640.3z"/>
									<path class="st22" d="M1660.8,1640.3v3.3V1640.3z"/>
									<path class="st21" d="M1751.7,1581.1c3.2,0,5.7,2.6,5.7,5.7c0,3.2-2.6,5.7-5.7,5.7l0,0c-3.2,0-5.7-2.6-5.7-5.7
										C1746,1583.6,1748.6,1581.1,1751.7,1581.1L1751.7,1581.1z"/>
									<path class="st22" d="M1751.7,1581.1v5.7V1581.1z"/>
									<path class="st21" d="M1711.7,1588.9c1.8,0,3.3,1.5,3.3,3.3s-1.5,3.3-3.3,3.3l0,0c-1.8,0-3.3-1.5-3.3-3.3
										S1709.9,1588.9,1711.7,1588.9L1711.7,1588.9z"/>
									<path class="st22" d="M1711.7,1588.9v3.3V1588.9z"/>
									<path class="st21" d="M1684.5,1602.3c1.8,0,3.3,1.5,3.3,3.3s-1.5,3.3-3.3,3.3l0,0c-1.8,0-3.3-1.5-3.3-3.3
										C1681.2,1603.7,1682.7,1602.3,1684.5,1602.3L1684.5,1602.3z"/>
									<path class="st22" d="M1684.5,1602.3v3.3V1602.3z"/>
									<path class="st21" d="M1657.4,1648.1c5.2,0,9.4,4.2,9.4,9.4c0,5.2-4.2,9.4-9.4,9.4s-9.4-4.2-9.4-9.4
										C1648,1652.3,1652.2,1648.1,1657.4,1648.1z"/>
									<path class="st22" d="M1657.4,1648.1v9.4V1648.1z"/>
									<path class="st21" d="M1670.2,1530.1c1.8,0,3.3,1.5,3.3,3.3s-1.5,3.3-3.3,3.3l0,0c-1.8,0-3.3-1.5-3.3-3.3
										C1666.9,1531.6,1668.4,1530.1,1670.2,1530.1L1670.2,1530.1z"/>
									<path class="st22" d="M1670.2,1530.1v3.3V1530.1z"/>
									<path class="st21" d="M1618.8,1694.2c1.8,0,3.3,1.5,3.3,3.3s-1.5,3.3-3.3,3.3l0,0c-1.8,0-3.3-1.5-3.3-3.3
										S1617,1694.2,1618.8,1694.2L1618.8,1694.2z"/>
									<path class="st22" d="M1618.8,1694.2v3.3V1694.2z"/>
									<path class="st21" d="M1623.3,1680.3c1.8,0,3.3,1.5,3.3,3.3s-1.5,3.3-3.3,3.3l0,0c-1.8,0-3.3-1.5-3.3-3.3
										C1619.9,1681.8,1621.4,1680.3,1623.3,1680.3L1623.3,1680.3z"/>
									<path class="st22" d="M1623.3,1680.3v3.3V1680.3z"/>
									<path class="st21" d="M1640.6,1612.3c2.6,0,4.7,2.1,4.7,4.7s-2.1,4.7-4.7,4.7s-4.7-2.1-4.7-4.7S1638,1612.3,1640.6,1612.3z
										"/>
									<path class="st22" d="M1640.6,1612.3v4.7V1612.3z"/>
									<path class="st21" d="M1893.6,1577.5c1.8,0,3.3,1.5,3.3,3.3s-1.5,3.3-3.3,3.3l0,0c-1.8,0-3.3-1.5-3.3-3.3
										S1891.8,1577.6,1893.6,1577.5L1893.6,1577.5z"/>
									<path class="st22" d="M1893.6,1577.5v3.3V1577.5z"/>
									<path class="st21" d="M3633.2,1610.5c4.1,0,7.4,3.3,7.4,7.4s-3.3,7.4-7.4,7.4c-4.1,0-7.4-3.3-7.4-7.4
										S3629.1,1610.5,3633.2,1610.5z"/>
									<path class="st22" d="M3633.2,1610.5v7.4V1610.5z"/>
								</g>
							</g>
						</g>
					</g>
				</g>
			</g>
		</g>
	</g>
	<g id="Axes_Major">
		<g id="majorGrid">
			<path class="st23" d="M63.3,576V69"/>
			<path class="st23" d="M180.2,576V69"/>
			<path class="st23" d="M297.2,576V69"/>
			<path class="st23" d="M414.1,576V69"/>
			<path class="st23" d="M531.1,575V68"/>
			<path class="st23" d="M648,575V68"/>
		</g>
	</g>
	<g id="Axes_Minor">
		<g id="minorGrid">
			<path class="st24" d="M75,576V69"/>
			<path class="st24" d="M86.7,576V69"/>
			<path class="st24" d="M98.4,576V69"/>
			<path class="st24" d="M110.1,576V69"/>
			<path class="st24" d="M121.8,576V69"/>
			<path class="st24" d="M133.5,576V69"/>
			<path class="st24" d="M145.2,576V69"/>
			<path class="st24" d="M156.8,576V69"/>
			<path class="st24" d="M168.5,576V69"/>
			<path class="st24" d="M191.9,576V69"/>
			<path class="st24" d="M203.6,576V69"/>
			<path class="st24" d="M215.3,576V69"/>
			<path class="st24" d="M227,576V69"/>
			<path class="st24" d="M238.7,576V69"/>
			<path class="st24" d="M250.4,576V69"/>
			<path class="st24" d="M262.1,576V69"/>
			<path class="st24" d="M273.8,576V69"/>
			<path class="st24" d="M285.5,576V69"/>
			<path class="st24" d="M308.9,576V69"/>
			<path class="st24" d="M320.6,576V69"/>
			<path class="st24" d="M332.3,576V69"/>
			<path class="st24" d="M344,576V69"/>
			<path class="st24" d="M355.6,576V69"/>
			<path class="st24" d="M367.3,576V69"/>
			<path class="st24" d="M379,576V69"/>
			<path class="st24" d="M390.7,576V69"/>
			<path class="st24" d="M402.4,576V69"/>
			<path class="st24" d="M425.8,576V69"/>
			<path class="st24" d="M437.5,576V69"/>
			<path class="st24" d="M449.2,576V69"/>
			<path class="st24" d="M460.9,576V69"/>
			<path class="st24" d="M472.6,576V69"/>
			<path class="st24" d="M484.3,576V69"/>
			<path class="st24" d="M496,576V69"/>
			<path class="st24" d="M507.7,576V69"/>
			<path class="st24" d="M519.4,575V68"/>
			<path class="st24" d="M542.8,575V68"/>
			<path class="st24" d="M554.4,575V68"/>
			<path class="st24" d="M566.1,575V68"/>
			<path class="st24" d="M577.8,575V68"/>
			<path class="st24" d="M589.5,575V68"/>
			<path class="st24" d="M601.2,575V68"/>
			<path class="st24" d="M612.9,575V68"/>
			<path class="st24" d="M624.6,575V68"/>
			<path class="st24" d="M636.3,575V68"/>
			<path class="st24" d="M659.7,575V68"/>
			<path class="st24" d="M671.4,575V68"/>
			<path class="st24" d="M683.1,575V68"/>
			<path class="st24" d="M694.8,575V68"/>
			<path class="st24" d="M706.5,575V68"/>
			<path class="st24" d="M718.2,575V68"/>
			<path class="st24" d="M729.9,575V68"/>
			<path class="st24" d="M741.6,575V68"/>
			<path class="st24" d="M753.2,575V68"/>
		</g>
	</g>
	<g id="Node_Date">
		<g id="branchLabels">
			<text transform="matrix(1 0 0 1 55.8516 393.3867)" class="st25 st26 st27">1316</text>
			<text transform="matrix(1 0 0 1 406.0208 493.2829)" class="st25 st26 st27">1618</text>
			<text transform="matrix(1 0 0 1 411.3596 483.2763)" class="st25 st26 st27">1620</text>
			<text transform="matrix(1 0 0 1 480.7108 405.5592)" class="st25 st26 st27">1687</text>
			<text transform="matrix(1 0 0 1 514.9298 388.8816)" class="st25 st26 st27">1706</text>
			<text transform="matrix(1 0 0 1 521.5493 417.2237)" class="st25 st26 st27">1711</text>
			<text transform="matrix(1 0 0 1 89.1001 357.9634)" class="st25 st26 st27">1346</text>
			<text transform="matrix(1 0 0 1 166.6117 393.0181)" class="st25 st26 st27">1409</text>
			<text transform="matrix(1 0 0 1 190.1696 381.5099)" class="st25 st26 st27">1430</text>
			<text transform="matrix(1 0 0 1 212.0497 371.8356)" class="st25 st26 st27">1447</text>
			<text transform="matrix(1 0 0 1 214.3885 359.829)" class="st25 st26 st27">1449</text>
			<text transform="matrix(1 0 0 1 288.9092 297.6201)" class="st25 st26 st27">1517</text>
			<text transform="matrix(1 0 0 1 294.5869 287.1085)" class="st25 st26 st27">1521</text>
			<text transform="matrix(1 0 0 1 295.7563 246.4276)" class="st25 st26 st27">1522</text>
			<text transform="matrix(1 0 0 1 298.2803 276.4408)" class="st25 st26 st27">1524</text>
			<text transform="matrix(1 0 0 1 298.434 266.4342)" class="st25 st26 st27">1526</text>
			<text transform="matrix(1 0 0 1 313.9753 227.4079)" class="st25 st26 st27">1541</text>
			<text transform="matrix(1 0 0 1 56.7026 152.7204)" class="st25 st26 st27">1321</text>
			<text transform="matrix(1 0 0 1 56.7191 141.046)" class="st25 st26 st27">1327</text>
			<text transform="matrix(1 0 0 1 57.0579 130.0395)" class="st25 st26 st27">1329</text>
			<text transform="matrix(1 0 0 1 227.4216 326.4313)" class="st25 st26 st27">1461</text>
			<text transform="matrix(1 0 0 1 266.0125 311.0469)" class="st25 st26 st27">1494</text>
		</g>
	</g>
	<g id="Tip_Labels">
		<g id="tipLabels">
			<text transform="matrix(1 0 0 1 185.8926 222)" class="st3 st28">Italy</text>
			<text transform="matrix(1 0 0 1 176.5372 208.6579)" class="st3 st28">Germany</text>
			<text transform="matrix(1 0 0 1 211.6198 195.3158)" class="st3 st28">Germany</text>
			<text transform="matrix(1 0 0 1 282.9545 181.9737)" class="st3 st28">England</text>
			<text transform="matrix(1 0 0 1 463.0454 523.6316)" class="st3 st28">England</text>
			<text transform="matrix(1 0 0 1 463.0454 510.2894)" class="st3 st28">England</text>
			<text transform="matrix(1 0 0 1 463.0454 496.9474)" class="st3 st28">England</text>
			<text transform="matrix(1 0 0 1 447.843 483.6052)" class="st3 st28">England</text>
			<text transform="matrix(1 0 0 1 539.0579 470.2632)" class="st3 st28">Russia</text>
			<text transform="matrix(1 0 0 1 656 456.921)" class="st3 st28">Russia</text>
			<text transform="matrix(1 0 0 1 624.4255 443.579)" class="st3 st28">Russia</text>
			<text transform="matrix(1 0 0 1 562.4463 430.2368)" class="st3 st28">France</text>
			<text transform="matrix(1 0 0 1 564.7852 416.8948)" class="st3 st28">France</text>
			<text transform="matrix(1 0 0 1 562.4463 403.5526)" class="st3 st28">France</text>
			<text transform="matrix(1 0 0 1 564.7852 390.2106)" class="st3 st28">France</text>
			<text transform="matrix(1 0 0 1 564.7852 376.8684)" class="st3 st28">France</text>
			<text transform="matrix(1 0 0 1 287.6322 414.5263)" class="st3 st28">Germany</text>
			<text transform="matrix(1 0 0 1 229.1611 401.1842)" class="st3 st28">Lithuania</text>
			<text transform="matrix(1 0 0 1 261.905 387.8421)" class="st3 st28">Lithuania</text>
			<text transform="matrix(1 0 0 1 322.7148 374.5)" class="st3 st28">Lithuania</text>
			<text transform="matrix(1 0 0 1 287.6322 361.1579)" class="st3 st28">Poland</text>
			<text transform="matrix(1 0 0 1 336.7479 347.8158)" class="st3 st28">Germany</text>
			<text transform="matrix(1 0 0 1 478.2479 334.4737)" class="st3 st28">Germany</text>
			<text transform="matrix(1 0 0 1 327.3926 321.1316)" class="st3 st28">Switzerland</text>
			<text transform="matrix(1 0 0 1 330.9008 307.7895)" class="st3 st28">Switzerland</text>
			<text transform="matrix(1 0 0 1 335.5785 294.4474)" class="st3 st28">Switzerland</text>
			<text transform="matrix(1 0 0 1 336.7479 281.1053)" class="st3 st28">Switzerland</text>
			<text transform="matrix(1 0 0 1 429.1322 267.7632)" class="st3 st28">Switzerland</text>
			<text transform="matrix(1 0 0 1 371.8306 254.421)" class="st3 st28">Switzerland</text>
			<text transform="matrix(1 0 0 1 371.8306 241.079)" class="st3 st28">Switzerland</text>
			<text transform="matrix(1 0 0 1 354.2892 227.7368)" class="st3 st28">Switzerland</text>
			<text transform="matrix(1 0 0 1 154.3182 163.3947)" class="st3 st28">Norway</text>
			<text transform="matrix(1 0 0 1 127.4215 150.0526)" class="st3 st28">England</text>
			<text transform="matrix(1 0 0 1 125.0826 136.7105)" class="st3 st28">Spain</text>
			<text transform="matrix(1 0 0 1 107.5413 123.3684)" class="st3 st28">Germany</text>
			<text transform="matrix(1 0 0 1 175.3678 110.0263)" class="st3 st28">France</text>
			<text transform="matrix(1 0 0 1 188.2314 96.6842)" class="st3 st28">The Netherlands</text>
			<text transform="matrix(1 0 0 1 143.7934 83.3421)" class="st3 st28">Russia</text>
			<text transform="matrix(1 0 0 1 109.8802 70)" class="st3 st28">The Netherlands</text>
		</g>
	</g>
	<g id="Node_Range">
		<g id="confidenceIntervals">
			<path id="conf_NODE402" class="st29" d="M82,391.2h37.4"/>
			<path id="conf_NODE403_2_" class="st30" d="M119.4,200.3"/>
			<path id="conf_NODE403_1_" class="st30" d="M82,200.3"/>
			<path id="conf_SAMEA7293136" class="st31" d="M99.5,220h80.7"/>
			<path id="conf_NODE404_2_" class="st32" d="M119.4,180.6"/>
			<path id="conf_NODE404_1_" class="st32" d="M82,180.6"/>
			<path id="conf_SAMEA5818809" class="st31" d="M101.9,206.7h66.7"/>
			<path id="conf_NODE405_2_" class="st33" d="M119.4,509.4"/>
			<path id="conf_NODE405_1_" class="st33" d="M82,509.4"/>
			<path id="conf_SAMEA5818817" class="st31" d="M203.6,193.3h118.1"/>
			<path id="conf_NODE406_2_" class="st34" d="M119.4,470.6"/>
			<path id="conf_NODE406_1_" class="st34" d="M82,470.6"/>
			<path id="conf_SAMEA5818815" class="st31" d="M267.9,180h71.3"/>
			<path id="conf_NODE407_2_" class="st35" d="M119.4,406.2"/>
			<path id="conf_NODE407_1_" class="st35" d="M82,406.2"/>
			<path id="conf_NODE408_2_" class="st36" d="M455,497.7"/>
			<path id="conf_NODE408_1_" class="st36" d="M346.3,497.7"/>
			<path id="conf_SAMEA5818800" class="st31" d="M367.3,521.6H455"/>
			<path id="conf_NODE409_2_" class="st37" d="M455,473.7"/>
			<path id="conf_NODE409_1_" class="st37" d="M346.3,473.7"/>
			<path id="conf_NODE410" class="st38" d="M346.3,498.3H455"/>
			<path id="conf_SAMEA5818798" class="st31" d="M367.3,508.3H455"/>
			<path id="conf_NODE411" class="st39" d="M361.5,488.3H455"/>
			<path id="conf_SAMEA5818799" class="st31" d="M367.3,494.9H455"/>
			<path id="conf_SAMEA5818801" class="st31" d="M367.3,481.6H455"/>
			<path id="conf_NODE412_2_" class="st40" d="M455,449.1"/>
			<path id="conf_NODE412_1_" class="st40" d="M346.3,449.1"/>
			<path id="conf_SAMEA7313243_45" class="st31" d="M409.4,468.3H531"/>
			<path id="conf_NODE413_2_" class="st41" d="M455,429.9"/>
			<path id="conf_NODE413_1_" class="st41" d="M346.3,429.9"/>
			<path id="conf_NODE414_2_" class="st39" d="M455,448.2"/>
			<path id="conf_NODE414_1_" class="st39" d="M346.3,448.2"/>
			<path id="conf_SAMEA7293135" class="st31" d="M500.7,454.9H648"/>
			<path id="conf_SAMEA7313236_38" class="st31" d="M603.6,441.6h12.9"/>
			<path id="conf_NODE415" class="st42" d="M452.7,411.6h86.5"/>
			<path id="conf_SAMEA3713715" class="st31" d="M554.4,428.2h2.3"/>
			<path id="conf_NODE416" class="st43" d="M512.3,394.9h44.4"/>
			<path id="conf_NODE417" class="st39" d="M524,408.2h32.7"/>
			<path id="conf_SAMEA3713711" class="st31" d="M554.4,414.9h2.3"/>
			<path id="conf_SAMEA3713714" class="st31" d="M554.4,401.6h2.3"/>
			<path id="conf_NODE418_2_" class="st39" d="M556.8,381.5"/>
			<path id="conf_NODE418_1_" class="st39" d="M512.3,381.5"/>
			<path id="conf_SAMEA3713712" class="st31" d="M554.4,388.2h2.3"/>
			<path id="conf_SAMEA3713713" class="st31" d="M554.4,374.9h2.3"/>
			<path id="conf_NODE419" class="st44" d="M82,365.7h92.4"/>
			<path id="conf_NODE420" class="st42" d="M166.2,400h100.6"/>
			<path id="conf_SAMEA5818805" class="st31" d="M279.6,412.5h124"/>
			<path id="conf_NODE421" class="st43" d="M195.4,387.5h74.8"/>
			<path id="conf_SAMEA6651390" class="st31" d="M221.2,399.2h49.1"/>
			<path id="conf_NODE422" class="st38" d="M211.8,375.8h101.7"/>
			<path id="conf_SAMEA6637002" class="st31" d="M253.9,385.8h92.4"/>
			<path id="conf_NODE423" class="st39" d="M211.8,365.8h101.7"/>
			<path id="conf_SAMEA6637004" class="st31" d="M242.2,372.5h185.9"/>
			<path id="conf_SAMEA7313246_49" class="st31" d="M241,359.2h177.8"/>
			<path id="conf_NODE424" class="st45" d="M184.9,331.4H317"/>
			<path id="conf_SAMEA5818808" class="st31" d="M244.5,345.8h202.3"/>
			<path id="conf_NODE425" class="st46" d="M200.1,317H358"/>
			<path id="conf_SAMEA5818803" class="st31" d="M435.2,332.5h35.1"/>
			<path id="conf_NODE426" class="st40" d="M264.4,301.6h119.3"/>
			<path id="conf_SAMEA5818826" class="st31" d="M279.6,319.1h105.2"/>
			<path id="conf_NODE427" class="st41" d="M273.8,284.1h109.9"/>
			<path id="conf_SAMEA5818829" class="st31" d="M279.6,305.8h104.1"/>
			<path id="conf_NODE428" class="st47" d="M273.8,262.4h109.9"/>
			<path id="conf_NODE429" class="st38" d="M273.8,282.4h109.9"/>
			<path id="conf_SAMEA5818828" class="st31" d="M279.6,292.4h105.2"/>
			<path id="conf_NODE430" class="st39" d="M273.8,272.4h109.9"/>
			<path id="conf_SAMEA5818818" class="st31" d="M279.6,279.1h108.8"/>
			<path id="conf_SAMEA5818822" class="st31" d="M321.7,265.8H455"/>
			<path id="conf_NODE431" class="st38" d="M273.8,242.4h111.1"/>
			<path id="conf_SAMEA5818821" class="st31" d="M279.6,252.4H434"/>
			<path id="conf_NODE432" class="st39" d="M278.5,232.4h135.7"/>
			<path id="conf_SAMEA5818825" class="st31" d="M290.2,239.1h139.2"/>
			<path id="conf_SAMEA5818830" class="st31" d="M279.6,225.7h134.5"/>
			<path id="conf_NODE433" class="st40" d="M82,123h37.4"/>
			<path id="conf_NODE434" class="st43" d="M82,149.7h37.4"/>
			<path id="conf_SAMEA5054092" class="st31" d="M93.7,161.4h74.8"/>
			<path id="conf_NODE435" class="st38" d="M82,138h39.8"/>
			<path id="conf_SAMN00715800" class="st31" d="M119.4,148.1h2.3"/>
			<path id="conf_NODE436" class="st39" d="M82,128h39.8"/>
			<path id="conf_SAMEA3937653" class="st31" d="M84.3,134.7h83"/>
			<path id="conf_SAMEA5818811" class="st31" d="M82,121.4h47.9"/>
			<path id="conf_NODE437_2_" class="st43" d="M119.4,96.4"/>
			<path id="conf_NODE437_1_" class="st43" d="M82,96.4"/>
			<path id="conf_SAMEA5054093" class="st31" d="M103,108h64.3"/>
			<path id="conf_NODE438_2_" class="st38" d="M119.4,84.7"/>
			<path id="conf_NODE438_1_" class="st38" d="M82,84.7"/>
			<path id="conf_SAMEA5054089" class="st31" d="M100.7,94.7h79.5"/>
			<path id="conf_NODE439_2_" class="st39" d="M119.4,74.7"/>
			<path id="conf_NODE439_1_" class="st39" d="M82,74.7"/>
			<path id="conf_SAMEA3937654" class="st31" d="M135.8,81.3h44.4"/>
			<path id="conf_NODE440" class="st48" d="M82,68h37.4"/>
			<path id="conf_SAMEA5054090" class="st31" d="M82,68h72.5"/>
		</g>
	</g>
	<g id="Tip_Markers">
		<g id="tips">
			<circle id="tip_SAMEA7293136" class="st49" cx="177.9" cy="220" r="4"/>
			<circle id="tip_SAMEA5818809" class="st49" cx="168.5" cy="206.7" r="4"/>
			<circle id="tip_SAMEA5818817" class="st49" cx="203.6" cy="193.3" r="4"/>
			<circle id="tip_SAMEA5818815" class="st49" cx="275" cy="180" r="4"/>
			<circle id="tip_SAMEA5818800" class="st49" cx="455" cy="521.6" r="4"/>
			<circle id="tip_SAMEA5818798" class="st49" cx="455" cy="508.3" r="4"/>
			<circle id="tip_SAMEA5818799" class="st49" cx="455" cy="494.9" r="4"/>
			<circle id="tip_SAMEA5818801" class="st49" cx="439.8" cy="481.6" r="4"/>
			<circle id="tip_SAMEA7313243_45" class="st49" cx="531.1" cy="468.3" r="4"/>
			<circle id="tip_SAMEA7293135" class="st49" cx="648" cy="454.9" r="4"/>
			<circle id="tip_SAMEA7313236_38" class="st49" cx="616.4" cy="441.6" r="4"/>
			<circle id="tip_SAMEA3713715" class="st49" cx="554.4" cy="428.2" r="4"/>
			<circle id="tip_SAMEA3713711" class="st49" cx="556.8" cy="414.9" r="4"/>
			<circle id="tip_SAMEA3713714" class="st49" cx="554.4" cy="401.6" r="4"/>
			<circle id="tip_SAMEA3713712" class="st49" cx="556.8" cy="388.2" r="4"/>
			<circle id="tip_SAMEA3713713" class="st49" cx="556.8" cy="374.9" r="4"/>
			<circle id="tip_SAMEA5818805" class="st49" cx="279.6" cy="412.5" r="4"/>
			<circle id="tip_SAMEA6651390" class="st49" cx="221.2" cy="399.2" r="4"/>
			<circle id="tip_SAMEA6637002" class="st49" cx="253.9" cy="385.8" r="4"/>
			<circle id="tip_SAMEA6637004" class="st49" cx="314.7" cy="372.5" r="4"/>
			<circle id="tip_SAMEA7313246_49" class="st49" cx="279.6" cy="359.2" r="4"/>
			<circle id="tip_SAMEA5818808" class="st49" cx="328.7" cy="345.8" r="4"/>
			<circle id="tip_SAMEA5818803" class="st49" cx="470.2" cy="332.5" r="4"/>
			<circle id="tip_SAMEA5818826" class="st49" cx="319.4" cy="319.1" r="4"/>
			<circle id="tip_SAMEA5818829" class="st49" cx="322.9" cy="305.8" r="4"/>
			<circle id="tip_SAMEA5818828" class="st49" cx="327.6" cy="292.4" r="4"/>
			<circle id="tip_SAMEA5818818" class="st49" cx="328.7" cy="279.1" r="4"/>
			<circle id="tip_SAMEA5818822" class="st49" cx="421.1" cy="265.8" r="4"/>
			<circle id="tip_SAMEA5818821" class="st49" cx="363.8" cy="252.4" r="4"/>
			<circle id="tip_SAMEA5818825" class="st49" cx="363.8" cy="239.1" r="4"/>
			<circle id="tip_SAMEA5818830" class="st49" cx="346.3" cy="225.7" r="4"/>
			<circle id="tip_SAMEA5054092" class="st49" cx="146.3" cy="161.4" r="4"/>
			<circle id="tip_SAMN00715800" class="st49" cx="119.4" cy="148.1" r="4"/>
			<circle id="tip_SAMEA3937653" class="st49" cx="117.1" cy="134.7" r="4"/>
			<circle id="tip_SAMEA5818811" class="st49" cx="99.5" cy="121.4" r="4"/>
			<circle id="tip_SAMEA5054093" class="st49" cx="167.4" cy="108" r="4"/>
			<circle id="tip_SAMEA5054089" class="st49" cx="180.2" cy="94.7" r="4"/>
			<circle id="tip_SAMEA3937654" class="st49" cx="135.8" cy="81.3" r="4"/>
			<circle id="tip_SAMEA5054090" class="st49" cx="101.9" cy="68" r="4"/>
		</g>
	</g>
	<g id="Internal_Branches">
		<g id="branchStem">
			<path id="branchS_NODE402" class="st50" d="M82,390.2L82,390.2"/>
			<path id="branchS_NODE403" class="st51" d="M81.6,200.3H82"/>
			<path id="branchS_SAMEA7293136" class="st52" d="M79.6,220h98.3"/>
			<path id="branchS_NODE404" class="st53" d="M81.9,180.6L81.9,180.6"/>
			<path id="branchS_SAMEA5818809" class="st52" d="M79.6,206.7h88.9"/>
			<path id="branchS_NODE405_1_" class="st54" d="M81.9,509.4"/>
			<path id="branchS_SAMEA5818817" class="st52" d="M79.7,193.3h123.9"/>
			<path id="branchS_NODE406" class="st55" d="M81.9,470.6L81.9,470.6"/>
			<path id="branchS_SAMEA5818815" class="st52" d="M80.1,179.3h195.2"/>
			<path id="branchS_NODE407" class="st56" d="M81.9,406.2L81.9,406.2"/>
			<path id="branchS_NODE408" class="st57" d="M81,497.7h354.2"/>
			<path id="branchS_SAMEA5818800" class="st52" d="M434,521.6h21"/>
			<path id="branchS_NODE409" class="st58" d="M435.1,473.7L435.1,473.7"/>
			<path id="branchS_NODE410" class="st59" d="M434.4,498.3h0.8"/>
			<path id="branchS_SAMEA5818798" class="st52" d="M434.9,508.3H455"/>
			<path id="branchS_NODE411" class="st60" d="M435,488.3h2.5"/>
			<path id="branchS_SAMEA5818799" class="st52" d="M437.4,494.9h17.7"/>
			<path id="branchS_SAMEA5818801" class="st52" d="M437.4,481.6h2.5"/>
			<path id="branchS_NODE412" class="st61" d="M434.9,449.1h0.3"/>
			<path id="branchS_SAMEA7313243_45" class="st52" d="M434.4,468.3h96.7"/>
			<path id="branchS_NODE413" class="st62" d="M435.1,429.9L435.1,429.9"/>
			<path id="branchS_NODE414" class="st60" d="M434.6,448.2h0.6"/>
			<path id="branchS_SAMEA7293135" class="st52" d="M435,454.9h213"/>
			<path id="branchS_SAMEA7313236_38" class="st52" d="M435,441.6h181.4"/>
			<path id="branchS_NODE415" class="st63" d="M435,411.6h80.9"/>
			<path id="branchS_SAMEA3713715" class="st52" d="M515.4,428.2h39.1"/>
			<path id="branchS_NODE416" class="st64" d="M515.7,394.9H538"/>
			<path id="branchS_NODE417" class="st60" d="M537.8,408.2h6.1"/>
			<path id="branchS_SAMEA3713711" class="st52" d="M543.8,414.9h13"/>
			<path id="branchS_SAMEA3713714" class="st52" d="M543.8,401.6h10.7"/>
			<path id="branchS_NODE418" class="st60" d="M537.8,381.5h0.2"/>
			<path id="branchS_SAMEA3713712" class="st52" d="M537.9,388.2h18.8"/>
			<path id="branchS_SAMEA3713713" class="st52" d="M537.9,374.9h18.8"/>
			<path id="branchS_NODE419" class="st65" d="M81.2,365.7h35.9"/>
			<path id="branchS_NODE420" class="st63" d="M116.2,400h74.6"/>
			<path id="branchS_SAMEA5818805" class="st52" d="M190.3,412.5h89.4"/>
			<path id="branchS_NODE421" class="st64" d="M190.6,387.5h24.7"/>
			<path id="branchS_SAMEA6651390" class="st52" d="M214.9,399.2h6.2"/>
			<path id="branchS_NODE422" class="st59" d="M215.2,375.8h20"/>
			<path id="branchS_SAMEA6637002" class="st52" d="M234.9,385.8h19"/>
			<path id="branchS_NODE423" class="st60" d="M235.1,365.8h2.5"/>
			<path id="branchS_SAMEA6637004" class="st52" d="M237.4,372.5h77.3"/>
			<path id="branchS_SAMEA7313246_49" class="st52" d="M237.4,359.2h42.2"/>
			<path id="branchS_NODE424" class="st66" d="M116.7,331.4h134.9"/>
			<path id="branchS_SAMEA5818808" class="st52" d="M250.6,345.8h78.1"/>
			<path id="branchS_NODE425" class="st67" d="M251.5,317h38.7"/>
			<path id="branchS_SAMEA5818803" class="st52" d="M289.3,332.5h181"/>
			<path id="branchS_NODE426" class="st61" d="M290.1,301.6h27"/>
			<path id="branchS_SAMEA5818826" class="st52" d="M316.3,319.1h3.1"/>
			<path id="branchS_NODE427" class="st62" d="M317,284.1h4.8"/>
			<path id="branchS_SAMEA5818829" class="st52" d="M321,305.8h1.9"/>
			<path id="branchS_NODE428" class="st68" d="M321.6,262.4h1.3"/>
			<path id="branchS_NODE429" class="st59" d="M322.6,282.4h2.7"/>
			<path id="branchS_SAMEA5818828" class="st52" d="M325,292.4h2.6"/>
			<path id="branchS_NODE430" class="st60" d="M325.1,272.4h2.5"/>
			<path id="branchS_SAMEA5818818" class="st52" d="M327.4,279.1h1.3"/>
			<path id="branchS_SAMEA5818822" class="st52" d="M327.4,265.8h93.7"/>
			<path id="branchS_NODE431" class="st59" d="M322.6,242.4h2.7"/>
			<path id="branchS_SAMEA5818821" class="st52" d="M325,252.4h38.8"/>
			<path id="branchS_NODE432" class="st60" d="M325.1,232.4h20"/>
			<path id="branchS_SAMEA5818825" class="st52" d="M345,239.1h18.8"/>
			<path id="branchS_SAMEA5818830" class="st52" d="M345,225.7h1.3"/>
			<path id="branchS_NODE433" class="st61" d="M79.9,123H82"/>
			<path id="branchS_NODE434" class="st64" d="M81.6,149.7h6.3"/>
			<path id="branchS_SAMEA5054092" class="st52" d="M87.5,161.4h58.8"/>
			<path id="branchS_NODE435" class="st59" d="M87.7,138h7.1"/>
			<path id="branchS_SAMN00715800" class="st52" d="M94.6,148.1h24.8"/>
			<path id="branchS_NODE436" class="st60" d="M94.7,128h2.5"/>
			<path id="branchS_SAMEA3937653" class="st52" d="M97.1,134.7h20"/>
			<path id="branchS_SAMEA5818811" class="st52" d="M97.1,121.4h2.5"/>
			<path id="branchS_NODE437" class="st64" d="M81.6,96.4H82"/>
			<path id="branchS_SAMEA5054093" class="st52" d="M81.6,108h85.7"/>
			<path id="branchS_NODE438" class="st59" d="M81.9,84.7L81.9,84.7"/>
			<path id="branchS_SAMEA5054089" class="st52" d="M81.7,94.7h98.5"/>
			<path id="branchS_NODE439" class="st60" d="M81.9,74.7L81.9,74.7"/>
			<path id="branchS_SAMEA3937654" class="st52" d="M81.9,81.3h53.9"/>
			<path id="branchS_NODE440" class="st69" d="M81.9,68L81.9,68"/>
			<path id="branchS_SAMEA5054090" class="st52" d="M82,68h19.9"/>
		</g>
		<g id="branchTee">
			<path id="branchT_NODE402" class="st70" d="M82,226.2V123"/>
			<path id="branchT_NODE403" class="st71" d="M82,220v-39.4"/>
			<path id="branchT_NODE404" class="st72" d="M82,206.7v288.1"/>
			<path id="branchT_NODE405" class="st73" d="M82,193.3v277.3"/>
			<path id="branchT_NODE406" class="st74" d="M82,180v226.2"/>
			<path id="branchT_NODE407" class="st75" d="M82,497.7v-132"/>
			<path id="branchT_NODE408" class="st76" d="M435.2,521.6v-47.9"/>
			<path id="branchT_NODE409" class="st77" d="M435.2,498.3v-49.2"/>
			<path id="branchT_NODE410" class="st78" d="M435.2,508.3v-20"/>
			<path id="branchT_NODE411" class="st79" d="M437.5,494.9v-13.3"/>
			<path id="branchT_NODE412" class="st80" d="M435.2,468.3v-38.4"/>
			<path id="branchT_NODE413" class="st81" d="M435.2,448.2v-36.7"/>
			<path id="branchT_NODE414" class="st79" d="M435.2,454.9v-13.3"/>
			<path id="branchT_NODE415" class="st82" d="M515.9,428.2v-33.4"/>
			<path id="branchT_NODE416" class="st83" d="M538.1,408.2v-26.7"/>
			<path id="branchT_NODE417" class="st79" d="M543.9,414.9v-13.3"/>
			<path id="branchT_NODE418" class="st79" d="M538.1,388.2v-13.3"/>
			<path id="branchT_NODE419" class="st84" d="M117.1,400v-68.6"/>
			<path id="branchT_NODE420" class="st82" d="M190.8,412.5v-25"/>
			<path id="branchT_NODE421" class="st83" d="M215.3,399.2v-23.3"/>
			<path id="branchT_NODE422" class="st78" d="M235.2,385.8v-20"/>
			<path id="branchT_NODE423" class="st79" d="M237.5,372.5v-13.3"/>
			<path id="branchT_NODE424" class="st85" d="M251.6,345.8V317"/>
			<path id="branchT_NODE425" class="st86" d="M290.2,332.5v-30.9"/>
			<path id="branchT_NODE426" class="st80" d="M317.1,319.1v-35"/>
			<path id="branchT_NODE427" class="st81" d="M321.7,305.8v-43.4"/>
			<path id="branchT_NODE428" class="st87" d="M322.9,282.4v-40"/>
			<path id="branchT_NODE429" class="st78" d="M325.2,292.4v-20"/>
			<path id="branchT_NODE430" class="st79" d="M327.6,279.1v-13.3"/>
			<path id="branchT_NODE431" class="st78" d="M325.2,252.4v-20"/>
			<path id="branchT_NODE432" class="st79" d="M345.1,239.1v-13.3"/>
			<path id="branchT_NODE433" class="st80" d="M82,149.7V96.4"/>
			<path id="branchT_NODE434" class="st83" d="M87.8,161.4V138"/>
			<path id="branchT_NODE435" class="st78" d="M94.9,148.1v-20"/>
			<path id="branchT_NODE436" class="st79" d="M97.2,134.7v-13.3"/>
			<path id="branchT_NODE437" class="st83" d="M82,108V84.7"/>
			<path id="branchT_NODE438" class="st78" d="M82,94.7v-20"/>
			<path id="branchT_NODE439" class="st79" d="M82,81.3V68"/>
			<path id="branchT_NODE440" class="st88" d="M82,68L82,68"/>
		</g>
	</g>
</g>
</svg>
