<?xml version="1.0" encoding="utf-8" standalone="no"?>
<!DOCTYPE svg PUBLIC "-//W3C//DTD SVG 1.1//EN"
  "http://www.w3.org/Graphics/SVG/1.1/DTD/svg11.dtd">
<!-- Created with matplotlib (https://matplotlib.org/) -->
<svg height="139.725344pt" version="1.1" viewBox="0 0 394.730156 139.725344" width="394.730156pt" xmlns="http://www.w3.org/2000/svg" xmlns:xlink="http://www.w3.org/1999/xlink">
 <metadata>
  <rdf:RDF xmlns:cc="http://creativecommons.org/ns#" xmlns:dc="http://purl.org/dc/elements/1.1/" xmlns:rdf="http://www.w3.org/1999/02/22-rdf-syntax-ns#">
   <cc:Work>
    <dc:type rdf:resource="http://purl.org/dc/dcmitype/StillImage"/>
    <dc:date>2021-05-13T22:32:35.076604</dc:date>
    <dc:format>image/svg+xml</dc:format>
    <dc:creator>
     <cc:Agent>
      <dc:title>Matplotlib v3.3.2, https://matplotlib.org/</dc:title>
     </cc:Agent>
    </dc:creator>
   </cc:Work>
  </rdf:RDF>
 </metadata>
 <defs>
  <style type="text/css">*{stroke-linecap:butt;stroke-linejoin:round;}</style>
 </defs>
 <g id="figure_1">
  <g id="patch_1">
   <path d="M 0 139.725344 
L 394.730156 139.725344 
L 394.730156 0 
L 0 0 
z
" style="fill:none;"/>
  </g>
  <g id="axes_1">
   <g id="patch_2">
    <path d="M 30.410156 111.847219 
L 387.530156 111.847219 
L 387.530156 13.999219 
L 30.410156 13.999219 
z
" style="fill:#ffffff;"/>
   </g>
   <g id="patch_3">
    <path clip-path="url(#pb3b6029d58)" d="M 33.844002 66.384139 
L 54.447079 66.384139 
L 54.447079 64.680171 
L 33.844002 64.680171 
L 33.844002 66.384139 
z
" style="fill:#8020df;stroke:#4c4c4c;stroke-linejoin:miter;stroke-width:0.5;"/>
   </g>
   <g id="patch_4">
    <path clip-path="url(#pb3b6029d58)" d="M 61.314772 67.313512 
L 81.917849 67.313512 
L 81.917849 34.735741 
L 61.314772 34.735741 
L 61.314772 67.313512 
z
" style="fill:#6264e6;stroke:#4c4c4c;stroke-linejoin:miter;stroke-width:0.5;"/>
   </g>
   <g id="patch_5">
    <path clip-path="url(#pb3b6029d58)" d="M 88.785541 81.495014 
L 109.388618 81.495014 
L 109.388618 73.697695 
L 88.785541 73.697695 
L 88.785541 81.495014 
z
" style="fill:#3492d8;stroke:#4c4c4c;stroke-linejoin:miter;stroke-width:0.5;"/>
   </g>
   <g id="patch_6">
    <path clip-path="url(#pb3b6029d58)" d="M 116.25631 72.555334 
L 136.859387 72.555334 
L 136.859387 71.395814 
L 116.25631 71.395814 
L 116.25631 72.555334 
z
" style="fill:#3492d8;stroke:#4c4c4c;stroke-linejoin:miter;stroke-width:0.5;"/>
   </g>
   <g id="patch_7">
    <path clip-path="url(#pb3b6029d58)" d="M 143.727079 74.580247 
L 164.330156 74.580247 
L 164.330156 66.098581 
L 143.727079 66.098581 
L 143.727079 74.580247 
z
" style="fill:#33baca;stroke:#4c4c4c;stroke-linejoin:miter;stroke-width:0.5;"/>
   </g>
   <g id="patch_8">
    <path clip-path="url(#pb3b6029d58)" d="M 171.197849 80.447867 
L 191.800925 80.447867 
L 191.800925 71.54626 
L 171.197849 71.54626 
L 171.197849 80.447867 
z
" style="fill:#62dec3;stroke:#4c4c4c;stroke-linejoin:miter;stroke-width:0.5;"/>
   </g>
   <g id="patch_9">
    <path clip-path="url(#pb3b6029d58)" d="M 198.668618 100.574363 
L 219.271695 100.574363 
L 219.271695 86.923923 
L 198.668618 86.923923 
L 198.668618 100.574363 
z
" style="fill:#90efb7;stroke:#4c4c4c;stroke-linejoin:miter;stroke-width:0.5;"/>
   </g>
   <g id="patch_10">
    <path clip-path="url(#pb3b6029d58)" d="M 226.139387 90.932645 
L 246.742464 90.932645 
L 246.742464 79.386787 
L 226.139387 79.386787 
L 226.139387 90.932645 
z
" style="fill:#b7e7a2;stroke:#4c4c4c;stroke-linejoin:miter;stroke-width:0.5;"/>
   </g>
   <g id="patch_11">
    <path clip-path="url(#pb3b6029d58)" d="M 253.610156 67.240666 
L 274.213233 67.240666 
L 274.213233 65.988028 
L 253.610156 65.988028 
L 253.610156 67.240666 
z
" style="fill:#d8c682;stroke:#4c4c4c;stroke-linejoin:miter;stroke-width:0.5;"/>
   </g>
   <g id="patch_12">
    <path clip-path="url(#pb3b6029d58)" d="M 281.080925 69.793591 
L 301.684002 69.793591 
L 301.684002 64.473091 
L 281.080925 64.473091 
L 281.080925 69.793591 
z
" style="fill:#e99a65;stroke:#4c4c4c;stroke-linejoin:miter;stroke-width:0.5;"/>
   </g>
   <g id="patch_13">
    <path clip-path="url(#pb3b6029d58)" d="M 308.551695 74.335672 
L 329.154772 74.335672 
L 329.154772 64.366986 
L 308.551695 64.366986 
L 308.551695 74.335672 
z
" style="fill:#e46043;stroke:#4c4c4c;stroke-linejoin:miter;stroke-width:0.5;"/>
   </g>
   <g id="patch_14">
    <path clip-path="url(#pb3b6029d58)" d="M 336.022464 73.20006 
L 356.625541 73.20006 
L 356.625541 70.958745 
L 336.022464 70.958745 
L 336.022464 73.20006 
z
" style="fill:#df2020;stroke:#4c4c4c;stroke-linejoin:miter;stroke-width:0.5;"/>
   </g>
   <g id="patch_15">
    <path clip-path="url(#pb3b6029d58)" d="M 363.493233 74.497173 
L 384.09631 74.497173 
L 384.09631 74.275265 
L 363.493233 74.275265 
L 363.493233 74.497173 
z
" style="fill:#c4c4c4;stroke:#4c4c4c;stroke-linejoin:miter;stroke-width:0.5;"/>
   </g>
   <g id="matplotlib.axis_1">
    <g id="xtick_1">
     <g id="line2d_1">
      <defs>
       <path d="M 0 0 
L 0 3.5 
" id="m4e0e1f59ea" style="stroke:#000000;stroke-width:0.8;"/>
      </defs>
      <g>
       <use style="stroke:#000000;stroke-width:0.8;" x="44.145541" xlink:href="#m4e0e1f59ea" y="111.847219"/>
      </g>
     </g>
     <g id="text_1">
      <!-- 0.PRE -->
      <g transform="translate(36.936166 122.646438)scale(0.05 -0.05)">
       <defs>
        <path d="M 31.78125 66.40625 
Q 24.171875 66.40625 20.328125 58.90625 
Q 16.5 51.421875 16.5 36.375 
Q 16.5 21.390625 20.328125 13.890625 
Q 24.171875 6.390625 31.78125 6.390625 
Q 39.453125 6.390625 43.28125 13.890625 
Q 47.125 21.390625 47.125 36.375 
Q 47.125 51.421875 43.28125 58.90625 
Q 39.453125 66.40625 31.78125 66.40625 
z
M 31.78125 74.21875 
Q 44.046875 74.21875 50.515625 64.515625 
Q 56.984375 54.828125 56.984375 36.375 
Q 56.984375 17.96875 50.515625 8.265625 
Q 44.046875 -1.421875 31.78125 -1.421875 
Q 19.53125 -1.421875 13.0625 8.265625 
Q 6.59375 17.96875 6.59375 36.375 
Q 6.59375 54.828125 13.0625 64.515625 
Q 19.53125 74.21875 31.78125 74.21875 
z
" id="DejaVuSans-48"/>
        <path d="M 10.6875 12.40625 
L 21 12.40625 
L 21 0 
L 10.6875 0 
z
" id="DejaVuSans-46"/>
        <path d="M 19.671875 64.796875 
L 19.671875 37.40625 
L 32.078125 37.40625 
Q 38.96875 37.40625 42.71875 40.96875 
Q 46.484375 44.53125 46.484375 51.125 
Q 46.484375 57.671875 42.71875 61.234375 
Q 38.96875 64.796875 32.078125 64.796875 
z
M 9.8125 72.90625 
L 32.078125 72.90625 
Q 44.34375 72.90625 50.609375 67.359375 
Q 56.890625 61.8125 56.890625 51.125 
Q 56.890625 40.328125 50.609375 34.8125 
Q 44.34375 29.296875 32.078125 29.296875 
L 19.671875 29.296875 
L 19.671875 0 
L 9.8125 0 
z
" id="DejaVuSans-80"/>
        <path d="M 44.390625 34.1875 
Q 47.5625 33.109375 50.5625 29.59375 
Q 53.5625 26.078125 56.59375 19.921875 
L 66.609375 0 
L 56 0 
L 46.6875 18.703125 
Q 43.0625 26.03125 39.671875 28.421875 
Q 36.28125 30.8125 30.421875 30.8125 
L 19.671875 30.8125 
L 19.671875 0 
L 9.8125 0 
L 9.8125 72.90625 
L 32.078125 72.90625 
Q 44.578125 72.90625 50.734375 67.671875 
Q 56.890625 62.453125 56.890625 51.90625 
Q 56.890625 45.015625 53.6875 40.46875 
Q 50.484375 35.9375 44.390625 34.1875 
z
M 19.671875 64.796875 
L 19.671875 38.921875 
L 32.078125 38.921875 
Q 39.203125 38.921875 42.84375 42.21875 
Q 46.484375 45.515625 46.484375 51.90625 
Q 46.484375 58.296875 42.84375 61.546875 
Q 39.203125 64.796875 32.078125 64.796875 
z
" id="DejaVuSans-82"/>
        <path d="M 9.8125 72.90625 
L 55.90625 72.90625 
L 55.90625 64.59375 
L 19.671875 64.59375 
L 19.671875 43.015625 
L 54.390625 43.015625 
L 54.390625 34.71875 
L 19.671875 34.71875 
L 19.671875 8.296875 
L 56.78125 8.296875 
L 56.78125 0 
L 9.8125 0 
z
" id="DejaVuSans-69"/>
       </defs>
       <use xlink:href="#DejaVuSans-48"/>
       <use x="63.623047" xlink:href="#DejaVuSans-46"/>
       <use x="95.410156" xlink:href="#DejaVuSans-80"/>
       <use x="155.712891" xlink:href="#DejaVuSans-82"/>
       <use x="225.195312" xlink:href="#DejaVuSans-69"/>
      </g>
     </g>
    </g>
    <g id="xtick_2">
     <g id="line2d_2">
      <g>
       <use style="stroke:#000000;stroke-width:0.8;" x="71.61631" xlink:href="#m4e0e1f59ea" y="111.847219"/>
      </g>
     </g>
     <g id="text_2">
      <!-- 0.PE -->
      <g transform="translate(66.144044 122.646438)scale(0.05 -0.05)">
       <use xlink:href="#DejaVuSans-48"/>
       <use x="63.623047" xlink:href="#DejaVuSans-46"/>
       <use x="95.410156" xlink:href="#DejaVuSans-80"/>
       <use x="155.712891" xlink:href="#DejaVuSans-69"/>
      </g>
     </g>
    </g>
    <g id="xtick_3">
     <g id="line2d_3">
      <g>
       <use style="stroke:#000000;stroke-width:0.8;" x="99.087079" xlink:href="#m4e0e1f59ea" y="111.847219"/>
      </g>
     </g>
     <g id="text_3">
      <!-- 0.ANT -->
      <g transform="translate(91.594501 122.646438)scale(0.05 -0.05)">
       <defs>
        <path d="M 34.1875 63.1875 
L 20.796875 26.90625 
L 47.609375 26.90625 
z
M 28.609375 72.90625 
L 39.796875 72.90625 
L 67.578125 0 
L 57.328125 0 
L 50.6875 18.703125 
L 17.828125 18.703125 
L 11.1875 0 
L 0.78125 0 
z
" id="DejaVuSans-65"/>
        <path d="M 9.8125 72.90625 
L 23.09375 72.90625 
L 55.421875 11.921875 
L 55.421875 72.90625 
L 64.984375 72.90625 
L 64.984375 0 
L 51.703125 0 
L 19.390625 60.984375 
L 19.390625 0 
L 9.8125 0 
z
" id="DejaVuSans-78"/>
        <path d="M -0.296875 72.90625 
L 61.375 72.90625 
L 61.375 64.59375 
L 35.5 64.59375 
L 35.5 0 
L 25.59375 0 
L 25.59375 64.59375 
L -0.296875 64.59375 
z
" id="DejaVuSans-84"/>
       </defs>
       <use xlink:href="#DejaVuSans-48"/>
       <use x="63.623047" xlink:href="#DejaVuSans-46"/>
       <use x="95.410156" xlink:href="#DejaVuSans-65"/>
       <use x="163.818359" xlink:href="#DejaVuSans-78"/>
       <use x="238.623047" xlink:href="#DejaVuSans-84"/>
      </g>
     </g>
    </g>
    <g id="xtick_4">
     <g id="line2d_4">
      <g>
       <use style="stroke:#000000;stroke-width:0.8;" x="126.557849" xlink:href="#m4e0e1f59ea" y="111.847219"/>
      </g>
     </g>
     <g id="text_4">
      <!-- 0.ANT4 -->
      <g transform="translate(117.474645 122.646438)scale(0.05 -0.05)">
       <defs>
        <path d="M 37.796875 64.3125 
L 12.890625 25.390625 
L 37.796875 25.390625 
z
M 35.203125 72.90625 
L 47.609375 72.90625 
L 47.609375 25.390625 
L 58.015625 25.390625 
L 58.015625 17.1875 
L 47.609375 17.1875 
L 47.609375 0 
L 37.796875 0 
L 37.796875 17.1875 
L 4.890625 17.1875 
L 4.890625 26.703125 
z
" id="DejaVuSans-52"/>
       </defs>
       <use xlink:href="#DejaVuSans-48"/>
       <use x="63.623047" xlink:href="#DejaVuSans-46"/>
       <use x="95.410156" xlink:href="#DejaVuSans-65"/>
       <use x="163.818359" xlink:href="#DejaVuSans-78"/>
       <use x="238.623047" xlink:href="#DejaVuSans-84"/>
       <use x="299.707031" xlink:href="#DejaVuSans-52"/>
      </g>
     </g>
    </g>
    <g id="xtick_5">
     <g id="line2d_5">
      <g>
       <use style="stroke:#000000;stroke-width:0.8;" x="154.028618" xlink:href="#m4e0e1f59ea" y="111.847219"/>
      </g>
     </g>
     <g id="text_5">
      <!-- 3.ANT -->
      <g transform="translate(146.53604 122.646438)scale(0.05 -0.05)">
       <defs>
        <path d="M 40.578125 39.3125 
Q 47.65625 37.796875 51.625 33 
Q 55.609375 28.21875 55.609375 21.1875 
Q 55.609375 10.40625 48.1875 4.484375 
Q 40.765625 -1.421875 27.09375 -1.421875 
Q 22.515625 -1.421875 17.65625 -0.515625 
Q 12.796875 0.390625 7.625 2.203125 
L 7.625 11.71875 
Q 11.71875 9.328125 16.59375 8.109375 
Q 21.484375 6.890625 26.8125 6.890625 
Q 36.078125 6.890625 40.9375 10.546875 
Q 45.796875 14.203125 45.796875 21.1875 
Q 45.796875 27.640625 41.28125 31.265625 
Q 36.765625 34.90625 28.71875 34.90625 
L 20.21875 34.90625 
L 20.21875 43.015625 
L 29.109375 43.015625 
Q 36.375 43.015625 40.234375 45.921875 
Q 44.09375 48.828125 44.09375 54.296875 
Q 44.09375 59.90625 40.109375 62.90625 
Q 36.140625 65.921875 28.71875 65.921875 
Q 24.65625 65.921875 20.015625 65.03125 
Q 15.375 64.15625 9.8125 62.3125 
L 9.8125 71.09375 
Q 15.4375 72.65625 20.34375 73.4375 
Q 25.25 74.21875 29.59375 74.21875 
Q 40.828125 74.21875 47.359375 69.109375 
Q 53.90625 64.015625 53.90625 55.328125 
Q 53.90625 49.265625 50.4375 45.09375 
Q 46.96875 40.921875 40.578125 39.3125 
z
" id="DejaVuSans-51"/>
       </defs>
       <use xlink:href="#DejaVuSans-51"/>
       <use x="63.623047" xlink:href="#DejaVuSans-46"/>
       <use x="95.410156" xlink:href="#DejaVuSans-65"/>
       <use x="163.818359" xlink:href="#DejaVuSans-78"/>
       <use x="238.623047" xlink:href="#DejaVuSans-84"/>
      </g>
     </g>
    </g>
    <g id="xtick_6">
     <g id="line2d_6">
      <g>
       <use style="stroke:#000000;stroke-width:0.8;" x="181.499387" xlink:href="#m4e0e1f59ea" y="111.847219"/>
      </g>
     </g>
     <g id="text_6">
      <!-- 4.ANT -->
      <g transform="translate(174.006809 122.646438)scale(0.05 -0.05)">
       <use xlink:href="#DejaVuSans-52"/>
       <use x="63.623047" xlink:href="#DejaVuSans-46"/>
       <use x="95.410156" xlink:href="#DejaVuSans-65"/>
       <use x="163.818359" xlink:href="#DejaVuSans-78"/>
       <use x="238.623047" xlink:href="#DejaVuSans-84"/>
      </g>
     </g>
    </g>
    <g id="xtick_7">
     <g id="line2d_7">
      <g>
       <use style="stroke:#000000;stroke-width:0.8;" x="208.970156" xlink:href="#m4e0e1f59ea" y="111.847219"/>
      </g>
     </g>
     <g id="text_7">
      <!-- 2.ANT -->
      <g transform="translate(201.477578 122.646438)scale(0.05 -0.05)">
       <defs>
        <path d="M 19.1875 8.296875 
L 53.609375 8.296875 
L 53.609375 0 
L 7.328125 0 
L 7.328125 8.296875 
Q 12.9375 14.109375 22.625 23.890625 
Q 32.328125 33.6875 34.8125 36.53125 
Q 39.546875 41.84375 41.421875 45.53125 
Q 43.3125 49.21875 43.3125 52.78125 
Q 43.3125 58.59375 39.234375 62.25 
Q 35.15625 65.921875 28.609375 65.921875 
Q 23.96875 65.921875 18.8125 64.3125 
Q 13.671875 62.703125 7.8125 59.421875 
L 7.8125 69.390625 
Q 13.765625 71.78125 18.9375 73 
Q 24.125 74.21875 28.421875 74.21875 
Q 39.75 74.21875 46.484375 68.546875 
Q 53.21875 62.890625 53.21875 53.421875 
Q 53.21875 48.921875 51.53125 44.890625 
Q 49.859375 40.875 45.40625 35.40625 
Q 44.1875 33.984375 37.640625 27.21875 
Q 31.109375 20.453125 19.1875 8.296875 
z
" id="DejaVuSans-50"/>
       </defs>
       <use xlink:href="#DejaVuSans-50"/>
       <use x="63.623047" xlink:href="#DejaVuSans-46"/>
       <use x="95.410156" xlink:href="#DejaVuSans-65"/>
       <use x="163.818359" xlink:href="#DejaVuSans-78"/>
       <use x="238.623047" xlink:href="#DejaVuSans-84"/>
      </g>
     </g>
    </g>
    <g id="xtick_8">
     <g id="line2d_8">
      <g>
       <use style="stroke:#000000;stroke-width:0.8;" x="236.440925" xlink:href="#m4e0e1f59ea" y="111.847219"/>
      </g>
     </g>
     <g id="text_8">
      <!-- 2.MED -->
      <g transform="translate(228.39405 122.646438)scale(0.05 -0.05)">
       <defs>
        <path d="M 9.8125 72.90625 
L 24.515625 72.90625 
L 43.109375 23.296875 
L 61.8125 72.90625 
L 76.515625 72.90625 
L 76.515625 0 
L 66.890625 0 
L 66.890625 64.015625 
L 48.09375 14.015625 
L 38.1875 14.015625 
L 19.390625 64.015625 
L 19.390625 0 
L 9.8125 0 
z
" id="DejaVuSans-77"/>
        <path d="M 19.671875 64.796875 
L 19.671875 8.109375 
L 31.59375 8.109375 
Q 46.6875 8.109375 53.6875 14.9375 
Q 60.6875 21.78125 60.6875 36.53125 
Q 60.6875 51.171875 53.6875 57.984375 
Q 46.6875 64.796875 31.59375 64.796875 
z
M 9.8125 72.90625 
L 30.078125 72.90625 
Q 51.265625 72.90625 61.171875 64.09375 
Q 71.09375 55.28125 71.09375 36.53125 
Q 71.09375 17.671875 61.125 8.828125 
Q 51.171875 0 30.078125 0 
L 9.8125 0 
z
" id="DejaVuSans-68"/>
       </defs>
       <use xlink:href="#DejaVuSans-50"/>
       <use x="63.623047" xlink:href="#DejaVuSans-46"/>
       <use x="95.410156" xlink:href="#DejaVuSans-77"/>
       <use x="181.689453" xlink:href="#DejaVuSans-69"/>
       <use x="244.873047" xlink:href="#DejaVuSans-68"/>
      </g>
     </g>
    </g>
    <g id="xtick_9">
     <g id="line2d_9">
      <g>
       <use style="stroke:#000000;stroke-width:0.8;" x="263.911695" xlink:href="#m4e0e1f59ea" y="111.847219"/>
      </g>
     </g>
     <g id="text_9">
      <!-- 1.PRE -->
      <g transform="translate(256.70232 122.646438)scale(0.05 -0.05)">
       <defs>
        <path d="M 12.40625 8.296875 
L 28.515625 8.296875 
L 28.515625 63.921875 
L 10.984375 60.40625 
L 10.984375 69.390625 
L 28.421875 72.90625 
L 38.28125 72.90625 
L 38.28125 8.296875 
L 54.390625 8.296875 
L 54.390625 0 
L 12.40625 0 
z
" id="DejaVuSans-49"/>
       </defs>
       <use xlink:href="#DejaVuSans-49"/>
       <use x="63.623047" xlink:href="#DejaVuSans-46"/>
       <use x="95.410156" xlink:href="#DejaVuSans-80"/>
       <use x="155.712891" xlink:href="#DejaVuSans-82"/>
       <use x="225.195312" xlink:href="#DejaVuSans-69"/>
      </g>
     </g>
    </g>
    <g id="xtick_10">
     <g id="line2d_10">
      <g>
       <use style="stroke:#000000;stroke-width:0.8;" x="291.382464" xlink:href="#m4e0e1f59ea" y="111.847219"/>
      </g>
     </g>
     <g id="text_10">
      <!-- 1.ANT -->
      <g transform="translate(283.889886 122.646438)scale(0.05 -0.05)">
       <use xlink:href="#DejaVuSans-49"/>
       <use x="63.623047" xlink:href="#DejaVuSans-46"/>
       <use x="95.410156" xlink:href="#DejaVuSans-65"/>
       <use x="163.818359" xlink:href="#DejaVuSans-78"/>
       <use x="238.623047" xlink:href="#DejaVuSans-84"/>
      </g>
     </g>
    </g>
    <g id="xtick_11">
     <g id="line2d_11">
      <g>
       <use style="stroke:#000000;stroke-width:0.8;" x="318.853233" xlink:href="#m4e0e1f59ea" y="111.847219"/>
      </g>
     </g>
     <g id="text_11">
      <!-- 1.IN -->
      <g transform="translate(313.860264 122.646438)scale(0.05 -0.05)">
       <defs>
        <path d="M 9.8125 72.90625 
L 19.671875 72.90625 
L 19.671875 0 
L 9.8125 0 
z
" id="DejaVuSans-73"/>
       </defs>
       <use xlink:href="#DejaVuSans-49"/>
       <use x="63.623047" xlink:href="#DejaVuSans-46"/>
       <use x="95.410156" xlink:href="#DejaVuSans-73"/>
       <use x="124.902344" xlink:href="#DejaVuSans-78"/>
      </g>
     </g>
    </g>
    <g id="xtick_12">
     <g id="line2d_12">
      <g>
       <use style="stroke:#000000;stroke-width:0.8;" x="346.324002" xlink:href="#m4e0e1f59ea" y="111.847219"/>
      </g>
     </g>
     <g id="text_12">
      <!-- 1.ORI -->
      <g transform="translate(339.496268 122.646438)scale(0.05 -0.05)">
       <defs>
        <path d="M 39.40625 66.21875 
Q 28.65625 66.21875 22.328125 58.203125 
Q 16.015625 50.203125 16.015625 36.375 
Q 16.015625 22.609375 22.328125 14.59375 
Q 28.65625 6.59375 39.40625 6.59375 
Q 50.140625 6.59375 56.421875 14.59375 
Q 62.703125 22.609375 62.703125 36.375 
Q 62.703125 50.203125 56.421875 58.203125 
Q 50.140625 66.21875 39.40625 66.21875 
z
M 39.40625 74.21875 
Q 54.734375 74.21875 63.90625 63.9375 
Q 73.09375 53.65625 73.09375 36.375 
Q 73.09375 19.140625 63.90625 8.859375 
Q 54.734375 -1.421875 39.40625 -1.421875 
Q 24.03125 -1.421875 14.8125 8.828125 
Q 5.609375 19.09375 5.609375 36.375 
Q 5.609375 53.65625 14.8125 63.9375 
Q 24.03125 74.21875 39.40625 74.21875 
z
" id="DejaVuSans-79"/>
       </defs>
       <use xlink:href="#DejaVuSans-49"/>
       <use x="63.623047" xlink:href="#DejaVuSans-46"/>
       <use x="95.410156" xlink:href="#DejaVuSans-79"/>
       <use x="174.121094" xlink:href="#DejaVuSans-82"/>
       <use x="243.603516" xlink:href="#DejaVuSans-73"/>
      </g>
     </g>
    </g>
    <g id="xtick_13">
     <g id="line2d_13">
      <g>
       <use style="stroke:#000000;stroke-width:0.8;" x="373.794772" xlink:href="#m4e0e1f59ea" y="111.847219"/>
      </g>
     </g>
     <g id="text_13">
      <!-- all -->
      <g transform="translate(370.873678 122.646438)scale(0.05 -0.05)">
       <defs>
        <path d="M 34.28125 27.484375 
Q 23.390625 27.484375 19.1875 25 
Q 14.984375 22.515625 14.984375 16.5 
Q 14.984375 11.71875 18.140625 8.90625 
Q 21.296875 6.109375 26.703125 6.109375 
Q 34.1875 6.109375 38.703125 11.40625 
Q 43.21875 16.703125 43.21875 25.484375 
L 43.21875 27.484375 
z
M 52.203125 31.203125 
L 52.203125 0 
L 43.21875 0 
L 43.21875 8.296875 
Q 40.140625 3.328125 35.546875 0.953125 
Q 30.953125 -1.421875 24.3125 -1.421875 
Q 15.921875 -1.421875 10.953125 3.296875 
Q 6 8.015625 6 15.921875 
Q 6 25.140625 12.171875 29.828125 
Q 18.359375 34.515625 30.609375 34.515625 
L 43.21875 34.515625 
L 43.21875 35.40625 
Q 43.21875 41.609375 39.140625 45 
Q 35.0625 48.390625 27.6875 48.390625 
Q 23 48.390625 18.546875 47.265625 
Q 14.109375 46.140625 10.015625 43.890625 
L 10.015625 52.203125 
Q 14.9375 54.109375 19.578125 55.046875 
Q 24.21875 56 28.609375 56 
Q 40.484375 56 46.34375 49.84375 
Q 52.203125 43.703125 52.203125 31.203125 
z
" id="DejaVuSans-97"/>
        <path d="M 9.421875 75.984375 
L 18.40625 75.984375 
L 18.40625 0 
L 9.421875 0 
z
" id="DejaVuSans-108"/>
       </defs>
       <use xlink:href="#DejaVuSans-97"/>
       <use x="61.279297" xlink:href="#DejaVuSans-108"/>
       <use x="89.0625" xlink:href="#DejaVuSans-108"/>
      </g>
     </g>
    </g>
    <g id="text_14">
     <!-- Clade -->
     <g transform="translate(201.8725 131.4855)scale(0.05 -0.05)">
      <defs>
       <path d="M 64.40625 67.28125 
L 64.40625 56.890625 
Q 59.421875 61.53125 53.78125 63.8125 
Q 48.140625 66.109375 41.796875 66.109375 
Q 29.296875 66.109375 22.65625 58.46875 
Q 16.015625 50.828125 16.015625 36.375 
Q 16.015625 21.96875 22.65625 14.328125 
Q 29.296875 6.6875 41.796875 6.6875 
Q 48.140625 6.6875 53.78125 8.984375 
Q 59.421875 11.28125 64.40625 15.921875 
L 64.40625 5.609375 
Q 59.234375 2.09375 53.4375 0.328125 
Q 47.65625 -1.421875 41.21875 -1.421875 
Q 24.65625 -1.421875 15.125 8.703125 
Q 5.609375 18.84375 5.609375 36.375 
Q 5.609375 53.953125 15.125 64.078125 
Q 24.65625 74.21875 41.21875 74.21875 
Q 47.75 74.21875 53.53125 72.484375 
Q 59.328125 70.75 64.40625 67.28125 
z
" id="DejaVuSans-67"/>
       <path d="M 45.40625 46.390625 
L 45.40625 75.984375 
L 54.390625 75.984375 
L 54.390625 0 
L 45.40625 0 
L 45.40625 8.203125 
Q 42.578125 3.328125 38.25 0.953125 
Q 33.9375 -1.421875 27.875 -1.421875 
Q 17.96875 -1.421875 11.734375 6.484375 
Q 5.515625 14.40625 5.515625 27.296875 
Q 5.515625 40.1875 11.734375 48.09375 
Q 17.96875 56 27.875 56 
Q 33.9375 56 38.25 53.625 
Q 42.578125 51.265625 45.40625 46.390625 
z
M 14.796875 27.296875 
Q 14.796875 17.390625 18.875 11.75 
Q 22.953125 6.109375 30.078125 6.109375 
Q 37.203125 6.109375 41.296875 11.75 
Q 45.40625 17.390625 45.40625 27.296875 
Q 45.40625 37.203125 41.296875 42.84375 
Q 37.203125 48.484375 30.078125 48.484375 
Q 22.953125 48.484375 18.875 42.84375 
Q 14.796875 37.203125 14.796875 27.296875 
z
" id="DejaVuSans-100"/>
       <path d="M 56.203125 29.59375 
L 56.203125 25.203125 
L 14.890625 25.203125 
Q 15.484375 15.921875 20.484375 11.0625 
Q 25.484375 6.203125 34.421875 6.203125 
Q 39.59375 6.203125 44.453125 7.46875 
Q 49.3125 8.734375 54.109375 11.28125 
L 54.109375 2.78125 
Q 49.265625 0.734375 44.1875 -0.34375 
Q 39.109375 -1.421875 33.890625 -1.421875 
Q 20.796875 -1.421875 13.15625 6.1875 
Q 5.515625 13.8125 5.515625 26.8125 
Q 5.515625 40.234375 12.765625 48.109375 
Q 20.015625 56 32.328125 56 
Q 43.359375 56 49.78125 48.890625 
Q 56.203125 41.796875 56.203125 29.59375 
z
M 47.21875 32.234375 
Q 47.125 39.59375 43.09375 43.984375 
Q 39.0625 48.390625 32.421875 48.390625 
Q 24.90625 48.390625 20.390625 44.140625 
Q 15.875 39.890625 15.1875 32.171875 
z
" id="DejaVuSans-101"/>
      </defs>
      <use xlink:href="#DejaVuSans-67"/>
      <use x="69.824219" xlink:href="#DejaVuSans-108"/>
      <use x="97.607422" xlink:href="#DejaVuSans-97"/>
      <use x="158.886719" xlink:href="#DejaVuSans-100"/>
      <use x="222.363281" xlink:href="#DejaVuSans-101"/>
     </g>
    </g>
   </g>
   <g id="matplotlib.axis_2">
    <g id="ytick_1">
     <g id="line2d_14">
      <defs>
       <path d="M 0 0 
L -3.5 0 
" id="mfd1a6142f9" style="stroke:#000000;stroke-width:0.8;"/>
      </defs>
      <g>
       <use style="stroke:#000000;stroke-width:0.8;" x="30.410156" xlink:href="#mfd1a6142f9" y="102.626503"/>
      </g>
     </g>
     <g id="text_15">
      <!-- −2 -->
      <g transform="translate(16.039063 104.526113)scale(0.05 -0.05)">
       <defs>
        <path d="M 10.59375 35.5 
L 73.1875 35.5 
L 73.1875 27.203125 
L 10.59375 27.203125 
z
" id="DejaVuSans-8722"/>
       </defs>
       <use xlink:href="#DejaVuSans-8722"/>
       <use x="83.789062" xlink:href="#DejaVuSans-50"/>
      </g>
     </g>
    </g>
    <g id="ytick_2">
     <g id="line2d_15">
      <g>
       <use style="stroke:#000000;stroke-width:0.8;" x="30.410156" xlink:href="#mfd1a6142f9" y="89.004817"/>
      </g>
     </g>
     <g id="text_16">
      <!-- −1 -->
      <g transform="translate(16.039063 90.904426)scale(0.05 -0.05)">
       <use xlink:href="#DejaVuSans-8722"/>
       <use x="83.789062" xlink:href="#DejaVuSans-49"/>
      </g>
     </g>
    </g>
    <g id="ytick_3">
     <g id="line2d_16">
      <g>
       <use style="stroke:#000000;stroke-width:0.8;" x="30.410156" xlink:href="#mfd1a6142f9" y="75.383131"/>
      </g>
     </g>
     <g id="text_17">
      <!-- 0 -->
      <g transform="translate(20.228906 77.28274)scale(0.05 -0.05)">
       <use xlink:href="#DejaVuSans-48"/>
      </g>
     </g>
    </g>
    <g id="ytick_4">
     <g id="line2d_17">
      <g>
       <use style="stroke:#000000;stroke-width:0.8;" x="30.410156" xlink:href="#mfd1a6142f9" y="61.761445"/>
      </g>
     </g>
     <g id="text_18">
      <!-- 1 -->
      <g transform="translate(20.228906 63.661054)scale(0.05 -0.05)">
       <use xlink:href="#DejaVuSans-49"/>
      </g>
     </g>
    </g>
    <g id="ytick_5">
     <g id="line2d_18">
      <g>
       <use style="stroke:#000000;stroke-width:0.8;" x="30.410156" xlink:href="#mfd1a6142f9" y="48.139759"/>
      </g>
     </g>
     <g id="text_19">
      <!-- 2 -->
      <g transform="translate(20.228906 50.039368)scale(0.05 -0.05)">
       <use xlink:href="#DejaVuSans-50"/>
      </g>
     </g>
    </g>
    <g id="ytick_6">
     <g id="line2d_19">
      <g>
       <use style="stroke:#000000;stroke-width:0.8;" x="30.410156" xlink:href="#mfd1a6142f9" y="34.518072"/>
      </g>
     </g>
     <g id="text_20">
      <!-- 3 -->
      <g transform="translate(20.228906 36.417682)scale(0.05 -0.05)">
       <use xlink:href="#DejaVuSans-51"/>
      </g>
     </g>
    </g>
    <g id="ytick_7">
     <g id="line2d_20">
      <g>
       <use style="stroke:#000000;stroke-width:0.8;" x="30.410156" xlink:href="#mfd1a6142f9" y="20.896386"/>
      </g>
     </g>
     <g id="text_21">
      <!-- 4 -->
      <g transform="translate(20.228906 22.795996)scale(0.05 -0.05)">
       <use xlink:href="#DejaVuSans-52"/>
      </g>
     </g>
    </g>
    <g id="text_22">
     <!-- Substition Rate (subs/site) -->
     <g transform="translate(10.999219 95.852125)rotate(-90)scale(0.05 -0.05)">
      <defs>
       <path d="M 53.515625 70.515625 
L 53.515625 60.890625 
Q 47.90625 63.578125 42.921875 64.890625 
Q 37.9375 66.21875 33.296875 66.21875 
Q 25.25 66.21875 20.875 63.09375 
Q 16.5 59.96875 16.5 54.203125 
Q 16.5 49.359375 19.40625 46.890625 
Q 22.3125 44.4375 30.421875 42.921875 
L 36.375 41.703125 
Q 47.40625 39.59375 52.65625 34.296875 
Q 57.90625 29 57.90625 20.125 
Q 57.90625 9.515625 50.796875 4.046875 
Q 43.703125 -1.421875 29.984375 -1.421875 
Q 24.8125 -1.421875 18.96875 -0.25 
Q 13.140625 0.921875 6.890625 3.21875 
L 6.890625 13.375 
Q 12.890625 10.015625 18.65625 8.296875 
Q 24.421875 6.59375 29.984375 6.59375 
Q 38.421875 6.59375 43.015625 9.90625 
Q 47.609375 13.234375 47.609375 19.390625 
Q 47.609375 24.75 44.3125 27.78125 
Q 41.015625 30.8125 33.5 32.328125 
L 27.484375 33.5 
Q 16.453125 35.6875 11.515625 40.375 
Q 6.59375 45.0625 6.59375 53.421875 
Q 6.59375 63.09375 13.40625 68.65625 
Q 20.21875 74.21875 32.171875 74.21875 
Q 37.3125 74.21875 42.625 73.28125 
Q 47.953125 72.359375 53.515625 70.515625 
z
" id="DejaVuSans-83"/>
       <path d="M 8.5 21.578125 
L 8.5 54.6875 
L 17.484375 54.6875 
L 17.484375 21.921875 
Q 17.484375 14.15625 20.5 10.265625 
Q 23.53125 6.390625 29.59375 6.390625 
Q 36.859375 6.390625 41.078125 11.03125 
Q 45.3125 15.671875 45.3125 23.6875 
L 45.3125 54.6875 
L 54.296875 54.6875 
L 54.296875 0 
L 45.3125 0 
L 45.3125 8.40625 
Q 42.046875 3.421875 37.71875 1 
Q 33.40625 -1.421875 27.6875 -1.421875 
Q 18.265625 -1.421875 13.375 4.4375 
Q 8.5 10.296875 8.5 21.578125 
z
M 31.109375 56 
z
" id="DejaVuSans-117"/>
       <path d="M 48.6875 27.296875 
Q 48.6875 37.203125 44.609375 42.84375 
Q 40.53125 48.484375 33.40625 48.484375 
Q 26.265625 48.484375 22.1875 42.84375 
Q 18.109375 37.203125 18.109375 27.296875 
Q 18.109375 17.390625 22.1875 11.75 
Q 26.265625 6.109375 33.40625 6.109375 
Q 40.53125 6.109375 44.609375 11.75 
Q 48.6875 17.390625 48.6875 27.296875 
z
M 18.109375 46.390625 
Q 20.953125 51.265625 25.265625 53.625 
Q 29.59375 56 35.59375 56 
Q 45.5625 56 51.78125 48.09375 
Q 58.015625 40.1875 58.015625 27.296875 
Q 58.015625 14.40625 51.78125 6.484375 
Q 45.5625 -1.421875 35.59375 -1.421875 
Q 29.59375 -1.421875 25.265625 0.953125 
Q 20.953125 3.328125 18.109375 8.203125 
L 18.109375 0 
L 9.078125 0 
L 9.078125 75.984375 
L 18.109375 75.984375 
z
" id="DejaVuSans-98"/>
       <path d="M 44.28125 53.078125 
L 44.28125 44.578125 
Q 40.484375 46.53125 36.375 47.5 
Q 32.28125 48.484375 27.875 48.484375 
Q 21.1875 48.484375 17.84375 46.4375 
Q 14.5 44.390625 14.5 40.28125 
Q 14.5 37.15625 16.890625 35.375 
Q 19.28125 33.59375 26.515625 31.984375 
L 29.59375 31.296875 
Q 39.15625 29.25 43.1875 25.515625 
Q 47.21875 21.78125 47.21875 15.09375 
Q 47.21875 7.46875 41.1875 3.015625 
Q 35.15625 -1.421875 24.609375 -1.421875 
Q 20.21875 -1.421875 15.453125 -0.5625 
Q 10.6875 0.296875 5.421875 2 
L 5.421875 11.28125 
Q 10.40625 8.6875 15.234375 7.390625 
Q 20.0625 6.109375 24.8125 6.109375 
Q 31.15625 6.109375 34.5625 8.28125 
Q 37.984375 10.453125 37.984375 14.40625 
Q 37.984375 18.0625 35.515625 20.015625 
Q 33.0625 21.96875 24.703125 23.78125 
L 21.578125 24.515625 
Q 13.234375 26.265625 9.515625 29.90625 
Q 5.8125 33.546875 5.8125 39.890625 
Q 5.8125 47.609375 11.28125 51.796875 
Q 16.75 56 26.8125 56 
Q 31.78125 56 36.171875 55.265625 
Q 40.578125 54.546875 44.28125 53.078125 
z
" id="DejaVuSans-115"/>
       <path d="M 18.3125 70.21875 
L 18.3125 54.6875 
L 36.8125 54.6875 
L 36.8125 47.703125 
L 18.3125 47.703125 
L 18.3125 18.015625 
Q 18.3125 11.328125 20.140625 9.421875 
Q 21.96875 7.515625 27.59375 7.515625 
L 36.8125 7.515625 
L 36.8125 0 
L 27.59375 0 
Q 17.1875 0 13.234375 3.875 
Q 9.28125 7.765625 9.28125 18.015625 
L 9.28125 47.703125 
L 2.6875 47.703125 
L 2.6875 54.6875 
L 9.28125 54.6875 
L 9.28125 70.21875 
z
" id="DejaVuSans-116"/>
       <path d="M 9.421875 54.6875 
L 18.40625 54.6875 
L 18.40625 0 
L 9.421875 0 
z
M 9.421875 75.984375 
L 18.40625 75.984375 
L 18.40625 64.59375 
L 9.421875 64.59375 
z
" id="DejaVuSans-105"/>
       <path d="M 30.609375 48.390625 
Q 23.390625 48.390625 19.1875 42.75 
Q 14.984375 37.109375 14.984375 27.296875 
Q 14.984375 17.484375 19.15625 11.84375 
Q 23.34375 6.203125 30.609375 6.203125 
Q 37.796875 6.203125 41.984375 11.859375 
Q 46.1875 17.53125 46.1875 27.296875 
Q 46.1875 37.015625 41.984375 42.703125 
Q 37.796875 48.390625 30.609375 48.390625 
z
M 30.609375 56 
Q 42.328125 56 49.015625 48.375 
Q 55.71875 40.765625 55.71875 27.296875 
Q 55.71875 13.875 49.015625 6.21875 
Q 42.328125 -1.421875 30.609375 -1.421875 
Q 18.84375 -1.421875 12.171875 6.21875 
Q 5.515625 13.875 5.515625 27.296875 
Q 5.515625 40.765625 12.171875 48.375 
Q 18.84375 56 30.609375 56 
z
" id="DejaVuSans-111"/>
       <path d="M 54.890625 33.015625 
L 54.890625 0 
L 45.90625 0 
L 45.90625 32.71875 
Q 45.90625 40.484375 42.875 44.328125 
Q 39.84375 48.1875 33.796875 48.1875 
Q 26.515625 48.1875 22.3125 43.546875 
Q 18.109375 38.921875 18.109375 30.90625 
L 18.109375 0 
L 9.078125 0 
L 9.078125 54.6875 
L 18.109375 54.6875 
L 18.109375 46.1875 
Q 21.34375 51.125 25.703125 53.5625 
Q 30.078125 56 35.796875 56 
Q 45.21875 56 50.046875 50.171875 
Q 54.890625 44.34375 54.890625 33.015625 
z
" id="DejaVuSans-110"/>
       <path id="DejaVuSans-32"/>
       <path d="M 31 75.875 
Q 24.46875 64.65625 21.28125 53.65625 
Q 18.109375 42.671875 18.109375 31.390625 
Q 18.109375 20.125 21.3125 9.0625 
Q 24.515625 -2 31 -13.1875 
L 23.1875 -13.1875 
Q 15.875 -1.703125 12.234375 9.375 
Q 8.59375 20.453125 8.59375 31.390625 
Q 8.59375 42.28125 12.203125 53.3125 
Q 15.828125 64.359375 23.1875 75.875 
z
" id="DejaVuSans-40"/>
       <path d="M 25.390625 72.90625 
L 33.6875 72.90625 
L 8.296875 -9.28125 
L 0 -9.28125 
z
" id="DejaVuSans-47"/>
       <path d="M 8.015625 75.875 
L 15.828125 75.875 
Q 23.140625 64.359375 26.78125 53.3125 
Q 30.421875 42.28125 30.421875 31.390625 
Q 30.421875 20.453125 26.78125 9.375 
Q 23.140625 -1.703125 15.828125 -13.1875 
L 8.015625 -13.1875 
Q 14.5 -2 17.703125 9.0625 
Q 20.90625 20.125 20.90625 31.390625 
Q 20.90625 42.671875 17.703125 53.65625 
Q 14.5 64.65625 8.015625 75.875 
z
" id="DejaVuSans-41"/>
      </defs>
      <use xlink:href="#DejaVuSans-83"/>
      <use x="63.476562" xlink:href="#DejaVuSans-117"/>
      <use x="126.855469" xlink:href="#DejaVuSans-98"/>
      <use x="190.332031" xlink:href="#DejaVuSans-115"/>
      <use x="242.431641" xlink:href="#DejaVuSans-116"/>
      <use x="281.640625" xlink:href="#DejaVuSans-105"/>
      <use x="309.423828" xlink:href="#DejaVuSans-116"/>
      <use x="348.632812" xlink:href="#DejaVuSans-105"/>
      <use x="376.416016" xlink:href="#DejaVuSans-111"/>
      <use x="437.597656" xlink:href="#DejaVuSans-110"/>
      <use x="500.976562" xlink:href="#DejaVuSans-32"/>
      <use x="532.763672" xlink:href="#DejaVuSans-82"/>
      <use x="599.996094" xlink:href="#DejaVuSans-97"/>
      <use x="661.275391" xlink:href="#DejaVuSans-116"/>
      <use x="700.484375" xlink:href="#DejaVuSans-101"/>
      <use x="762.007812" xlink:href="#DejaVuSans-32"/>
      <use x="793.794922" xlink:href="#DejaVuSans-40"/>
      <use x="832.808594" xlink:href="#DejaVuSans-115"/>
      <use x="884.908203" xlink:href="#DejaVuSans-117"/>
      <use x="948.287109" xlink:href="#DejaVuSans-98"/>
      <use x="1011.763672" xlink:href="#DejaVuSans-115"/>
      <use x="1063.863281" xlink:href="#DejaVuSans-47"/>
      <use x="1097.554688" xlink:href="#DejaVuSans-115"/>
      <use x="1149.654297" xlink:href="#DejaVuSans-105"/>
      <use x="1177.4375" xlink:href="#DejaVuSans-116"/>
      <use x="1216.646484" xlink:href="#DejaVuSans-101"/>
      <use x="1278.169922" xlink:href="#DejaVuSans-41"/>
     </g>
    </g>
    <g id="text_23">
     <!-- 1e−7 -->
     <g transform="translate(30.410156 10.999219)scale(0.05 -0.05)">
      <defs>
       <path d="M 8.203125 72.90625 
L 55.078125 72.90625 
L 55.078125 68.703125 
L 28.609375 0 
L 18.3125 0 
L 43.21875 64.59375 
L 8.203125 64.59375 
z
" id="DejaVuSans-55"/>
      </defs>
      <use xlink:href="#DejaVuSans-49"/>
      <use x="63.623047" xlink:href="#DejaVuSans-101"/>
      <use x="125.146484" xlink:href="#DejaVuSans-8722"/>
      <use x="208.935547" xlink:href="#DejaVuSans-55"/>
     </g>
    </g>
   </g>
   <g id="line2d_21">
    <path clip-path="url(#pb3b6029d58)" d="M 44.145541 66.384139 
L 44.145541 67.236123 
" style="fill:none;stroke:#4c4c4c;stroke-linecap:square;stroke-width:0.5;"/>
   </g>
   <g id="line2d_22">
    <path clip-path="url(#pb3b6029d58)" d="M 44.145541 64.680171 
L 44.145541 63.828187 
" style="fill:none;stroke:#4c4c4c;stroke-linecap:square;stroke-width:0.5;"/>
   </g>
   <g id="line2d_23">
    <path clip-path="url(#pb3b6029d58)" d="M 38.994772 67.236123 
L 49.29631 67.236123 
" style="fill:none;stroke:#4c4c4c;stroke-linecap:square;stroke-width:0.5;"/>
   </g>
   <g id="line2d_24">
    <path clip-path="url(#pb3b6029d58)" d="M 38.994772 63.828187 
L 49.29631 63.828187 
" style="fill:none;stroke:#4c4c4c;stroke-linecap:square;stroke-width:0.5;"/>
   </g>
   <g id="line2d_25"/>
   <g id="line2d_26">
    <path clip-path="url(#pb3b6029d58)" d="M 71.61631 67.313512 
L 71.61631 83.602398 
" style="fill:none;stroke:#4c4c4c;stroke-linecap:square;stroke-width:0.5;"/>
   </g>
   <g id="line2d_27">
    <path clip-path="url(#pb3b6029d58)" d="M 71.61631 34.735741 
L 71.61631 18.446855 
" style="fill:none;stroke:#4c4c4c;stroke-linecap:square;stroke-width:0.5;"/>
   </g>
   <g id="line2d_28">
    <path clip-path="url(#pb3b6029d58)" d="M 66.465541 83.602398 
L 76.767079 83.602398 
" style="fill:none;stroke:#4c4c4c;stroke-linecap:square;stroke-width:0.5;"/>
   </g>
   <g id="line2d_29">
    <path clip-path="url(#pb3b6029d58)" d="M 66.465541 18.446855 
L 76.767079 18.446855 
" style="fill:none;stroke:#4c4c4c;stroke-linecap:square;stroke-width:0.5;"/>
   </g>
   <g id="line2d_30"/>
   <g id="line2d_31">
    <path clip-path="url(#pb3b6029d58)" d="M 99.087079 81.495014 
L 99.087079 85.393674 
" style="fill:none;stroke:#4c4c4c;stroke-linecap:square;stroke-width:0.5;"/>
   </g>
   <g id="line2d_32">
    <path clip-path="url(#pb3b6029d58)" d="M 99.087079 73.697695 
L 99.087079 69.799036 
" style="fill:none;stroke:#4c4c4c;stroke-linecap:square;stroke-width:0.5;"/>
   </g>
   <g id="line2d_33">
    <path clip-path="url(#pb3b6029d58)" d="M 93.93631 85.393674 
L 104.237849 85.393674 
" style="fill:none;stroke:#4c4c4c;stroke-linecap:square;stroke-width:0.5;"/>
   </g>
   <g id="line2d_34">
    <path clip-path="url(#pb3b6029d58)" d="M 93.93631 69.799036 
L 104.237849 69.799036 
" style="fill:none;stroke:#4c4c4c;stroke-linecap:square;stroke-width:0.5;"/>
   </g>
   <g id="line2d_35"/>
   <g id="line2d_36">
    <path clip-path="url(#pb3b6029d58)" d="M 126.557849 72.555334 
L 126.557849 73.135095 
" style="fill:none;stroke:#4c4c4c;stroke-linecap:square;stroke-width:0.5;"/>
   </g>
   <g id="line2d_37">
    <path clip-path="url(#pb3b6029d58)" d="M 126.557849 71.395814 
L 126.557849 70.816054 
" style="fill:none;stroke:#4c4c4c;stroke-linecap:square;stroke-width:0.5;"/>
   </g>
   <g id="line2d_38">
    <path clip-path="url(#pb3b6029d58)" d="M 121.407079 73.135095 
L 131.708618 73.135095 
" style="fill:none;stroke:#4c4c4c;stroke-linecap:square;stroke-width:0.5;"/>
   </g>
   <g id="line2d_39">
    <path clip-path="url(#pb3b6029d58)" d="M 121.407079 70.816054 
L 131.708618 70.816054 
" style="fill:none;stroke:#4c4c4c;stroke-linecap:square;stroke-width:0.5;"/>
   </g>
   <g id="line2d_40"/>
   <g id="line2d_41">
    <path clip-path="url(#pb3b6029d58)" d="M 154.028618 74.580247 
L 154.028618 78.82108 
" style="fill:none;stroke:#4c4c4c;stroke-linecap:square;stroke-width:0.5;"/>
   </g>
   <g id="line2d_42">
    <path clip-path="url(#pb3b6029d58)" d="M 154.028618 66.098581 
L 154.028618 61.857749 
" style="fill:none;stroke:#4c4c4c;stroke-linecap:square;stroke-width:0.5;"/>
   </g>
   <g id="line2d_43">
    <path clip-path="url(#pb3b6029d58)" d="M 148.877849 78.82108 
L 159.179387 78.82108 
" style="fill:none;stroke:#4c4c4c;stroke-linecap:square;stroke-width:0.5;"/>
   </g>
   <g id="line2d_44">
    <path clip-path="url(#pb3b6029d58)" d="M 148.877849 61.857749 
L 159.179387 61.857749 
" style="fill:none;stroke:#4c4c4c;stroke-linecap:square;stroke-width:0.5;"/>
   </g>
   <g id="line2d_45"/>
   <g id="line2d_46">
    <path clip-path="url(#pb3b6029d58)" d="M 181.499387 80.447867 
L 181.499387 84.898671 
" style="fill:none;stroke:#4c4c4c;stroke-linecap:square;stroke-width:0.5;"/>
   </g>
   <g id="line2d_47">
    <path clip-path="url(#pb3b6029d58)" d="M 181.499387 71.54626 
L 181.499387 67.095456 
" style="fill:none;stroke:#4c4c4c;stroke-linecap:square;stroke-width:0.5;"/>
   </g>
   <g id="line2d_48">
    <path clip-path="url(#pb3b6029d58)" d="M 176.348618 84.898671 
L 186.650156 84.898671 
" style="fill:none;stroke:#4c4c4c;stroke-linecap:square;stroke-width:0.5;"/>
   </g>
   <g id="line2d_49">
    <path clip-path="url(#pb3b6029d58)" d="M 176.348618 67.095456 
L 186.650156 67.095456 
" style="fill:none;stroke:#4c4c4c;stroke-linecap:square;stroke-width:0.5;"/>
   </g>
   <g id="line2d_50"/>
   <g id="line2d_51">
    <path clip-path="url(#pb3b6029d58)" d="M 208.970156 100.574363 
L 208.970156 107.399582 
" style="fill:none;stroke:#4c4c4c;stroke-linecap:square;stroke-width:0.5;"/>
   </g>
   <g id="line2d_52">
    <path clip-path="url(#pb3b6029d58)" d="M 208.970156 86.923923 
L 208.970156 80.098704 
" style="fill:none;stroke:#4c4c4c;stroke-linecap:square;stroke-width:0.5;"/>
   </g>
   <g id="line2d_53">
    <path clip-path="url(#pb3b6029d58)" d="M 203.819387 107.399582 
L 214.120925 107.399582 
" style="fill:none;stroke:#4c4c4c;stroke-linecap:square;stroke-width:0.5;"/>
   </g>
   <g id="line2d_54">
    <path clip-path="url(#pb3b6029d58)" d="M 203.819387 80.098704 
L 214.120925 80.098704 
" style="fill:none;stroke:#4c4c4c;stroke-linecap:square;stroke-width:0.5;"/>
   </g>
   <g id="line2d_55"/>
   <g id="line2d_56">
    <path clip-path="url(#pb3b6029d58)" d="M 236.440925 90.932645 
L 236.440925 96.705574 
" style="fill:none;stroke:#4c4c4c;stroke-linecap:square;stroke-width:0.5;"/>
   </g>
   <g id="line2d_57">
    <path clip-path="url(#pb3b6029d58)" d="M 236.440925 79.386787 
L 236.440925 73.613858 
" style="fill:none;stroke:#4c4c4c;stroke-linecap:square;stroke-width:0.5;"/>
   </g>
   <g id="line2d_58">
    <path clip-path="url(#pb3b6029d58)" d="M 231.290156 96.705574 
L 241.591695 96.705574 
" style="fill:none;stroke:#4c4c4c;stroke-linecap:square;stroke-width:0.5;"/>
   </g>
   <g id="line2d_59">
    <path clip-path="url(#pb3b6029d58)" d="M 231.290156 73.613858 
L 241.591695 73.613858 
" style="fill:none;stroke:#4c4c4c;stroke-linecap:square;stroke-width:0.5;"/>
   </g>
   <g id="line2d_60"/>
   <g id="line2d_61">
    <path clip-path="url(#pb3b6029d58)" d="M 263.911695 67.240666 
L 263.911695 67.866986 
" style="fill:none;stroke:#4c4c4c;stroke-linecap:square;stroke-width:0.5;"/>
   </g>
   <g id="line2d_62">
    <path clip-path="url(#pb3b6029d58)" d="M 263.911695 65.988028 
L 263.911695 65.361709 
" style="fill:none;stroke:#4c4c4c;stroke-linecap:square;stroke-width:0.5;"/>
   </g>
   <g id="line2d_63">
    <path clip-path="url(#pb3b6029d58)" d="M 258.760925 67.866986 
L 269.062464 67.866986 
" style="fill:none;stroke:#4c4c4c;stroke-linecap:square;stroke-width:0.5;"/>
   </g>
   <g id="line2d_64">
    <path clip-path="url(#pb3b6029d58)" d="M 258.760925 65.361709 
L 269.062464 65.361709 
" style="fill:none;stroke:#4c4c4c;stroke-linecap:square;stroke-width:0.5;"/>
   </g>
   <g id="line2d_65"/>
   <g id="line2d_66">
    <path clip-path="url(#pb3b6029d58)" d="M 291.382464 69.793591 
L 291.382464 72.453841 
" style="fill:none;stroke:#4c4c4c;stroke-linecap:square;stroke-width:0.5;"/>
   </g>
   <g id="line2d_67">
    <path clip-path="url(#pb3b6029d58)" d="M 291.382464 64.473091 
L 291.382464 61.812841 
" style="fill:none;stroke:#4c4c4c;stroke-linecap:square;stroke-width:0.5;"/>
   </g>
   <g id="line2d_68">
    <path clip-path="url(#pb3b6029d58)" d="M 286.231695 72.453841 
L 296.533233 72.453841 
" style="fill:none;stroke:#4c4c4c;stroke-linecap:square;stroke-width:0.5;"/>
   </g>
   <g id="line2d_69">
    <path clip-path="url(#pb3b6029d58)" d="M 286.231695 61.812841 
L 296.533233 61.812841 
" style="fill:none;stroke:#4c4c4c;stroke-linecap:square;stroke-width:0.5;"/>
   </g>
   <g id="line2d_70"/>
   <g id="line2d_71">
    <path clip-path="url(#pb3b6029d58)" d="M 318.853233 74.335672 
L 318.853233 79.320015 
" style="fill:none;stroke:#4c4c4c;stroke-linecap:square;stroke-width:0.5;"/>
   </g>
   <g id="line2d_72">
    <path clip-path="url(#pb3b6029d58)" d="M 318.853233 64.366986 
L 318.853233 59.382643 
" style="fill:none;stroke:#4c4c4c;stroke-linecap:square;stroke-width:0.5;"/>
   </g>
   <g id="line2d_73">
    <path clip-path="url(#pb3b6029d58)" d="M 313.702464 79.320015 
L 324.004002 79.320015 
" style="fill:none;stroke:#4c4c4c;stroke-linecap:square;stroke-width:0.5;"/>
   </g>
   <g id="line2d_74">
    <path clip-path="url(#pb3b6029d58)" d="M 313.702464 59.382643 
L 324.004002 59.382643 
" style="fill:none;stroke:#4c4c4c;stroke-linecap:square;stroke-width:0.5;"/>
   </g>
   <g id="line2d_75"/>
   <g id="line2d_76">
    <path clip-path="url(#pb3b6029d58)" d="M 346.324002 73.20006 
L 346.324002 74.320717 
" style="fill:none;stroke:#4c4c4c;stroke-linecap:square;stroke-width:0.5;"/>
   </g>
   <g id="line2d_77">
    <path clip-path="url(#pb3b6029d58)" d="M 346.324002 70.958745 
L 346.324002 69.838088 
" style="fill:none;stroke:#4c4c4c;stroke-linecap:square;stroke-width:0.5;"/>
   </g>
   <g id="line2d_78">
    <path clip-path="url(#pb3b6029d58)" d="M 341.173233 74.320717 
L 351.474772 74.320717 
" style="fill:none;stroke:#4c4c4c;stroke-linecap:square;stroke-width:0.5;"/>
   </g>
   <g id="line2d_79">
    <path clip-path="url(#pb3b6029d58)" d="M 341.173233 69.838088 
L 351.474772 69.838088 
" style="fill:none;stroke:#4c4c4c;stroke-linecap:square;stroke-width:0.5;"/>
   </g>
   <g id="line2d_80"/>
   <g id="line2d_81">
    <path clip-path="url(#pb3b6029d58)" d="M 373.794772 74.497173 
L 373.794772 74.608128 
" style="fill:none;stroke:#4c4c4c;stroke-linecap:square;stroke-width:0.5;"/>
   </g>
   <g id="line2d_82">
    <path clip-path="url(#pb3b6029d58)" d="M 373.794772 74.275265 
L 373.794772 74.16431 
" style="fill:none;stroke:#4c4c4c;stroke-linecap:square;stroke-width:0.5;"/>
   </g>
   <g id="line2d_83">
    <path clip-path="url(#pb3b6029d58)" d="M 368.644002 74.608128 
L 378.945541 74.608128 
" style="fill:none;stroke:#4c4c4c;stroke-linecap:square;stroke-width:0.5;"/>
   </g>
   <g id="line2d_84">
    <path clip-path="url(#pb3b6029d58)" d="M 368.644002 74.16431 
L 378.945541 74.16431 
" style="fill:none;stroke:#4c4c4c;stroke-linecap:square;stroke-width:0.5;"/>
   </g>
   <g id="line2d_85"/>
   <g id="line2d_86">
    <path clip-path="url(#pb3b6029d58)" d="M 33.844002 65.532155 
L 54.447079 65.532155 
" style="fill:none;stroke:#4c4c4c;stroke-linecap:square;stroke-width:0.5;"/>
   </g>
   <g id="line2d_87">
    <path clip-path="url(#pb3b6029d58)" d="M 61.314772 51.024627 
L 81.917849 51.024627 
" style="fill:none;stroke:#4c4c4c;stroke-linecap:square;stroke-width:0.5;"/>
   </g>
   <g id="line2d_88">
    <path clip-path="url(#pb3b6029d58)" d="M 88.785541 77.596355 
L 109.388618 77.596355 
" style="fill:none;stroke:#4c4c4c;stroke-linecap:square;stroke-width:0.5;"/>
   </g>
   <g id="line2d_89">
    <path clip-path="url(#pb3b6029d58)" d="M 116.25631 71.975574 
L 136.859387 71.975574 
" style="fill:none;stroke:#4c4c4c;stroke-linecap:square;stroke-width:0.5;"/>
   </g>
   <g id="line2d_90">
    <path clip-path="url(#pb3b6029d58)" d="M 143.727079 70.339414 
L 164.330156 70.339414 
" style="fill:none;stroke:#4c4c4c;stroke-linecap:square;stroke-width:0.5;"/>
   </g>
   <g id="line2d_91">
    <path clip-path="url(#pb3b6029d58)" d="M 171.197849 75.997064 
L 191.800925 75.997064 
" style="fill:none;stroke:#4c4c4c;stroke-linecap:square;stroke-width:0.5;"/>
   </g>
   <g id="line2d_92">
    <path clip-path="url(#pb3b6029d58)" d="M 198.668618 93.749143 
L 219.271695 93.749143 
" style="fill:none;stroke:#4c4c4c;stroke-linecap:square;stroke-width:0.5;"/>
   </g>
   <g id="line2d_93">
    <path clip-path="url(#pb3b6029d58)" d="M 226.139387 85.159716 
L 246.742464 85.159716 
" style="fill:none;stroke:#4c4c4c;stroke-linecap:square;stroke-width:0.5;"/>
   </g>
   <g id="line2d_94">
    <path clip-path="url(#pb3b6029d58)" d="M 253.610156 66.614347 
L 274.213233 66.614347 
" style="fill:none;stroke:#4c4c4c;stroke-linecap:square;stroke-width:0.5;"/>
   </g>
   <g id="line2d_95">
    <path clip-path="url(#pb3b6029d58)" d="M 281.080925 67.133341 
L 301.684002 67.133341 
" style="fill:none;stroke:#4c4c4c;stroke-linecap:square;stroke-width:0.5;"/>
   </g>
   <g id="line2d_96">
    <path clip-path="url(#pb3b6029d58)" d="M 308.551695 69.351329 
L 329.154772 69.351329 
" style="fill:none;stroke:#4c4c4c;stroke-linecap:square;stroke-width:0.5;"/>
   </g>
   <g id="line2d_97">
    <path clip-path="url(#pb3b6029d58)" d="M 336.022464 72.079402 
L 356.625541 72.079402 
" style="fill:none;stroke:#4c4c4c;stroke-linecap:square;stroke-width:0.5;"/>
   </g>
   <g id="line2d_98">
    <path clip-path="url(#pb3b6029d58)" d="M 363.493233 74.386219 
L 384.09631 74.386219 
" style="fill:none;stroke:#4c4c4c;stroke-linecap:square;stroke-width:0.5;"/>
   </g>
   <g id="patch_16">
    <path d="M 30.410156 111.847219 
L 30.410156 13.999219 
" style="fill:none;stroke:#000000;stroke-linecap:square;stroke-linejoin:miter;stroke-width:0.5;"/>
   </g>
   <g id="patch_17">
    <path d="M 387.530156 111.847219 
L 387.530156 13.999219 
" style="fill:none;stroke:#000000;stroke-linecap:square;stroke-linejoin:miter;stroke-width:0.5;"/>
   </g>
   <g id="patch_18">
    <path d="M 30.410156 111.847219 
L 387.530156 111.847219 
" style="fill:none;stroke:#000000;stroke-linecap:square;stroke-linejoin:miter;stroke-width:0.5;"/>
   </g>
   <g id="patch_19">
    <path d="M 30.410156 13.999219 
L 387.530156 13.999219 
" style="fill:none;stroke:#000000;stroke-linecap:square;stroke-linejoin:miter;stroke-width:0.5;"/>
   </g>
  </g>
 </g>
 <defs>
  <clipPath id="pb3b6029d58">
   <rect height="97.848" width="357.12" x="30.410156" y="13.999219"/>
  </clipPath>
 </defs>
</svg>
