<?xml version="1.0" encoding="utf-8" standalone="no"?>
<!DOCTYPE svg PUBLIC "-//W3C//DTD SVG 1.1//EN"
  "http://www.w3.org/Graphics/SVG/1.1/DTD/svg11.dtd">
<!-- Created with matplotlib (https://matplotlib.org/) -->
<svg height="134.048886pt" version="1.1" viewBox="0 0 407.455156 134.048886" width="407.455156pt" xmlns="http://www.w3.org/2000/svg" xmlns:xlink="http://www.w3.org/1999/xlink">
 <metadata>
  <rdf:RDF xmlns:cc="http://creativecommons.org/ns#" xmlns:dc="http://purl.org/dc/elements/1.1/" xmlns:rdf="http://www.w3.org/1999/02/22-rdf-syntax-ns#">
   <cc:Work>
    <dc:type rdf:resource="http://purl.org/dc/dcmitype/StillImage"/>
    <dc:date>2021-05-13T12:21:18.269984</dc:date>
    <dc:format>image/svg+xml</dc:format>
    <dc:creator>
     <cc:Agent>
      <dc:title>Matplotlib v3.3.2, https://matplotlib.org/</dc:title>
     </cc:Agent>
    </dc:creator>
   </cc:Work>
  </rdf:RDF>
 </metadata>
 <defs>
  <style type="text/css">*{stroke-linecap:butt;stroke-linejoin:round;}</style>
 </defs>
 <g id="figure_1">
  <g id="patch_1">
   <path d="M -0 134.048886 
L 407.455156 134.048886 
L 407.455156 0 
L -0 0 
z
" style="fill:none;"/>
  </g>
  <g id="axes_1">
   <g id="patch_2">
    <path d="M 43.135156 106.170761 
L 400.255156 106.170761 
L 400.255156 8.322761 
L 43.135156 8.322761 
z
" style="fill:#ffffff;"/>
   </g>
   <g id="patch_3">
    <path clip-path="url(#pad47e11092)" d="M 46.569002 54.356014 
L 67.172079 54.356014 
L 67.172079 53.617004 
L 46.569002 53.617004 
L 46.569002 54.356014 
z
" style="fill:#8020df;stroke:#4c4c4c;stroke-linejoin:miter;stroke-width:0.5;"/>
   </g>
   <g id="patch_4">
    <path clip-path="url(#pad47e11092)" d="M 74.039772 18.033685 
L 94.642849 18.033685 
L 94.642849 18.033685 
L 74.039772 18.033685 
L 74.039772 18.033685 
z
" style="fill:#6264e6;stroke:#4c4c4c;stroke-linejoin:miter;stroke-width:0.5;"/>
   </g>
   <g id="patch_5">
    <path clip-path="url(#pad47e11092)" d="M 101.510541 33.717335 
L 122.113618 33.717335 
L 122.113618 22.486214 
L 101.510541 22.486214 
L 101.510541 33.717335 
z
" style="fill:#3492d8;stroke:#4c4c4c;stroke-linejoin:miter;stroke-width:0.5;"/>
   </g>
   <g id="patch_6">
    <path clip-path="url(#pad47e11092)" d="M 128.98131 37.363769 
L 149.584387 37.363769 
L 149.584387 35.669853 
L 128.98131 35.669853 
L 128.98131 37.363769 
z
" style="fill:#3492d8;stroke:#4c4c4c;stroke-linejoin:miter;stroke-width:0.5;"/>
   </g>
   <g id="patch_7">
    <path clip-path="url(#pad47e11092)" d="M 156.452079 24.216694 
L 177.055156 24.216694 
L 177.055156 18.033585 
L 156.452079 18.033585 
L 156.452079 24.216694 
z
" style="fill:#33baca;stroke:#4c4c4c;stroke-linejoin:miter;stroke-width:0.5;"/>
   </g>
   <g id="patch_8">
    <path clip-path="url(#pad47e11092)" d="M 183.922849 23.960548 
L 204.525925 23.960548 
L 204.525925 16.500447 
L 183.922849 16.500447 
L 183.922849 23.960548 
z
" style="fill:#62dec3;stroke:#4c4c4c;stroke-linejoin:miter;stroke-width:0.5;"/>
   </g>
   <g id="patch_9">
    <path clip-path="url(#pad47e11092)" d="M 211.393618 21.402444 
L 231.996695 21.402444 
L 231.996695 21.172499 
L 211.393618 21.172499 
L 211.393618 21.402444 
z
" style="fill:#90efb7;stroke:#4c4c4c;stroke-linejoin:miter;stroke-width:0.5;"/>
   </g>
   <g id="patch_10">
    <path clip-path="url(#pad47e11092)" d="M 238.864387 23.136977 
L 259.467464 23.136977 
L 259.467464 19.012635 
L 238.864387 19.012635 
L 238.864387 23.136977 
z
" style="fill:#b7e7a2;stroke:#4c4c4c;stroke-linejoin:miter;stroke-width:0.5;"/>
   </g>
   <g id="patch_11">
    <path clip-path="url(#pad47e11092)" d="M 266.335156 26.42758 
L 286.938233 26.42758 
L 286.938233 26.228345 
L 266.335156 26.228345 
L 266.335156 26.42758 
z
" style="fill:#d8c682;stroke:#4c4c4c;stroke-linejoin:miter;stroke-width:0.5;"/>
   </g>
   <g id="patch_12">
    <path clip-path="url(#pad47e11092)" d="M 293.805925 25.655539 
L 314.409002 25.655539 
L 314.409002 23.977564 
L 293.805925 23.977564 
L 293.805925 25.655539 
z
" style="fill:#e99a65;stroke:#4c4c4c;stroke-linejoin:miter;stroke-width:0.5;"/>
   </g>
   <g id="patch_13">
    <path clip-path="url(#pad47e11092)" d="M 321.276695 23.431359 
L 341.879772 23.431359 
L 341.879772 21.09049 
L 321.276695 21.09049 
L 321.276695 23.431359 
z
" style="fill:#e46043;stroke:#4c4c4c;stroke-linejoin:miter;stroke-width:0.5;"/>
   </g>
   <g id="patch_14">
    <path clip-path="url(#pad47e11092)" d="M 348.747464 25.078789 
L 369.350541 25.078789 
L 369.350541 25.078789 
L 348.747464 25.078789 
L 348.747464 25.078789 
z
" style="fill:#df2020;stroke:#4c4c4c;stroke-linejoin:miter;stroke-width:0.5;"/>
   </g>
   <g id="patch_15">
    <path clip-path="url(#pad47e11092)" d="M 376.218233 94.592915 
L 396.82131 94.592915 
L 396.82131 80.332497 
L 376.218233 80.332497 
L 376.218233 94.592915 
z
" style="fill:#c4c4c4;stroke:#4c4c4c;stroke-linejoin:miter;stroke-width:0.5;"/>
   </g>
   <g id="matplotlib.axis_1">
    <g id="xtick_1">
     <g id="line2d_1">
      <defs>
       <path d="M 0 0 
L 0 3.5 
" id="m75352eb6cb" style="stroke:#000000;stroke-width:0.8;"/>
      </defs>
      <g>
       <use style="stroke:#000000;stroke-width:0.8;" x="56.870541" xlink:href="#m75352eb6cb" y="106.170761"/>
      </g>
     </g>
     <g id="text_1">
      <!-- 0.PRE -->
      <g transform="translate(49.661166 116.969979)scale(0.05 -0.05)">
       <defs>
        <path d="M 31.78125 66.40625 
Q 24.171875 66.40625 20.328125 58.90625 
Q 16.5 51.421875 16.5 36.375 
Q 16.5 21.390625 20.328125 13.890625 
Q 24.171875 6.390625 31.78125 6.390625 
Q 39.453125 6.390625 43.28125 13.890625 
Q 47.125 21.390625 47.125 36.375 
Q 47.125 51.421875 43.28125 58.90625 
Q 39.453125 66.40625 31.78125 66.40625 
z
M 31.78125 74.21875 
Q 44.046875 74.21875 50.515625 64.515625 
Q 56.984375 54.828125 56.984375 36.375 
Q 56.984375 17.96875 50.515625 8.265625 
Q 44.046875 -1.421875 31.78125 -1.421875 
Q 19.53125 -1.421875 13.0625 8.265625 
Q 6.59375 17.96875 6.59375 36.375 
Q 6.59375 54.828125 13.0625 64.515625 
Q 19.53125 74.21875 31.78125 74.21875 
z
" id="DejaVuSans-48"/>
        <path d="M 10.6875 12.40625 
L 21 12.40625 
L 21 0 
L 10.6875 0 
z
" id="DejaVuSans-46"/>
        <path d="M 19.671875 64.796875 
L 19.671875 37.40625 
L 32.078125 37.40625 
Q 38.96875 37.40625 42.71875 40.96875 
Q 46.484375 44.53125 46.484375 51.125 
Q 46.484375 57.671875 42.71875 61.234375 
Q 38.96875 64.796875 32.078125 64.796875 
z
M 9.8125 72.90625 
L 32.078125 72.90625 
Q 44.34375 72.90625 50.609375 67.359375 
Q 56.890625 61.8125 56.890625 51.125 
Q 56.890625 40.328125 50.609375 34.8125 
Q 44.34375 29.296875 32.078125 29.296875 
L 19.671875 29.296875 
L 19.671875 0 
L 9.8125 0 
z
" id="DejaVuSans-80"/>
        <path d="M 44.390625 34.1875 
Q 47.5625 33.109375 50.5625 29.59375 
Q 53.5625 26.078125 56.59375 19.921875 
L 66.609375 0 
L 56 0 
L 46.6875 18.703125 
Q 43.0625 26.03125 39.671875 28.421875 
Q 36.28125 30.8125 30.421875 30.8125 
L 19.671875 30.8125 
L 19.671875 0 
L 9.8125 0 
L 9.8125 72.90625 
L 32.078125 72.90625 
Q 44.578125 72.90625 50.734375 67.671875 
Q 56.890625 62.453125 56.890625 51.90625 
Q 56.890625 45.015625 53.6875 40.46875 
Q 50.484375 35.9375 44.390625 34.1875 
z
M 19.671875 64.796875 
L 19.671875 38.921875 
L 32.078125 38.921875 
Q 39.203125 38.921875 42.84375 42.21875 
Q 46.484375 45.515625 46.484375 51.90625 
Q 46.484375 58.296875 42.84375 61.546875 
Q 39.203125 64.796875 32.078125 64.796875 
z
" id="DejaVuSans-82"/>
        <path d="M 9.8125 72.90625 
L 55.90625 72.90625 
L 55.90625 64.59375 
L 19.671875 64.59375 
L 19.671875 43.015625 
L 54.390625 43.015625 
L 54.390625 34.71875 
L 19.671875 34.71875 
L 19.671875 8.296875 
L 56.78125 8.296875 
L 56.78125 0 
L 9.8125 0 
z
" id="DejaVuSans-69"/>
       </defs>
       <use xlink:href="#DejaVuSans-48"/>
       <use x="63.623047" xlink:href="#DejaVuSans-46"/>
       <use x="95.410156" xlink:href="#DejaVuSans-80"/>
       <use x="155.712891" xlink:href="#DejaVuSans-82"/>
       <use x="225.195312" xlink:href="#DejaVuSans-69"/>
      </g>
     </g>
    </g>
    <g id="xtick_2">
     <g id="line2d_2">
      <g>
       <use style="stroke:#000000;stroke-width:0.8;" x="84.34131" xlink:href="#m75352eb6cb" y="106.170761"/>
      </g>
     </g>
     <g id="text_2">
      <!-- 0.PE -->
      <g transform="translate(78.869044 116.969979)scale(0.05 -0.05)">
       <use xlink:href="#DejaVuSans-48"/>
       <use x="63.623047" xlink:href="#DejaVuSans-46"/>
       <use x="95.410156" xlink:href="#DejaVuSans-80"/>
       <use x="155.712891" xlink:href="#DejaVuSans-69"/>
      </g>
     </g>
    </g>
    <g id="xtick_3">
     <g id="line2d_3">
      <g>
       <use style="stroke:#000000;stroke-width:0.8;" x="111.812079" xlink:href="#m75352eb6cb" y="106.170761"/>
      </g>
     </g>
     <g id="text_3">
      <!-- 0.ANT -->
      <g transform="translate(104.319501 116.969979)scale(0.05 -0.05)">
       <defs>
        <path d="M 34.1875 63.1875 
L 20.796875 26.90625 
L 47.609375 26.90625 
z
M 28.609375 72.90625 
L 39.796875 72.90625 
L 67.578125 0 
L 57.328125 0 
L 50.6875 18.703125 
L 17.828125 18.703125 
L 11.1875 0 
L 0.78125 0 
z
" id="DejaVuSans-65"/>
        <path d="M 9.8125 72.90625 
L 23.09375 72.90625 
L 55.421875 11.921875 
L 55.421875 72.90625 
L 64.984375 72.90625 
L 64.984375 0 
L 51.703125 0 
L 19.390625 60.984375 
L 19.390625 0 
L 9.8125 0 
z
" id="DejaVuSans-78"/>
        <path d="M -0.296875 72.90625 
L 61.375 72.90625 
L 61.375 64.59375 
L 35.5 64.59375 
L 35.5 0 
L 25.59375 0 
L 25.59375 64.59375 
L -0.296875 64.59375 
z
" id="DejaVuSans-84"/>
       </defs>
       <use xlink:href="#DejaVuSans-48"/>
       <use x="63.623047" xlink:href="#DejaVuSans-46"/>
       <use x="95.410156" xlink:href="#DejaVuSans-65"/>
       <use x="163.818359" xlink:href="#DejaVuSans-78"/>
       <use x="238.623047" xlink:href="#DejaVuSans-84"/>
      </g>
     </g>
    </g>
    <g id="xtick_4">
     <g id="line2d_4">
      <g>
       <use style="stroke:#000000;stroke-width:0.8;" x="139.282849" xlink:href="#m75352eb6cb" y="106.170761"/>
      </g>
     </g>
     <g id="text_4">
      <!-- 0.ANT4 -->
      <g transform="translate(130.199645 116.969979)scale(0.05 -0.05)">
       <defs>
        <path d="M 37.796875 64.3125 
L 12.890625 25.390625 
L 37.796875 25.390625 
z
M 35.203125 72.90625 
L 47.609375 72.90625 
L 47.609375 25.390625 
L 58.015625 25.390625 
L 58.015625 17.1875 
L 47.609375 17.1875 
L 47.609375 0 
L 37.796875 0 
L 37.796875 17.1875 
L 4.890625 17.1875 
L 4.890625 26.703125 
z
" id="DejaVuSans-52"/>
       </defs>
       <use xlink:href="#DejaVuSans-48"/>
       <use x="63.623047" xlink:href="#DejaVuSans-46"/>
       <use x="95.410156" xlink:href="#DejaVuSans-65"/>
       <use x="163.818359" xlink:href="#DejaVuSans-78"/>
       <use x="238.623047" xlink:href="#DejaVuSans-84"/>
       <use x="299.707031" xlink:href="#DejaVuSans-52"/>
      </g>
     </g>
    </g>
    <g id="xtick_5">
     <g id="line2d_5">
      <g>
       <use style="stroke:#000000;stroke-width:0.8;" x="166.753618" xlink:href="#m75352eb6cb" y="106.170761"/>
      </g>
     </g>
     <g id="text_5">
      <!-- 3.ANT -->
      <g transform="translate(159.26104 116.969979)scale(0.05 -0.05)">
       <defs>
        <path d="M 40.578125 39.3125 
Q 47.65625 37.796875 51.625 33 
Q 55.609375 28.21875 55.609375 21.1875 
Q 55.609375 10.40625 48.1875 4.484375 
Q 40.765625 -1.421875 27.09375 -1.421875 
Q 22.515625 -1.421875 17.65625 -0.515625 
Q 12.796875 0.390625 7.625 2.203125 
L 7.625 11.71875 
Q 11.71875 9.328125 16.59375 8.109375 
Q 21.484375 6.890625 26.8125 6.890625 
Q 36.078125 6.890625 40.9375 10.546875 
Q 45.796875 14.203125 45.796875 21.1875 
Q 45.796875 27.640625 41.28125 31.265625 
Q 36.765625 34.90625 28.71875 34.90625 
L 20.21875 34.90625 
L 20.21875 43.015625 
L 29.109375 43.015625 
Q 36.375 43.015625 40.234375 45.921875 
Q 44.09375 48.828125 44.09375 54.296875 
Q 44.09375 59.90625 40.109375 62.90625 
Q 36.140625 65.921875 28.71875 65.921875 
Q 24.65625 65.921875 20.015625 65.03125 
Q 15.375 64.15625 9.8125 62.3125 
L 9.8125 71.09375 
Q 15.4375 72.65625 20.34375 73.4375 
Q 25.25 74.21875 29.59375 74.21875 
Q 40.828125 74.21875 47.359375 69.109375 
Q 53.90625 64.015625 53.90625 55.328125 
Q 53.90625 49.265625 50.4375 45.09375 
Q 46.96875 40.921875 40.578125 39.3125 
z
" id="DejaVuSans-51"/>
       </defs>
       <use xlink:href="#DejaVuSans-51"/>
       <use x="63.623047" xlink:href="#DejaVuSans-46"/>
       <use x="95.410156" xlink:href="#DejaVuSans-65"/>
       <use x="163.818359" xlink:href="#DejaVuSans-78"/>
       <use x="238.623047" xlink:href="#DejaVuSans-84"/>
      </g>
     </g>
    </g>
    <g id="xtick_6">
     <g id="line2d_6">
      <g>
       <use style="stroke:#000000;stroke-width:0.8;" x="194.224387" xlink:href="#m75352eb6cb" y="106.170761"/>
      </g>
     </g>
     <g id="text_6">
      <!-- 4.ANT -->
      <g transform="translate(186.731809 116.969979)scale(0.05 -0.05)">
       <use xlink:href="#DejaVuSans-52"/>
       <use x="63.623047" xlink:href="#DejaVuSans-46"/>
       <use x="95.410156" xlink:href="#DejaVuSans-65"/>
       <use x="163.818359" xlink:href="#DejaVuSans-78"/>
       <use x="238.623047" xlink:href="#DejaVuSans-84"/>
      </g>
     </g>
    </g>
    <g id="xtick_7">
     <g id="line2d_7">
      <g>
       <use style="stroke:#000000;stroke-width:0.8;" x="221.695156" xlink:href="#m75352eb6cb" y="106.170761"/>
      </g>
     </g>
     <g id="text_7">
      <!-- 2.ANT -->
      <g transform="translate(214.202578 116.969979)scale(0.05 -0.05)">
       <defs>
        <path d="M 19.1875 8.296875 
L 53.609375 8.296875 
L 53.609375 0 
L 7.328125 0 
L 7.328125 8.296875 
Q 12.9375 14.109375 22.625 23.890625 
Q 32.328125 33.6875 34.8125 36.53125 
Q 39.546875 41.84375 41.421875 45.53125 
Q 43.3125 49.21875 43.3125 52.78125 
Q 43.3125 58.59375 39.234375 62.25 
Q 35.15625 65.921875 28.609375 65.921875 
Q 23.96875 65.921875 18.8125 64.3125 
Q 13.671875 62.703125 7.8125 59.421875 
L 7.8125 69.390625 
Q 13.765625 71.78125 18.9375 73 
Q 24.125 74.21875 28.421875 74.21875 
Q 39.75 74.21875 46.484375 68.546875 
Q 53.21875 62.890625 53.21875 53.421875 
Q 53.21875 48.921875 51.53125 44.890625 
Q 49.859375 40.875 45.40625 35.40625 
Q 44.1875 33.984375 37.640625 27.21875 
Q 31.109375 20.453125 19.1875 8.296875 
z
" id="DejaVuSans-50"/>
       </defs>
       <use xlink:href="#DejaVuSans-50"/>
       <use x="63.623047" xlink:href="#DejaVuSans-46"/>
       <use x="95.410156" xlink:href="#DejaVuSans-65"/>
       <use x="163.818359" xlink:href="#DejaVuSans-78"/>
       <use x="238.623047" xlink:href="#DejaVuSans-84"/>
      </g>
     </g>
    </g>
    <g id="xtick_8">
     <g id="line2d_8">
      <g>
       <use style="stroke:#000000;stroke-width:0.8;" x="249.165925" xlink:href="#m75352eb6cb" y="106.170761"/>
      </g>
     </g>
     <g id="text_8">
      <!-- 2.MED -->
      <g transform="translate(241.11905 116.969979)scale(0.05 -0.05)">
       <defs>
        <path d="M 9.8125 72.90625 
L 24.515625 72.90625 
L 43.109375 23.296875 
L 61.8125 72.90625 
L 76.515625 72.90625 
L 76.515625 0 
L 66.890625 0 
L 66.890625 64.015625 
L 48.09375 14.015625 
L 38.1875 14.015625 
L 19.390625 64.015625 
L 19.390625 0 
L 9.8125 0 
z
" id="DejaVuSans-77"/>
        <path d="M 19.671875 64.796875 
L 19.671875 8.109375 
L 31.59375 8.109375 
Q 46.6875 8.109375 53.6875 14.9375 
Q 60.6875 21.78125 60.6875 36.53125 
Q 60.6875 51.171875 53.6875 57.984375 
Q 46.6875 64.796875 31.59375 64.796875 
z
M 9.8125 72.90625 
L 30.078125 72.90625 
Q 51.265625 72.90625 61.171875 64.09375 
Q 71.09375 55.28125 71.09375 36.53125 
Q 71.09375 17.671875 61.125 8.828125 
Q 51.171875 0 30.078125 0 
L 9.8125 0 
z
" id="DejaVuSans-68"/>
       </defs>
       <use xlink:href="#DejaVuSans-50"/>
       <use x="63.623047" xlink:href="#DejaVuSans-46"/>
       <use x="95.410156" xlink:href="#DejaVuSans-77"/>
       <use x="181.689453" xlink:href="#DejaVuSans-69"/>
       <use x="244.873047" xlink:href="#DejaVuSans-68"/>
      </g>
     </g>
    </g>
    <g id="xtick_9">
     <g id="line2d_9">
      <g>
       <use style="stroke:#000000;stroke-width:0.8;" x="276.636695" xlink:href="#m75352eb6cb" y="106.170761"/>
      </g>
     </g>
     <g id="text_9">
      <!-- 1.PRE -->
      <g transform="translate(269.42732 116.969979)scale(0.05 -0.05)">
       <defs>
        <path d="M 12.40625 8.296875 
L 28.515625 8.296875 
L 28.515625 63.921875 
L 10.984375 60.40625 
L 10.984375 69.390625 
L 28.421875 72.90625 
L 38.28125 72.90625 
L 38.28125 8.296875 
L 54.390625 8.296875 
L 54.390625 0 
L 12.40625 0 
z
" id="DejaVuSans-49"/>
       </defs>
       <use xlink:href="#DejaVuSans-49"/>
       <use x="63.623047" xlink:href="#DejaVuSans-46"/>
       <use x="95.410156" xlink:href="#DejaVuSans-80"/>
       <use x="155.712891" xlink:href="#DejaVuSans-82"/>
       <use x="225.195312" xlink:href="#DejaVuSans-69"/>
      </g>
     </g>
    </g>
    <g id="xtick_10">
     <g id="line2d_10">
      <g>
       <use style="stroke:#000000;stroke-width:0.8;" x="304.107464" xlink:href="#m75352eb6cb" y="106.170761"/>
      </g>
     </g>
     <g id="text_10">
      <!-- 1.ANT -->
      <g transform="translate(296.614886 116.969979)scale(0.05 -0.05)">
       <use xlink:href="#DejaVuSans-49"/>
       <use x="63.623047" xlink:href="#DejaVuSans-46"/>
       <use x="95.410156" xlink:href="#DejaVuSans-65"/>
       <use x="163.818359" xlink:href="#DejaVuSans-78"/>
       <use x="238.623047" xlink:href="#DejaVuSans-84"/>
      </g>
     </g>
    </g>
    <g id="xtick_11">
     <g id="line2d_11">
      <g>
       <use style="stroke:#000000;stroke-width:0.8;" x="331.578233" xlink:href="#m75352eb6cb" y="106.170761"/>
      </g>
     </g>
     <g id="text_11">
      <!-- 1.IN -->
      <g transform="translate(326.585264 116.969979)scale(0.05 -0.05)">
       <defs>
        <path d="M 9.8125 72.90625 
L 19.671875 72.90625 
L 19.671875 0 
L 9.8125 0 
z
" id="DejaVuSans-73"/>
       </defs>
       <use xlink:href="#DejaVuSans-49"/>
       <use x="63.623047" xlink:href="#DejaVuSans-46"/>
       <use x="95.410156" xlink:href="#DejaVuSans-73"/>
       <use x="124.902344" xlink:href="#DejaVuSans-78"/>
      </g>
     </g>
    </g>
    <g id="xtick_12">
     <g id="line2d_12">
      <g>
       <use style="stroke:#000000;stroke-width:0.8;" x="359.049002" xlink:href="#m75352eb6cb" y="106.170761"/>
      </g>
     </g>
     <g id="text_12">
      <!-- 1.ORI -->
      <g transform="translate(352.221268 116.969979)scale(0.05 -0.05)">
       <defs>
        <path d="M 39.40625 66.21875 
Q 28.65625 66.21875 22.328125 58.203125 
Q 16.015625 50.203125 16.015625 36.375 
Q 16.015625 22.609375 22.328125 14.59375 
Q 28.65625 6.59375 39.40625 6.59375 
Q 50.140625 6.59375 56.421875 14.59375 
Q 62.703125 22.609375 62.703125 36.375 
Q 62.703125 50.203125 56.421875 58.203125 
Q 50.140625 66.21875 39.40625 66.21875 
z
M 39.40625 74.21875 
Q 54.734375 74.21875 63.90625 63.9375 
Q 73.09375 53.65625 73.09375 36.375 
Q 73.09375 19.140625 63.90625 8.859375 
Q 54.734375 -1.421875 39.40625 -1.421875 
Q 24.03125 -1.421875 14.8125 8.828125 
Q 5.609375 19.09375 5.609375 36.375 
Q 5.609375 53.65625 14.8125 63.9375 
Q 24.03125 74.21875 39.40625 74.21875 
z
" id="DejaVuSans-79"/>
       </defs>
       <use xlink:href="#DejaVuSans-49"/>
       <use x="63.623047" xlink:href="#DejaVuSans-46"/>
       <use x="95.410156" xlink:href="#DejaVuSans-79"/>
       <use x="174.121094" xlink:href="#DejaVuSans-82"/>
       <use x="243.603516" xlink:href="#DejaVuSans-73"/>
      </g>
     </g>
    </g>
    <g id="xtick_13">
     <g id="line2d_13">
      <g>
       <use style="stroke:#000000;stroke-width:0.8;" x="386.519772" xlink:href="#m75352eb6cb" y="106.170761"/>
      </g>
     </g>
     <g id="text_13">
      <!-- all -->
      <g transform="translate(383.598678 116.969979)scale(0.05 -0.05)">
       <defs>
        <path d="M 34.28125 27.484375 
Q 23.390625 27.484375 19.1875 25 
Q 14.984375 22.515625 14.984375 16.5 
Q 14.984375 11.71875 18.140625 8.90625 
Q 21.296875 6.109375 26.703125 6.109375 
Q 34.1875 6.109375 38.703125 11.40625 
Q 43.21875 16.703125 43.21875 25.484375 
L 43.21875 27.484375 
z
M 52.203125 31.203125 
L 52.203125 0 
L 43.21875 0 
L 43.21875 8.296875 
Q 40.140625 3.328125 35.546875 0.953125 
Q 30.953125 -1.421875 24.3125 -1.421875 
Q 15.921875 -1.421875 10.953125 3.296875 
Q 6 8.015625 6 15.921875 
Q 6 25.140625 12.171875 29.828125 
Q 18.359375 34.515625 30.609375 34.515625 
L 43.21875 34.515625 
L 43.21875 35.40625 
Q 43.21875 41.609375 39.140625 45 
Q 35.0625 48.390625 27.6875 48.390625 
Q 23 48.390625 18.546875 47.265625 
Q 14.109375 46.140625 10.015625 43.890625 
L 10.015625 52.203125 
Q 14.9375 54.109375 19.578125 55.046875 
Q 24.21875 56 28.609375 56 
Q 40.484375 56 46.34375 49.84375 
Q 52.203125 43.703125 52.203125 31.203125 
z
" id="DejaVuSans-97"/>
        <path d="M 9.421875 75.984375 
L 18.40625 75.984375 
L 18.40625 0 
L 9.421875 0 
z
" id="DejaVuSans-108"/>
       </defs>
       <use xlink:href="#DejaVuSans-97"/>
       <use x="61.279297" xlink:href="#DejaVuSans-108"/>
       <use x="89.0625" xlink:href="#DejaVuSans-108"/>
      </g>
     </g>
    </g>
    <g id="text_14">
     <!-- Clade -->
     <g transform="translate(214.5975 125.809042)scale(0.05 -0.05)">
      <defs>
       <path d="M 64.40625 67.28125 
L 64.40625 56.890625 
Q 59.421875 61.53125 53.78125 63.8125 
Q 48.140625 66.109375 41.796875 66.109375 
Q 29.296875 66.109375 22.65625 58.46875 
Q 16.015625 50.828125 16.015625 36.375 
Q 16.015625 21.96875 22.65625 14.328125 
Q 29.296875 6.6875 41.796875 6.6875 
Q 48.140625 6.6875 53.78125 8.984375 
Q 59.421875 11.28125 64.40625 15.921875 
L 64.40625 5.609375 
Q 59.234375 2.09375 53.4375 0.328125 
Q 47.65625 -1.421875 41.21875 -1.421875 
Q 24.65625 -1.421875 15.125 8.703125 
Q 5.609375 18.84375 5.609375 36.375 
Q 5.609375 53.953125 15.125 64.078125 
Q 24.65625 74.21875 41.21875 74.21875 
Q 47.75 74.21875 53.53125 72.484375 
Q 59.328125 70.75 64.40625 67.28125 
z
" id="DejaVuSans-67"/>
       <path d="M 45.40625 46.390625 
L 45.40625 75.984375 
L 54.390625 75.984375 
L 54.390625 0 
L 45.40625 0 
L 45.40625 8.203125 
Q 42.578125 3.328125 38.25 0.953125 
Q 33.9375 -1.421875 27.875 -1.421875 
Q 17.96875 -1.421875 11.734375 6.484375 
Q 5.515625 14.40625 5.515625 27.296875 
Q 5.515625 40.1875 11.734375 48.09375 
Q 17.96875 56 27.875 56 
Q 33.9375 56 38.25 53.625 
Q 42.578125 51.265625 45.40625 46.390625 
z
M 14.796875 27.296875 
Q 14.796875 17.390625 18.875 11.75 
Q 22.953125 6.109375 30.078125 6.109375 
Q 37.203125 6.109375 41.296875 11.75 
Q 45.40625 17.390625 45.40625 27.296875 
Q 45.40625 37.203125 41.296875 42.84375 
Q 37.203125 48.484375 30.078125 48.484375 
Q 22.953125 48.484375 18.875 42.84375 
Q 14.796875 37.203125 14.796875 27.296875 
z
" id="DejaVuSans-100"/>
       <path d="M 56.203125 29.59375 
L 56.203125 25.203125 
L 14.890625 25.203125 
Q 15.484375 15.921875 20.484375 11.0625 
Q 25.484375 6.203125 34.421875 6.203125 
Q 39.59375 6.203125 44.453125 7.46875 
Q 49.3125 8.734375 54.109375 11.28125 
L 54.109375 2.78125 
Q 49.265625 0.734375 44.1875 -0.34375 
Q 39.109375 -1.421875 33.890625 -1.421875 
Q 20.796875 -1.421875 13.15625 6.1875 
Q 5.515625 13.8125 5.515625 26.8125 
Q 5.515625 40.234375 12.765625 48.109375 
Q 20.015625 56 32.328125 56 
Q 43.359375 56 49.78125 48.890625 
Q 56.203125 41.796875 56.203125 29.59375 
z
M 47.21875 32.234375 
Q 47.125 39.59375 43.09375 43.984375 
Q 39.0625 48.390625 32.421875 48.390625 
Q 24.90625 48.390625 20.390625 44.140625 
Q 15.875 39.890625 15.1875 32.171875 
z
" id="DejaVuSans-101"/>
      </defs>
      <use xlink:href="#DejaVuSans-67"/>
      <use x="69.824219" xlink:href="#DejaVuSans-108"/>
      <use x="97.607422" xlink:href="#DejaVuSans-97"/>
      <use x="158.886719" xlink:href="#DejaVuSans-100"/>
      <use x="222.363281" xlink:href="#DejaVuSans-101"/>
     </g>
    </g>
   </g>
   <g id="matplotlib.axis_2">
    <g id="ytick_1">
     <g id="line2d_14">
      <defs>
       <path d="M 0 0 
L -3.5 0 
" id="mf7ccc0a27c" style="stroke:#000000;stroke-width:0.8;"/>
      </defs>
      <g>
       <use style="stroke:#000000;stroke-width:0.8;" x="43.135156" xlink:href="#mf7ccc0a27c" y="100.009999"/>
      </g>
     </g>
     <g id="text_15">
      <!-- −10000 -->
      <g transform="translate(16.039063 101.909608)scale(0.05 -0.05)">
       <defs>
        <path d="M 10.59375 35.5 
L 73.1875 35.5 
L 73.1875 27.203125 
L 10.59375 27.203125 
z
" id="DejaVuSans-8722"/>
       </defs>
       <use xlink:href="#DejaVuSans-8722"/>
       <use x="83.789062" xlink:href="#DejaVuSans-49"/>
       <use x="147.412109" xlink:href="#DejaVuSans-48"/>
       <use x="211.035156" xlink:href="#DejaVuSans-48"/>
       <use x="274.658203" xlink:href="#DejaVuSans-48"/>
       <use x="338.28125" xlink:href="#DejaVuSans-48"/>
      </g>
     </g>
    </g>
    <g id="ytick_2">
     <g id="line2d_15">
      <g>
       <use style="stroke:#000000;stroke-width:0.8;" x="43.135156" xlink:href="#mf7ccc0a27c" y="87.0228"/>
      </g>
     </g>
     <g id="text_16">
      <!-- −8000 -->
      <g transform="translate(19.220313 88.92241)scale(0.05 -0.05)">
       <defs>
        <path d="M 31.78125 34.625 
Q 24.75 34.625 20.71875 30.859375 
Q 16.703125 27.09375 16.703125 20.515625 
Q 16.703125 13.921875 20.71875 10.15625 
Q 24.75 6.390625 31.78125 6.390625 
Q 38.8125 6.390625 42.859375 10.171875 
Q 46.921875 13.96875 46.921875 20.515625 
Q 46.921875 27.09375 42.890625 30.859375 
Q 38.875 34.625 31.78125 34.625 
z
M 21.921875 38.8125 
Q 15.578125 40.375 12.03125 44.71875 
Q 8.5 49.078125 8.5 55.328125 
Q 8.5 64.0625 14.71875 69.140625 
Q 20.953125 74.21875 31.78125 74.21875 
Q 42.671875 74.21875 48.875 69.140625 
Q 55.078125 64.0625 55.078125 55.328125 
Q 55.078125 49.078125 51.53125 44.71875 
Q 48 40.375 41.703125 38.8125 
Q 48.828125 37.15625 52.796875 32.3125 
Q 56.78125 27.484375 56.78125 20.515625 
Q 56.78125 9.90625 50.3125 4.234375 
Q 43.84375 -1.421875 31.78125 -1.421875 
Q 19.734375 -1.421875 13.25 4.234375 
Q 6.78125 9.90625 6.78125 20.515625 
Q 6.78125 27.484375 10.78125 32.3125 
Q 14.796875 37.15625 21.921875 38.8125 
z
M 18.3125 54.390625 
Q 18.3125 48.734375 21.84375 45.5625 
Q 25.390625 42.390625 31.78125 42.390625 
Q 38.140625 42.390625 41.71875 45.5625 
Q 45.3125 48.734375 45.3125 54.390625 
Q 45.3125 60.0625 41.71875 63.234375 
Q 38.140625 66.40625 31.78125 66.40625 
Q 25.390625 66.40625 21.84375 63.234375 
Q 18.3125 60.0625 18.3125 54.390625 
z
" id="DejaVuSans-56"/>
       </defs>
       <use xlink:href="#DejaVuSans-8722"/>
       <use x="83.789062" xlink:href="#DejaVuSans-56"/>
       <use x="147.412109" xlink:href="#DejaVuSans-48"/>
       <use x="211.035156" xlink:href="#DejaVuSans-48"/>
       <use x="274.658203" xlink:href="#DejaVuSans-48"/>
      </g>
     </g>
    </g>
    <g id="ytick_3">
     <g id="line2d_16">
      <g>
       <use style="stroke:#000000;stroke-width:0.8;" x="43.135156" xlink:href="#mf7ccc0a27c" y="74.035602"/>
      </g>
     </g>
     <g id="text_17">
      <!-- −6000 -->
      <g transform="translate(19.220313 75.935211)scale(0.05 -0.05)">
       <defs>
        <path d="M 33.015625 40.375 
Q 26.375 40.375 22.484375 35.828125 
Q 18.609375 31.296875 18.609375 23.390625 
Q 18.609375 15.53125 22.484375 10.953125 
Q 26.375 6.390625 33.015625 6.390625 
Q 39.65625 6.390625 43.53125 10.953125 
Q 47.40625 15.53125 47.40625 23.390625 
Q 47.40625 31.296875 43.53125 35.828125 
Q 39.65625 40.375 33.015625 40.375 
z
M 52.59375 71.296875 
L 52.59375 62.3125 
Q 48.875 64.0625 45.09375 64.984375 
Q 41.3125 65.921875 37.59375 65.921875 
Q 27.828125 65.921875 22.671875 59.328125 
Q 17.53125 52.734375 16.796875 39.40625 
Q 19.671875 43.65625 24.015625 45.921875 
Q 28.375 48.1875 33.59375 48.1875 
Q 44.578125 48.1875 50.953125 41.515625 
Q 57.328125 34.859375 57.328125 23.390625 
Q 57.328125 12.15625 50.6875 5.359375 
Q 44.046875 -1.421875 33.015625 -1.421875 
Q 20.359375 -1.421875 13.671875 8.265625 
Q 6.984375 17.96875 6.984375 36.375 
Q 6.984375 53.65625 15.1875 63.9375 
Q 23.390625 74.21875 37.203125 74.21875 
Q 40.921875 74.21875 44.703125 73.484375 
Q 48.484375 72.75 52.59375 71.296875 
z
" id="DejaVuSans-54"/>
       </defs>
       <use xlink:href="#DejaVuSans-8722"/>
       <use x="83.789062" xlink:href="#DejaVuSans-54"/>
       <use x="147.412109" xlink:href="#DejaVuSans-48"/>
       <use x="211.035156" xlink:href="#DejaVuSans-48"/>
       <use x="274.658203" xlink:href="#DejaVuSans-48"/>
      </g>
     </g>
    </g>
    <g id="ytick_4">
     <g id="line2d_17">
      <g>
       <use style="stroke:#000000;stroke-width:0.8;" x="43.135156" xlink:href="#mf7ccc0a27c" y="61.048403"/>
      </g>
     </g>
     <g id="text_18">
      <!-- −4000 -->
      <g transform="translate(19.220313 62.948013)scale(0.05 -0.05)">
       <use xlink:href="#DejaVuSans-8722"/>
       <use x="83.789062" xlink:href="#DejaVuSans-52"/>
       <use x="147.412109" xlink:href="#DejaVuSans-48"/>
       <use x="211.035156" xlink:href="#DejaVuSans-48"/>
       <use x="274.658203" xlink:href="#DejaVuSans-48"/>
      </g>
     </g>
    </g>
    <g id="ytick_5">
     <g id="line2d_18">
      <g>
       <use style="stroke:#000000;stroke-width:0.8;" x="43.135156" xlink:href="#mf7ccc0a27c" y="48.061205"/>
      </g>
     </g>
     <g id="text_19">
      <!-- −2000 -->
      <g transform="translate(19.220313 49.960814)scale(0.05 -0.05)">
       <use xlink:href="#DejaVuSans-8722"/>
       <use x="83.789062" xlink:href="#DejaVuSans-50"/>
       <use x="147.412109" xlink:href="#DejaVuSans-48"/>
       <use x="211.035156" xlink:href="#DejaVuSans-48"/>
       <use x="274.658203" xlink:href="#DejaVuSans-48"/>
      </g>
     </g>
    </g>
    <g id="ytick_6">
     <g id="line2d_19">
      <g>
       <use style="stroke:#000000;stroke-width:0.8;" x="43.135156" xlink:href="#mf7ccc0a27c" y="35.074006"/>
      </g>
     </g>
     <g id="text_20">
      <!-- 0 -->
      <g transform="translate(32.953906 36.973616)scale(0.05 -0.05)">
       <use xlink:href="#DejaVuSans-48"/>
      </g>
     </g>
    </g>
    <g id="ytick_7">
     <g id="line2d_20">
      <g>
       <use style="stroke:#000000;stroke-width:0.8;" x="43.135156" xlink:href="#mf7ccc0a27c" y="22.086808"/>
      </g>
     </g>
     <g id="text_21">
      <!-- 2000 -->
      <g transform="translate(23.410156 23.986417)scale(0.05 -0.05)">
       <use xlink:href="#DejaVuSans-50"/>
       <use x="63.623047" xlink:href="#DejaVuSans-48"/>
       <use x="127.246094" xlink:href="#DejaVuSans-48"/>
       <use x="190.869141" xlink:href="#DejaVuSans-48"/>
      </g>
     </g>
    </g>
    <g id="ytick_8">
     <g id="line2d_21">
      <g>
       <use style="stroke:#000000;stroke-width:0.8;" x="43.135156" xlink:href="#mf7ccc0a27c" y="9.099609"/>
      </g>
     </g>
     <g id="text_22">
      <!-- 4000 -->
      <g transform="translate(23.410156 10.999219)scale(0.05 -0.05)">
       <use xlink:href="#DejaVuSans-52"/>
       <use x="63.623047" xlink:href="#DejaVuSans-48"/>
       <use x="127.246094" xlink:href="#DejaVuSans-48"/>
       <use x="190.869141" xlink:href="#DejaVuSans-48"/>
      </g>
     </g>
    </g>
    <g id="text_23">
     <!-- tMRCA of Clade (Calendar Date) -->
     <g transform="translate(10.999219 97.305354)rotate(-90)scale(0.05 -0.05)">
      <defs>
       <path d="M 18.3125 70.21875 
L 18.3125 54.6875 
L 36.8125 54.6875 
L 36.8125 47.703125 
L 18.3125 47.703125 
L 18.3125 18.015625 
Q 18.3125 11.328125 20.140625 9.421875 
Q 21.96875 7.515625 27.59375 7.515625 
L 36.8125 7.515625 
L 36.8125 0 
L 27.59375 0 
Q 17.1875 0 13.234375 3.875 
Q 9.28125 7.765625 9.28125 18.015625 
L 9.28125 47.703125 
L 2.6875 47.703125 
L 2.6875 54.6875 
L 9.28125 54.6875 
L 9.28125 70.21875 
z
" id="DejaVuSans-116"/>
       <path id="DejaVuSans-32"/>
       <path d="M 30.609375 48.390625 
Q 23.390625 48.390625 19.1875 42.75 
Q 14.984375 37.109375 14.984375 27.296875 
Q 14.984375 17.484375 19.15625 11.84375 
Q 23.34375 6.203125 30.609375 6.203125 
Q 37.796875 6.203125 41.984375 11.859375 
Q 46.1875 17.53125 46.1875 27.296875 
Q 46.1875 37.015625 41.984375 42.703125 
Q 37.796875 48.390625 30.609375 48.390625 
z
M 30.609375 56 
Q 42.328125 56 49.015625 48.375 
Q 55.71875 40.765625 55.71875 27.296875 
Q 55.71875 13.875 49.015625 6.21875 
Q 42.328125 -1.421875 30.609375 -1.421875 
Q 18.84375 -1.421875 12.171875 6.21875 
Q 5.515625 13.875 5.515625 27.296875 
Q 5.515625 40.765625 12.171875 48.375 
Q 18.84375 56 30.609375 56 
z
" id="DejaVuSans-111"/>
       <path d="M 37.109375 75.984375 
L 37.109375 68.5 
L 28.515625 68.5 
Q 23.6875 68.5 21.796875 66.546875 
Q 19.921875 64.59375 19.921875 59.515625 
L 19.921875 54.6875 
L 34.71875 54.6875 
L 34.71875 47.703125 
L 19.921875 47.703125 
L 19.921875 0 
L 10.890625 0 
L 10.890625 47.703125 
L 2.296875 47.703125 
L 2.296875 54.6875 
L 10.890625 54.6875 
L 10.890625 58.5 
Q 10.890625 67.625 15.140625 71.796875 
Q 19.390625 75.984375 28.609375 75.984375 
z
" id="DejaVuSans-102"/>
       <path d="M 31 75.875 
Q 24.46875 64.65625 21.28125 53.65625 
Q 18.109375 42.671875 18.109375 31.390625 
Q 18.109375 20.125 21.3125 9.0625 
Q 24.515625 -2 31 -13.1875 
L 23.1875 -13.1875 
Q 15.875 -1.703125 12.234375 9.375 
Q 8.59375 20.453125 8.59375 31.390625 
Q 8.59375 42.28125 12.203125 53.3125 
Q 15.828125 64.359375 23.1875 75.875 
z
" id="DejaVuSans-40"/>
       <path d="M 54.890625 33.015625 
L 54.890625 0 
L 45.90625 0 
L 45.90625 32.71875 
Q 45.90625 40.484375 42.875 44.328125 
Q 39.84375 48.1875 33.796875 48.1875 
Q 26.515625 48.1875 22.3125 43.546875 
Q 18.109375 38.921875 18.109375 30.90625 
L 18.109375 0 
L 9.078125 0 
L 9.078125 54.6875 
L 18.109375 54.6875 
L 18.109375 46.1875 
Q 21.34375 51.125 25.703125 53.5625 
Q 30.078125 56 35.796875 56 
Q 45.21875 56 50.046875 50.171875 
Q 54.890625 44.34375 54.890625 33.015625 
z
" id="DejaVuSans-110"/>
       <path d="M 41.109375 46.296875 
Q 39.59375 47.171875 37.8125 47.578125 
Q 36.03125 48 33.890625 48 
Q 26.265625 48 22.1875 43.046875 
Q 18.109375 38.09375 18.109375 28.8125 
L 18.109375 0 
L 9.078125 0 
L 9.078125 54.6875 
L 18.109375 54.6875 
L 18.109375 46.1875 
Q 20.953125 51.171875 25.484375 53.578125 
Q 30.03125 56 36.53125 56 
Q 37.453125 56 38.578125 55.875 
Q 39.703125 55.765625 41.0625 55.515625 
z
" id="DejaVuSans-114"/>
       <path d="M 8.015625 75.875 
L 15.828125 75.875 
Q 23.140625 64.359375 26.78125 53.3125 
Q 30.421875 42.28125 30.421875 31.390625 
Q 30.421875 20.453125 26.78125 9.375 
Q 23.140625 -1.703125 15.828125 -13.1875 
L 8.015625 -13.1875 
Q 14.5 -2 17.703125 9.0625 
Q 20.90625 20.125 20.90625 31.390625 
Q 20.90625 42.671875 17.703125 53.65625 
Q 14.5 64.65625 8.015625 75.875 
z
" id="DejaVuSans-41"/>
      </defs>
      <use xlink:href="#DejaVuSans-116"/>
      <use x="39.208984" xlink:href="#DejaVuSans-77"/>
      <use x="125.488281" xlink:href="#DejaVuSans-82"/>
      <use x="189.970703" xlink:href="#DejaVuSans-67"/>
      <use x="259.794922" xlink:href="#DejaVuSans-65"/>
      <use x="328.203125" xlink:href="#DejaVuSans-32"/>
      <use x="359.990234" xlink:href="#DejaVuSans-111"/>
      <use x="421.171875" xlink:href="#DejaVuSans-102"/>
      <use x="456.376953" xlink:href="#DejaVuSans-32"/>
      <use x="488.164062" xlink:href="#DejaVuSans-67"/>
      <use x="557.988281" xlink:href="#DejaVuSans-108"/>
      <use x="585.771484" xlink:href="#DejaVuSans-97"/>
      <use x="647.050781" xlink:href="#DejaVuSans-100"/>
      <use x="710.527344" xlink:href="#DejaVuSans-101"/>
      <use x="772.050781" xlink:href="#DejaVuSans-32"/>
      <use x="803.837891" xlink:href="#DejaVuSans-40"/>
      <use x="842.851562" xlink:href="#DejaVuSans-67"/>
      <use x="912.675781" xlink:href="#DejaVuSans-97"/>
      <use x="973.955078" xlink:href="#DejaVuSans-108"/>
      <use x="1001.738281" xlink:href="#DejaVuSans-101"/>
      <use x="1063.261719" xlink:href="#DejaVuSans-110"/>
      <use x="1126.640625" xlink:href="#DejaVuSans-100"/>
      <use x="1190.117188" xlink:href="#DejaVuSans-97"/>
      <use x="1251.396484" xlink:href="#DejaVuSans-114"/>
      <use x="1292.509766" xlink:href="#DejaVuSans-32"/>
      <use x="1324.296875" xlink:href="#DejaVuSans-68"/>
      <use x="1401.298828" xlink:href="#DejaVuSans-97"/>
      <use x="1462.578125" xlink:href="#DejaVuSans-116"/>
      <use x="1501.787109" xlink:href="#DejaVuSans-101"/>
      <use x="1563.310547" xlink:href="#DejaVuSans-41"/>
     </g>
    </g>
   </g>
   <g id="line2d_22">
    <path clip-path="url(#pad47e11092)" d="M 56.870541 54.356014 
L 56.870541 54.725519 
" style="fill:none;stroke:#4c4c4c;stroke-linecap:square;stroke-width:0.5;"/>
   </g>
   <g id="line2d_23">
    <path clip-path="url(#pad47e11092)" d="M 56.870541 53.617004 
L 56.870541 53.247499 
" style="fill:none;stroke:#4c4c4c;stroke-linecap:square;stroke-width:0.5;"/>
   </g>
   <g id="line2d_24">
    <path clip-path="url(#pad47e11092)" d="M 51.719772 54.725519 
L 62.02131 54.725519 
" style="fill:none;stroke:#4c4c4c;stroke-linecap:square;stroke-width:0.5;"/>
   </g>
   <g id="line2d_25">
    <path clip-path="url(#pad47e11092)" d="M 51.719772 53.247499 
L 62.02131 53.247499 
" style="fill:none;stroke:#4c4c4c;stroke-linecap:square;stroke-width:0.5;"/>
   </g>
   <g id="line2d_26"/>
   <g id="line2d_27">
    <path clip-path="url(#pad47e11092)" d="M 84.34131 18.033685 
L 84.34131 18.033685 
" style="fill:none;stroke:#4c4c4c;stroke-linecap:square;stroke-width:0.5;"/>
   </g>
   <g id="line2d_28">
    <path clip-path="url(#pad47e11092)" d="M 84.34131 18.033685 
L 84.34131 18.033685 
" style="fill:none;stroke:#4c4c4c;stroke-linecap:square;stroke-width:0.5;"/>
   </g>
   <g id="line2d_29">
    <path clip-path="url(#pad47e11092)" d="M 79.190541 18.033685 
L 89.492079 18.033685 
" style="fill:none;stroke:#4c4c4c;stroke-linecap:square;stroke-width:0.5;"/>
   </g>
   <g id="line2d_30">
    <path clip-path="url(#pad47e11092)" d="M 79.190541 18.033685 
L 89.492079 18.033685 
" style="fill:none;stroke:#4c4c4c;stroke-linecap:square;stroke-width:0.5;"/>
   </g>
   <g id="line2d_31"/>
   <g id="line2d_32">
    <path clip-path="url(#pad47e11092)" d="M 111.812079 33.717335 
L 111.812079 39.332896 
" style="fill:none;stroke:#4c4c4c;stroke-linecap:square;stroke-width:0.5;"/>
   </g>
   <g id="line2d_33">
    <path clip-path="url(#pad47e11092)" d="M 111.812079 22.486214 
L 111.812079 16.870653 
" style="fill:none;stroke:#4c4c4c;stroke-linecap:square;stroke-width:0.5;"/>
   </g>
   <g id="line2d_34">
    <path clip-path="url(#pad47e11092)" d="M 106.66131 39.332896 
L 116.962849 39.332896 
" style="fill:none;stroke:#4c4c4c;stroke-linecap:square;stroke-width:0.5;"/>
   </g>
   <g id="line2d_35">
    <path clip-path="url(#pad47e11092)" d="M 106.66131 16.870653 
L 116.962849 16.870653 
" style="fill:none;stroke:#4c4c4c;stroke-linecap:square;stroke-width:0.5;"/>
   </g>
   <g id="line2d_36"/>
   <g id="line2d_37">
    <path clip-path="url(#pad47e11092)" d="M 139.282849 37.363769 
L 139.282849 38.210727 
" style="fill:none;stroke:#4c4c4c;stroke-linecap:square;stroke-width:0.5;"/>
   </g>
   <g id="line2d_38">
    <path clip-path="url(#pad47e11092)" d="M 139.282849 35.669853 
L 139.282849 34.822895 
" style="fill:none;stroke:#4c4c4c;stroke-linecap:square;stroke-width:0.5;"/>
   </g>
   <g id="line2d_39">
    <path clip-path="url(#pad47e11092)" d="M 134.132079 38.210727 
L 144.433618 38.210727 
" style="fill:none;stroke:#4c4c4c;stroke-linecap:square;stroke-width:0.5;"/>
   </g>
   <g id="line2d_40">
    <path clip-path="url(#pad47e11092)" d="M 134.132079 34.822895 
L 144.433618 34.822895 
" style="fill:none;stroke:#4c4c4c;stroke-linecap:square;stroke-width:0.5;"/>
   </g>
   <g id="line2d_41"/>
   <g id="line2d_42">
    <path clip-path="url(#pad47e11092)" d="M 166.753618 24.216694 
L 166.753618 27.308249 
" style="fill:none;stroke:#4c4c4c;stroke-linecap:square;stroke-width:0.5;"/>
   </g>
   <g id="line2d_43">
    <path clip-path="url(#pad47e11092)" d="M 166.753618 18.033585 
L 166.753618 14.94203 
" style="fill:none;stroke:#4c4c4c;stroke-linecap:square;stroke-width:0.5;"/>
   </g>
   <g id="line2d_44">
    <path clip-path="url(#pad47e11092)" d="M 161.602849 27.308249 
L 171.904387 27.308249 
" style="fill:none;stroke:#4c4c4c;stroke-linecap:square;stroke-width:0.5;"/>
   </g>
   <g id="line2d_45">
    <path clip-path="url(#pad47e11092)" d="M 161.602849 14.94203 
L 171.904387 14.94203 
" style="fill:none;stroke:#4c4c4c;stroke-linecap:square;stroke-width:0.5;"/>
   </g>
   <g id="line2d_46"/>
   <g id="line2d_47">
    <path clip-path="url(#pad47e11092)" d="M 194.224387 23.960548 
L 194.224387 27.690598 
" style="fill:none;stroke:#4c4c4c;stroke-linecap:square;stroke-width:0.5;"/>
   </g>
   <g id="line2d_48">
    <path clip-path="url(#pad47e11092)" d="M 194.224387 16.500447 
L 194.224387 12.770397 
" style="fill:none;stroke:#4c4c4c;stroke-linecap:square;stroke-width:0.5;"/>
   </g>
   <g id="line2d_49">
    <path clip-path="url(#pad47e11092)" d="M 189.073618 27.690598 
L 199.375156 27.690598 
" style="fill:none;stroke:#4c4c4c;stroke-linecap:square;stroke-width:0.5;"/>
   </g>
   <g id="line2d_50">
    <path clip-path="url(#pad47e11092)" d="M 189.073618 12.770397 
L 199.375156 12.770397 
" style="fill:none;stroke:#4c4c4c;stroke-linecap:square;stroke-width:0.5;"/>
   </g>
   <g id="line2d_51"/>
   <g id="line2d_52">
    <path clip-path="url(#pad47e11092)" d="M 221.695156 21.402444 
L 221.695156 21.517417 
" style="fill:none;stroke:#4c4c4c;stroke-linecap:square;stroke-width:0.5;"/>
   </g>
   <g id="line2d_53">
    <path clip-path="url(#pad47e11092)" d="M 221.695156 21.172499 
L 221.695156 21.057527 
" style="fill:none;stroke:#4c4c4c;stroke-linecap:square;stroke-width:0.5;"/>
   </g>
   <g id="line2d_54">
    <path clip-path="url(#pad47e11092)" d="M 216.544387 21.517417 
L 226.845925 21.517417 
" style="fill:none;stroke:#4c4c4c;stroke-linecap:square;stroke-width:0.5;"/>
   </g>
   <g id="line2d_55">
    <path clip-path="url(#pad47e11092)" d="M 216.544387 21.057527 
L 226.845925 21.057527 
" style="fill:none;stroke:#4c4c4c;stroke-linecap:square;stroke-width:0.5;"/>
   </g>
   <g id="line2d_56"/>
   <g id="line2d_57">
    <path clip-path="url(#pad47e11092)" d="M 249.165925 23.136977 
L 249.165925 25.199149 
" style="fill:none;stroke:#4c4c4c;stroke-linecap:square;stroke-width:0.5;"/>
   </g>
   <g id="line2d_58">
    <path clip-path="url(#pad47e11092)" d="M 249.165925 19.012635 
L 249.165925 16.950464 
" style="fill:none;stroke:#4c4c4c;stroke-linecap:square;stroke-width:0.5;"/>
   </g>
   <g id="line2d_59">
    <path clip-path="url(#pad47e11092)" d="M 244.015156 25.199149 
L 254.316695 25.199149 
" style="fill:none;stroke:#4c4c4c;stroke-linecap:square;stroke-width:0.5;"/>
   </g>
   <g id="line2d_60">
    <path clip-path="url(#pad47e11092)" d="M 244.015156 16.950464 
L 254.316695 16.950464 
" style="fill:none;stroke:#4c4c4c;stroke-linecap:square;stroke-width:0.5;"/>
   </g>
   <g id="line2d_61"/>
   <g id="line2d_62">
    <path clip-path="url(#pad47e11092)" d="M 276.636695 26.42758 
L 276.636695 26.527198 
" style="fill:none;stroke:#4c4c4c;stroke-linecap:square;stroke-width:0.5;"/>
   </g>
   <g id="line2d_63">
    <path clip-path="url(#pad47e11092)" d="M 276.636695 26.228345 
L 276.636695 26.128728 
" style="fill:none;stroke:#4c4c4c;stroke-linecap:square;stroke-width:0.5;"/>
   </g>
   <g id="line2d_64">
    <path clip-path="url(#pad47e11092)" d="M 271.485925 26.527198 
L 281.787464 26.527198 
" style="fill:none;stroke:#4c4c4c;stroke-linecap:square;stroke-width:0.5;"/>
   </g>
   <g id="line2d_65">
    <path clip-path="url(#pad47e11092)" d="M 271.485925 26.128728 
L 281.787464 26.128728 
" style="fill:none;stroke:#4c4c4c;stroke-linecap:square;stroke-width:0.5;"/>
   </g>
   <g id="line2d_66"/>
   <g id="line2d_67">
    <path clip-path="url(#pad47e11092)" d="M 304.107464 25.655539 
L 304.107464 26.494526 
" style="fill:none;stroke:#4c4c4c;stroke-linecap:square;stroke-width:0.5;"/>
   </g>
   <g id="line2d_68">
    <path clip-path="url(#pad47e11092)" d="M 304.107464 23.977564 
L 304.107464 23.138576 
" style="fill:none;stroke:#4c4c4c;stroke-linecap:square;stroke-width:0.5;"/>
   </g>
   <g id="line2d_69">
    <path clip-path="url(#pad47e11092)" d="M 298.956695 26.494526 
L 309.258233 26.494526 
" style="fill:none;stroke:#4c4c4c;stroke-linecap:square;stroke-width:0.5;"/>
   </g>
   <g id="line2d_70">
    <path clip-path="url(#pad47e11092)" d="M 298.956695 23.138576 
L 309.258233 23.138576 
" style="fill:none;stroke:#4c4c4c;stroke-linecap:square;stroke-width:0.5;"/>
   </g>
   <g id="line2d_71"/>
   <g id="line2d_72">
    <path clip-path="url(#pad47e11092)" d="M 331.578233 23.431359 
L 331.578233 24.601793 
" style="fill:none;stroke:#4c4c4c;stroke-linecap:square;stroke-width:0.5;"/>
   </g>
   <g id="line2d_73">
    <path clip-path="url(#pad47e11092)" d="M 331.578233 21.09049 
L 331.578233 19.920055 
" style="fill:none;stroke:#4c4c4c;stroke-linecap:square;stroke-width:0.5;"/>
   </g>
   <g id="line2d_74">
    <path clip-path="url(#pad47e11092)" d="M 326.427464 24.601793 
L 336.729002 24.601793 
" style="fill:none;stroke:#4c4c4c;stroke-linecap:square;stroke-width:0.5;"/>
   </g>
   <g id="line2d_75">
    <path clip-path="url(#pad47e11092)" d="M 326.427464 19.920055 
L 336.729002 19.920055 
" style="fill:none;stroke:#4c4c4c;stroke-linecap:square;stroke-width:0.5;"/>
   </g>
   <g id="line2d_76"/>
   <g id="line2d_77">
    <path clip-path="url(#pad47e11092)" d="M 359.049002 25.078789 
L 359.049002 25.078789 
" style="fill:none;stroke:#4c4c4c;stroke-linecap:square;stroke-width:0.5;"/>
   </g>
   <g id="line2d_78">
    <path clip-path="url(#pad47e11092)" d="M 359.049002 25.078789 
L 359.049002 25.078789 
" style="fill:none;stroke:#4c4c4c;stroke-linecap:square;stroke-width:0.5;"/>
   </g>
   <g id="line2d_79">
    <path clip-path="url(#pad47e11092)" d="M 353.898233 25.078789 
L 364.199772 25.078789 
" style="fill:none;stroke:#4c4c4c;stroke-linecap:square;stroke-width:0.5;"/>
   </g>
   <g id="line2d_80">
    <path clip-path="url(#pad47e11092)" d="M 353.898233 25.078789 
L 364.199772 25.078789 
" style="fill:none;stroke:#4c4c4c;stroke-linecap:square;stroke-width:0.5;"/>
   </g>
   <g id="line2d_81"/>
   <g id="line2d_82">
    <path clip-path="url(#pad47e11092)" d="M 386.519772 94.592915 
L 386.519772 101.723124 
" style="fill:none;stroke:#4c4c4c;stroke-linecap:square;stroke-width:0.5;"/>
   </g>
   <g id="line2d_83">
    <path clip-path="url(#pad47e11092)" d="M 386.519772 80.332497 
L 386.519772 73.202288 
" style="fill:none;stroke:#4c4c4c;stroke-linecap:square;stroke-width:0.5;"/>
   </g>
   <g id="line2d_84">
    <path clip-path="url(#pad47e11092)" d="M 381.369002 101.723124 
L 391.670541 101.723124 
" style="fill:none;stroke:#4c4c4c;stroke-linecap:square;stroke-width:0.5;"/>
   </g>
   <g id="line2d_85">
    <path clip-path="url(#pad47e11092)" d="M 381.369002 73.202288 
L 391.670541 73.202288 
" style="fill:none;stroke:#4c4c4c;stroke-linecap:square;stroke-width:0.5;"/>
   </g>
   <g id="line2d_86"/>
   <g id="line2d_87">
    <path clip-path="url(#pad47e11092)" d="M 46.569002 53.986509 
L 67.172079 53.986509 
" style="fill:none;stroke:#4c4c4c;stroke-linecap:square;stroke-width:0.5;"/>
   </g>
   <g id="line2d_88">
    <path clip-path="url(#pad47e11092)" d="M 74.039772 18.033685 
L 94.642849 18.033685 
" style="fill:none;stroke:#4c4c4c;stroke-linecap:square;stroke-width:0.5;"/>
   </g>
   <g id="line2d_89">
    <path clip-path="url(#pad47e11092)" d="M 101.510541 28.101774 
L 122.113618 28.101774 
" style="fill:none;stroke:#4c4c4c;stroke-linecap:square;stroke-width:0.5;"/>
   </g>
   <g id="line2d_90">
    <path clip-path="url(#pad47e11092)" d="M 128.98131 36.516811 
L 149.584387 36.516811 
" style="fill:none;stroke:#4c4c4c;stroke-linecap:square;stroke-width:0.5;"/>
   </g>
   <g id="line2d_91">
    <path clip-path="url(#pad47e11092)" d="M 156.452079 21.12514 
L 177.055156 21.12514 
" style="fill:none;stroke:#4c4c4c;stroke-linecap:square;stroke-width:0.5;"/>
   </g>
   <g id="line2d_92">
    <path clip-path="url(#pad47e11092)" d="M 183.922849 20.230497 
L 204.525925 20.230497 
" style="fill:none;stroke:#4c4c4c;stroke-linecap:square;stroke-width:0.5;"/>
   </g>
   <g id="line2d_93">
    <path clip-path="url(#pad47e11092)" d="M 211.393618 21.287472 
L 231.996695 21.287472 
" style="fill:none;stroke:#4c4c4c;stroke-linecap:square;stroke-width:0.5;"/>
   </g>
   <g id="line2d_94">
    <path clip-path="url(#pad47e11092)" d="M 238.864387 21.074806 
L 259.467464 21.074806 
" style="fill:none;stroke:#4c4c4c;stroke-linecap:square;stroke-width:0.5;"/>
   </g>
   <g id="line2d_95">
    <path clip-path="url(#pad47e11092)" d="M 266.335156 26.327963 
L 286.938233 26.327963 
" style="fill:none;stroke:#4c4c4c;stroke-linecap:square;stroke-width:0.5;"/>
   </g>
   <g id="line2d_96">
    <path clip-path="url(#pad47e11092)" d="M 293.805925 24.816551 
L 314.409002 24.816551 
" style="fill:none;stroke:#4c4c4c;stroke-linecap:square;stroke-width:0.5;"/>
   </g>
   <g id="line2d_97">
    <path clip-path="url(#pad47e11092)" d="M 321.276695 22.260924 
L 341.879772 22.260924 
" style="fill:none;stroke:#4c4c4c;stroke-linecap:square;stroke-width:0.5;"/>
   </g>
   <g id="line2d_98">
    <path clip-path="url(#pad47e11092)" d="M 348.747464 25.078789 
L 369.350541 25.078789 
" style="fill:none;stroke:#4c4c4c;stroke-linecap:square;stroke-width:0.5;"/>
   </g>
   <g id="line2d_99">
    <path clip-path="url(#pad47e11092)" d="M 376.218233 87.462706 
L 396.82131 87.462706 
" style="fill:none;stroke:#4c4c4c;stroke-linecap:square;stroke-width:0.5;"/>
   </g>
   <g id="patch_16">
    <path d="M 43.135156 106.170761 
L 43.135156 8.322761 
" style="fill:none;stroke:#000000;stroke-linecap:square;stroke-linejoin:miter;stroke-width:0.5;"/>
   </g>
   <g id="patch_17">
    <path d="M 400.255156 106.170761 
L 400.255156 8.322761 
" style="fill:none;stroke:#000000;stroke-linecap:square;stroke-linejoin:miter;stroke-width:0.5;"/>
   </g>
   <g id="patch_18">
    <path d="M 43.135156 106.170761 
L 400.255156 106.170761 
" style="fill:none;stroke:#000000;stroke-linecap:square;stroke-linejoin:miter;stroke-width:0.5;"/>
   </g>
   <g id="patch_19">
    <path d="M 43.135156 8.322761 
L 400.255156 8.322761 
" style="fill:none;stroke:#000000;stroke-linecap:square;stroke-linejoin:miter;stroke-width:0.5;"/>
   </g>
  </g>
 </g>
 <defs>
  <clipPath id="pad47e11092">
   <rect height="97.848" width="357.12" x="43.135156" y="8.322761"/>
  </clipPath>
 </defs>
</svg>
