<?xml version="1.0" encoding="utf-8" standalone="no"?>
<!DOCTYPE svg PUBLIC "-//W3C//DTD SVG 1.1//EN"
  "http://www.w3.org/Graphics/SVG/1.1/DTD/svg11.dtd">
<!-- Created with matplotlib (https://matplotlib.org/) -->
<svg height="440.963125pt" version="1.1" viewBox="0 0 471.480687 440.963125" width="471.480687pt" xmlns="http://www.w3.org/2000/svg" xmlns:xlink="http://www.w3.org/1999/xlink">
 <metadata>
  <rdf:RDF xmlns:cc="http://creativecommons.org/ns#" xmlns:dc="http://purl.org/dc/elements/1.1/" xmlns:rdf="http://www.w3.org/1999/02/22-rdf-syntax-ns#">
   <cc:Work>
    <dc:type rdf:resource="http://purl.org/dc/dcmitype/StillImage"/>
    <dc:date>2021-08-26T17:37:48.882629</dc:date>
    <dc:format>image/svg+xml</dc:format>
    <dc:creator>
     <cc:Agent>
      <dc:title>Matplotlib v3.3.2, https://matplotlib.org/</dc:title>
     </cc:Agent>
    </dc:creator>
   </cc:Work>
  </rdf:RDF>
 </metadata>
 <defs>
  <style type="text/css">*{stroke-linecap:butt;stroke-linejoin:round;}</style>
 </defs>
 <g id="figure_1">
  <g id="patch_1">
   <path d="M 0 440.963125 
L 471.480687 440.963125 
L 471.480687 0 
L 0 0 
z
" style="fill:#ffffff;"/>
  </g>
  <g id="axes_1">
   <g id="patch_2">
    <path d="M 84.200688 397.6 
L 400.934021 397.6 
L 400.934021 75.866667 
L 84.200688 75.866667 
z
" style="fill:#ffffff;"/>
   </g>
   <g id="matplotlib.axis_1">
    <g id="xtick_1">
     <g id="line2d_1">
      <defs>
       <path d="M 0 0 
L 0 3.5 
" id="m5776eee228" style="stroke:#000000;stroke-width:0.8;"/>
      </defs>
      <g>
       <use style="stroke:#000000;stroke-width:0.8;" x="112.272906" xlink:href="#m5776eee228" y="397.6"/>
      </g>
     </g>
     <g id="text_1">
      <text style="font-family:DejaVu Sans;font-size:12px;font-stretch:normal;font-style:normal;font-weight:normal;text-anchor:middle;" transform="rotate(-0, 112.272906, 413.718125)" x="112.272906" y="413.718125">1950</text>
     </g>
    </g>
    <g id="xtick_2">
     <g id="line2d_2">
      <g>
       <use style="stroke:#000000;stroke-width:0.8;" x="154.303373" xlink:href="#m5776eee228" y="397.6"/>
      </g>
     </g>
     <g id="text_2">
      <text style="font-family:DejaVu Sans;font-size:12px;font-stretch:normal;font-style:normal;font-weight:normal;text-anchor:middle;" transform="rotate(-0, 154.303373, 413.718125)" x="154.303373" y="413.718125">1960</text>
     </g>
    </g>
    <g id="xtick_3">
     <g id="line2d_3">
      <g>
       <use style="stroke:#000000;stroke-width:0.8;" x="196.33384" xlink:href="#m5776eee228" y="397.6"/>
      </g>
     </g>
     <g id="text_3">
      <text style="font-family:DejaVu Sans;font-size:12px;font-stretch:normal;font-style:normal;font-weight:normal;text-anchor:middle;" transform="rotate(-0, 196.33384, 413.718125)" x="196.33384" y="413.718125">1970</text>
     </g>
    </g>
    <g id="xtick_4">
     <g id="line2d_4">
      <g>
       <use style="stroke:#000000;stroke-width:0.8;" x="238.364307" xlink:href="#m5776eee228" y="397.6"/>
      </g>
     </g>
     <g id="text_4">
      <text style="font-family:DejaVu Sans;font-size:12px;font-stretch:normal;font-style:normal;font-weight:normal;text-anchor:middle;" transform="rotate(-0, 238.364307, 413.718125)" x="238.364307" y="413.718125">1980</text>
     </g>
    </g>
    <g id="xtick_5">
     <g id="line2d_5">
      <g>
       <use style="stroke:#000000;stroke-width:0.8;" x="280.394774" xlink:href="#m5776eee228" y="397.6"/>
      </g>
     </g>
     <g id="text_5">
      <text style="font-family:DejaVu Sans;font-size:12px;font-stretch:normal;font-style:normal;font-weight:normal;text-anchor:middle;" transform="rotate(-0, 280.394774, 413.718125)" x="280.394774" y="413.718125">1990</text>
     </g>
    </g>
    <g id="xtick_6">
     <g id="line2d_6">
      <g>
       <use style="stroke:#000000;stroke-width:0.8;" x="322.425242" xlink:href="#m5776eee228" y="397.6"/>
      </g>
     </g>
     <g id="text_6">
      <text style="font-family:DejaVu Sans;font-size:12px;font-stretch:normal;font-style:normal;font-weight:normal;text-anchor:middle;" transform="rotate(-0, 322.425242, 413.718125)" x="322.425242" y="413.718125">2000</text>
     </g>
    </g>
    <g id="xtick_7">
     <g id="line2d_7">
      <g>
       <use style="stroke:#000000;stroke-width:0.8;" x="364.455709" xlink:href="#m5776eee228" y="397.6"/>
      </g>
     </g>
     <g id="text_7">
      <text style="font-family:DejaVu Sans;font-size:12px;font-stretch:normal;font-style:normal;font-weight:normal;text-anchor:middle;" transform="rotate(-0, 364.455709, 413.718125)" x="364.455709" y="413.718125">2010</text>
     </g>
    </g>
    <g id="text_8">
     <text style="font-family:DejaVu Sans;font-size:14px;font-stretch:normal;font-style:normal;font-weight:normal;text-anchor:middle;" transform="rotate(-0, 242.567354, 430.851562)" x="242.567354" y="430.851562">Collection Date</text>
    </g>
   </g>
   <g id="matplotlib.axis_2">
    <g id="ytick_1">
     <g id="line2d_8">
      <defs>
       <path d="M 0 0 
L -3.5 0 
" id="mfcd1eb9cc8" style="stroke:#000000;stroke-width:0.8;"/>
      </defs>
      <g>
       <use style="stroke:#000000;stroke-width:0.8;" x="84.200688" xlink:href="#mfcd1eb9cc8" y="353.727273"/>
      </g>
     </g>
     <g id="text_9">
      <text style="font-family:DejaVu Sans;font-size:12px;font-stretch:normal;font-style:normal;font-weight:normal;text-anchor:end;" transform="rotate(-0, 77.200688, 358.286335)" x="77.200688" y="358.286335">−0.04</text>
     </g>
    </g>
    <g id="ytick_2">
     <g id="line2d_9">
      <g>
       <use style="stroke:#000000;stroke-width:0.8;" x="84.200688" xlink:href="#mfcd1eb9cc8" y="295.230303"/>
      </g>
     </g>
     <g id="text_10">
      <text style="font-family:DejaVu Sans;font-size:12px;font-stretch:normal;font-style:normal;font-weight:normal;text-anchor:end;" transform="rotate(-0, 77.200688, 299.789366)" x="77.200688" y="299.789366">−0.02</text>
     </g>
    </g>
    <g id="ytick_3">
     <g id="line2d_10">
      <g>
       <use style="stroke:#000000;stroke-width:0.8;" x="84.200688" xlink:href="#mfcd1eb9cc8" y="236.733333"/>
      </g>
     </g>
     <g id="text_11">
      <text style="font-family:DejaVu Sans;font-size:12px;font-stretch:normal;font-style:normal;font-weight:normal;text-anchor:end;" transform="rotate(-0, 77.200688, 241.292396)" x="77.200688" y="241.292396">0.00</text>
     </g>
    </g>
    <g id="ytick_4">
     <g id="line2d_11">
      <g>
       <use style="stroke:#000000;stroke-width:0.8;" x="84.200688" xlink:href="#mfcd1eb9cc8" y="178.236364"/>
      </g>
     </g>
     <g id="text_12">
      <text style="font-family:DejaVu Sans;font-size:12px;font-stretch:normal;font-style:normal;font-weight:normal;text-anchor:end;" transform="rotate(-0, 77.200688, 182.795426)" x="77.200688" y="182.795426">0.02</text>
     </g>
    </g>
    <g id="ytick_5">
     <g id="line2d_12">
      <g>
       <use style="stroke:#000000;stroke-width:0.8;" x="84.200688" xlink:href="#mfcd1eb9cc8" y="119.739394"/>
      </g>
     </g>
     <g id="text_13">
      <text style="font-family:DejaVu Sans;font-size:12px;font-stretch:normal;font-style:normal;font-weight:normal;text-anchor:end;" transform="rotate(-0, 77.200688, 124.298456)" x="77.200688" y="124.298456">0.04</text>
     </g>
    </g>
    <g id="text_14">
     <text style="font-family:DejaVu Sans;font-size:14px;font-stretch:normal;font-style:normal;font-weight:normal;" transform="translate(17.837813 355.283802)rotate(-90)">Geographic Distance to the MRCA</text>
     <text style="font-family:DejaVu Sans;font-size:14px;font-stretch:normal;font-style:normal;font-weight:normal;" transform="translate(33.51475 253.067396)rotate(-90)">(km)</text>
    </g>
   </g>
   <g id="PathCollection_1">
    <defs>
     <path d="M 0 2.738613 
C 0.726289 2.738613 1.422928 2.450055 1.936492 1.936492 
C 2.450055 1.422928 2.738613 0.726289 2.738613 0 
C 2.738613 -0.726289 2.450055 -1.422928 1.936492 -1.936492 
C 1.422928 -2.450055 0.726289 -2.738613 0 -2.738613 
C -0.726289 -2.738613 -1.422928 -2.450055 -1.936492 -1.936492 
C -2.450055 -1.422928 -2.738613 -0.726289 -2.738613 0 
C -2.738613 0.726289 -2.450055 1.422928 -1.936492 1.936492 
C -1.422928 2.450055 -0.726289 2.738613 0 2.738613 
z
" id="mf3340dae0f" style="stroke:#000000;stroke-width:0.438178;"/>
    </defs>
    <g clip-path="url(#p6e2b8995e4)">
     <use style="fill:#ff4824;stroke:#000000;stroke-width:0.438178;" x="234.161261" xlink:href="#mf3340dae0f" y="236.733333"/>
     <use style="fill:#ff4824;stroke:#000000;stroke-width:0.438178;" x="221.552121" xlink:href="#mf3340dae0f" y="236.733333"/>
     <use style="fill:#ff4824;stroke:#000000;stroke-width:0.438178;" x="225.755167" xlink:href="#mf3340dae0f" y="236.733333"/>
     <use style="fill:#ff4824;stroke:#000000;stroke-width:0.438178;" x="129.085093" xlink:href="#mf3340dae0f" y="236.733333"/>
     <use style="fill:#ff4824;stroke:#000000;stroke-width:0.438178;" x="259.379541" xlink:href="#mf3340dae0f" y="236.733333"/>
     <use style="fill:#ff4824;stroke:#000000;stroke-width:0.438178;" x="129.085093" xlink:href="#mf3340dae0f" y="236.733333"/>
     <use style="fill:#ff4824;stroke:#000000;stroke-width:0.438178;" x="225.755167" xlink:href="#mf3340dae0f" y="236.733333"/>
     <use style="fill:#ff4824;stroke:#000000;stroke-width:0.438178;" x="284.597821" xlink:href="#mf3340dae0f" y="236.733333"/>
     <use style="fill:#ff4824;stroke:#000000;stroke-width:0.438178;" x="246.770401" xlink:href="#mf3340dae0f" y="236.733333"/>
     <use style="fill:#ff4824;stroke:#000000;stroke-width:0.438178;" x="171.11556" xlink:href="#mf3340dae0f" y="236.733333"/>
     <use style="fill:#ff4824;stroke:#000000;stroke-width:0.438178;" x="171.11556" xlink:href="#mf3340dae0f" y="236.733333"/>
     <use style="fill:#ff4824;stroke:#000000;stroke-width:0.438178;" x="255.176494" xlink:href="#mf3340dae0f" y="236.733333"/>
     <use style="fill:#ff4824;stroke:#000000;stroke-width:0.438178;" x="246.770401" xlink:href="#mf3340dae0f" y="236.733333"/>
     <use style="fill:#ff4824;stroke:#000000;stroke-width:0.438178;" x="171.11556" xlink:href="#mf3340dae0f" y="236.733333"/>
     <use style="fill:#ff4824;stroke:#000000;stroke-width:0.438178;" x="284.597821" xlink:href="#mf3340dae0f" y="236.733333"/>
     <use style="fill:#ff4824;stroke:#000000;stroke-width:0.438178;" x="129.085093" xlink:href="#mf3340dae0f" y="236.733333"/>
     <use style="fill:#ff4824;stroke:#000000;stroke-width:0.438178;" x="171.11556" xlink:href="#mf3340dae0f" y="236.733333"/>
     <use style="fill:#ff4824;stroke:#000000;stroke-width:0.438178;" x="271.988681" xlink:href="#mf3340dae0f" y="236.733333"/>
     <use style="fill:#ff4824;stroke:#000000;stroke-width:0.438178;" x="129.085093" xlink:href="#mf3340dae0f" y="236.733333"/>
     <use style="fill:#ff4824;stroke:#000000;stroke-width:0.438178;" x="175.318607" xlink:href="#mf3340dae0f" y="236.733333"/>
     <use style="fill:#ff4824;stroke:#000000;stroke-width:0.438178;" x="276.191728" xlink:href="#mf3340dae0f" y="236.733333"/>
     <use style="fill:#ff4824;stroke:#000000;stroke-width:0.438178;" x="309.816101" xlink:href="#mf3340dae0f" y="236.733333"/>
     <use style="fill:#ff4824;stroke:#000000;stroke-width:0.438178;" x="229.958214" xlink:href="#mf3340dae0f" y="236.733333"/>
     <use style="fill:#ff4824;stroke:#000000;stroke-width:0.438178;" x="200.536887" xlink:href="#mf3340dae0f" y="236.733333"/>
     <use style="fill:#ff4824;stroke:#000000;stroke-width:0.438178;" x="339.237428" xlink:href="#mf3340dae0f" y="236.733333"/>
     <use style="fill:#ff4824;stroke:#000000;stroke-width:0.438178;" x="221.552121" xlink:href="#mf3340dae0f" y="236.733333"/>
     <use style="fill:#ff4824;stroke:#000000;stroke-width:0.438178;" x="351.846568" xlink:href="#mf3340dae0f" y="236.733333"/>
     <use style="fill:#ff4824;stroke:#000000;stroke-width:0.438178;" x="356.049615" xlink:href="#mf3340dae0f" y="236.733333"/>
     <use style="fill:#ff4824;stroke:#000000;stroke-width:0.438178;" x="318.222195" xlink:href="#mf3340dae0f" y="236.733333"/>
     <use style="fill:#ff4824;stroke:#000000;stroke-width:0.438178;" x="318.222195" xlink:href="#mf3340dae0f" y="236.733333"/>
     <use style="fill:#ff4824;stroke:#000000;stroke-width:0.438178;" x="318.222195" xlink:href="#mf3340dae0f" y="236.733333"/>
     <use style="fill:#ff4824;stroke:#000000;stroke-width:0.438178;" x="305.613055" xlink:href="#mf3340dae0f" y="236.733333"/>
     <use style="fill:#ff4824;stroke:#000000;stroke-width:0.438178;" x="297.206961" xlink:href="#mf3340dae0f" y="236.733333"/>
    </g>
   </g>
   <g id="patch_3">
    <path d="M 84.200688 397.6 
L 84.200688 75.866667 
" style="fill:none;stroke:#000000;stroke-linecap:square;stroke-linejoin:miter;stroke-width:0.8;"/>
   </g>
   <g id="patch_4">
    <path d="M 84.200687 397.6 
L 400.934021 397.6 
" style="fill:none;stroke:#000000;stroke-linecap:square;stroke-linejoin:miter;stroke-width:0.8;"/>
   </g>
  </g>
  <g id="axes_2">
   <g id="patch_5">
    <path d="M 84.200688 75.866667 
L 400.934021 75.866667 
L 400.934021 11.52 
L 84.200688 11.52 
z
" style="fill:#ffffff;"/>
   </g>
   <g id="PolyCollection_1">
    <defs>
     <path d="M 98.597657 -365.563922 
L 98.597657 -365.096458 
L 100.044589 -365.096458 
L 101.49152 -365.096458 
L 102.938452 -365.096458 
L 104.385384 -365.096458 
L 105.832315 -365.096458 
L 107.279247 -365.096458 
L 108.726179 -365.096458 
L 110.17311 -365.096458 
L 111.620042 -365.096458 
L 113.066973 -365.096458 
L 114.513905 -365.096458 
L 115.960837 -365.096458 
L 117.407768 -365.096458 
L 118.8547 -365.096458 
L 120.301632 -365.096458 
L 121.748563 -365.096458 
L 123.195495 -365.096458 
L 124.642426 -365.096458 
L 126.089358 -365.096458 
L 127.53629 -365.096458 
L 128.983221 -365.096458 
L 130.430153 -365.096458 
L 131.877085 -365.096458 
L 133.324016 -365.096458 
L 134.770948 -365.096458 
L 136.21788 -365.096458 
L 137.664811 -365.096458 
L 139.111743 -365.096458 
L 140.558674 -365.096458 
L 142.005606 -365.096458 
L 143.452538 -365.096458 
L 144.899469 -365.096458 
L 146.346401 -365.096458 
L 147.793333 -365.096458 
L 149.240264 -365.096458 
L 150.687196 -365.096458 
L 152.134127 -365.096458 
L 153.581059 -365.096458 
L 155.027991 -365.096458 
L 156.474922 -365.096458 
L 157.921854 -365.096458 
L 159.368786 -365.096458 
L 160.815717 -365.096458 
L 162.262649 -365.096458 
L 163.70958 -365.096458 
L 165.156512 -365.096458 
L 166.603444 -365.096458 
L 168.050375 -365.096458 
L 169.497307 -365.096458 
L 170.944239 -365.096458 
L 172.39117 -365.096458 
L 173.838102 -365.096458 
L 175.285033 -365.096458 
L 176.731965 -365.096458 
L 178.178897 -365.096458 
L 179.625828 -365.096458 
L 181.07276 -365.096458 
L 182.519692 -365.096458 
L 183.966623 -365.096458 
L 185.413555 -365.096458 
L 186.860486 -365.096458 
L 188.307418 -365.096458 
L 189.75435 -365.096458 
L 191.201281 -365.096458 
L 192.648213 -365.096458 
L 194.095145 -365.096458 
L 195.542076 -365.096458 
L 196.989008 -365.096458 
L 198.43594 -365.096458 
L 199.882871 -365.096458 
L 201.329803 -365.096458 
L 202.776734 -365.096458 
L 204.223666 -365.096458 
L 205.670598 -365.096458 
L 207.117529 -365.096458 
L 208.564461 -365.096458 
L 210.011393 -365.096458 
L 211.458324 -365.096458 
L 212.905256 -365.096458 
L 214.352187 -365.096458 
L 215.799119 -365.096458 
L 217.246051 -365.096458 
L 218.692982 -365.096458 
L 220.139914 -365.096458 
L 221.586846 -365.096458 
L 223.033777 -365.096458 
L 224.480709 -365.096458 
L 225.92764 -365.096458 
L 227.374572 -365.096458 
L 228.821504 -365.096458 
L 230.268435 -365.096458 
L 231.715367 -365.096458 
L 233.162299 -365.096458 
L 234.60923 -365.096458 
L 236.056162 -365.096458 
L 237.503093 -365.096458 
L 238.950025 -365.096458 
L 240.396957 -365.096458 
L 241.843888 -365.096458 
L 243.29082 -365.096458 
L 244.737752 -365.096458 
L 246.184683 -365.096458 
L 247.631615 -365.096458 
L 249.078546 -365.096458 
L 250.525478 -365.096458 
L 251.97241 -365.096458 
L 253.419341 -365.096458 
L 254.866273 -365.096458 
L 256.313205 -365.096458 
L 257.760136 -365.096458 
L 259.207068 -365.096458 
L 260.654 -365.096458 
L 262.100931 -365.096458 
L 263.547863 -365.096458 
L 264.994794 -365.096458 
L 266.441726 -365.096458 
L 267.888658 -365.096458 
L 269.335589 -365.096458 
L 270.782521 -365.096458 
L 272.229453 -365.096458 
L 273.676384 -365.096458 
L 275.123316 -365.096458 
L 276.570247 -365.096458 
L 278.017179 -365.096458 
L 279.464111 -365.096458 
L 280.911042 -365.096458 
L 282.357974 -365.096458 
L 283.804906 -365.096458 
L 285.251837 -365.096458 
L 286.698769 -365.096458 
L 288.1457 -365.096458 
L 289.592632 -365.096458 
L 291.039564 -365.096458 
L 292.486495 -365.096458 
L 293.933427 -365.096458 
L 295.380359 -365.096458 
L 296.82729 -365.096458 
L 298.274222 -365.096458 
L 299.721153 -365.096458 
L 301.168085 -365.096458 
L 302.615017 -365.096458 
L 304.061948 -365.096458 
L 305.50888 -365.096458 
L 306.955812 -365.096458 
L 308.402743 -365.096458 
L 309.849675 -365.096458 
L 311.296606 -365.096458 
L 312.743538 -365.096458 
L 314.19047 -365.096458 
L 315.637401 -365.096458 
L 317.084333 -365.096458 
L 318.531265 -365.096458 
L 319.978196 -365.096458 
L 321.425128 -365.096458 
L 322.87206 -365.096458 
L 324.318991 -365.096458 
L 325.765923 -365.096458 
L 327.212854 -365.096458 
L 328.659786 -365.096458 
L 330.106718 -365.096458 
L 331.553649 -365.096458 
L 333.000581 -365.096458 
L 334.447513 -365.096458 
L 335.894444 -365.096458 
L 337.341376 -365.096458 
L 338.788307 -365.096458 
L 340.235239 -365.096458 
L 341.682171 -365.096458 
L 343.129102 -365.096458 
L 344.576034 -365.096458 
L 346.022966 -365.096458 
L 347.469897 -365.096458 
L 348.916829 -365.096458 
L 350.36376 -365.096458 
L 351.810692 -365.096458 
L 353.257624 -365.096458 
L 354.704555 -365.096458 
L 356.151487 -365.096458 
L 357.598419 -365.096458 
L 359.04535 -365.096458 
L 360.492282 -365.096458 
L 361.939213 -365.096458 
L 363.386145 -365.096458 
L 364.833077 -365.096458 
L 366.280008 -365.096458 
L 367.72694 -365.096458 
L 369.173872 -365.096458 
L 370.620803 -365.096458 
L 372.067735 -365.096458 
L 373.514666 -365.096458 
L 374.961598 -365.096458 
L 376.40853 -365.096458 
L 377.855461 -365.096458 
L 379.302393 -365.096458 
L 380.749325 -365.096458 
L 382.196256 -365.096458 
L 383.643188 -365.096458 
L 385.09012 -365.096458 
L 386.537051 -365.096458 
L 386.537051 -365.244556 
L 386.537051 -365.244556 
L 385.09012 -365.324122 
L 383.643188 -365.439645 
L 382.196256 -365.603772 
L 380.749325 -365.831905 
L 379.302393 -366.142084 
L 377.855461 -366.554525 
L 376.40853 -367.090722 
L 374.961598 -367.772085 
L 373.514666 -368.618095 
L 372.067735 -369.64409 
L 370.620803 -370.858822 
L 369.173872 -372.262077 
L 367.72694 -373.842641 
L 366.280008 -375.576992 
L 364.833077 -377.428996 
L 363.386145 -379.350863 
L 361.939213 -381.285422 
L 360.492282 -383.169609 
L 359.04535 -384.93889 
L 357.598419 -386.532143 
L 356.151487 -387.896465 
L 354.704555 -388.991342 
L 353.257624 -389.79172 
L 351.810692 -390.28969 
L 350.36376 -390.494704 
L 348.916829 -390.432502 
L 347.469897 -390.143061 
L 346.022966 -389.67799 
L 344.576034 -389.097785 
L 343.129102 -388.469216 
L 341.682171 -387.862959 
L 340.235239 -387.351398 
L 338.788307 -387.006336 
L 337.341376 -386.896352 
L 335.894444 -387.083544 
L 334.447513 -387.619599 
L 333.000581 -388.54136 
L 331.553649 -389.866317 
L 330.106718 -391.588664 
L 328.659786 -393.676658 
L 327.212854 -396.071964 
L 325.765923 -398.691462 
L 324.318991 -401.431678 
L 322.87206 -404.175585 
L 321.425128 -406.801158 
L 319.978196 -409.190756 
L 318.531265 -411.240274 
L 317.084333 -412.867023 
L 315.637401 -414.015495 
L 314.19047 -414.660496 
L 312.743538 -414.807493 
L 311.296606 -414.490412 
L 309.849675 -413.767377 
L 308.402743 -412.715083 
L 306.955812 -411.422488 
L 305.50888 -409.984459 
L 304.061948 -408.495844 
L 302.615017 -407.046242 
L 301.168085 -405.715599 
L 299.721153 -404.570642 
L 298.274222 -403.662119 
L 296.82729 -403.022834 
L 295.380359 -402.666504 
L 293.933427 -402.587525 
L 292.486495 -402.761772 
L 291.039564 -403.148501 
L 289.592632 -403.693393 
L 288.1457 -404.332648 
L 286.698769 -404.997889 
L 285.251837 -405.621561 
L 283.804906 -406.142355 
L 282.357974 -406.510213 
L 280.911042 -406.690434 
L 279.464111 -406.666492 
L 278.017179 -406.441304 
L 276.570247 -406.03679 
L 275.123316 -405.491758 
L 273.676384 -404.858271 
L 272.229453 -404.19681 
L 270.782521 -403.570664 
L 269.335589 -403.040065 
L 267.888658 -402.656628 
L 266.441726 -402.458653 
L 264.994794 -402.467783 
L 263.547863 -402.687376 
L 262.100931 -403.102793 
L 260.654 -403.683605 
L 259.207068 -404.387502 
L 257.760136 -405.165528 
L 256.313205 -405.968089 
L 254.866273 -406.751113 
L 253.419341 -407.481685 
L 251.97241 -408.142519 
L 250.525478 -408.734709 
L 249.078546 -409.278321 
L 247.631615 -409.810616 
L 246.184683 -410.381878 
L 244.737752 -411.049129 
L 243.29082 -411.868243 
L 241.843888 -412.885252 
L 240.396957 -414.127813 
L 238.950025 -415.597884 
L 237.503093 -417.266665 
L 236.056162 -419.072627 
L 234.60923 -420.923207 
L 233.162299 -422.700274 
L 231.715367 -424.269036 
L 230.268435 -425.489597 
L 228.821504 -426.229951 
L 227.374572 -426.378998 
L 225.92764 -425.858058 
L 224.480709 -424.629498 
L 223.033777 -422.701419 
L 221.586846 -420.127776 
L 220.139914 -417.003908 
L 218.692982 -413.457977 
L 217.246051 -409.639343 
L 215.799119 -405.705254 
L 214.352187 -401.807425 
L 212.905256 -398.080022 
L 211.458324 -394.630382 
L 210.011393 -391.533374 
L 208.564461 -388.829845 
L 207.117529 -386.52906 
L 205.670598 -384.614577 
L 204.223666 -383.052597 
L 202.776734 -381.801611 
L 201.329803 -380.822067 
L 199.882871 -380.084858 
L 198.43594 -379.577611 
L 196.989008 -379.308074 
L 195.542076 -379.304211 
L 194.095145 -379.610986 
L 192.648213 -380.284155 
L 191.201281 -381.381672 
L 189.75435 -382.953585 
L 188.307418 -385.03149 
L 186.860486 -387.618694 
L 185.413555 -390.682315 
L 183.966623 -394.148418 
L 182.519692 -397.901086 
L 181.07276 -401.786008 
L 179.625828 -405.618628 
L 178.178897 -409.196436 
L 176.731965 -412.314333 
L 175.285033 -414.78157 
L 173.838102 -416.438416 
L 172.39117 -417.170598 
L 170.944239 -416.9198 
L 169.497307 -415.688922 
L 168.050375 -413.541511 
L 166.603444 -410.595527 
L 165.156512 -407.012384 
L 163.70958 -402.982765 
L 162.262649 -398.711092 
L 160.815717 -394.400532 
L 159.368786 -390.240186 
L 157.921854 -386.395612 
L 156.474922 -383.003177 
L 155.027991 -380.168132 
L 153.581059 -377.965698 
L 152.134127 -376.444111 
L 150.687196 -375.628402 
L 149.240264 -375.523768 
L 147.793333 -376.117698 
L 146.346401 -377.380416 
L 144.899469 -379.263724 
L 143.452538 -381.698784 
L 142.005606 -384.593734 
L 140.558674 -387.832253 
L 139.111743 -391.274132 
L 137.664811 -394.758684 
L 136.21788 -398.111373 
L 134.770948 -401.153499 
L 133.324016 -403.714159 
L 131.877085 -405.643233 
L 130.430153 -406.823783 
L 128.983221 -407.18222 
L 127.53629 -406.694794 
L 126.089358 -405.389438 
L 124.642426 -403.342635 
L 123.195495 -400.671691 
L 121.748563 -397.523423 
L 120.301632 -394.060715 
L 118.8547 -390.448639 
L 117.407768 -386.841725 
L 115.960837 -383.373688 
L 114.513905 -380.150466 
L 113.066973 -377.246842 
L 111.620042 -374.706468 
L 110.17311 -372.544699 
L 108.726179 -370.753372 
L 107.279247 -369.306646 
L 105.832315 -368.16703 
L 104.385384 -367.290946 
L 102.938452 -366.633349 
L 101.49152 -366.151206 
L 100.044589 -365.805792 
L 98.597657 -365.563922 
z
" id="m29c9a175bf" style="stroke:#ff4824;"/>
    </defs>
    <g clip-path="url(#p324bf48c65)">
     <use style="fill:#ff4824;fill-opacity:0.25;stroke:#ff4824;" x="0" xlink:href="#m29c9a175bf" y="440.963125"/>
    </g>
   </g>
   <g id="matplotlib.axis_3">
    <g id="xtick_8">
     <g id="line2d_13">
      <g>
       <use style="stroke:#000000;stroke-width:0.8;" x="112.272906" xlink:href="#m5776eee228" y="75.866667"/>
      </g>
     </g>
    </g>
    <g id="xtick_9">
     <g id="line2d_14">
      <g>
       <use style="stroke:#000000;stroke-width:0.8;" x="154.303373" xlink:href="#m5776eee228" y="75.866667"/>
      </g>
     </g>
    </g>
    <g id="xtick_10">
     <g id="line2d_15">
      <g>
       <use style="stroke:#000000;stroke-width:0.8;" x="196.33384" xlink:href="#m5776eee228" y="75.866667"/>
      </g>
     </g>
    </g>
    <g id="xtick_11">
     <g id="line2d_16">
      <g>
       <use style="stroke:#000000;stroke-width:0.8;" x="238.364307" xlink:href="#m5776eee228" y="75.866667"/>
      </g>
     </g>
    </g>
    <g id="xtick_12">
     <g id="line2d_17">
      <g>
       <use style="stroke:#000000;stroke-width:0.8;" x="280.394774" xlink:href="#m5776eee228" y="75.866667"/>
      </g>
     </g>
    </g>
    <g id="xtick_13">
     <g id="line2d_18">
      <g>
       <use style="stroke:#000000;stroke-width:0.8;" x="322.425242" xlink:href="#m5776eee228" y="75.866667"/>
      </g>
     </g>
    </g>
    <g id="xtick_14">
     <g id="line2d_19">
      <g>
       <use style="stroke:#000000;stroke-width:0.8;" x="364.455709" xlink:href="#m5776eee228" y="75.866667"/>
      </g>
     </g>
    </g>
   </g>
   <g id="matplotlib.axis_4">
    <g id="ytick_6"/>
    <g id="ytick_7"/>
   </g>
   <g id="patch_6">
    <path d="M 84.200687 75.866667 
L 400.934021 75.866667 
" style="fill:none;stroke:#000000;stroke-linecap:square;stroke-linejoin:miter;stroke-width:0.8;"/>
   </g>
  </g>
  <g id="axes_3">
   <g id="patch_7">
    <path d="M 400.934021 397.6 
L 464.280687 397.6 
L 464.280687 75.866667 
L 400.934021 75.866667 
z
" style="fill:#ffffff;"/>
   </g>
   <g id="matplotlib.axis_5">
    <g id="xtick_15"/>
    <g id="xtick_16"/>
    <g id="xtick_17"/>
   </g>
   <g id="matplotlib.axis_6">
    <g id="ytick_8">
     <g id="line2d_20">
      <g>
       <use style="stroke:#000000;stroke-width:0.8;" x="400.934021" xlink:href="#mfcd1eb9cc8" y="353.727273"/>
      </g>
     </g>
    </g>
    <g id="ytick_9">
     <g id="line2d_21">
      <g>
       <use style="stroke:#000000;stroke-width:0.8;" x="400.934021" xlink:href="#mfcd1eb9cc8" y="295.230303"/>
      </g>
     </g>
    </g>
    <g id="ytick_10">
     <g id="line2d_22">
      <g>
       <use style="stroke:#000000;stroke-width:0.8;" x="400.934021" xlink:href="#mfcd1eb9cc8" y="236.733333"/>
      </g>
     </g>
    </g>
    <g id="ytick_11">
     <g id="line2d_23">
      <g>
       <use style="stroke:#000000;stroke-width:0.8;" x="400.934021" xlink:href="#mfcd1eb9cc8" y="178.236364"/>
      </g>
     </g>
    </g>
    <g id="ytick_12">
     <g id="line2d_24">
      <g>
       <use style="stroke:#000000;stroke-width:0.8;" x="400.934021" xlink:href="#mfcd1eb9cc8" y="119.739394"/>
      </g>
     </g>
    </g>
   </g>
   <g id="patch_8">
    <path d="M 400.934021 397.6 
L 400.934021 75.866667 
" style="fill:none;stroke:#000000;stroke-linecap:square;stroke-linejoin:miter;stroke-width:0.8;"/>
   </g>
  </g>
  <g id="text_15">
   <text style="font-family:DejaVu Sans;font-size:14px;font-stretch:normal;font-style:normal;font-weight:normal;" transform="translate(247.260375 17.837812)">1.IN</text>
   <text style="font-family:DejaVu Sans;font-size:14px;font-stretch:normal;font-style:normal;font-weight:normal;" transform="translate(192.093813 33.51475)">MRCA: China, 100%</text>
  </g>
 </g>
 <defs>
  <clipPath id="p6e2b8995e4">
   <rect height="321.733333" width="316.733333" x="84.200688" y="75.866667"/>
  </clipPath>
  <clipPath id="p324bf48c65">
   <rect height="64.346667" width="316.733333" x="84.200688" y="11.52"/>
  </clipPath>
 </defs>
</svg>
