<?xml version="1.0" encoding="utf-8" standalone="no"?>
<!DOCTYPE svg PUBLIC "-//W3C//DTD SVG 1.1//EN"
  "http://www.w3.org/Graphics/SVG/1.1/DTD/svg11.dtd">
<!-- Created with matplotlib (https://matplotlib.org/) -->
<svg height="166.509937pt" version="1.1" viewBox="0 0 315.140625 166.509937" width="315.140625pt" xmlns="http://www.w3.org/2000/svg" xmlns:xlink="http://www.w3.org/1999/xlink">
 <metadata>
  <rdf:RDF xmlns:cc="http://creativecommons.org/ns#" xmlns:dc="http://purl.org/dc/elements/1.1/" xmlns:rdf="http://www.w3.org/1999/02/22-rdf-syntax-ns#">
   <cc:Work>
    <dc:type rdf:resource="http://purl.org/dc/dcmitype/StillImage"/>
    <dc:date>2021-04-05T14:37:25.104700</dc:date>
    <dc:format>image/svg+xml</dc:format>
    <dc:creator>
     <cc:Agent>
      <dc:title>Matplotlib v3.3.2, https://matplotlib.org/</dc:title>
     </cc:Agent>
    </dc:creator>
   </cc:Work>
  </rdf:RDF>
 </metadata>
 <defs>
  <style type="text/css">*{stroke-linecap:butt;stroke-linejoin:round;}</style>
 </defs>
 <g id="figure_1">
  <g id="patch_1">
   <path d="M 0 166.509937 
L 315.140625 166.509937 
L 315.140625 0 
L 0 0 
z
" style="fill:#ffffff;"/>
  </g>
  <g id="axes_1">
   <g id="patch_2">
    <path d="M 40.100625 137.664 
L 307.940625 137.664 
L 307.940625 7.2 
L 40.100625 7.2 
z
" style="fill:#ffffff;"/>
   </g>
   <g id="matplotlib.axis_1">
    <g id="xtick_1">
     <g id="line2d_1">
      <defs>
       <path d="M 0 0 
L 0 3.5 
" id="m3f1b96ab8f" style="stroke:#262626;stroke-width:0.8;"/>
      </defs>
      <g>
       <use style="fill:#262626;stroke:#262626;stroke-width:0.8;" x="62.39817" xlink:href="#m3f1b96ab8f" y="137.664"/>
      </g>
     </g>
     <g id="text_1">
      <!-- −4000 -->
      <g style="fill:#262626;" transform="translate(53.940748 148.463219)scale(0.05 -0.05)">
       <defs>
        <path d="M 10.59375 35.5 
L 73.1875 35.5 
L 73.1875 27.203125 
L 10.59375 27.203125 
z
" id="DejaVuSans-8722"/>
        <path d="M 37.796875 64.3125 
L 12.890625 25.390625 
L 37.796875 25.390625 
z
M 35.203125 72.90625 
L 47.609375 72.90625 
L 47.609375 25.390625 
L 58.015625 25.390625 
L 58.015625 17.1875 
L 47.609375 17.1875 
L 47.609375 0 
L 37.796875 0 
L 37.796875 17.1875 
L 4.890625 17.1875 
L 4.890625 26.703125 
z
" id="DejaVuSans-52"/>
        <path d="M 31.78125 66.40625 
Q 24.171875 66.40625 20.328125 58.90625 
Q 16.5 51.421875 16.5 36.375 
Q 16.5 21.390625 20.328125 13.890625 
Q 24.171875 6.390625 31.78125 6.390625 
Q 39.453125 6.390625 43.28125 13.890625 
Q 47.125 21.390625 47.125 36.375 
Q 47.125 51.421875 43.28125 58.90625 
Q 39.453125 66.40625 31.78125 66.40625 
z
M 31.78125 74.21875 
Q 44.046875 74.21875 50.515625 64.515625 
Q 56.984375 54.828125 56.984375 36.375 
Q 56.984375 17.96875 50.515625 8.265625 
Q 44.046875 -1.421875 31.78125 -1.421875 
Q 19.53125 -1.421875 13.0625 8.265625 
Q 6.59375 17.96875 6.59375 36.375 
Q 6.59375 54.828125 13.0625 64.515625 
Q 19.53125 74.21875 31.78125 74.21875 
z
" id="DejaVuSans-48"/>
       </defs>
       <use xlink:href="#DejaVuSans-8722"/>
       <use x="83.789062" xlink:href="#DejaVuSans-52"/>
       <use x="147.412109" xlink:href="#DejaVuSans-48"/>
       <use x="211.035156" xlink:href="#DejaVuSans-48"/>
       <use x="274.658203" xlink:href="#DejaVuSans-48"/>
      </g>
     </g>
    </g>
    <g id="xtick_2">
     <g id="line2d_2">
      <g>
       <use style="fill:#262626;stroke:#262626;stroke-width:0.8;" x="101.402842" xlink:href="#m3f1b96ab8f" y="137.664"/>
      </g>
     </g>
     <g id="text_2">
      <!-- −3000 -->
      <g style="fill:#262626;" transform="translate(92.94542 148.463219)scale(0.05 -0.05)">
       <defs>
        <path d="M 40.578125 39.3125 
Q 47.65625 37.796875 51.625 33 
Q 55.609375 28.21875 55.609375 21.1875 
Q 55.609375 10.40625 48.1875 4.484375 
Q 40.765625 -1.421875 27.09375 -1.421875 
Q 22.515625 -1.421875 17.65625 -0.515625 
Q 12.796875 0.390625 7.625 2.203125 
L 7.625 11.71875 
Q 11.71875 9.328125 16.59375 8.109375 
Q 21.484375 6.890625 26.8125 6.890625 
Q 36.078125 6.890625 40.9375 10.546875 
Q 45.796875 14.203125 45.796875 21.1875 
Q 45.796875 27.640625 41.28125 31.265625 
Q 36.765625 34.90625 28.71875 34.90625 
L 20.21875 34.90625 
L 20.21875 43.015625 
L 29.109375 43.015625 
Q 36.375 43.015625 40.234375 45.921875 
Q 44.09375 48.828125 44.09375 54.296875 
Q 44.09375 59.90625 40.109375 62.90625 
Q 36.140625 65.921875 28.71875 65.921875 
Q 24.65625 65.921875 20.015625 65.03125 
Q 15.375 64.15625 9.8125 62.3125 
L 9.8125 71.09375 
Q 15.4375 72.65625 20.34375 73.4375 
Q 25.25 74.21875 29.59375 74.21875 
Q 40.828125 74.21875 47.359375 69.109375 
Q 53.90625 64.015625 53.90625 55.328125 
Q 53.90625 49.265625 50.4375 45.09375 
Q 46.96875 40.921875 40.578125 39.3125 
z
" id="DejaVuSans-51"/>
       </defs>
       <use xlink:href="#DejaVuSans-8722"/>
       <use x="83.789062" xlink:href="#DejaVuSans-51"/>
       <use x="147.412109" xlink:href="#DejaVuSans-48"/>
       <use x="211.035156" xlink:href="#DejaVuSans-48"/>
       <use x="274.658203" xlink:href="#DejaVuSans-48"/>
      </g>
     </g>
    </g>
    <g id="xtick_3">
     <g id="line2d_3">
      <g>
       <use style="fill:#262626;stroke:#262626;stroke-width:0.8;" x="140.407513" xlink:href="#m3f1b96ab8f" y="137.664"/>
      </g>
     </g>
     <g id="text_3">
      <!-- −2000 -->
      <g style="fill:#262626;" transform="translate(131.950092 148.463219)scale(0.05 -0.05)">
       <defs>
        <path d="M 19.1875 8.296875 
L 53.609375 8.296875 
L 53.609375 0 
L 7.328125 0 
L 7.328125 8.296875 
Q 12.9375 14.109375 22.625 23.890625 
Q 32.328125 33.6875 34.8125 36.53125 
Q 39.546875 41.84375 41.421875 45.53125 
Q 43.3125 49.21875 43.3125 52.78125 
Q 43.3125 58.59375 39.234375 62.25 
Q 35.15625 65.921875 28.609375 65.921875 
Q 23.96875 65.921875 18.8125 64.3125 
Q 13.671875 62.703125 7.8125 59.421875 
L 7.8125 69.390625 
Q 13.765625 71.78125 18.9375 73 
Q 24.125 74.21875 28.421875 74.21875 
Q 39.75 74.21875 46.484375 68.546875 
Q 53.21875 62.890625 53.21875 53.421875 
Q 53.21875 48.921875 51.53125 44.890625 
Q 49.859375 40.875 45.40625 35.40625 
Q 44.1875 33.984375 37.640625 27.21875 
Q 31.109375 20.453125 19.1875 8.296875 
z
" id="DejaVuSans-50"/>
       </defs>
       <use xlink:href="#DejaVuSans-8722"/>
       <use x="83.789062" xlink:href="#DejaVuSans-50"/>
       <use x="147.412109" xlink:href="#DejaVuSans-48"/>
       <use x="211.035156" xlink:href="#DejaVuSans-48"/>
       <use x="274.658203" xlink:href="#DejaVuSans-48"/>
      </g>
     </g>
    </g>
    <g id="xtick_4">
     <g id="line2d_4">
      <g>
       <use style="fill:#262626;stroke:#262626;stroke-width:0.8;" x="179.412185" xlink:href="#m3f1b96ab8f" y="137.664"/>
      </g>
     </g>
     <g id="text_4">
      <!-- −1000 -->
      <g style="fill:#262626;" transform="translate(170.954763 148.463219)scale(0.05 -0.05)">
       <defs>
        <path d="M 12.40625 8.296875 
L 28.515625 8.296875 
L 28.515625 63.921875 
L 10.984375 60.40625 
L 10.984375 69.390625 
L 28.421875 72.90625 
L 38.28125 72.90625 
L 38.28125 8.296875 
L 54.390625 8.296875 
L 54.390625 0 
L 12.40625 0 
z
" id="DejaVuSans-49"/>
       </defs>
       <use xlink:href="#DejaVuSans-8722"/>
       <use x="83.789062" xlink:href="#DejaVuSans-49"/>
       <use x="147.412109" xlink:href="#DejaVuSans-48"/>
       <use x="211.035156" xlink:href="#DejaVuSans-48"/>
       <use x="274.658203" xlink:href="#DejaVuSans-48"/>
      </g>
     </g>
    </g>
    <g id="xtick_5">
     <g id="line2d_5">
      <g>
       <use style="fill:#262626;stroke:#262626;stroke-width:0.8;" x="218.416856" xlink:href="#m3f1b96ab8f" y="137.664"/>
      </g>
     </g>
     <g id="text_5">
      <!-- 0 -->
      <g style="fill:#262626;" transform="translate(216.826231 148.463219)scale(0.05 -0.05)">
       <use xlink:href="#DejaVuSans-48"/>
      </g>
     </g>
    </g>
    <g id="xtick_6">
     <g id="line2d_6">
      <g>
       <use style="fill:#262626;stroke:#262626;stroke-width:0.8;" x="257.421528" xlink:href="#m3f1b96ab8f" y="137.664"/>
      </g>
     </g>
     <g id="text_6">
      <!-- 1000 -->
      <g style="fill:#262626;" transform="translate(251.059028 148.463219)scale(0.05 -0.05)">
       <use xlink:href="#DejaVuSans-49"/>
       <use x="63.623047" xlink:href="#DejaVuSans-48"/>
       <use x="127.246094" xlink:href="#DejaVuSans-48"/>
       <use x="190.869141" xlink:href="#DejaVuSans-48"/>
      </g>
     </g>
    </g>
    <g id="xtick_7">
     <g id="line2d_7">
      <g>
       <use style="fill:#262626;stroke:#262626;stroke-width:0.8;" x="296.426199" xlink:href="#m3f1b96ab8f" y="137.664"/>
      </g>
     </g>
     <g id="text_7">
      <!-- 2000 -->
      <g style="fill:#262626;" transform="translate(290.063699 148.463219)scale(0.05 -0.05)">
       <use xlink:href="#DejaVuSans-50"/>
       <use x="63.623047" xlink:href="#DejaVuSans-48"/>
       <use x="127.246094" xlink:href="#DejaVuSans-48"/>
       <use x="190.869141" xlink:href="#DejaVuSans-48"/>
      </g>
     </g>
    </g>
    <g id="text_8">
     <!-- Date -->
     <g style="fill:#262626;" transform="translate(166.850156 158.062125)scale(0.06 -0.06)">
      <defs>
       <path d="M 19.671875 64.796875 
L 19.671875 8.109375 
L 31.59375 8.109375 
Q 46.6875 8.109375 53.6875 14.9375 
Q 60.6875 21.78125 60.6875 36.53125 
Q 60.6875 51.171875 53.6875 57.984375 
Q 46.6875 64.796875 31.59375 64.796875 
z
M 9.8125 72.90625 
L 30.078125 72.90625 
Q 51.265625 72.90625 61.171875 64.09375 
Q 71.09375 55.28125 71.09375 36.53125 
Q 71.09375 17.671875 61.125 8.828125 
Q 51.171875 0 30.078125 0 
L 9.8125 0 
z
" id="DejaVuSans-68"/>
       <path d="M 34.28125 27.484375 
Q 23.390625 27.484375 19.1875 25 
Q 14.984375 22.515625 14.984375 16.5 
Q 14.984375 11.71875 18.140625 8.90625 
Q 21.296875 6.109375 26.703125 6.109375 
Q 34.1875 6.109375 38.703125 11.40625 
Q 43.21875 16.703125 43.21875 25.484375 
L 43.21875 27.484375 
z
M 52.203125 31.203125 
L 52.203125 0 
L 43.21875 0 
L 43.21875 8.296875 
Q 40.140625 3.328125 35.546875 0.953125 
Q 30.953125 -1.421875 24.3125 -1.421875 
Q 15.921875 -1.421875 10.953125 3.296875 
Q 6 8.015625 6 15.921875 
Q 6 25.140625 12.171875 29.828125 
Q 18.359375 34.515625 30.609375 34.515625 
L 43.21875 34.515625 
L 43.21875 35.40625 
Q 43.21875 41.609375 39.140625 45 
Q 35.0625 48.390625 27.6875 48.390625 
Q 23 48.390625 18.546875 47.265625 
Q 14.109375 46.140625 10.015625 43.890625 
L 10.015625 52.203125 
Q 14.9375 54.109375 19.578125 55.046875 
Q 24.21875 56 28.609375 56 
Q 40.484375 56 46.34375 49.84375 
Q 52.203125 43.703125 52.203125 31.203125 
z
" id="DejaVuSans-97"/>
       <path d="M 18.3125 70.21875 
L 18.3125 54.6875 
L 36.8125 54.6875 
L 36.8125 47.703125 
L 18.3125 47.703125 
L 18.3125 18.015625 
Q 18.3125 11.328125 20.140625 9.421875 
Q 21.96875 7.515625 27.59375 7.515625 
L 36.8125 7.515625 
L 36.8125 0 
L 27.59375 0 
Q 17.1875 0 13.234375 3.875 
Q 9.28125 7.765625 9.28125 18.015625 
L 9.28125 47.703125 
L 2.6875 47.703125 
L 2.6875 54.6875 
L 9.28125 54.6875 
L 9.28125 70.21875 
z
" id="DejaVuSans-116"/>
       <path d="M 56.203125 29.59375 
L 56.203125 25.203125 
L 14.890625 25.203125 
Q 15.484375 15.921875 20.484375 11.0625 
Q 25.484375 6.203125 34.421875 6.203125 
Q 39.59375 6.203125 44.453125 7.46875 
Q 49.3125 8.734375 54.109375 11.28125 
L 54.109375 2.78125 
Q 49.265625 0.734375 44.1875 -0.34375 
Q 39.109375 -1.421875 33.890625 -1.421875 
Q 20.796875 -1.421875 13.15625 6.1875 
Q 5.515625 13.8125 5.515625 26.8125 
Q 5.515625 40.234375 12.765625 48.109375 
Q 20.015625 56 32.328125 56 
Q 43.359375 56 49.78125 48.890625 
Q 56.203125 41.796875 56.203125 29.59375 
z
M 47.21875 32.234375 
Q 47.125 39.59375 43.09375 43.984375 
Q 39.0625 48.390625 32.421875 48.390625 
Q 24.90625 48.390625 20.390625 44.140625 
Q 15.875 39.890625 15.1875 32.171875 
z
" id="DejaVuSans-101"/>
      </defs>
      <use xlink:href="#DejaVuSans-68"/>
      <use x="77.001953" xlink:href="#DejaVuSans-97"/>
      <use x="138.28125" xlink:href="#DejaVuSans-116"/>
      <use x="177.490234" xlink:href="#DejaVuSans-101"/>
     </g>
    </g>
   </g>
   <g id="matplotlib.axis_2">
    <g id="ytick_1">
     <g id="line2d_8">
      <defs>
       <path d="M 0 0 
L -3.5 0 
" id="m93ef4c1f7f" style="stroke:#262626;stroke-width:0.8;"/>
      </defs>
      <g>
       <use style="fill:#262626;stroke:#262626;stroke-width:0.8;" x="40.100625" xlink:href="#m93ef4c1f7f" y="13.130182"/>
      </g>
     </g>
     <g id="text_9">
      <!-- 0.PRE -->
      <g style="fill:#262626;" transform="translate(18.681875 15.029791)scale(0.05 -0.05)">
       <defs>
        <path d="M 10.6875 12.40625 
L 21 12.40625 
L 21 0 
L 10.6875 0 
z
" id="DejaVuSans-46"/>
        <path d="M 19.671875 64.796875 
L 19.671875 37.40625 
L 32.078125 37.40625 
Q 38.96875 37.40625 42.71875 40.96875 
Q 46.484375 44.53125 46.484375 51.125 
Q 46.484375 57.671875 42.71875 61.234375 
Q 38.96875 64.796875 32.078125 64.796875 
z
M 9.8125 72.90625 
L 32.078125 72.90625 
Q 44.34375 72.90625 50.609375 67.359375 
Q 56.890625 61.8125 56.890625 51.125 
Q 56.890625 40.328125 50.609375 34.8125 
Q 44.34375 29.296875 32.078125 29.296875 
L 19.671875 29.296875 
L 19.671875 0 
L 9.8125 0 
z
" id="DejaVuSans-80"/>
        <path d="M 44.390625 34.1875 
Q 47.5625 33.109375 50.5625 29.59375 
Q 53.5625 26.078125 56.59375 19.921875 
L 66.609375 0 
L 56 0 
L 46.6875 18.703125 
Q 43.0625 26.03125 39.671875 28.421875 
Q 36.28125 30.8125 30.421875 30.8125 
L 19.671875 30.8125 
L 19.671875 0 
L 9.8125 0 
L 9.8125 72.90625 
L 32.078125 72.90625 
Q 44.578125 72.90625 50.734375 67.671875 
Q 56.890625 62.453125 56.890625 51.90625 
Q 56.890625 45.015625 53.6875 40.46875 
Q 50.484375 35.9375 44.390625 34.1875 
z
M 19.671875 64.796875 
L 19.671875 38.921875 
L 32.078125 38.921875 
Q 39.203125 38.921875 42.84375 42.21875 
Q 46.484375 45.515625 46.484375 51.90625 
Q 46.484375 58.296875 42.84375 61.546875 
Q 39.203125 64.796875 32.078125 64.796875 
z
" id="DejaVuSans-82"/>
        <path d="M 9.8125 72.90625 
L 55.90625 72.90625 
L 55.90625 64.59375 
L 19.671875 64.59375 
L 19.671875 43.015625 
L 54.390625 43.015625 
L 54.390625 34.71875 
L 19.671875 34.71875 
L 19.671875 8.296875 
L 56.78125 8.296875 
L 56.78125 0 
L 9.8125 0 
z
" id="DejaVuSans-69"/>
       </defs>
       <use xlink:href="#DejaVuSans-48"/>
       <use x="63.623047" xlink:href="#DejaVuSans-46"/>
       <use x="95.410156" xlink:href="#DejaVuSans-80"/>
       <use x="155.712891" xlink:href="#DejaVuSans-82"/>
       <use x="225.195312" xlink:href="#DejaVuSans-69"/>
      </g>
     </g>
    </g>
    <g id="ytick_2">
     <g id="line2d_9">
      <g>
       <use style="fill:#262626;stroke:#262626;stroke-width:0.8;" x="40.100625" xlink:href="#m93ef4c1f7f" y="24.990545"/>
      </g>
     </g>
     <g id="text_10">
      <!-- 0.PE -->
      <g style="fill:#262626;" transform="translate(22.156094 26.890155)scale(0.05 -0.05)">
       <use xlink:href="#DejaVuSans-48"/>
       <use x="63.623047" xlink:href="#DejaVuSans-46"/>
       <use x="95.410156" xlink:href="#DejaVuSans-80"/>
       <use x="155.712891" xlink:href="#DejaVuSans-69"/>
      </g>
     </g>
    </g>
    <g id="ytick_3">
     <g id="line2d_10">
      <g>
       <use style="fill:#262626;stroke:#262626;stroke-width:0.8;" x="40.100625" xlink:href="#m93ef4c1f7f" y="36.850909"/>
      </g>
     </g>
     <g id="text_11">
      <!-- 0.ANT -->
      <g style="fill:#262626;" transform="translate(18.115469 38.750518)scale(0.05 -0.05)">
       <defs>
        <path d="M 34.1875 63.1875 
L 20.796875 26.90625 
L 47.609375 26.90625 
z
M 28.609375 72.90625 
L 39.796875 72.90625 
L 67.578125 0 
L 57.328125 0 
L 50.6875 18.703125 
L 17.828125 18.703125 
L 11.1875 0 
L 0.78125 0 
z
" id="DejaVuSans-65"/>
        <path d="M 9.8125 72.90625 
L 23.09375 72.90625 
L 55.421875 11.921875 
L 55.421875 72.90625 
L 64.984375 72.90625 
L 64.984375 0 
L 51.703125 0 
L 19.390625 60.984375 
L 19.390625 0 
L 9.8125 0 
z
" id="DejaVuSans-78"/>
        <path d="M -0.296875 72.90625 
L 61.375 72.90625 
L 61.375 64.59375 
L 35.5 64.59375 
L 35.5 0 
L 25.59375 0 
L 25.59375 64.59375 
L -0.296875 64.59375 
z
" id="DejaVuSans-84"/>
       </defs>
       <use xlink:href="#DejaVuSans-48"/>
       <use x="63.623047" xlink:href="#DejaVuSans-46"/>
       <use x="95.410156" xlink:href="#DejaVuSans-65"/>
       <use x="163.818359" xlink:href="#DejaVuSans-78"/>
       <use x="238.623047" xlink:href="#DejaVuSans-84"/>
      </g>
     </g>
    </g>
    <g id="ytick_4">
     <g id="line2d_11">
      <g>
       <use style="fill:#262626;stroke:#262626;stroke-width:0.8;" x="40.100625" xlink:href="#m93ef4c1f7f" y="48.711273"/>
      </g>
     </g>
     <g id="text_12">
      <!-- 3.ANT -->
      <g style="fill:#262626;" transform="translate(18.115469 50.610882)scale(0.05 -0.05)">
       <use xlink:href="#DejaVuSans-51"/>
       <use x="63.623047" xlink:href="#DejaVuSans-46"/>
       <use x="95.410156" xlink:href="#DejaVuSans-65"/>
       <use x="163.818359" xlink:href="#DejaVuSans-78"/>
       <use x="238.623047" xlink:href="#DejaVuSans-84"/>
      </g>
     </g>
    </g>
    <g id="ytick_5">
     <g id="line2d_12">
      <g>
       <use style="fill:#262626;stroke:#262626;stroke-width:0.8;" x="40.100625" xlink:href="#m93ef4c1f7f" y="60.571636"/>
      </g>
     </g>
     <g id="text_13">
      <!-- 4.ANT -->
      <g style="fill:#262626;" transform="translate(18.115469 62.471246)scale(0.05 -0.05)">
       <use xlink:href="#DejaVuSans-52"/>
       <use x="63.623047" xlink:href="#DejaVuSans-46"/>
       <use x="95.410156" xlink:href="#DejaVuSans-65"/>
       <use x="163.818359" xlink:href="#DejaVuSans-78"/>
       <use x="238.623047" xlink:href="#DejaVuSans-84"/>
      </g>
     </g>
    </g>
    <g id="ytick_6">
     <g id="line2d_13">
      <g>
       <use style="fill:#262626;stroke:#262626;stroke-width:0.8;" x="40.100625" xlink:href="#m93ef4c1f7f" y="72.432"/>
      </g>
     </g>
     <g id="text_14">
      <!-- 2.ANT -->
      <g style="fill:#262626;" transform="translate(18.115469 74.331609)scale(0.05 -0.05)">
       <use xlink:href="#DejaVuSans-50"/>
       <use x="63.623047" xlink:href="#DejaVuSans-46"/>
       <use x="95.410156" xlink:href="#DejaVuSans-65"/>
       <use x="163.818359" xlink:href="#DejaVuSans-78"/>
       <use x="238.623047" xlink:href="#DejaVuSans-84"/>
      </g>
     </g>
    </g>
    <g id="ytick_7">
     <g id="line2d_14">
      <g>
       <use style="fill:#262626;stroke:#262626;stroke-width:0.8;" x="40.100625" xlink:href="#m93ef4c1f7f" y="84.292364"/>
      </g>
     </g>
     <g id="text_15">
      <!-- 2.MED -->
      <g style="fill:#262626;" transform="translate(17.006875 86.191973)scale(0.05 -0.05)">
       <defs>
        <path d="M 9.8125 72.90625 
L 24.515625 72.90625 
L 43.109375 23.296875 
L 61.8125 72.90625 
L 76.515625 72.90625 
L 76.515625 0 
L 66.890625 0 
L 66.890625 64.015625 
L 48.09375 14.015625 
L 38.1875 14.015625 
L 19.390625 64.015625 
L 19.390625 0 
L 9.8125 0 
z
" id="DejaVuSans-77"/>
       </defs>
       <use xlink:href="#DejaVuSans-50"/>
       <use x="63.623047" xlink:href="#DejaVuSans-46"/>
       <use x="95.410156" xlink:href="#DejaVuSans-77"/>
       <use x="181.689453" xlink:href="#DejaVuSans-69"/>
       <use x="244.873047" xlink:href="#DejaVuSans-68"/>
      </g>
     </g>
    </g>
    <g id="ytick_8">
     <g id="line2d_15">
      <g>
       <use style="fill:#262626;stroke:#262626;stroke-width:0.8;" x="40.100625" xlink:href="#m93ef4c1f7f" y="96.152727"/>
      </g>
     </g>
     <g id="text_16">
      <!-- 1.PRE -->
      <g style="fill:#262626;" transform="translate(18.681875 98.052337)scale(0.05 -0.05)">
       <use xlink:href="#DejaVuSans-49"/>
       <use x="63.623047" xlink:href="#DejaVuSans-46"/>
       <use x="95.410156" xlink:href="#DejaVuSans-80"/>
       <use x="155.712891" xlink:href="#DejaVuSans-82"/>
       <use x="225.195312" xlink:href="#DejaVuSans-69"/>
      </g>
     </g>
    </g>
    <g id="ytick_9">
     <g id="line2d_16">
      <g>
       <use style="fill:#262626;stroke:#262626;stroke-width:0.8;" x="40.100625" xlink:href="#m93ef4c1f7f" y="108.013091"/>
      </g>
     </g>
     <g id="text_17">
      <!-- 1.ANT -->
      <g style="fill:#262626;" transform="translate(18.115469 109.9127)scale(0.05 -0.05)">
       <use xlink:href="#DejaVuSans-49"/>
       <use x="63.623047" xlink:href="#DejaVuSans-46"/>
       <use x="95.410156" xlink:href="#DejaVuSans-65"/>
       <use x="163.818359" xlink:href="#DejaVuSans-78"/>
       <use x="238.623047" xlink:href="#DejaVuSans-84"/>
      </g>
     </g>
    </g>
    <g id="ytick_10">
     <g id="line2d_17">
      <g>
       <use style="fill:#262626;stroke:#262626;stroke-width:0.8;" x="40.100625" xlink:href="#m93ef4c1f7f" y="119.873455"/>
      </g>
     </g>
     <g id="text_18">
      <!-- 1.IN -->
      <g style="fill:#262626;" transform="translate(23.114688 121.773064)scale(0.05 -0.05)">
       <defs>
        <path d="M 9.8125 72.90625 
L 19.671875 72.90625 
L 19.671875 0 
L 9.8125 0 
z
" id="DejaVuSans-73"/>
       </defs>
       <use xlink:href="#DejaVuSans-49"/>
       <use x="63.623047" xlink:href="#DejaVuSans-46"/>
       <use x="95.410156" xlink:href="#DejaVuSans-73"/>
       <use x="124.902344" xlink:href="#DejaVuSans-78"/>
      </g>
     </g>
    </g>
    <g id="ytick_11">
     <g id="line2d_18">
      <g>
       <use style="fill:#262626;stroke:#262626;stroke-width:0.8;" x="40.100625" xlink:href="#m93ef4c1f7f" y="131.733818"/>
      </g>
     </g>
     <g id="text_19">
      <!-- 1.ORI -->
      <g style="fill:#262626;" transform="translate(19.445156 133.633428)scale(0.05 -0.05)">
       <defs>
        <path d="M 39.40625 66.21875 
Q 28.65625 66.21875 22.328125 58.203125 
Q 16.015625 50.203125 16.015625 36.375 
Q 16.015625 22.609375 22.328125 14.59375 
Q 28.65625 6.59375 39.40625 6.59375 
Q 50.140625 6.59375 56.421875 14.59375 
Q 62.703125 22.609375 62.703125 36.375 
Q 62.703125 50.203125 56.421875 58.203125 
Q 50.140625 66.21875 39.40625 66.21875 
z
M 39.40625 74.21875 
Q 54.734375 74.21875 63.90625 63.9375 
Q 73.09375 53.65625 73.09375 36.375 
Q 73.09375 19.140625 63.90625 8.859375 
Q 54.734375 -1.421875 39.40625 -1.421875 
Q 24.03125 -1.421875 14.8125 8.828125 
Q 5.609375 19.09375 5.609375 36.375 
Q 5.609375 53.65625 14.8125 63.9375 
Q 24.03125 74.21875 39.40625 74.21875 
z
" id="DejaVuSans-79"/>
       </defs>
       <use xlink:href="#DejaVuSans-49"/>
       <use x="63.623047" xlink:href="#DejaVuSans-46"/>
       <use x="95.410156" xlink:href="#DejaVuSans-79"/>
       <use x="174.121094" xlink:href="#DejaVuSans-82"/>
       <use x="243.603516" xlink:href="#DejaVuSans-73"/>
      </g>
     </g>
    </g>
    <g id="text_20">
     <!-- Clade -->
     <g style="fill:#262626;" transform="translate(11.759062 80.949187)rotate(-90)scale(0.06 -0.06)">
      <defs>
       <path d="M 64.40625 67.28125 
L 64.40625 56.890625 
Q 59.421875 61.53125 53.78125 63.8125 
Q 48.140625 66.109375 41.796875 66.109375 
Q 29.296875 66.109375 22.65625 58.46875 
Q 16.015625 50.828125 16.015625 36.375 
Q 16.015625 21.96875 22.65625 14.328125 
Q 29.296875 6.6875 41.796875 6.6875 
Q 48.140625 6.6875 53.78125 8.984375 
Q 59.421875 11.28125 64.40625 15.921875 
L 64.40625 5.609375 
Q 59.234375 2.09375 53.4375 0.328125 
Q 47.65625 -1.421875 41.21875 -1.421875 
Q 24.65625 -1.421875 15.125 8.703125 
Q 5.609375 18.84375 5.609375 36.375 
Q 5.609375 53.953125 15.125 64.078125 
Q 24.65625 74.21875 41.21875 74.21875 
Q 47.75 74.21875 53.53125 72.484375 
Q 59.328125 70.75 64.40625 67.28125 
z
" id="DejaVuSans-67"/>
       <path d="M 9.421875 75.984375 
L 18.40625 75.984375 
L 18.40625 0 
L 9.421875 0 
z
" id="DejaVuSans-108"/>
       <path d="M 45.40625 46.390625 
L 45.40625 75.984375 
L 54.390625 75.984375 
L 54.390625 0 
L 45.40625 0 
L 45.40625 8.203125 
Q 42.578125 3.328125 38.25 0.953125 
Q 33.9375 -1.421875 27.875 -1.421875 
Q 17.96875 -1.421875 11.734375 6.484375 
Q 5.515625 14.40625 5.515625 27.296875 
Q 5.515625 40.1875 11.734375 48.09375 
Q 17.96875 56 27.875 56 
Q 33.9375 56 38.25 53.625 
Q 42.578125 51.265625 45.40625 46.390625 
z
M 14.796875 27.296875 
Q 14.796875 17.390625 18.875 11.75 
Q 22.953125 6.109375 30.078125 6.109375 
Q 37.203125 6.109375 41.296875 11.75 
Q 45.40625 17.390625 45.40625 27.296875 
Q 45.40625 37.203125 41.296875 42.84375 
Q 37.203125 48.484375 30.078125 48.484375 
Q 22.953125 48.484375 18.875 42.84375 
Q 14.796875 37.203125 14.796875 27.296875 
z
" id="DejaVuSans-100"/>
      </defs>
      <use xlink:href="#DejaVuSans-67"/>
      <use x="69.824219" xlink:href="#DejaVuSans-108"/>
      <use x="97.607422" xlink:href="#DejaVuSans-97"/>
      <use x="158.886719" xlink:href="#DejaVuSans-100"/>
      <use x="222.363281" xlink:href="#DejaVuSans-101"/>
     </g>
    </g>
   </g>
   <g id="PolyCollection_1">
    <defs>
     <path d="M 52.27517 -153.224455 
L 52.27517 -153.535057 
L 52.446182 -153.578812 
L 52.617194 -153.632399 
L 52.788205 -153.697287 
L 52.959217 -153.774968 
L 53.130228 -153.8669 
L 53.30124 -153.974441 
L 53.472251 -154.09877 
L 53.643263 -154.240808 
L 53.814275 -154.401126 
L 53.985286 -154.579861 
L 54.156298 -154.776643 
L 54.327309 -154.990522 
L 54.498321 -155.219929 
L 54.669332 -155.462652 
L 54.840344 -155.715847 
L 55.011356 -155.976076 
L 55.182367 -156.239389 
L 55.353379 -156.501425 
L 55.52439 -156.757557 
L 55.695402 -157.003055 
L 55.866413 -157.233257 
L 56.037425 -157.443766 
L 56.208437 -157.630618 
L 56.379448 -157.79046 
L 56.55046 -157.920679 
L 56.721471 -158.019515 
L 56.892483 -158.086121 
L 57.063495 -158.120585 
L 57.234506 -158.123901 
L 57.405518 -158.097902 
L 57.576529 -158.045147 
L 57.747541 -157.968785 
L 57.918552 -157.872394 
L 58.089564 -157.75981 
L 58.260576 -157.634954 
L 58.431587 -157.501673 
L 58.602599 -157.363593 
L 58.77361 -157.224004 
L 58.944622 -157.085767 
L 59.115633 -156.951255 
L 59.286645 -156.822327 
L 59.457657 -156.700327 
L 59.628668 -156.586108 
L 59.79968 -156.480078 
L 59.970691 -156.382258 
L 60.141703 -156.292355 
L 60.312714 -156.209832 
L 60.483726 -156.133981 
L 60.654738 -156.063991 
L 60.825749 -155.999012 
L 60.996761 -155.938206 
L 61.167772 -155.880786 
L 61.338784 -155.826053 
L 61.509795 -155.773412 
L 61.680807 -155.722384 
L 61.851819 -155.67261 
L 62.02283 -155.623846 
L 62.193842 -155.575949 
L 62.364853 -155.528863 
L 62.535865 -155.482599 
L 62.706876 -155.437213 
L 62.877888 -155.392782 
L 63.0489 -155.349379 
L 63.219911 -155.307054 
L 63.390923 -155.265809 
L 63.561934 -155.225584 
L 63.732946 -155.186237 
L 63.903957 -155.147541 
L 64.074969 -155.10918 
L 64.245981 -155.070749 
L 64.416992 -155.031771 
L 64.588004 -154.99171 
L 64.759015 -154.950001 
L 64.930027 -154.906078 
L 65.101038 -154.859409 
L 65.27205 -154.809531 
L 65.443062 -154.756086 
L 65.614073 -154.698852 
L 65.785085 -154.637767 
L 65.956096 -154.572943 
L 66.127108 -154.504676 
L 66.298119 -154.433436 
L 66.469131 -154.359852 
L 66.640143 -154.284686 
L 66.811154 -154.208799 
L 66.982166 -154.133109 
L 67.153177 -154.058551 
L 67.324189 -153.986029 
L 67.4952 -153.916385 
L 67.666212 -153.850356 
L 67.837224 -153.788556 
L 68.008235 -153.731453 
L 68.179247 -153.679363 
L 68.350258 -153.632451 
L 68.52127 -153.590737 
L 68.692282 -153.554115 
L 68.863293 -153.522366 
L 69.034305 -153.495188 
L 69.205316 -153.472211 
L 69.205316 -153.287301 
L 69.205316 -153.287301 
L 69.034305 -153.264324 
L 68.863293 -153.237145 
L 68.692282 -153.205397 
L 68.52127 -153.168774 
L 68.350258 -153.127061 
L 68.179247 -153.080149 
L 68.008235 -153.028059 
L 67.837224 -152.970956 
L 67.666212 -152.909155 
L 67.4952 -152.843127 
L 67.324189 -152.773482 
L 67.153177 -152.700961 
L 66.982166 -152.626402 
L 66.811154 -152.550713 
L 66.640143 -152.474826 
L 66.469131 -152.39966 
L 66.298119 -152.326076 
L 66.127108 -152.254835 
L 65.956096 -152.186568 
L 65.785085 -152.121745 
L 65.614073 -152.060659 
L 65.443062 -152.003425 
L 65.27205 -151.949981 
L 65.101038 -151.900102 
L 64.930027 -151.853433 
L 64.759015 -151.80951 
L 64.588004 -151.767801 
L 64.416992 -151.72774 
L 64.245981 -151.688762 
L 64.074969 -151.650331 
L 63.903957 -151.61197 
L 63.732946 -151.573275 
L 63.561934 -151.533928 
L 63.390923 -151.493702 
L 63.219911 -151.452458 
L 63.0489 -151.410132 
L 62.877888 -151.36673 
L 62.706876 -151.322298 
L 62.535865 -151.276912 
L 62.364853 -151.230648 
L 62.193842 -151.183562 
L 62.02283 -151.135665 
L 61.851819 -151.086901 
L 61.680807 -151.037128 
L 61.509795 -150.9861 
L 61.338784 -150.933458 
L 61.167772 -150.878725 
L 60.996761 -150.821306 
L 60.825749 -150.760499 
L 60.654738 -150.695521 
L 60.483726 -150.625531 
L 60.312714 -150.549679 
L 60.141703 -150.467156 
L 59.970691 -150.377253 
L 59.79968 -150.279434 
L 59.628668 -150.173403 
L 59.457657 -150.059184 
L 59.286645 -149.937184 
L 59.115633 -149.808256 
L 58.944622 -149.673744 
L 58.77361 -149.535507 
L 58.602599 -149.395918 
L 58.431587 -149.257838 
L 58.260576 -149.124557 
L 58.089564 -148.999701 
L 57.918552 -148.887117 
L 57.747541 -148.790727 
L 57.576529 -148.714365 
L 57.405518 -148.66161 
L 57.234506 -148.63561 
L 57.063495 -148.638927 
L 56.892483 -148.673391 
L 56.721471 -148.739997 
L 56.55046 -148.838832 
L 56.379448 -148.969051 
L 56.208437 -149.128893 
L 56.037425 -149.315746 
L 55.866413 -149.526254 
L 55.695402 -149.756457 
L 55.52439 -150.001954 
L 55.353379 -150.258087 
L 55.182367 -150.520123 
L 55.011356 -150.783435 
L 54.840344 -151.043665 
L 54.669332 -151.296859 
L 54.498321 -151.539583 
L 54.327309 -151.76899 
L 54.156298 -151.982869 
L 53.985286 -152.17965 
L 53.814275 -152.358386 
L 53.643263 -152.518703 
L 53.472251 -152.660741 
L 53.30124 -152.785071 
L 53.130228 -152.892611 
L 52.959217 -152.984543 
L 52.788205 -153.062224 
L 52.617194 -153.127112 
L 52.446182 -153.180699 
L 52.27517 -153.224455 
z
" id="mdaf16e1f58" style="stroke:#3f3f3f;stroke-width:0.5;"/>
    </defs>
    <g clip-path="url(#p42d50dec4e)">
     <use style="fill:#8000ff;stroke:#3f3f3f;stroke-width:0.5;" x="0" xlink:href="#mdaf16e1f58" y="166.509937"/>
    </g>
   </g>
   <g id="PolyCollection_2">
    <defs>
     <path d="M 65.453823 -141.475006 
L 65.453823 -141.563778 
L 65.769494 -141.579661 
L 66.085165 -141.599909 
L 66.400837 -141.625246 
L 66.716508 -141.656375 
L 67.032179 -141.693922 
L 67.347851 -141.738388 
L 67.663522 -141.790097 
L 67.979193 -141.849144 
L 68.294864 -141.91536 
L 68.610536 -141.988288 
L 68.926207 -142.067175 
L 69.241878 -142.150991 
L 69.55755 -142.238462 
L 69.873221 -142.328126 
L 70.188892 -142.418403 
L 70.504564 -142.507669 
L 70.820235 -142.594335 
L 71.135906 -142.676926 
L 71.451578 -142.754141 
L 71.767249 -142.824908 
L 72.08292 -142.888415 
L 72.398592 -142.944127 
L 72.714263 -142.991789 
L 73.029934 -143.031412 
L 73.345605 -143.063247 
L 73.661277 -143.087754 
L 73.976948 -143.105564 
L 74.292619 -143.11744 
L 74.608291 -143.124243 
L 74.923962 -143.126891 
L 75.239633 -143.126336 
L 75.555305 -143.123537 
L 75.870976 -143.119448 
L 76.186647 -143.115011 
L 76.502319 -143.111165 
L 76.81799 -143.108852 
L 77.133661 -143.109048 
L 77.449333 -143.112785 
L 77.765004 -143.121184 
L 78.080675 -143.135485 
L 78.396346 -143.157068 
L 78.712018 -143.187464 
L 79.027689 -143.228348 
L 79.34336 -143.281503 
L 79.659032 -143.348764 
L 79.974703 -143.431923 
L 80.290374 -143.53261 
L 80.606046 -143.652144 
L 80.921717 -143.791363 
L 81.237388 -143.95045 
L 81.55306 -144.128758 
L 81.868731 -144.324671 
L 82.184402 -144.535495 
L 82.500074 -144.757419 
L 82.815745 -144.98555 
L 83.131416 -145.214036 
L 83.447088 -145.436279 
L 83.762759 -145.645224 
L 84.07843 -145.833728 
L 84.394101 -145.994957 
L 84.709773 -146.122804 
L 85.025444 -146.212273 
L 85.341115 -146.259812 
L 85.656787 -146.263538 
L 85.972458 -146.223358 
L 86.288129 -146.140955 
L 86.603801 -146.019639 
L 86.919472 -145.864089 
L 87.235143 -145.680003 
L 87.550815 -145.47368 
L 87.866486 -145.251604 
L 88.182157 -145.02003 
L 88.497829 -144.784639 
L 88.8135 -144.550278 
L 89.129171 -144.320793 
L 89.444842 -144.09898 
L 89.760514 -143.886626 
L 90.076185 -143.684636 
L 90.391856 -143.493223 
L 90.707528 -143.312117 
L 91.023199 -143.140784 
L 91.33887 -142.978624 
L 91.654542 -142.825121 
L 91.970213 -142.679939 
L 92.285884 -142.542977 
L 92.601556 -142.41435 
L 92.917227 -142.294351 
L 93.232898 -142.18337 
L 93.54857 -142.081808 
L 93.864241 -141.989996 
L 94.179912 -141.908117 
L 94.495583 -141.836166 
L 94.811255 -141.77392 
L 95.126926 -141.720946 
L 95.442597 -141.676619 
L 95.758269 -141.640169 
L 96.07394 -141.610722 
L 96.389611 -141.587358 
L 96.705283 -141.569154 
L 96.705283 -141.46963 
L 96.705283 -141.46963 
L 96.389611 -141.451427 
L 96.07394 -141.428062 
L 95.758269 -141.398615 
L 95.442597 -141.362165 
L 95.126926 -141.317838 
L 94.811255 -141.264864 
L 94.495583 -141.202618 
L 94.179912 -141.130667 
L 93.864241 -141.048789 
L 93.54857 -140.956976 
L 93.232898 -140.855414 
L 92.917227 -140.744433 
L 92.601556 -140.624434 
L 92.285884 -140.495807 
L 91.970213 -140.358845 
L 91.654542 -140.213663 
L 91.33887 -140.06016 
L 91.023199 -139.898 
L 90.707528 -139.726668 
L 90.391856 -139.545561 
L 90.076185 -139.354148 
L 89.760514 -139.152158 
L 89.444842 -138.939804 
L 89.129171 -138.717991 
L 88.8135 -138.488506 
L 88.497829 -138.254145 
L 88.182157 -138.018754 
L 87.866486 -137.78718 
L 87.550815 -137.565104 
L 87.235143 -137.358782 
L 86.919472 -137.174695 
L 86.603801 -137.019145 
L 86.288129 -136.897829 
L 85.972458 -136.815426 
L 85.656787 -136.775247 
L 85.341115 -136.778972 
L 85.025444 -136.826511 
L 84.709773 -136.91598 
L 84.394101 -137.043827 
L 84.07843 -137.205056 
L 83.762759 -137.39356 
L 83.447088 -137.602505 
L 83.131416 -137.824748 
L 82.815745 -138.053234 
L 82.500074 -138.281365 
L 82.184402 -138.503289 
L 81.868731 -138.714113 
L 81.55306 -138.910026 
L 81.237388 -139.088335 
L 80.921717 -139.247421 
L 80.606046 -139.38664 
L 80.290374 -139.506174 
L 79.974703 -139.606861 
L 79.659032 -139.69002 
L 79.34336 -139.757281 
L 79.027689 -139.810436 
L 78.712018 -139.85132 
L 78.396346 -139.881716 
L 78.080675 -139.903299 
L 77.765004 -139.9176 
L 77.449333 -139.925999 
L 77.133661 -139.929736 
L 76.81799 -139.929932 
L 76.502319 -139.927619 
L 76.186647 -139.923773 
L 75.870976 -139.919336 
L 75.555305 -139.915247 
L 75.239633 -139.912448 
L 74.923962 -139.911893 
L 74.608291 -139.914541 
L 74.292619 -139.921344 
L 73.976948 -139.933221 
L 73.661277 -139.95103 
L 73.345605 -139.975537 
L 73.029934 -140.007372 
L 72.714263 -140.046995 
L 72.398592 -140.094657 
L 72.08292 -140.150369 
L 71.767249 -140.213876 
L 71.451578 -140.284643 
L 71.135906 -140.361858 
L 70.820235 -140.444449 
L 70.504564 -140.531115 
L 70.188892 -140.620381 
L 69.873221 -140.710658 
L 69.55755 -140.800322 
L 69.241878 -140.887793 
L 68.926207 -140.971609 
L 68.610536 -141.050496 
L 68.294864 -141.123424 
L 67.979193 -141.18964 
L 67.663522 -141.248687 
L 67.347851 -141.300396 
L 67.032179 -141.344862 
L 66.716508 -141.382409 
L 66.400837 -141.413538 
L 66.085165 -141.438876 
L 65.769494 -141.459123 
L 65.453823 -141.475006 
z
" id="m3b75df44f3" style="stroke:#3f3f3f;stroke-width:0.5;"/>
    </defs>
    <g clip-path="url(#p42d50dec4e)">
     <use style="fill:#4c4ffc;stroke:#3f3f3f;stroke-width:0.5;" x="0" xlink:href="#m3b75df44f3" y="166.509937"/>
    </g>
   </g>
   <g id="PolyCollection_3">
    <defs>
     <path d="M 210.752028 -129.536577 
L 210.752028 -129.78148 
L 210.869177 -129.816977 
L 210.986326 -129.860566 
L 211.103475 -129.913431 
L 211.220624 -129.976759 
L 211.337773 -130.051688 
L 211.454922 -130.139252 
L 211.572071 -130.240323 
L 211.68922 -130.355548 
L 211.80637 -130.485292 
L 211.923519 -130.629584 
L 212.040668 -130.788078 
L 212.157817 -130.960024 
L 212.274966 -131.144259 
L 212.392115 -131.339222 
L 212.509264 -131.542983 
L 212.626413 -131.753299 
L 212.743562 -131.967687 
L 212.860711 -132.183508 
L 212.97786 -132.398065 
L 213.095009 -132.608704 
L 213.212158 -132.812913 
L 213.329307 -133.00841 
L 213.446456 -133.193221 
L 213.563605 -133.365734 
L 213.680754 -133.524738 
L 213.797904 -133.669437 
L 213.915053 -133.799435 
L 214.032202 -133.914709 
L 214.149351 -134.015559 
L 214.2665 -134.102551 
L 214.383649 -134.176446 
L 214.500798 -134.238131 
L 214.617947 -134.288552 
L 214.735096 -134.328659 
L 214.852245 -134.359356 
L 214.969394 -134.38147 
L 215.086543 -134.395735 
L 215.203692 -134.402786 
L 215.320841 -134.403174 
L 215.43799 -134.397384 
L 215.555139 -134.385863 
L 215.672289 -134.369054 
L 215.789438 -134.347423 
L 215.906587 -134.321492 
L 216.023736 -134.291855 
L 216.140885 -134.259195 
L 216.258034 -134.224284 
L 216.375183 -134.187981 
L 216.492332 -134.151212 
L 216.609481 -134.114945 
L 216.72663 -134.080164 
L 216.843779 -134.047825 
L 216.960928 -134.018819 
L 217.078077 -133.993929 
L 217.195226 -133.973788 
L 217.312375 -133.958837 
L 217.429524 -133.949293 
L 217.546673 -133.945116 
L 217.663823 -133.945985 
L 217.780972 -133.951286 
L 217.898121 -133.960107 
L 218.01527 -133.971243 
L 218.132419 -133.983215 
L 218.249568 -133.994297 
L 218.366717 -134.002563 
L 218.483866 -134.005932 
L 218.601015 -134.002235 
L 218.718164 -133.989284 
L 218.835313 -133.964951 
L 218.952462 -133.927248 
L 219.069611 -133.874413 
L 219.18676 -133.804986 
L 219.303909 -133.717888 
L 219.421058 -133.612484 
L 219.538208 -133.48863 
L 219.655357 -133.346709 
L 219.772506 -133.187639 
L 219.889655 -133.012863 
L 220.006804 -132.82431 
L 220.123953 -132.624335 
L 220.241102 -132.415642 
L 220.358251 -132.201179 
L 220.4754 -131.984036 
L 220.592549 -131.767321 
L 220.709698 -131.55405 
L 220.826847 -131.347035 
L 220.943996 -131.148793 
L 221.061145 -130.961469 
L 221.178294 -130.786782 
L 221.295443 -130.625995 
L 221.412592 -130.479908 
L 221.529742 -130.348876 
L 221.646891 -130.232844 
L 221.76404 -130.131397 
L 221.881189 -130.043822 
L 221.998338 -129.969172 
L 222.115487 -129.906339 
L 222.232636 -129.854114 
L 222.349785 -129.811248 
L 222.349785 -129.506809 
L 222.349785 -129.506809 
L 222.232636 -129.463943 
L 222.115487 -129.411718 
L 221.998338 -129.348885 
L 221.881189 -129.274235 
L 221.76404 -129.18666 
L 221.646891 -129.085213 
L 221.529742 -128.969181 
L 221.412592 -128.838149 
L 221.295443 -128.692062 
L 221.178294 -128.531274 
L 221.061145 -128.356587 
L 220.943996 -128.169264 
L 220.826847 -127.971022 
L 220.709698 -127.764007 
L 220.592549 -127.550735 
L 220.4754 -127.334021 
L 220.358251 -127.116877 
L 220.241102 -126.902415 
L 220.123953 -126.693722 
L 220.006804 -126.493747 
L 219.889655 -126.305193 
L 219.772506 -126.130417 
L 219.655357 -125.971348 
L 219.538208 -125.829427 
L 219.421058 -125.705573 
L 219.303909 -125.600169 
L 219.18676 -125.513071 
L 219.069611 -125.443644 
L 218.952462 -125.390809 
L 218.835313 -125.353106 
L 218.718164 -125.328773 
L 218.601015 -125.315822 
L 218.483866 -125.312125 
L 218.366717 -125.315494 
L 218.249568 -125.323759 
L 218.132419 -125.334842 
L 218.01527 -125.346814 
L 217.898121 -125.357949 
L 217.780972 -125.36677 
L 217.663823 -125.372072 
L 217.546673 -125.372941 
L 217.429524 -125.368764 
L 217.312375 -125.35922 
L 217.195226 -125.344269 
L 217.078077 -125.324128 
L 216.960928 -125.299238 
L 216.843779 -125.270232 
L 216.72663 -125.237893 
L 216.609481 -125.203111 
L 216.492332 -125.166845 
L 216.375183 -125.130076 
L 216.258034 -125.093773 
L 216.140885 -125.058862 
L 216.023736 -125.026202 
L 215.906587 -124.996565 
L 215.789438 -124.970634 
L 215.672289 -124.949003 
L 215.555139 -124.932194 
L 215.43799 -124.920673 
L 215.320841 -124.914883 
L 215.203692 -124.915271 
L 215.086543 -124.922322 
L 214.969394 -124.936586 
L 214.852245 -124.958701 
L 214.735096 -124.989397 
L 214.617947 -125.029504 
L 214.500798 -125.079926 
L 214.383649 -125.141611 
L 214.2665 -125.215505 
L 214.149351 -125.302498 
L 214.032202 -125.403348 
L 213.915053 -125.518622 
L 213.797904 -125.648619 
L 213.680754 -125.793318 
L 213.563605 -125.952323 
L 213.446456 -126.124836 
L 213.329307 -126.309646 
L 213.212158 -126.505143 
L 213.095009 -126.709352 
L 212.97786 -126.919992 
L 212.860711 -127.134549 
L 212.743562 -127.350369 
L 212.626413 -127.564757 
L 212.509264 -127.775074 
L 212.392115 -127.978835 
L 212.274966 -128.173798 
L 212.157817 -128.358033 
L 212.040668 -128.529979 
L 211.923519 -128.688473 
L 211.80637 -128.832765 
L 211.68922 -128.962509 
L 211.572071 -129.077734 
L 211.454922 -129.178804 
L 211.337773 -129.266369 
L 211.220624 -129.341297 
L 211.103475 -129.404626 
L 210.986326 -129.457491 
L 210.869177 -129.501079 
L 210.752028 -129.536577 
z
" id="m9d7b71ae78" style="stroke:#3f3f3f;stroke-width:0.5;"/>
    </defs>
    <g clip-path="url(#p42d50dec4e)">
     <use style="fill:#1996f3;stroke:#3f3f3f;stroke-width:0.5;" x="0" xlink:href="#m9d7b71ae78" y="166.509937"/>
    </g>
   </g>
   <g id="PolyCollection_4">
    <defs>
     <path d="M 279.990745 -117.751863 
L 279.990745 -117.845467 
L 280.132167 -117.860381 
L 280.273589 -117.878857 
L 280.415011 -117.901358 
L 280.556434 -117.928297 
L 280.697856 -117.960005 
L 280.839278 -117.996697 
L 280.9807 -118.038444 
L 281.122122 -118.085149 
L 281.263544 -118.136539 
L 281.404967 -118.192159 
L 281.546389 -118.251393 
L 281.687811 -118.313487 
L 281.829233 -118.377593 
L 281.970655 -118.442818 
L 282.112078 -118.508281 
L 282.2535 -118.573164 
L 282.394922 -118.636762 
L 282.536344 -118.698526 
L 282.677766 -118.758079 
L 282.819189 -118.815232 
L 282.960611 -118.869975 
L 283.102033 -118.922453 
L 283.243455 -118.972936 
L 283.384877 -119.021785 
L 283.5263 -119.069407 
L 283.667722 -119.116221 
L 283.809144 -119.16263 
L 283.950566 -119.208997 
L 284.091988 -119.255629 
L 284.23341 -119.302779 
L 284.374833 -119.350638 
L 284.516255 -119.399345 
L 284.657677 -119.448988 
L 284.799099 -119.499611 
L 284.940521 -119.551214 
L 285.081944 -119.603754 
L 285.223366 -119.657138 
L 285.364788 -119.71123 
L 285.50621 -119.765838 
L 285.647632 -119.820728 
L 285.789055 -119.875626 
L 285.930477 -119.930234 
L 286.071899 -119.984252 
L 286.213321 -120.037405 
L 286.354743 -120.089472 
L 286.496165 -120.140326 
L 286.637588 -120.189956 
L 286.77901 -120.238504 
L 286.920432 -120.286287 
L 287.061854 -120.333803 
L 287.203276 -120.381742 
L 287.344699 -120.430972 
L 287.486121 -120.482517 
L 287.627543 -120.537522 
L 287.768965 -120.597211 
L 287.910387 -120.662823 
L 288.05181 -120.73555 
L 288.193232 -120.81646 
L 288.334654 -120.906417 
L 288.476076 -121.005993 
L 288.617498 -121.115389 
L 288.75892 -121.234345 
L 288.900343 -121.362073 
L 289.041765 -121.497189 
L 289.183187 -121.637682 
L 289.324609 -121.78089 
L 289.466031 -121.923529 
L 289.607454 -122.06174 
L 289.748876 -122.191195 
L 289.890298 -122.307228 
L 290.03172 -122.405017 
L 290.173142 -122.479787 
L 290.314565 -122.527044 
L 290.455987 -122.54281 
L 290.597409 -122.523859 
L 290.738831 -122.467925 
L 290.880253 -122.373878 
L 291.021676 -122.241838 
L 291.163098 -122.073236 
L 291.30452 -121.870787 
L 291.445942 -121.638406 
L 291.587364 -121.381033 
L 291.728786 -121.104415 
L 291.870209 -120.814827 
L 292.011631 -120.518769 
L 292.153053 -120.222661 
L 292.294475 -119.932545 
L 292.435897 -119.653834 
L 292.57732 -119.391099 
L 292.718742 -119.14794 
L 292.860164 -118.926908 
L 293.001586 -118.729506 
L 293.143008 -118.556252 
L 293.284431 -118.406789 
L 293.425853 -118.280035 
L 293.567275 -118.174347 
L 293.708697 -118.0877 
L 293.850119 -118.017849 
L 293.991541 -117.962472 
L 293.991541 -117.634857 
L 293.991541 -117.634857 
L 293.850119 -117.579481 
L 293.708697 -117.509629 
L 293.567275 -117.422982 
L 293.425853 -117.317295 
L 293.284431 -117.190541 
L 293.143008 -117.041078 
L 293.001586 -116.867824 
L 292.860164 -116.670422 
L 292.718742 -116.449389 
L 292.57732 -116.20623 
L 292.435897 -115.943496 
L 292.294475 -115.664784 
L 292.153053 -115.374668 
L 292.011631 -115.07856 
L 291.870209 -114.782502 
L 291.728786 -114.492914 
L 291.587364 -114.216296 
L 291.445942 -113.958924 
L 291.30452 -113.726542 
L 291.163098 -113.524094 
L 291.021676 -113.355491 
L 290.880253 -113.223452 
L 290.738831 -113.129404 
L 290.597409 -113.073471 
L 290.455987 -113.054519 
L 290.314565 -113.070285 
L 290.173142 -113.117542 
L 290.03172 -113.192313 
L 289.890298 -113.290102 
L 289.748876 -113.406135 
L 289.607454 -113.53559 
L 289.466031 -113.673801 
L 289.324609 -113.816439 
L 289.183187 -113.959648 
L 289.041765 -114.10014 
L 288.900343 -114.235257 
L 288.75892 -114.362984 
L 288.617498 -114.48194 
L 288.476076 -114.591336 
L 288.334654 -114.690913 
L 288.193232 -114.780869 
L 288.05181 -114.861779 
L 287.910387 -114.934506 
L 287.768965 -115.000119 
L 287.627543 -115.059807 
L 287.486121 -115.114813 
L 287.344699 -115.166358 
L 287.203276 -115.215587 
L 287.061854 -115.263527 
L 286.920432 -115.311043 
L 286.77901 -115.358825 
L 286.637588 -115.407374 
L 286.496165 -115.457004 
L 286.354743 -115.507857 
L 286.213321 -115.559925 
L 286.071899 -115.613078 
L 285.930477 -115.667096 
L 285.789055 -115.721704 
L 285.647632 -115.776601 
L 285.50621 -115.831492 
L 285.364788 -115.8861 
L 285.223366 -115.940191 
L 285.081944 -115.993576 
L 284.940521 -116.046115 
L 284.799099 -116.097718 
L 284.657677 -116.148342 
L 284.516255 -116.197985 
L 284.374833 -116.246691 
L 284.23341 -116.294551 
L 284.091988 -116.3417 
L 283.950566 -116.388333 
L 283.809144 -116.434699 
L 283.667722 -116.481108 
L 283.5263 -116.527923 
L 283.384877 -116.575544 
L 283.243455 -116.624393 
L 283.102033 -116.674877 
L 282.960611 -116.727354 
L 282.819189 -116.782097 
L 282.677766 -116.839251 
L 282.536344 -116.898804 
L 282.394922 -116.960567 
L 282.2535 -117.024166 
L 282.112078 -117.089049 
L 281.970655 -117.154511 
L 281.829233 -117.219737 
L 281.687811 -117.283843 
L 281.546389 -117.345937 
L 281.404967 -117.40517 
L 281.263544 -117.460791 
L 281.122122 -117.51218 
L 280.9807 -117.558885 
L 280.839278 -117.600632 
L 280.697856 -117.637324 
L 280.556434 -117.669032 
L 280.415011 -117.695972 
L 280.273589 -117.718473 
L 280.132167 -117.736949 
L 279.990745 -117.751863 
z
" id="m462342fa30" style="stroke:#3f3f3f;stroke-width:0.5;"/>
    </defs>
    <g clip-path="url(#p42d50dec4e)">
     <use style="fill:#1acee3;stroke:#3f3f3f;stroke-width:0.5;" x="0" xlink:href="#m462342fa30" y="166.509937"/>
    </g>
   </g>
   <g id="PolyCollection_5">
    <defs>
     <path d="M 278.74608 -105.851158 
L 278.74608 -106.025444 
L 278.908305 -106.052418 
L 279.07053 -106.08592 
L 279.232755 -106.126953 
L 279.39498 -106.176507 
L 279.557205 -106.235514 
L 279.71943 -106.304791 
L 279.881655 -106.38498 
L 280.043881 -106.476486 
L 280.206106 -106.579418 
L 280.368331 -106.693542 
L 280.530556 -106.818247 
L 280.692781 -106.952523 
L 280.855006 -107.094971 
L 281.017231 -107.24383 
L 281.179456 -107.397028 
L 281.341682 -107.552261 
L 281.503907 -107.707087 
L 281.666132 -107.859035 
L 281.828357 -108.005721 
L 281.990582 -108.14496 
L 282.152807 -108.274875 
L 282.315032 -108.393978 
L 282.477257 -108.501235 
L 282.639482 -108.596102 
L 282.801708 -108.678523 
L 282.963933 -108.748905 
L 283.126158 -108.80806 
L 283.288383 -108.857125 
L 283.450608 -108.897467 
L 283.612833 -108.930584 
L 283.775058 -108.958001 
L 283.937283 -108.981178 
L 284.099508 -109.001442 
L 284.261734 -109.019927 
L 284.423959 -109.037548 
L 284.586184 -109.054995 
L 284.748409 -109.072753 
L 284.910634 -109.091131 
L 285.072859 -109.110308 
L 285.235084 -109.130388 
L 285.397309 -109.151439 
L 285.559535 -109.173543 
L 285.72176 -109.19682 
L 285.883985 -109.221447 
L 286.04621 -109.247659 
L 286.208435 -109.275741 
L 286.37066 -109.306004 
L 286.532885 -109.338767 
L 286.69511 -109.374322 
L 286.857335 -109.412921 
L 287.019561 -109.454751 
L 287.181786 -109.49993 
L 287.344011 -109.548506 
L 287.506236 -109.600465 
L 287.668461 -109.655745 
L 287.830686 -109.714247 
L 287.992911 -109.775849 
L 288.155136 -109.840409 
L 288.317361 -109.907759 
L 288.479587 -109.977683 
L 288.641812 -110.049885 
L 288.804037 -110.123942 
L 288.966262 -110.199246 
L 289.128487 -110.274949 
L 289.290712 -110.349898 
L 289.452937 -110.422595 
L 289.615162 -110.491165 
L 289.777388 -110.553352 
L 289.939613 -110.60655 
L 290.101838 -110.647862 
L 290.264063 -110.674208 
L 290.426288 -110.682447 
L 290.588513 -110.669546 
L 290.750738 -110.632752 
L 290.912963 -110.56978 
L 291.075188 -110.478979 
L 291.237414 -110.359491 
L 291.399639 -110.211361 
L 291.561864 -110.035601 
L 291.724089 -109.834202 
L 291.886314 -109.610081 
L 292.048539 -109.366973 
L 292.210764 -109.109269 
L 292.372989 -108.841816 
L 292.535214 -108.569688 
L 292.69744 -108.297954 
L 292.859665 -108.031444 
L 293.02189 -107.774552 
L 293.184115 -107.531067 
L 293.34634 -107.304049 
L 293.508565 -107.095767 
L 293.67079 -106.907676 
L 293.833015 -106.740448 
L 293.995241 -106.594044 
L 294.157466 -106.467812 
L 294.319691 -106.360605 
L 294.481916 -106.270914 
L 294.644141 -106.196986 
L 294.806366 -106.136948 
L 294.806366 -105.739654 
L 294.806366 -105.739654 
L 294.644141 -105.679616 
L 294.481916 -105.605689 
L 294.319691 -105.515997 
L 294.157466 -105.408791 
L 293.995241 -105.282558 
L 293.833015 -105.136155 
L 293.67079 -104.968927 
L 293.508565 -104.780835 
L 293.34634 -104.572553 
L 293.184115 -104.345536 
L 293.02189 -104.10205 
L 292.859665 -103.845159 
L 292.69744 -103.578649 
L 292.535214 -103.306914 
L 292.372989 -103.034786 
L 292.210764 -102.767333 
L 292.048539 -102.509629 
L 291.886314 -102.266521 
L 291.724089 -102.042401 
L 291.561864 -101.841002 
L 291.399639 -101.665241 
L 291.237414 -101.517111 
L 291.075188 -101.397623 
L 290.912963 -101.306823 
L 290.750738 -101.24385 
L 290.588513 -101.207057 
L 290.426288 -101.194156 
L 290.264063 -101.202395 
L 290.101838 -101.22874 
L 289.939613 -101.270053 
L 289.777388 -101.32325 
L 289.615162 -101.385437 
L 289.452937 -101.454007 
L 289.290712 -101.526704 
L 289.128487 -101.601654 
L 288.966262 -101.677356 
L 288.804037 -101.75266 
L 288.641812 -101.826717 
L 288.479587 -101.898919 
L 288.317361 -101.968843 
L 288.155136 -102.036193 
L 287.992911 -102.100754 
L 287.830686 -102.162356 
L 287.668461 -102.220857 
L 287.506236 -102.276137 
L 287.344011 -102.328096 
L 287.181786 -102.376672 
L 287.019561 -102.421851 
L 286.857335 -102.463681 
L 286.69511 -102.50228 
L 286.532885 -102.537836 
L 286.37066 -102.570598 
L 286.208435 -102.600861 
L 286.04621 -102.628943 
L 285.883985 -102.655155 
L 285.72176 -102.679783 
L 285.559535 -102.70306 
L 285.397309 -102.725163 
L 285.235084 -102.746215 
L 285.072859 -102.766294 
L 284.910634 -102.785471 
L 284.748409 -102.803849 
L 284.586184 -102.821607 
L 284.423959 -102.839054 
L 284.261734 -102.856675 
L 284.099508 -102.87516 
L 283.937283 -102.895424 
L 283.775058 -102.918602 
L 283.612833 -102.946018 
L 283.450608 -102.979135 
L 283.288383 -103.019477 
L 283.126158 -103.068542 
L 282.963933 -103.127697 
L 282.801708 -103.198079 
L 282.639482 -103.2805 
L 282.477257 -103.375367 
L 282.315032 -103.482625 
L 282.152807 -103.601727 
L 281.990582 -103.731642 
L 281.828357 -103.870881 
L 281.666132 -104.017567 
L 281.503907 -104.169515 
L 281.341682 -104.324341 
L 281.179456 -104.479574 
L 281.017231 -104.632772 
L 280.855006 -104.781631 
L 280.692781 -104.924079 
L 280.530556 -105.058356 
L 280.368331 -105.18306 
L 280.206106 -105.297185 
L 280.043881 -105.400117 
L 279.881655 -105.491622 
L 279.71943 -105.571811 
L 279.557205 -105.641089 
L 279.39498 -105.700096 
L 279.232755 -105.749649 
L 279.07053 -105.790682 
L 278.908305 -105.824185 
L 278.74608 -105.851158 
z
" id="m64e262e9a7" style="stroke:#3f3f3f;stroke-width:0.5;"/>
    </defs>
    <g clip-path="url(#p42d50dec4e)">
     <use style="fill:#4df3ce;stroke:#3f3f3f;stroke-width:0.5;" x="0" xlink:href="#m64e262e9a7" y="166.509937"/>
    </g>
   </g>
   <g id="PolyCollection_6">
    <defs>
     <path d="M 281.846333 -94.042292 
L 281.846333 -94.113583 
L 281.953423 -94.125628 
L 282.060514 -94.140747 
L 282.167604 -94.159384 
L 282.274695 -94.181946 
L 282.381785 -94.208771 
L 282.488875 -94.240096 
L 282.595966 -94.276023 
L 282.703056 -94.316501 
L 282.810147 -94.361301 
L 282.917237 -94.410017 
L 283.024327 -94.462072 
L 283.131418 -94.516739 
L 283.238508 -94.573183 
L 283.345598 -94.6305 
L 283.452689 -94.687776 
L 283.559779 -94.744144 
L 283.66687 -94.798836 
L 283.77396 -94.851234 
L 283.88105 -94.900908 
L 283.988141 -94.947636 
L 284.095231 -94.991416 
L 284.202322 -95.032455 
L 284.309412 -95.071149 
L 284.416502 -95.108052 
L 284.523593 -95.143829 
L 284.630683 -95.179216 
L 284.737773 -95.21497 
L 284.844864 -95.251826 
L 284.951954 -95.290458 
L 285.059045 -95.331447 
L 285.166135 -95.375254 
L 285.273225 -95.422198 
L 285.380316 -95.472448 
L 285.487406 -95.526006 
L 285.594497 -95.582705 
L 285.701587 -95.642209 
L 285.808677 -95.704013 
L 285.915768 -95.767454 
L 286.022858 -95.83173 
L 286.129948 -95.895927 
L 286.237039 -95.959061 
L 286.344129 -96.020123 
L 286.45122 -96.078148 
L 286.55831 -96.132284 
L 286.6654 -96.18187 
L 286.772491 -96.226507 
L 286.879581 -96.266137 
L 286.986672 -96.301089 
L 287.093762 -96.332122 
L 287.200852 -96.360431 
L 287.307943 -96.387628 
L 287.415033 -96.415685 
L 287.522123 -96.446856 
L 287.629214 -96.483556 
L 287.736304 -96.52823 
L 287.843395 -96.5832 
L 287.950485 -96.650517 
L 288.057575 -96.731811 
L 288.164666 -96.828161 
L 288.271756 -96.939995 
L 288.378847 -97.06702 
L 288.485937 -97.208187 
L 288.593027 -97.361695 
L 288.700118 -97.525032 
L 288.807208 -97.69504 
L 288.914298 -97.86801 
L 289.021389 -98.039785 
L 289.128479 -98.205882 
L 289.23557 -98.361607 
L 289.34266 -98.502188 
L 289.44975 -98.622897 
L 289.556841 -98.719186 
L 289.663931 -98.786832 
L 289.771022 -98.822083 
L 289.878112 -98.821823 
L 289.985202 -98.783734 
L 290.092293 -98.706455 
L 290.199383 -98.589723 
L 290.306473 -98.434477 
L 290.413564 -98.242913 
L 290.520654 -98.018468 
L 290.627745 -97.765734 
L 290.734835 -97.490287 
L 290.841925 -97.198452 
L 290.949016 -96.897003 
L 291.056106 -96.59283 
L 291.163197 -96.292603 
L 291.270287 -96.002446 
L 291.377377 -95.727671 
L 291.484468 -95.472567 
L 291.591558 -95.240278 
L 291.698648 -95.032765 
L 291.805739 -94.85085 
L 291.912829 -94.694325 
L 292.01992 -94.562119 
L 292.12701 -94.452491 
L 292.2341 -94.363233 
L 292.341191 -94.291874 
L 292.448281 -94.235852 
L 292.448281 -93.920023 
L 292.448281 -93.920023 
L 292.341191 -93.864001 
L 292.2341 -93.792642 
L 292.12701 -93.703384 
L 292.01992 -93.593756 
L 291.912829 -93.46155 
L 291.805739 -93.305025 
L 291.698648 -93.12311 
L 291.591558 -92.915597 
L 291.484468 -92.683308 
L 291.377377 -92.428204 
L 291.270287 -92.153429 
L 291.163197 -91.863272 
L 291.056106 -91.563045 
L 290.949016 -91.258872 
L 290.841925 -90.957423 
L 290.734835 -90.665588 
L 290.627745 -90.390141 
L 290.520654 -90.137407 
L 290.413564 -89.912962 
L 290.306473 -89.721398 
L 290.199383 -89.566152 
L 290.092293 -89.44942 
L 289.985202 -89.372141 
L 289.878112 -89.334052 
L 289.771022 -89.333792 
L 289.663931 -89.369043 
L 289.556841 -89.436689 
L 289.44975 -89.532978 
L 289.34266 -89.653687 
L 289.23557 -89.794268 
L 289.128479 -89.949993 
L 289.021389 -90.11609 
L 288.914298 -90.287865 
L 288.807208 -90.460835 
L 288.700118 -90.630843 
L 288.593027 -90.79418 
L 288.485937 -90.947688 
L 288.378847 -91.088855 
L 288.271756 -91.21588 
L 288.164666 -91.327714 
L 288.057575 -91.424064 
L 287.950485 -91.505358 
L 287.843395 -91.572675 
L 287.736304 -91.627645 
L 287.629214 -91.672319 
L 287.522123 -91.709019 
L 287.415033 -91.74019 
L 287.307943 -91.768247 
L 287.200852 -91.795444 
L 287.093762 -91.823753 
L 286.986672 -91.854786 
L 286.879581 -91.889738 
L 286.772491 -91.929368 
L 286.6654 -91.974005 
L 286.55831 -92.023591 
L 286.45122 -92.077727 
L 286.344129 -92.135752 
L 286.237039 -92.196814 
L 286.129948 -92.259948 
L 286.022858 -92.324145 
L 285.915768 -92.388421 
L 285.808677 -92.451862 
L 285.701587 -92.513666 
L 285.594497 -92.57317 
L 285.487406 -92.629869 
L 285.380316 -92.683427 
L 285.273225 -92.733677 
L 285.166135 -92.780621 
L 285.059045 -92.824428 
L 284.951954 -92.865417 
L 284.844864 -92.904049 
L 284.737773 -92.940905 
L 284.630683 -92.976659 
L 284.523593 -93.012046 
L 284.416502 -93.047823 
L 284.309412 -93.084726 
L 284.202322 -93.12342 
L 284.095231 -93.164459 
L 283.988141 -93.208239 
L 283.88105 -93.254967 
L 283.77396 -93.304641 
L 283.66687 -93.357039 
L 283.559779 -93.411731 
L 283.452689 -93.468099 
L 283.345598 -93.525375 
L 283.238508 -93.582692 
L 283.131418 -93.639136 
L 283.024327 -93.693803 
L 282.917237 -93.745858 
L 282.810147 -93.794574 
L 282.703056 -93.839374 
L 282.595966 -93.879852 
L 282.488875 -93.915779 
L 282.381785 -93.947104 
L 282.274695 -93.973929 
L 282.167604 -93.996491 
L 282.060514 -94.015128 
L 281.953423 -94.030247 
L 281.846333 -94.042292 
z
" id="mcd1515601d" style="stroke:#3f3f3f;stroke-width:0.5;"/>
    </defs>
    <g clip-path="url(#p42d50dec4e)">
     <use style="fill:#80ffb4;stroke:#3f3f3f;stroke-width:0.5;" x="0" xlink:href="#mcd1515601d" y="166.509937"/>
    </g>
   </g>
   <g id="PolyCollection_7">
    <defs>
     <path d="M 273.688975 -82.049397 
L 273.688975 -82.385751 
L 273.80763 -82.434156 
L 273.926286 -82.493167 
L 274.044941 -82.564103 
L 274.163596 -82.648176 
L 274.282251 -82.746407 
L 274.400907 -82.859544 
L 274.519562 -82.98797 
L 274.638217 -83.131628 
L 274.756872 -83.289954 
L 274.875528 -83.461836 
L 274.994183 -83.645591 
L 275.112838 -83.838991 
L 275.231493 -84.039304 
L 275.350148 -84.243389 
L 275.468804 -84.447804 
L 275.587459 -84.648956 
L 275.706114 -84.843254 
L 275.824769 -85.027277 
L 275.943425 -85.197929 
L 276.06208 -85.352589 
L 276.180735 -85.489221 
L 276.29939 -85.606461 
L 276.418046 -85.703661 
L 276.536701 -85.780892 
L 276.655356 -85.838913 
L 276.774011 -85.879102 
L 276.892666 -85.903363 
L 277.011322 -85.914014 
L 277.129977 -85.913664 
L 277.248632 -85.905088 
L 277.367287 -85.891109 
L 277.485943 -85.874485 
L 277.604598 -85.857817 
L 277.723253 -85.843465 
L 277.841908 -85.833484 
L 277.960564 -85.829578 
L 278.079219 -85.833064 
L 278.197874 -85.844855 
L 278.316529 -85.865453 
L 278.435184 -85.894956 
L 278.55384 -85.933082 
L 278.672495 -85.9792 
L 278.79115 -86.032378 
L 278.909805 -86.091441 
L 279.028461 -86.155037 
L 279.147116 -86.221709 
L 279.265771 -86.289975 
L 279.384426 -86.3584 
L 279.503082 -86.425663 
L 279.621737 -86.490614 
L 279.740392 -86.552316 
L 279.859047 -86.610067 
L 279.977702 -86.663407 
L 280.096358 -86.712101 
L 280.215013 -86.756107 
L 280.333668 -86.795533 
L 280.452323 -86.830576 
L 280.570979 -86.861465 
L 280.689634 -86.888398 
L 280.808289 -86.911482 
L 280.926944 -86.93068 
L 281.0456 -86.945776 
L 281.164255 -86.956341 
L 281.28291 -86.961719 
L 281.401565 -86.961031 
L 281.520221 -86.953184 
L 281.638876 -86.936904 
L 281.757531 -86.910775 
L 281.876186 -86.873297 
L 281.994841 -86.822953 
L 282.113497 -86.758282 
L 282.232152 -86.677963 
L 282.350807 -86.580902 
L 282.469462 -86.466315 
L 282.588118 -86.333808 
L 282.706773 -86.183439 
L 282.825428 -86.015767 
L 282.944083 -85.831882 
L 283.062739 -85.633396 
L 283.181394 -85.42242 
L 283.300049 -85.201503 
L 283.418704 -84.973545 
L 283.537359 -84.741694 
L 283.656015 -84.509221 
L 283.77467 -84.27939 
L 283.893325 -84.055327 
L 284.01198 -83.839904 
L 284.130636 -83.635631 
L 284.249291 -83.444581 
L 284.367946 -83.268331 
L 284.486601 -83.107943 
L 284.605257 -82.963968 
L 284.723912 -82.836473 
L 284.842567 -82.725096 
L 284.961222 -82.629111 
L 285.079877 -82.547504 
L 285.198533 -82.479053 
L 285.317188 -82.422409 
L 285.435843 -82.376164 
L 285.435843 -82.058983 
L 285.435843 -82.058983 
L 285.317188 -82.012739 
L 285.198533 -81.956095 
L 285.079877 -81.887644 
L 284.961222 -81.806037 
L 284.842567 -81.710051 
L 284.723912 -81.598674 
L 284.605257 -81.47118 
L 284.486601 -81.327205 
L 284.367946 -81.166817 
L 284.249291 -80.990567 
L 284.130636 -80.799516 
L 284.01198 -80.595244 
L 283.893325 -80.379821 
L 283.77467 -80.155758 
L 283.656015 -79.925927 
L 283.537359 -79.693453 
L 283.418704 -79.461603 
L 283.300049 -79.233645 
L 283.181394 -79.012727 
L 283.062739 -78.801752 
L 282.944083 -78.603266 
L 282.825428 -78.41938 
L 282.706773 -78.251709 
L 282.588118 -78.10134 
L 282.469462 -77.968832 
L 282.350807 -77.854246 
L 282.232152 -77.757185 
L 282.113497 -77.676866 
L 281.994841 -77.612195 
L 281.876186 -77.56185 
L 281.757531 -77.524373 
L 281.638876 -77.498244 
L 281.520221 -77.481964 
L 281.401565 -77.474117 
L 281.28291 -77.473428 
L 281.164255 -77.478807 
L 281.0456 -77.489371 
L 280.926944 -77.504467 
L 280.808289 -77.523666 
L 280.689634 -77.546749 
L 280.570979 -77.573683 
L 280.452323 -77.604572 
L 280.333668 -77.639615 
L 280.215013 -77.67904 
L 280.096358 -77.723047 
L 279.977702 -77.77174 
L 279.859047 -77.825081 
L 279.740392 -77.882832 
L 279.621737 -77.944534 
L 279.503082 -78.009485 
L 279.384426 -78.076748 
L 279.265771 -78.145172 
L 279.147116 -78.213439 
L 279.028461 -78.280111 
L 278.909805 -78.343706 
L 278.79115 -78.402769 
L 278.672495 -78.455948 
L 278.55384 -78.502066 
L 278.435184 -78.540192 
L 278.316529 -78.569695 
L 278.197874 -78.590293 
L 278.079219 -78.602084 
L 277.960564 -78.60557 
L 277.841908 -78.601664 
L 277.723253 -78.591683 
L 277.604598 -78.57733 
L 277.485943 -78.560662 
L 277.367287 -78.544039 
L 277.248632 -78.53006 
L 277.129977 -78.521484 
L 277.011322 -78.521134 
L 276.892666 -78.531785 
L 276.774011 -78.556046 
L 276.655356 -78.596235 
L 276.536701 -78.654256 
L 276.418046 -78.731487 
L 276.29939 -78.828687 
L 276.180735 -78.945927 
L 276.06208 -79.082559 
L 275.943425 -79.237219 
L 275.824769 -79.407871 
L 275.706114 -79.591893 
L 275.587459 -79.786191 
L 275.468804 -79.987343 
L 275.350148 -80.191759 
L 275.231493 -80.395843 
L 275.112838 -80.596157 
L 274.994183 -80.789556 
L 274.875528 -80.973312 
L 274.756872 -81.145193 
L 274.638217 -81.30352 
L 274.519562 -81.447178 
L 274.400907 -81.575604 
L 274.282251 -81.688741 
L 274.163596 -81.786972 
L 274.044941 -81.871045 
L 273.926286 -81.941981 
L 273.80763 -82.000992 
L 273.688975 -82.049397 
z
" id="md16f2f9940" style="stroke:#3f3f3f;stroke-width:0.5;"/>
    </defs>
    <g clip-path="url(#p42d50dec4e)">
     <use style="fill:#b3f396;stroke:#3f3f3f;stroke-width:0.5;" x="0" xlink:href="#md16f2f9940" y="166.509937"/>
    </g>
   </g>
   <g id="PolyCollection_8">
    <defs>
     <path d="M 268.545551 -70.27605 
L 268.545551 -70.43837 
L 268.564358 -70.463512 
L 268.583165 -70.494687 
L 268.601972 -70.53279 
L 268.620779 -70.578691 
L 268.639586 -70.633196 
L 268.658393 -70.696992 
L 268.6772 -70.770598 
L 268.696007 -70.854313 
L 268.714814 -70.948174 
L 268.733621 -71.051916 
L 268.752428 -71.164961 
L 268.771235 -71.286407 
L 268.790042 -71.415049 
L 268.808849 -71.549411 
L 268.827656 -71.687804 
L 268.846463 -71.828394 
L 268.86527 -71.969282 
L 268.884077 -72.10859 
L 268.902884 -72.244546 
L 268.921691 -72.375566 
L 268.940498 -72.500319 
L 268.959305 -72.617776 
L 268.978112 -72.727242 
L 268.996919 -72.828369 
L 269.015726 -72.921144 
L 269.034533 -73.005862 
L 269.05334 -73.083085 
L 269.072147 -73.153589 
L 269.090954 -73.21831 
L 269.109761 -73.278279 
L 269.128568 -73.334572 
L 269.147376 -73.388258 
L 269.166183 -73.440355 
L 269.18499 -73.491798 
L 269.203797 -73.543414 
L 269.222604 -73.595908 
L 269.241411 -73.649851 
L 269.260218 -73.705684 
L 269.279025 -73.763712 
L 269.297832 -73.824116 
L 269.316639 -73.886958 
L 269.335446 -73.952188 
L 269.354253 -74.019659 
L 269.37306 -74.089129 
L 269.391867 -74.160281 
L 269.410674 -74.232722 
L 269.429481 -74.306001 
L 269.448288 -74.379615 
L 269.467095 -74.453016 
L 269.485902 -74.525622 
L 269.504709 -74.596819 
L 269.523516 -74.665969 
L 269.542323 -74.732418 
L 269.56113 -74.795494 
L 269.579937 -74.854518 
L 269.598744 -74.908809 
L 269.617551 -74.957688 
L 269.636358 -75.000485 
L 269.655165 -75.036549 
L 269.673972 -75.065253 
L 269.692779 -75.085997 
L 269.711586 -75.098211 
L 269.730393 -75.101356 
L 269.7492 -75.094914 
L 269.768007 -75.078383 
L 269.786815 -75.051266 
L 269.805622 -75.013058 
L 269.824429 -74.963241 
L 269.843236 -74.90128 
L 269.862043 -74.826631 
L 269.88085 -74.738759 
L 269.899657 -74.637171 
L 269.918464 -74.521459 
L 269.937271 -74.391358 
L 269.956078 -74.246808 
L 269.974885 -74.08802 
L 269.993692 -73.915535 
L 270.012499 -73.730274 
L 270.031306 -73.533567 
L 270.050113 -73.327157 
L 270.06892 -73.113178 
L 270.087727 -72.8941 
L 270.106534 -72.672651 
L 270.125341 -72.451714 
L 270.144148 -72.234211 
L 270.162955 -72.022975 
L 270.181762 -71.820632 
L 270.200569 -71.629491 
L 270.219376 -71.45146 
L 270.238183 -71.287978 
L 270.25699 -71.13999 
L 270.275797 -71.007943 
L 270.294604 -70.891813 
L 270.313411 -70.791152 
L 270.332218 -70.705164 
L 270.351025 -70.632774 
L 270.369832 -70.572718 
L 270.388639 -70.523621 
L 270.407446 -70.484068 
L 270.407446 -70.230352 
L 270.407446 -70.230352 
L 270.388639 -70.190799 
L 270.369832 -70.141702 
L 270.351025 -70.081647 
L 270.332218 -70.009257 
L 270.313411 -69.923268 
L 270.294604 -69.822608 
L 270.275797 -69.706477 
L 270.25699 -69.57443 
L 270.238183 -69.426442 
L 270.219376 -69.262961 
L 270.200569 -69.084929 
L 270.181762 -68.893788 
L 270.162955 -68.691445 
L 270.144148 -68.480209 
L 270.125341 -68.262706 
L 270.106534 -68.04177 
L 270.087727 -67.820321 
L 270.06892 -67.601243 
L 270.050113 -67.387263 
L 270.031306 -67.180853 
L 270.012499 -66.984147 
L 269.993692 -66.798886 
L 269.974885 -66.626401 
L 269.956078 -66.467613 
L 269.937271 -66.323062 
L 269.918464 -66.192961 
L 269.899657 -66.077249 
L 269.88085 -65.975661 
L 269.862043 -65.887789 
L 269.843236 -65.81314 
L 269.824429 -65.751179 
L 269.805622 -65.701362 
L 269.786815 -65.663155 
L 269.768007 -65.636038 
L 269.7492 -65.619507 
L 269.730393 -65.613065 
L 269.711586 -65.616209 
L 269.692779 -65.628424 
L 269.673972 -65.649167 
L 269.655165 -65.677871 
L 269.636358 -65.713936 
L 269.617551 -65.756733 
L 269.598744 -65.805611 
L 269.579937 -65.859902 
L 269.56113 -65.918927 
L 269.542323 -65.982003 
L 269.523516 -66.048451 
L 269.504709 -66.117602 
L 269.485902 -66.188798 
L 269.467095 -66.261404 
L 269.448288 -66.334806 
L 269.429481 -66.408419 
L 269.410674 -66.481699 
L 269.391867 -66.55414 
L 269.37306 -66.625291 
L 269.354253 -66.694762 
L 269.335446 -66.762232 
L 269.316639 -66.827463 
L 269.297832 -66.890304 
L 269.279025 -66.950708 
L 269.260218 -67.008736 
L 269.241411 -67.064569 
L 269.222604 -67.118513 
L 269.203797 -67.171006 
L 269.18499 -67.222623 
L 269.166183 -67.274065 
L 269.147376 -67.326162 
L 269.128568 -67.379848 
L 269.109761 -67.436142 
L 269.090954 -67.496111 
L 269.072147 -67.560831 
L 269.05334 -67.631335 
L 269.034533 -67.708558 
L 269.015726 -67.793276 
L 268.996919 -67.886051 
L 268.978112 -67.987178 
L 268.959305 -68.096645 
L 268.940498 -68.214101 
L 268.921691 -68.338854 
L 268.902884 -68.469875 
L 268.884077 -68.605831 
L 268.86527 -68.745138 
L 268.846463 -68.886026 
L 268.827656 -69.026616 
L 268.808849 -69.16501 
L 268.790042 -69.299372 
L 268.771235 -69.428013 
L 268.752428 -69.549459 
L 268.733621 -69.662504 
L 268.714814 -69.766247 
L 268.696007 -69.860107 
L 268.6772 -69.943822 
L 268.658393 -70.017428 
L 268.639586 -70.081224 
L 268.620779 -70.135729 
L 268.601972 -70.18163 
L 268.583165 -70.219733 
L 268.564358 -70.250908 
L 268.545551 -70.27605 
z
" id="m9018a5c292" style="stroke:#3f3f3f;stroke-width:0.5;"/>
    </defs>
    <g clip-path="url(#p42d50dec4e)">
     <use style="fill:#e6ce74;stroke:#3f3f3f;stroke-width:0.5;" x="0" xlink:href="#m9018a5c292" y="166.509937"/>
    </g>
   </g>
   <g id="PolyCollection_9">
    <defs>
     <path d="M 278.604801 -58.413873 
L 278.604801 -58.57982 
L 278.778147 -58.606832 
L 278.951493 -58.64058 
L 279.124839 -58.682069 
L 279.298186 -58.732264 
L 279.471532 -58.792031 
L 279.644878 -58.862083 
L 279.818224 -58.942918 
L 279.991571 -59.034773 
L 280.164917 -59.137584 
L 280.338263 -59.250962 
L 280.511609 -59.374193 
L 280.684956 -59.506252 
L 280.858302 -59.645843 
L 281.031648 -59.791444 
L 281.204995 -59.941378 
L 281.378341 -60.093875 
L 281.551687 -60.247141 
L 281.725033 -60.39942 
L 281.89838 -60.549051 
L 282.071726 -60.694506 
L 282.245072 -60.834428 
L 282.418418 -60.967658 
L 282.591765 -61.093251 
L 282.765111 -61.210497 
L 282.938457 -61.318933 
L 283.111803 -61.418361 
L 283.28515 -61.508849 
L 283.458496 -61.590741 
L 283.631842 -61.664641 
L 283.805188 -61.731394 
L 283.978535 -61.79205 
L 284.151881 -61.847809 
L 284.325227 -61.899954 
L 284.498573 -61.949786 
L 284.67192 -61.998541 
L 284.845266 -62.047329 
L 285.018612 -62.097077 
L 285.191958 -62.148487 
L 285.365305 -62.202024 
L 285.538651 -62.257915 
L 285.711997 -62.316169 
L 285.885343 -62.376614 
L 286.05869 -62.438929 
L 286.232036 -62.502695 
L 286.405382 -62.567421 
L 286.578728 -62.632578 
L 286.752075 -62.697615 
L 286.925421 -62.761957 
L 287.098767 -62.82501 
L 287.272113 -62.88615 
L 287.44546 -62.94471 
L 287.618806 -62.999982 
L 287.792152 -63.051222 
L 287.965498 -63.097665 
L 288.138845 -63.138558 
L 288.312191 -63.173212 
L 288.485537 -63.201051 
L 288.658883 -63.221679 
L 288.83223 -63.234945 
L 289.005576 -63.240992 
L 289.178922 -63.240294 
L 289.352268 -63.233669 
L 289.525615 -63.22225 
L 289.698961 -63.207427 
L 289.872307 -63.190741 
L 290.045653 -63.173746 
L 290.219 -63.157835 
L 290.392346 -63.144058 
L 290.565692 -63.132926 
L 290.739038 -63.124253 
L 290.912385 -63.11702 
L 291.085731 -63.109323 
L 291.259077 -63.098385 
L 291.432423 -63.080666 
L 291.60577 -63.052062 
L 291.779116 -63.008186 
L 291.952462 -62.944704 
L 292.125808 -62.857711 
L 292.299155 -62.744094 
L 292.472501 -62.601857 
L 292.645847 -62.430364 
L 292.819193 -62.230477 
L 292.99254 -62.004573 
L 293.165886 -61.756431 
L 293.339232 -61.491003 
L 293.512578 -61.214096 
L 293.685925 -60.931991 
L 293.859271 -60.651039 
L 294.032617 -60.377277 
L 294.205963 -60.116089 
L 294.37931 -59.871951 
L 294.552656 -59.64826 
L 294.726002 -59.447264 
L 294.899348 -59.270084 
L 295.072695 -59.116807 
L 295.246041 -58.986639 
L 295.419387 -58.878097 
L 295.592733 -58.789205 
L 295.76608 -58.717695 
L 295.76608 -58.275998 
L 295.76608 -58.275998 
L 295.592733 -58.204488 
L 295.419387 -58.115597 
L 295.246041 -58.007054 
L 295.072695 -57.876887 
L 294.899348 -57.723609 
L 294.726002 -57.546429 
L 294.552656 -57.345433 
L 294.37931 -57.121742 
L 294.205963 -56.877604 
L 294.032617 -56.616416 
L 293.859271 -56.342654 
L 293.685925 -56.061702 
L 293.512578 -55.779597 
L 293.339232 -55.50269 
L 293.165886 -55.237262 
L 292.99254 -54.98912 
L 292.819193 -54.763216 
L 292.645847 -54.563329 
L 292.472501 -54.391836 
L 292.299155 -54.249599 
L 292.125808 -54.135983 
L 291.952462 -54.04899 
L 291.779116 -53.985508 
L 291.60577 -53.941631 
L 291.432423 -53.913027 
L 291.259077 -53.895308 
L 291.085731 -53.88437 
L 290.912385 -53.876673 
L 290.739038 -53.869441 
L 290.565692 -53.860767 
L 290.392346 -53.849635 
L 290.219 -53.835858 
L 290.045653 -53.819948 
L 289.872307 -53.802952 
L 289.698961 -53.786266 
L 289.525615 -53.771443 
L 289.352268 -53.760024 
L 289.178922 -53.753399 
L 289.005576 -53.752701 
L 288.83223 -53.758748 
L 288.658883 -53.772014 
L 288.485537 -53.792643 
L 288.312191 -53.820481 
L 288.138845 -53.855135 
L 287.965498 -53.896029 
L 287.792152 -53.942471 
L 287.618806 -53.993711 
L 287.44546 -54.048983 
L 287.272113 -54.107544 
L 287.098767 -54.168683 
L 286.925421 -54.231736 
L 286.752075 -54.296079 
L 286.578728 -54.361115 
L 286.405382 -54.426272 
L 286.232036 -54.490998 
L 286.05869 -54.554764 
L 285.885343 -54.617079 
L 285.711997 -54.677524 
L 285.538651 -54.735779 
L 285.365305 -54.79167 
L 285.191958 -54.845207 
L 285.018612 -54.896616 
L 284.845266 -54.946364 
L 284.67192 -54.995152 
L 284.498573 -55.043907 
L 284.325227 -55.093739 
L 284.151881 -55.145885 
L 283.978535 -55.201643 
L 283.805188 -55.262299 
L 283.631842 -55.329052 
L 283.458496 -55.402952 
L 283.28515 -55.484844 
L 283.111803 -55.575332 
L 282.938457 -55.67476 
L 282.765111 -55.783197 
L 282.591765 -55.900442 
L 282.418418 -56.026035 
L 282.245072 -56.159265 
L 282.071726 -56.299187 
L 281.89838 -56.444642 
L 281.725033 -56.594273 
L 281.551687 -56.746552 
L 281.378341 -56.899818 
L 281.204995 -57.052315 
L 281.031648 -57.202249 
L 280.858302 -57.347851 
L 280.684956 -57.487441 
L 280.511609 -57.619501 
L 280.338263 -57.742731 
L 280.164917 -57.85611 
L 279.991571 -57.95892 
L 279.818224 -58.050775 
L 279.644878 -58.13161 
L 279.471532 -58.201662 
L 279.298186 -58.261429 
L 279.124839 -58.311624 
L 278.951493 -58.353113 
L 278.778147 -58.386861 
L 278.604801 -58.413873 
z
" id="m1982de88d4" style="stroke:#3f3f3f;stroke-width:0.5;"/>
    </defs>
    <g clip-path="url(#p42d50dec4e)">
     <use style="fill:#ff964f;stroke:#3f3f3f;stroke-width:0.5;" x="0" xlink:href="#m1982de88d4" y="166.509937"/>
    </g>
   </g>
   <g id="PolyCollection_10">
    <defs>
     <path d="M 273.77767 -46.598436 
L 273.77767 -46.67453 
L 273.966317 -46.68905 
L 274.154965 -46.707802 
L 274.343613 -46.731518 
L 274.532261 -46.760886 
L 274.720908 -46.796492 
L 274.909556 -46.838756 
L 275.098204 -46.887864 
L 275.286852 -46.943714 
L 275.475499 -47.005877 
L 275.664147 -47.073582 
L 275.852795 -47.145728 
L 276.041443 -47.220934 
L 276.23009 -47.297608 
L 276.418738 -47.374054 
L 276.607386 -47.448572 
L 276.796034 -47.519585 
L 276.984681 -47.585733 
L 277.173329 -47.645957 
L 277.361977 -47.699549 
L 277.550625 -47.746164 
L 277.739272 -47.785798 
L 277.92792 -47.818739 
L 278.116568 -47.845482 
L 278.305216 -47.866649 
L 278.493863 -47.882898 
L 278.682511 -47.894845 
L 278.871159 -47.902999 
L 279.059807 -47.907734 
L 279.248454 -47.909268 
L 279.437102 -47.907674 
L 279.62575 -47.902908 
L 279.814398 -47.894851 
L 280.003045 -47.883348 
L 280.191693 -47.86826 
L 280.380341 -47.849508 
L 280.568988 -47.827105 
L 280.757636 -47.801196 
L 280.946284 -47.772078 
L 281.134932 -47.740221 
L 281.323579 -47.706288 
L 281.512227 -47.67114 
L 281.700875 -47.635852 
L 281.889523 -47.60171 
L 282.07817 -47.570206 
L 282.266818 -47.543034 
L 282.455466 -47.52206 
L 282.644114 -47.509291 
L 282.832761 -47.506829 
L 283.021409 -47.516813 
L 283.210057 -47.541345 
L 283.398705 -47.582412 
L 283.587352 -47.641791 
L 283.776 -47.720957 
L 283.964648 -47.820992 
L 284.153296 -47.942492 
L 284.341943 -48.085494 
L 284.530591 -48.24942 
L 284.719239 -48.433049 
L 284.907887 -48.634507 
L 285.096534 -48.851298 
L 285.285182 -49.080364 
L 285.47383 -49.318166 
L 285.662478 -49.560791 
L 285.851125 -49.804068 
L 286.039773 -50.043697 
L 286.228421 -50.275357 
L 286.417068 -50.494818 
L 286.605716 -50.698018 
L 286.794364 -50.881122 
L 286.983012 -51.040562 
L 287.171659 -51.173057 
L 287.360307 -51.275621 
L 287.548955 -51.345585 
L 287.737603 -51.380628 
L 287.92625 -51.37884 
L 288.114898 -51.33881 
L 288.303546 -51.259757 
L 288.492194 -51.141667 
L 288.680841 -50.985451 
L 288.869489 -50.793063 
L 289.058137 -50.56759 
L 289.246785 -50.313257 
L 289.435432 -50.035352 
L 289.62408 -49.740053 
L 289.812728 -49.434167 
L 290.001376 -49.124799 
L 290.190023 -48.818977 
L 290.378671 -48.523282 
L 290.567319 -48.243503 
L 290.755967 -47.984368 
L 290.944614 -47.74936 
L 291.133262 -47.540643 
L 291.32191 -47.359087 
L 291.510558 -47.204393 
L 291.699205 -47.075277 
L 291.887853 -46.969704 
L 292.076501 -46.885136 
L 292.265149 -46.818768 
L 292.453796 -46.76774 
L 292.453796 -46.505226 
L 292.453796 -46.505226 
L 292.265149 -46.454197 
L 292.076501 -46.38783 
L 291.887853 -46.303262 
L 291.699205 -46.197689 
L 291.510558 -46.068573 
L 291.32191 -45.913879 
L 291.133262 -45.732323 
L 290.944614 -45.523606 
L 290.755967 -45.288598 
L 290.567319 -45.029463 
L 290.378671 -44.749684 
L 290.190023 -44.453989 
L 290.001376 -44.148167 
L 289.812728 -43.838799 
L 289.62408 -43.532913 
L 289.435432 -43.237614 
L 289.246785 -42.959709 
L 289.058137 -42.705376 
L 288.869489 -42.479903 
L 288.680841 -42.287515 
L 288.492194 -42.131299 
L 288.303546 -42.013209 
L 288.114898 -41.934156 
L 287.92625 -41.894126 
L 287.737603 -41.892337 
L 287.548955 -41.927381 
L 287.360307 -41.997345 
L 287.171659 -42.099909 
L 286.983012 -42.232403 
L 286.794364 -42.391844 
L 286.605716 -42.574948 
L 286.417068 -42.778147 
L 286.228421 -42.997609 
L 286.039773 -43.229269 
L 285.851125 -43.468898 
L 285.662478 -43.712175 
L 285.47383 -43.9548 
L 285.285182 -44.192602 
L 285.096534 -44.421668 
L 284.907887 -44.638459 
L 284.719239 -44.839917 
L 284.530591 -45.023545 
L 284.341943 -45.187472 
L 284.153296 -45.330474 
L 283.964648 -45.451974 
L 283.776 -45.552009 
L 283.587352 -45.631175 
L 283.398705 -45.690554 
L 283.210057 -45.731621 
L 283.021409 -45.756153 
L 282.832761 -45.766137 
L 282.644114 -45.763675 
L 282.455466 -45.750906 
L 282.266818 -45.729931 
L 282.07817 -45.70276 
L 281.889523 -45.671256 
L 281.700875 -45.637113 
L 281.512227 -45.601825 
L 281.323579 -45.566678 
L 281.134932 -45.532745 
L 280.946284 -45.500888 
L 280.757636 -45.47177 
L 280.568988 -45.445861 
L 280.380341 -45.423458 
L 280.191693 -45.404706 
L 280.003045 -45.389618 
L 279.814398 -45.378115 
L 279.62575 -45.370057 
L 279.437102 -45.365292 
L 279.248454 -45.363698 
L 279.059807 -45.365232 
L 278.871159 -45.369967 
L 278.682511 -45.378121 
L 278.493863 -45.390067 
L 278.305216 -45.406317 
L 278.116568 -45.427484 
L 277.92792 -45.454227 
L 277.739272 -45.487168 
L 277.550625 -45.526802 
L 277.361977 -45.573417 
L 277.173329 -45.627009 
L 276.984681 -45.687233 
L 276.796034 -45.75338 
L 276.607386 -45.824394 
L 276.418738 -45.898912 
L 276.23009 -45.975357 
L 276.041443 -46.052032 
L 275.852795 -46.127238 
L 275.664147 -46.199384 
L 275.475499 -46.267089 
L 275.286852 -46.329252 
L 275.098204 -46.385102 
L 274.909556 -46.43421 
L 274.720908 -46.476474 
L 274.532261 -46.51208 
L 274.343613 -46.541448 
L 274.154965 -46.565164 
L 273.966317 -46.583916 
L 273.77767 -46.598436 
z
" id="m31141fb13f" style="stroke:#3f3f3f;stroke-width:0.5;"/>
    </defs>
    <g clip-path="url(#p42d50dec4e)">
     <use style="fill:#ff4f28;stroke:#3f3f3f;stroke-width:0.5;" x="0" xlink:href="#m31141fb13f" y="166.509937"/>
    </g>
   </g>
   <g id="PolyCollection_11">
    <defs>
     <path d="M 287.853942 -34.734308 
L 287.853942 -34.81793 
L 287.904046 -34.835452 
L 287.95415 -34.858631 
L 288.004254 -34.888596 
L 288.054358 -34.926456 
L 288.104462 -34.973209 
L 288.154566 -35.029641 
L 288.204671 -35.096227 
L 288.254775 -35.173039 
L 288.304879 -35.25968 
L 288.354983 -35.355259 
L 288.405087 -35.458402 
L 288.455191 -35.567323 
L 288.505295 -35.679921 
L 288.555399 -35.793929 
L 288.605503 -35.907061 
L 288.655608 -36.017172 
L 288.705712 -36.122388 
L 288.755816 -36.221208 
L 288.80592 -36.312555 
L 288.856024 -36.395787 
L 288.906128 -36.470658 
L 288.956232 -36.537252 
L 289.006336 -36.595897 
L 289.05644 -36.647069 
L 289.106545 -36.691315 
L 289.156649 -36.729184 
L 289.206753 -36.761199 
L 289.256857 -36.787839 
L 289.306961 -36.809555 
L 289.357065 -36.826802 
L 289.407169 -36.840071 
L 289.457273 -36.849926 
L 289.507377 -36.857024 
L 289.557482 -36.862122 
L 289.607586 -36.866063 
L 289.65769 -36.869745 
L 289.707794 -36.874075 
L 289.757898 -36.879918 
L 289.808002 -36.888047 
L 289.858106 -36.899096 
L 289.90821 -36.913534 
L 289.958314 -36.931642 
L 290.008419 -36.95352 
L 290.058523 -36.979099 
L 290.108627 -37.008168 
L 290.158731 -37.040409 
L 290.208835 -37.075442 
L 290.258939 -37.112859 
L 290.309043 -37.152277 
L 290.359147 -37.19337 
L 290.409251 -37.235911 
L 290.459356 -37.279798 
L 290.50946 -37.325077 
L 290.559564 -37.371955 
L 290.609668 -37.420802 
L 290.659772 -37.472146 
L 290.709876 -37.526651 
L 290.75998 -37.585098 
L 290.810084 -37.648354 
L 290.860189 -37.71734 
L 290.910293 -37.79299 
L 290.960397 -37.876213 
L 291.010501 -37.967833 
L 291.060605 -38.068521 
L 291.110709 -38.178705 
L 291.160813 -38.298447 
L 291.210917 -38.427306 
L 291.261021 -38.564178 
L 291.311126 -38.70713 
L 291.36123 -38.853265 
L 291.411334 -38.998626 
L 291.461438 -39.138186 
L 291.511542 -39.265941 
L 291.561646 -39.375128 
L 291.61175 -39.458571 
L 291.661854 -39.509136 
L 291.711958 -39.520265 
L 291.762063 -39.486536 
L 291.812167 -39.404193 
L 291.862271 -39.271578 
L 291.912375 -39.089413 
L 291.962479 -38.86089 
L 292.012583 -38.591551 
L 292.062687 -38.288967 
L 292.112791 -37.962237 
L 292.162895 -37.621365 
L 292.213 -37.276585 
L 292.263104 -36.937685 
L 292.313208 -36.613417 
L 292.363312 -36.311031 
L 292.413416 -36.035971 
L 292.46352 -35.791752 
L 292.513624 -35.580002 
L 292.563728 -35.400648 
L 292.613832 -35.252209 
L 292.663937 -35.132146 
L 292.714041 -35.037227 
L 292.764145 -34.963876 
L 292.814249 -34.908465 
L 292.814249 -34.643774 
L 292.814249 -34.643774 
L 292.764145 -34.588363 
L 292.714041 -34.515011 
L 292.663937 -34.420093 
L 292.613832 -34.30003 
L 292.563728 -34.151591 
L 292.513624 -33.972237 
L 292.46352 -33.760487 
L 292.413416 -33.516268 
L 292.363312 -33.241208 
L 292.313208 -32.938822 
L 292.263104 -32.614554 
L 292.213 -32.275654 
L 292.162895 -31.930873 
L 292.112791 -31.590002 
L 292.062687 -31.263271 
L 292.012583 -30.960688 
L 291.962479 -30.691349 
L 291.912375 -30.462825 
L 291.862271 -30.28066 
L 291.812167 -30.148045 
L 291.762063 -30.065703 
L 291.711958 -30.031974 
L 291.661854 -30.043102 
L 291.61175 -30.093667 
L 291.561646 -30.17711 
L 291.511542 -30.286297 
L 291.461438 -30.414052 
L 291.411334 -30.553612 
L 291.36123 -30.698974 
L 291.311126 -30.845109 
L 291.261021 -30.988061 
L 291.210917 -31.124932 
L 291.160813 -31.253792 
L 291.110709 -31.373534 
L 291.060605 -31.483718 
L 291.010501 -31.584406 
L 290.960397 -31.676026 
L 290.910293 -31.759249 
L 290.860189 -31.834899 
L 290.810084 -31.903885 
L 290.75998 -31.967141 
L 290.709876 -32.025588 
L 290.659772 -32.080093 
L 290.609668 -32.131436 
L 290.559564 -32.180284 
L 290.50946 -32.227162 
L 290.459356 -32.272441 
L 290.409251 -32.316327 
L 290.359147 -32.358868 
L 290.309043 -32.399962 
L 290.258939 -32.43938 
L 290.208835 -32.476797 
L 290.158731 -32.511829 
L 290.108627 -32.544071 
L 290.058523 -32.57314 
L 290.008419 -32.598719 
L 289.958314 -32.620597 
L 289.90821 -32.638705 
L 289.858106 -32.653142 
L 289.808002 -32.664192 
L 289.757898 -32.672321 
L 289.707794 -32.678164 
L 289.65769 -32.682493 
L 289.607586 -32.686175 
L 289.557482 -32.690116 
L 289.507377 -32.695215 
L 289.457273 -32.702313 
L 289.407169 -32.712168 
L 289.357065 -32.725437 
L 289.306961 -32.742684 
L 289.256857 -32.7644 
L 289.206753 -32.791039 
L 289.156649 -32.823054 
L 289.106545 -32.860924 
L 289.05644 -32.905169 
L 289.006336 -32.956342 
L 288.956232 -33.014986 
L 288.906128 -33.081581 
L 288.856024 -33.156452 
L 288.80592 -33.239683 
L 288.755816 -33.33103 
L 288.705712 -33.42985 
L 288.655608 -33.535066 
L 288.605503 -33.645177 
L 288.555399 -33.75831 
L 288.505295 -33.872317 
L 288.455191 -33.984916 
L 288.405087 -34.093836 
L 288.354983 -34.19698 
L 288.304879 -34.292559 
L 288.254775 -34.3792 
L 288.204671 -34.456011 
L 288.154566 -34.522597 
L 288.104462 -34.57903 
L 288.054358 -34.625782 
L 288.004254 -34.663643 
L 287.95415 -34.693608 
L 287.904046 -34.716786 
L 287.853942 -34.734308 
z
" id="m763e739b11" style="stroke:#3f3f3f;stroke-width:0.5;"/>
    </defs>
    <g clip-path="url(#p42d50dec4e)">
     <use style="fill:#ff0000;stroke:#3f3f3f;stroke-width:0.5;" x="0" xlink:href="#m763e739b11" y="166.509937"/>
    </g>
   </g>
   <g id="patch_3">
    <path clip-path="url(#p42d50dec4e)" d="M 218.416856 13.130182 
L 218.416856 13.130182 
L 218.416856 13.130182 
L 218.416856 13.130182 
z
" style="fill:#3274a1;stroke:#3f3f3f;stroke-linejoin:miter;stroke-width:0.25;"/>
   </g>
   <g id="line2d_19">
    <path clip-path="url(#p42d50dec4e)" d="M 55.487072 13.130182 
L 65.993415 13.130182 
" style="fill:none;stroke:#3f3f3f;stroke-linecap:round;stroke-width:0.5;"/>
   </g>
   <g id="line2d_20">
    <path clip-path="url(#p42d50dec4e)" d="M 56.818239 13.130182 
L 61.319943 13.130182 
" style="fill:none;stroke:#3f3f3f;stroke-linecap:round;stroke-width:1.5;"/>
   </g>
   <g id="line2d_21">
    <path clip-path="url(#p42d50dec4e)" d="M 70.032353 24.990545 
L 92.126752 24.990545 
" style="fill:none;stroke:#3f3f3f;stroke-linecap:round;stroke-width:0.5;"/>
   </g>
   <g id="line2d_22">
    <path clip-path="url(#p42d50dec4e)" d="M 78.95856 24.990545 
L 86.603153 24.990545 
" style="fill:none;stroke:#3f3f3f;stroke-linecap:round;stroke-width:1.5;"/>
   </g>
   <g id="line2d_23">
    <path clip-path="url(#p42d50dec4e)" d="M 212.851878 36.850909 
L 220.249935 36.850909 
" style="fill:none;stroke:#3f3f3f;stroke-linecap:round;stroke-width:0.5;"/>
   </g>
   <g id="line2d_24">
    <path clip-path="url(#p42d50dec4e)" d="M 214.622268 36.850909 
L 218.568531 36.850909 
" style="fill:none;stroke:#3f3f3f;stroke-linecap:round;stroke-width:1.5;"/>
   </g>
   <g id="line2d_25">
    <path clip-path="url(#p42d50dec4e)" d="M 282.188956 48.711273 
L 291.79333 48.711273 
" style="fill:none;stroke:#3f3f3f;stroke-linecap:round;stroke-width:0.5;"/>
   </g>
   <g id="line2d_26">
    <path clip-path="url(#p42d50dec4e)" d="M 286.556036 48.711273 
L 290.664318 48.711273 
" style="fill:none;stroke:#3f3f3f;stroke-linecap:round;stroke-width:1.5;"/>
   </g>
   <g id="line2d_27">
    <path clip-path="url(#p42d50dec4e)" d="M 281.478063 60.571636 
L 292.074383 60.571636 
" style="fill:none;stroke:#3f3f3f;stroke-linecap:round;stroke-width:0.5;"/>
   </g>
   <g id="line2d_28">
    <path clip-path="url(#p42d50dec4e)" d="M 284.955915 60.571636 
L 290.581761 60.571636 
" style="fill:none;stroke:#3f3f3f;stroke-linecap:round;stroke-width:1.5;"/>
   </g>
   <g id="line2d_29">
    <path clip-path="url(#p42d50dec4e)" d="M 283.451685 72.432 
L 290.842929 72.432 
" style="fill:none;stroke:#3f3f3f;stroke-linecap:round;stroke-width:0.5;"/>
   </g>
   <g id="line2d_30">
    <path clip-path="url(#p42d50dec4e)" d="M 287.056587 72.432 
L 290.016557 72.432 
" style="fill:none;stroke:#3f3f3f;stroke-linecap:round;stroke-width:1.5;"/>
   </g>
   <g id="line2d_31">
    <path clip-path="url(#p42d50dec4e)" d="M 275.746477 84.292364 
L 283.378342 84.292364 
" style="fill:none;stroke:#3f3f3f;stroke-linecap:round;stroke-width:0.5;"/>
   </g>
   <g id="line2d_32">
    <path clip-path="url(#p42d50dec4e)" d="M 277.544923 84.292364 
L 281.729414 84.292364 
" style="fill:none;stroke:#3f3f3f;stroke-linecap:round;stroke-width:1.5;"/>
   </g>
   <g id="line2d_33">
    <path clip-path="url(#p42d50dec4e)" d="M 268.855962 96.152727 
L 270.097035 96.152727 
" style="fill:none;stroke:#3f3f3f;stroke-linecap:round;stroke-width:0.5;"/>
   </g>
   <g id="line2d_34">
    <path clip-path="url(#p42d50dec4e)" d="M 269.273739 96.152727 
L 269.822321 96.152727 
" style="fill:none;stroke:#3f3f3f;stroke-linecap:round;stroke-width:1.5;"/>
   </g>
   <g id="line2d_35">
    <path clip-path="url(#p42d50dec4e)" d="M 281.332571 108.013091 
L 293.03831 108.013091 
" style="fill:none;stroke:#3f3f3f;stroke-linecap:round;stroke-width:0.5;"/>
   </g>
   <g id="line2d_36">
    <path clip-path="url(#p42d50dec4e)" d="M 285.356254 108.013091 
L 290.930761 108.013091 
" style="fill:none;stroke:#3f3f3f;stroke-linecap:round;stroke-width:1.5;"/>
   </g>
   <g id="line2d_37">
    <path clip-path="url(#p42d50dec4e)" d="M 276.416902 119.873455 
L 289.814564 119.873455 
" style="fill:none;stroke:#3f3f3f;stroke-linecap:round;stroke-width:0.5;"/>
   </g>
   <g id="line2d_38">
    <path clip-path="url(#p42d50dec4e)" d="M 283.073046 119.873455 
L 288.400303 119.873455 
" style="fill:none;stroke:#3f3f3f;stroke-linecap:round;stroke-width:1.5;"/>
   </g>
   <g id="line2d_39">
    <path clip-path="url(#p42d50dec4e)" d="M 288.513382 131.733818 
L 292.154809 131.733818 
" style="fill:none;stroke:#3f3f3f;stroke-linecap:round;stroke-width:0.5;"/>
   </g>
   <g id="line2d_40">
    <path clip-path="url(#p42d50dec4e)" d="M 289.936101 131.733818 
L 291.733602 131.733818 
" style="fill:none;stroke:#3f3f3f;stroke-linecap:round;stroke-width:1.5;"/>
   </g>
   <g id="patch_4">
    <path d="M 40.100625 137.664 
L 40.100625 7.2 
" style="fill:none;stroke:#262626;stroke-linecap:square;stroke-linejoin:miter;stroke-width:0.8;"/>
   </g>
   <g id="patch_5">
    <path d="M 307.940625 137.664 
L 307.940625 7.2 
" style="fill:none;stroke:#262626;stroke-linecap:square;stroke-linejoin:miter;stroke-width:0.8;"/>
   </g>
   <g id="patch_6">
    <path d="M 40.100625 137.664 
L 307.940625 137.664 
" style="fill:none;stroke:#262626;stroke-linecap:square;stroke-linejoin:miter;stroke-width:0.8;"/>
   </g>
   <g id="patch_7">
    <path d="M 40.100625 7.2 
L 307.940625 7.2 
" style="fill:none;stroke:#262626;stroke-linecap:square;stroke-linejoin:miter;stroke-width:0.8;"/>
   </g>
   <g id="PathCollection_1">
    <defs>
     <path d="M 0 0.5 
C 0.132602 0.5 0.25979 0.447317 0.353553 0.353553 
C 0.447317 0.25979 0.5 0.132602 0.5 0 
C 0.5 -0.132602 0.447317 -0.25979 0.353553 -0.353553 
C 0.25979 -0.447317 0.132602 -0.5 0 -0.5 
C -0.132602 -0.5 -0.25979 -0.447317 -0.353553 -0.353553 
C -0.447317 -0.25979 -0.5 -0.132602 -0.5 0 
C -0.5 0.132602 -0.447317 0.25979 -0.353553 0.353553 
C -0.25979 0.447317 -0.132602 0.5 0 0.5 
z
" id="m2599211958" style="stroke:#3f3f3f;"/>
    </defs>
    <g clip-path="url(#p42d50dec4e)">
     <use style="fill:#ffffff;stroke:#3f3f3f;" x="58.266098" xlink:href="#m2599211958" y="13.130182"/>
    </g>
   </g>
   <g id="PathCollection_2">
    <g clip-path="url(#p42d50dec4e)">
     <use style="fill:#ffffff;stroke:#3f3f3f;" x="84.665812" xlink:href="#m2599211958" y="24.990545"/>
    </g>
   </g>
   <g id="PathCollection_3">
    <g clip-path="url(#p42d50dec4e)">
     <use style="fill:#ffffff;stroke:#3f3f3f;" x="216.423153" xlink:href="#m2599211958" y="36.850909"/>
    </g>
   </g>
   <g id="PathCollection_4">
    <g clip-path="url(#p42d50dec4e)">
     <use style="fill:#ffffff;stroke:#3f3f3f;" x="289.194943" xlink:href="#m2599211958" y="48.711273"/>
    </g>
   </g>
   <g id="PathCollection_5">
    <g clip-path="url(#p42d50dec4e)">
     <use style="fill:#ffffff;stroke:#3f3f3f;" x="288.120999" xlink:href="#m2599211958" y="60.571636"/>
    </g>
   </g>
   <g id="PathCollection_6">
    <g clip-path="url(#p42d50dec4e)">
     <use style="fill:#ffffff;stroke:#3f3f3f;" x="289.077243" xlink:href="#m2599211958" y="72.432"/>
    </g>
   </g>
   <g id="PathCollection_7">
    <g clip-path="url(#p42d50dec4e)">
     <use style="fill:#ffffff;stroke:#3f3f3f;" x="279.873351" xlink:href="#m2599211958" y="84.292364"/>
    </g>
   </g>
   <g id="PathCollection_8">
    <g clip-path="url(#p42d50dec4e)">
     <use style="fill:#ffffff;stroke:#3f3f3f;" x="269.589444" xlink:href="#m2599211958" y="96.152727"/>
    </g>
   </g>
   <g id="PathCollection_9">
    <g clip-path="url(#p42d50dec4e)">
     <use style="fill:#ffffff;stroke:#3f3f3f;" x="288.377707" xlink:href="#m2599211958" y="108.013091"/>
    </g>
   </g>
   <g id="PathCollection_10">
    <g clip-path="url(#p42d50dec4e)">
     <use style="fill:#ffffff;stroke:#3f3f3f;" x="286.932784" xlink:href="#m2599211958" y="119.873455"/>
    </g>
   </g>
   <g id="PathCollection_11">
    <g clip-path="url(#p42d50dec4e)">
     <use style="fill:#ffffff;stroke:#3f3f3f;" x="291.020078" xlink:href="#m2599211958" y="131.733818"/>
    </g>
   </g>
  </g>
 </g>
 <defs>
  <clipPath id="p42d50dec4e">
   <rect height="130.464" width="267.84" x="40.100625" y="7.2"/>
  </clipPath>
 </defs>
</svg>
