<?xml version="1.0" encoding="utf-8" standalone="no"?>
<!DOCTYPE svg PUBLIC "-//W3C//DTD SVG 1.1//EN"
  "http://www.w3.org/Graphics/SVG/1.1/DTD/svg11.dtd">
<!-- Created with matplotlib (https://matplotlib.org/) -->
<svg height="177.828844pt" version="1.1" viewBox="0 0 305.974297 177.828844" width="305.974297pt" xmlns="http://www.w3.org/2000/svg" xmlns:xlink="http://www.w3.org/1999/xlink">
 <metadata>
  <rdf:RDF xmlns:cc="http://creativecommons.org/ns#" xmlns:dc="http://purl.org/dc/elements/1.1/" xmlns:rdf="http://www.w3.org/1999/02/22-rdf-syntax-ns#">
   <cc:Work>
    <dc:type rdf:resource="http://purl.org/dc/dcmitype/StillImage"/>
    <dc:date>2021-04-04T15:39:21.218253</dc:date>
    <dc:format>image/svg+xml</dc:format>
    <dc:creator>
     <cc:Agent>
      <dc:title>Matplotlib v3.3.2, https://matplotlib.org/</dc:title>
     </cc:Agent>
    </dc:creator>
   </cc:Work>
  </rdf:RDF>
 </metadata>
 <defs>
  <style type="text/css">*{stroke-linecap:butt;stroke-linejoin:round;}</style>
 </defs>
 <g id="figure_1">
  <g id="patch_1">
   <path d="M 0 177.828844 
L 305.974297 177.828844 
L 305.974297 0 
L 0 0 
z
" style="fill:#ffffff;"/>
  </g>
  <g id="axes_1">
   <g id="patch_2">
    <path d="M 22.151563 148.982906 
L 156.071562 148.982906 
L 156.071562 18.518906 
L 22.151563 18.518906 
z
" style="fill:#ffffff;"/>
   </g>
   <g id="matplotlib.axis_1">
    <g id="xtick_1">
     <g id="line2d_1">
      <defs>
       <path d="M 0 0 
L 0 3.5 
" id="mc3c4b9daff" style="stroke:#262626;stroke-width:0.8;"/>
      </defs>
      <g>
       <use style="fill:#262626;stroke:#262626;stroke-width:0.8;" x="22.151563" xlink:href="#mc3c4b9daff" y="148.982906"/>
      </g>
     </g>
     <g id="text_1">
      <!-- 0.0 -->
      <g style="fill:#262626;" transform="translate(18.175781 159.782125)scale(0.05 -0.05)">
       <defs>
        <path d="M 31.78125 66.40625 
Q 24.171875 66.40625 20.328125 58.90625 
Q 16.5 51.421875 16.5 36.375 
Q 16.5 21.390625 20.328125 13.890625 
Q 24.171875 6.390625 31.78125 6.390625 
Q 39.453125 6.390625 43.28125 13.890625 
Q 47.125 21.390625 47.125 36.375 
Q 47.125 51.421875 43.28125 58.90625 
Q 39.453125 66.40625 31.78125 66.40625 
z
M 31.78125 74.21875 
Q 44.046875 74.21875 50.515625 64.515625 
Q 56.984375 54.828125 56.984375 36.375 
Q 56.984375 17.96875 50.515625 8.265625 
Q 44.046875 -1.421875 31.78125 -1.421875 
Q 19.53125 -1.421875 13.0625 8.265625 
Q 6.59375 17.96875 6.59375 36.375 
Q 6.59375 54.828125 13.0625 64.515625 
Q 19.53125 74.21875 31.78125 74.21875 
z
" id="DejaVuSans-48"/>
        <path d="M 10.6875 12.40625 
L 21 12.40625 
L 21 0 
L 10.6875 0 
z
" id="DejaVuSans-46"/>
       </defs>
       <use xlink:href="#DejaVuSans-48"/>
       <use x="63.623047" xlink:href="#DejaVuSans-46"/>
       <use x="95.410156" xlink:href="#DejaVuSans-48"/>
      </g>
     </g>
    </g>
    <g id="xtick_2">
     <g id="line2d_2">
      <g>
       <use style="fill:#262626;stroke:#262626;stroke-width:0.8;" x="48.935562" xlink:href="#mc3c4b9daff" y="148.982906"/>
      </g>
     </g>
     <g id="text_2">
      <!-- 0.2 -->
      <g style="fill:#262626;" transform="translate(44.959781 159.782125)scale(0.05 -0.05)">
       <defs>
        <path d="M 19.1875 8.296875 
L 53.609375 8.296875 
L 53.609375 0 
L 7.328125 0 
L 7.328125 8.296875 
Q 12.9375 14.109375 22.625 23.890625 
Q 32.328125 33.6875 34.8125 36.53125 
Q 39.546875 41.84375 41.421875 45.53125 
Q 43.3125 49.21875 43.3125 52.78125 
Q 43.3125 58.59375 39.234375 62.25 
Q 35.15625 65.921875 28.609375 65.921875 
Q 23.96875 65.921875 18.8125 64.3125 
Q 13.671875 62.703125 7.8125 59.421875 
L 7.8125 69.390625 
Q 13.765625 71.78125 18.9375 73 
Q 24.125 74.21875 28.421875 74.21875 
Q 39.75 74.21875 46.484375 68.546875 
Q 53.21875 62.890625 53.21875 53.421875 
Q 53.21875 48.921875 51.53125 44.890625 
Q 49.859375 40.875 45.40625 35.40625 
Q 44.1875 33.984375 37.640625 27.21875 
Q 31.109375 20.453125 19.1875 8.296875 
z
" id="DejaVuSans-50"/>
       </defs>
       <use xlink:href="#DejaVuSans-48"/>
       <use x="63.623047" xlink:href="#DejaVuSans-46"/>
       <use x="95.410156" xlink:href="#DejaVuSans-50"/>
      </g>
     </g>
    </g>
    <g id="xtick_3">
     <g id="line2d_3">
      <g>
       <use style="fill:#262626;stroke:#262626;stroke-width:0.8;" x="75.719562" xlink:href="#mc3c4b9daff" y="148.982906"/>
      </g>
     </g>
     <g id="text_3">
      <!-- 0.4 -->
      <g style="fill:#262626;" transform="translate(71.743781 159.782125)scale(0.05 -0.05)">
       <defs>
        <path d="M 37.796875 64.3125 
L 12.890625 25.390625 
L 37.796875 25.390625 
z
M 35.203125 72.90625 
L 47.609375 72.90625 
L 47.609375 25.390625 
L 58.015625 25.390625 
L 58.015625 17.1875 
L 47.609375 17.1875 
L 47.609375 0 
L 37.796875 0 
L 37.796875 17.1875 
L 4.890625 17.1875 
L 4.890625 26.703125 
z
" id="DejaVuSans-52"/>
       </defs>
       <use xlink:href="#DejaVuSans-48"/>
       <use x="63.623047" xlink:href="#DejaVuSans-46"/>
       <use x="95.410156" xlink:href="#DejaVuSans-52"/>
      </g>
     </g>
    </g>
    <g id="xtick_4">
     <g id="line2d_4">
      <g>
       <use style="fill:#262626;stroke:#262626;stroke-width:0.8;" x="102.503562" xlink:href="#mc3c4b9daff" y="148.982906"/>
      </g>
     </g>
     <g id="text_4">
      <!-- 0.6 -->
      <g style="fill:#262626;" transform="translate(98.527781 159.782125)scale(0.05 -0.05)">
       <defs>
        <path d="M 33.015625 40.375 
Q 26.375 40.375 22.484375 35.828125 
Q 18.609375 31.296875 18.609375 23.390625 
Q 18.609375 15.53125 22.484375 10.953125 
Q 26.375 6.390625 33.015625 6.390625 
Q 39.65625 6.390625 43.53125 10.953125 
Q 47.40625 15.53125 47.40625 23.390625 
Q 47.40625 31.296875 43.53125 35.828125 
Q 39.65625 40.375 33.015625 40.375 
z
M 52.59375 71.296875 
L 52.59375 62.3125 
Q 48.875 64.0625 45.09375 64.984375 
Q 41.3125 65.921875 37.59375 65.921875 
Q 27.828125 65.921875 22.671875 59.328125 
Q 17.53125 52.734375 16.796875 39.40625 
Q 19.671875 43.65625 24.015625 45.921875 
Q 28.375 48.1875 33.59375 48.1875 
Q 44.578125 48.1875 50.953125 41.515625 
Q 57.328125 34.859375 57.328125 23.390625 
Q 57.328125 12.15625 50.6875 5.359375 
Q 44.046875 -1.421875 33.015625 -1.421875 
Q 20.359375 -1.421875 13.671875 8.265625 
Q 6.984375 17.96875 6.984375 36.375 
Q 6.984375 53.65625 15.1875 63.9375 
Q 23.390625 74.21875 37.203125 74.21875 
Q 40.921875 74.21875 44.703125 73.484375 
Q 48.484375 72.75 52.59375 71.296875 
z
" id="DejaVuSans-54"/>
       </defs>
       <use xlink:href="#DejaVuSans-48"/>
       <use x="63.623047" xlink:href="#DejaVuSans-46"/>
       <use x="95.410156" xlink:href="#DejaVuSans-54"/>
      </g>
     </g>
    </g>
    <g id="xtick_5">
     <g id="line2d_5">
      <g>
       <use style="fill:#262626;stroke:#262626;stroke-width:0.8;" x="129.287562" xlink:href="#mc3c4b9daff" y="148.982906"/>
      </g>
     </g>
     <g id="text_5">
      <!-- 0.8 -->
      <g style="fill:#262626;" transform="translate(125.311781 159.782125)scale(0.05 -0.05)">
       <defs>
        <path d="M 31.78125 34.625 
Q 24.75 34.625 20.71875 30.859375 
Q 16.703125 27.09375 16.703125 20.515625 
Q 16.703125 13.921875 20.71875 10.15625 
Q 24.75 6.390625 31.78125 6.390625 
Q 38.8125 6.390625 42.859375 10.171875 
Q 46.921875 13.96875 46.921875 20.515625 
Q 46.921875 27.09375 42.890625 30.859375 
Q 38.875 34.625 31.78125 34.625 
z
M 21.921875 38.8125 
Q 15.578125 40.375 12.03125 44.71875 
Q 8.5 49.078125 8.5 55.328125 
Q 8.5 64.0625 14.71875 69.140625 
Q 20.953125 74.21875 31.78125 74.21875 
Q 42.671875 74.21875 48.875 69.140625 
Q 55.078125 64.0625 55.078125 55.328125 
Q 55.078125 49.078125 51.53125 44.71875 
Q 48 40.375 41.703125 38.8125 
Q 48.828125 37.15625 52.796875 32.3125 
Q 56.78125 27.484375 56.78125 20.515625 
Q 56.78125 9.90625 50.3125 4.234375 
Q 43.84375 -1.421875 31.78125 -1.421875 
Q 19.734375 -1.421875 13.25 4.234375 
Q 6.78125 9.90625 6.78125 20.515625 
Q 6.78125 27.484375 10.78125 32.3125 
Q 14.796875 37.15625 21.921875 38.8125 
z
M 18.3125 54.390625 
Q 18.3125 48.734375 21.84375 45.5625 
Q 25.390625 42.390625 31.78125 42.390625 
Q 38.140625 42.390625 41.71875 45.5625 
Q 45.3125 48.734375 45.3125 54.390625 
Q 45.3125 60.0625 41.71875 63.234375 
Q 38.140625 66.40625 31.78125 66.40625 
Q 25.390625 66.40625 21.84375 63.234375 
Q 18.3125 60.0625 18.3125 54.390625 
z
" id="DejaVuSans-56"/>
       </defs>
       <use xlink:href="#DejaVuSans-48"/>
       <use x="63.623047" xlink:href="#DejaVuSans-46"/>
       <use x="95.410156" xlink:href="#DejaVuSans-56"/>
      </g>
     </g>
    </g>
    <g id="xtick_6">
     <g id="line2d_6">
      <g>
       <use style="fill:#262626;stroke:#262626;stroke-width:0.8;" x="156.071562" xlink:href="#mc3c4b9daff" y="148.982906"/>
      </g>
     </g>
     <g id="text_6">
      <!-- 1.0 -->
      <g style="fill:#262626;" transform="translate(152.095781 159.782125)scale(0.05 -0.05)">
       <defs>
        <path d="M 12.40625 8.296875 
L 28.515625 8.296875 
L 28.515625 63.921875 
L 10.984375 60.40625 
L 10.984375 69.390625 
L 28.421875 72.90625 
L 38.28125 72.90625 
L 38.28125 8.296875 
L 54.390625 8.296875 
L 54.390625 0 
L 12.40625 0 
z
" id="DejaVuSans-49"/>
       </defs>
       <use xlink:href="#DejaVuSans-49"/>
       <use x="63.623047" xlink:href="#DejaVuSans-46"/>
       <use x="95.410156" xlink:href="#DejaVuSans-48"/>
      </g>
     </g>
    </g>
   </g>
   <g id="matplotlib.axis_2">
    <g id="ytick_1">
     <g id="line2d_7">
      <defs>
       <path d="M 0 0 
L -3.5 0 
" id="mf620ac604d" style="stroke:#262626;stroke-width:0.8;"/>
      </defs>
      <g>
       <use style="fill:#262626;stroke:#262626;stroke-width:0.8;" x="22.151563" xlink:href="#mf620ac604d" y="148.982906"/>
      </g>
     </g>
     <g id="text_7">
      <!-- 0.0 -->
      <g style="fill:#262626;" transform="translate(7.2 150.882516)scale(0.05 -0.05)">
       <use xlink:href="#DejaVuSans-48"/>
       <use x="63.623047" xlink:href="#DejaVuSans-46"/>
       <use x="95.410156" xlink:href="#DejaVuSans-48"/>
      </g>
     </g>
    </g>
    <g id="ytick_2">
     <g id="line2d_8">
      <g>
       <use style="fill:#262626;stroke:#262626;stroke-width:0.8;" x="22.151563" xlink:href="#mf620ac604d" y="122.890106"/>
      </g>
     </g>
     <g id="text_8">
      <!-- 0.2 -->
      <g style="fill:#262626;" transform="translate(7.2 124.789716)scale(0.05 -0.05)">
       <use xlink:href="#DejaVuSans-48"/>
       <use x="63.623047" xlink:href="#DejaVuSans-46"/>
       <use x="95.410156" xlink:href="#DejaVuSans-50"/>
      </g>
     </g>
    </g>
    <g id="ytick_3">
     <g id="line2d_9">
      <g>
       <use style="fill:#262626;stroke:#262626;stroke-width:0.8;" x="22.151563" xlink:href="#mf620ac604d" y="96.797306"/>
      </g>
     </g>
     <g id="text_9">
      <!-- 0.4 -->
      <g style="fill:#262626;" transform="translate(7.2 98.696916)scale(0.05 -0.05)">
       <use xlink:href="#DejaVuSans-48"/>
       <use x="63.623047" xlink:href="#DejaVuSans-46"/>
       <use x="95.410156" xlink:href="#DejaVuSans-52"/>
      </g>
     </g>
    </g>
    <g id="ytick_4">
     <g id="line2d_10">
      <g>
       <use style="fill:#262626;stroke:#262626;stroke-width:0.8;" x="22.151563" xlink:href="#mf620ac604d" y="70.704506"/>
      </g>
     </g>
     <g id="text_10">
      <!-- 0.6 -->
      <g style="fill:#262626;" transform="translate(7.2 72.604116)scale(0.05 -0.05)">
       <use xlink:href="#DejaVuSans-48"/>
       <use x="63.623047" xlink:href="#DejaVuSans-46"/>
       <use x="95.410156" xlink:href="#DejaVuSans-54"/>
      </g>
     </g>
    </g>
    <g id="ytick_5">
     <g id="line2d_11">
      <g>
       <use style="fill:#262626;stroke:#262626;stroke-width:0.8;" x="22.151563" xlink:href="#mf620ac604d" y="44.611706"/>
      </g>
     </g>
     <g id="text_11">
      <!-- 0.8 -->
      <g style="fill:#262626;" transform="translate(7.2 46.511316)scale(0.05 -0.05)">
       <use xlink:href="#DejaVuSans-48"/>
       <use x="63.623047" xlink:href="#DejaVuSans-46"/>
       <use x="95.410156" xlink:href="#DejaVuSans-56"/>
      </g>
     </g>
    </g>
    <g id="ytick_6">
     <g id="line2d_12">
      <g>
       <use style="fill:#262626;stroke:#262626;stroke-width:0.8;" x="22.151563" xlink:href="#mf620ac604d" y="18.518906"/>
      </g>
     </g>
     <g id="text_12">
      <!-- 1.0 -->
      <g style="fill:#262626;" transform="translate(7.2 20.418516)scale(0.05 -0.05)">
       <use xlink:href="#DejaVuSans-49"/>
       <use x="63.623047" xlink:href="#DejaVuSans-46"/>
       <use x="95.410156" xlink:href="#DejaVuSans-48"/>
      </g>
     </g>
    </g>
   </g>
   <g id="patch_3">
    <path d="M 22.151563 148.982906 
L 22.151563 18.518906 
" style="fill:none;stroke:#262626;stroke-linecap:square;stroke-linejoin:miter;stroke-width:0.8;"/>
   </g>
   <g id="patch_4">
    <path d="M 156.071562 148.982906 
L 156.071562 18.518906 
" style="fill:none;stroke:#262626;stroke-linecap:square;stroke-linejoin:miter;stroke-width:0.8;"/>
   </g>
   <g id="patch_5">
    <path d="M 22.151563 148.982906 
L 156.071562 148.982906 
" style="fill:none;stroke:#262626;stroke-linecap:square;stroke-linejoin:miter;stroke-width:0.8;"/>
   </g>
   <g id="patch_6">
    <path d="M 22.151563 18.518906 
L 156.071562 18.518906 
" style="fill:none;stroke:#262626;stroke-linecap:square;stroke-linejoin:miter;stroke-width:0.8;"/>
   </g>
  </g>
  <g id="axes_2">
   <g id="patch_7">
    <path d="M 156.071562 148.982906 
L 289.991562 148.982906 
L 289.991562 18.518906 
L 156.071562 18.518906 
z
" style="fill:#ffffff;"/>
   </g>
   <g id="matplotlib.axis_3">
    <g id="xtick_7">
     <g id="line2d_13">
      <g>
       <use style="fill:#262626;stroke:#262626;stroke-width:0.8;" x="171.640141" xlink:href="#mc3c4b9daff" y="148.982906"/>
      </g>
     </g>
     <g id="text_13">
      <!-- −20000 -->
      <g style="fill:#262626;" transform="translate(161.592095 159.782125)scale(0.05 -0.05)">
       <defs>
        <path d="M 10.59375 35.5 
L 73.1875 35.5 
L 73.1875 27.203125 
L 10.59375 27.203125 
z
" id="DejaVuSans-8722"/>
       </defs>
       <use xlink:href="#DejaVuSans-8722"/>
       <use x="83.789062" xlink:href="#DejaVuSans-50"/>
       <use x="147.412109" xlink:href="#DejaVuSans-48"/>
       <use x="211.035156" xlink:href="#DejaVuSans-48"/>
       <use x="274.658203" xlink:href="#DejaVuSans-48"/>
       <use x="338.28125" xlink:href="#DejaVuSans-48"/>
      </g>
     </g>
    </g>
    <g id="xtick_8">
     <g id="line2d_14">
      <g>
       <use style="fill:#262626;stroke:#262626;stroke-width:0.8;" x="191.100865" xlink:href="#mc3c4b9daff" y="148.982906"/>
      </g>
     </g>
     <g id="text_14">
      <!-- −17500 -->
      <g style="fill:#262626;" transform="translate(181.052818 159.782125)scale(0.05 -0.05)">
       <defs>
        <path d="M 8.203125 72.90625 
L 55.078125 72.90625 
L 55.078125 68.703125 
L 28.609375 0 
L 18.3125 0 
L 43.21875 64.59375 
L 8.203125 64.59375 
z
" id="DejaVuSans-55"/>
        <path d="M 10.796875 72.90625 
L 49.515625 72.90625 
L 49.515625 64.59375 
L 19.828125 64.59375 
L 19.828125 46.734375 
Q 21.96875 47.46875 24.109375 47.828125 
Q 26.265625 48.1875 28.421875 48.1875 
Q 40.625 48.1875 47.75 41.5 
Q 54.890625 34.8125 54.890625 23.390625 
Q 54.890625 11.625 47.5625 5.09375 
Q 40.234375 -1.421875 26.90625 -1.421875 
Q 22.3125 -1.421875 17.546875 -0.640625 
Q 12.796875 0.140625 7.71875 1.703125 
L 7.71875 11.625 
Q 12.109375 9.234375 16.796875 8.0625 
Q 21.484375 6.890625 26.703125 6.890625 
Q 35.15625 6.890625 40.078125 11.328125 
Q 45.015625 15.765625 45.015625 23.390625 
Q 45.015625 31 40.078125 35.4375 
Q 35.15625 39.890625 26.703125 39.890625 
Q 22.75 39.890625 18.8125 39.015625 
Q 14.890625 38.140625 10.796875 36.28125 
z
" id="DejaVuSans-53"/>
       </defs>
       <use xlink:href="#DejaVuSans-8722"/>
       <use x="83.789062" xlink:href="#DejaVuSans-49"/>
       <use x="147.412109" xlink:href="#DejaVuSans-55"/>
       <use x="211.035156" xlink:href="#DejaVuSans-53"/>
       <use x="274.658203" xlink:href="#DejaVuSans-48"/>
       <use x="338.28125" xlink:href="#DejaVuSans-48"/>
      </g>
     </g>
    </g>
    <g id="xtick_9">
     <g id="line2d_15">
      <g>
       <use style="fill:#262626;stroke:#262626;stroke-width:0.8;" x="210.561589" xlink:href="#mc3c4b9daff" y="148.982906"/>
      </g>
     </g>
     <g id="text_15">
      <!-- −15000 -->
      <g style="fill:#262626;" transform="translate(200.513542 159.782125)scale(0.05 -0.05)">
       <use xlink:href="#DejaVuSans-8722"/>
       <use x="83.789062" xlink:href="#DejaVuSans-49"/>
       <use x="147.412109" xlink:href="#DejaVuSans-53"/>
       <use x="211.035156" xlink:href="#DejaVuSans-48"/>
       <use x="274.658203" xlink:href="#DejaVuSans-48"/>
       <use x="338.28125" xlink:href="#DejaVuSans-48"/>
      </g>
     </g>
    </g>
    <g id="xtick_10">
     <g id="line2d_16">
      <g>
       <use style="fill:#262626;stroke:#262626;stroke-width:0.8;" x="230.022312" xlink:href="#mc3c4b9daff" y="148.982906"/>
      </g>
     </g>
     <g id="text_16">
      <!-- −12500 -->
      <g style="fill:#262626;" transform="translate(219.974266 159.782125)scale(0.05 -0.05)">
       <use xlink:href="#DejaVuSans-8722"/>
       <use x="83.789062" xlink:href="#DejaVuSans-49"/>
       <use x="147.412109" xlink:href="#DejaVuSans-50"/>
       <use x="211.035156" xlink:href="#DejaVuSans-53"/>
       <use x="274.658203" xlink:href="#DejaVuSans-48"/>
       <use x="338.28125" xlink:href="#DejaVuSans-48"/>
      </g>
     </g>
    </g>
    <g id="xtick_11">
     <g id="line2d_17">
      <g>
       <use style="fill:#262626;stroke:#262626;stroke-width:0.8;" x="249.483036" xlink:href="#mc3c4b9daff" y="148.982906"/>
      </g>
     </g>
     <g id="text_17">
      <!-- −10000 -->
      <g style="fill:#262626;" transform="translate(239.434989 159.782125)scale(0.05 -0.05)">
       <use xlink:href="#DejaVuSans-8722"/>
       <use x="83.789062" xlink:href="#DejaVuSans-49"/>
       <use x="147.412109" xlink:href="#DejaVuSans-48"/>
       <use x="211.035156" xlink:href="#DejaVuSans-48"/>
       <use x="274.658203" xlink:href="#DejaVuSans-48"/>
       <use x="338.28125" xlink:href="#DejaVuSans-48"/>
      </g>
     </g>
    </g>
    <g id="xtick_12">
     <g id="line2d_18">
      <g>
       <use style="fill:#262626;stroke:#262626;stroke-width:0.8;" x="268.94376" xlink:href="#mc3c4b9daff" y="148.982906"/>
      </g>
     </g>
     <g id="text_18">
      <!-- −7500 -->
      <g style="fill:#262626;" transform="translate(260.486338 159.782125)scale(0.05 -0.05)">
       <use xlink:href="#DejaVuSans-8722"/>
       <use x="83.789062" xlink:href="#DejaVuSans-55"/>
       <use x="147.412109" xlink:href="#DejaVuSans-53"/>
       <use x="211.035156" xlink:href="#DejaVuSans-48"/>
       <use x="274.658203" xlink:href="#DejaVuSans-48"/>
      </g>
     </g>
    </g>
    <g id="xtick_13">
     <g id="line2d_19">
      <g>
       <use style="fill:#262626;stroke:#262626;stroke-width:0.8;" x="288.404483" xlink:href="#mc3c4b9daff" y="148.982906"/>
      </g>
     </g>
     <g id="text_19">
      <!-- −5000 -->
      <g style="fill:#262626;" transform="translate(279.947062 159.782125)scale(0.05 -0.05)">
       <use xlink:href="#DejaVuSans-8722"/>
       <use x="83.789062" xlink:href="#DejaVuSans-53"/>
       <use x="147.412109" xlink:href="#DejaVuSans-48"/>
       <use x="211.035156" xlink:href="#DejaVuSans-48"/>
       <use x="274.658203" xlink:href="#DejaVuSans-48"/>
      </g>
     </g>
    </g>
    <g id="text_20">
     <!-- Years Before Present -->
     <g style="fill:#262626;" transform="translate(192.1475 169.381031)scale(0.06 -0.06)">
      <defs>
       <path d="M -0.203125 72.90625 
L 10.40625 72.90625 
L 30.609375 42.921875 
L 50.6875 72.90625 
L 61.28125 72.90625 
L 35.5 34.71875 
L 35.5 0 
L 25.59375 0 
L 25.59375 34.71875 
z
" id="DejaVuSans-89"/>
       <path d="M 56.203125 29.59375 
L 56.203125 25.203125 
L 14.890625 25.203125 
Q 15.484375 15.921875 20.484375 11.0625 
Q 25.484375 6.203125 34.421875 6.203125 
Q 39.59375 6.203125 44.453125 7.46875 
Q 49.3125 8.734375 54.109375 11.28125 
L 54.109375 2.78125 
Q 49.265625 0.734375 44.1875 -0.34375 
Q 39.109375 -1.421875 33.890625 -1.421875 
Q 20.796875 -1.421875 13.15625 6.1875 
Q 5.515625 13.8125 5.515625 26.8125 
Q 5.515625 40.234375 12.765625 48.109375 
Q 20.015625 56 32.328125 56 
Q 43.359375 56 49.78125 48.890625 
Q 56.203125 41.796875 56.203125 29.59375 
z
M 47.21875 32.234375 
Q 47.125 39.59375 43.09375 43.984375 
Q 39.0625 48.390625 32.421875 48.390625 
Q 24.90625 48.390625 20.390625 44.140625 
Q 15.875 39.890625 15.1875 32.171875 
z
" id="DejaVuSans-101"/>
       <path d="M 34.28125 27.484375 
Q 23.390625 27.484375 19.1875 25 
Q 14.984375 22.515625 14.984375 16.5 
Q 14.984375 11.71875 18.140625 8.90625 
Q 21.296875 6.109375 26.703125 6.109375 
Q 34.1875 6.109375 38.703125 11.40625 
Q 43.21875 16.703125 43.21875 25.484375 
L 43.21875 27.484375 
z
M 52.203125 31.203125 
L 52.203125 0 
L 43.21875 0 
L 43.21875 8.296875 
Q 40.140625 3.328125 35.546875 0.953125 
Q 30.953125 -1.421875 24.3125 -1.421875 
Q 15.921875 -1.421875 10.953125 3.296875 
Q 6 8.015625 6 15.921875 
Q 6 25.140625 12.171875 29.828125 
Q 18.359375 34.515625 30.609375 34.515625 
L 43.21875 34.515625 
L 43.21875 35.40625 
Q 43.21875 41.609375 39.140625 45 
Q 35.0625 48.390625 27.6875 48.390625 
Q 23 48.390625 18.546875 47.265625 
Q 14.109375 46.140625 10.015625 43.890625 
L 10.015625 52.203125 
Q 14.9375 54.109375 19.578125 55.046875 
Q 24.21875 56 28.609375 56 
Q 40.484375 56 46.34375 49.84375 
Q 52.203125 43.703125 52.203125 31.203125 
z
" id="DejaVuSans-97"/>
       <path d="M 41.109375 46.296875 
Q 39.59375 47.171875 37.8125 47.578125 
Q 36.03125 48 33.890625 48 
Q 26.265625 48 22.1875 43.046875 
Q 18.109375 38.09375 18.109375 28.8125 
L 18.109375 0 
L 9.078125 0 
L 9.078125 54.6875 
L 18.109375 54.6875 
L 18.109375 46.1875 
Q 20.953125 51.171875 25.484375 53.578125 
Q 30.03125 56 36.53125 56 
Q 37.453125 56 38.578125 55.875 
Q 39.703125 55.765625 41.0625 55.515625 
z
" id="DejaVuSans-114"/>
       <path d="M 44.28125 53.078125 
L 44.28125 44.578125 
Q 40.484375 46.53125 36.375 47.5 
Q 32.28125 48.484375 27.875 48.484375 
Q 21.1875 48.484375 17.84375 46.4375 
Q 14.5 44.390625 14.5 40.28125 
Q 14.5 37.15625 16.890625 35.375 
Q 19.28125 33.59375 26.515625 31.984375 
L 29.59375 31.296875 
Q 39.15625 29.25 43.1875 25.515625 
Q 47.21875 21.78125 47.21875 15.09375 
Q 47.21875 7.46875 41.1875 3.015625 
Q 35.15625 -1.421875 24.609375 -1.421875 
Q 20.21875 -1.421875 15.453125 -0.5625 
Q 10.6875 0.296875 5.421875 2 
L 5.421875 11.28125 
Q 10.40625 8.6875 15.234375 7.390625 
Q 20.0625 6.109375 24.8125 6.109375 
Q 31.15625 6.109375 34.5625 8.28125 
Q 37.984375 10.453125 37.984375 14.40625 
Q 37.984375 18.0625 35.515625 20.015625 
Q 33.0625 21.96875 24.703125 23.78125 
L 21.578125 24.515625 
Q 13.234375 26.265625 9.515625 29.90625 
Q 5.8125 33.546875 5.8125 39.890625 
Q 5.8125 47.609375 11.28125 51.796875 
Q 16.75 56 26.8125 56 
Q 31.78125 56 36.171875 55.265625 
Q 40.578125 54.546875 44.28125 53.078125 
z
" id="DejaVuSans-115"/>
       <path id="DejaVuSans-32"/>
       <path d="M 19.671875 34.8125 
L 19.671875 8.109375 
L 35.5 8.109375 
Q 43.453125 8.109375 47.28125 11.40625 
Q 51.125 14.703125 51.125 21.484375 
Q 51.125 28.328125 47.28125 31.5625 
Q 43.453125 34.8125 35.5 34.8125 
z
M 19.671875 64.796875 
L 19.671875 42.828125 
L 34.28125 42.828125 
Q 41.5 42.828125 45.03125 45.53125 
Q 48.578125 48.25 48.578125 53.8125 
Q 48.578125 59.328125 45.03125 62.0625 
Q 41.5 64.796875 34.28125 64.796875 
z
M 9.8125 72.90625 
L 35.015625 72.90625 
Q 46.296875 72.90625 52.390625 68.21875 
Q 58.5 63.53125 58.5 54.890625 
Q 58.5 48.1875 55.375 44.234375 
Q 52.25 40.28125 46.1875 39.3125 
Q 53.46875 37.75 57.5 32.78125 
Q 61.53125 27.828125 61.53125 20.40625 
Q 61.53125 10.640625 54.890625 5.3125 
Q 48.25 0 35.984375 0 
L 9.8125 0 
z
" id="DejaVuSans-66"/>
       <path d="M 37.109375 75.984375 
L 37.109375 68.5 
L 28.515625 68.5 
Q 23.6875 68.5 21.796875 66.546875 
Q 19.921875 64.59375 19.921875 59.515625 
L 19.921875 54.6875 
L 34.71875 54.6875 
L 34.71875 47.703125 
L 19.921875 47.703125 
L 19.921875 0 
L 10.890625 0 
L 10.890625 47.703125 
L 2.296875 47.703125 
L 2.296875 54.6875 
L 10.890625 54.6875 
L 10.890625 58.5 
Q 10.890625 67.625 15.140625 71.796875 
Q 19.390625 75.984375 28.609375 75.984375 
z
" id="DejaVuSans-102"/>
       <path d="M 30.609375 48.390625 
Q 23.390625 48.390625 19.1875 42.75 
Q 14.984375 37.109375 14.984375 27.296875 
Q 14.984375 17.484375 19.15625 11.84375 
Q 23.34375 6.203125 30.609375 6.203125 
Q 37.796875 6.203125 41.984375 11.859375 
Q 46.1875 17.53125 46.1875 27.296875 
Q 46.1875 37.015625 41.984375 42.703125 
Q 37.796875 48.390625 30.609375 48.390625 
z
M 30.609375 56 
Q 42.328125 56 49.015625 48.375 
Q 55.71875 40.765625 55.71875 27.296875 
Q 55.71875 13.875 49.015625 6.21875 
Q 42.328125 -1.421875 30.609375 -1.421875 
Q 18.84375 -1.421875 12.171875 6.21875 
Q 5.515625 13.875 5.515625 27.296875 
Q 5.515625 40.765625 12.171875 48.375 
Q 18.84375 56 30.609375 56 
z
" id="DejaVuSans-111"/>
       <path d="M 19.671875 64.796875 
L 19.671875 37.40625 
L 32.078125 37.40625 
Q 38.96875 37.40625 42.71875 40.96875 
Q 46.484375 44.53125 46.484375 51.125 
Q 46.484375 57.671875 42.71875 61.234375 
Q 38.96875 64.796875 32.078125 64.796875 
z
M 9.8125 72.90625 
L 32.078125 72.90625 
Q 44.34375 72.90625 50.609375 67.359375 
Q 56.890625 61.8125 56.890625 51.125 
Q 56.890625 40.328125 50.609375 34.8125 
Q 44.34375 29.296875 32.078125 29.296875 
L 19.671875 29.296875 
L 19.671875 0 
L 9.8125 0 
z
" id="DejaVuSans-80"/>
       <path d="M 54.890625 33.015625 
L 54.890625 0 
L 45.90625 0 
L 45.90625 32.71875 
Q 45.90625 40.484375 42.875 44.328125 
Q 39.84375 48.1875 33.796875 48.1875 
Q 26.515625 48.1875 22.3125 43.546875 
Q 18.109375 38.921875 18.109375 30.90625 
L 18.109375 0 
L 9.078125 0 
L 9.078125 54.6875 
L 18.109375 54.6875 
L 18.109375 46.1875 
Q 21.34375 51.125 25.703125 53.5625 
Q 30.078125 56 35.796875 56 
Q 45.21875 56 50.046875 50.171875 
Q 54.890625 44.34375 54.890625 33.015625 
z
" id="DejaVuSans-110"/>
       <path d="M 18.3125 70.21875 
L 18.3125 54.6875 
L 36.8125 54.6875 
L 36.8125 47.703125 
L 18.3125 47.703125 
L 18.3125 18.015625 
Q 18.3125 11.328125 20.140625 9.421875 
Q 21.96875 7.515625 27.59375 7.515625 
L 36.8125 7.515625 
L 36.8125 0 
L 27.59375 0 
Q 17.1875 0 13.234375 3.875 
Q 9.28125 7.765625 9.28125 18.015625 
L 9.28125 47.703125 
L 2.6875 47.703125 
L 2.6875 54.6875 
L 9.28125 54.6875 
L 9.28125 70.21875 
z
" id="DejaVuSans-116"/>
      </defs>
      <use xlink:href="#DejaVuSans-89"/>
      <use x="47.833984" xlink:href="#DejaVuSans-101"/>
      <use x="109.357422" xlink:href="#DejaVuSans-97"/>
      <use x="170.636719" xlink:href="#DejaVuSans-114"/>
      <use x="211.75" xlink:href="#DejaVuSans-115"/>
      <use x="263.849609" xlink:href="#DejaVuSans-32"/>
      <use x="295.636719" xlink:href="#DejaVuSans-66"/>
      <use x="364.240234" xlink:href="#DejaVuSans-101"/>
      <use x="425.763672" xlink:href="#DejaVuSans-102"/>
      <use x="460.96875" xlink:href="#DejaVuSans-111"/>
      <use x="522.150391" xlink:href="#DejaVuSans-114"/>
      <use x="561.013672" xlink:href="#DejaVuSans-101"/>
      <use x="622.537109" xlink:href="#DejaVuSans-32"/>
      <use x="654.324219" xlink:href="#DejaVuSans-80"/>
      <use x="712.876953" xlink:href="#DejaVuSans-114"/>
      <use x="751.740234" xlink:href="#DejaVuSans-101"/>
      <use x="813.263672" xlink:href="#DejaVuSans-115"/>
      <use x="865.363281" xlink:href="#DejaVuSans-101"/>
      <use x="926.886719" xlink:href="#DejaVuSans-110"/>
      <use x="990.265625" xlink:href="#DejaVuSans-116"/>
     </g>
    </g>
   </g>
   <g id="matplotlib.axis_4">
    <g id="ytick_7">
     <g id="line2d_20">
      <g>
       <use style="fill:#262626;stroke:#262626;stroke-width:0.8;" x="156.071562" xlink:href="#mf620ac604d" y="148.982906"/>
      </g>
     </g>
     <g id="text_21">
      <!-- −69000 -->
      <g style="fill:#262626;" transform="translate(128.975469 150.882516)scale(0.05 -0.05)">
       <defs>
        <path d="M 10.984375 1.515625 
L 10.984375 10.5 
Q 14.703125 8.734375 18.5 7.8125 
Q 22.3125 6.890625 25.984375 6.890625 
Q 35.75 6.890625 40.890625 13.453125 
Q 46.046875 20.015625 46.78125 33.40625 
Q 43.953125 29.203125 39.59375 26.953125 
Q 35.25 24.703125 29.984375 24.703125 
Q 19.046875 24.703125 12.671875 31.3125 
Q 6.296875 37.9375 6.296875 49.421875 
Q 6.296875 60.640625 12.9375 67.421875 
Q 19.578125 74.21875 30.609375 74.21875 
Q 43.265625 74.21875 49.921875 64.515625 
Q 56.59375 54.828125 56.59375 36.375 
Q 56.59375 19.140625 48.40625 8.859375 
Q 40.234375 -1.421875 26.421875 -1.421875 
Q 22.703125 -1.421875 18.890625 -0.6875 
Q 15.09375 0.046875 10.984375 1.515625 
z
M 30.609375 32.421875 
Q 37.25 32.421875 41.125 36.953125 
Q 45.015625 41.5 45.015625 49.421875 
Q 45.015625 57.28125 41.125 61.84375 
Q 37.25 66.40625 30.609375 66.40625 
Q 23.96875 66.40625 20.09375 61.84375 
Q 16.21875 57.28125 16.21875 49.421875 
Q 16.21875 41.5 20.09375 36.953125 
Q 23.96875 32.421875 30.609375 32.421875 
z
" id="DejaVuSans-57"/>
       </defs>
       <use xlink:href="#DejaVuSans-8722"/>
       <use x="83.789062" xlink:href="#DejaVuSans-54"/>
       <use x="147.412109" xlink:href="#DejaVuSans-57"/>
       <use x="211.035156" xlink:href="#DejaVuSans-48"/>
       <use x="274.658203" xlink:href="#DejaVuSans-48"/>
       <use x="338.28125" xlink:href="#DejaVuSans-48"/>
      </g>
     </g>
    </g>
    <g id="ytick_8">
     <g id="line2d_21">
      <g>
       <use style="fill:#262626;stroke:#262626;stroke-width:0.8;" x="156.071562" xlink:href="#mf620ac604d" y="123.893675"/>
      </g>
     </g>
     <g id="text_22">
      <!-- −68500 -->
      <g style="fill:#262626;" transform="translate(128.975469 125.793285)scale(0.05 -0.05)">
       <use xlink:href="#DejaVuSans-8722"/>
       <use x="83.789062" xlink:href="#DejaVuSans-54"/>
       <use x="147.412109" xlink:href="#DejaVuSans-56"/>
       <use x="211.035156" xlink:href="#DejaVuSans-53"/>
       <use x="274.658203" xlink:href="#DejaVuSans-48"/>
       <use x="338.28125" xlink:href="#DejaVuSans-48"/>
      </g>
     </g>
    </g>
    <g id="ytick_9">
     <g id="line2d_22">
      <g>
       <use style="fill:#262626;stroke:#262626;stroke-width:0.8;" x="156.071562" xlink:href="#mf620ac604d" y="98.804445"/>
      </g>
     </g>
     <g id="text_23">
      <!-- −68000 -->
      <g style="fill:#262626;" transform="translate(128.975469 100.704054)scale(0.05 -0.05)">
       <use xlink:href="#DejaVuSans-8722"/>
       <use x="83.789062" xlink:href="#DejaVuSans-54"/>
       <use x="147.412109" xlink:href="#DejaVuSans-56"/>
       <use x="211.035156" xlink:href="#DejaVuSans-48"/>
       <use x="274.658203" xlink:href="#DejaVuSans-48"/>
       <use x="338.28125" xlink:href="#DejaVuSans-48"/>
      </g>
     </g>
    </g>
    <g id="ytick_10">
     <g id="line2d_23">
      <g>
       <use style="fill:#262626;stroke:#262626;stroke-width:0.8;" x="156.071562" xlink:href="#mf620ac604d" y="73.715214"/>
      </g>
     </g>
     <g id="text_24">
      <!-- −67500 -->
      <g style="fill:#262626;" transform="translate(128.975469 75.614823)scale(0.05 -0.05)">
       <use xlink:href="#DejaVuSans-8722"/>
       <use x="83.789062" xlink:href="#DejaVuSans-54"/>
       <use x="147.412109" xlink:href="#DejaVuSans-55"/>
       <use x="211.035156" xlink:href="#DejaVuSans-53"/>
       <use x="274.658203" xlink:href="#DejaVuSans-48"/>
       <use x="338.28125" xlink:href="#DejaVuSans-48"/>
      </g>
     </g>
    </g>
    <g id="ytick_11">
     <g id="line2d_24">
      <g>
       <use style="fill:#262626;stroke:#262626;stroke-width:0.8;" x="156.071562" xlink:href="#mf620ac604d" y="48.625983"/>
      </g>
     </g>
     <g id="text_25">
      <!-- −67000 -->
      <g style="fill:#262626;" transform="translate(128.975469 50.525593)scale(0.05 -0.05)">
       <use xlink:href="#DejaVuSans-8722"/>
       <use x="83.789062" xlink:href="#DejaVuSans-54"/>
       <use x="147.412109" xlink:href="#DejaVuSans-55"/>
       <use x="211.035156" xlink:href="#DejaVuSans-48"/>
       <use x="274.658203" xlink:href="#DejaVuSans-48"/>
       <use x="338.28125" xlink:href="#DejaVuSans-48"/>
      </g>
     </g>
    </g>
    <g id="ytick_12">
     <g id="line2d_25">
      <g>
       <use style="fill:#262626;stroke:#262626;stroke-width:0.8;" x="156.071562" xlink:href="#mf620ac604d" y="23.536752"/>
      </g>
     </g>
     <g id="text_26">
      <!-- −66500 -->
      <g style="fill:#262626;" transform="translate(128.975469 25.436362)scale(0.05 -0.05)">
       <use xlink:href="#DejaVuSans-8722"/>
       <use x="83.789062" xlink:href="#DejaVuSans-54"/>
       <use x="147.412109" xlink:href="#DejaVuSans-54"/>
       <use x="211.035156" xlink:href="#DejaVuSans-53"/>
       <use x="274.658203" xlink:href="#DejaVuSans-48"/>
       <use x="338.28125" xlink:href="#DejaVuSans-48"/>
      </g>
     </g>
    </g>
    <g id="text_27">
     <!-- Marginal Likelihood -->
     <g style="fill:#262626;" transform="translate(123.727656 112.746375)rotate(-90)scale(0.06 -0.06)">
      <defs>
       <path d="M 9.8125 72.90625 
L 24.515625 72.90625 
L 43.109375 23.296875 
L 61.8125 72.90625 
L 76.515625 72.90625 
L 76.515625 0 
L 66.890625 0 
L 66.890625 64.015625 
L 48.09375 14.015625 
L 38.1875 14.015625 
L 19.390625 64.015625 
L 19.390625 0 
L 9.8125 0 
z
" id="DejaVuSans-77"/>
       <path d="M 45.40625 27.984375 
Q 45.40625 37.75 41.375 43.109375 
Q 37.359375 48.484375 30.078125 48.484375 
Q 22.859375 48.484375 18.828125 43.109375 
Q 14.796875 37.75 14.796875 27.984375 
Q 14.796875 18.265625 18.828125 12.890625 
Q 22.859375 7.515625 30.078125 7.515625 
Q 37.359375 7.515625 41.375 12.890625 
Q 45.40625 18.265625 45.40625 27.984375 
z
M 54.390625 6.78125 
Q 54.390625 -7.171875 48.1875 -13.984375 
Q 42 -20.796875 29.203125 -20.796875 
Q 24.46875 -20.796875 20.265625 -20.09375 
Q 16.0625 -19.390625 12.109375 -17.921875 
L 12.109375 -9.1875 
Q 16.0625 -11.328125 19.921875 -12.34375 
Q 23.78125 -13.375 27.78125 -13.375 
Q 36.625 -13.375 41.015625 -8.765625 
Q 45.40625 -4.15625 45.40625 5.171875 
L 45.40625 9.625 
Q 42.625 4.78125 38.28125 2.390625 
Q 33.9375 0 27.875 0 
Q 17.828125 0 11.671875 7.65625 
Q 5.515625 15.328125 5.515625 27.984375 
Q 5.515625 40.671875 11.671875 48.328125 
Q 17.828125 56 27.875 56 
Q 33.9375 56 38.28125 53.609375 
Q 42.625 51.21875 45.40625 46.390625 
L 45.40625 54.6875 
L 54.390625 54.6875 
z
" id="DejaVuSans-103"/>
       <path d="M 9.421875 54.6875 
L 18.40625 54.6875 
L 18.40625 0 
L 9.421875 0 
z
M 9.421875 75.984375 
L 18.40625 75.984375 
L 18.40625 64.59375 
L 9.421875 64.59375 
z
" id="DejaVuSans-105"/>
       <path d="M 9.421875 75.984375 
L 18.40625 75.984375 
L 18.40625 0 
L 9.421875 0 
z
" id="DejaVuSans-108"/>
       <path d="M 9.8125 72.90625 
L 19.671875 72.90625 
L 19.671875 8.296875 
L 55.171875 8.296875 
L 55.171875 0 
L 9.8125 0 
z
" id="DejaVuSans-76"/>
       <path d="M 9.078125 75.984375 
L 18.109375 75.984375 
L 18.109375 31.109375 
L 44.921875 54.6875 
L 56.390625 54.6875 
L 27.390625 29.109375 
L 57.625 0 
L 45.90625 0 
L 18.109375 26.703125 
L 18.109375 0 
L 9.078125 0 
z
" id="DejaVuSans-107"/>
       <path d="M 54.890625 33.015625 
L 54.890625 0 
L 45.90625 0 
L 45.90625 32.71875 
Q 45.90625 40.484375 42.875 44.328125 
Q 39.84375 48.1875 33.796875 48.1875 
Q 26.515625 48.1875 22.3125 43.546875 
Q 18.109375 38.921875 18.109375 30.90625 
L 18.109375 0 
L 9.078125 0 
L 9.078125 75.984375 
L 18.109375 75.984375 
L 18.109375 46.1875 
Q 21.34375 51.125 25.703125 53.5625 
Q 30.078125 56 35.796875 56 
Q 45.21875 56 50.046875 50.171875 
Q 54.890625 44.34375 54.890625 33.015625 
z
" id="DejaVuSans-104"/>
       <path d="M 45.40625 46.390625 
L 45.40625 75.984375 
L 54.390625 75.984375 
L 54.390625 0 
L 45.40625 0 
L 45.40625 8.203125 
Q 42.578125 3.328125 38.25 0.953125 
Q 33.9375 -1.421875 27.875 -1.421875 
Q 17.96875 -1.421875 11.734375 6.484375 
Q 5.515625 14.40625 5.515625 27.296875 
Q 5.515625 40.1875 11.734375 48.09375 
Q 17.96875 56 27.875 56 
Q 33.9375 56 38.25 53.625 
Q 42.578125 51.265625 45.40625 46.390625 
z
M 14.796875 27.296875 
Q 14.796875 17.390625 18.875 11.75 
Q 22.953125 6.109375 30.078125 6.109375 
Q 37.203125 6.109375 41.296875 11.75 
Q 45.40625 17.390625 45.40625 27.296875 
Q 45.40625 37.203125 41.296875 42.84375 
Q 37.203125 48.484375 30.078125 48.484375 
Q 22.953125 48.484375 18.875 42.84375 
Q 14.796875 37.203125 14.796875 27.296875 
z
" id="DejaVuSans-100"/>
      </defs>
      <use xlink:href="#DejaVuSans-77"/>
      <use x="86.279297" xlink:href="#DejaVuSans-97"/>
      <use x="147.558594" xlink:href="#DejaVuSans-114"/>
      <use x="186.921875" xlink:href="#DejaVuSans-103"/>
      <use x="250.398438" xlink:href="#DejaVuSans-105"/>
      <use x="278.181641" xlink:href="#DejaVuSans-110"/>
      <use x="341.560547" xlink:href="#DejaVuSans-97"/>
      <use x="402.839844" xlink:href="#DejaVuSans-108"/>
      <use x="430.623047" xlink:href="#DejaVuSans-32"/>
      <use x="462.410156" xlink:href="#DejaVuSans-76"/>
      <use x="518.123047" xlink:href="#DejaVuSans-105"/>
      <use x="545.90625" xlink:href="#DejaVuSans-107"/>
      <use x="600.191406" xlink:href="#DejaVuSans-101"/>
      <use x="661.714844" xlink:href="#DejaVuSans-108"/>
      <use x="689.498047" xlink:href="#DejaVuSans-105"/>
      <use x="717.28125" xlink:href="#DejaVuSans-104"/>
      <use x="780.660156" xlink:href="#DejaVuSans-111"/>
      <use x="841.841797" xlink:href="#DejaVuSans-111"/>
      <use x="903.023438" xlink:href="#DejaVuSans-100"/>
     </g>
    </g>
   </g>
   <g id="PolyCollection_1">
    <path clip-path="url(#p2000694678)" d="M -1019839.717148 199.161368 
L -1019839.717148 489717.532565 
L -961042.491949 470902.850924 
L -896312.176735 447434.037248 
L -812188.649279 416709.857906 
L -688007.092674 366293.141647 
L -673165.652117 359921.937403 
L -568554.105492 313289.185771 
L -481897.202444 271811.97534 
L -443587.165734 253094.929069 
L -363777.556036 212073.215641 
L -322506.827717 190011.4993 
L -259286.423961 155577.506585 
L -204506.90646 124648.754745 
L -185566.127252 113788.546283 
L -141936.294126 88322.30437 
L -99360.303099 62944.261183 
L -74985.682188 48217.834251 
L -50924.494368 33449.535359 
L -35604.153208 23924.547196 
L -15680.356367 11212.406145 
L -5418.594489 4229.265564 
L -1265.385479 1208.358658 
L -136.039213 337.696237 
L -25.206748 251.052307 
L 68.818171 177.707838 
L 163.352686 103.973035 
L 212.403362 65.824581 
L 241.123585 43.447844 
L 248.893229 37.466584 
L 252.813375 34.61639 
L 253.831284 33.91001 
L 258.348916 30.991635 
L 258.851851 30.690145 
L 259.193342 30.488152 
L 259.48146 30.319401 
L 260.217815 29.894888 
L 261.754524 29.038675 
L 263.291234 28.219356 
L 264.827943 27.434552 
L 267.38418 26.216997 
L 268.493962 25.727971 
L 269.679798 25.235268 
L 269.827005 25.176378 
L 269.974212 25.118005 
L 270.379032 24.960193 
L 270.545294 24.896548 
L 270.666972 24.850408 
L 270.788651 24.80464 
L 271.115067 24.683728 
L 271.644487 24.493504 
L 271.851102 24.421282 
L 272.21912 24.295493 
L 272.796342 24.105669 
L 272.955155 24.055066 
L 273.465572 23.897251 
L 273.691191 23.829864 
L 274.048201 23.726243 
L 274.134802 23.701668 
L 274.427226 23.620318 
L 274.979253 23.473693 
L 275.285934 23.396212 
L 275.523725 23.338117 
L 275.531279 23.3363 
L 275.574186 23.326012 
L 275.58491 23.32345 
L 275.624648 23.313987 
L 275.685725 23.299539 
L 275.776624 23.278255 
L 275.807878 23.270998 
L 275.975186 23.232686 
L 276.02197 23.222136 
L 276.142493 23.195295 
L 276.353265 23.149534 
L 276.36557 23.14691 
L 276.477109 23.123361 
L 276.51266 23.115947 
L 276.588647 23.100252 
L 276.758005 23.066036 
L 276.811724 23.055411 
L 276.963411 23.026024 
L 277.0348 23.012517 
L 277.12162 22.996377 
L 277.248695 22.973336 
L 277.257877 22.971698 
L 277.480954 22.933087 
L 277.49404 22.930893 
L 277.633856 22.907964 
L 277.815569 22.879592 
L 277.99974 22.852551 
L 278.230076 22.821274 
L 278.475421 22.791214 
L 278.4848 22.790134 
L 278.65833 22.771091 
L 278.79803 22.757088 
L 278.896012 22.747991 
L 278.986722 22.740113 
L 279.00116 22.738908 
L 279.077432 22.732766 
L 279.106308 22.730541 
L 279.211456 22.722905 
L 279.217133 22.722514 
L 279.245289 22.720606 
L 279.286983 22.717881 
L 279.306128 22.716669 
L 279.336547 22.714797 
L 279.345281 22.714271 
L 279.356834 22.713584 
L 279.366967 22.712989 
L 279.412193 22.71042 
L 279.427806 22.709567 
L 279.479105 22.706887 
L 279.536449 22.704116 
L 279.584249 22.701989 
L 279.679854 22.698245 
L 279.755979 22.695758 
L 279.842344 22.693476 
L 279.934799 22.691683 
L 279.947492 22.69149 
L 280.157875 22.690202 
L 280.192837 22.690342 
L 280.195039 22.690355 
L 280.380952 22.692883 
L 280.438182 22.694262 
L 280.604029 22.699897 
L 280.683527 22.703477 
L 280.827106 22.711412 
L 281.050182 22.727569 
L 281.155483 22.736849 
L 281.174217 22.738612 
L 281.419562 22.764902 
L 281.496336 22.774365 
L 281.53966 22.779969 
L 281.664908 22.797251 
L 281.719413 22.805279 
L 281.78758 22.815755 
L 281.830951 22.822675 
L 281.859808 22.827389 
L 281.879585 22.830671 
L 282.063593 22.863215 
L 282.115926 22.873138 
L 282.155598 22.880861 
L 282.165566 22.882829 
L 282.216934 22.893141 
L 282.221336 22.894038 
L 282.332874 22.917492 
L 282.339607 22.918952 
L 282.372044 22.926058 
L 282.462279 22.94645 
L 282.567105 22.971304 
L 282.597219 22.97868 
L 282.653774 22.992819 
L 282.700951 23.004906 
L 282.834797 23.040664 
L 282.961116 23.07645 
L 283.057873 23.105238 
L 283.136978 23.12968 
L 283.268458 23.17215 
L 283.28095 23.176306 
L 283.504027 23.254184 
L 283.627669 23.300396 
L 283.727104 23.33919 
L 283.873014 23.398866 
L 284.036813 23.469964 
L 284.118359 23.507058 
L 284.173257 23.532689 
L 284.340565 23.614183 
L 284.497826 23.695622 
L 284.641719 23.774451 
L 284.731722 23.825936 
L 284.805168 23.869229 
L 285.061286 24.029551 
L 285.099739 24.054919 
L 285.317404 24.205252 
L 285.34441 24.224734 
L 285.573523 24.397841 
L 285.829641 24.608994 
L 285.846333 24.62344 
L 286.203792 24.954297 
L 286.515563 25.278787 
L 286.57181 25.341141 
L 286.726055 25.518398 
L 287.110232 26.001835 
L 287.181184 26.097995 
L 287.21666 26.146909 
L 287.287613 26.24643 
L 287.405807 26.417324 
L 287.642197 26.778952 
L 287.854024 27.126522 
L 288.043881 27.457877 
L 288.262764 27.864236 
L 288.523254 28.383439 
L 288.779916 28.934746 
L 289.086002 29.64653 
L 289.305531 30.195171 
L 289.607385 31.004093 
L 289.991562 32.129595 
L 289.991562 199.161368 
L 289.991562 199.161368 
L 289.607385 199.161368 
L 289.305531 199.161368 
L 289.086002 199.161368 
L 288.779916 199.161368 
L 288.523254 199.161368 
L 288.262764 199.161368 
L 288.043881 199.161368 
L 287.854024 199.161368 
L 287.642197 199.161368 
L 287.405807 199.161368 
L 287.287613 199.161368 
L 287.21666 199.161368 
L 287.181184 199.161368 
L 287.110232 199.161368 
L 286.726055 199.161368 
L 286.57181 199.161368 
L 286.515563 199.161368 
L 286.203792 199.161368 
L 285.846333 199.161368 
L 285.829641 199.161368 
L 285.573523 199.161368 
L 285.34441 199.161368 
L 285.317404 199.161368 
L 285.099739 199.161368 
L 285.061286 199.161368 
L 284.805168 199.161368 
L 284.731722 199.161368 
L 284.641719 199.161368 
L 284.497826 199.161368 
L 284.340565 199.161368 
L 284.173257 199.161368 
L 284.118359 199.161368 
L 284.036813 199.161368 
L 283.873014 199.161368 
L 283.727104 199.161368 
L 283.627669 199.161368 
L 283.504027 199.161368 
L 283.28095 199.161368 
L 283.268458 199.161368 
L 283.136978 199.161368 
L 283.057873 199.161368 
L 282.961116 199.161368 
L 282.834797 199.161368 
L 282.700951 199.161368 
L 282.653774 199.161368 
L 282.597219 199.161368 
L 282.567105 199.161368 
L 282.462279 199.161368 
L 282.372044 199.161368 
L 282.339607 199.161368 
L 282.332874 199.161368 
L 282.221336 199.161368 
L 282.216934 199.161368 
L 282.165566 199.161368 
L 282.155598 199.161368 
L 282.115926 199.161368 
L 282.063593 199.161368 
L 281.879585 199.161368 
L 281.859808 199.161368 
L 281.830951 199.161368 
L 281.78758 199.161368 
L 281.719413 199.161368 
L 281.664908 199.161368 
L 281.53966 199.161368 
L 281.496336 199.161368 
L 281.419562 199.161368 
L 281.174217 199.161368 
L 281.155483 199.161368 
L 281.050182 199.161368 
L 280.827106 199.161368 
L 280.683527 199.161368 
L 280.604029 199.161368 
L 280.438182 199.161368 
L 280.380952 199.161368 
L 280.195039 199.161368 
L 280.192837 199.161368 
L 280.157875 199.161368 
L 279.947492 199.161368 
L 279.934799 199.161368 
L 279.842344 199.161368 
L 279.755979 199.161368 
L 279.679854 199.161368 
L 279.584249 199.161368 
L 279.536449 199.161368 
L 279.479105 199.161368 
L 279.427806 199.161368 
L 279.412193 199.161368 
L 279.366967 199.161368 
L 279.356834 199.161368 
L 279.345281 199.161368 
L 279.336547 199.161368 
L 279.306128 199.161368 
L 279.286983 199.161368 
L 279.245289 199.161368 
L 279.217133 199.161368 
L 279.211456 199.161368 
L 279.106308 199.161368 
L 279.077432 199.161368 
L 279.00116 199.161368 
L 278.986722 199.161368 
L 278.896012 199.161368 
L 278.79803 199.161368 
L 278.65833 199.161368 
L 278.4848 199.161368 
L 278.475421 199.161368 
L 278.230076 199.161368 
L 277.99974 199.161368 
L 277.815569 199.161368 
L 277.633856 199.161368 
L 277.49404 199.161368 
L 277.480954 199.161368 
L 277.257877 199.161368 
L 277.248695 199.161368 
L 277.12162 199.161368 
L 277.0348 199.161368 
L 276.963411 199.161368 
L 276.811724 199.161368 
L 276.758005 199.161368 
L 276.588647 199.161368 
L 276.51266 199.161368 
L 276.477109 199.161368 
L 276.36557 199.161368 
L 276.353265 199.161368 
L 276.142493 199.161368 
L 276.02197 199.161368 
L 275.975186 199.161368 
L 275.807878 199.161368 
L 275.776624 199.161368 
L 275.685725 199.161368 
L 275.624648 199.161368 
L 275.58491 199.161368 
L 275.574186 199.161368 
L 275.531279 199.161368 
L 275.523725 199.161368 
L 275.285934 199.161368 
L 274.979253 199.161368 
L 274.427226 199.161368 
L 274.134802 199.161368 
L 274.048201 199.161368 
L 273.691191 199.161368 
L 273.465572 199.161368 
L 272.955155 199.161368 
L 272.796342 199.161368 
L 272.21912 199.161368 
L 271.851102 199.161368 
L 271.644487 199.161368 
L 271.115067 199.161368 
L 270.788651 199.161368 
L 270.666972 199.161368 
L 270.545294 199.161368 
L 270.379032 199.161368 
L 269.974212 199.161368 
L 269.827005 199.161368 
L 269.679798 199.161368 
L 268.493962 199.161368 
L 267.38418 199.161368 
L 264.827943 199.161368 
L 263.291234 199.161368 
L 261.754524 199.161368 
L 260.217815 199.161368 
L 259.48146 199.161368 
L 259.193342 199.161368 
L 258.851851 199.161368 
L 258.348916 199.161368 
L 253.831284 199.161368 
L 252.813375 199.161368 
L 248.893229 199.161368 
L 241.123585 199.161368 
L 212.403362 199.161368 
L 163.352686 199.161368 
L 68.818171 199.161368 
L -25.206748 199.161368 
L -136.039213 199.161368 
L -1265.385479 199.161368 
L -5418.594489 199.161368 
L -15680.356367 199.161368 
L -35604.153208 199.161368 
L -50924.494368 199.161368 
L -74985.682188 199.161368 
L -99360.303099 199.161368 
L -141936.294126 199.161368 
L -185566.127252 199.161368 
L -204506.90646 199.161368 
L -259286.423961 199.161368 
L -322506.827717 199.161368 
L -363777.556036 199.161368 
L -443587.165734 199.161368 
L -481897.202444 199.161368 
L -568554.105492 199.161368 
L -673165.652117 199.161368 
L -688007.092674 199.161368 
L -812188.649279 199.161368 
L -896312.176735 199.161368 
L -961042.491949 199.161368 
L -1019839.717148 199.161368 
z
" style="fill:#1f77b4;fill-opacity:0.25;stroke:#1f77b4;stroke-opacity:0.25;"/>
   </g>
   <g id="PolyCollection_2">
    <defs>
     <path d="M 267.38418 -28.845938 
L 267.38418 -151.74931 
L 268.493962 -152.147436 
L 269.679798 -152.581667 
L 269.827005 -152.635695 
L 269.974212 -152.689682 
L 270.379032 -152.837766 
L 270.545294 -152.89835 
L 270.666972 -152.942576 
L 270.788651 -152.986694 
L 271.115067 -153.104424 
L 271.644487 -153.292969 
L 271.851102 -153.365573 
L 272.21912 -153.493282 
L 272.796342 -153.688761 
L 272.955155 -153.741372 
L 273.465572 -153.906579 
L 273.691191 -153.977559 
L 274.048201 -154.08707 
L 274.134802 -154.113089 
L 274.427226 -154.199284 
L 274.979253 -154.35455 
L 275.285934 -154.436275 
L 275.523725 -154.497261 
L 275.531279 -154.499163 
L 275.574186 -154.509926 
L 275.58491 -154.512605 
L 275.624648 -154.522493 
L 275.685725 -154.537569 
L 275.776624 -154.559735 
L 275.807878 -154.567279 
L 275.975186 -154.606994 
L 276.02197 -154.617894 
L 276.142493 -154.645552 
L 276.353265 -154.692432 
L 276.36557 -154.69511 
L 276.477109 -154.719075 
L 276.51266 -154.726597 
L 276.588647 -154.742486 
L 276.758005 -154.776952 
L 276.811724 -154.787608 
L 276.963411 -154.816967 
L 277.0348 -154.830406 
L 277.12162 -154.846419 
L 277.248695 -154.869194 
L 277.257877 -154.870809 
L 277.480954 -154.908745 
L 277.49404 -154.910892 
L 277.633856 -154.933285 
L 277.815569 -154.960867 
L 277.99974 -154.987032 
L 278.230076 -155.017156 
L 278.475421 -155.045985 
L 278.4848 -155.047019 
L 278.65833 -155.065235 
L 278.79803 -155.078621 
L 278.896012 -155.087318 
L 278.986722 -155.094855 
L 279.00116 -155.096009 
L 279.077432 -155.101894 
L 279.106308 -155.104029 
L 279.211456 -155.111369 
L 279.217133 -155.111746 
L 279.245289 -155.113585 
L 279.286983 -155.116218 
L 279.306128 -155.117391 
L 279.336547 -155.119207 
L 279.345281 -155.119717 
L 279.356834 -155.120385 
L 279.366967 -155.120964 
L 279.412193 -155.123469 
L 279.427806 -155.124304 
L 279.479105 -155.126938 
L 279.536449 -155.129683 
L 279.584249 -155.13181 
L 279.679854 -155.135621 
L 279.755979 -155.13823 
L 279.842344 -155.140717 
L 279.934799 -155.142807 
L 279.947492 -155.143047 
L 280.157875 -155.145287 
L 280.192837 -155.145334 
L 280.195039 -155.145333 
L 280.380952 -155.143913 
L 280.438182 -155.142904 
L 280.604029 -155.138398 
L 280.683527 -155.135378 
L 280.827106 -155.128457 
L 281.050182 -155.113801 
L 281.155483 -155.105164 
L 281.174217 -155.103508 
L 281.419562 -155.078402 
L 281.496336 -155.069204 
L 281.53966 -155.063723 
L 281.664908 -155.046675 
L 281.719413 -155.038689 
L 281.78758 -155.028208 
L 281.830951 -155.021252 
L 281.859808 -155.016498 
L 281.879585 -155.013181 
L 282.063593 -154.980011 
L 282.115926 -154.969801 
L 282.155598 -154.961828 
L 282.165566 -154.959793 
L 282.216934 -154.949101 
L 282.221336 -154.948168 
L 282.332874 -154.923696 
L 282.339607 -154.922166 
L 282.372044 -154.914709 
L 282.462279 -154.893218 
L 282.567105 -154.866851 
L 282.597219 -154.858994 
L 282.653774 -154.843894 
L 282.700951 -154.830951 
L 282.834797 -154.792486 
L 282.961116 -154.753778 
L 283.057873 -154.722515 
L 283.136978 -154.695897 
L 283.268458 -154.649512 
L 283.28095 -154.644964 
L 283.504027 -154.559548 
L 283.627669 -154.508713 
L 283.727104 -154.465981 
L 283.873014 -154.400233 
L 284.036813 -154.322023 
L 284.118359 -154.281318 
L 284.173257 -154.253242 
L 284.340565 -154.164296 
L 284.497826 -154.07596 
L 284.641719 -153.991031 
L 284.731722 -153.935881 
L 284.805168 -153.889703 
L 285.061286 -153.720277 
L 285.099739 -153.693695 
L 285.317404 -153.537469 
L 285.34441 -153.517395 
L 285.573523 -153.340844 
L 285.829641 -153.12997 
L 285.846333 -153.115721 
L 286.203792 -152.795401 
L 286.515563 -152.491702 
L 286.57181 -152.434435 
L 286.726055 -152.273433 
L 287.110232 -151.846675 
L 287.181184 -151.763754 
L 287.21666 -151.721806 
L 287.287613 -151.636928 
L 287.405807 -151.492608 
L 287.642197 -151.192839 
L 287.854024 -150.911381 
L 287.854024 -28.845938 
L 287.854024 -28.845938 
L 287.642197 -28.845938 
L 287.405807 -28.845938 
L 287.287613 -28.845938 
L 287.21666 -28.845938 
L 287.181184 -28.845938 
L 287.110232 -28.845938 
L 286.726055 -28.845938 
L 286.57181 -28.845938 
L 286.515563 -28.845938 
L 286.203792 -28.845938 
L 285.846333 -28.845938 
L 285.829641 -28.845938 
L 285.573523 -28.845938 
L 285.34441 -28.845938 
L 285.317404 -28.845938 
L 285.099739 -28.845938 
L 285.061286 -28.845938 
L 284.805168 -28.845938 
L 284.731722 -28.845938 
L 284.641719 -28.845938 
L 284.497826 -28.845938 
L 284.340565 -28.845938 
L 284.173257 -28.845938 
L 284.118359 -28.845938 
L 284.036813 -28.845938 
L 283.873014 -28.845938 
L 283.727104 -28.845938 
L 283.627669 -28.845938 
L 283.504027 -28.845938 
L 283.28095 -28.845938 
L 283.268458 -28.845938 
L 283.136978 -28.845938 
L 283.057873 -28.845938 
L 282.961116 -28.845938 
L 282.834797 -28.845938 
L 282.700951 -28.845938 
L 282.653774 -28.845938 
L 282.597219 -28.845938 
L 282.567105 -28.845938 
L 282.462279 -28.845938 
L 282.372044 -28.845938 
L 282.339607 -28.845938 
L 282.332874 -28.845938 
L 282.221336 -28.845938 
L 282.216934 -28.845938 
L 282.165566 -28.845938 
L 282.155598 -28.845938 
L 282.115926 -28.845938 
L 282.063593 -28.845938 
L 281.879585 -28.845938 
L 281.859808 -28.845938 
L 281.830951 -28.845938 
L 281.78758 -28.845938 
L 281.719413 -28.845938 
L 281.664908 -28.845938 
L 281.53966 -28.845938 
L 281.496336 -28.845938 
L 281.419562 -28.845938 
L 281.174217 -28.845938 
L 281.155483 -28.845938 
L 281.050182 -28.845938 
L 280.827106 -28.845938 
L 280.683527 -28.845938 
L 280.604029 -28.845938 
L 280.438182 -28.845938 
L 280.380952 -28.845938 
L 280.195039 -28.845938 
L 280.192837 -28.845938 
L 280.157875 -28.845938 
L 279.947492 -28.845938 
L 279.934799 -28.845938 
L 279.842344 -28.845938 
L 279.755979 -28.845938 
L 279.679854 -28.845938 
L 279.584249 -28.845938 
L 279.536449 -28.845938 
L 279.479105 -28.845938 
L 279.427806 -28.845938 
L 279.412193 -28.845938 
L 279.366967 -28.845938 
L 279.356834 -28.845938 
L 279.345281 -28.845938 
L 279.336547 -28.845938 
L 279.306128 -28.845938 
L 279.286983 -28.845938 
L 279.245289 -28.845938 
L 279.217133 -28.845938 
L 279.211456 -28.845938 
L 279.106308 -28.845938 
L 279.077432 -28.845938 
L 279.00116 -28.845938 
L 278.986722 -28.845938 
L 278.896012 -28.845938 
L 278.79803 -28.845938 
L 278.65833 -28.845938 
L 278.4848 -28.845938 
L 278.475421 -28.845938 
L 278.230076 -28.845938 
L 277.99974 -28.845938 
L 277.815569 -28.845938 
L 277.633856 -28.845938 
L 277.49404 -28.845938 
L 277.480954 -28.845938 
L 277.257877 -28.845938 
L 277.248695 -28.845938 
L 277.12162 -28.845938 
L 277.0348 -28.845938 
L 276.963411 -28.845938 
L 276.811724 -28.845938 
L 276.758005 -28.845938 
L 276.588647 -28.845938 
L 276.51266 -28.845938 
L 276.477109 -28.845938 
L 276.36557 -28.845938 
L 276.353265 -28.845938 
L 276.142493 -28.845938 
L 276.02197 -28.845938 
L 275.975186 -28.845938 
L 275.807878 -28.845938 
L 275.776624 -28.845938 
L 275.685725 -28.845938 
L 275.624648 -28.845938 
L 275.58491 -28.845938 
L 275.574186 -28.845938 
L 275.531279 -28.845938 
L 275.523725 -28.845938 
L 275.285934 -28.845938 
L 274.979253 -28.845938 
L 274.427226 -28.845938 
L 274.134802 -28.845938 
L 274.048201 -28.845938 
L 273.691191 -28.845938 
L 273.465572 -28.845938 
L 272.955155 -28.845938 
L 272.796342 -28.845938 
L 272.21912 -28.845938 
L 271.851102 -28.845938 
L 271.644487 -28.845938 
L 271.115067 -28.845938 
L 270.788651 -28.845938 
L 270.666972 -28.845938 
L 270.545294 -28.845938 
L 270.379032 -28.845938 
L 269.974212 -28.845938 
L 269.827005 -28.845938 
L 269.679798 -28.845938 
L 268.493962 -28.845938 
L 267.38418 -28.845938 
z
" id="mdc968aeec7" style="stroke:#1f77b4;stroke-opacity:0.5;"/>
    </defs>
    <g clip-path="url(#p2000694678)">
     <use style="fill:#1f77b4;fill-opacity:0.5;stroke:#1f77b4;stroke-opacity:0.5;" x="0" xlink:href="#mdc968aeec7" y="177.828844"/>
    </g>
   </g>
   <g id="PathCollection_1">
    <defs>
     <path d="M 0 1 
C 0.265203 1 0.51958 0.894634 0.707107 0.707107 
C 0.894634 0.51958 1 0.265203 1 0 
C 1 -0.265203 0.894634 -0.51958 0.707107 -0.707107 
C 0.51958 -0.894634 0.265203 -1 0 -1 
C -0.265203 -1 -0.51958 -0.894634 -0.707107 -0.707107 
C -0.894634 -0.51958 -1 -0.265203 -1 0 
C -1 0.265203 -0.894634 0.51958 -0.707107 0.707107 
C -0.51958 0.894634 -0.265203 1 0 1 
z
" id="m422a520858" style="stroke:#000000;stroke-opacity:0.75;stroke-width:0.16;"/>
    </defs>
    <g clip-path="url(#p2000694678)">
     <use style="fill:#1f77b4;fill-opacity:0.75;stroke:#000000;stroke-opacity:0.75;stroke-width:0.16;" x="-1" xlink:href="#m422a520858" y="232.169711"/>
     <use style="fill:#1f77b4;fill-opacity:0.75;stroke:#000000;stroke-opacity:0.75;stroke-width:0.16;" x="68.818171" xlink:href="#m422a520858" y="177.707361"/>
     <use style="fill:#1f77b4;fill-opacity:0.75;stroke:#000000;stroke-opacity:0.75;stroke-width:0.16;" x="163.352686" xlink:href="#m422a520858" y="103.975732"/>
     <use style="fill:#1f77b4;fill-opacity:0.75;stroke:#000000;stroke-opacity:0.75;stroke-width:0.16;" x="212.403362" xlink:href="#m422a520858" y="65.815362"/>
     <use style="fill:#1f77b4;fill-opacity:0.75;stroke:#000000;stroke-opacity:0.75;stroke-width:0.16;" x="241.123585" xlink:href="#m422a520858" y="43.473526"/>
     <use style="fill:#1f77b4;fill-opacity:0.75;stroke:#000000;stroke-opacity:0.75;stroke-width:0.16;" x="248.893229" xlink:href="#m422a520858" y="37.438663"/>
     <use style="fill:#1f77b4;fill-opacity:0.75;stroke:#000000;stroke-opacity:0.75;stroke-width:0.16;" x="252.813375" xlink:href="#m422a520858" y="34.616578"/>
     <use style="fill:#1f77b4;fill-opacity:0.75;stroke:#000000;stroke-opacity:0.75;stroke-width:0.16;" x="253.831284" xlink:href="#m422a520858" y="33.927649"/>
     <use style="fill:#1f77b4;fill-opacity:0.75;stroke:#000000;stroke-opacity:0.75;stroke-width:0.16;" x="258.348916" xlink:href="#m422a520858" y="30.974828"/>
     <use style="fill:#1f77b4;fill-opacity:0.75;stroke:#000000;stroke-opacity:0.75;stroke-width:0.16;" x="258.851851" xlink:href="#m422a520858" y="30.684199"/>
     <use style="fill:#1f77b4;fill-opacity:0.75;stroke:#000000;stroke-opacity:0.75;stroke-width:0.16;" x="259.193342" xlink:href="#m422a520858" y="30.487402"/>
     <use style="fill:#1f77b4;fill-opacity:0.75;stroke:#000000;stroke-opacity:0.75;stroke-width:0.16;" x="259.48146" xlink:href="#m422a520858" y="30.321438"/>
     <use style="fill:#1f77b4;fill-opacity:0.75;stroke:#000000;stroke-opacity:0.75;stroke-width:0.16;" x="260.217815" xlink:href="#m422a520858" y="29.897587"/>
     <use style="fill:#1f77b4;fill-opacity:0.75;stroke:#000000;stroke-opacity:0.75;stroke-width:0.16;" x="261.754524" xlink:href="#m422a520858" y="29.045304"/>
     <use style="fill:#1f77b4;fill-opacity:0.75;stroke:#000000;stroke-opacity:0.75;stroke-width:0.16;" x="263.291234" xlink:href="#m422a520858" y="28.220197"/>
     <use style="fill:#1f77b4;fill-opacity:0.75;stroke:#000000;stroke-opacity:0.75;stroke-width:0.16;" x="264.827943" xlink:href="#m422a520858" y="27.439857"/>
     <use style="fill:#1f77b4;fill-opacity:0.75;stroke:#000000;stroke-opacity:0.75;stroke-width:0.16;" x="267.38418" xlink:href="#m422a520858" y="26.223093"/>
     <use style="fill:#1f77b4;fill-opacity:0.75;stroke:#000000;stroke-opacity:0.75;stroke-width:0.16;" x="268.493962" xlink:href="#m422a520858" y="25.726666"/>
     <use style="fill:#1f77b4;fill-opacity:0.75;stroke:#000000;stroke-opacity:0.75;stroke-width:0.16;" x="269.679798" xlink:href="#m422a520858" y="25.236187"/>
     <use style="fill:#1f77b4;fill-opacity:0.75;stroke:#000000;stroke-opacity:0.75;stroke-width:0.16;" x="269.827005" xlink:href="#m422a520858" y="25.177676"/>
     <use style="fill:#1f77b4;fill-opacity:0.75;stroke:#000000;stroke-opacity:0.75;stroke-width:0.16;" x="269.974212" xlink:href="#m422a520858" y="25.118717"/>
     <use style="fill:#1f77b4;fill-opacity:0.75;stroke:#000000;stroke-opacity:0.75;stroke-width:0.16;" x="270.379032" xlink:href="#m422a520858" y="24.958545"/>
     <use style="fill:#1f77b4;fill-opacity:0.75;stroke:#000000;stroke-opacity:0.75;stroke-width:0.16;" x="270.545294" xlink:href="#m422a520858" y="24.894623"/>
     <use style="fill:#1f77b4;fill-opacity:0.75;stroke:#000000;stroke-opacity:0.75;stroke-width:0.16;" x="270.666972" xlink:href="#m422a520858" y="24.848896"/>
     <use style="fill:#1f77b4;fill-opacity:0.75;stroke:#000000;stroke-opacity:0.75;stroke-width:0.16;" x="270.788651" xlink:href="#m422a520858" y="24.803392"/>
     <use style="fill:#1f77b4;fill-opacity:0.75;stroke:#000000;stroke-opacity:0.75;stroke-width:0.16;" x="271.115067" xlink:href="#m422a520858" y="24.683429"/>
     <use style="fill:#1f77b4;fill-opacity:0.75;stroke:#000000;stroke-opacity:0.75;stroke-width:0.16;" x="271.644487" xlink:href="#m422a520858" y="24.494944"/>
     <use style="fill:#1f77b4;fill-opacity:0.75;stroke:#000000;stroke-opacity:0.75;stroke-width:0.16;" x="271.851102" xlink:href="#m422a520858" y="24.423463"/>
     <use style="fill:#1f77b4;fill-opacity:0.75;stroke:#000000;stroke-opacity:0.75;stroke-width:0.16;" x="272.21912" xlink:href="#m422a520858" y="24.29847"/>
     <use style="fill:#1f77b4;fill-opacity:0.75;stroke:#000000;stroke-opacity:0.75;stroke-width:0.16;" x="272.796342" xlink:href="#m422a520858" y="24.111134"/>
     <use style="fill:#1f77b4;fill-opacity:0.75;stroke:#000000;stroke-opacity:0.75;stroke-width:0.16;" x="272.955155" xlink:href="#m422a520858" y="24.060632"/>
     <use style="fill:#1f77b4;fill-opacity:0.75;stroke:#000000;stroke-opacity:0.75;stroke-width:0.16;" x="273.465572" xlink:href="#m422a520858" y="23.903901"/>
     <use style="fill:#1f77b4;fill-opacity:0.75;stroke:#000000;stroke-opacity:0.75;stroke-width:0.16;" x="273.691191" xlink:href="#m422a520858" y="23.834208"/>
     <use style="fill:#1f77b4;fill-opacity:0.75;stroke:#000000;stroke-opacity:0.75;stroke-width:0.16;" x="274.048201" xlink:href="#m422a520858" y="23.728603"/>
     <use style="fill:#1f77b4;fill-opacity:0.75;stroke:#000000;stroke-opacity:0.75;stroke-width:0.16;" x="274.134802" xlink:href="#m422a520858" y="23.703386"/>
     <use style="fill:#1f77b4;fill-opacity:0.75;stroke:#000000;stroke-opacity:0.75;stroke-width:0.16;" x="274.427226" xlink:href="#m422a520858" y="23.618166"/>
     <use style="fill:#1f77b4;fill-opacity:0.75;stroke:#000000;stroke-opacity:0.75;stroke-width:0.16;" x="274.979253" xlink:href="#m422a520858" y="23.463238"/>
     <use style="fill:#1f77b4;fill-opacity:0.75;stroke:#000000;stroke-opacity:0.75;stroke-width:0.16;" x="275.285934" xlink:href="#m422a520858" y="23.380022"/>
     <use style="fill:#1f77b4;fill-opacity:0.75;stroke:#000000;stroke-opacity:0.75;stroke-width:0.16;" x="275.523725" xlink:href="#m422a520858" y="23.320335"/>
     <use style="fill:#1f77b4;fill-opacity:0.75;stroke:#000000;stroke-opacity:0.75;stroke-width:0.16;" x="275.531279" xlink:href="#m422a520858" y="23.318192"/>
     <use style="fill:#1f77b4;fill-opacity:0.75;stroke:#000000;stroke-opacity:0.75;stroke-width:0.16;" x="275.574186" xlink:href="#m422a520858" y="23.306241"/>
     <use style="fill:#1f77b4;fill-opacity:0.75;stroke:#000000;stroke-opacity:0.75;stroke-width:0.16;" x="275.58491" xlink:href="#m422a520858" y="23.303657"/>
     <use style="fill:#1f77b4;fill-opacity:0.75;stroke:#000000;stroke-opacity:0.75;stroke-width:0.16;" x="275.624648" xlink:href="#m422a520858" y="23.294246"/>
     <use style="fill:#1f77b4;fill-opacity:0.75;stroke:#000000;stroke-opacity:0.75;stroke-width:0.16;" x="275.685725" xlink:href="#m422a520858" y="23.279758"/>
     <use style="fill:#1f77b4;fill-opacity:0.75;stroke:#000000;stroke-opacity:0.75;stroke-width:0.16;" x="275.776624" xlink:href="#m422a520858" y="23.259267"/>
     <use style="fill:#1f77b4;fill-opacity:0.75;stroke:#000000;stroke-opacity:0.75;stroke-width:0.16;" x="275.807878" xlink:href="#m422a520858" y="23.252379"/>
     <use style="fill:#1f77b4;fill-opacity:0.75;stroke:#000000;stroke-opacity:0.75;stroke-width:0.16;" x="275.975186" xlink:href="#m422a520858" y="23.213377"/>
     <use style="fill:#1f77b4;fill-opacity:0.75;stroke:#000000;stroke-opacity:0.75;stroke-width:0.16;" x="276.02197" xlink:href="#m422a520858" y="23.203431"/>
     <use style="fill:#1f77b4;fill-opacity:0.75;stroke:#000000;stroke-opacity:0.75;stroke-width:0.16;" x="276.142493" xlink:href="#m422a520858" y="23.178603"/>
     <use style="fill:#1f77b4;fill-opacity:0.75;stroke:#000000;stroke-opacity:0.75;stroke-width:0.16;" x="276.353265" xlink:href="#m422a520858" y="23.135246"/>
     <use style="fill:#1f77b4;fill-opacity:0.75;stroke:#000000;stroke-opacity:0.75;stroke-width:0.16;" x="276.36557" xlink:href="#m422a520858" y="23.132777"/>
     <use style="fill:#1f77b4;fill-opacity:0.75;stroke:#000000;stroke-opacity:0.75;stroke-width:0.16;" x="276.477109" xlink:href="#m422a520858" y="23.112184"/>
     <use style="fill:#1f77b4;fill-opacity:0.75;stroke:#000000;stroke-opacity:0.75;stroke-width:0.16;" x="276.51266" xlink:href="#m422a520858" y="23.105424"/>
     <use style="fill:#1f77b4;fill-opacity:0.75;stroke:#000000;stroke-opacity:0.75;stroke-width:0.16;" x="276.588647" xlink:href="#m422a520858" y="23.091469"/>
     <use style="fill:#1f77b4;fill-opacity:0.75;stroke:#000000;stroke-opacity:0.75;stroke-width:0.16;" x="276.758005" xlink:href="#m422a520858" y="23.062679"/>
     <use style="fill:#1f77b4;fill-opacity:0.75;stroke:#000000;stroke-opacity:0.75;stroke-width:0.16;" x="276.811724" xlink:href="#m422a520858" y="23.053852"/>
     <use style="fill:#1f77b4;fill-opacity:0.75;stroke:#000000;stroke-opacity:0.75;stroke-width:0.16;" x="276.963411" xlink:href="#m422a520858" y="23.02986"/>
     <use style="fill:#1f77b4;fill-opacity:0.75;stroke:#000000;stroke-opacity:0.75;stroke-width:0.16;" x="277.0348" xlink:href="#m422a520858" y="23.018868"/>
     <use style="fill:#1f77b4;fill-opacity:0.75;stroke:#000000;stroke-opacity:0.75;stroke-width:0.16;" x="277.12162" xlink:href="#m422a520858" y="23.006562"/>
     <use style="fill:#1f77b4;fill-opacity:0.75;stroke:#000000;stroke-opacity:0.75;stroke-width:0.16;" x="277.248695" xlink:href="#m422a520858" y="22.98875"/>
     <use style="fill:#1f77b4;fill-opacity:0.75;stroke:#000000;stroke-opacity:0.75;stroke-width:0.16;" x="277.257877" xlink:href="#m422a520858" y="22.987513"/>
     <use style="fill:#1f77b4;fill-opacity:0.75;stroke:#000000;stroke-opacity:0.75;stroke-width:0.16;" x="277.480954" xlink:href="#m422a520858" y="22.958985"/>
     <use style="fill:#1f77b4;fill-opacity:0.75;stroke:#000000;stroke-opacity:0.75;stroke-width:0.16;" x="277.49404" xlink:href="#m422a520858" y="22.957386"/>
     <use style="fill:#1f77b4;fill-opacity:0.75;stroke:#000000;stroke-opacity:0.75;stroke-width:0.16;" x="277.633856" xlink:href="#m422a520858" y="22.941194"/>
     <use style="fill:#1f77b4;fill-opacity:0.75;stroke:#000000;stroke-opacity:0.75;stroke-width:0.16;" x="277.815569" xlink:href="#m422a520858" y="22.921035"/>
     <use style="fill:#1f77b4;fill-opacity:0.75;stroke:#000000;stroke-opacity:0.75;stroke-width:0.16;" x="277.99974" xlink:href="#m422a520858" y="22.902882"/>
     <use style="fill:#1f77b4;fill-opacity:0.75;stroke:#000000;stroke-opacity:0.75;stroke-width:0.16;" x="278.230076" xlink:href="#m422a520858" y="22.881906"/>
     <use style="fill:#1f77b4;fill-opacity:0.75;stroke:#000000;stroke-opacity:0.75;stroke-width:0.16;" x="278.475421" xlink:href="#m422a520858" y="22.861652"/>
     <use style="fill:#1f77b4;fill-opacity:0.75;stroke:#000000;stroke-opacity:0.75;stroke-width:0.16;" x="278.4848" xlink:href="#m422a520858" y="22.860958"/>
     <use style="fill:#1f77b4;fill-opacity:0.75;stroke:#000000;stroke-opacity:0.75;stroke-width:0.16;" x="278.65833" xlink:href="#m422a520858" y="22.849185"/>
     <use style="fill:#1f77b4;fill-opacity:0.75;stroke:#000000;stroke-opacity:0.75;stroke-width:0.16;" x="278.79803" xlink:href="#m422a520858" y="22.840343"/>
     <use style="fill:#1f77b4;fill-opacity:0.75;stroke:#000000;stroke-opacity:0.75;stroke-width:0.16;" x="278.896012" xlink:href="#m422a520858" y="22.834572"/>
     <use style="fill:#1f77b4;fill-opacity:0.75;stroke:#000000;stroke-opacity:0.75;stroke-width:0.16;" x="278.986722" xlink:href="#m422a520858" y="22.830003"/>
     <use style="fill:#1f77b4;fill-opacity:0.75;stroke:#000000;stroke-opacity:0.75;stroke-width:0.16;" x="279.00116" xlink:href="#m422a520858" y="22.829329"/>
     <use style="fill:#1f77b4;fill-opacity:0.75;stroke:#000000;stroke-opacity:0.75;stroke-width:0.16;" x="279.077432" xlink:href="#m422a520858" y="22.826017"/>
     <use style="fill:#1f77b4;fill-opacity:0.75;stroke:#000000;stroke-opacity:0.75;stroke-width:0.16;" x="279.106308" xlink:href="#m422a520858" y="22.824771"/>
     <use style="fill:#1f77b4;fill-opacity:0.75;stroke:#000000;stroke-opacity:0.75;stroke-width:0.16;" x="279.211456" xlink:href="#m422a520858" y="22.820459"/>
     <use style="fill:#1f77b4;fill-opacity:0.75;stroke:#000000;stroke-opacity:0.75;stroke-width:0.16;" x="279.217133" xlink:href="#m422a520858" y="22.820266"/>
     <use style="fill:#1f77b4;fill-opacity:0.75;stroke:#000000;stroke-opacity:0.75;stroke-width:0.16;" x="279.245289" xlink:href="#m422a520858" y="22.819327"/>
     <use style="fill:#1f77b4;fill-opacity:0.75;stroke:#000000;stroke-opacity:0.75;stroke-width:0.16;" x="279.286983" xlink:href="#m422a520858" y="22.818209"/>
     <use style="fill:#1f77b4;fill-opacity:0.75;stroke:#000000;stroke-opacity:0.75;stroke-width:0.16;" x="279.306128" xlink:href="#m422a520858" y="22.798605"/>
     <use style="fill:#1f77b4;fill-opacity:0.75;stroke:#000000;stroke-opacity:0.75;stroke-width:0.16;" x="279.336547" xlink:href="#m422a520858" y="22.767463"/>
     <use style="fill:#1f77b4;fill-opacity:0.75;stroke:#000000;stroke-opacity:0.75;stroke-width:0.16;" x="279.345281" xlink:href="#m422a520858" y="22.738555"/>
     <use style="fill:#1f77b4;fill-opacity:0.75;stroke:#000000;stroke-opacity:0.75;stroke-width:0.16;" x="279.356834" xlink:href="#m422a520858" y="22.688365"/>
     <use style="fill:#1f77b4;fill-opacity:0.75;stroke:#000000;stroke-opacity:0.75;stroke-width:0.16;" x="279.366967" xlink:href="#m422a520858" y="22.654435"/>
     <use style="fill:#1f77b4;fill-opacity:0.75;stroke:#000000;stroke-opacity:0.75;stroke-width:0.16;" x="279.412193" xlink:href="#m422a520858" y="22.606196"/>
     <use style="fill:#1f77b4;fill-opacity:0.75;stroke:#000000;stroke-opacity:0.75;stroke-width:0.16;" x="279.427806" xlink:href="#m422a520858" y="22.605753"/>
     <use style="fill:#1f77b4;fill-opacity:0.75;stroke:#000000;stroke-opacity:0.75;stroke-width:0.16;" x="279.479105" xlink:href="#m422a520858" y="22.604401"/>
     <use style="fill:#1f77b4;fill-opacity:0.75;stroke:#000000;stroke-opacity:0.75;stroke-width:0.16;" x="279.536449" xlink:href="#m422a520858" y="22.603766"/>
     <use style="fill:#1f77b4;fill-opacity:0.75;stroke:#000000;stroke-opacity:0.75;stroke-width:0.16;" x="279.584249" xlink:href="#m422a520858" y="22.603213"/>
     <use style="fill:#1f77b4;fill-opacity:0.75;stroke:#000000;stroke-opacity:0.75;stroke-width:0.16;" x="279.679854" xlink:href="#m422a520858" y="22.602568"/>
     <use style="fill:#1f77b4;fill-opacity:0.75;stroke:#000000;stroke-opacity:0.75;stroke-width:0.16;" x="279.755979" xlink:href="#m422a520858" y="22.602396"/>
     <use style="fill:#1f77b4;fill-opacity:0.75;stroke:#000000;stroke-opacity:0.75;stroke-width:0.16;" x="279.842344" xlink:href="#m422a520858" y="22.603398"/>
     <use style="fill:#1f77b4;fill-opacity:0.75;stroke:#000000;stroke-opacity:0.75;stroke-width:0.16;" x="279.934799" xlink:href="#m422a520858" y="22.60485"/>
     <use style="fill:#1f77b4;fill-opacity:0.75;stroke:#000000;stroke-opacity:0.75;stroke-width:0.16;" x="279.947492" xlink:href="#m422a520858" y="22.605142"/>
     <use style="fill:#1f77b4;fill-opacity:0.75;stroke:#000000;stroke-opacity:0.75;stroke-width:0.16;" x="280.157875" xlink:href="#m422a520858" y="22.612075"/>
     <use style="fill:#1f77b4;fill-opacity:0.75;stroke:#000000;stroke-opacity:0.75;stroke-width:0.16;" x="280.192837" xlink:href="#m422a520858" y="22.613616"/>
     <use style="fill:#1f77b4;fill-opacity:0.75;stroke:#000000;stroke-opacity:0.75;stroke-width:0.16;" x="280.195039" xlink:href="#m422a520858" y="22.613738"/>
     <use style="fill:#1f77b4;fill-opacity:0.75;stroke:#000000;stroke-opacity:0.75;stroke-width:0.16;" x="280.380952" xlink:href="#m422a520858" y="22.624564"/>
     <use style="fill:#1f77b4;fill-opacity:0.75;stroke:#000000;stroke-opacity:0.75;stroke-width:0.16;" x="280.438182" xlink:href="#m422a520858" y="22.628522"/>
     <use style="fill:#1f77b4;fill-opacity:0.75;stroke:#000000;stroke-opacity:0.75;stroke-width:0.16;" x="280.604029" xlink:href="#m422a520858" y="22.642011"/>
     <use style="fill:#1f77b4;fill-opacity:0.75;stroke:#000000;stroke-opacity:0.75;stroke-width:0.16;" x="280.683527" xlink:href="#m422a520858" y="22.649271"/>
     <use style="fill:#1f77b4;fill-opacity:0.75;stroke:#000000;stroke-opacity:0.75;stroke-width:0.16;" x="280.827106" xlink:href="#m422a520858" y="22.664693"/>
     <use style="fill:#1f77b4;fill-opacity:0.75;stroke:#000000;stroke-opacity:0.75;stroke-width:0.16;" x="281.050182" xlink:href="#m422a520858" y="22.692374"/>
     <use style="fill:#1f77b4;fill-opacity:0.75;stroke:#000000;stroke-opacity:0.75;stroke-width:0.16;" x="281.155483" xlink:href="#m422a520858" y="22.70688"/>
     <use style="fill:#1f77b4;fill-opacity:0.75;stroke:#000000;stroke-opacity:0.75;stroke-width:0.16;" x="281.174217" xlink:href="#m422a520858" y="22.709531"/>
     <use style="fill:#1f77b4;fill-opacity:0.75;stroke:#000000;stroke-opacity:0.75;stroke-width:0.16;" x="281.419562" xlink:href="#m422a520858" y="22.74856"/>
     <use style="fill:#1f77b4;fill-opacity:0.75;stroke:#000000;stroke-opacity:0.75;stroke-width:0.16;" x="281.496336" xlink:href="#m422a520858" y="22.762087"/>
     <use style="fill:#1f77b4;fill-opacity:0.75;stroke:#000000;stroke-opacity:0.75;stroke-width:0.16;" x="281.53966" xlink:href="#m422a520858" y="22.769954"/>
     <use style="fill:#1f77b4;fill-opacity:0.75;stroke:#000000;stroke-opacity:0.75;stroke-width:0.16;" x="281.664908" xlink:href="#m422a520858" y="22.793133"/>
     <use style="fill:#1f77b4;fill-opacity:0.75;stroke:#000000;stroke-opacity:0.75;stroke-width:0.16;" x="281.719413" xlink:href="#m422a520858" y="22.803832"/>
     <use style="fill:#1f77b4;fill-opacity:0.75;stroke:#000000;stroke-opacity:0.75;stroke-width:0.16;" x="281.78758" xlink:href="#m422a520858" y="22.817496"/>
     <use style="fill:#1f77b4;fill-opacity:0.75;stroke:#000000;stroke-opacity:0.75;stroke-width:0.16;" x="281.830951" xlink:href="#m422a520858" y="22.82647"/>
     <use style="fill:#1f77b4;fill-opacity:0.75;stroke:#000000;stroke-opacity:0.75;stroke-width:0.16;" x="281.859808" xlink:href="#m422a520858" y="22.832497"/>
     <use style="fill:#1f77b4;fill-opacity:0.75;stroke:#000000;stroke-opacity:0.75;stroke-width:0.16;" x="281.879585" xlink:href="#m422a520858" y="22.83672"/>
     <use style="fill:#1f77b4;fill-opacity:0.75;stroke:#000000;stroke-opacity:0.75;stroke-width:0.16;" x="282.063593" xlink:href="#m422a520858" y="22.878399"/>
     <use style="fill:#1f77b4;fill-opacity:0.75;stroke:#000000;stroke-opacity:0.75;stroke-width:0.16;" x="282.115926" xlink:href="#m422a520858" y="22.890812"/>
     <use style="fill:#1f77b4;fill-opacity:0.75;stroke:#000000;stroke-opacity:0.75;stroke-width:0.16;" x="282.155598" xlink:href="#m422a520858" y="22.900338"/>
     <use style="fill:#1f77b4;fill-opacity:0.75;stroke:#000000;stroke-opacity:0.75;stroke-width:0.16;" x="282.165566" xlink:href="#m422a520858" y="22.902785"/>
     <use style="fill:#1f77b4;fill-opacity:0.75;stroke:#000000;stroke-opacity:0.75;stroke-width:0.16;" x="282.216934" xlink:href="#m422a520858" y="22.915391"/>
     <use style="fill:#1f77b4;fill-opacity:0.75;stroke:#000000;stroke-opacity:0.75;stroke-width:0.16;" x="282.221336" xlink:href="#m422a520858" y="22.916497"/>
     <use style="fill:#1f77b4;fill-opacity:0.75;stroke:#000000;stroke-opacity:0.75;stroke-width:0.16;" x="282.332874" xlink:href="#m422a520858" y="22.928961"/>
     <use style="fill:#1f77b4;fill-opacity:0.75;stroke:#000000;stroke-opacity:0.75;stroke-width:0.16;" x="282.339607" xlink:href="#m422a520858" y="22.928073"/>
     <use style="fill:#1f77b4;fill-opacity:0.75;stroke:#000000;stroke-opacity:0.75;stroke-width:0.16;" x="282.372044" xlink:href="#m422a520858" y="22.917924"/>
     <use style="fill:#1f77b4;fill-opacity:0.75;stroke:#000000;stroke-opacity:0.75;stroke-width:0.16;" x="282.462279" xlink:href="#m422a520858" y="22.909991"/>
     <use style="fill:#1f77b4;fill-opacity:0.75;stroke:#000000;stroke-opacity:0.75;stroke-width:0.16;" x="282.567105" xlink:href="#m422a520858" y="22.939337"/>
     <use style="fill:#1f77b4;fill-opacity:0.75;stroke:#000000;stroke-opacity:0.75;stroke-width:0.16;" x="282.597219" xlink:href="#m422a520858" y="22.947861"/>
     <use style="fill:#1f77b4;fill-opacity:0.75;stroke:#000000;stroke-opacity:0.75;stroke-width:0.16;" x="282.653774" xlink:href="#m422a520858" y="22.964455"/>
     <use style="fill:#1f77b4;fill-opacity:0.75;stroke:#000000;stroke-opacity:0.75;stroke-width:0.16;" x="282.700951" xlink:href="#m422a520858" y="22.978472"/>
     <use style="fill:#1f77b4;fill-opacity:0.75;stroke:#000000;stroke-opacity:0.75;stroke-width:0.16;" x="282.834797" xlink:href="#m422a520858" y="23.020213"/>
     <use style="fill:#1f77b4;fill-opacity:0.75;stroke:#000000;stroke-opacity:0.75;stroke-width:0.16;" x="282.961116" xlink:href="#m422a520858" y="23.062201"/>
     <use style="fill:#1f77b4;fill-opacity:0.75;stroke:#000000;stroke-opacity:0.75;stroke-width:0.16;" x="283.057873" xlink:href="#m422a520858" y="23.095438"/>
     <use style="fill:#1f77b4;fill-opacity:0.75;stroke:#000000;stroke-opacity:0.75;stroke-width:0.16;" x="283.136978" xlink:href="#m422a520858" y="23.123611"/>
     <use style="fill:#1f77b4;fill-opacity:0.75;stroke:#000000;stroke-opacity:0.75;stroke-width:0.16;" x="283.268458" xlink:href="#m422a520858" y="23.173042"/>
     <use style="fill:#1f77b4;fill-opacity:0.75;stroke:#000000;stroke-opacity:0.75;stroke-width:0.16;" x="283.28095" xlink:href="#m422a520858" y="23.177816"/>
     <use style="fill:#1f77b4;fill-opacity:0.75;stroke:#000000;stroke-opacity:0.75;stroke-width:0.16;" x="283.504027" xlink:href="#m422a520858" y="23.268309"/>
     <use style="fill:#1f77b4;fill-opacity:0.75;stroke:#000000;stroke-opacity:0.75;stroke-width:0.16;" x="283.627669" xlink:href="#m422a520858" y="23.320911"/>
     <use style="fill:#1f77b4;fill-opacity:0.75;stroke:#000000;stroke-opacity:0.75;stroke-width:0.16;" x="283.727104" xlink:href="#m422a520858" y="23.365437"/>
     <use style="fill:#1f77b4;fill-opacity:0.75;stroke:#000000;stroke-opacity:0.75;stroke-width:0.16;" x="283.873014" xlink:href="#m422a520858" y="23.432688"/>
     <use style="fill:#1f77b4;fill-opacity:0.75;stroke:#000000;stroke-opacity:0.75;stroke-width:0.16;" x="284.036813" xlink:href="#m422a520858" y="23.513212"/>
     <use style="fill:#1f77b4;fill-opacity:0.75;stroke:#000000;stroke-opacity:0.75;stroke-width:0.16;" x="284.118359" xlink:href="#m422a520858" y="23.553917"/>
     <use style="fill:#1f77b4;fill-opacity:0.75;stroke:#000000;stroke-opacity:0.75;stroke-width:0.16;" x="284.173257" xlink:href="#m422a520858" y="23.582723"/>
     <use style="fill:#1f77b4;fill-opacity:0.75;stroke:#000000;stroke-opacity:0.75;stroke-width:0.16;" x="284.340565" xlink:href="#m422a520858" y="23.672267"/>
     <use style="fill:#1f77b4;fill-opacity:0.75;stroke:#000000;stroke-opacity:0.75;stroke-width:0.16;" x="284.497826" xlink:href="#m422a520858" y="23.761288"/>
     <use style="fill:#1f77b4;fill-opacity:0.75;stroke:#000000;stroke-opacity:0.75;stroke-width:0.16;" x="284.641719" xlink:href="#m422a520858" y="23.844588"/>
     <use style="fill:#1f77b4;fill-opacity:0.75;stroke:#000000;stroke-opacity:0.75;stroke-width:0.16;" x="284.731722" xlink:href="#m422a520858" y="23.888504"/>
     <use style="fill:#1f77b4;fill-opacity:0.75;stroke:#000000;stroke-opacity:0.75;stroke-width:0.16;" x="284.805168" xlink:href="#m422a520858" y="23.920109"/>
     <use style="fill:#1f77b4;fill-opacity:0.75;stroke:#000000;stroke-opacity:0.75;stroke-width:0.16;" x="285.061286" xlink:href="#m422a520858" y="24.059511"/>
     <use style="fill:#1f77b4;fill-opacity:0.75;stroke:#000000;stroke-opacity:0.75;stroke-width:0.16;" x="285.099739" xlink:href="#m422a520858" y="24.082941"/>
     <use style="fill:#1f77b4;fill-opacity:0.75;stroke:#000000;stroke-opacity:0.75;stroke-width:0.16;" x="285.317404" xlink:href="#m422a520858" y="24.238681"/>
     <use style="fill:#1f77b4;fill-opacity:0.75;stroke:#000000;stroke-opacity:0.75;stroke-width:0.16;" x="285.34441" xlink:href="#m422a520858" y="24.258201"/>
     <use style="fill:#1f77b4;fill-opacity:0.75;stroke:#000000;stroke-opacity:0.75;stroke-width:0.16;" x="285.573523" xlink:href="#m422a520858" y="24.437516"/>
     <use style="fill:#1f77b4;fill-opacity:0.75;stroke:#000000;stroke-opacity:0.75;stroke-width:0.16;" x="285.829641" xlink:href="#m422a520858" y="24.652227"/>
     <use style="fill:#1f77b4;fill-opacity:0.75;stroke:#000000;stroke-opacity:0.75;stroke-width:0.16;" x="285.846333" xlink:href="#m422a520858" y="24.666366"/>
     <use style="fill:#1f77b4;fill-opacity:0.75;stroke:#000000;stroke-opacity:0.75;stroke-width:0.16;" x="286.203792" xlink:href="#m422a520858" y="24.982348"/>
     <use style="fill:#1f77b4;fill-opacity:0.75;stroke:#000000;stroke-opacity:0.75;stroke-width:0.16;" x="286.515563" xlink:href="#m422a520858" y="25.294103"/>
     <use style="fill:#1f77b4;fill-opacity:0.75;stroke:#000000;stroke-opacity:0.75;stroke-width:0.16;" x="286.57181" xlink:href="#m422a520858" y="25.353304"/>
     <use style="fill:#1f77b4;fill-opacity:0.75;stroke:#000000;stroke-opacity:0.75;stroke-width:0.16;" x="286.726055" xlink:href="#m422a520858" y="25.529408"/>
     <use style="fill:#1f77b4;fill-opacity:0.75;stroke:#000000;stroke-opacity:0.75;stroke-width:0.16;" x="287.110232" xlink:href="#m422a520858" y="25.992781"/>
     <use style="fill:#1f77b4;fill-opacity:0.75;stroke:#000000;stroke-opacity:0.75;stroke-width:0.16;" x="287.181184" xlink:href="#m422a520858" y="26.079262"/>
     <use style="fill:#1f77b4;fill-opacity:0.75;stroke:#000000;stroke-opacity:0.75;stroke-width:0.16;" x="287.21666" xlink:href="#m422a520858" y="26.124129"/>
     <use style="fill:#1f77b4;fill-opacity:0.75;stroke:#000000;stroke-opacity:0.75;stroke-width:0.16;" x="287.287613" xlink:href="#m422a520858" y="26.21442"/>
     <use style="fill:#1f77b4;fill-opacity:0.75;stroke:#000000;stroke-opacity:0.75;stroke-width:0.16;" x="287.405807" xlink:href="#m422a520858" y="26.384967"/>
     <use style="fill:#1f77b4;fill-opacity:0.75;stroke:#000000;stroke-opacity:0.75;stroke-width:0.16;" x="287.642197" xlink:href="#m422a520858" y="26.737106"/>
     <use style="fill:#1f77b4;fill-opacity:0.75;stroke:#000000;stroke-opacity:0.75;stroke-width:0.16;" x="287.854024" xlink:href="#m422a520858" y="27.056657"/>
     <use style="fill:#1f77b4;fill-opacity:0.75;stroke:#000000;stroke-opacity:0.75;stroke-width:0.16;" x="288.043881" xlink:href="#m422a520858" y="27.357478"/>
     <use style="fill:#1f77b4;fill-opacity:0.75;stroke:#000000;stroke-opacity:0.75;stroke-width:0.16;" x="288.262764" xlink:href="#m422a520858" y="27.77223"/>
     <use style="fill:#1f77b4;fill-opacity:0.75;stroke:#000000;stroke-opacity:0.75;stroke-width:0.16;" x="288.523254" xlink:href="#m422a520858" y="28.275002"/>
     <use style="fill:#1f77b4;fill-opacity:0.75;stroke:#000000;stroke-opacity:0.75;stroke-width:0.16;" x="288.779916" xlink:href="#m422a520858" y="28.795324"/>
     <use style="fill:#1f77b4;fill-opacity:0.75;stroke:#000000;stroke-opacity:0.75;stroke-width:0.16;" x="289.086002" xlink:href="#m422a520858" y="29.569636"/>
     <use style="fill:#1f77b4;fill-opacity:0.75;stroke:#000000;stroke-opacity:0.75;stroke-width:0.16;" x="289.305531" xlink:href="#m422a520858" y="30.144881"/>
     <use style="fill:#1f77b4;fill-opacity:0.75;stroke:#000000;stroke-opacity:0.75;stroke-width:0.16;" x="289.607385" xlink:href="#m422a520858" y="31.03493"/>
     <use style="fill:#1f77b4;fill-opacity:0.75;stroke:#000000;stroke-opacity:0.75;stroke-width:0.16;" x="289.991562" xlink:href="#m422a520858" y="32.461547"/>
    </g>
   </g>
   <g id="line2d_26">
    <path clip-path="url(#p2000694678)" d="M 279.755979 148.982906 
L 279.755979 18.518906 
" style="fill:none;stroke:#000000;stroke-dasharray:1.85,0.8;stroke-dashoffset:0;stroke-width:0.5;"/>
   </g>
   <g id="patch_8">
    <path d="M 156.071562 148.982906 
L 156.071562 18.518906 
" style="fill:none;stroke:#262626;stroke-linecap:square;stroke-linejoin:miter;stroke-width:0.8;"/>
   </g>
   <g id="patch_9">
    <path d="M 289.991562 148.982906 
L 289.991562 18.518906 
" style="fill:none;stroke:#262626;stroke-linecap:square;stroke-linejoin:miter;stroke-width:0.8;"/>
   </g>
   <g id="patch_10">
    <path d="M 156.071562 148.982906 
L 289.991562 148.982906 
" style="fill:none;stroke:#262626;stroke-linecap:square;stroke-linejoin:miter;stroke-width:0.8;"/>
   </g>
   <g id="patch_11">
    <path d="M 156.071562 18.518906 
L 289.991562 18.518906 
" style="fill:none;stroke:#262626;stroke-linecap:square;stroke-linejoin:miter;stroke-width:0.8;"/>
   </g>
   <g id="text_28">
    <!-- Marginal Likelihood Distribution of the Root -->
    <g style="fill:#262626;" transform="translate(147.288828 12.518906)scale(0.07 -0.07)">
     <defs>
      <path d="M 19.671875 64.796875 
L 19.671875 8.109375 
L 31.59375 8.109375 
Q 46.6875 8.109375 53.6875 14.9375 
Q 60.6875 21.78125 60.6875 36.53125 
Q 60.6875 51.171875 53.6875 57.984375 
Q 46.6875 64.796875 31.59375 64.796875 
z
M 9.8125 72.90625 
L 30.078125 72.90625 
Q 51.265625 72.90625 61.171875 64.09375 
Q 71.09375 55.28125 71.09375 36.53125 
Q 71.09375 17.671875 61.125 8.828125 
Q 51.171875 0 30.078125 0 
L 9.8125 0 
z
" id="DejaVuSans-68"/>
      <path d="M 48.6875 27.296875 
Q 48.6875 37.203125 44.609375 42.84375 
Q 40.53125 48.484375 33.40625 48.484375 
Q 26.265625 48.484375 22.1875 42.84375 
Q 18.109375 37.203125 18.109375 27.296875 
Q 18.109375 17.390625 22.1875 11.75 
Q 26.265625 6.109375 33.40625 6.109375 
Q 40.53125 6.109375 44.609375 11.75 
Q 48.6875 17.390625 48.6875 27.296875 
z
M 18.109375 46.390625 
Q 20.953125 51.265625 25.265625 53.625 
Q 29.59375 56 35.59375 56 
Q 45.5625 56 51.78125 48.09375 
Q 58.015625 40.1875 58.015625 27.296875 
Q 58.015625 14.40625 51.78125 6.484375 
Q 45.5625 -1.421875 35.59375 -1.421875 
Q 29.59375 -1.421875 25.265625 0.953125 
Q 20.953125 3.328125 18.109375 8.203125 
L 18.109375 0 
L 9.078125 0 
L 9.078125 75.984375 
L 18.109375 75.984375 
z
" id="DejaVuSans-98"/>
      <path d="M 8.5 21.578125 
L 8.5 54.6875 
L 17.484375 54.6875 
L 17.484375 21.921875 
Q 17.484375 14.15625 20.5 10.265625 
Q 23.53125 6.390625 29.59375 6.390625 
Q 36.859375 6.390625 41.078125 11.03125 
Q 45.3125 15.671875 45.3125 23.6875 
L 45.3125 54.6875 
L 54.296875 54.6875 
L 54.296875 0 
L 45.3125 0 
L 45.3125 8.40625 
Q 42.046875 3.421875 37.71875 1 
Q 33.40625 -1.421875 27.6875 -1.421875 
Q 18.265625 -1.421875 13.375 4.4375 
Q 8.5 10.296875 8.5 21.578125 
z
M 31.109375 56 
z
" id="DejaVuSans-117"/>
      <path d="M 44.390625 34.1875 
Q 47.5625 33.109375 50.5625 29.59375 
Q 53.5625 26.078125 56.59375 19.921875 
L 66.609375 0 
L 56 0 
L 46.6875 18.703125 
Q 43.0625 26.03125 39.671875 28.421875 
Q 36.28125 30.8125 30.421875 30.8125 
L 19.671875 30.8125 
L 19.671875 0 
L 9.8125 0 
L 9.8125 72.90625 
L 32.078125 72.90625 
Q 44.578125 72.90625 50.734375 67.671875 
Q 56.890625 62.453125 56.890625 51.90625 
Q 56.890625 45.015625 53.6875 40.46875 
Q 50.484375 35.9375 44.390625 34.1875 
z
M 19.671875 64.796875 
L 19.671875 38.921875 
L 32.078125 38.921875 
Q 39.203125 38.921875 42.84375 42.21875 
Q 46.484375 45.515625 46.484375 51.90625 
Q 46.484375 58.296875 42.84375 61.546875 
Q 39.203125 64.796875 32.078125 64.796875 
z
" id="DejaVuSans-82"/>
     </defs>
     <use xlink:href="#DejaVuSans-77"/>
     <use x="86.279297" xlink:href="#DejaVuSans-97"/>
     <use x="147.558594" xlink:href="#DejaVuSans-114"/>
     <use x="186.921875" xlink:href="#DejaVuSans-103"/>
     <use x="250.398438" xlink:href="#DejaVuSans-105"/>
     <use x="278.181641" xlink:href="#DejaVuSans-110"/>
     <use x="341.560547" xlink:href="#DejaVuSans-97"/>
     <use x="402.839844" xlink:href="#DejaVuSans-108"/>
     <use x="430.623047" xlink:href="#DejaVuSans-32"/>
     <use x="462.410156" xlink:href="#DejaVuSans-76"/>
     <use x="518.123047" xlink:href="#DejaVuSans-105"/>
     <use x="545.90625" xlink:href="#DejaVuSans-107"/>
     <use x="600.191406" xlink:href="#DejaVuSans-101"/>
     <use x="661.714844" xlink:href="#DejaVuSans-108"/>
     <use x="689.498047" xlink:href="#DejaVuSans-105"/>
     <use x="717.28125" xlink:href="#DejaVuSans-104"/>
     <use x="780.660156" xlink:href="#DejaVuSans-111"/>
     <use x="841.841797" xlink:href="#DejaVuSans-111"/>
     <use x="903.023438" xlink:href="#DejaVuSans-100"/>
     <use x="966.5" xlink:href="#DejaVuSans-32"/>
     <use x="998.287109" xlink:href="#DejaVuSans-68"/>
     <use x="1075.289062" xlink:href="#DejaVuSans-105"/>
     <use x="1103.072266" xlink:href="#DejaVuSans-115"/>
     <use x="1155.171875" xlink:href="#DejaVuSans-116"/>
     <use x="1194.380859" xlink:href="#DejaVuSans-114"/>
     <use x="1235.494141" xlink:href="#DejaVuSans-105"/>
     <use x="1263.277344" xlink:href="#DejaVuSans-98"/>
     <use x="1326.753906" xlink:href="#DejaVuSans-117"/>
     <use x="1390.132812" xlink:href="#DejaVuSans-116"/>
     <use x="1429.341797" xlink:href="#DejaVuSans-105"/>
     <use x="1457.125" xlink:href="#DejaVuSans-111"/>
     <use x="1518.306641" xlink:href="#DejaVuSans-110"/>
     <use x="1581.685547" xlink:href="#DejaVuSans-32"/>
     <use x="1613.472656" xlink:href="#DejaVuSans-111"/>
     <use x="1674.654297" xlink:href="#DejaVuSans-102"/>
     <use x="1709.859375" xlink:href="#DejaVuSans-32"/>
     <use x="1741.646484" xlink:href="#DejaVuSans-116"/>
     <use x="1780.855469" xlink:href="#DejaVuSans-104"/>
     <use x="1844.234375" xlink:href="#DejaVuSans-101"/>
     <use x="1905.757812" xlink:href="#DejaVuSans-32"/>
     <use x="1937.544922" xlink:href="#DejaVuSans-82"/>
     <use x="2002.527344" xlink:href="#DejaVuSans-111"/>
     <use x="2063.708984" xlink:href="#DejaVuSans-111"/>
     <use x="2124.890625" xlink:href="#DejaVuSans-116"/>
    </g>
   </g>
   <g id="legend_1">
    <g id="patch_12">
     <path d="M 159.571562 38.447031 
L 207.2825 38.447031 
Q 208.2825 38.447031 208.2825 37.447031 
L 208.2825 22.018906 
Q 208.2825 21.018906 207.2825 21.018906 
L 159.571562 21.018906 
Q 158.571562 21.018906 158.571562 22.018906 
L 158.571562 37.447031 
Q 158.571562 38.447031 159.571562 38.447031 
z
" style="fill:#ffffff;opacity:0.8;stroke:#000000;stroke-linejoin:miter;stroke-width:0.75;"/>
    </g>
    <g id="line2d_27">
     <path d="M 160.571562 25.068125 
L 170.571562 25.068125 
" style="fill:none;stroke:#000000;stroke-dasharray:1.85,0.8;stroke-dashoffset:0;stroke-width:0.5;"/>
    </g>
    <g id="line2d_28"/>
    <g id="text_29">
     <!-- Peak -->
     <g style="fill:#262626;" transform="translate(174.571562 26.818125)scale(0.05 -0.05)">
      <use xlink:href="#DejaVuSans-80"/>
      <use x="56.677734" xlink:href="#DejaVuSans-101"/>
      <use x="118.201172" xlink:href="#DejaVuSans-97"/>
      <use x="179.480469" xlink:href="#DejaVuSans-107"/>
     </g>
    </g>
    <g id="patch_13">
     <path d="M 160.571562 35.407188 
L 170.571562 35.407188 
L 170.571562 31.907188 
L 160.571562 31.907188 
z
" style="fill:#1f77b4;opacity:0.5;stroke:#1f77b4;stroke-linejoin:miter;"/>
    </g>
    <g id="text_30">
     <!-- 95% Density -->
     <g style="fill:#262626;" transform="translate(174.571562 35.407188)scale(0.05 -0.05)">
      <defs>
       <path d="M 72.703125 32.078125 
Q 68.453125 32.078125 66.03125 28.46875 
Q 63.625 24.859375 63.625 18.40625 
Q 63.625 12.0625 66.03125 8.421875 
Q 68.453125 4.78125 72.703125 4.78125 
Q 76.859375 4.78125 79.265625 8.421875 
Q 81.6875 12.0625 81.6875 18.40625 
Q 81.6875 24.8125 79.265625 28.4375 
Q 76.859375 32.078125 72.703125 32.078125 
z
M 72.703125 38.28125 
Q 80.421875 38.28125 84.953125 32.90625 
Q 89.5 27.546875 89.5 18.40625 
Q 89.5 9.28125 84.9375 3.921875 
Q 80.375 -1.421875 72.703125 -1.421875 
Q 64.890625 -1.421875 60.34375 3.921875 
Q 55.8125 9.28125 55.8125 18.40625 
Q 55.8125 27.59375 60.375 32.9375 
Q 64.9375 38.28125 72.703125 38.28125 
z
M 22.3125 68.015625 
Q 18.109375 68.015625 15.6875 64.375 
Q 13.28125 60.75 13.28125 54.390625 
Q 13.28125 47.953125 15.671875 44.328125 
Q 18.0625 40.71875 22.3125 40.71875 
Q 26.5625 40.71875 28.96875 44.328125 
Q 31.390625 47.953125 31.390625 54.390625 
Q 31.390625 60.6875 28.953125 64.34375 
Q 26.515625 68.015625 22.3125 68.015625 
z
M 66.40625 74.21875 
L 74.21875 74.21875 
L 28.609375 -1.421875 
L 20.796875 -1.421875 
z
M 22.3125 74.21875 
Q 30.03125 74.21875 34.609375 68.875 
Q 39.203125 63.53125 39.203125 54.390625 
Q 39.203125 45.171875 34.640625 39.84375 
Q 30.078125 34.515625 22.3125 34.515625 
Q 14.546875 34.515625 10.03125 39.859375 
Q 5.515625 45.21875 5.515625 54.390625 
Q 5.515625 63.484375 10.046875 68.84375 
Q 14.59375 74.21875 22.3125 74.21875 
z
" id="DejaVuSans-37"/>
       <path d="M 32.171875 -5.078125 
Q 28.375 -14.84375 24.75 -17.8125 
Q 21.140625 -20.796875 15.09375 -20.796875 
L 7.90625 -20.796875 
L 7.90625 -13.28125 
L 13.1875 -13.28125 
Q 16.890625 -13.28125 18.9375 -11.515625 
Q 21 -9.765625 23.484375 -3.21875 
L 25.09375 0.875 
L 2.984375 54.6875 
L 12.5 54.6875 
L 29.59375 11.921875 
L 46.6875 54.6875 
L 56.203125 54.6875 
z
" id="DejaVuSans-121"/>
      </defs>
      <use xlink:href="#DejaVuSans-57"/>
      <use x="63.623047" xlink:href="#DejaVuSans-53"/>
      <use x="127.246094" xlink:href="#DejaVuSans-37"/>
      <use x="222.265625" xlink:href="#DejaVuSans-32"/>
      <use x="254.052734" xlink:href="#DejaVuSans-68"/>
      <use x="331.054688" xlink:href="#DejaVuSans-101"/>
      <use x="392.578125" xlink:href="#DejaVuSans-110"/>
      <use x="455.957031" xlink:href="#DejaVuSans-115"/>
      <use x="508.056641" xlink:href="#DejaVuSans-105"/>
      <use x="535.839844" xlink:href="#DejaVuSans-116"/>
      <use x="575.048828" xlink:href="#DejaVuSans-121"/>
     </g>
    </g>
   </g>
  </g>
 </g>
 <defs>
  <clipPath id="p2000694678">
   <rect height="130.464" width="133.92" x="156.071562" y="18.518906"/>
  </clipPath>
 </defs>
</svg>
