<?xml version="1.0" encoding="utf-8" standalone="no"?>
<!DOCTYPE svg PUBLIC "-//W3C//DTD SVG 1.1//EN"
  "http://www.w3.org/Graphics/SVG/1.1/DTD/svg11.dtd">
<!-- Created with matplotlib (https://matplotlib.org/) -->
<svg height="177.828844pt" version="1.1" viewBox="0 0 315.961719 177.828844" width="315.961719pt" xmlns="http://www.w3.org/2000/svg" xmlns:xlink="http://www.w3.org/1999/xlink">
 <metadata>
  <rdf:RDF xmlns:cc="http://creativecommons.org/ns#" xmlns:dc="http://purl.org/dc/elements/1.1/" xmlns:rdf="http://www.w3.org/1999/02/22-rdf-syntax-ns#">
   <cc:Work>
    <dc:type rdf:resource="http://purl.org/dc/dcmitype/StillImage"/>
    <dc:date>2021-04-05T12:00:59.280089</dc:date>
    <dc:format>image/svg+xml</dc:format>
    <dc:creator>
     <cc:Agent>
      <dc:title>Matplotlib v3.3.2, https://matplotlib.org/</dc:title>
     </cc:Agent>
    </dc:creator>
   </cc:Work>
  </rdf:RDF>
 </metadata>
 <defs>
  <style type="text/css">*{stroke-linecap:butt;stroke-linejoin:round;}</style>
 </defs>
 <g id="figure_1">
  <g id="patch_1">
   <path d="M 0 177.828844 
L 315.961719 177.828844 
L 315.961719 0 
L 0 0 
z
" style="fill:#ffffff;"/>
  </g>
  <g id="axes_1">
   <g id="patch_2">
    <path d="M 40.921719 148.982906 
L 308.761719 148.982906 
L 308.761719 18.518906 
L 40.921719 18.518906 
z
" style="fill:#ffffff;"/>
   </g>
   <g id="matplotlib.axis_1">
    <g id="xtick_1">
     <g id="line2d_1">
      <defs>
       <path d="M 0 0 
L 0 3.5 
" id="m691d07198c" style="stroke:#262626;stroke-width:0.8;"/>
      </defs>
      <g>
       <use style="fill:#262626;stroke:#262626;stroke-width:0.8;" x="53.096264" xlink:href="#m691d07198c" y="148.982906"/>
      </g>
     </g>
     <g id="text_1">
      <!-- 0.PRE -->
      <g style="fill:#262626;" transform="translate(45.886889 159.782125)scale(0.05 -0.05)">
       <defs>
        <path d="M 31.78125 66.40625 
Q 24.171875 66.40625 20.328125 58.90625 
Q 16.5 51.421875 16.5 36.375 
Q 16.5 21.390625 20.328125 13.890625 
Q 24.171875 6.390625 31.78125 6.390625 
Q 39.453125 6.390625 43.28125 13.890625 
Q 47.125 21.390625 47.125 36.375 
Q 47.125 51.421875 43.28125 58.90625 
Q 39.453125 66.40625 31.78125 66.40625 
z
M 31.78125 74.21875 
Q 44.046875 74.21875 50.515625 64.515625 
Q 56.984375 54.828125 56.984375 36.375 
Q 56.984375 17.96875 50.515625 8.265625 
Q 44.046875 -1.421875 31.78125 -1.421875 
Q 19.53125 -1.421875 13.0625 8.265625 
Q 6.59375 17.96875 6.59375 36.375 
Q 6.59375 54.828125 13.0625 64.515625 
Q 19.53125 74.21875 31.78125 74.21875 
z
" id="DejaVuSans-48"/>
        <path d="M 10.6875 12.40625 
L 21 12.40625 
L 21 0 
L 10.6875 0 
z
" id="DejaVuSans-46"/>
        <path d="M 19.671875 64.796875 
L 19.671875 37.40625 
L 32.078125 37.40625 
Q 38.96875 37.40625 42.71875 40.96875 
Q 46.484375 44.53125 46.484375 51.125 
Q 46.484375 57.671875 42.71875 61.234375 
Q 38.96875 64.796875 32.078125 64.796875 
z
M 9.8125 72.90625 
L 32.078125 72.90625 
Q 44.34375 72.90625 50.609375 67.359375 
Q 56.890625 61.8125 56.890625 51.125 
Q 56.890625 40.328125 50.609375 34.8125 
Q 44.34375 29.296875 32.078125 29.296875 
L 19.671875 29.296875 
L 19.671875 0 
L 9.8125 0 
z
" id="DejaVuSans-80"/>
        <path d="M 44.390625 34.1875 
Q 47.5625 33.109375 50.5625 29.59375 
Q 53.5625 26.078125 56.59375 19.921875 
L 66.609375 0 
L 56 0 
L 46.6875 18.703125 
Q 43.0625 26.03125 39.671875 28.421875 
Q 36.28125 30.8125 30.421875 30.8125 
L 19.671875 30.8125 
L 19.671875 0 
L 9.8125 0 
L 9.8125 72.90625 
L 32.078125 72.90625 
Q 44.578125 72.90625 50.734375 67.671875 
Q 56.890625 62.453125 56.890625 51.90625 
Q 56.890625 45.015625 53.6875 40.46875 
Q 50.484375 35.9375 44.390625 34.1875 
z
M 19.671875 64.796875 
L 19.671875 38.921875 
L 32.078125 38.921875 
Q 39.203125 38.921875 42.84375 42.21875 
Q 46.484375 45.515625 46.484375 51.90625 
Q 46.484375 58.296875 42.84375 61.546875 
Q 39.203125 64.796875 32.078125 64.796875 
z
" id="DejaVuSans-82"/>
        <path d="M 9.8125 72.90625 
L 55.90625 72.90625 
L 55.90625 64.59375 
L 19.671875 64.59375 
L 19.671875 43.015625 
L 54.390625 43.015625 
L 54.390625 34.71875 
L 19.671875 34.71875 
L 19.671875 8.296875 
L 56.78125 8.296875 
L 56.78125 0 
L 9.8125 0 
z
" id="DejaVuSans-69"/>
       </defs>
       <use xlink:href="#DejaVuSans-48"/>
       <use x="63.623047" xlink:href="#DejaVuSans-46"/>
       <use x="95.410156" xlink:href="#DejaVuSans-80"/>
       <use x="155.712891" xlink:href="#DejaVuSans-82"/>
       <use x="225.195312" xlink:href="#DejaVuSans-69"/>
      </g>
     </g>
    </g>
    <g id="xtick_2">
     <g id="line2d_2">
      <g>
       <use style="fill:#262626;stroke:#262626;stroke-width:0.8;" x="77.445355" xlink:href="#m691d07198c" y="148.982906"/>
      </g>
     </g>
     <g id="text_2">
      <!-- 0.PE -->
      <g style="fill:#262626;" transform="translate(71.973089 159.782125)scale(0.05 -0.05)">
       <use xlink:href="#DejaVuSans-48"/>
       <use x="63.623047" xlink:href="#DejaVuSans-46"/>
       <use x="95.410156" xlink:href="#DejaVuSans-80"/>
       <use x="155.712891" xlink:href="#DejaVuSans-69"/>
      </g>
     </g>
    </g>
    <g id="xtick_3">
     <g id="line2d_3">
      <g>
       <use style="fill:#262626;stroke:#262626;stroke-width:0.8;" x="101.794446" xlink:href="#m691d07198c" y="148.982906"/>
      </g>
     </g>
     <g id="text_3">
      <!-- 0.ANT -->
      <g style="fill:#262626;" transform="translate(94.301868 159.782125)scale(0.05 -0.05)">
       <defs>
        <path d="M 34.1875 63.1875 
L 20.796875 26.90625 
L 47.609375 26.90625 
z
M 28.609375 72.90625 
L 39.796875 72.90625 
L 67.578125 0 
L 57.328125 0 
L 50.6875 18.703125 
L 17.828125 18.703125 
L 11.1875 0 
L 0.78125 0 
z
" id="DejaVuSans-65"/>
        <path d="M 9.8125 72.90625 
L 23.09375 72.90625 
L 55.421875 11.921875 
L 55.421875 72.90625 
L 64.984375 72.90625 
L 64.984375 0 
L 51.703125 0 
L 19.390625 60.984375 
L 19.390625 0 
L 9.8125 0 
z
" id="DejaVuSans-78"/>
        <path d="M -0.296875 72.90625 
L 61.375 72.90625 
L 61.375 64.59375 
L 35.5 64.59375 
L 35.5 0 
L 25.59375 0 
L 25.59375 64.59375 
L -0.296875 64.59375 
z
" id="DejaVuSans-84"/>
       </defs>
       <use xlink:href="#DejaVuSans-48"/>
       <use x="63.623047" xlink:href="#DejaVuSans-46"/>
       <use x="95.410156" xlink:href="#DejaVuSans-65"/>
       <use x="163.818359" xlink:href="#DejaVuSans-78"/>
       <use x="238.623047" xlink:href="#DejaVuSans-84"/>
      </g>
     </g>
    </g>
    <g id="xtick_4">
     <g id="line2d_4">
      <g>
       <use style="fill:#262626;stroke:#262626;stroke-width:0.8;" x="126.143537" xlink:href="#m691d07198c" y="148.982906"/>
      </g>
     </g>
     <g id="text_4">
      <!-- 3.ANT -->
      <g style="fill:#262626;" transform="translate(118.650959 159.782125)scale(0.05 -0.05)">
       <defs>
        <path d="M 40.578125 39.3125 
Q 47.65625 37.796875 51.625 33 
Q 55.609375 28.21875 55.609375 21.1875 
Q 55.609375 10.40625 48.1875 4.484375 
Q 40.765625 -1.421875 27.09375 -1.421875 
Q 22.515625 -1.421875 17.65625 -0.515625 
Q 12.796875 0.390625 7.625 2.203125 
L 7.625 11.71875 
Q 11.71875 9.328125 16.59375 8.109375 
Q 21.484375 6.890625 26.8125 6.890625 
Q 36.078125 6.890625 40.9375 10.546875 
Q 45.796875 14.203125 45.796875 21.1875 
Q 45.796875 27.640625 41.28125 31.265625 
Q 36.765625 34.90625 28.71875 34.90625 
L 20.21875 34.90625 
L 20.21875 43.015625 
L 29.109375 43.015625 
Q 36.375 43.015625 40.234375 45.921875 
Q 44.09375 48.828125 44.09375 54.296875 
Q 44.09375 59.90625 40.109375 62.90625 
Q 36.140625 65.921875 28.71875 65.921875 
Q 24.65625 65.921875 20.015625 65.03125 
Q 15.375 64.15625 9.8125 62.3125 
L 9.8125 71.09375 
Q 15.4375 72.65625 20.34375 73.4375 
Q 25.25 74.21875 29.59375 74.21875 
Q 40.828125 74.21875 47.359375 69.109375 
Q 53.90625 64.015625 53.90625 55.328125 
Q 53.90625 49.265625 50.4375 45.09375 
Q 46.96875 40.921875 40.578125 39.3125 
z
" id="DejaVuSans-51"/>
       </defs>
       <use xlink:href="#DejaVuSans-51"/>
       <use x="63.623047" xlink:href="#DejaVuSans-46"/>
       <use x="95.410156" xlink:href="#DejaVuSans-65"/>
       <use x="163.818359" xlink:href="#DejaVuSans-78"/>
       <use x="238.623047" xlink:href="#DejaVuSans-84"/>
      </g>
     </g>
    </g>
    <g id="xtick_5">
     <g id="line2d_5">
      <g>
       <use style="fill:#262626;stroke:#262626;stroke-width:0.8;" x="150.492628" xlink:href="#m691d07198c" y="148.982906"/>
      </g>
     </g>
     <g id="text_5">
      <!-- 4.ANT -->
      <g style="fill:#262626;" transform="translate(143.00005 159.782125)scale(0.05 -0.05)">
       <defs>
        <path d="M 37.796875 64.3125 
L 12.890625 25.390625 
L 37.796875 25.390625 
z
M 35.203125 72.90625 
L 47.609375 72.90625 
L 47.609375 25.390625 
L 58.015625 25.390625 
L 58.015625 17.1875 
L 47.609375 17.1875 
L 47.609375 0 
L 37.796875 0 
L 37.796875 17.1875 
L 4.890625 17.1875 
L 4.890625 26.703125 
z
" id="DejaVuSans-52"/>
       </defs>
       <use xlink:href="#DejaVuSans-52"/>
       <use x="63.623047" xlink:href="#DejaVuSans-46"/>
       <use x="95.410156" xlink:href="#DejaVuSans-65"/>
       <use x="163.818359" xlink:href="#DejaVuSans-78"/>
       <use x="238.623047" xlink:href="#DejaVuSans-84"/>
      </g>
     </g>
    </g>
    <g id="xtick_6">
     <g id="line2d_6">
      <g>
       <use style="fill:#262626;stroke:#262626;stroke-width:0.8;" x="174.841719" xlink:href="#m691d07198c" y="148.982906"/>
      </g>
     </g>
     <g id="text_6">
      <!-- 2.ANT -->
      <g style="fill:#262626;" transform="translate(167.349141 159.782125)scale(0.05 -0.05)">
       <defs>
        <path d="M 19.1875 8.296875 
L 53.609375 8.296875 
L 53.609375 0 
L 7.328125 0 
L 7.328125 8.296875 
Q 12.9375 14.109375 22.625 23.890625 
Q 32.328125 33.6875 34.8125 36.53125 
Q 39.546875 41.84375 41.421875 45.53125 
Q 43.3125 49.21875 43.3125 52.78125 
Q 43.3125 58.59375 39.234375 62.25 
Q 35.15625 65.921875 28.609375 65.921875 
Q 23.96875 65.921875 18.8125 64.3125 
Q 13.671875 62.703125 7.8125 59.421875 
L 7.8125 69.390625 
Q 13.765625 71.78125 18.9375 73 
Q 24.125 74.21875 28.421875 74.21875 
Q 39.75 74.21875 46.484375 68.546875 
Q 53.21875 62.890625 53.21875 53.421875 
Q 53.21875 48.921875 51.53125 44.890625 
Q 49.859375 40.875 45.40625 35.40625 
Q 44.1875 33.984375 37.640625 27.21875 
Q 31.109375 20.453125 19.1875 8.296875 
z
" id="DejaVuSans-50"/>
       </defs>
       <use xlink:href="#DejaVuSans-50"/>
       <use x="63.623047" xlink:href="#DejaVuSans-46"/>
       <use x="95.410156" xlink:href="#DejaVuSans-65"/>
       <use x="163.818359" xlink:href="#DejaVuSans-78"/>
       <use x="238.623047" xlink:href="#DejaVuSans-84"/>
      </g>
     </g>
    </g>
    <g id="xtick_7">
     <g id="line2d_7">
      <g>
       <use style="fill:#262626;stroke:#262626;stroke-width:0.8;" x="199.19081" xlink:href="#m691d07198c" y="148.982906"/>
      </g>
     </g>
     <g id="text_7">
      <!-- 2.MED -->
      <g style="fill:#262626;" transform="translate(191.143935 159.782125)scale(0.05 -0.05)">
       <defs>
        <path d="M 9.8125 72.90625 
L 24.515625 72.90625 
L 43.109375 23.296875 
L 61.8125 72.90625 
L 76.515625 72.90625 
L 76.515625 0 
L 66.890625 0 
L 66.890625 64.015625 
L 48.09375 14.015625 
L 38.1875 14.015625 
L 19.390625 64.015625 
L 19.390625 0 
L 9.8125 0 
z
" id="DejaVuSans-77"/>
        <path d="M 19.671875 64.796875 
L 19.671875 8.109375 
L 31.59375 8.109375 
Q 46.6875 8.109375 53.6875 14.9375 
Q 60.6875 21.78125 60.6875 36.53125 
Q 60.6875 51.171875 53.6875 57.984375 
Q 46.6875 64.796875 31.59375 64.796875 
z
M 9.8125 72.90625 
L 30.078125 72.90625 
Q 51.265625 72.90625 61.171875 64.09375 
Q 71.09375 55.28125 71.09375 36.53125 
Q 71.09375 17.671875 61.125 8.828125 
Q 51.171875 0 30.078125 0 
L 9.8125 0 
z
" id="DejaVuSans-68"/>
       </defs>
       <use xlink:href="#DejaVuSans-50"/>
       <use x="63.623047" xlink:href="#DejaVuSans-46"/>
       <use x="95.410156" xlink:href="#DejaVuSans-77"/>
       <use x="181.689453" xlink:href="#DejaVuSans-69"/>
       <use x="244.873047" xlink:href="#DejaVuSans-68"/>
      </g>
     </g>
    </g>
    <g id="xtick_8">
     <g id="line2d_8">
      <g>
       <use style="fill:#262626;stroke:#262626;stroke-width:0.8;" x="223.539901" xlink:href="#m691d07198c" y="148.982906"/>
      </g>
     </g>
     <g id="text_8">
      <!-- 1.PRE -->
      <g style="fill:#262626;" transform="translate(216.330526 159.782125)scale(0.05 -0.05)">
       <defs>
        <path d="M 12.40625 8.296875 
L 28.515625 8.296875 
L 28.515625 63.921875 
L 10.984375 60.40625 
L 10.984375 69.390625 
L 28.421875 72.90625 
L 38.28125 72.90625 
L 38.28125 8.296875 
L 54.390625 8.296875 
L 54.390625 0 
L 12.40625 0 
z
" id="DejaVuSans-49"/>
       </defs>
       <use xlink:href="#DejaVuSans-49"/>
       <use x="63.623047" xlink:href="#DejaVuSans-46"/>
       <use x="95.410156" xlink:href="#DejaVuSans-80"/>
       <use x="155.712891" xlink:href="#DejaVuSans-82"/>
       <use x="225.195312" xlink:href="#DejaVuSans-69"/>
      </g>
     </g>
    </g>
    <g id="xtick_9">
     <g id="line2d_9">
      <g>
       <use style="fill:#262626;stroke:#262626;stroke-width:0.8;" x="247.888991" xlink:href="#m691d07198c" y="148.982906"/>
      </g>
     </g>
     <g id="text_9">
      <!-- 1.ANT -->
      <g style="fill:#262626;" transform="translate(240.396413 159.782125)scale(0.05 -0.05)">
       <use xlink:href="#DejaVuSans-49"/>
       <use x="63.623047" xlink:href="#DejaVuSans-46"/>
       <use x="95.410156" xlink:href="#DejaVuSans-65"/>
       <use x="163.818359" xlink:href="#DejaVuSans-78"/>
       <use x="238.623047" xlink:href="#DejaVuSans-84"/>
      </g>
     </g>
    </g>
    <g id="xtick_10">
     <g id="line2d_10">
      <g>
       <use style="fill:#262626;stroke:#262626;stroke-width:0.8;" x="272.238082" xlink:href="#m691d07198c" y="148.982906"/>
      </g>
     </g>
     <g id="text_10">
      <!-- 1.IN -->
      <g style="fill:#262626;" transform="translate(267.245114 159.782125)scale(0.05 -0.05)">
       <defs>
        <path d="M 9.8125 72.90625 
L 19.671875 72.90625 
L 19.671875 0 
L 9.8125 0 
z
" id="DejaVuSans-73"/>
       </defs>
       <use xlink:href="#DejaVuSans-49"/>
       <use x="63.623047" xlink:href="#DejaVuSans-46"/>
       <use x="95.410156" xlink:href="#DejaVuSans-73"/>
       <use x="124.902344" xlink:href="#DejaVuSans-78"/>
      </g>
     </g>
    </g>
    <g id="xtick_11">
     <g id="line2d_11">
      <g>
       <use style="fill:#262626;stroke:#262626;stroke-width:0.8;" x="296.587173" xlink:href="#m691d07198c" y="148.982906"/>
      </g>
     </g>
     <g id="text_11">
      <!-- 1.ORI -->
      <g style="fill:#262626;" transform="translate(289.759439 159.782125)scale(0.05 -0.05)">
       <defs>
        <path d="M 39.40625 66.21875 
Q 28.65625 66.21875 22.328125 58.203125 
Q 16.015625 50.203125 16.015625 36.375 
Q 16.015625 22.609375 22.328125 14.59375 
Q 28.65625 6.59375 39.40625 6.59375 
Q 50.140625 6.59375 56.421875 14.59375 
Q 62.703125 22.609375 62.703125 36.375 
Q 62.703125 50.203125 56.421875 58.203125 
Q 50.140625 66.21875 39.40625 66.21875 
z
M 39.40625 74.21875 
Q 54.734375 74.21875 63.90625 63.9375 
Q 73.09375 53.65625 73.09375 36.375 
Q 73.09375 19.140625 63.90625 8.859375 
Q 54.734375 -1.421875 39.40625 -1.421875 
Q 24.03125 -1.421875 14.8125 8.828125 
Q 5.609375 19.09375 5.609375 36.375 
Q 5.609375 53.65625 14.8125 63.9375 
Q 24.03125 74.21875 39.40625 74.21875 
z
" id="DejaVuSans-79"/>
       </defs>
       <use xlink:href="#DejaVuSans-49"/>
       <use x="63.623047" xlink:href="#DejaVuSans-46"/>
       <use x="95.410156" xlink:href="#DejaVuSans-79"/>
       <use x="174.121094" xlink:href="#DejaVuSans-82"/>
       <use x="243.603516" xlink:href="#DejaVuSans-73"/>
      </g>
     </g>
    </g>
    <g id="text_12">
     <!-- Clade -->
     <g style="fill:#262626;" transform="translate(166.324531 169.381031)scale(0.06 -0.06)">
      <defs>
       <path d="M 64.40625 67.28125 
L 64.40625 56.890625 
Q 59.421875 61.53125 53.78125 63.8125 
Q 48.140625 66.109375 41.796875 66.109375 
Q 29.296875 66.109375 22.65625 58.46875 
Q 16.015625 50.828125 16.015625 36.375 
Q 16.015625 21.96875 22.65625 14.328125 
Q 29.296875 6.6875 41.796875 6.6875 
Q 48.140625 6.6875 53.78125 8.984375 
Q 59.421875 11.28125 64.40625 15.921875 
L 64.40625 5.609375 
Q 59.234375 2.09375 53.4375 0.328125 
Q 47.65625 -1.421875 41.21875 -1.421875 
Q 24.65625 -1.421875 15.125 8.703125 
Q 5.609375 18.84375 5.609375 36.375 
Q 5.609375 53.953125 15.125 64.078125 
Q 24.65625 74.21875 41.21875 74.21875 
Q 47.75 74.21875 53.53125 72.484375 
Q 59.328125 70.75 64.40625 67.28125 
z
" id="DejaVuSans-67"/>
       <path d="M 9.421875 75.984375 
L 18.40625 75.984375 
L 18.40625 0 
L 9.421875 0 
z
" id="DejaVuSans-108"/>
       <path d="M 34.28125 27.484375 
Q 23.390625 27.484375 19.1875 25 
Q 14.984375 22.515625 14.984375 16.5 
Q 14.984375 11.71875 18.140625 8.90625 
Q 21.296875 6.109375 26.703125 6.109375 
Q 34.1875 6.109375 38.703125 11.40625 
Q 43.21875 16.703125 43.21875 25.484375 
L 43.21875 27.484375 
z
M 52.203125 31.203125 
L 52.203125 0 
L 43.21875 0 
L 43.21875 8.296875 
Q 40.140625 3.328125 35.546875 0.953125 
Q 30.953125 -1.421875 24.3125 -1.421875 
Q 15.921875 -1.421875 10.953125 3.296875 
Q 6 8.015625 6 15.921875 
Q 6 25.140625 12.171875 29.828125 
Q 18.359375 34.515625 30.609375 34.515625 
L 43.21875 34.515625 
L 43.21875 35.40625 
Q 43.21875 41.609375 39.140625 45 
Q 35.0625 48.390625 27.6875 48.390625 
Q 23 48.390625 18.546875 47.265625 
Q 14.109375 46.140625 10.015625 43.890625 
L 10.015625 52.203125 
Q 14.9375 54.109375 19.578125 55.046875 
Q 24.21875 56 28.609375 56 
Q 40.484375 56 46.34375 49.84375 
Q 52.203125 43.703125 52.203125 31.203125 
z
" id="DejaVuSans-97"/>
       <path d="M 45.40625 46.390625 
L 45.40625 75.984375 
L 54.390625 75.984375 
L 54.390625 0 
L 45.40625 0 
L 45.40625 8.203125 
Q 42.578125 3.328125 38.25 0.953125 
Q 33.9375 -1.421875 27.875 -1.421875 
Q 17.96875 -1.421875 11.734375 6.484375 
Q 5.515625 14.40625 5.515625 27.296875 
Q 5.515625 40.1875 11.734375 48.09375 
Q 17.96875 56 27.875 56 
Q 33.9375 56 38.25 53.625 
Q 42.578125 51.265625 45.40625 46.390625 
z
M 14.796875 27.296875 
Q 14.796875 17.390625 18.875 11.75 
Q 22.953125 6.109375 30.078125 6.109375 
Q 37.203125 6.109375 41.296875 11.75 
Q 45.40625 17.390625 45.40625 27.296875 
Q 45.40625 37.203125 41.296875 42.84375 
Q 37.203125 48.484375 30.078125 48.484375 
Q 22.953125 48.484375 18.875 42.84375 
Q 14.796875 37.203125 14.796875 27.296875 
z
" id="DejaVuSans-100"/>
       <path d="M 56.203125 29.59375 
L 56.203125 25.203125 
L 14.890625 25.203125 
Q 15.484375 15.921875 20.484375 11.0625 
Q 25.484375 6.203125 34.421875 6.203125 
Q 39.59375 6.203125 44.453125 7.46875 
Q 49.3125 8.734375 54.109375 11.28125 
L 54.109375 2.78125 
Q 49.265625 0.734375 44.1875 -0.34375 
Q 39.109375 -1.421875 33.890625 -1.421875 
Q 20.796875 -1.421875 13.15625 6.1875 
Q 5.515625 13.8125 5.515625 26.8125 
Q 5.515625 40.234375 12.765625 48.109375 
Q 20.015625 56 32.328125 56 
Q 43.359375 56 49.78125 48.890625 
Q 56.203125 41.796875 56.203125 29.59375 
z
M 47.21875 32.234375 
Q 47.125 39.59375 43.09375 43.984375 
Q 39.0625 48.390625 32.421875 48.390625 
Q 24.90625 48.390625 20.390625 44.140625 
Q 15.875 39.890625 15.1875 32.171875 
z
" id="DejaVuSans-101"/>
      </defs>
      <use xlink:href="#DejaVuSans-67"/>
      <use x="69.824219" xlink:href="#DejaVuSans-108"/>
      <use x="97.607422" xlink:href="#DejaVuSans-97"/>
      <use x="158.886719" xlink:href="#DejaVuSans-100"/>
      <use x="222.363281" xlink:href="#DejaVuSans-101"/>
     </g>
    </g>
   </g>
   <g id="matplotlib.axis_2">
    <g id="ytick_1">
     <g id="line2d_12">
      <defs>
       <path d="M 0 0 
L -3.5 0 
" id="m4cc13c1b2a" style="stroke:#262626;stroke-width:0.8;"/>
      </defs>
      <g>
       <use style="fill:#262626;stroke:#262626;stroke-width:0.8;" x="40.921719" xlink:href="#m4cc13c1b2a" y="138.121844"/>
      </g>
     </g>
     <g id="text_13">
      <!-- −4000 -->
      <g style="fill:#262626;" transform="translate(17.006875 140.021453)scale(0.05 -0.05)">
       <defs>
        <path d="M 10.59375 35.5 
L 73.1875 35.5 
L 73.1875 27.203125 
L 10.59375 27.203125 
z
" id="DejaVuSans-8722"/>
       </defs>
       <use xlink:href="#DejaVuSans-8722"/>
       <use x="83.789062" xlink:href="#DejaVuSans-52"/>
       <use x="147.412109" xlink:href="#DejaVuSans-48"/>
       <use x="211.035156" xlink:href="#DejaVuSans-48"/>
       <use x="274.658203" xlink:href="#DejaVuSans-48"/>
      </g>
     </g>
    </g>
    <g id="ytick_2">
     <g id="line2d_13">
      <g>
       <use style="fill:#262626;stroke:#262626;stroke-width:0.8;" x="40.921719" xlink:href="#m4cc13c1b2a" y="119.122794"/>
      </g>
     </g>
     <g id="text_14">
      <!-- −3000 -->
      <g style="fill:#262626;" transform="translate(17.006875 121.022404)scale(0.05 -0.05)">
       <use xlink:href="#DejaVuSans-8722"/>
       <use x="83.789062" xlink:href="#DejaVuSans-51"/>
       <use x="147.412109" xlink:href="#DejaVuSans-48"/>
       <use x="211.035156" xlink:href="#DejaVuSans-48"/>
       <use x="274.658203" xlink:href="#DejaVuSans-48"/>
      </g>
     </g>
    </g>
    <g id="ytick_3">
     <g id="line2d_14">
      <g>
       <use style="fill:#262626;stroke:#262626;stroke-width:0.8;" x="40.921719" xlink:href="#m4cc13c1b2a" y="100.123744"/>
      </g>
     </g>
     <g id="text_15">
      <!-- −2000 -->
      <g style="fill:#262626;" transform="translate(17.006875 102.023354)scale(0.05 -0.05)">
       <use xlink:href="#DejaVuSans-8722"/>
       <use x="83.789062" xlink:href="#DejaVuSans-50"/>
       <use x="147.412109" xlink:href="#DejaVuSans-48"/>
       <use x="211.035156" xlink:href="#DejaVuSans-48"/>
       <use x="274.658203" xlink:href="#DejaVuSans-48"/>
      </g>
     </g>
    </g>
    <g id="ytick_4">
     <g id="line2d_15">
      <g>
       <use style="fill:#262626;stroke:#262626;stroke-width:0.8;" x="40.921719" xlink:href="#m4cc13c1b2a" y="81.124695"/>
      </g>
     </g>
     <g id="text_16">
      <!-- −1000 -->
      <g style="fill:#262626;" transform="translate(17.006875 83.024304)scale(0.05 -0.05)">
       <use xlink:href="#DejaVuSans-8722"/>
       <use x="83.789062" xlink:href="#DejaVuSans-49"/>
       <use x="147.412109" xlink:href="#DejaVuSans-48"/>
       <use x="211.035156" xlink:href="#DejaVuSans-48"/>
       <use x="274.658203" xlink:href="#DejaVuSans-48"/>
      </g>
     </g>
    </g>
    <g id="ytick_5">
     <g id="line2d_16">
      <g>
       <use style="fill:#262626;stroke:#262626;stroke-width:0.8;" x="40.921719" xlink:href="#m4cc13c1b2a" y="62.125645"/>
      </g>
     </g>
     <g id="text_17">
      <!-- 0 -->
      <g style="fill:#262626;" transform="translate(30.740469 64.025254)scale(0.05 -0.05)">
       <use xlink:href="#DejaVuSans-48"/>
      </g>
     </g>
    </g>
    <g id="ytick_6">
     <g id="line2d_17">
      <g>
       <use style="fill:#262626;stroke:#262626;stroke-width:0.8;" x="40.921719" xlink:href="#m4cc13c1b2a" y="43.126595"/>
      </g>
     </g>
     <g id="text_18">
      <!-- 1000 -->
      <g style="fill:#262626;" transform="translate(21.196719 45.026205)scale(0.05 -0.05)">
       <use xlink:href="#DejaVuSans-49"/>
       <use x="63.623047" xlink:href="#DejaVuSans-48"/>
       <use x="127.246094" xlink:href="#DejaVuSans-48"/>
       <use x="190.869141" xlink:href="#DejaVuSans-48"/>
      </g>
     </g>
    </g>
    <g id="ytick_7">
     <g id="line2d_18">
      <g>
       <use style="fill:#262626;stroke:#262626;stroke-width:0.8;" x="40.921719" xlink:href="#m4cc13c1b2a" y="24.127546"/>
      </g>
     </g>
     <g id="text_19">
      <!-- 2000 -->
      <g style="fill:#262626;" transform="translate(21.196719 26.027155)scale(0.05 -0.05)">
       <use xlink:href="#DejaVuSans-50"/>
       <use x="63.623047" xlink:href="#DejaVuSans-48"/>
       <use x="127.246094" xlink:href="#DejaVuSans-48"/>
       <use x="190.869141" xlink:href="#DejaVuSans-48"/>
      </g>
     </g>
    </g>
    <g id="text_20">
     <!-- Date -->
     <g style="fill:#262626;" transform="translate(11.759063 90.921375)rotate(-90)scale(0.06 -0.06)">
      <defs>
       <path d="M 18.3125 70.21875 
L 18.3125 54.6875 
L 36.8125 54.6875 
L 36.8125 47.703125 
L 18.3125 47.703125 
L 18.3125 18.015625 
Q 18.3125 11.328125 20.140625 9.421875 
Q 21.96875 7.515625 27.59375 7.515625 
L 36.8125 7.515625 
L 36.8125 0 
L 27.59375 0 
Q 17.1875 0 13.234375 3.875 
Q 9.28125 7.765625 9.28125 18.015625 
L 9.28125 47.703125 
L 2.6875 47.703125 
L 2.6875 54.6875 
L 9.28125 54.6875 
L 9.28125 70.21875 
z
" id="DejaVuSans-116"/>
      </defs>
      <use xlink:href="#DejaVuSans-68"/>
      <use x="77.001953" xlink:href="#DejaVuSans-97"/>
      <use x="138.28125" xlink:href="#DejaVuSans-116"/>
      <use x="177.490234" xlink:href="#DejaVuSans-101"/>
     </g>
    </g>
   </g>
   <g id="PolyCollection_1">
    <defs>
     <path d="M 53.415094 -34.776119 
L 52.777435 -34.776119 
L 52.687605 -34.859419 
L 52.577592 -34.942718 
L 52.444378 -35.026017 
L 52.284901 -35.109316 
L 52.096167 -35.192615 
L 51.875388 -35.275914 
L 51.620141 -35.359214 
L 51.328541 -35.442513 
L 50.999412 -35.525812 
L 50.632472 -35.609111 
L 50.228483 -35.69241 
L 49.789394 -35.77571 
L 49.318426 -35.859009 
L 48.82012 -35.942308 
L 48.300316 -36.025607 
L 47.766069 -36.108906 
L 47.225494 -36.192205 
L 46.68754 -36.275505 
L 46.161704 -36.358804 
L 45.657704 -36.442103 
L 45.185102 -36.525402 
L 44.752933 -36.608701 
L 44.369327 -36.692001 
L 44.041176 -36.7753 
L 43.773839 -36.858599 
L 43.570931 -36.941898 
L 43.43419 -37.025197 
L 43.363436 -37.108497 
L 43.356628 -37.191796 
L 43.410004 -37.275095 
L 43.51831 -37.358394 
L 43.675079 -37.441693 
L 43.872967 -37.524992 
L 44.1041 -37.608292 
L 44.360426 -37.691591 
L 44.63405 -37.77489 
L 44.917524 -37.858189 
L 45.204098 -37.941488 
L 45.487897 -38.024788 
L 45.764047 -38.108087 
L 46.028733 -38.191386 
L 46.279196 -38.274685 
L 46.513686 -38.357984 
L 46.731365 -38.441283 
L 46.932187 -38.524583 
L 47.116755 -38.607882 
L 47.286174 -38.691181 
L 47.441895 -38.77448 
L 47.585583 -38.857779 
L 47.718983 -38.941079 
L 47.843817 -39.024378 
L 47.961698 -39.107677 
L 48.074064 -39.190976 
L 48.182136 -39.274275 
L 48.286895 -39.357575 
L 48.38908 -39.440874 
L 48.489191 -39.524173 
L 48.587523 -39.607472 
L 48.684189 -39.690771 
L 48.779168 -39.77407 
L 48.872344 -39.85737 
L 48.963562 -39.940669 
L 49.052667 -40.023968 
L 49.139559 -40.107267 
L 49.224234 -40.190566 
L 49.306816 -40.273866 
L 49.387595 -40.357165 
L 49.467035 -40.440464 
L 49.54579 -40.523763 
L 49.624688 -40.607062 
L 49.70471 -40.690362 
L 49.786954 -40.773661 
L 49.872581 -40.85696 
L 49.962754 -40.940259 
L 50.058565 -41.023558 
L 50.160964 -41.106857 
L 50.270685 -41.190157 
L 50.388186 -41.273456 
L 50.513593 -41.356755 
L 50.646674 -41.440054 
L 50.786825 -41.523353 
L 50.93308 -41.606653 
L 51.084147 -41.689952 
L 51.238461 -41.773251 
L 51.394255 -41.85655 
L 51.549644 -41.939849 
L 51.702712 -42.023148 
L 51.851597 -42.106448 
L 51.994576 -42.189747 
L 52.130131 -42.273046 
L 52.257006 -42.356345 
L 52.374237 -42.439644 
L 52.481177 -42.522944 
L 52.577486 -42.606243 
L 52.663123 -42.689542 
L 52.738308 -42.772841 
L 52.803487 -42.85614 
L 52.859285 -42.93944 
L 52.906456 -43.022739 
L 53.286073 -43.022739 
L 53.286073 -43.022739 
L 53.333244 -42.93944 
L 53.389041 -42.85614 
L 53.45422 -42.772841 
L 53.529405 -42.689542 
L 53.615042 -42.606243 
L 53.711352 -42.522944 
L 53.818291 -42.439644 
L 53.935523 -42.356345 
L 54.062397 -42.273046 
L 54.197953 -42.189747 
L 54.340932 -42.106448 
L 54.489817 -42.023148 
L 54.642884 -41.939849 
L 54.798273 -41.85655 
L 54.954068 -41.773251 
L 55.108382 -41.689952 
L 55.259449 -41.606653 
L 55.405704 -41.523353 
L 55.545855 -41.440054 
L 55.678936 -41.356755 
L 55.804343 -41.273456 
L 55.921843 -41.190157 
L 56.031564 -41.106857 
L 56.133963 -41.023558 
L 56.229775 -40.940259 
L 56.319948 -40.85696 
L 56.405575 -40.773661 
L 56.487819 -40.690362 
L 56.567841 -40.607062 
L 56.646738 -40.523763 
L 56.725493 -40.440464 
L 56.804934 -40.357165 
L 56.885712 -40.273866 
L 56.968295 -40.190566 
L 57.052969 -40.107267 
L 57.139862 -40.023968 
L 57.228967 -39.940669 
L 57.320184 -39.85737 
L 57.413361 -39.77407 
L 57.508339 -39.690771 
L 57.605005 -39.607472 
L 57.703337 -39.524173 
L 57.803449 -39.440874 
L 57.905633 -39.357575 
L 58.010392 -39.274275 
L 58.118464 -39.190976 
L 58.23083 -39.107677 
L 58.348711 -39.024378 
L 58.473546 -38.941079 
L 58.606945 -38.857779 
L 58.750633 -38.77448 
L 58.906355 -38.691181 
L 59.075773 -38.607882 
L 59.260342 -38.524583 
L 59.461163 -38.441283 
L 59.678842 -38.357984 
L 59.913332 -38.274685 
L 60.163796 -38.191386 
L 60.428481 -38.108087 
L 60.704632 -38.024788 
L 60.98843 -37.941488 
L 61.275004 -37.858189 
L 61.558479 -37.77489 
L 61.832103 -37.691591 
L 62.088429 -37.608292 
L 62.319561 -37.524992 
L 62.517449 -37.441693 
L 62.674219 -37.358394 
L 62.782524 -37.275095 
L 62.835901 -37.191796 
L 62.829092 -37.108497 
L 62.758338 -37.025197 
L 62.621598 -36.941898 
L 62.41869 -36.858599 
L 62.151353 -36.7753 
L 61.823201 -36.692001 
L 61.439596 -36.608701 
L 61.007427 -36.525402 
L 60.534825 -36.442103 
L 60.030824 -36.358804 
L 59.504989 -36.275505 
L 58.967034 -36.192205 
L 58.426459 -36.108906 
L 57.892213 -36.025607 
L 57.372409 -35.942308 
L 56.874103 -35.859009 
L 56.403134 -35.77571 
L 55.964045 -35.69241 
L 55.560057 -35.609111 
L 55.193116 -35.525812 
L 54.863988 -35.442513 
L 54.572387 -35.359214 
L 54.317141 -35.275914 
L 54.096362 -35.192615 
L 53.907627 -35.109316 
L 53.74815 -35.026017 
L 53.614936 -34.942718 
L 53.504923 -34.859419 
L 53.415094 -34.776119 
z
" id="m1c1a90f0ed" style="stroke:#3f3f3f;stroke-width:0.5;"/>
    </defs>
    <g clip-path="url(#p75e0aaf5d5)">
     <use style="fill:#8000ff;stroke:#3f3f3f;stroke-width:0.5;" x="0" xlink:href="#m1c1a90f0ed" y="177.828844"/>
    </g>
   </g>
   <g id="PolyCollection_2">
    <defs>
     <path d="M 77.536478 -41.195398 
L 77.354232 -41.195398 
L 77.321624 -41.349161 
L 77.280056 -41.502923 
L 77.228038 -41.656686 
L 77.164132 -41.810448 
L 77.087049 -41.964211 
L 76.99576 -42.117973 
L 76.889603 -42.271736 
L 76.768381 -42.425498 
L 76.63244 -42.579261 
L 76.482721 -42.733023 
L 76.320768 -42.886786 
L 76.148696 -43.040548 
L 75.96912 -43.194311 
L 75.78504 -43.348073 
L 75.599703 -43.501835 
L 75.416442 -43.655598 
L 75.238518 -43.80936 
L 75.068961 -43.963123 
L 74.910439 -44.116885 
L 74.765156 -44.270648 
L 74.634779 -44.42441 
L 74.520403 -44.578173 
L 74.422553 -44.731935 
L 74.341207 -44.885698 
L 74.275851 -45.03946 
L 74.225539 -45.193223 
L 74.188977 -45.346985 
L 74.164594 -45.500748 
L 74.150629 -45.65451 
L 74.145192 -45.808273 
L 74.146331 -45.962035 
L 74.152077 -46.115798 
L 74.160472 -46.26956 
L 74.16958 -46.423323 
L 74.177478 -46.577085 
L 74.182226 -46.730848 
L 74.181823 -46.88461 
L 74.174152 -47.038372 
L 74.156908 -47.192135 
L 74.127549 -47.345897 
L 74.083239 -47.49966 
L 74.020836 -47.653422 
L 73.936902 -47.807185 
L 73.827776 -47.960947 
L 73.689691 -48.11471 
L 73.518968 -48.268472 
L 73.312259 -48.422235 
L 73.066858 -48.575997 
L 72.781044 -48.72976 
L 72.454442 -48.883522 
L 72.088378 -49.037285 
L 71.686173 -49.191047 
L 71.253356 -49.34481 
L 70.797751 -49.498572 
L 70.329402 -49.652335 
L 69.860324 -49.806097 
L 69.404065 -49.95986 
L 68.975103 -50.113622 
L 68.588109 -50.267385 
L 68.257109 -50.421147 
L 67.994642 -50.574909 
L 67.810963 -50.728672 
L 67.713368 -50.882434 
L 67.705719 -51.036197 
L 67.788206 -51.189959 
L 67.957379 -51.343722 
L 68.206438 -51.497484 
L 68.525778 -51.651247 
L 68.903704 -51.805009 
L 69.32728 -51.958772 
L 69.783198 -52.112534 
L 70.258616 -52.266297 
L 70.741868 -52.420059 
L 71.223007 -52.573822 
L 71.694134 -52.727584 
L 72.149512 -52.881347 
L 72.585471 -53.035109 
L 73.000151 -53.188872 
L 73.393119 -53.342634 
L 73.764927 -53.496397 
L 74.11667 -53.650159 
L 74.44958 -53.803922 
L 74.76472 -53.957684 
L 75.062774 -54.111446 
L 75.343956 -54.265209 
L 75.608024 -54.418971 
L 75.85438 -54.572734 
L 76.082222 -54.726496 
L 76.290726 -54.880259 
L 76.479216 -55.034021 
L 76.647311 -55.187784 
L 76.795025 -55.341546 
L 76.922814 -55.495309 
L 77.031569 -55.649071 
L 77.12257 -55.802834 
L 77.197403 -55.956596 
L 77.257857 -56.110359 
L 77.305823 -56.264121 
L 77.343195 -56.417884 
L 77.547516 -56.417884 
L 77.547516 -56.417884 
L 77.584887 -56.264121 
L 77.632854 -56.110359 
L 77.693308 -55.956596 
L 77.76814 -55.802834 
L 77.859141 -55.649071 
L 77.967896 -55.495309 
L 78.095685 -55.341546 
L 78.2434 -55.187784 
L 78.411495 -55.034021 
L 78.599984 -54.880259 
L 78.808488 -54.726496 
L 79.03633 -54.572734 
L 79.282686 -54.418971 
L 79.546754 -54.265209 
L 79.827936 -54.111446 
L 80.12599 -53.957684 
L 80.44113 -53.803922 
L 80.774041 -53.650159 
L 81.125783 -53.496397 
L 81.497591 -53.342634 
L 81.890559 -53.188872 
L 82.305239 -53.035109 
L 82.741198 -52.881347 
L 83.196576 -52.727584 
L 83.667703 -52.573822 
L 84.148843 -52.420059 
L 84.632095 -52.266297 
L 85.107512 -52.112534 
L 85.56343 -51.958772 
L 85.987006 -51.805009 
L 86.364933 -51.651247 
L 86.684272 -51.497484 
L 86.933331 -51.343722 
L 87.102504 -51.189959 
L 87.184991 -51.036197 
L 87.177343 -50.882434 
L 87.079747 -50.728672 
L 86.896068 -50.574909 
L 86.633601 -50.421147 
L 86.302601 -50.267385 
L 85.915607 -50.113622 
L 85.486646 -49.95986 
L 85.030386 -49.806097 
L 84.561308 -49.652335 
L 84.092959 -49.498572 
L 83.637355 -49.34481 
L 83.204538 -49.191047 
L 82.802332 -49.037285 
L 82.436268 -48.883522 
L 82.109666 -48.72976 
L 81.823852 -48.575997 
L 81.578451 -48.422235 
L 81.371742 -48.268472 
L 81.201019 -48.11471 
L 81.062934 -47.960947 
L 80.953808 -47.807185 
L 80.869874 -47.653422 
L 80.807471 -47.49966 
L 80.763161 -47.345897 
L 80.733802 -47.192135 
L 80.716559 -47.038372 
L 80.708887 -46.88461 
L 80.708485 -46.730848 
L 80.713233 -46.577085 
L 80.72113 -46.423323 
L 80.730238 -46.26956 
L 80.738633 -46.115798 
L 80.744379 -45.962035 
L 80.745519 -45.808273 
L 80.740082 -45.65451 
L 80.726116 -45.500748 
L 80.701734 -45.346985 
L 80.665171 -45.193223 
L 80.61486 -45.03946 
L 80.549503 -44.885698 
L 80.468157 -44.731935 
L 80.370307 -44.578173 
L 80.255932 -44.42441 
L 80.125554 -44.270648 
L 79.980271 -44.116885 
L 79.821749 -43.963123 
L 79.652192 -43.80936 
L 79.474268 -43.655598 
L 79.291008 -43.501835 
L 79.105671 -43.348073 
L 78.921591 -43.194311 
L 78.742014 -43.040548 
L 78.569943 -42.886786 
L 78.407989 -42.733023 
L 78.25827 -42.579261 
L 78.12233 -42.425498 
L 78.001107 -42.271736 
L 77.89495 -42.117973 
L 77.803662 -41.964211 
L 77.726579 -41.810448 
L 77.662672 -41.656686 
L 77.610654 -41.502923 
L 77.569086 -41.349161 
L 77.536478 -41.195398 
z
" id="m87c808fc77" style="stroke:#3f3f3f;stroke-width:0.5;"/>
    </defs>
    <g clip-path="url(#p75e0aaf5d5)">
     <use style="fill:#4c4ffc;stroke:#3f3f3f;stroke-width:0.5;" x="0" xlink:href="#m87c808fc77" y="177.828844"/>
    </g>
   </g>
   <g id="PolyCollection_3">
    <defs>
     <path d="M 102.045837 -111.969685 
L 101.543055 -111.969685 
L 101.47018 -112.026748 
L 101.380694 -112.083811 
L 101.272162 -112.140874 
L 101.142151 -112.197937 
L 100.988323 -112.255 
L 100.808556 -112.312063 
L 100.60106 -112.369126 
L 100.364505 -112.426189 
L 100.098144 -112.483252 
L 99.801915 -112.540315 
L 99.47653 -112.597378 
L 99.123529 -112.654441 
L 98.745298 -112.711503 
L 98.345043 -112.768566 
L 97.926725 -112.825629 
L 97.494949 -112.882692 
L 97.054815 -112.939755 
L 96.611739 -112.996818 
L 96.171258 -113.053881 
L 95.73882 -113.110944 
L 95.319583 -113.168007 
L 94.918231 -113.22507 
L 94.53882 -113.282133 
L 94.184654 -113.339196 
L 93.85822 -113.396259 
L 93.561156 -113.453322 
L 93.294273 -113.510385 
L 93.057619 -113.567447 
L 92.850575 -113.62451 
L 92.671982 -113.681573 
L 92.520277 -113.738636 
L 92.39364 -113.795699 
L 92.290125 -113.852762 
L 92.207786 -113.909825 
L 92.144766 -113.966888 
L 92.099367 -114.023951 
L 92.070082 -114.081014 
L 92.055606 -114.138077 
L 92.05481 -114.19514 
L 92.066697 -114.252203 
L 92.090349 -114.309266 
L 92.124858 -114.366328 
L 92.169265 -114.423391 
L 92.222501 -114.480454 
L 92.283346 -114.537517 
L 92.350396 -114.59458 
L 92.422067 -114.651643 
L 92.496596 -114.708706 
L 92.572083 -114.765769 
L 92.646537 -114.822832 
L 92.717942 -114.879895 
L 92.784334 -114.936958 
L 92.843882 -114.994021 
L 92.894981 -115.051084 
L 92.936331 -115.108147 
L 92.967024 -115.165209 
L 92.986617 -115.222272 
L 92.995193 -115.279335 
L 92.993409 -115.336398 
L 92.982526 -115.393461 
L 92.964416 -115.450524 
L 92.941555 -115.507587 
L 92.916977 -115.56465 
L 92.894225 -115.621713 
L 92.877255 -115.678776 
L 92.870339 -115.735839 
L 92.877929 -115.792902 
L 92.904517 -115.849965 
L 92.954473 -115.907028 
L 93.031876 -115.96409 
L 93.140346 -116.021153 
L 93.282878 -116.078216 
L 93.461688 -116.135279 
L 93.678081 -116.192342 
L 93.93235 -116.249405 
L 94.223711 -116.306468 
L 94.550278 -116.363531 
L 94.909089 -116.420594 
L 95.296186 -116.477657 
L 95.70673 -116.53472 
L 96.135174 -116.591783 
L 96.57546 -116.648846 
L 97.021251 -116.705909 
L 97.466162 -116.762971 
L 97.904005 -116.820034 
L 98.329002 -116.877097 
L 98.735989 -116.93416 
L 99.120561 -116.991223 
L 99.47919 -117.048286 
L 99.809283 -117.105349 
L 100.109197 -117.162412 
L 100.378203 -117.219475 
L 100.616414 -117.276538 
L 100.824683 -117.333601 
L 101.004473 -117.390664 
L 101.157728 -117.447727 
L 101.286723 -117.50479 
L 101.39394 -117.561852 
L 101.481943 -117.618915 
L 102.106949 -117.618915 
L 102.106949 -117.618915 
L 102.194952 -117.561852 
L 102.302169 -117.50479 
L 102.431165 -117.447727 
L 102.584419 -117.390664 
L 102.76421 -117.333601 
L 102.972478 -117.276538 
L 103.210689 -117.219475 
L 103.479695 -117.162412 
L 103.779609 -117.105349 
L 104.109703 -117.048286 
L 104.468331 -116.991223 
L 104.852903 -116.93416 
L 105.25989 -116.877097 
L 105.684887 -116.820034 
L 106.12273 -116.762971 
L 106.567641 -116.705909 
L 107.013432 -116.648846 
L 107.453718 -116.591783 
L 107.882162 -116.53472 
L 108.292706 -116.477657 
L 108.679803 -116.420594 
L 109.038614 -116.363531 
L 109.365181 -116.306468 
L 109.656542 -116.249405 
L 109.910811 -116.192342 
L 110.127204 -116.135279 
L 110.306014 -116.078216 
L 110.448546 -116.021153 
L 110.557016 -115.96409 
L 110.634419 -115.907028 
L 110.684375 -115.849965 
L 110.710963 -115.792902 
L 110.718553 -115.735839 
L 110.711637 -115.678776 
L 110.694667 -115.621713 
L 110.671915 -115.56465 
L 110.647337 -115.507587 
L 110.624476 -115.450524 
L 110.606366 -115.393461 
L 110.595483 -115.336398 
L 110.593699 -115.279335 
L 110.602275 -115.222272 
L 110.621868 -115.165209 
L 110.652561 -115.108147 
L 110.693911 -115.051084 
L 110.74501 -114.994021 
L 110.804558 -114.936958 
L 110.87095 -114.879895 
L 110.942355 -114.822832 
L 111.016809 -114.765769 
L 111.092296 -114.708706 
L 111.166825 -114.651643 
L 111.238496 -114.59458 
L 111.305547 -114.537517 
L 111.366391 -114.480454 
L 111.419627 -114.423391 
L 111.464034 -114.366328 
L 111.498543 -114.309266 
L 111.522195 -114.252203 
L 111.534082 -114.19514 
L 111.533286 -114.138077 
L 111.51881 -114.081014 
L 111.489525 -114.023951 
L 111.444126 -113.966888 
L 111.381106 -113.909825 
L 111.298767 -113.852762 
L 111.195253 -113.795699 
L 111.068615 -113.738636 
L 110.91691 -113.681573 
L 110.738317 -113.62451 
L 110.531273 -113.567447 
L 110.294619 -113.510385 
L 110.027736 -113.453322 
L 109.730672 -113.396259 
L 109.404238 -113.339196 
L 109.050073 -113.282133 
L 108.670661 -113.22507 
L 108.269309 -113.168007 
L 107.850072 -113.110944 
L 107.417634 -113.053881 
L 106.977153 -112.996818 
L 106.534077 -112.939755 
L 106.093943 -112.882692 
L 105.662167 -112.825629 
L 105.243849 -112.768566 
L 104.843594 -112.711503 
L 104.465363 -112.654441 
L 104.112362 -112.597378 
L 103.786977 -112.540315 
L 103.490748 -112.483252 
L 103.224387 -112.426189 
L 102.987832 -112.369126 
L 102.780336 -112.312063 
L 102.600569 -112.255 
L 102.446741 -112.197937 
L 102.31673 -112.140874 
L 102.208198 -112.083811 
L 102.118712 -112.026748 
L 102.045837 -111.969685 
z
" id="mf9f6c4666a" style="stroke:#3f3f3f;stroke-width:0.5;"/>
    </defs>
    <g clip-path="url(#p75e0aaf5d5)">
     <use style="fill:#1996f3;stroke:#3f3f3f;stroke-width:0.5;" x="0" xlink:href="#mf9f6c4666a" y="177.828844"/>
    </g>
   </g>
   <g id="PolyCollection_4">
    <defs>
     <path d="M 126.239621 -145.695641 
L 126.047453 -145.695641 
L 126.016835 -145.764527 
L 125.978905 -145.833414 
L 125.93271 -145.9023 
L 125.877404 -145.971186 
L 125.812308 -146.040072 
L 125.73698 -146.108959 
L 125.651275 -146.177845 
L 125.555389 -146.246731 
L 125.449888 -146.315618 
L 125.335701 -146.384504 
L 125.214095 -146.45339 
L 125.086618 -146.522277 
L 124.95501 -146.591163 
L 124.821103 -146.660049 
L 124.686709 -146.728935 
L 124.553506 -146.797822 
L 124.422939 -146.866708 
L 124.29614 -146.935594 
L 124.173879 -147.004481 
L 124.056544 -147.073367 
L 123.944158 -147.142253 
L 123.836422 -147.211139 
L 123.73278 -147.280026 
L 123.632495 -147.348912 
L 123.534729 -147.417798 
L 123.43862 -147.486685 
L 123.343343 -147.555571 
L 123.248154 -147.624457 
L 123.152418 -147.693343 
L 123.05562 -147.76223 
L 122.957367 -147.831116 
L 122.857373 -147.900002 
L 122.755456 -147.968889 
L 122.651528 -148.037775 
L 122.545587 -148.106661 
L 122.437725 -148.175548 
L 122.328127 -148.244434 
L 122.217079 -148.31332 
L 122.104969 -148.382206 
L 121.992281 -148.451093 
L 121.879577 -148.519979 
L 121.767468 -148.588865 
L 121.65657 -148.657752 
L 121.547449 -148.726638 
L 121.440554 -148.795524 
L 121.336154 -148.86441 
L 121.234264 -148.933297 
L 121.134595 -149.002183 
L 121.036499 -149.071069 
L 120.938949 -149.139956 
L 120.84053 -149.208842 
L 120.739463 -149.277728 
L 120.633643 -149.346614 
L 120.520717 -149.415501 
L 120.398177 -149.484387 
L 120.263477 -149.553273 
L 120.114169 -149.62216 
L 119.948063 -149.691046 
L 119.763384 -149.759932 
L 119.558955 -149.828819 
L 119.334368 -149.897705 
L 119.090153 -149.966591 
L 118.827931 -150.035477 
L 118.550539 -150.104364 
L 118.262111 -150.17325 
L 117.968107 -150.242136 
L 117.675273 -150.311023 
L 117.391528 -150.379909 
L 117.125761 -150.448795 
L 116.887546 -150.517681 
L 116.686788 -150.586568 
L 116.533285 -150.655454 
L 116.436268 -150.72434 
L 116.403901 -150.793227 
L 116.442807 -150.862113 
L 116.557638 -150.930999 
L 116.750716 -150.999885 
L 117.02179 -151.068772 
L 117.367928 -151.137658 
L 117.78355 -151.206544 
L 118.260625 -151.275431 
L 118.789006 -151.344317 
L 119.356897 -151.413203 
L 119.951415 -151.48209 
L 120.559216 -151.550976 
L 121.167121 -151.619862 
L 121.762722 -151.688748 
L 122.334912 -151.757635 
L 122.874301 -151.826521 
L 123.373501 -151.895407 
L 123.827276 -151.964294 
L 124.232539 -152.03318 
L 124.588226 -152.102066 
L 124.89507 -152.170952 
L 125.155294 -152.239839 
L 125.372269 -152.308725 
L 125.550153 -152.377611 
L 125.693557 -152.446498 
L 125.807243 -152.515384 
L 126.479831 -152.515384 
L 126.479831 -152.515384 
L 126.593517 -152.446498 
L 126.736921 -152.377611 
L 126.914805 -152.308725 
L 127.131779 -152.239839 
L 127.392004 -152.170952 
L 127.698848 -152.102066 
L 128.054535 -152.03318 
L 128.459798 -151.964294 
L 128.913573 -151.895407 
L 129.412773 -151.826521 
L 129.952162 -151.757635 
L 130.524352 -151.688748 
L 131.119953 -151.619862 
L 131.727858 -151.550976 
L 132.335658 -151.48209 
L 132.930177 -151.413203 
L 133.498068 -151.344317 
L 134.026448 -151.275431 
L 134.503524 -151.206544 
L 134.919146 -151.137658 
L 135.265284 -151.068772 
L 135.536358 -150.999885 
L 135.729436 -150.930999 
L 135.844267 -150.862113 
L 135.883173 -150.793227 
L 135.850806 -150.72434 
L 135.753789 -150.655454 
L 135.600286 -150.586568 
L 135.399528 -150.517681 
L 135.161313 -150.448795 
L 134.895546 -150.379909 
L 134.611801 -150.311023 
L 134.318967 -150.242136 
L 134.024963 -150.17325 
L 133.736534 -150.104364 
L 133.459143 -150.035477 
L 133.196921 -149.966591 
L 132.952706 -149.897705 
L 132.728119 -149.828819 
L 132.52369 -149.759932 
L 132.339011 -149.691046 
L 132.172904 -149.62216 
L 132.023597 -149.553273 
L 131.888897 -149.484387 
L 131.766357 -149.415501 
L 131.653431 -149.346614 
L 131.547611 -149.277728 
L 131.446543 -149.208842 
L 131.348125 -149.139956 
L 131.250575 -149.071069 
L 131.152479 -149.002183 
L 131.052809 -148.933297 
L 130.95092 -148.86441 
L 130.84652 -148.795524 
L 130.739625 -148.726638 
L 130.630504 -148.657752 
L 130.519606 -148.588865 
L 130.407497 -148.519979 
L 130.294793 -148.451093 
L 130.182104 -148.382206 
L 130.069994 -148.31332 
L 129.958947 -148.244434 
L 129.849349 -148.175548 
L 129.741487 -148.106661 
L 129.635546 -148.037775 
L 129.531618 -147.968889 
L 129.429701 -147.900002 
L 129.329707 -147.831116 
L 129.231454 -147.76223 
L 129.134656 -147.693343 
L 129.03892 -147.624457 
L 128.943731 -147.555571 
L 128.848454 -147.486685 
L 128.752345 -147.417798 
L 128.654579 -147.348912 
L 128.554293 -147.280026 
L 128.450651 -147.211139 
L 128.342916 -147.142253 
L 128.23053 -147.073367 
L 128.113195 -147.004481 
L 127.990933 -146.935594 
L 127.864134 -146.866708 
L 127.733568 -146.797822 
L 127.600365 -146.728935 
L 127.465971 -146.660049 
L 127.332064 -146.591163 
L 127.200456 -146.522277 
L 127.072979 -146.45339 
L 126.951373 -146.384504 
L 126.837186 -146.315618 
L 126.731684 -146.246731 
L 126.635799 -146.177845 
L 126.550094 -146.108959 
L 126.474766 -146.040072 
L 126.40967 -145.971186 
L 126.354364 -145.9023 
L 126.308169 -145.833414 
L 126.270238 -145.764527 
L 126.239621 -145.695641 
z
" id="m16dcb18081" style="stroke:#3f3f3f;stroke-width:0.5;"/>
    </defs>
    <g clip-path="url(#p75e0aaf5d5)">
     <use style="fill:#1acee3;stroke:#3f3f3f;stroke-width:0.5;" x="0" xlink:href="#m16dcb18081" y="177.828844"/>
    </g>
   </g>
   <g id="PolyCollection_5">
    <defs>
     <path d="M 150.67153 -145.089369 
L 150.313725 -145.089369 
L 150.258349 -145.168388 
L 150.189568 -145.247407 
L 150.105329 -145.326427 
L 150.003596 -145.405446 
L 149.882457 -145.484465 
L 149.740232 -145.563485 
L 149.575605 -145.642504 
L 149.387746 -145.721523 
L 149.176429 -145.800543 
L 148.942133 -145.879562 
L 148.686117 -145.958581 
L 148.410451 -146.037601 
L 148.118007 -146.11662 
L 147.812403 -146.195639 
L 147.49789 -146.274659 
L 147.1792 -146.353678 
L 146.861345 -146.432697 
L 146.549399 -146.511717 
L 146.248256 -146.590736 
L 145.9624 -146.669755 
L 145.695688 -146.748775 
L 145.451173 -146.827794 
L 145.230976 -146.906813 
L 145.036216 -146.985833 
L 144.867006 -147.064852 
L 144.722513 -147.143871 
L 144.601069 -147.222891 
L 144.500341 -147.30191 
L 144.417519 -147.380929 
L 144.34953 -147.459949 
L 144.293245 -147.538968 
L 144.245661 -147.617987 
L 144.20406 -147.697007 
L 144.166111 -147.776026 
L 144.129936 -147.855045 
L 144.094116 -147.934065 
L 144.05766 -148.013084 
L 144.019931 -148.092103 
L 143.98056 -148.171123 
L 143.939338 -148.250142 
L 143.89612 -148.329161 
L 143.850741 -148.408181 
L 143.802954 -148.4872 
L 143.752395 -148.566219 
L 143.698581 -148.645239 
L 143.64093 -148.724258 
L 143.5788 -148.803277 
L 143.51154 -148.882297 
L 143.438545 -148.961316 
L 143.359302 -149.040335 
L 143.273426 -149.119354 
L 143.180675 -149.198374 
L 143.080949 -149.277393 
L 142.974277 -149.356412 
L 142.86079 -149.435432 
L 142.740687 -149.514451 
L 142.614219 -149.59347 
L 142.481678 -149.67249 
L 142.34341 -149.751509 
L 142.199857 -149.830528 
L 142.051628 -149.909548 
L 141.899591 -149.988567 
L 141.744992 -150.067586 
L 141.589577 -150.146606 
L 141.435708 -150.225625 
L 141.286461 -150.304644 
L 141.145689 -150.383664 
L 141.018019 -150.462683 
L 140.908806 -150.541702 
L 140.823992 -150.620722 
L 140.769906 -150.699741 
L 140.752991 -150.77876 
L 140.779477 -150.85778 
L 140.855013 -150.936799 
L 140.984294 -151.015818 
L 141.170706 -151.094838 
L 141.416012 -151.173857 
L 141.720121 -151.252876 
L 142.080953 -151.331896 
L 142.494421 -151.410915 
L 142.954537 -151.489934 
L 143.453632 -151.568954 
L 143.982693 -151.647973 
L 144.531769 -151.726992 
L 145.090442 -151.806012 
L 145.648308 -151.885031 
L 146.195448 -151.96405 
L 146.722841 -152.04307 
L 147.222712 -152.122089 
L 147.688775 -152.201108 
L 148.116374 -152.280128 
L 148.502521 -152.359147 
L 148.845837 -152.438166 
L 149.146401 -152.517186 
L 149.405553 -152.596205 
L 149.625646 -152.675224 
L 149.809781 -152.754244 
L 149.961553 -152.833263 
L 150.08481 -152.912282 
L 150.900446 -152.912282 
L 150.900446 -152.912282 
L 151.023703 -152.833263 
L 151.175475 -152.754244 
L 151.35961 -152.675224 
L 151.579702 -152.596205 
L 151.838855 -152.517186 
L 152.139419 -152.438166 
L 152.482734 -152.359147 
L 152.868882 -152.280128 
L 153.296481 -152.201108 
L 153.762544 -152.122089 
L 154.262415 -152.04307 
L 154.789808 -151.96405 
L 155.336947 -151.885031 
L 155.894814 -151.806012 
L 156.453487 -151.726992 
L 157.002563 -151.647973 
L 157.531623 -151.568954 
L 158.030719 -151.489934 
L 158.490834 -151.410915 
L 158.904303 -151.331896 
L 159.265134 -151.252876 
L 159.569243 -151.173857 
L 159.814549 -151.094838 
L 160.000961 -151.015818 
L 160.130243 -150.936799 
L 160.205779 -150.85778 
L 160.232264 -150.77876 
L 160.21535 -150.699741 
L 160.161264 -150.620722 
L 160.076449 -150.541702 
L 159.967236 -150.462683 
L 159.839567 -150.383664 
L 159.698794 -150.304644 
L 159.549548 -150.225625 
L 159.395679 -150.146606 
L 159.240264 -150.067586 
L 159.085665 -149.988567 
L 158.933628 -149.909548 
L 158.785398 -149.830528 
L 158.641846 -149.751509 
L 158.503578 -149.67249 
L 158.371037 -149.59347 
L 158.244569 -149.514451 
L 158.124466 -149.435432 
L 158.010978 -149.356412 
L 157.904307 -149.277393 
L 157.804581 -149.198374 
L 157.71183 -149.119354 
L 157.625954 -149.040335 
L 157.546711 -148.961316 
L 157.473716 -148.882297 
L 157.406456 -148.803277 
L 157.344325 -148.724258 
L 157.286674 -148.645239 
L 157.232861 -148.566219 
L 157.182302 -148.4872 
L 157.134514 -148.408181 
L 157.089136 -148.329161 
L 157.045918 -148.250142 
L 157.004696 -148.171123 
L 156.965324 -148.092103 
L 156.927596 -148.013084 
L 156.891139 -147.934065 
L 156.85532 -147.855045 
L 156.819145 -147.776026 
L 156.781196 -147.697007 
L 156.739594 -147.617987 
L 156.692011 -147.538968 
L 156.635725 -147.459949 
L 156.567737 -147.380929 
L 156.484915 -147.30191 
L 156.384186 -147.222891 
L 156.262743 -147.143871 
L 156.118249 -147.064852 
L 155.94904 -146.985833 
L 155.75428 -146.906813 
L 155.534083 -146.827794 
L 155.289568 -146.748775 
L 155.022856 -146.669755 
L 154.737 -146.590736 
L 154.435857 -146.511717 
L 154.123911 -146.432697 
L 153.806056 -146.353678 
L 153.487366 -146.274659 
L 153.172853 -146.195639 
L 152.867249 -146.11662 
L 152.574805 -146.037601 
L 152.299138 -145.958581 
L 152.043122 -145.879562 
L 151.808827 -145.800543 
L 151.59751 -145.721523 
L 151.409651 -145.642504 
L 151.245024 -145.563485 
L 151.102799 -145.484465 
L 150.981659 -145.405446 
L 150.879927 -145.326427 
L 150.795687 -145.247407 
L 150.726907 -145.168388 
L 150.67153 -145.089369 
z
" id="m1150c691ee" style="stroke:#3f3f3f;stroke-width:0.5;"/>
    </defs>
    <g clip-path="url(#p75e0aaf5d5)">
     <use style="fill:#4df3ce;stroke:#3f3f3f;stroke-width:0.5;" x="0" xlink:href="#m1150c691ee" y="177.828844"/>
    </g>
   </g>
   <g id="PolyCollection_6">
    <defs>
     <path d="M 174.914898 -146.599492 
L 174.76854 -146.599492 
L 174.743811 -146.651655 
L 174.712772 -146.703819 
L 174.67451 -146.755982 
L 174.62819 -146.808146 
L 174.573119 -146.860309 
L 174.508811 -146.912472 
L 174.435052 -146.964636 
L 174.351952 -147.016799 
L 174.259979 -147.068962 
L 174.159966 -147.121126 
L 174.053099 -147.173289 
L 173.940867 -147.225453 
L 173.82499 -147.277616 
L 173.707319 -147.329779 
L 173.589732 -147.381943 
L 173.474011 -147.434106 
L 173.361729 -147.48627 
L 173.254156 -147.538433 
L 173.152177 -147.590596 
L 173.056244 -147.64276 
L 172.966366 -147.694923 
L 172.882114 -147.747086 
L 172.802675 -147.79925 
L 172.726915 -147.851413 
L 172.653465 -147.903577 
L 172.580816 -147.95574 
L 172.507414 -148.007903 
L 172.431749 -148.060067 
L 172.352438 -148.11223 
L 172.268288 -148.164393 
L 172.178355 -148.216557 
L 172.081978 -148.26872 
L 171.978816 -148.320884 
L 171.868863 -148.373047 
L 171.75246 -148.42521 
L 171.6303 -148.477374 
L 171.503418 -148.529537 
L 171.373176 -148.581701 
L 171.241218 -148.633864 
L 171.109422 -148.686027 
L 170.97981 -148.738191 
L 170.854451 -148.790354 
L 170.735327 -148.842517 
L 170.624186 -148.894681 
L 170.522388 -148.946844 
L 170.430747 -148.999008 
L 170.349389 -149.051171 
L 170.277633 -149.103334 
L 170.213923 -149.155498 
L 170.155805 -149.207661 
L 170.099971 -149.259824 
L 170.042369 -149.311988 
L 169.978376 -149.364151 
L 169.903031 -149.416315 
L 169.811318 -149.468478 
L 169.698465 -149.520641 
L 169.560264 -149.572805 
L 169.39337 -149.624968 
L 169.195565 -149.677132 
L 168.965971 -149.729295 
L 168.705192 -149.781458 
L 168.415379 -149.833622 
L 168.10023 -149.885785 
L 167.764903 -149.937948 
L 167.415879 -149.990112 
L 167.060776 -150.042275 
L 166.708124 -150.094439 
L 166.367131 -150.146602 
L 166.04743 -150.198765 
L 165.758821 -150.250929 
L 165.511008 -150.303092 
L 165.313328 -150.355255 
L 165.174452 -150.407419 
L 165.102082 -150.459582 
L 165.102616 -150.511746 
L 165.180813 -150.563909 
L 165.339465 -150.616072 
L 165.579113 -150.668236 
L 165.897829 -150.720399 
L 166.291106 -150.772563 
L 166.751887 -150.824726 
L 167.270746 -150.876889 
L 167.836233 -150.929053 
L 168.435364 -150.981216 
L 169.054233 -151.033379 
L 169.678694 -151.085543 
L 170.295055 -151.137706 
L 170.89074 -151.18987 
L 171.454848 -151.242033 
L 171.978572 -151.294196 
L 172.455457 -151.34636 
L 172.881477 -151.398523 
L 173.254945 -151.450686 
L 173.576287 -151.50285 
L 173.847703 -151.555013 
L 174.072769 -151.607177 
L 174.256013 -151.65934 
L 174.402511 -151.711503 
L 174.517523 -151.763667 
L 175.165914 -151.763667 
L 175.165914 -151.763667 
L 175.280927 -151.711503 
L 175.427425 -151.65934 
L 175.610669 -151.607177 
L 175.835734 -151.555013 
L 176.10715 -151.50285 
L 176.428492 -151.450686 
L 176.801961 -151.398523 
L 177.22798 -151.34636 
L 177.704865 -151.294196 
L 178.22859 -151.242033 
L 178.792697 -151.18987 
L 179.388382 -151.137706 
L 180.004743 -151.085543 
L 180.629204 -151.033379 
L 181.248074 -150.981216 
L 181.847205 -150.929053 
L 182.412692 -150.876889 
L 182.931551 -150.824726 
L 183.392332 -150.772563 
L 183.785609 -150.720399 
L 184.104324 -150.668236 
L 184.343973 -150.616072 
L 184.502625 -150.563909 
L 184.580821 -150.511746 
L 184.581355 -150.459582 
L 184.508985 -150.407419 
L 184.37011 -150.355255 
L 184.172429 -150.303092 
L 183.924617 -150.250929 
L 183.636008 -150.198765 
L 183.316306 -150.146602 
L 182.975314 -150.094439 
L 182.622662 -150.042275 
L 182.267558 -149.990112 
L 181.918534 -149.937948 
L 181.583207 -149.885785 
L 181.268058 -149.833622 
L 180.978246 -149.781458 
L 180.717466 -149.729295 
L 180.487872 -149.677132 
L 180.290068 -149.624968 
L 180.123174 -149.572805 
L 179.984973 -149.520641 
L 179.87212 -149.468478 
L 179.780406 -149.416315 
L 179.705062 -149.364151 
L 179.641069 -149.311988 
L 179.583467 -149.259824 
L 179.527633 -149.207661 
L 179.469515 -149.155498 
L 179.405805 -149.103334 
L 179.334049 -149.051171 
L 179.25269 -148.999008 
L 179.16105 -148.946844 
L 179.059252 -148.894681 
L 178.948111 -148.842517 
L 178.828986 -148.790354 
L 178.703627 -148.738191 
L 178.574016 -148.686027 
L 178.442219 -148.633864 
L 178.310262 -148.581701 
L 178.180019 -148.529537 
L 178.053138 -148.477374 
L 177.930977 -148.42521 
L 177.814575 -148.373047 
L 177.704621 -148.320884 
L 177.601459 -148.26872 
L 177.505083 -148.216557 
L 177.415149 -148.164393 
L 177.330999 -148.11223 
L 177.251688 -148.060067 
L 177.176024 -148.007903 
L 177.102622 -147.95574 
L 177.029973 -147.903577 
L 176.956523 -147.851413 
L 176.880762 -147.79925 
L 176.801323 -147.747086 
L 176.717072 -147.694923 
L 176.627193 -147.64276 
L 176.531261 -147.590596 
L 176.429281 -147.538433 
L 176.321708 -147.48627 
L 176.209427 -147.434106 
L 176.093705 -147.381943 
L 175.976118 -147.329779 
L 175.858448 -147.277616 
L 175.74257 -147.225453 
L 175.630338 -147.173289 
L 175.523472 -147.121126 
L 175.423459 -147.068962 
L 175.331485 -147.016799 
L 175.248385 -146.964636 
L 175.174626 -146.912472 
L 175.110318 -146.860309 
L 175.055247 -146.808146 
L 175.008927 -146.755982 
L 174.970666 -146.703819 
L 174.939626 -146.651655 
L 174.914898 -146.599492 
z
" id="m5d904628c9" style="stroke:#3f3f3f;stroke-width:0.5;"/>
    </defs>
    <g clip-path="url(#p75e0aaf5d5)">
     <use style="fill:#80ffb4;stroke:#3f3f3f;stroke-width:0.5;" x="0" xlink:href="#m5d904628c9" y="177.828844"/>
    </g>
   </g>
   <g id="PolyCollection_7">
    <defs>
     <path d="M 199.536073 -142.626069 
L 198.845546 -142.626069 
L 198.746171 -142.683866 
L 198.625023 -142.741663 
L 198.479392 -142.799459 
L 198.306793 -142.857256 
L 198.105126 -142.915052 
L 197.872859 -142.972849 
L 197.609203 -143.030645 
L 197.314275 -143.088442 
L 196.989234 -143.146239 
L 196.636365 -143.204035 
L 196.259118 -143.261832 
L 195.862073 -143.319628 
L 195.450833 -143.377425 
L 195.031852 -143.435221 
L 194.612191 -143.493018 
L 194.19923 -143.550815 
L 193.80034 -143.608611 
L 193.422546 -143.666408 
L 193.0722 -143.724204 
L 192.754687 -143.782001 
L 192.474184 -143.839798 
L 192.233492 -143.897594 
L 192.033943 -143.955391 
L 191.875388 -144.013187 
L 191.756272 -144.070984 
L 191.673765 -144.12878 
L 191.623958 -144.186577 
L 191.602091 -144.244374 
L 191.60281 -144.30217 
L 191.620416 -144.359967 
L 191.649115 -144.417763 
L 191.683243 -144.47556 
L 191.717462 -144.533357 
L 191.746928 -144.591153 
L 191.767418 -144.64895 
L 191.775438 -144.706746 
L 191.76828 -144.764543 
L 191.744073 -144.822339 
L 191.701787 -144.880136 
L 191.641218 -144.937933 
L 191.562946 -144.995729 
L 191.468266 -145.053526 
L 191.359092 -145.111322 
L 191.237837 -145.169119 
L 191.107276 -145.226916 
L 190.9704 -145.284712 
L 190.830251 -145.342509 
L 190.689776 -145.400305 
L 190.551686 -145.458102 
L 190.418344 -145.515898 
L 190.291671 -145.573695 
L 190.173109 -145.631492 
L 190.063602 -145.689288 
L 189.963634 -145.747085 
L 189.87329 -145.804881 
L 189.792351 -145.862678 
L 189.720409 -145.920474 
L 189.656993 -145.978271 
L 189.6017 -146.036068 
L 189.55431 -146.093864 
L 189.514896 -146.151661 
L 189.483904 -146.209457 
L 189.462215 -146.267254 
L 189.451173 -146.325051 
L 189.452586 -146.382847 
L 189.468696 -146.440644 
L 189.50212 -146.49844 
L 189.555762 -146.556237 
L 189.632702 -146.614033 
L 189.736057 -146.67183 
L 189.868827 -146.729627 
L 190.03372 -146.787423 
L 190.232984 -146.84522 
L 190.468228 -146.903016 
L 190.740262 -146.960813 
L 191.048968 -147.01861 
L 191.393194 -147.076406 
L 191.770707 -147.134203 
L 192.178194 -147.191999 
L 192.611323 -147.249796 
L 193.064862 -147.307592 
L 193.532855 -147.365389 
L 194.00884 -147.423186 
L 194.486103 -147.480982 
L 194.957943 -147.538779 
L 195.417939 -147.596575 
L 195.860199 -147.654372 
L 196.279566 -147.712168 
L 196.671789 -147.769965 
L 197.033627 -147.827762 
L 197.362899 -147.885558 
L 197.658478 -147.943355 
L 197.920222 -148.001151 
L 198.148876 -148.058948 
L 198.345932 -148.116745 
L 198.51347 -148.174541 
L 198.653998 -148.232338 
L 198.770287 -148.290134 
L 198.865227 -148.347931 
L 199.516393 -148.347931 
L 199.516393 -148.347931 
L 199.611332 -148.290134 
L 199.727621 -148.232338 
L 199.868149 -148.174541 
L 200.035688 -148.116745 
L 200.232743 -148.058948 
L 200.461398 -148.001151 
L 200.723142 -147.943355 
L 201.01872 -147.885558 
L 201.347992 -147.827762 
L 201.70983 -147.769965 
L 202.102053 -147.712168 
L 202.521421 -147.654372 
L 202.96368 -147.596575 
L 203.423676 -147.538779 
L 203.895516 -147.480982 
L 204.372779 -147.423186 
L 204.848764 -147.365389 
L 205.316757 -147.307592 
L 205.770296 -147.249796 
L 206.203425 -147.191999 
L 206.610912 -147.134203 
L 206.988426 -147.076406 
L 207.332651 -147.01861 
L 207.641357 -146.960813 
L 207.913392 -146.903016 
L 208.148635 -146.84522 
L 208.347899 -146.787423 
L 208.512793 -146.729627 
L 208.645562 -146.67183 
L 208.748917 -146.614033 
L 208.825858 -146.556237 
L 208.8795 -146.49844 
L 208.912923 -146.440644 
L 208.929033 -146.382847 
L 208.930446 -146.325051 
L 208.919404 -146.267254 
L 208.897716 -146.209457 
L 208.866724 -146.151661 
L 208.827309 -146.093864 
L 208.779919 -146.036068 
L 208.724626 -145.978271 
L 208.661211 -145.920474 
L 208.589268 -145.862678 
L 208.508329 -145.804881 
L 208.417985 -145.747085 
L 208.318017 -145.689288 
L 208.208511 -145.631492 
L 208.089948 -145.573695 
L 207.963276 -145.515898 
L 207.829933 -145.458102 
L 207.691844 -145.400305 
L 207.551369 -145.342509 
L 207.411219 -145.284712 
L 207.274343 -145.226916 
L 207.143783 -145.169119 
L 207.022527 -145.111322 
L 206.913353 -145.053526 
L 206.818673 -144.995729 
L 206.740401 -144.937933 
L 206.679832 -144.880136 
L 206.637546 -144.822339 
L 206.613339 -144.764543 
L 206.606182 -144.706746 
L 206.614201 -144.64895 
L 206.634692 -144.591153 
L 206.664157 -144.533357 
L 206.698377 -144.47556 
L 206.732504 -144.417763 
L 206.761203 -144.359967 
L 206.778809 -144.30217 
L 206.779528 -144.244374 
L 206.757662 -144.186577 
L 206.707854 -144.12878 
L 206.625347 -144.070984 
L 206.506231 -144.013187 
L 206.347677 -143.955391 
L 206.148127 -143.897594 
L 205.907435 -143.839798 
L 205.626932 -143.782001 
L 205.309419 -143.724204 
L 204.959073 -143.666408 
L 204.58128 -143.608611 
L 204.18239 -143.550815 
L 203.769429 -143.493018 
L 203.349768 -143.435221 
L 202.930786 -143.377425 
L 202.519547 -143.319628 
L 202.122501 -143.261832 
L 201.745255 -143.204035 
L 201.392386 -143.146239 
L 201.067344 -143.088442 
L 200.772417 -143.030645 
L 200.508761 -142.972849 
L 200.276493 -142.915052 
L 200.074826 -142.857256 
L 199.902227 -142.799459 
L 199.756597 -142.741663 
L 199.635448 -142.683866 
L 199.536073 -142.626069 
z
" id="m925d96daab" style="stroke:#3f3f3f;stroke-width:0.5;"/>
    </defs>
    <g clip-path="url(#p75e0aaf5d5)">
     <use style="fill:#b3f396;stroke:#3f3f3f;stroke-width:0.5;" x="0" xlink:href="#m925d96daab" y="177.828844"/>
    </g>
   </g>
   <g id="PolyCollection_8">
    <defs>
     <path d="M 223.706521 -140.120724 
L 223.37328 -140.120724 
L 223.321665 -140.129885 
L 223.257663 -140.139046 
L 223.179439 -140.148206 
L 223.085204 -140.157367 
L 222.973307 -140.166528 
L 222.842335 -140.175689 
L 222.691223 -140.18485 
L 222.519358 -140.194011 
L 222.326665 -140.203171 
L 222.113683 -140.212332 
L 221.881604 -140.221493 
L 221.632277 -140.230654 
L 221.368179 -140.239815 
L 221.092336 -140.248976 
L 220.808217 -140.258136 
L 220.519589 -140.267297 
L 220.230349 -140.276458 
L 219.944354 -140.285619 
L 219.665238 -140.29478 
L 219.396256 -140.303941 
L 219.140141 -140.313102 
L 218.899005 -140.322262 
L 218.674272 -140.331423 
L 218.46666 -140.340584 
L 218.276195 -140.349745 
L 218.10227 -140.358906 
L 217.943734 -140.368067 
L 217.79899 -140.377227 
L 217.66612 -140.386388 
L 217.543005 -140.395549 
L 217.427436 -140.40471 
L 217.317219 -140.413871 
L 217.210265 -140.423032 
L 217.104654 -140.432193 
L 216.998688 -140.441353 
L 216.890919 -140.450514 
L 216.780174 -140.459675 
L 216.66555 -140.468836 
L 216.54642 -140.477997 
L 216.422411 -140.487158 
L 216.293399 -140.496318 
L 216.159482 -140.505479 
L 216.020967 -140.51464 
L 215.878345 -140.523801 
L 215.732272 -140.532962 
L 215.583552 -140.542123 
L 215.433112 -140.551283 
L 215.281984 -140.560444 
L 215.131292 -140.569605 
L 214.982234 -140.578766 
L 214.836069 -140.587927 
L 214.694104 -140.597088 
L 214.557687 -140.606249 
L 214.428193 -140.615409 
L 214.307017 -140.62457 
L 214.195558 -140.633731 
L 214.095212 -140.642892 
L 214.00735 -140.652053 
L 213.93331 -140.661214 
L 213.874382 -140.670374 
L 213.831796 -140.679535 
L 213.80672 -140.688696 
L 213.800264 -140.697857 
L 213.81349 -140.707018 
L 213.847427 -140.716179 
L 213.903098 -140.725339 
L 213.981538 -140.7345 
L 214.083811 -140.743661 
L 214.211015 -140.752822 
L 214.364268 -140.761983 
L 214.544667 -140.771144 
L 214.753226 -140.780305 
L 214.99078 -140.789465 
L 215.257875 -140.798626 
L 215.554634 -140.807787 
L 215.880623 -140.816948 
L 216.234731 -140.826109 
L 216.615068 -140.83527 
L 217.018903 -140.84443 
L 217.442658 -140.853591 
L 217.881954 -140.862752 
L 218.331717 -140.871913 
L 218.786347 -140.881074 
L 219.239925 -140.890235 
L 219.686455 -140.899396 
L 220.120118 -140.908556 
L 220.535525 -140.917717 
L 220.927932 -140.926878 
L 221.293428 -140.936039 
L 221.629053 -140.9452 
L 221.932868 -140.954361 
L 222.203958 -140.963521 
L 222.442373 -140.972682 
L 222.649026 -140.981843 
L 222.825559 -140.991004 
L 222.974174 -141.000165 
L 223.097466 -141.009326 
L 223.198262 -141.018486 
L 223.279464 -141.027647 
L 223.800337 -141.027647 
L 223.800337 -141.027647 
L 223.881539 -141.018486 
L 223.982335 -141.009326 
L 224.105627 -141.000165 
L 224.254242 -140.991004 
L 224.430775 -140.981843 
L 224.637429 -140.972682 
L 224.875843 -140.963521 
L 225.146933 -140.954361 
L 225.450748 -140.9452 
L 225.786373 -140.936039 
L 226.151869 -140.926878 
L 226.544276 -140.917717 
L 226.959683 -140.908556 
L 227.393347 -140.899396 
L 227.839876 -140.890235 
L 228.293454 -140.881074 
L 228.748084 -140.871913 
L 229.197848 -140.862752 
L 229.637143 -140.853591 
L 230.060898 -140.84443 
L 230.464733 -140.83527 
L 230.84507 -140.826109 
L 231.199178 -140.816948 
L 231.525167 -140.807787 
L 231.821926 -140.798626 
L 232.089021 -140.789465 
L 232.326575 -140.780305 
L 232.535134 -140.771144 
L 232.715533 -140.761983 
L 232.868786 -140.752822 
L 232.995991 -140.743661 
L 233.098264 -140.7345 
L 233.176703 -140.725339 
L 233.232374 -140.716179 
L 233.266311 -140.707018 
L 233.279537 -140.697857 
L 233.273081 -140.688696 
L 233.248005 -140.679535 
L 233.205419 -140.670374 
L 233.146491 -140.661214 
L 233.072451 -140.652053 
L 232.984589 -140.642892 
L 232.884243 -140.633731 
L 232.772784 -140.62457 
L 232.651608 -140.615409 
L 232.522114 -140.606249 
L 232.385697 -140.597088 
L 232.243732 -140.587927 
L 232.097567 -140.578766 
L 231.948509 -140.569605 
L 231.797818 -140.560444 
L 231.64669 -140.551283 
L 231.496249 -140.542123 
L 231.347529 -140.532962 
L 231.201457 -140.523801 
L 231.058834 -140.51464 
L 230.920319 -140.505479 
L 230.786402 -140.496318 
L 230.65739 -140.487158 
L 230.533381 -140.477997 
L 230.414251 -140.468836 
L 230.299628 -140.459675 
L 230.188882 -140.450514 
L 230.081114 -140.441353 
L 229.975147 -140.432193 
L 229.869536 -140.423032 
L 229.762582 -140.413871 
L 229.652365 -140.40471 
L 229.536796 -140.395549 
L 229.413681 -140.386388 
L 229.280811 -140.377227 
L 229.136067 -140.368067 
L 228.977531 -140.358906 
L 228.803607 -140.349745 
L 228.613141 -140.340584 
L 228.405529 -140.331423 
L 228.180796 -140.322262 
L 227.93966 -140.313102 
L 227.683545 -140.303941 
L 227.414563 -140.29478 
L 227.135447 -140.285619 
L 226.849452 -140.276458 
L 226.560213 -140.267297 
L 226.271584 -140.258136 
L 225.987465 -140.248976 
L 225.711622 -140.239815 
L 225.447524 -140.230654 
L 225.198197 -140.221493 
L 224.966118 -140.212332 
L 224.753137 -140.203171 
L 224.560444 -140.194011 
L 224.388578 -140.18485 
L 224.237466 -140.175689 
L 224.106494 -140.166528 
L 223.994597 -140.157367 
L 223.900362 -140.148206 
L 223.822139 -140.139046 
L 223.758136 -140.129885 
L 223.706521 -140.120724 
z
" id="mfb9abadb06" style="stroke:#3f3f3f;stroke-width:0.5;"/>
    </defs>
    <g clip-path="url(#p75e0aaf5d5)">
     <use style="fill:#e6ce74;stroke:#3f3f3f;stroke-width:0.5;" x="0" xlink:href="#mfb9abadb06" y="177.828844"/>
    </g>
   </g>
   <g id="PolyCollection_9">
    <defs>
     <path d="M 248.059335 -145.020552 
L 247.718648 -145.020552 
L 247.663194 -145.104989 
L 247.59391 -145.189425 
L 247.508733 -145.273861 
L 247.405684 -145.358298 
L 247.282983 -145.442734 
L 247.139169 -145.527171 
L 246.973216 -145.611607 
L 246.784639 -145.696043 
L 246.573571 -145.78048 
L 246.340808 -145.864916 
L 246.087818 -145.949353 
L 245.816702 -146.033789 
L 245.530126 -146.118225 
L 245.231208 -146.202662 
L 244.923396 -146.287098 
L 244.610323 -146.371535 
L 244.295672 -146.455971 
L 243.983046 -146.540407 
L 243.675857 -146.624844 
L 243.377241 -146.70928 
L 243.089982 -146.793717 
L 242.816464 -146.878153 
L 242.558625 -146.962589 
L 242.317922 -147.047026 
L 242.095304 -147.131462 
L 241.891181 -147.215899 
L 241.70541 -147.300335 
L 241.537288 -147.384771 
L 241.385573 -147.469208 
L 241.24853 -147.553644 
L 241.124004 -147.638081 
L 241.009533 -147.722517 
L 240.902479 -147.806953 
L 240.800176 -147.89139 
L 240.700082 -147.975826 
L 240.599921 -148.060263 
L 240.497791 -148.144699 
L 240.392247 -148.229135 
L 240.282337 -148.313572 
L 240.167594 -148.398008 
L 240.047998 -148.482445 
L 239.923907 -148.566881 
L 239.795974 -148.651317 
L 239.665065 -148.735754 
L 239.532184 -148.82019 
L 239.398416 -148.904627 
L 239.264898 -148.989063 
L 239.132805 -149.073499 
L 239.003357 -149.157936 
L 238.877839 -149.242372 
L 238.757617 -149.326809 
L 238.644143 -149.411245 
L 238.538949 -149.495681 
L 238.443604 -149.580118 
L 238.35965 -149.664554 
L 238.288506 -149.748991 
L 238.231354 -149.833427 
L 238.189004 -149.917863 
L 238.161769 -150.0023 
L 238.149355 -150.086736 
L 238.150787 -150.171173 
L 238.164389 -150.255609 
L 238.187832 -150.340045 
L 238.218264 -150.424482 
L 238.25252 -150.508918 
L 238.287411 -150.593354 
L 238.320075 -150.677791 
L 238.348359 -150.762227 
L 238.371212 -150.846664 
L 238.389019 -150.9311 
L 238.403868 -151.015536 
L 238.419669 -151.099973 
L 238.442125 -151.184409 
L 238.478502 -151.268846 
L 238.537224 -151.353282 
L 238.627302 -151.437718 
L 238.757629 -151.522155 
L 238.936224 -151.606591 
L 239.169477 -151.691028 
L 239.461486 -151.775464 
L 239.813558 -151.8599 
L 240.223922 -151.944337 
L 240.687698 -152.028773 
L 241.19713 -152.11321 
L 241.742048 -152.197646 
L 242.310532 -152.282082 
L 242.889688 -152.366519 
L 243.466477 -152.450955 
L 244.028506 -152.535392 
L 244.564719 -152.619828 
L 245.06593 -152.704264 
L 245.525163 -152.788701 
L 245.937803 -152.873137 
L 246.30155 -152.957574 
L 246.616226 -153.04201 
L 246.883458 -153.126446 
L 247.106293 -153.210883 
L 247.288785 -153.295319 
L 247.435595 -153.379756 
L 248.342388 -153.379756 
L 248.342388 -153.379756 
L 248.489198 -153.295319 
L 248.67169 -153.210883 
L 248.894525 -153.126446 
L 249.161757 -153.04201 
L 249.476433 -152.957574 
L 249.84018 -152.873137 
L 250.25282 -152.788701 
L 250.712053 -152.704264 
L 251.213264 -152.619828 
L 251.749477 -152.535392 
L 252.311506 -152.450955 
L 252.888295 -152.366519 
L 253.467451 -152.282082 
L 254.035934 -152.197646 
L 254.580853 -152.11321 
L 255.090285 -152.028773 
L 255.554061 -151.944337 
L 255.964425 -151.8599 
L 256.316497 -151.775464 
L 256.608506 -151.691028 
L 256.841759 -151.606591 
L 257.020354 -151.522155 
L 257.150681 -151.437718 
L 257.240759 -151.353282 
L 257.299481 -151.268846 
L 257.335858 -151.184409 
L 257.358314 -151.099973 
L 257.374115 -151.015536 
L 257.388964 -150.9311 
L 257.406771 -150.846664 
L 257.429624 -150.762227 
L 257.457908 -150.677791 
L 257.490572 -150.593354 
L 257.525463 -150.508918 
L 257.559719 -150.424482 
L 257.590151 -150.340045 
L 257.613594 -150.255609 
L 257.627196 -150.171173 
L 257.628628 -150.086736 
L 257.616214 -150.0023 
L 257.588979 -149.917863 
L 257.546629 -149.833427 
L 257.489477 -149.748991 
L 257.418333 -149.664554 
L 257.334379 -149.580118 
L 257.239034 -149.495681 
L 257.13384 -149.411245 
L 257.020366 -149.326809 
L 256.900144 -149.242372 
L 256.774626 -149.157936 
L 256.645178 -149.073499 
L 256.513085 -148.989063 
L 256.379567 -148.904627 
L 256.245799 -148.82019 
L 256.112918 -148.735754 
L 255.982009 -148.651317 
L 255.854076 -148.566881 
L 255.729985 -148.482445 
L 255.610389 -148.398008 
L 255.495646 -148.313572 
L 255.385736 -148.229135 
L 255.280192 -148.144699 
L 255.178062 -148.060263 
L 255.077901 -147.975826 
L 254.977807 -147.89139 
L 254.875504 -147.806953 
L 254.76845 -147.722517 
L 254.653979 -147.638081 
L 254.529453 -147.553644 
L 254.39241 -147.469208 
L 254.240695 -147.384771 
L 254.072573 -147.300335 
L 253.886802 -147.215899 
L 253.682679 -147.131462 
L 253.460061 -147.047026 
L 253.219358 -146.962589 
L 252.961519 -146.878153 
L 252.688001 -146.793717 
L 252.400742 -146.70928 
L 252.102126 -146.624844 
L 251.794937 -146.540407 
L 251.482311 -146.455971 
L 251.16766 -146.371535 
L 250.854587 -146.287098 
L 250.546775 -146.202662 
L 250.247857 -146.118225 
L 249.961281 -146.033789 
L 249.690165 -145.949353 
L 249.437175 -145.864916 
L 249.204412 -145.78048 
L 248.993344 -145.696043 
L 248.804767 -145.611607 
L 248.638814 -145.527171 
L 248.495 -145.442734 
L 248.372299 -145.358298 
L 248.26925 -145.273861 
L 248.184073 -145.189425 
L 248.114789 -145.104989 
L 248.059335 -145.020552 
z
" id="m9c3d033018" style="stroke:#3f3f3f;stroke-width:0.5;"/>
    </defs>
    <g clip-path="url(#p75e0aaf5d5)">
     <use style="fill:#ff964f;stroke:#3f3f3f;stroke-width:0.5;" x="0" xlink:href="#m9c3d033018" y="177.828844"/>
    </g>
   </g>
   <g id="PolyCollection_10">
    <defs>
     <path d="M 272.316192 -142.669272 
L 272.159973 -142.669272 
L 272.130164 -142.761162 
L 272.091666 -142.853052 
L 272.042978 -142.944941 
L 271.982686 -143.036831 
L 271.909587 -143.128721 
L 271.822819 -143.22061 
L 271.722002 -143.3125 
L 271.607342 -143.40439 
L 271.479723 -143.49628 
L 271.340727 -143.588169 
L 271.192612 -143.680059 
L 271.038217 -143.771949 
L 270.880805 -143.863838 
L 270.723865 -143.955728 
L 270.570879 -144.047618 
L 270.42509 -144.139508 
L 270.28929 -144.231397 
L 270.165652 -144.323287 
L 270.055629 -144.415177 
L 269.95993 -144.507066 
L 269.878561 -144.598956 
L 269.810935 -144.690846 
L 269.756032 -144.782735 
L 269.712576 -144.874625 
L 269.679216 -144.966515 
L 269.654691 -145.058405 
L 269.63795 -145.150294 
L 269.628229 -145.242184 
L 269.62508 -145.334074 
L 269.628353 -145.425963 
L 269.638136 -145.517853 
L 269.654678 -145.609743 
L 269.678293 -145.701633 
L 269.709268 -145.793522 
L 269.747767 -145.885412 
L 269.793759 -145.977302 
L 269.84695 -146.069191 
L 269.906729 -146.161081 
L 269.97213 -146.252971 
L 270.041794 -146.34486 
L 270.113951 -146.43675 
L 270.186397 -146.52864 
L 270.256491 -146.62053 
L 270.321167 -146.712419 
L 270.37695 -146.804309 
L 270.42001 -146.896199 
L 270.446225 -146.988088 
L 270.451279 -147.079978 
L 270.430783 -147.171868 
L 270.380418 -147.263758 
L 270.296109 -147.355647 
L 270.174206 -147.447537 
L 270.011678 -147.539427 
L 269.806308 -147.631316 
L 269.556872 -147.723206 
L 269.263292 -147.815096 
L 268.926754 -147.906985 
L 268.549768 -147.998875 
L 268.13618 -148.090765 
L 267.691111 -148.182655 
L 267.220843 -148.274544 
L 266.73264 -148.366434 
L 266.234537 -148.458324 
L 265.735093 -148.550213 
L 265.243141 -148.642103 
L 264.767546 -148.733993 
L 264.316996 -148.825883 
L 263.899832 -148.917772 
L 263.523923 -149.009662 
L 263.196595 -149.101552 
L 262.924586 -149.193441 
L 262.714025 -149.285331 
L 262.57039 -149.377221 
L 262.498446 -149.469111 
L 262.502118 -149.561 
L 262.584298 -149.65289 
L 262.746594 -149.74478 
L 262.989029 -149.836669 
L 263.309738 -149.928559 
L 263.704706 -150.020449 
L 264.167598 -150.112338 
L 264.689739 -150.204228 
L 265.260272 -150.296118 
L 265.866515 -150.388008 
L 266.494492 -150.479897 
L 267.129619 -150.571787 
L 267.757466 -150.663677 
L 268.364522 -150.755566 
L 268.938902 -150.847456 
L 269.470901 -150.939346 
L 269.953367 -151.031236 
L 270.381861 -151.123125 
L 270.754591 -151.215015 
L 271.072174 -151.306905 
L 271.337247 -151.398794 
L 271.553986 -151.490684 
L 271.727602 -151.582574 
L 271.863854 -151.674463 
L 271.968614 -151.766353 
L 272.507551 -151.766353 
L 272.507551 -151.766353 
L 272.612311 -151.674463 
L 272.748562 -151.582574 
L 272.922179 -151.490684 
L 273.138918 -151.398794 
L 273.403991 -151.306905 
L 273.721574 -151.215015 
L 274.094304 -151.123125 
L 274.522797 -151.031236 
L 275.005264 -150.939346 
L 275.537263 -150.847456 
L 276.111642 -150.755566 
L 276.718699 -150.663677 
L 277.346545 -150.571787 
L 277.981673 -150.479897 
L 278.60965 -150.388008 
L 279.215892 -150.296118 
L 279.786426 -150.204228 
L 280.308567 -150.112338 
L 280.771459 -150.020449 
L 281.166427 -149.928559 
L 281.487136 -149.836669 
L 281.729571 -149.74478 
L 281.891867 -149.65289 
L 281.974047 -149.561 
L 281.977719 -149.469111 
L 281.905775 -149.377221 
L 281.76214 -149.285331 
L 281.551578 -149.193441 
L 281.27957 -149.101552 
L 280.952242 -149.009662 
L 280.576333 -148.917772 
L 280.159168 -148.825883 
L 279.708619 -148.733993 
L 279.233024 -148.642103 
L 278.741072 -148.550213 
L 278.241628 -148.458324 
L 277.743525 -148.366434 
L 277.255322 -148.274544 
L 276.785054 -148.182655 
L 276.339985 -148.090765 
L 275.926397 -147.998875 
L 275.549411 -147.906985 
L 275.212872 -147.815096 
L 274.919293 -147.723206 
L 274.669857 -147.631316 
L 274.464487 -147.539427 
L 274.301959 -147.447537 
L 274.180056 -147.355647 
L 274.095747 -147.263758 
L 274.045382 -147.171868 
L 274.024886 -147.079978 
L 274.02994 -146.988088 
L 274.056155 -146.896199 
L 274.099215 -146.804309 
L 274.154998 -146.712419 
L 274.219673 -146.62053 
L 274.289768 -146.52864 
L 274.362214 -146.43675 
L 274.43437 -146.34486 
L 274.504035 -146.252971 
L 274.569436 -146.161081 
L 274.629215 -146.069191 
L 274.682406 -145.977302 
L 274.728398 -145.885412 
L 274.766897 -145.793522 
L 274.797871 -145.701633 
L 274.821487 -145.609743 
L 274.838029 -145.517853 
L 274.847812 -145.425963 
L 274.851084 -145.334074 
L 274.847936 -145.242184 
L 274.838215 -145.150294 
L 274.821474 -145.058405 
L 274.796949 -144.966515 
L 274.763589 -144.874625 
L 274.720133 -144.782735 
L 274.66523 -144.690846 
L 274.597604 -144.598956 
L 274.516235 -144.507066 
L 274.420535 -144.415177 
L 274.310513 -144.323287 
L 274.186875 -144.231397 
L 274.051074 -144.139508 
L 273.905286 -144.047618 
L 273.7523 -143.955728 
L 273.59536 -143.863838 
L 273.437948 -143.771949 
L 273.283552 -143.680059 
L 273.135438 -143.588169 
L 272.996442 -143.49628 
L 272.868822 -143.40439 
L 272.754163 -143.3125 
L 272.653345 -143.22061 
L 272.566578 -143.128721 
L 272.493479 -143.036831 
L 272.433187 -142.944941 
L 272.384499 -142.853052 
L 272.346001 -142.761162 
L 272.316192 -142.669272 
z
" id="m6038e1cec6" style="stroke:#3f3f3f;stroke-width:0.5;"/>
    </defs>
    <g clip-path="url(#p75e0aaf5d5)">
     <use style="fill:#ff4f28;stroke:#3f3f3f;stroke-width:0.5;" x="0" xlink:href="#m6038e1cec6" y="177.828844"/>
    </g>
   </g>
   <g id="PolyCollection_11">
    <defs>
     <path d="M 296.67301 -149.525779 
L 296.501336 -149.525779 
L 296.465364 -149.550184 
L 296.417779 -149.57459 
L 296.356261 -149.598996 
L 296.278535 -149.623401 
L 296.182552 -149.647807 
L 296.066698 -149.672212 
L 295.929998 -149.696618 
L 295.772305 -149.721023 
L 295.594433 -149.745429 
L 295.398212 -149.769834 
L 295.18646 -149.79424 
L 294.962849 -149.818646 
L 294.731686 -149.843051 
L 294.49763 -149.867457 
L 294.265372 -149.891862 
L 294.039317 -149.916268 
L 293.82331 -149.940673 
L 293.620435 -149.965079 
L 293.432901 -149.989484 
L 293.262028 -150.01389 
L 293.10832 -150.038295 
L 292.971602 -150.062701 
L 292.851206 -150.087107 
L 292.74615 -150.111512 
L 292.655315 -150.135918 
L 292.577569 -150.160323 
L 292.511844 -150.184729 
L 292.457154 -150.209134 
L 292.412571 -150.23354 
L 292.377163 -150.257945 
L 292.349922 -150.282351 
L 292.32969 -150.306757 
L 292.315117 -150.331162 
L 292.304651 -150.355568 
L 292.29656 -150.379973 
L 292.289001 -150.404379 
L 292.280112 -150.428784 
L 292.268116 -150.45319 
L 292.251428 -150.477595 
L 292.228744 -150.502001 
L 292.199104 -150.526407 
L 292.161928 -150.550812 
L 292.117013 -150.575218 
L 292.0645 -150.599623 
L 292.004822 -150.624029 
L 291.938631 -150.648434 
L 291.86671 -150.67284 
L 291.789893 -150.697245 
L 291.708969 -150.721651 
L 291.624605 -150.746056 
L 291.537269 -150.770462 
L 291.44717 -150.794868 
L 291.354214 -150.819273 
L 291.257975 -150.843679 
L 291.157691 -150.868084 
L 291.052284 -150.89249 
L 290.940387 -150.916895 
L 290.820396 -150.941301 
L 290.690532 -150.965706 
L 290.548906 -150.990112 
L 290.393598 -151.014518 
L 290.222743 -151.038923 
L 290.034649 -151.063329 
L 289.827938 -151.087734 
L 289.601733 -151.11214 
L 289.355905 -151.136545 
L 289.091359 -151.160951 
L 288.810365 -151.185356 
L 288.516886 -151.209762 
L 288.216874 -151.234168 
L 287.91845 -151.258573 
L 287.631936 -151.282979 
L 287.369658 -151.307384 
L 287.145499 -151.33179 
L 286.974192 -151.356195 
L 286.870384 -151.380601 
L 286.847537 -151.405006 
L 286.916782 -151.429412 
L 287.08583 -151.453817 
L 287.358085 -151.478223 
L 287.732067 -151.502629 
L 288.201221 -151.527034 
L 288.754168 -151.55144 
L 289.375366 -151.575845 
L 290.046137 -151.600251 
L 290.74594 -151.624656 
L 291.453767 -151.649062 
L 292.149522 -151.673467 
L 292.815238 -151.697873 
L 293.43603 -151.722279 
L 294.000723 -151.746684 
L 294.5021 -151.77109 
L 294.936819 -151.795495 
L 295.305029 -151.819901 
L 295.609771 -151.844306 
L 295.856258 -151.868712 
L 296.051124 -151.893117 
L 296.201712 -151.917523 
L 296.315471 -151.941929 
L 296.858876 -151.941929 
L 296.858876 -151.941929 
L 296.972634 -151.917523 
L 297.123223 -151.893117 
L 297.318089 -151.868712 
L 297.564576 -151.844306 
L 297.869318 -151.819901 
L 298.237527 -151.795495 
L 298.672247 -151.77109 
L 299.173624 -151.746684 
L 299.738316 -151.722279 
L 300.359109 -151.697873 
L 301.024824 -151.673467 
L 301.720579 -151.649062 
L 302.428407 -151.624656 
L 303.128209 -151.600251 
L 303.79898 -151.575845 
L 304.420179 -151.55144 
L 304.973126 -151.527034 
L 305.44228 -151.502629 
L 305.816261 -151.478223 
L 306.088517 -151.453817 
L 306.257565 -151.429412 
L 306.32681 -151.405006 
L 306.303963 -151.380601 
L 306.200154 -151.356195 
L 306.028847 -151.33179 
L 305.804688 -151.307384 
L 305.54241 -151.282979 
L 305.255896 -151.258573 
L 304.957473 -151.234168 
L 304.65746 -151.209762 
L 304.363982 -151.185356 
L 304.082987 -151.160951 
L 303.818441 -151.136545 
L 303.572613 -151.11214 
L 303.346409 -151.087734 
L 303.139697 -151.063329 
L 302.951604 -151.038923 
L 302.780749 -151.014518 
L 302.62544 -150.990112 
L 302.483814 -150.965706 
L 302.353951 -150.941301 
L 302.23396 -150.916895 
L 302.122062 -150.89249 
L 302.016655 -150.868084 
L 301.916372 -150.843679 
L 301.820132 -150.819273 
L 301.727176 -150.794868 
L 301.637078 -150.770462 
L 301.549742 -150.746056 
L 301.465378 -150.721651 
L 301.384454 -150.697245 
L 301.307636 -150.67284 
L 301.235716 -150.648434 
L 301.169524 -150.624029 
L 301.109847 -150.599623 
L 301.057334 -150.575218 
L 301.012418 -150.550812 
L 300.975243 -150.526407 
L 300.945603 -150.502001 
L 300.922918 -150.477595 
L 300.90623 -150.45319 
L 300.894234 -150.428784 
L 300.885346 -150.404379 
L 300.877787 -150.379973 
L 300.869696 -150.355568 
L 300.859229 -150.331162 
L 300.844657 -150.306757 
L 300.824425 -150.282351 
L 300.797183 -150.257945 
L 300.761776 -150.23354 
L 300.717193 -150.209134 
L 300.662503 -150.184729 
L 300.596777 -150.160323 
L 300.519031 -150.135918 
L 300.428197 -150.111512 
L 300.323141 -150.087107 
L 300.202744 -150.062701 
L 300.066027 -150.038295 
L 299.912319 -150.01389 
L 299.741446 -149.989484 
L 299.553912 -149.965079 
L 299.351037 -149.940673 
L 299.13503 -149.916268 
L 298.908975 -149.891862 
L 298.676716 -149.867457 
L 298.442661 -149.843051 
L 298.211498 -149.818646 
L 297.987887 -149.79424 
L 297.776135 -149.769834 
L 297.579914 -149.745429 
L 297.402042 -149.721023 
L 297.244349 -149.696618 
L 297.107649 -149.672212 
L 296.991794 -149.647807 
L 296.895812 -149.623401 
L 296.818086 -149.598996 
L 296.756568 -149.57459 
L 296.708983 -149.550184 
L 296.67301 -149.525779 
z
" id="m94238650ca" style="stroke:#3f3f3f;stroke-width:0.5;"/>
    </defs>
    <g clip-path="url(#p75e0aaf5d5)">
     <use style="fill:#ff0000;stroke:#3f3f3f;stroke-width:0.5;" x="0" xlink:href="#m94238650ca" y="177.828844"/>
    </g>
   </g>
   <g id="patch_3">
    <path clip-path="url(#p75e0aaf5d5)" d="M 53.096264 62.125645 
L 53.096264 62.125645 
L 53.096264 62.125645 
L 53.096264 62.125645 
z
" style="fill:#3274a1;stroke:#3f3f3f;stroke-linejoin:miter;stroke-width:0.25;"/>
   </g>
   <g id="line2d_19">
    <path clip-path="url(#p75e0aaf5d5)" d="M 53.096264 141.488218 
L 53.096264 136.370612 
" style="fill:none;stroke:#3f3f3f;stroke-linecap:round;stroke-width:0.5;"/>
   </g>
   <g id="line2d_20">
    <path clip-path="url(#p75e0aaf5d5)" d="M 53.096264 140.839811 
L 53.096264 138.647045 
" style="fill:none;stroke:#3f3f3f;stroke-linecap:round;stroke-width:1.5;"/>
   </g>
   <g id="line2d_21">
    <path clip-path="url(#p75e0aaf5d5)" d="M 77.445355 134.403258 
L 77.445355 123.641147 
" style="fill:none;stroke:#3f3f3f;stroke-linecap:round;stroke-width:0.5;"/>
   </g>
   <g id="line2d_22">
    <path clip-path="url(#p75e0aaf5d5)" d="M 77.445355 130.055332 
L 77.445355 126.331675 
" style="fill:none;stroke:#3f3f3f;stroke-linecap:round;stroke-width:1.5;"/>
   </g>
   <g id="line2d_23">
    <path clip-path="url(#p75e0aaf5d5)" d="M 101.794446 64.836328 
L 101.794446 61.232758 
" style="fill:none;stroke:#3f3f3f;stroke-linecap:round;stroke-width:0.5;"/>
   </g>
   <g id="line2d_24">
    <path clip-path="url(#p75e0aaf5d5)" d="M 101.794446 63.973977 
L 101.794446 62.051765 
" style="fill:none;stroke:#3f3f3f;stroke-linecap:round;stroke-width:1.5;"/>
   </g>
   <g id="line2d_25">
    <path clip-path="url(#p75e0aaf5d5)" d="M 126.143537 31.062461 
L 126.143537 26.384201 
" style="fill:none;stroke:#3f3f3f;stroke-linecap:round;stroke-width:0.5;"/>
   </g>
   <g id="line2d_26">
    <path clip-path="url(#p75e0aaf5d5)" d="M 126.143537 28.93527 
L 126.143537 26.93414 
" style="fill:none;stroke:#3f3f3f;stroke-linecap:round;stroke-width:1.5;"/>
   </g>
   <g id="line2d_27">
    <path clip-path="url(#p75e0aaf5d5)" d="M 150.492628 31.408735 
L 150.492628 26.247302 
" style="fill:none;stroke:#3f3f3f;stroke-linecap:round;stroke-width:0.5;"/>
   </g>
   <g id="line2d_28">
    <path clip-path="url(#p75e0aaf5d5)" d="M 150.492628 29.714684 
L 150.492628 26.974353 
" style="fill:none;stroke:#3f3f3f;stroke-linecap:round;stroke-width:1.5;"/>
   </g>
   <g id="line2d_29">
    <path clip-path="url(#p75e0aaf5d5)" d="M 174.841719 30.44739 
L 174.841719 26.847139 
" style="fill:none;stroke:#3f3f3f;stroke-linecap:round;stroke-width:0.5;"/>
   </g>
   <g id="line2d_30">
    <path clip-path="url(#p75e0aaf5d5)" d="M 174.841719 28.691454 
L 174.841719 27.249662 
" style="fill:none;stroke:#3f3f3f;stroke-linecap:round;stroke-width:1.5;"/>
   </g>
   <g id="line2d_31">
    <path clip-path="url(#p75e0aaf5d5)" d="M 199.19081 34.200572 
L 199.19081 30.483115 
" style="fill:none;stroke:#3f3f3f;stroke-linecap:round;stroke-width:0.5;"/>
   </g>
   <g id="line2d_32">
    <path clip-path="url(#p75e0aaf5d5)" d="M 199.19081 33.324555 
L 199.19081 31.286303 
" style="fill:none;stroke:#3f3f3f;stroke-linecap:round;stroke-width:1.5;"/>
   </g>
   <g id="line2d_33">
    <path clip-path="url(#p75e0aaf5d5)" d="M 223.539901 37.556919 
L 223.539901 36.952397 
" style="fill:none;stroke:#3f3f3f;stroke-linecap:round;stroke-width:0.5;"/>
   </g>
   <g id="line2d_34">
    <path clip-path="url(#p75e0aaf5d5)" d="M 223.539901 37.353422 
L 223.539901 37.086209 
" style="fill:none;stroke:#3f3f3f;stroke-linecap:round;stroke-width:1.5;"/>
   </g>
   <g id="line2d_35">
    <path clip-path="url(#p75e0aaf5d5)" d="M 247.888991 31.479604 
L 247.888991 25.777776 
" style="fill:none;stroke:#3f3f3f;stroke-linecap:round;stroke-width:0.5;"/>
   </g>
   <g id="line2d_36">
    <path clip-path="url(#p75e0aaf5d5)" d="M 247.888991 29.51968 
L 247.888991 26.804356 
" style="fill:none;stroke:#3f3f3f;stroke-linecap:round;stroke-width:1.5;"/>
   </g>
   <g id="line2d_37">
    <path clip-path="url(#p75e0aaf5d5)" d="M 272.238082 33.87401 
L 272.238082 27.348052 
" style="fill:none;stroke:#3f3f3f;stroke-linecap:round;stroke-width:0.5;"/>
   </g>
   <g id="line2d_38">
    <path clip-path="url(#p75e0aaf5d5)" d="M 272.238082 30.631824 
L 272.238082 28.036934 
" style="fill:none;stroke:#3f3f3f;stroke-linecap:round;stroke-width:1.5;"/>
   </g>
   <g id="line2d_39">
    <path clip-path="url(#p75e0aaf5d5)" d="M 296.587173 27.981854 
L 296.587173 26.208126 
" style="fill:none;stroke:#3f3f3f;stroke-linecap:round;stroke-width:0.5;"/>
   </g>
   <g id="line2d_40">
    <path clip-path="url(#p75e0aaf5d5)" d="M 296.587173 27.288852 
L 296.587173 26.413295 
" style="fill:none;stroke:#3f3f3f;stroke-linecap:round;stroke-width:1.5;"/>
   </g>
   <g id="patch_4">
    <path d="M 40.921719 148.982906 
L 40.921719 18.518906 
" style="fill:none;stroke:#262626;stroke-linecap:square;stroke-linejoin:miter;stroke-width:0.8;"/>
   </g>
   <g id="patch_5">
    <path d="M 308.761719 148.982906 
L 308.761719 18.518906 
" style="fill:none;stroke:#262626;stroke-linecap:square;stroke-linejoin:miter;stroke-width:0.8;"/>
   </g>
   <g id="patch_6">
    <path d="M 40.921719 148.982906 
L 308.761719 148.982906 
" style="fill:none;stroke:#262626;stroke-linecap:square;stroke-linejoin:miter;stroke-width:0.8;"/>
   </g>
   <g id="patch_7">
    <path d="M 40.921719 18.518906 
L 308.761719 18.518906 
" style="fill:none;stroke:#262626;stroke-linecap:square;stroke-linejoin:miter;stroke-width:0.8;"/>
   </g>
   <g id="PathCollection_1">
    <defs>
     <path d="M 0 0.5 
C 0.132602 0.5 0.25979 0.447317 0.353553 0.353553 
C 0.447317 0.25979 0.5 0.132602 0.5 0 
C 0.5 -0.132602 0.447317 -0.25979 0.353553 -0.353553 
C 0.25979 -0.447317 0.132602 -0.5 0 -0.5 
C -0.132602 -0.5 -0.25979 -0.447317 -0.353553 -0.353553 
C -0.447317 -0.25979 -0.5 -0.132602 -0.5 0 
C -0.5 0.132602 -0.447317 0.25979 -0.353553 0.353553 
C -0.25979 0.447317 -0.132602 0.5 0 0.5 
z
" id="m41f6d8da6c" style="stroke:#3f3f3f;"/>
    </defs>
    <g clip-path="url(#p75e0aaf5d5)">
     <use style="fill:#ffffff;stroke:#3f3f3f;" x="53.096264" xlink:href="#m41f6d8da6c" y="140.134563"/>
    </g>
   </g>
   <g id="PathCollection_2">
    <g clip-path="url(#p75e0aaf5d5)">
     <use style="fill:#ffffff;stroke:#3f3f3f;" x="77.445355" xlink:href="#m41f6d8da6c" y="127.275347"/>
    </g>
   </g>
   <g id="PathCollection_3">
    <g clip-path="url(#p75e0aaf5d5)">
     <use style="fill:#ffffff;stroke:#3f3f3f;" x="101.794446" xlink:href="#m41f6d8da6c" y="63.096772"/>
    </g>
   </g>
   <g id="PathCollection_4">
    <g clip-path="url(#p75e0aaf5d5)">
     <use style="fill:#ffffff;stroke:#3f3f3f;" x="126.143537" xlink:href="#m41f6d8da6c" y="27.649868"/>
    </g>
   </g>
   <g id="PathCollection_5">
    <g clip-path="url(#p75e0aaf5d5)">
     <use style="fill:#ffffff;stroke:#3f3f3f;" x="150.492628" xlink:href="#m41f6d8da6c" y="28.172982"/>
    </g>
   </g>
   <g id="PathCollection_6">
    <g clip-path="url(#p75e0aaf5d5)">
     <use style="fill:#ffffff;stroke:#3f3f3f;" x="174.841719" xlink:href="#m41f6d8da6c" y="27.707199"/>
    </g>
   </g>
   <g id="PathCollection_7">
    <g clip-path="url(#p75e0aaf5d5)">
     <use style="fill:#ffffff;stroke:#3f3f3f;" x="199.19081" xlink:href="#m41f6d8da6c" y="32.190385"/>
    </g>
   </g>
   <g id="PathCollection_8">
    <g clip-path="url(#p75e0aaf5d5)">
     <use style="fill:#ffffff;stroke:#3f3f3f;" x="223.539901" xlink:href="#m41f6d8da6c" y="37.199643"/>
    </g>
   </g>
   <g id="PathCollection_9">
    <g clip-path="url(#p75e0aaf5d5)">
     <use style="fill:#ffffff;stroke:#3f3f3f;" x="247.888991" xlink:href="#m41f6d8da6c" y="28.04794"/>
    </g>
   </g>
   <g id="PathCollection_10">
    <g clip-path="url(#p75e0aaf5d5)">
     <use style="fill:#ffffff;stroke:#3f3f3f;" x="272.238082" xlink:href="#m41f6d8da6c" y="28.751758"/>
    </g>
   </g>
   <g id="PathCollection_11">
    <g clip-path="url(#p75e0aaf5d5)">
     <use style="fill:#ffffff;stroke:#3f3f3f;" x="296.587173" xlink:href="#m41f6d8da6c" y="26.76085"/>
    </g>
   </g>
   <g id="text_21">
    <!-- Clade MRCA Date -->
    <g style="fill:#262626;" transform="translate(144.199766 12.518906)scale(0.07 -0.07)">
     <defs>
      <path id="DejaVuSans-32"/>
     </defs>
     <use xlink:href="#DejaVuSans-67"/>
     <use x="69.824219" xlink:href="#DejaVuSans-108"/>
     <use x="97.607422" xlink:href="#DejaVuSans-97"/>
     <use x="158.886719" xlink:href="#DejaVuSans-100"/>
     <use x="222.363281" xlink:href="#DejaVuSans-101"/>
     <use x="283.886719" xlink:href="#DejaVuSans-32"/>
     <use x="315.673828" xlink:href="#DejaVuSans-77"/>
     <use x="401.953125" xlink:href="#DejaVuSans-82"/>
     <use x="466.435547" xlink:href="#DejaVuSans-67"/>
     <use x="536.259766" xlink:href="#DejaVuSans-65"/>
     <use x="604.667969" xlink:href="#DejaVuSans-32"/>
     <use x="636.455078" xlink:href="#DejaVuSans-68"/>
     <use x="713.457031" xlink:href="#DejaVuSans-97"/>
     <use x="774.736328" xlink:href="#DejaVuSans-116"/>
     <use x="813.945312" xlink:href="#DejaVuSans-101"/>
    </g>
   </g>
  </g>
 </g>
 <defs>
  <clipPath id="p75e0aaf5d5">
   <rect height="130.464" width="267.84" x="40.921719" y="18.518906"/>
  </clipPath>
 </defs>
</svg>
