<?xml version="1.0" encoding="utf-8" standalone="no"?>
<!DOCTYPE svg PUBLIC "-//W3C//DTD SVG 1.1//EN"
  "http://www.w3.org/Graphics/SVG/1.1/DTD/svg11.dtd">
<!-- Created with matplotlib (https://matplotlib.org/) -->
<svg height="166.856168pt" version="1.1" viewBox="0 0 307.857599 166.856168" width="307.857599pt" xmlns="http://www.w3.org/2000/svg" xmlns:xlink="http://www.w3.org/1999/xlink">
 <metadata>
  <rdf:RDF xmlns:cc="http://creativecommons.org/ns#" xmlns:dc="http://purl.org/dc/elements/1.1/" xmlns:rdf="http://www.w3.org/1999/02/22-rdf-syntax-ns#">
   <cc:Work>
    <dc:type rdf:resource="http://purl.org/dc/dcmitype/StillImage"/>
    <dc:date>2021-07-13T15:34:48.904894</dc:date>
    <dc:format>image/svg+xml</dc:format>
    <dc:creator>
     <cc:Agent>
      <dc:title>Matplotlib v3.3.2, https://matplotlib.org/</dc:title>
     </cc:Agent>
    </dc:creator>
   </cc:Work>
  </rdf:RDF>
 </metadata>
 <defs>
  <style type="text/css">*{stroke-linecap:butt;stroke-linejoin:round;}</style>
 </defs>
 <g id="figure_1">
  <g id="patch_1">
   <path d="M 0 166.856168 
L 307.857599 166.856168 
L 307.857599 0 
L 0 0 
z
" style="fill:none;"/>
  </g>
  <g id="axes_1">
   <g id="patch_2">
    <path d="M 32.582813 138.978043 
L 144.182812 138.978043 
L 144.182812 8.514043 
L 32.582813 8.514043 
z
" style="fill:#ffffff;"/>
   </g>
   <g id="line2d_1">
    <path clip-path="url(#p9a47143ab3)" d="M 38.090986 125.378591 
L 39.069827 124.423342 
L 40.048667 123.468093 
L 41.027508 122.512845 
L 42.006349 121.557596 
L 42.98519 120.602348 
L 43.964031 119.647099 
L 44.942872 118.691851 
L 45.921712 117.736602 
L 46.900553 116.781354 
L 47.879394 115.826105 
L 48.858235 114.870857 
L 49.837076 113.915608 
L 50.815916 112.960359 
L 51.794757 112.005111 
L 52.773598 111.049862 
L 53.752439 110.094614 
L 54.73128 109.139365 
L 55.710121 108.184117 
L 56.688961 107.228868 
L 57.667802 106.27362 
L 58.646643 105.318371 
L 59.625484 104.363123 
L 60.604325 103.407874 
L 61.583165 102.452625 
L 62.562006 101.497377 
L 63.540847 100.542128 
L 64.519688 99.58688 
L 65.498529 98.631631 
L 66.47737 97.676383 
L 67.45621 96.721134 
L 68.435051 95.765886 
L 69.413892 94.810637 
L 70.392733 93.855389 
L 71.371574 92.90014 
L 72.350414 91.944891 
L 73.329255 90.989643 
L 74.308096 90.034394 
L 75.286937 89.079146 
L 76.265778 88.123897 
L 77.244619 87.168649 
L 78.223459 86.2134 
L 79.2023 85.258152 
L 80.181141 84.302903 
L 81.159982 83.347655 
L 82.138823 82.392406 
L 83.117664 81.437157 
L 84.096504 80.481909 
L 85.075345 79.52666 
L 86.054186 78.571412 
L 87.033027 77.616163 
L 88.011868 76.660915 
L 88.990708 75.705666 
L 89.969549 74.750418 
L 90.94839 73.795169 
L 91.927231 72.839921 
L 92.906072 71.884672 
L 93.884913 70.929423 
L 94.863753 69.974175 
L 95.842594 69.018926 
L 96.821435 68.063678 
L 97.800276 67.108429 
L 98.779117 66.153181 
L 99.757957 65.197932 
L 100.736798 64.242684 
L 101.715639 63.287435 
L 102.69448 62.332187 
L 103.673321 61.376938 
L 104.652162 60.421689 
L 105.631002 59.466441 
L 106.609843 58.511192 
L 107.588684 57.555944 
L 108.567525 56.600695 
L 109.546366 55.645447 
L 110.525206 54.690198 
L 111.504047 53.73495 
L 112.482888 52.779701 
L 113.461729 51.824453 
L 114.44057 50.869204 
L 115.419411 49.913955 
L 116.398251 48.958707 
L 117.377092 48.003458 
L 118.355933 47.04821 
L 119.334774 46.092961 
L 120.313615 45.137713 
L 121.292455 44.182464 
L 122.271296 43.227216 
L 123.250137 42.271967 
L 124.228978 41.316719 
L 125.207819 40.36147 
L 126.18666 39.406221 
L 127.1655 38.450973 
L 128.144341 37.495724 
L 129.123182 36.540476 
L 130.102023 35.585227 
L 131.080864 34.629979 
L 132.059704 33.67473 
L 133.038545 32.719482 
L 134.017386 31.764233 
L 134.996227 30.808985 
" style="fill:none;stroke:#008000;stroke-linecap:square;"/>
   </g>
   <g id="line2d_2">
    <path clip-path="url(#p9a47143ab3)" d="M 38.049874 129.503249 
L 38.80627 129.262646 
L 39.562666 129.022044 
L 40.319062 128.781441 
L 41.075458 128.540838 
L 41.831854 128.300235 
L 42.58825 128.059633 
L 43.344646 127.81903 
L 44.101043 127.578427 
L 44.857439 127.337824 
L 45.613835 127.097222 
L 46.370231 126.856619 
L 47.126627 126.616016 
L 47.883023 126.375413 
L 48.639419 126.134811 
L 49.395815 125.894208 
L 50.152211 125.653605 
L 50.908607 125.413002 
L 51.665003 125.172399 
L 52.421399 124.931797 
L 53.177795 124.691194 
L 53.934191 124.450591 
L 54.690587 124.209988 
L 55.446983 123.969386 
L 56.203379 123.728783 
L 56.959775 123.48818 
L 57.716171 123.247577 
L 58.472568 123.006975 
L 59.228964 122.766372 
L 59.98536 122.525769 
L 60.741756 122.285166 
L 61.498152 122.044564 
L 62.254548 121.803961 
L 63.010944 121.563358 
L 63.76734 121.322755 
L 64.523736 121.082152 
L 65.280132 120.84155 
L 66.036528 120.600947 
L 66.792924 120.360344 
L 67.54932 120.119741 
L 68.305716 119.879139 
L 69.062112 119.638536 
L 69.818508 119.397933 
L 70.574904 119.15733 
L 71.3313 118.916728 
L 72.087696 118.676125 
L 72.844093 118.435522 
L 73.600489 118.194919 
L 74.356885 117.954317 
L 75.113281 117.713714 
L 75.869677 117.473111 
L 76.626073 117.232508 
L 77.382469 116.991905 
L 78.138865 116.751303 
L 78.895261 116.5107 
L 79.651657 116.270097 
L 80.408053 116.029494 
L 81.164449 115.788892 
L 81.920845 115.548289 
L 82.677241 115.307686 
L 83.433637 115.067083 
L 84.190033 114.826481 
L 84.946429 114.585878 
L 85.702825 114.345275 
L 86.459221 114.104672 
L 87.215618 113.86407 
L 87.972014 113.623467 
L 88.72841 113.382864 
L 89.484806 113.142261 
L 90.241202 112.901659 
L 90.997598 112.661056 
L 91.753994 112.420453 
L 92.51039 112.17985 
L 93.266786 111.939247 
L 94.023182 111.698645 
L 94.779578 111.458042 
L 95.535974 111.217439 
L 96.29237 110.976836 
L 97.048766 110.736234 
L 97.805162 110.495631 
L 98.561558 110.255028 
L 99.317954 110.014425 
L 100.07435 109.773823 
L 100.830746 109.53322 
L 101.587143 109.292617 
L 102.343539 109.052014 
L 103.099935 108.811412 
L 103.856331 108.570809 
L 104.612727 108.330206 
L 105.369123 108.089603 
L 106.125519 107.849 
L 106.881915 107.608398 
L 107.638311 107.367795 
L 108.394707 107.127192 
L 109.151103 106.886589 
L 109.907499 106.645987 
L 110.663895 106.405384 
L 111.420291 106.164781 
L 112.176687 105.924178 
L 112.933083 105.683576 
" style="fill:none;stroke:#ff0000;stroke-linecap:square;"/>
   </g>
   <g id="PathCollection_1">
    <defs>
     <path d="M 0 1.581139 
C 0.419323 1.581139 0.821528 1.41454 1.118034 1.118034 
C 1.41454 0.821528 1.581139 0.419323 1.581139 0 
C 1.581139 -0.419323 1.41454 -0.821528 1.118034 -1.118034 
C 0.821528 -1.41454 0.419323 -1.581139 0 -1.581139 
C -0.419323 -1.581139 -0.821528 -1.41454 -1.118034 -1.118034 
C -1.41454 -0.821528 -1.581139 -0.419323 -1.581139 0 
C -1.581139 0.419323 -1.41454 0.821528 -1.118034 1.118034 
C -0.821528 1.41454 -0.419323 1.581139 0 1.581139 
z
" id="m3c0da6afbb" style="stroke:#000000;stroke-opacity:0.8;stroke-width:0.5;"/>
    </defs>
    <g clip-path="url(#p9a47143ab3)">
     <use style="fill:#008000;fill-opacity:0.8;stroke:#000000;stroke-opacity:0.8;stroke-width:0.5;" x="65.842214" xlink:href="#m3c0da6afbb" y="106.092794"/>
     <use style="fill:#008000;fill-opacity:0.8;stroke:#000000;stroke-opacity:0.8;stroke-width:0.5;" x="67.756519" xlink:href="#m3c0da6afbb" y="100.948502"/>
     <use style="fill:#008000;fill-opacity:0.8;stroke:#000000;stroke-opacity:0.8;stroke-width:0.5;" x="60.794502" xlink:href="#m3c0da6afbb" y="102.527754"/>
     <use style="fill:#008000;fill-opacity:0.8;stroke:#000000;stroke-opacity:0.8;stroke-width:0.5;" x="114.429776" xlink:href="#m3c0da6afbb" y="39.164932"/>
     <use style="fill:#008000;fill-opacity:0.8;stroke:#000000;stroke-opacity:0.8;stroke-width:0.5;" x="109.49458" xlink:href="#m3c0da6afbb" y="43.448833"/>
     <use style="fill:#008000;fill-opacity:0.8;stroke:#000000;stroke-opacity:0.8;stroke-width:0.5;" x="94.684985" xlink:href="#m3c0da6afbb" y="71.435713"/>
     <use style="fill:#008000;fill-opacity:0.8;stroke:#000000;stroke-opacity:0.8;stroke-width:0.5;" x="73.802785" xlink:href="#m3c0da6afbb" y="81.802593"/>
     <use style="fill:#008000;fill-opacity:0.8;stroke:#000000;stroke-opacity:0.8;stroke-width:0.5;" x="90.110083" xlink:href="#m3c0da6afbb" y="73.708871"/>
     <use style="fill:#008000;fill-opacity:0.8;stroke:#000000;stroke-opacity:0.8;stroke-width:0.5;" x="134.996227" xlink:href="#m3c0da6afbb" y="51.040515"/>
     <use style="fill:#008000;fill-opacity:0.8;stroke:#000000;stroke-opacity:0.8;stroke-width:0.5;" x="38.090986" xlink:href="#m3c0da6afbb" y="128.037992"/>
     <use style="fill:#008000;fill-opacity:0.8;stroke:#000000;stroke-opacity:0.8;stroke-width:0.5;" x="39.967293" xlink:href="#m3c0da6afbb" y="125.897333"/>
     <use style="fill:#008000;fill-opacity:0.8;stroke:#000000;stroke-opacity:0.8;stroke-width:0.5;" x="75.701048" xlink:href="#m3c0da6afbb" y="82.020704"/>
     <use style="fill:#008000;fill-opacity:0.8;stroke:#000000;stroke-opacity:0.8;stroke-width:0.5;" x="40.570036" xlink:href="#m3c0da6afbb" y="125.054578"/>
    </g>
   </g>
   <g id="PolyCollection_1">
    <path clip-path="url(#p9a47143ab3)" d="M 38.090986 118.015968 
L 38.090986 133.047862 
L 39.069827 131.865106 
L 40.048667 130.651808 
L 41.027508 129.425983 
L 42.006349 128.200159 
L 42.98519 126.999754 
L 43.964031 125.854645 
L 44.942872 124.65627 
L 45.921712 123.453119 
L 46.900553 122.24997 
L 47.879394 121.048906 
L 48.858235 119.859522 
L 49.837076 118.695479 
L 50.815916 117.530916 
L 51.794757 116.366353 
L 52.773598 115.201791 
L 53.752439 114.058085 
L 54.73128 112.94158 
L 55.710121 111.823364 
L 56.688961 110.681719 
L 57.667802 109.472107 
L 58.646643 108.41496 
L 59.625484 107.438681 
L 60.604325 106.41316 
L 61.583165 105.42267 
L 62.562006 104.489855 
L 63.540847 103.540003 
L 64.519688 102.574038 
L 65.498529 101.667303 
L 66.47737 100.788985 
L 67.45621 99.911683 
L 68.435051 99.046385 
L 69.413892 98.189832 
L 70.392733 97.3249 
L 71.371574 96.468978 
L 72.350414 95.650335 
L 73.329255 94.825359 
L 74.308096 94.030707 
L 75.286937 93.209808 
L 76.265778 92.376191 
L 77.244619 91.563994 
L 78.223459 90.778978 
L 79.2023 89.9227 
L 80.181141 89.14869 
L 81.159982 88.358813 
L 82.138823 87.548898 
L 83.117664 86.737363 
L 84.096504 85.885068 
L 85.075345 85.069168 
L 86.054186 84.25573 
L 87.033027 83.451741 
L 88.011868 82.649533 
L 88.990708 81.844591 
L 89.969549 81.040511 
L 90.94839 80.236432 
L 91.927231 79.432352 
L 92.906072 78.626535 
L 93.884913 77.808545 
L 94.863753 77.002832 
L 95.842594 76.202672 
L 96.821435 75.392456 
L 97.800276 74.585938 
L 98.779117 73.79608 
L 99.757957 73.000846 
L 100.736798 72.197288 
L 101.715639 71.39373 
L 102.69448 70.59014 
L 103.673321 69.786426 
L 104.652162 69.012927 
L 105.631002 68.249517 
L 106.609843 67.433651 
L 107.588684 66.595454 
L 108.567525 65.815079 
L 109.546366 65.004033 
L 110.525206 64.17029 
L 111.504047 63.382689 
L 112.482888 62.557848 
L 113.461729 61.749282 
L 114.44057 60.945568 
L 115.419411 60.141854 
L 116.398251 59.338139 
L 117.377092 58.583663 
L 118.355933 57.904577 
L 119.334774 57.111512 
L 120.313615 56.347613 
L 121.292455 55.585816 
L 122.271296 54.761709 
L 123.250137 54.026882 
L 124.228978 53.270491 
L 125.207819 52.483365 
L 126.18666 51.695793 
L 127.1655 50.905768 
L 128.144341 50.115744 
L 129.123182 49.325719 
L 130.102023 48.560084 
L 131.080864 47.832342 
L 132.059704 47.050215 
L 133.038545 46.235224 
L 134.017386 45.420232 
L 134.996227 44.629437 
L 134.996227 14.444225 
L 134.996227 14.444225 
L 134.017386 15.590568 
L 133.038545 16.736912 
L 132.059704 17.888075 
L 131.080864 19.033121 
L 130.102023 20.178167 
L 129.123182 21.323213 
L 128.144341 22.46829 
L 127.1655 23.644682 
L 126.18666 24.823223 
L 125.207819 26.016067 
L 124.228978 27.219039 
L 123.250137 28.449459 
L 122.271296 29.621957 
L 121.292455 30.793262 
L 120.313615 31.995399 
L 119.334774 33.18597 
L 118.355933 34.332605 
L 117.377092 35.531425 
L 116.398251 36.744506 
L 115.419411 37.899346 
L 114.44057 39.071802 
L 113.461729 40.213875 
L 112.482888 41.356223 
L 111.504047 42.509129 
L 110.525206 43.674885 
L 109.546366 44.830782 
L 108.567525 45.974015 
L 107.588684 47.128543 
L 106.609843 48.312971 
L 105.631002 49.487612 
L 104.652162 50.639046 
L 103.673321 51.790499 
L 102.69448 52.921195 
L 101.715639 54.007218 
L 100.736798 55.136662 
L 99.757957 56.309157 
L 98.779117 57.481652 
L 97.800276 58.654147 
L 96.821435 59.826642 
L 95.842594 60.999137 
L 94.863753 62.147091 
L 93.884913 63.291819 
L 92.906072 64.436943 
L 91.927231 65.611589 
L 90.94839 66.76136 
L 89.969549 67.90958 
L 88.990708 69.052522 
L 88.011868 70.175069 
L 87.033027 71.295397 
L 86.054186 72.438434 
L 85.075345 73.58147 
L 84.096504 74.724506 
L 83.117664 75.867543 
L 82.138823 77.010579 
L 81.159982 78.153615 
L 80.181141 79.260088 
L 79.2023 80.399246 
L 78.223459 81.528196 
L 77.244619 82.647917 
L 76.265778 83.763986 
L 75.286937 84.838563 
L 74.308096 85.989201 
L 73.329255 87.123036 
L 72.350414 88.19456 
L 71.371574 89.298733 
L 70.392733 90.240992 
L 69.413892 91.206926 
L 68.435051 92.249367 
L 67.45621 93.252596 
L 66.47737 94.207004 
L 65.498529 95.056157 
L 64.519688 96.101255 
L 63.540847 97.069859 
L 62.562006 97.98268 
L 61.583165 98.842068 
L 60.604325 99.713788 
L 59.625484 100.604796 
L 58.646643 101.377187 
L 57.667802 102.206604 
L 56.688961 102.99682 
L 55.710121 103.831728 
L 54.73128 104.635347 
L 53.752439 105.439327 
L 52.773598 106.224682 
L 51.794757 107.029671 
L 50.815916 107.857398 
L 49.837076 108.655732 
L 48.858235 109.436553 
L 47.879394 110.190991 
L 46.900553 111.002989 
L 45.921712 111.818468 
L 44.942872 112.622014 
L 43.964031 113.370694 
L 42.98519 114.14099 
L 42.006349 114.920547 
L 41.027508 115.700104 
L 40.048667 116.451558 
L 39.069827 117.203215 
L 38.090986 118.015968 
z
" style="fill:#008000;fill-opacity:0.15;"/>
   </g>
   <g id="PathCollection_2">
    <defs>
     <path d="M 0 1.581139 
C 0.419323 1.581139 0.821528 1.41454 1.118034 1.118034 
C 1.41454 0.821528 1.581139 0.419323 1.581139 0 
C 1.581139 -0.419323 1.41454 -0.821528 1.118034 -1.118034 
C 0.821528 -1.41454 0.419323 -1.581139 0 -1.581139 
C -0.419323 -1.581139 -0.821528 -1.41454 -1.118034 -1.118034 
C -1.41454 -0.821528 -1.581139 -0.419323 -1.581139 0 
C -1.581139 0.419323 -1.41454 0.821528 -1.118034 1.118034 
C -0.821528 1.41454 -0.419323 1.581139 0 1.581139 
z
" id="mfce127d4d8" style="stroke:#000000;stroke-opacity:0.8;stroke-width:0.5;"/>
    </defs>
    <g clip-path="url(#p9a47143ab3)">
     <use style="fill:#ff0000;fill-opacity:0.8;stroke:#000000;stroke-opacity:0.8;stroke-width:0.5;" x="61.206831" xlink:href="#mfce127d4d8" y="124.663959"/>
     <use style="fill:#ff0000;fill-opacity:0.8;stroke:#000000;stroke-opacity:0.8;stroke-width:0.5;" x="63.956037" xlink:href="#mfce127d4d8" y="123.213336"/>
     <use style="fill:#ff0000;fill-opacity:0.8;stroke:#000000;stroke-opacity:0.8;stroke-width:0.5;" x="57.337795" xlink:href="#mfce127d4d8" y="125.509296"/>
     <use style="fill:#ff0000;fill-opacity:0.8;stroke:#000000;stroke-opacity:0.8;stroke-width:0.5;" x="70.627899" xlink:href="#mfce127d4d8" y="115.842344"/>
     <use style="fill:#ff0000;fill-opacity:0.8;stroke:#000000;stroke-opacity:0.8;stroke-width:0.5;" x="50.468767" xlink:href="#mfce127d4d8" y="126.776225"/>
     <use style="fill:#ff0000;fill-opacity:0.8;stroke:#000000;stroke-opacity:0.8;stroke-width:0.5;" x="50.446602" xlink:href="#mfce127d4d8" y="126.867857"/>
     <use style="fill:#ff0000;fill-opacity:0.8;stroke:#000000;stroke-opacity:0.8;stroke-width:0.5;" x="61.269213" xlink:href="#mfce127d4d8" y="124.537911"/>
     <use style="fill:#ff0000;fill-opacity:0.8;stroke:#000000;stroke-opacity:0.8;stroke-width:0.5;" x="54.282496" xlink:href="#mfce127d4d8" y="125.527364"/>
     <use style="fill:#ff0000;fill-opacity:0.8;stroke:#000000;stroke-opacity:0.8;stroke-width:0.5;" x="55.567724" xlink:href="#mfce127d4d8" y="123.473605"/>
     <use style="fill:#ff0000;fill-opacity:0.8;stroke:#000000;stroke-opacity:0.8;stroke-width:0.5;" x="57.063735" xlink:href="#mfce127d4d8" y="124.407992"/>
     <use style="fill:#ff0000;fill-opacity:0.8;stroke:#000000;stroke-opacity:0.8;stroke-width:0.5;" x="51.127451" xlink:href="#mfce127d4d8" y="119.558384"/>
     <use style="fill:#ff0000;fill-opacity:0.8;stroke:#000000;stroke-opacity:0.8;stroke-width:0.5;" x="50.21207" xlink:href="#mfce127d4d8" y="126.78698"/>
     <use style="fill:#ff0000;fill-opacity:0.8;stroke:#000000;stroke-opacity:0.8;stroke-width:0.5;" x="58.098493" xlink:href="#mfce127d4d8" y="123.185373"/>
     <use style="fill:#ff0000;fill-opacity:0.8;stroke:#000000;stroke-opacity:0.8;stroke-width:0.5;" x="62.270352" xlink:href="#mfce127d4d8" y="120.974592"/>
     <use style="fill:#ff0000;fill-opacity:0.8;stroke:#000000;stroke-opacity:0.8;stroke-width:0.5;" x="58.525126" xlink:href="#mfce127d4d8" y="124.405411"/>
     <use style="fill:#ff0000;fill-opacity:0.8;stroke:#000000;stroke-opacity:0.8;stroke-width:0.5;" x="98.017352" xlink:href="#mfce127d4d8" y="108.565995"/>
     <use style="fill:#ff0000;fill-opacity:0.8;stroke:#000000;stroke-opacity:0.8;stroke-width:0.5;" x="72.828718" xlink:href="#mfce127d4d8" y="120.226909"/>
     <use style="fill:#ff0000;fill-opacity:0.8;stroke:#000000;stroke-opacity:0.8;stroke-width:0.5;" x="56.94953" xlink:href="#mfce127d4d8" y="126.002731"/>
     <use style="fill:#ff0000;fill-opacity:0.8;stroke:#000000;stroke-opacity:0.8;stroke-width:0.5;" x="38.277492" xlink:href="#mfce127d4d8" y="128.269438"/>
     <use style="fill:#ff0000;fill-opacity:0.8;stroke:#000000;stroke-opacity:0.8;stroke-width:0.5;" x="38.481151" xlink:href="#mfce127d4d8" y="128.236313"/>
     <use style="fill:#ff0000;fill-opacity:0.8;stroke:#000000;stroke-opacity:0.8;stroke-width:0.5;" x="39.48303" xlink:href="#mfce127d4d8" y="128.576599"/>
     <use style="fill:#ff0000;fill-opacity:0.8;stroke:#000000;stroke-opacity:0.8;stroke-width:0.5;" x="38.868941" xlink:href="#mfce127d4d8" y="128.58004"/>
     <use style="fill:#ff0000;fill-opacity:0.8;stroke:#000000;stroke-opacity:0.8;stroke-width:0.5;" x="39.50736" xlink:href="#mfce127d4d8" y="128.566704"/>
     <use style="fill:#ff0000;fill-opacity:0.8;stroke:#000000;stroke-opacity:0.8;stroke-width:0.5;" x="39.438594" xlink:href="#mfce127d4d8" y="128.596818"/>
     <use style="fill:#ff0000;fill-opacity:0.8;stroke:#000000;stroke-opacity:0.8;stroke-width:0.5;" x="38.995865" xlink:href="#mfce127d4d8" y="128.586923"/>
     <use style="fill:#ff0000;fill-opacity:0.8;stroke:#000000;stroke-opacity:0.8;stroke-width:0.5;" x="38.049874" xlink:href="#mfce127d4d8" y="128.518952"/>
     <use style="fill:#ff0000;fill-opacity:0.8;stroke:#000000;stroke-opacity:0.8;stroke-width:0.5;" x="112.933083" xlink:href="#mfce127d4d8" y="102.902026"/>
     <use style="fill:#ff0000;fill-opacity:0.8;stroke:#000000;stroke-opacity:0.8;stroke-width:0.5;" x="51.478616" xlink:href="#mfce127d4d8" y="126.696639"/>
     <use style="fill:#ff0000;fill-opacity:0.8;stroke:#000000;stroke-opacity:0.8;stroke-width:0.5;" x="70.438593" xlink:href="#mfce127d4d8" y="121.414683"/>
     <use style="fill:#ff0000;fill-opacity:0.8;stroke:#000000;stroke-opacity:0.8;stroke-width:0.5;" x="56.104655" xlink:href="#mfce127d4d8" y="125.393143"/>
     <use style="fill:#ff0000;fill-opacity:0.8;stroke:#000000;stroke-opacity:0.8;stroke-width:0.5;" x="89.433246" xlink:href="#mfce127d4d8" y="115.327829"/>
     <use style="fill:#ff0000;fill-opacity:0.8;stroke:#000000;stroke-opacity:0.8;stroke-width:0.5;" x="38.65573" xlink:href="#mfce127d4d8" y="128.42603"/>
     <use style="fill:#ff0000;fill-opacity:0.8;stroke:#000000;stroke-opacity:0.8;stroke-width:0.5;" x="38.758958" xlink:href="#mfce127d4d8" y="128.482386"/>
     <use style="fill:#ff0000;fill-opacity:0.8;stroke:#000000;stroke-opacity:0.8;stroke-width:0.5;" x="39.378378" xlink:href="#mfce127d4d8" y="128.23072"/>
     <use style="fill:#ff0000;fill-opacity:0.8;stroke:#000000;stroke-opacity:0.8;stroke-width:0.5;" x="64.12898" xlink:href="#mfce127d4d8" y="118.320277"/>
     <use style="fill:#ff0000;fill-opacity:0.8;stroke:#000000;stroke-opacity:0.8;stroke-width:0.5;" x="66.387221" xlink:href="#mfce127d4d8" y="118.760369"/>
    </g>
   </g>
   <g id="PolyCollection_2">
    <path clip-path="url(#p9a47143ab3)" d="M 38.049874 128.62938 
L 38.049874 130.223385 
L 38.80627 129.971322 
L 39.562666 129.713278 
L 40.319062 129.454115 
L 41.075458 129.189181 
L 41.831854 128.929567 
L 42.58825 128.680085 
L 43.344646 128.429674 
L 44.101043 128.179703 
L 44.857439 127.929988 
L 45.613835 127.679695 
L 46.370231 127.432819 
L 47.126627 127.184929 
L 47.883023 126.948431 
L 48.639419 126.706535 
L 49.395815 126.467585 
L 50.152211 126.215042 
L 50.908607 125.979383 
L 51.665003 125.753487 
L 52.421399 125.514832 
L 53.177795 125.287816 
L 53.934191 125.057139 
L 54.690587 124.842031 
L 55.446983 124.622188 
L 56.203379 124.424606 
L 56.959775 124.186218 
L 57.716171 123.968127 
L 58.472568 123.770079 
L 59.228964 123.568602 
L 59.98536 123.355265 
L 60.741756 123.161617 
L 61.498152 122.963751 
L 62.254548 122.76344 
L 63.010944 122.56752 
L 63.76734 122.361041 
L 64.523736 122.154562 
L 65.280132 121.948083 
L 66.036528 121.741534 
L 66.792924 121.54225 
L 67.54932 121.345375 
L 68.305716 121.1485 
L 69.062112 120.951624 
L 69.818508 120.754228 
L 70.574904 120.558509 
L 71.3313 120.362078 
L 72.087696 120.165647 
L 72.844093 119.976584 
L 73.600489 119.792731 
L 74.356885 119.599846 
L 75.113281 119.389645 
L 75.869677 119.183493 
L 76.626073 118.987062 
L 77.382469 118.790631 
L 78.138865 118.5942 
L 78.895261 118.397769 
L 79.651657 118.201339 
L 80.408053 118.004908 
L 81.164449 117.808477 
L 81.920845 117.612046 
L 82.677241 117.415615 
L 83.433637 117.219184 
L 84.190033 117.022753 
L 84.946429 116.826143 
L 85.702825 116.629532 
L 86.459221 116.442934 
L 87.215618 116.256336 
L 87.972014 116.069738 
L 88.72841 115.880517 
L 89.484806 115.676927 
L 90.241202 115.473337 
L 90.997598 115.277622 
L 91.753994 115.08891 
L 92.51039 114.899972 
L 93.266786 114.712965 
L 94.023182 114.527265 
L 94.779578 114.341564 
L 95.535974 114.14675 
L 96.29237 113.955365 
L 97.048766 113.766589 
L 97.805162 113.577639 
L 98.561558 113.388689 
L 99.317954 113.195087 
L 100.07435 112.99958 
L 100.830746 112.804072 
L 101.587143 112.608565 
L 102.343539 112.413058 
L 103.099935 112.21755 
L 103.856331 112.022043 
L 104.612727 111.826535 
L 105.369123 111.631028 
L 106.125519 111.435521 
L 106.881915 111.240013 
L 107.638311 111.044506 
L 108.394707 110.848999 
L 109.151103 110.653375 
L 109.907499 110.457708 
L 110.663895 110.262041 
L 111.420291 110.066374 
L 112.176687 109.870674 
L 112.933083 109.674963 
L 112.933083 103.753421 
L 112.933083 103.753421 
L 112.176687 104.005453 
L 111.420291 104.257485 
L 110.663895 104.511633 
L 109.907499 104.76757 
L 109.151103 105.023507 
L 108.394707 105.279444 
L 107.638311 105.535463 
L 106.881915 105.791782 
L 106.125519 106.054728 
L 105.369123 106.321678 
L 104.612727 106.588628 
L 103.856331 106.845931 
L 103.099935 107.102488 
L 102.343539 107.359046 
L 101.587143 107.615619 
L 100.830746 107.872329 
L 100.07435 108.129038 
L 99.317954 108.385748 
L 98.561558 108.642474 
L 97.805162 108.899232 
L 97.048766 109.1643 
L 96.29237 109.430508 
L 95.535974 109.696744 
L 94.779578 109.962981 
L 94.023182 110.226453 
L 93.266786 110.48862 
L 92.51039 110.754121 
L 91.753994 111.019716 
L 90.997598 111.276575 
L 90.241202 111.536005 
L 89.484806 111.79431 
L 88.72841 112.053861 
L 87.972014 112.326601 
L 87.215618 112.5911 
L 86.459221 112.85508 
L 85.702825 113.119061 
L 84.946429 113.382849 
L 84.190033 113.646482 
L 83.433637 113.898528 
L 82.677241 114.153054 
L 81.920845 114.417346 
L 81.164449 114.66733 
L 80.408053 114.924259 
L 79.651657 115.183511 
L 78.895261 115.440035 
L 78.138865 115.699508 
L 77.382469 115.952261 
L 76.626073 116.205014 
L 75.869677 116.457767 
L 75.113281 116.724022 
L 74.356885 116.988495 
L 73.600489 117.258346 
L 72.844093 117.521472 
L 72.087696 117.775761 
L 71.3313 118.025957 
L 70.574904 118.276152 
L 69.818508 118.528022 
L 69.062112 118.776364 
L 68.305716 119.032472 
L 67.54932 119.284811 
L 66.792924 119.540152 
L 66.036528 119.795843 
L 65.280132 120.051534 
L 64.523736 120.307402 
L 63.76734 120.566257 
L 63.010944 120.829654 
L 62.254548 121.074633 
L 61.498152 121.330469 
L 60.741756 121.584509 
L 59.98536 121.84214 
L 59.228964 122.097975 
L 58.472568 122.349226 
L 57.716171 122.594877 
L 56.959775 122.843932 
L 56.203379 123.099246 
L 55.446983 123.346583 
L 54.690587 123.594124 
L 53.934191 123.843634 
L 53.177795 124.097829 
L 52.421399 124.353336 
L 51.665003 124.59613 
L 50.908607 124.848009 
L 50.152211 125.087902 
L 49.395815 125.334201 
L 48.639419 125.576648 
L 47.883023 125.80874 
L 47.126627 126.03419 
L 46.370231 126.270771 
L 45.613835 126.493309 
L 44.857439 126.718055 
L 44.101043 126.93118 
L 43.344646 127.146336 
L 42.58825 127.358052 
L 41.831854 127.564835 
L 41.075458 127.772431 
L 40.319062 127.99205 
L 39.562666 128.204511 
L 38.80627 128.413192 
L 38.049874 128.62938 
z
" style="fill:#ff0000;fill-opacity:0.15;"/>
   </g>
   <g id="PathCollection_3">
    <defs>
     <path d="M 0 1.581139 
C 0.419323 1.581139 0.821528 1.41454 1.118034 1.118034 
C 1.41454 0.821528 1.581139 0.419323 1.581139 0 
C 1.581139 -0.419323 1.41454 -0.821528 1.118034 -1.118034 
C 0.821528 -1.41454 0.419323 -1.581139 0 -1.581139 
C -0.419323 -1.581139 -0.821528 -1.41454 -1.118034 -1.118034 
C -1.41454 -0.821528 -1.581139 -0.419323 -1.581139 0 
C -1.581139 0.419323 -1.41454 0.821528 -1.118034 1.118034 
C -0.821528 1.41454 -0.419323 1.581139 0 1.581139 
z
" id="m0850caa26c" style="stroke:#000000;stroke-width:0.252982;"/>
    </defs>
    <g clip-path="url(#p9a47143ab3)">
     <use style="fill:#808080;stroke:#000000;stroke-width:0.252982;" x="38.277492" xlink:href="#m0850caa26c" y="128.269438"/>
     <use style="fill:#808080;stroke:#000000;stroke-width:0.252982;" x="38.481151" xlink:href="#m0850caa26c" y="128.236313"/>
     <use style="fill:#808080;stroke:#000000;stroke-width:0.252982;" x="39.48303" xlink:href="#m0850caa26c" y="128.576599"/>
     <use style="fill:#808080;stroke:#000000;stroke-width:0.252982;" x="38.868941" xlink:href="#m0850caa26c" y="128.58004"/>
     <use style="fill:#808080;stroke:#000000;stroke-width:0.252982;" x="39.50736" xlink:href="#m0850caa26c" y="128.566704"/>
     <use style="fill:#808080;stroke:#000000;stroke-width:0.252982;" x="39.438594" xlink:href="#m0850caa26c" y="128.596818"/>
     <use style="fill:#808080;stroke:#000000;stroke-width:0.252982;" x="38.995865" xlink:href="#m0850caa26c" y="128.586923"/>
     <use style="fill:#808080;stroke:#000000;stroke-width:0.252982;" x="38.049874" xlink:href="#m0850caa26c" y="128.518952"/>
     <use style="fill:#808080;stroke:#000000;stroke-width:0.252982;" x="38.65573" xlink:href="#m0850caa26c" y="128.42603"/>
     <use style="fill:#808080;stroke:#000000;stroke-width:0.252982;" x="38.090986" xlink:href="#m0850caa26c" y="128.037992"/>
     <use style="fill:#808080;stroke:#000000;stroke-width:0.252982;" x="39.967293" xlink:href="#m0850caa26c" y="125.897333"/>
     <use style="fill:#808080;stroke:#000000;stroke-width:0.252982;" x="38.758958" xlink:href="#m0850caa26c" y="128.482386"/>
     <use style="fill:#808080;stroke:#000000;stroke-width:0.252982;" x="39.378378" xlink:href="#m0850caa26c" y="128.23072"/>
     <use style="fill:#808080;stroke:#000000;stroke-width:0.252982;" x="40.570036" xlink:href="#m0850caa26c" y="125.054578"/>
    </g>
   </g>
   <g id="matplotlib.axis_1">
    <g id="xtick_1">
     <g id="line2d_3">
      <defs>
       <path d="M 0 0 
L 0 3.5 
" id="mf6787948b5" style="stroke:#000000;stroke-width:0.8;"/>
      </defs>
      <g>
       <use style="stroke:#000000;stroke-width:0.8;" x="37.65554" xlink:href="#mf6787948b5" y="138.978043"/>
      </g>
     </g>
     <g id="text_1">
      <!-- 0 -->
      <g transform="translate(36.064915 149.777262)scale(0.05 -0.05)">
       <defs>
        <path d="M 31.78125 66.40625 
Q 24.171875 66.40625 20.328125 58.90625 
Q 16.5 51.421875 16.5 36.375 
Q 16.5 21.390625 20.328125 13.890625 
Q 24.171875 6.390625 31.78125 6.390625 
Q 39.453125 6.390625 43.28125 13.890625 
Q 47.125 21.390625 47.125 36.375 
Q 47.125 51.421875 43.28125 58.90625 
Q 39.453125 66.40625 31.78125 66.40625 
z
M 31.78125 74.21875 
Q 44.046875 74.21875 50.515625 64.515625 
Q 56.984375 54.828125 56.984375 36.375 
Q 56.984375 17.96875 50.515625 8.265625 
Q 44.046875 -1.421875 31.78125 -1.421875 
Q 19.53125 -1.421875 13.0625 8.265625 
Q 6.59375 17.96875 6.59375 36.375 
Q 6.59375 54.828125 13.0625 64.515625 
Q 19.53125 74.21875 31.78125 74.21875 
z
" id="DejaVuSans-48"/>
       </defs>
       <use xlink:href="#DejaVuSans-48"/>
      </g>
     </g>
    </g>
    <g id="xtick_2">
     <g id="line2d_4">
      <g>
       <use style="stroke:#000000;stroke-width:0.8;" x="63.019176" xlink:href="#mf6787948b5" y="138.978043"/>
      </g>
     </g>
     <g id="text_2">
      <!-- 50 -->
      <g transform="translate(59.837926 149.777262)scale(0.05 -0.05)">
       <defs>
        <path d="M 10.796875 72.90625 
L 49.515625 72.90625 
L 49.515625 64.59375 
L 19.828125 64.59375 
L 19.828125 46.734375 
Q 21.96875 47.46875 24.109375 47.828125 
Q 26.265625 48.1875 28.421875 48.1875 
Q 40.625 48.1875 47.75 41.5 
Q 54.890625 34.8125 54.890625 23.390625 
Q 54.890625 11.625 47.5625 5.09375 
Q 40.234375 -1.421875 26.90625 -1.421875 
Q 22.3125 -1.421875 17.546875 -0.640625 
Q 12.796875 0.140625 7.71875 1.703125 
L 7.71875 11.625 
Q 12.109375 9.234375 16.796875 8.0625 
Q 21.484375 6.890625 26.703125 6.890625 
Q 35.15625 6.890625 40.078125 11.328125 
Q 45.015625 15.765625 45.015625 23.390625 
Q 45.015625 31 40.078125 35.4375 
Q 35.15625 39.890625 26.703125 39.890625 
Q 22.75 39.890625 18.8125 39.015625 
Q 14.890625 38.140625 10.796875 36.28125 
z
" id="DejaVuSans-53"/>
       </defs>
       <use xlink:href="#DejaVuSans-53"/>
       <use x="63.623047" xlink:href="#DejaVuSans-48"/>
      </g>
     </g>
    </g>
    <g id="xtick_3">
     <g id="line2d_5">
      <g>
       <use style="stroke:#000000;stroke-width:0.8;" x="88.382812" xlink:href="#mf6787948b5" y="138.978043"/>
      </g>
     </g>
     <g id="text_3">
      <!-- 100 -->
      <g transform="translate(83.610938 149.777262)scale(0.05 -0.05)">
       <defs>
        <path d="M 12.40625 8.296875 
L 28.515625 8.296875 
L 28.515625 63.921875 
L 10.984375 60.40625 
L 10.984375 69.390625 
L 28.421875 72.90625 
L 38.28125 72.90625 
L 38.28125 8.296875 
L 54.390625 8.296875 
L 54.390625 0 
L 12.40625 0 
z
" id="DejaVuSans-49"/>
       </defs>
       <use xlink:href="#DejaVuSans-49"/>
       <use x="63.623047" xlink:href="#DejaVuSans-48"/>
       <use x="127.246094" xlink:href="#DejaVuSans-48"/>
      </g>
     </g>
    </g>
    <g id="xtick_4">
     <g id="line2d_6">
      <g>
       <use style="stroke:#000000;stroke-width:0.8;" x="113.746449" xlink:href="#mf6787948b5" y="138.978043"/>
      </g>
     </g>
     <g id="text_4">
      <!-- 150 -->
      <g transform="translate(108.974574 149.777262)scale(0.05 -0.05)">
       <use xlink:href="#DejaVuSans-49"/>
       <use x="63.623047" xlink:href="#DejaVuSans-53"/>
       <use x="127.246094" xlink:href="#DejaVuSans-48"/>
      </g>
     </g>
    </g>
    <g id="xtick_5">
     <g id="line2d_7">
      <g>
       <use style="stroke:#000000;stroke-width:0.8;" x="139.110085" xlink:href="#mf6787948b5" y="138.978043"/>
      </g>
     </g>
     <g id="text_5">
      <!-- 200 -->
      <g transform="translate(134.33821 149.777262)scale(0.05 -0.05)">
       <defs>
        <path d="M 19.1875 8.296875 
L 53.609375 8.296875 
L 53.609375 0 
L 7.328125 0 
L 7.328125 8.296875 
Q 12.9375 14.109375 22.625 23.890625 
Q 32.328125 33.6875 34.8125 36.53125 
Q 39.546875 41.84375 41.421875 45.53125 
Q 43.3125 49.21875 43.3125 52.78125 
Q 43.3125 58.59375 39.234375 62.25 
Q 35.15625 65.921875 28.609375 65.921875 
Q 23.96875 65.921875 18.8125 64.3125 
Q 13.671875 62.703125 7.8125 59.421875 
L 7.8125 69.390625 
Q 13.765625 71.78125 18.9375 73 
Q 24.125 74.21875 28.421875 74.21875 
Q 39.75 74.21875 46.484375 68.546875 
Q 53.21875 62.890625 53.21875 53.421875 
Q 53.21875 48.921875 51.53125 44.890625 
Q 49.859375 40.875 45.40625 35.40625 
Q 44.1875 33.984375 37.640625 27.21875 
Q 31.109375 20.453125 19.1875 8.296875 
z
" id="DejaVuSans-50"/>
       </defs>
       <use xlink:href="#DejaVuSans-50"/>
       <use x="63.623047" xlink:href="#DejaVuSans-48"/>
       <use x="127.246094" xlink:href="#DejaVuSans-48"/>
      </g>
     </g>
    </g>
    <g id="text_6">
     <!-- pPCP1 Depth (X) -->
     <g transform="translate(67.577344 158.616325)scale(0.05 -0.05)">
      <defs>
       <path d="M 18.109375 8.203125 
L 18.109375 -20.796875 
L 9.078125 -20.796875 
L 9.078125 54.6875 
L 18.109375 54.6875 
L 18.109375 46.390625 
Q 20.953125 51.265625 25.265625 53.625 
Q 29.59375 56 35.59375 56 
Q 45.5625 56 51.78125 48.09375 
Q 58.015625 40.1875 58.015625 27.296875 
Q 58.015625 14.40625 51.78125 6.484375 
Q 45.5625 -1.421875 35.59375 -1.421875 
Q 29.59375 -1.421875 25.265625 0.953125 
Q 20.953125 3.328125 18.109375 8.203125 
z
M 48.6875 27.296875 
Q 48.6875 37.203125 44.609375 42.84375 
Q 40.53125 48.484375 33.40625 48.484375 
Q 26.265625 48.484375 22.1875 42.84375 
Q 18.109375 37.203125 18.109375 27.296875 
Q 18.109375 17.390625 22.1875 11.75 
Q 26.265625 6.109375 33.40625 6.109375 
Q 40.53125 6.109375 44.609375 11.75 
Q 48.6875 17.390625 48.6875 27.296875 
z
" id="DejaVuSans-112"/>
       <path d="M 19.671875 64.796875 
L 19.671875 37.40625 
L 32.078125 37.40625 
Q 38.96875 37.40625 42.71875 40.96875 
Q 46.484375 44.53125 46.484375 51.125 
Q 46.484375 57.671875 42.71875 61.234375 
Q 38.96875 64.796875 32.078125 64.796875 
z
M 9.8125 72.90625 
L 32.078125 72.90625 
Q 44.34375 72.90625 50.609375 67.359375 
Q 56.890625 61.8125 56.890625 51.125 
Q 56.890625 40.328125 50.609375 34.8125 
Q 44.34375 29.296875 32.078125 29.296875 
L 19.671875 29.296875 
L 19.671875 0 
L 9.8125 0 
z
" id="DejaVuSans-80"/>
       <path d="M 64.40625 67.28125 
L 64.40625 56.890625 
Q 59.421875 61.53125 53.78125 63.8125 
Q 48.140625 66.109375 41.796875 66.109375 
Q 29.296875 66.109375 22.65625 58.46875 
Q 16.015625 50.828125 16.015625 36.375 
Q 16.015625 21.96875 22.65625 14.328125 
Q 29.296875 6.6875 41.796875 6.6875 
Q 48.140625 6.6875 53.78125 8.984375 
Q 59.421875 11.28125 64.40625 15.921875 
L 64.40625 5.609375 
Q 59.234375 2.09375 53.4375 0.328125 
Q 47.65625 -1.421875 41.21875 -1.421875 
Q 24.65625 -1.421875 15.125 8.703125 
Q 5.609375 18.84375 5.609375 36.375 
Q 5.609375 53.953125 15.125 64.078125 
Q 24.65625 74.21875 41.21875 74.21875 
Q 47.75 74.21875 53.53125 72.484375 
Q 59.328125 70.75 64.40625 67.28125 
z
" id="DejaVuSans-67"/>
       <path id="DejaVuSans-32"/>
       <path d="M 19.671875 64.796875 
L 19.671875 8.109375 
L 31.59375 8.109375 
Q 46.6875 8.109375 53.6875 14.9375 
Q 60.6875 21.78125 60.6875 36.53125 
Q 60.6875 51.171875 53.6875 57.984375 
Q 46.6875 64.796875 31.59375 64.796875 
z
M 9.8125 72.90625 
L 30.078125 72.90625 
Q 51.265625 72.90625 61.171875 64.09375 
Q 71.09375 55.28125 71.09375 36.53125 
Q 71.09375 17.671875 61.125 8.828125 
Q 51.171875 0 30.078125 0 
L 9.8125 0 
z
" id="DejaVuSans-68"/>
       <path d="M 56.203125 29.59375 
L 56.203125 25.203125 
L 14.890625 25.203125 
Q 15.484375 15.921875 20.484375 11.0625 
Q 25.484375 6.203125 34.421875 6.203125 
Q 39.59375 6.203125 44.453125 7.46875 
Q 49.3125 8.734375 54.109375 11.28125 
L 54.109375 2.78125 
Q 49.265625 0.734375 44.1875 -0.34375 
Q 39.109375 -1.421875 33.890625 -1.421875 
Q 20.796875 -1.421875 13.15625 6.1875 
Q 5.515625 13.8125 5.515625 26.8125 
Q 5.515625 40.234375 12.765625 48.109375 
Q 20.015625 56 32.328125 56 
Q 43.359375 56 49.78125 48.890625 
Q 56.203125 41.796875 56.203125 29.59375 
z
M 47.21875 32.234375 
Q 47.125 39.59375 43.09375 43.984375 
Q 39.0625 48.390625 32.421875 48.390625 
Q 24.90625 48.390625 20.390625 44.140625 
Q 15.875 39.890625 15.1875 32.171875 
z
" id="DejaVuSans-101"/>
       <path d="M 18.3125 70.21875 
L 18.3125 54.6875 
L 36.8125 54.6875 
L 36.8125 47.703125 
L 18.3125 47.703125 
L 18.3125 18.015625 
Q 18.3125 11.328125 20.140625 9.421875 
Q 21.96875 7.515625 27.59375 7.515625 
L 36.8125 7.515625 
L 36.8125 0 
L 27.59375 0 
Q 17.1875 0 13.234375 3.875 
Q 9.28125 7.765625 9.28125 18.015625 
L 9.28125 47.703125 
L 2.6875 47.703125 
L 2.6875 54.6875 
L 9.28125 54.6875 
L 9.28125 70.21875 
z
" id="DejaVuSans-116"/>
       <path d="M 54.890625 33.015625 
L 54.890625 0 
L 45.90625 0 
L 45.90625 32.71875 
Q 45.90625 40.484375 42.875 44.328125 
Q 39.84375 48.1875 33.796875 48.1875 
Q 26.515625 48.1875 22.3125 43.546875 
Q 18.109375 38.921875 18.109375 30.90625 
L 18.109375 0 
L 9.078125 0 
L 9.078125 75.984375 
L 18.109375 75.984375 
L 18.109375 46.1875 
Q 21.34375 51.125 25.703125 53.5625 
Q 30.078125 56 35.796875 56 
Q 45.21875 56 50.046875 50.171875 
Q 54.890625 44.34375 54.890625 33.015625 
z
" id="DejaVuSans-104"/>
       <path d="M 31 75.875 
Q 24.46875 64.65625 21.28125 53.65625 
Q 18.109375 42.671875 18.109375 31.390625 
Q 18.109375 20.125 21.3125 9.0625 
Q 24.515625 -2 31 -13.1875 
L 23.1875 -13.1875 
Q 15.875 -1.703125 12.234375 9.375 
Q 8.59375 20.453125 8.59375 31.390625 
Q 8.59375 42.28125 12.203125 53.3125 
Q 15.828125 64.359375 23.1875 75.875 
z
" id="DejaVuSans-40"/>
       <path d="M 6.296875 72.90625 
L 16.890625 72.90625 
L 35.015625 45.796875 
L 53.21875 72.90625 
L 63.8125 72.90625 
L 40.375 37.890625 
L 65.375 0 
L 54.78125 0 
L 34.28125 31 
L 13.625 0 
L 2.984375 0 
L 29 38.921875 
z
" id="DejaVuSans-88"/>
       <path d="M 8.015625 75.875 
L 15.828125 75.875 
Q 23.140625 64.359375 26.78125 53.3125 
Q 30.421875 42.28125 30.421875 31.390625 
Q 30.421875 20.453125 26.78125 9.375 
Q 23.140625 -1.703125 15.828125 -13.1875 
L 8.015625 -13.1875 
Q 14.5 -2 17.703125 9.0625 
Q 20.90625 20.125 20.90625 31.390625 
Q 20.90625 42.671875 17.703125 53.65625 
Q 14.5 64.65625 8.015625 75.875 
z
" id="DejaVuSans-41"/>
      </defs>
      <use xlink:href="#DejaVuSans-112"/>
      <use x="63.476562" xlink:href="#DejaVuSans-80"/>
      <use x="123.779297" xlink:href="#DejaVuSans-67"/>
      <use x="193.603516" xlink:href="#DejaVuSans-80"/>
      <use x="253.90625" xlink:href="#DejaVuSans-49"/>
      <use x="317.529297" xlink:href="#DejaVuSans-32"/>
      <use x="349.316406" xlink:href="#DejaVuSans-68"/>
      <use x="426.318359" xlink:href="#DejaVuSans-101"/>
      <use x="487.841797" xlink:href="#DejaVuSans-112"/>
      <use x="551.318359" xlink:href="#DejaVuSans-116"/>
      <use x="590.527344" xlink:href="#DejaVuSans-104"/>
      <use x="653.90625" xlink:href="#DejaVuSans-32"/>
      <use x="685.693359" xlink:href="#DejaVuSans-40"/>
      <use x="724.707031" xlink:href="#DejaVuSans-88"/>
      <use x="793.212891" xlink:href="#DejaVuSans-41"/>
     </g>
    </g>
   </g>
   <g id="matplotlib.axis_2">
    <g id="ytick_1">
     <g id="line2d_8">
      <defs>
       <path d="M 0 0 
L -3.5 0 
" id="m0fc9fdb833" style="stroke:#000000;stroke-width:0.8;"/>
      </defs>
      <g>
       <use style="stroke:#000000;stroke-width:0.8;" x="32.582813" xlink:href="#m0fc9fdb833" y="128.611875"/>
      </g>
     </g>
     <g id="text_7">
      <!-- 0 -->
      <g transform="translate(22.401563 130.511484)scale(0.05 -0.05)">
       <use xlink:href="#DejaVuSans-48"/>
      </g>
     </g>
    </g>
    <g id="ytick_2">
     <g id="line2d_9">
      <g>
       <use style="stroke:#000000;stroke-width:0.8;" x="32.582813" xlink:href="#m0fc9fdb833" y="108.414136"/>
      </g>
     </g>
     <g id="text_8">
      <!-- 50 -->
      <g transform="translate(19.220313 110.313746)scale(0.05 -0.05)">
       <use xlink:href="#DejaVuSans-53"/>
       <use x="63.623047" xlink:href="#DejaVuSans-48"/>
      </g>
     </g>
    </g>
    <g id="ytick_3">
     <g id="line2d_10">
      <g>
       <use style="stroke:#000000;stroke-width:0.8;" x="32.582813" xlink:href="#m0fc9fdb833" y="88.216398"/>
      </g>
     </g>
     <g id="text_9">
      <!-- 100 -->
      <g transform="translate(16.039062 90.116007)scale(0.05 -0.05)">
       <use xlink:href="#DejaVuSans-49"/>
       <use x="63.623047" xlink:href="#DejaVuSans-48"/>
       <use x="127.246094" xlink:href="#DejaVuSans-48"/>
      </g>
     </g>
    </g>
    <g id="ytick_4">
     <g id="line2d_11">
      <g>
       <use style="stroke:#000000;stroke-width:0.8;" x="32.582813" xlink:href="#m0fc9fdb833" y="68.01866"/>
      </g>
     </g>
     <g id="text_10">
      <!-- 150 -->
      <g transform="translate(16.039062 69.918269)scale(0.05 -0.05)">
       <use xlink:href="#DejaVuSans-49"/>
       <use x="63.623047" xlink:href="#DejaVuSans-53"/>
       <use x="127.246094" xlink:href="#DejaVuSans-48"/>
      </g>
     </g>
    </g>
    <g id="ytick_5">
     <g id="line2d_12">
      <g>
       <use style="stroke:#000000;stroke-width:0.8;" x="32.582813" xlink:href="#m0fc9fdb833" y="47.820921"/>
      </g>
     </g>
     <g id="text_11">
      <!-- 200 -->
      <g transform="translate(16.039062 49.720531)scale(0.05 -0.05)">
       <use xlink:href="#DejaVuSans-50"/>
       <use x="63.623047" xlink:href="#DejaVuSans-48"/>
       <use x="127.246094" xlink:href="#DejaVuSans-48"/>
      </g>
     </g>
    </g>
    <g id="ytick_6">
     <g id="line2d_13">
      <g>
       <use style="stroke:#000000;stroke-width:0.8;" x="32.582813" xlink:href="#m0fc9fdb833" y="27.623183"/>
      </g>
     </g>
     <g id="text_12">
      <!-- 250 -->
      <g transform="translate(16.039062 29.522792)scale(0.05 -0.05)">
       <use xlink:href="#DejaVuSans-50"/>
       <use x="63.623047" xlink:href="#DejaVuSans-53"/>
       <use x="127.246094" xlink:href="#DejaVuSans-48"/>
      </g>
     </g>
    </g>
    <g id="text_13">
     <!-- pla Depth (X) -->
     <g transform="translate(10.999219 90.426903)rotate(-90)scale(0.05 -0.05)">
      <defs>
       <path d="M 9.421875 75.984375 
L 18.40625 75.984375 
L 18.40625 0 
L 9.421875 0 
z
" id="DejaVuSans-108"/>
       <path d="M 34.28125 27.484375 
Q 23.390625 27.484375 19.1875 25 
Q 14.984375 22.515625 14.984375 16.5 
Q 14.984375 11.71875 18.140625 8.90625 
Q 21.296875 6.109375 26.703125 6.109375 
Q 34.1875 6.109375 38.703125 11.40625 
Q 43.21875 16.703125 43.21875 25.484375 
L 43.21875 27.484375 
z
M 52.203125 31.203125 
L 52.203125 0 
L 43.21875 0 
L 43.21875 8.296875 
Q 40.140625 3.328125 35.546875 0.953125 
Q 30.953125 -1.421875 24.3125 -1.421875 
Q 15.921875 -1.421875 10.953125 3.296875 
Q 6 8.015625 6 15.921875 
Q 6 25.140625 12.171875 29.828125 
Q 18.359375 34.515625 30.609375 34.515625 
L 43.21875 34.515625 
L 43.21875 35.40625 
Q 43.21875 41.609375 39.140625 45 
Q 35.0625 48.390625 27.6875 48.390625 
Q 23 48.390625 18.546875 47.265625 
Q 14.109375 46.140625 10.015625 43.890625 
L 10.015625 52.203125 
Q 14.9375 54.109375 19.578125 55.046875 
Q 24.21875 56 28.609375 56 
Q 40.484375 56 46.34375 49.84375 
Q 52.203125 43.703125 52.203125 31.203125 
z
" id="DejaVuSans-97"/>
      </defs>
      <use xlink:href="#DejaVuSans-112"/>
      <use x="63.476562" xlink:href="#DejaVuSans-108"/>
      <use x="91.259766" xlink:href="#DejaVuSans-97"/>
      <use x="152.539062" xlink:href="#DejaVuSans-32"/>
      <use x="184.326172" xlink:href="#DejaVuSans-68"/>
      <use x="261.328125" xlink:href="#DejaVuSans-101"/>
      <use x="322.851562" xlink:href="#DejaVuSans-112"/>
      <use x="386.328125" xlink:href="#DejaVuSans-116"/>
      <use x="425.537109" xlink:href="#DejaVuSans-104"/>
      <use x="488.916016" xlink:href="#DejaVuSans-32"/>
      <use x="520.703125" xlink:href="#DejaVuSans-40"/>
      <use x="559.716797" xlink:href="#DejaVuSans-88"/>
      <use x="628.222656" xlink:href="#DejaVuSans-41"/>
     </g>
    </g>
   </g>
   <g id="patch_3">
    <path d="M 32.582813 138.978043 
L 32.582813 8.514043 
" style="fill:none;stroke:#000000;stroke-linecap:square;stroke-linejoin:miter;stroke-width:0.8;"/>
   </g>
   <g id="patch_4">
    <path d="M 144.182812 138.978043 
L 144.182812 8.514043 
" style="fill:none;stroke:#000000;stroke-linecap:square;stroke-linejoin:miter;stroke-width:0.8;"/>
   </g>
   <g id="patch_5">
    <path d="M 32.582813 138.978043 
L 144.182812 138.978043 
" style="fill:none;stroke:#000000;stroke-linecap:square;stroke-linejoin:miter;stroke-width:0.8;"/>
   </g>
   <g id="patch_6">
    <path d="M 32.582813 8.514043 
L 144.182812 8.514043 
" style="fill:none;stroke:#000000;stroke-linecap:square;stroke-linejoin:miter;stroke-width:0.8;"/>
   </g>
   <g id="legend_1">
    <g id="patch_7">
     <path d="M 36.082813 34.531231 
L 84.076563 34.531231 
Q 85.076563 34.531231 85.076563 33.531231 
L 85.076563 12.014043 
Q 85.076563 11.014043 84.076563 11.014043 
L 36.082813 11.014043 
Q 35.082813 11.014043 35.082813 12.014043 
L 35.082813 33.531231 
Q 35.082813 34.531231 36.082813 34.531231 
z
" style="fill:#ffffff;opacity:0.8;stroke:#000000;stroke-linejoin:miter;stroke-width:0.5;"/>
    </g>
    <g id="PathCollection_4">
     <g>
      <use style="fill:#008000;fill-opacity:0.8;stroke:#000000;stroke-opacity:0.8;stroke-width:0.5;" x="42.082813" xlink:href="#m3c0da6afbb" y="15.500762"/>
     </g>
    </g>
    <g id="text_14">
     <!-- pla Normal -->
     <g transform="translate(51.082813 16.813262)scale(0.05 -0.05)">
      <defs>
       <path d="M 9.8125 72.90625 
L 23.09375 72.90625 
L 55.421875 11.921875 
L 55.421875 72.90625 
L 64.984375 72.90625 
L 64.984375 0 
L 51.703125 0 
L 19.390625 60.984375 
L 19.390625 0 
L 9.8125 0 
z
" id="DejaVuSans-78"/>
       <path d="M 30.609375 48.390625 
Q 23.390625 48.390625 19.1875 42.75 
Q 14.984375 37.109375 14.984375 27.296875 
Q 14.984375 17.484375 19.15625 11.84375 
Q 23.34375 6.203125 30.609375 6.203125 
Q 37.796875 6.203125 41.984375 11.859375 
Q 46.1875 17.53125 46.1875 27.296875 
Q 46.1875 37.015625 41.984375 42.703125 
Q 37.796875 48.390625 30.609375 48.390625 
z
M 30.609375 56 
Q 42.328125 56 49.015625 48.375 
Q 55.71875 40.765625 55.71875 27.296875 
Q 55.71875 13.875 49.015625 6.21875 
Q 42.328125 -1.421875 30.609375 -1.421875 
Q 18.84375 -1.421875 12.171875 6.21875 
Q 5.515625 13.875 5.515625 27.296875 
Q 5.515625 40.765625 12.171875 48.375 
Q 18.84375 56 30.609375 56 
z
" id="DejaVuSans-111"/>
       <path d="M 41.109375 46.296875 
Q 39.59375 47.171875 37.8125 47.578125 
Q 36.03125 48 33.890625 48 
Q 26.265625 48 22.1875 43.046875 
Q 18.109375 38.09375 18.109375 28.8125 
L 18.109375 0 
L 9.078125 0 
L 9.078125 54.6875 
L 18.109375 54.6875 
L 18.109375 46.1875 
Q 20.953125 51.171875 25.484375 53.578125 
Q 30.03125 56 36.53125 56 
Q 37.453125 56 38.578125 55.875 
Q 39.703125 55.765625 41.0625 55.515625 
z
" id="DejaVuSans-114"/>
       <path d="M 52 44.1875 
Q 55.375 50.25 60.0625 53.125 
Q 64.75 56 71.09375 56 
Q 79.640625 56 84.28125 50.015625 
Q 88.921875 44.046875 88.921875 33.015625 
L 88.921875 0 
L 79.890625 0 
L 79.890625 32.71875 
Q 79.890625 40.578125 77.09375 44.375 
Q 74.3125 48.1875 68.609375 48.1875 
Q 61.625 48.1875 57.5625 43.546875 
Q 53.515625 38.921875 53.515625 30.90625 
L 53.515625 0 
L 44.484375 0 
L 44.484375 32.71875 
Q 44.484375 40.625 41.703125 44.40625 
Q 38.921875 48.1875 33.109375 48.1875 
Q 26.21875 48.1875 22.15625 43.53125 
Q 18.109375 38.875 18.109375 30.90625 
L 18.109375 0 
L 9.078125 0 
L 9.078125 54.6875 
L 18.109375 54.6875 
L 18.109375 46.1875 
Q 21.1875 51.21875 25.484375 53.609375 
Q 29.78125 56 35.6875 56 
Q 41.65625 56 45.828125 52.96875 
Q 50 49.953125 52 44.1875 
z
" id="DejaVuSans-109"/>
      </defs>
      <use xlink:href="#DejaVuSans-112"/>
      <use x="63.476562" xlink:href="#DejaVuSans-108"/>
      <use x="91.259766" xlink:href="#DejaVuSans-97"/>
      <use x="152.539062" xlink:href="#DejaVuSans-32"/>
      <use x="184.326172" xlink:href="#DejaVuSans-78"/>
      <use x="259.130859" xlink:href="#DejaVuSans-111"/>
      <use x="320.3125" xlink:href="#DejaVuSans-114"/>
      <use x="359.675781" xlink:href="#DejaVuSans-109"/>
      <use x="457.087891" xlink:href="#DejaVuSans-97"/>
      <use x="518.367188" xlink:href="#DejaVuSans-108"/>
     </g>
    </g>
    <g id="PathCollection_5">
     <g>
      <use style="fill:#ff0000;fill-opacity:0.8;stroke:#000000;stroke-opacity:0.8;stroke-width:0.5;" x="42.082813" xlink:href="#mfce127d4d8" y="22.839825"/>
     </g>
    </g>
    <g id="text_15">
     <!-- pla Depleted -->
     <g transform="translate(51.082813 24.152325)scale(0.05 -0.05)">
      <defs>
       <path d="M 45.40625 46.390625 
L 45.40625 75.984375 
L 54.390625 75.984375 
L 54.390625 0 
L 45.40625 0 
L 45.40625 8.203125 
Q 42.578125 3.328125 38.25 0.953125 
Q 33.9375 -1.421875 27.875 -1.421875 
Q 17.96875 -1.421875 11.734375 6.484375 
Q 5.515625 14.40625 5.515625 27.296875 
Q 5.515625 40.1875 11.734375 48.09375 
Q 17.96875 56 27.875 56 
Q 33.9375 56 38.25 53.625 
Q 42.578125 51.265625 45.40625 46.390625 
z
M 14.796875 27.296875 
Q 14.796875 17.390625 18.875 11.75 
Q 22.953125 6.109375 30.078125 6.109375 
Q 37.203125 6.109375 41.296875 11.75 
Q 45.40625 17.390625 45.40625 27.296875 
Q 45.40625 37.203125 41.296875 42.84375 
Q 37.203125 48.484375 30.078125 48.484375 
Q 22.953125 48.484375 18.875 42.84375 
Q 14.796875 37.203125 14.796875 27.296875 
z
" id="DejaVuSans-100"/>
      </defs>
      <use xlink:href="#DejaVuSans-112"/>
      <use x="63.476562" xlink:href="#DejaVuSans-108"/>
      <use x="91.259766" xlink:href="#DejaVuSans-97"/>
      <use x="152.539062" xlink:href="#DejaVuSans-32"/>
      <use x="184.326172" xlink:href="#DejaVuSans-68"/>
      <use x="261.328125" xlink:href="#DejaVuSans-101"/>
      <use x="322.851562" xlink:href="#DejaVuSans-112"/>
      <use x="386.328125" xlink:href="#DejaVuSans-108"/>
      <use x="414.111328" xlink:href="#DejaVuSans-101"/>
      <use x="475.634766" xlink:href="#DejaVuSans-116"/>
      <use x="514.84375" xlink:href="#DejaVuSans-101"/>
      <use x="576.367188" xlink:href="#DejaVuSans-100"/>
     </g>
    </g>
    <g id="PathCollection_6">
     <g>
      <use style="fill:#808080;stroke:#000000;stroke-width:0.252982;" x="42.082813" xlink:href="#m0850caa26c" y="30.178887"/>
     </g>
    </g>
    <g id="text_16">
     <!-- Low pPCP1 -->
     <g transform="translate(51.082813 31.491387)scale(0.05 -0.05)">
      <defs>
       <path d="M 9.8125 72.90625 
L 19.671875 72.90625 
L 19.671875 8.296875 
L 55.171875 8.296875 
L 55.171875 0 
L 9.8125 0 
z
" id="DejaVuSans-76"/>
       <path d="M 4.203125 54.6875 
L 13.1875 54.6875 
L 24.421875 12.015625 
L 35.59375 54.6875 
L 46.1875 54.6875 
L 57.421875 12.015625 
L 68.609375 54.6875 
L 77.59375 54.6875 
L 63.28125 0 
L 52.6875 0 
L 40.921875 44.828125 
L 29.109375 0 
L 18.5 0 
z
" id="DejaVuSans-119"/>
      </defs>
      <use xlink:href="#DejaVuSans-76"/>
      <use x="53.962891" xlink:href="#DejaVuSans-111"/>
      <use x="115.144531" xlink:href="#DejaVuSans-119"/>
      <use x="196.931641" xlink:href="#DejaVuSans-32"/>
      <use x="228.71875" xlink:href="#DejaVuSans-112"/>
      <use x="292.195312" xlink:href="#DejaVuSans-80"/>
      <use x="352.498047" xlink:href="#DejaVuSans-67"/>
      <use x="422.322266" xlink:href="#DejaVuSans-80"/>
      <use x="482.625" xlink:href="#DejaVuSans-49"/>
     </g>
    </g>
   </g>
  </g>
  <g id="axes_2">
   <g id="patch_8">
    <path d="M 188.822812 138.978043 
L 300.422813 138.978043 
L 300.422813 8.514043 
L 188.822812 8.514043 
z
" style="fill:#ffffff;"/>
   </g>
   <g id="patch_9">
    <path clip-path="url(#pef362fa048)" d="M 238.908302 118.803075 
L 264.931305 118.803075 
L 264.931305 117.377888 
L 238.908302 117.377888 
z
" style="fill:#ff0000;opacity:0.2;"/>
   </g>
   <g id="patch_10">
    <path clip-path="url(#pef362fa048)" d="M 237.677484 115.435463 
L 263.700487 115.435463 
L 263.700487 114.010275 
L 237.677484 114.010275 
z
" style="fill:#ff0000;opacity:0.2;"/>
   </g>
   <g id="patch_11">
    <path clip-path="url(#pef362fa048)" d="M 237.501653 119.697679 
L 263.348825 119.697679 
L 263.348825 118.272491 
L 237.501653 118.272491 
z
" style="fill:#ff0000;opacity:0.2;"/>
   </g>
   <g id="patch_12">
    <path clip-path="url(#pef362fa048)" d="M 236.97416 99.147733 
L 263.172994 99.147733 
L 263.172994 97.722545 
L 236.97416 97.722545 
z
" style="fill:#ff0000;opacity:0.2;"/>
   </g>
   <g id="patch_13">
    <path clip-path="url(#pef362fa048)" d="M 239.084133 120.983689 
L 265.458798 120.983689 
L 265.458798 119.558502 
L 239.084133 119.558502 
z
" style="fill:#ff0000;opacity:0.2;"/>
   </g>
   <g id="patch_14">
    <path clip-path="url(#pef362fa048)" d="M 238.732471 121.602523 
L 265.986291 121.602523 
L 265.986291 120.177335 
L 238.732471 120.177335 
z
" style="fill:#ff0000;opacity:0.2;"/>
   </g>
   <g id="patch_15">
    <path clip-path="url(#pef362fa048)" d="M 237.853315 118.365039 
L 264.22798 118.365039 
L 264.22798 116.939851 
L 237.853315 116.939851 
z
" style="fill:#ff0000;opacity:0.2;"/>
   </g>
   <g id="patch_16">
    <path clip-path="url(#pef362fa048)" d="M 238.380808 117.202892 
L 264.403811 117.202892 
L 264.403811 115.777705 
L 238.380808 115.777705 
z
" style="fill:#ff0000;opacity:0.2;"/>
   </g>
   <g id="patch_17">
    <path clip-path="url(#pef362fa048)" d="M 213.588623 108.133909 
L 243.128248 108.133909 
L 243.128248 106.708722 
L 213.588623 106.708722 
z
" style="fill:#ff0000;opacity:0.2;"/>
   </g>
   <g id="patch_18">
    <path clip-path="url(#pef362fa048)" d="M 225.193476 114.420727 
L 251.216479 114.420727 
L 251.216479 112.995539 
L 225.193476 112.995539 
z
" style="fill:#ff0000;opacity:0.2;"/>
   </g>
   <g id="patch_19">
    <path clip-path="url(#pef362fa048)" d="M 198.115486 73.667086 
L 223.435165 73.667086 
L 223.435165 72.241899 
L 198.115486 72.241899 
z
" style="fill:#ff0000;opacity:0.2;"/>
   </g>
   <g id="patch_20">
    <path clip-path="url(#pef362fa048)" d="M 204.093744 62.311488 
L 230.64424 62.311488 
L 230.64424 60.886301 
L 204.093744 60.886301 
z
" style="fill:#008000;opacity:0.2;"/>
   </g>
   <g id="patch_21">
    <path clip-path="url(#pef362fa048)" d="M 232.050889 120.798256 
L 259.304709 120.798256 
L 259.304709 119.373069 
L 232.050889 119.373069 
z
" style="fill:#ff0000;opacity:0.2;"/>
   </g>
   <g id="patch_22">
    <path clip-path="url(#pef362fa048)" d="M 193.89554 51.564995 
L 219.918543 51.564995 
L 219.918543 50.139808 
L 193.89554 50.139808 
z
" style="fill:#008000;opacity:0.2;"/>
   </g>
   <g id="patch_23">
    <path clip-path="url(#pef362fa048)" d="M 223.083503 110.050039 
L 251.216479 110.050039 
L 251.216479 108.624852 
L 223.083503 108.624852 
z
" style="fill:#ff0000;opacity:0.2;"/>
   </g>
   <g id="patch_24">
    <path clip-path="url(#pef362fa048)" d="M 251.040648 106.038804 
L 274.074522 106.038804 
L 274.074522 104.613616 
L 251.040648 104.613616 
z
" style="fill:#ff0000;opacity:0.2;"/>
   </g>
   <g id="patch_25">
    <path clip-path="url(#pef362fa048)" d="M 245.414052 115.766937 
L 269.854576 115.766937 
L 269.854576 114.34175 
L 245.414052 114.34175 
z
" style="fill:#ff0000;opacity:0.2;"/>
   </g>
   <g id="patch_26">
    <path clip-path="url(#pef362fa048)" d="M 242.249093 104.085921 
L 267.041278 104.085921 
L 267.041278 102.660734 
L 242.249093 102.660734 
z
" style="fill:#ff0000;opacity:0.2;"/>
   </g>
   <g id="patch_27">
    <path clip-path="url(#pef362fa048)" d="M 246.469039 112.471078 
L 271.085393 112.471078 
L 271.085393 111.04589 
L 246.469039 111.04589 
z
" style="fill:#ff0000;opacity:0.2;"/>
   </g>
   <g id="patch_28">
    <path clip-path="url(#pef362fa048)" d="M 246.469039 121.702362 
L 271.437055 121.702362 
L 271.437055 120.277174 
L 246.469039 120.277174 
z
" style="fill:#ff0000;opacity:0.2;"/>
   </g>
   <g id="patch_29">
    <path clip-path="url(#pef362fa048)" d="M 198.291317 32.928616 
L 225.193476 32.928616 
L 225.193476 31.503429 
L 198.291317 31.503429 
z
" style="fill:#008000;opacity:0.2;"/>
   </g>
   <g id="patch_30">
    <path clip-path="url(#pef362fa048)" d="M 197.939655 29.547582 
L 223.962658 29.547582 
L 223.962658 28.122394 
L 197.939655 28.122394 
z
" style="fill:#008000;opacity:0.2;"/>
   </g>
   <g id="patch_31">
    <path clip-path="url(#pef362fa048)" d="M 206.555379 27.721582 
L 231.523395 27.721582 
L 231.523395 26.296394 
L 206.555379 26.296394 
z
" style="fill:#008000;opacity:0.2;"/>
   </g>
   <g id="patch_32">
    <path clip-path="url(#pef362fa048)" d="M 204.445406 44.088189 
L 229.765084 44.088189 
L 229.765084 42.663002 
L 204.445406 42.663002 
z
" style="fill:#008000;opacity:0.2;"/>
   </g>
   <g id="patch_33">
    <path clip-path="url(#pef362fa048)" d="M 206.73121 84.534527 
L 230.116747 84.534527 
L 230.116747 83.109339 
L 206.73121 83.109339 
z
" style="fill:#808080;opacity:0.2;"/>
   </g>
   <g id="patch_34">
    <path clip-path="url(#pef362fa048)" d="M 198.291317 93.097682 
L 224.490151 93.097682 
L 224.490151 91.672495 
L 198.291317 91.672495 
z
" style="fill:#808080;opacity:0.2;"/>
   </g>
   <g id="patch_35">
    <path clip-path="url(#pef362fa048)" d="M 267.568771 132.076179 
L 288.316841 132.076179 
L 288.316841 130.650991 
L 267.568771 130.650991 
z
" style="fill:#ff0000;opacity:0.2;"/>
   </g>
   <g id="patch_36">
    <path clip-path="url(#pef362fa048)" d="M 267.568771 131.4558 
L 288.316841 131.4558 
L 288.316841 130.030613 
L 267.568771 130.030613 
z
" style="fill:#808080;opacity:0.2;"/>
   </g>
   <g id="patch_37">
    <path clip-path="url(#pef362fa048)" d="M 267.568771 131.62074 
L 288.316841 131.62074 
L 288.316841 130.195553 
L 267.568771 130.195553 
z
" style="fill:#ff0000;opacity:0.2;"/>
   </g>
   <g id="patch_38">
    <path clip-path="url(#pef362fa048)" d="M 267.568771 133.047862 
L 288.316841 133.047862 
L 288.316841 131.622674 
L 267.568771 131.622674 
z
" style="fill:#ff0000;opacity:0.2;"/>
   </g>
   <g id="patch_39">
    <path clip-path="url(#pef362fa048)" d="M 267.568771 132.137665 
L 288.316841 132.137665 
L 288.316841 130.712477 
L 267.568771 130.712477 
z
" style="fill:#808080;opacity:0.2;"/>
   </g>
   <g id="patch_40">
    <path clip-path="url(#pef362fa048)" d="M 202.159602 112.716883 
L 222.907671 112.716883 
L 222.907671 111.291696 
L 202.159602 111.291696 
z
" style="fill:#808080;opacity:0.2;"/>
   </g>
   <g id="patch_41">
    <path clip-path="url(#pef362fa048)" d="M 201.280446 17.923764 
L 228.006773 17.923764 
L 228.006773 16.498577 
L 201.280446 16.498577 
z
" style="fill:#008000;opacity:0.2;"/>
   </g>
   <g id="patch_42">
    <path clip-path="url(#pef362fa048)" d="M 287.261855 103.241295 
L 295.350085 103.241295 
L 295.350085 101.816108 
L 287.261855 101.816108 
z
" style="fill:#ff0000;opacity:0.2;"/>
   </g>
   <g id="patch_43">
    <path clip-path="url(#pef362fa048)" d="M 275.832833 40.141439 
L 295.350085 40.141439 
L 295.350085 38.716251 
L 275.832833 38.716251 
z
" style="fill:#008000;opacity:0.2;"/>
   </g>
   <g id="patch_44">
    <path clip-path="url(#pef362fa048)" d="M 246.469039 121.405034 
L 280.228611 121.405034 
L 280.228611 119.979847 
L 246.469039 119.979847 
z
" style="fill:#ff0000;opacity:0.2;"/>
   </g>
   <g id="patch_45">
    <path clip-path="url(#pef362fa048)" d="M 224.490151 62.492309 
L 252.798959 62.492309 
L 252.798959 61.067121 
L 224.490151 61.067121 
z
" style="fill:#008000;opacity:0.2;"/>
   </g>
   <g id="patch_46">
    <path clip-path="url(#pef362fa048)" d="M 223.435165 114.157951 
L 246.996532 114.157951 
L 246.996532 112.732764 
L 223.435165 112.732764 
z
" style="fill:#ff0000;opacity:0.2;"/>
   </g>
   <g id="patch_47">
    <path clip-path="url(#pef362fa048)" d="M 226.951787 118.191458 
L 254.205608 118.191458 
L 254.205608 116.766271 
L 226.951787 116.766271 
z
" style="fill:#ff0000;opacity:0.2;"/>
   </g>
   <g id="patch_48">
    <path clip-path="url(#pef362fa048)" d="M 224.490151 110.845287 
L 252.447297 110.845287 
L 252.447297 109.420099 
L 224.490151 109.420099 
z
" style="fill:#ff0000;opacity:0.2;"/>
   </g>
   <g id="patch_49">
    <path clip-path="url(#pef362fa048)" d="M 240.666613 117.176322 
L 273.72286 117.176322 
L 273.72286 115.751135 
L 240.666613 115.751135 
z
" style="fill:#808080;opacity:0.2;"/>
   </g>
   <g id="patch_50">
    <path clip-path="url(#pef362fa048)" d="M 196.181344 15.869413 
L 224.490151 15.869413 
L 224.490151 14.444225 
L 196.181344 14.444225 
z
" style="fill:#808080;opacity:0.2;"/>
   </g>
   <g id="patch_51">
    <path clip-path="url(#pef362fa048)" d="M 200.049628 28.726969 
L 228.006773 28.726969 
L 228.006773 27.301782 
L 200.049628 27.301782 
z
" style="fill:#008000;opacity:0.2;"/>
   </g>
   <g id="patch_52">
    <path clip-path="url(#pef362fa048)" d="M 228.710098 123.302185 
L 256.315581 123.302185 
L 256.315581 121.876998 
L 228.710098 121.876998 
z
" style="fill:#808080;opacity:0.2;"/>
   </g>
   <g id="patch_53">
    <path clip-path="url(#pef362fa048)" d="M 230.292578 114.006155 
L 258.777216 114.006155 
L 258.777216 112.580968 
L 230.292578 112.580968 
z
" style="fill:#ff0000;opacity:0.2;"/>
   </g>
   <g id="patch_54">
    <path clip-path="url(#pef362fa048)" d="M 215.346934 99.016015 
L 242.776586 99.016015 
L 242.776586 97.590828 
L 215.346934 97.590828 
z
" style="fill:#ff0000;opacity:0.2;"/>
   </g>
   <g id="patch_55">
    <path clip-path="url(#pef362fa048)" d="M 218.511894 103.120899 
L 245.765715 103.120899 
L 245.765715 101.695712 
L 218.511894 101.695712 
z
" style="fill:#ff0000;opacity:0.2;"/>
   </g>
   <g id="patch_56">
    <path clip-path="url(#pef362fa048)" d="M 213.236961 24.218541 
L 242.073262 24.218541 
L 242.073262 22.793353 
L 213.236961 22.793353 
z
" style="fill:#008000;opacity:0.2;"/>
   </g>
   <g id="patch_57">
    <path clip-path="url(#pef362fa048)" d="M 203.214588 24.582185 
L 232.402551 24.582185 
L 232.402551 23.156998 
L 203.214588 23.156998 
z
" style="fill:#008000;opacity:0.2;"/>
   </g>
   <g id="line2d_14">
    <path clip-path="url(#pef362fa048)" d="M 188.822812 62.544139 
L 300.422813 62.544139 
" style="fill:none;stroke:#000000;stroke-dasharray:1.85,0.8;stroke-dashoffset:0;stroke-width:0.5;"/>
   </g>
   <g id="PathCollection_7">
    <defs>
     <path d="M 0 1.581139 
C 0.419323 1.581139 0.821528 1.41454 1.118034 1.118034 
C 1.41454 0.821528 1.581139 0.419323 1.581139 0 
C 1.581139 -0.419323 1.41454 -0.821528 1.118034 -1.118034 
C 0.821528 -1.41454 0.419323 -1.581139 0 -1.581139 
C -0.419323 -1.581139 -0.821528 -1.41454 -1.118034 -1.118034 
C -1.41454 -0.821528 -1.581139 -0.419323 -1.581139 0 
C -1.581139 0.419323 -1.41454 0.821528 -1.118034 1.118034 
C -0.821528 1.41454 -0.419323 1.581139 0 1.581139 
z
" id="mbbf5957b2e" style="stroke:#000000;stroke-width:0.252982;"/>
    </defs>
    <g clip-path="url(#pef362fa048)">
     <use style="fill:#008000;stroke:#000000;stroke-width:0.252982;" x="218.336063" xlink:href="#mbbf5957b2e" y="62.311488"/>
     <use style="fill:#008000;stroke:#000000;stroke-width:0.252982;" x="208.31369" xlink:href="#mbbf5957b2e" y="51.564995"/>
     <use style="fill:#008000;stroke:#000000;stroke-width:0.252982;" x="213.764454" xlink:href="#mbbf5957b2e" y="32.928616"/>
     <use style="fill:#008000;stroke:#000000;stroke-width:0.252982;" x="212.006143" xlink:href="#mbbf5957b2e" y="29.547582"/>
     <use style="fill:#008000;stroke:#000000;stroke-width:0.252982;" x="220.270205" xlink:href="#mbbf5957b2e" y="27.721582"/>
     <use style="fill:#008000;stroke:#000000;stroke-width:0.252982;" x="218.687725" xlink:href="#mbbf5957b2e" y="44.088189"/>
     <use style="fill:#008000;stroke:#000000;stroke-width:0.252982;" x="215.874427" xlink:href="#mbbf5957b2e" y="17.923764"/>
     <use style="fill:#008000;stroke:#000000;stroke-width:0.252982;" x="288.668503" xlink:href="#mbbf5957b2e" y="40.141439"/>
     <use style="fill:#008000;stroke:#000000;stroke-width:0.252982;" x="239.787457" xlink:href="#mbbf5957b2e" y="62.492309"/>
     <use style="fill:#008000;stroke:#000000;stroke-width:0.252982;" x="212.357805" xlink:href="#mbbf5957b2e" y="15.869413"/>
     <use style="fill:#008000;stroke:#000000;stroke-width:0.252982;" x="215.171103" xlink:href="#mbbf5957b2e" y="28.726969"/>
     <use style="fill:#008000;stroke:#000000;stroke-width:0.252982;" x="229.06176" xlink:href="#mbbf5957b2e" y="24.218541"/>
     <use style="fill:#008000;stroke:#000000;stroke-width:0.252982;" x="218.687725" xlink:href="#mbbf5957b2e" y="24.582185"/>
    </g>
   </g>
   <g id="PathCollection_8">
    <defs>
     <path d="M 0 1.581139 
C 0.419323 1.581139 0.821528 1.41454 1.118034 1.118034 
C 1.41454 0.821528 1.581139 0.419323 1.581139 0 
C 1.581139 -0.419323 1.41454 -0.821528 1.118034 -1.118034 
C 0.821528 -1.41454 0.419323 -1.581139 0 -1.581139 
C -0.419323 -1.581139 -0.821528 -1.41454 -1.118034 -1.118034 
C -1.41454 -0.821528 -1.581139 -0.419323 -1.581139 0 
C -1.581139 0.419323 -1.41454 0.821528 -1.118034 1.118034 
C -0.821528 1.41454 -0.419323 1.581139 0 1.581139 
z
" id="m0d418fc95b" style="stroke:#000000;stroke-width:0.252982;"/>
    </defs>
    <g clip-path="url(#pef362fa048)">
     <use style="fill:#ff0000;stroke:#000000;stroke-width:0.252982;" x="253.502283" xlink:href="#m0d418fc95b" y="118.803075"/>
     <use style="fill:#ff0000;stroke:#000000;stroke-width:0.252982;" x="252.095634" xlink:href="#m0d418fc95b" y="115.435463"/>
     <use style="fill:#ff0000;stroke:#000000;stroke-width:0.252982;" x="252.095634" xlink:href="#m0d418fc95b" y="119.697679"/>
     <use style="fill:#ff0000;stroke:#000000;stroke-width:0.252982;" x="251.743972" xlink:href="#m0d418fc95b" y="99.147733"/>
     <use style="fill:#ff0000;stroke:#000000;stroke-width:0.252982;" x="254.205608" xlink:href="#m0d418fc95b" y="120.983689"/>
     <use style="fill:#ff0000;stroke:#000000;stroke-width:0.252982;" x="254.029776" xlink:href="#m0d418fc95b" y="121.602523"/>
     <use style="fill:#ff0000;stroke:#000000;stroke-width:0.252982;" x="252.623128" xlink:href="#m0d418fc95b" y="118.365039"/>
     <use style="fill:#ff0000;stroke:#000000;stroke-width:0.252982;" x="252.97479" xlink:href="#m0d418fc95b" y="117.202892"/>
     <use style="fill:#ff0000;stroke:#000000;stroke-width:0.252982;" x="229.765084" xlink:href="#m0d418fc95b" y="108.133909"/>
     <use style="fill:#ff0000;stroke:#000000;stroke-width:0.252982;" x="239.963288" xlink:href="#m0d418fc95b" y="114.420727"/>
     <use style="fill:#ff0000;stroke:#000000;stroke-width:0.252982;" x="212.006143" xlink:href="#m0d418fc95b" y="73.667086"/>
     <use style="fill:#ff0000;stroke:#000000;stroke-width:0.252982;" x="247.172363" xlink:href="#m0d418fc95b" y="120.798256"/>
     <use style="fill:#ff0000;stroke:#000000;stroke-width:0.252982;" x="239.084133" xlink:href="#m0d418fc95b" y="110.050039"/>
     <use style="fill:#ff0000;stroke:#000000;stroke-width:0.252982;" x="264.579642" xlink:href="#m0d418fc95b" y="106.038804"/>
     <use style="fill:#ff0000;stroke:#000000;stroke-width:0.252982;" x="259.656372" xlink:href="#m0d418fc95b" y="115.766937"/>
     <use style="fill:#ff0000;stroke:#000000;stroke-width:0.252982;" x="256.491412" xlink:href="#m0d418fc95b" y="104.085921"/>
     <use style="fill:#ff0000;stroke:#000000;stroke-width:0.252982;" x="260.711358" xlink:href="#m0d418fc95b" y="112.471078"/>
     <use style="fill:#ff0000;stroke:#000000;stroke-width:0.252982;" x="260.535527" xlink:href="#m0d418fc95b" y="121.702362"/>
     <use style="fill:#ff0000;stroke:#000000;stroke-width:0.252982;" x="220.270205" xlink:href="#m0d418fc95b" y="84.534527"/>
     <use style="fill:#ff0000;stroke:#000000;stroke-width:0.252982;" x="212.533637" xlink:href="#m0d418fc95b" y="93.097682"/>
     <use style="fill:#ff0000;stroke:#000000;stroke-width:0.252982;" x="280.404442" xlink:href="#m0d418fc95b" y="132.076179"/>
     <use style="fill:#ff0000;stroke:#000000;stroke-width:0.252982;" x="280.404442" xlink:href="#m0d418fc95b" y="131.4558"/>
     <use style="fill:#ff0000;stroke:#000000;stroke-width:0.252982;" x="280.404442" xlink:href="#m0d418fc95b" y="131.62074"/>
     <use style="fill:#ff0000;stroke:#000000;stroke-width:0.252982;" x="280.404442" xlink:href="#m0d418fc95b" y="133.047862"/>
     <use style="fill:#ff0000;stroke:#000000;stroke-width:0.252982;" x="280.404442" xlink:href="#m0d418fc95b" y="132.137665"/>
     <use style="fill:#ff0000;stroke:#000000;stroke-width:0.252982;" x="214.995272" xlink:href="#m0d418fc95b" y="112.716883"/>
     <use style="fill:#ff0000;stroke:#000000;stroke-width:0.252982;" x="294.119268" xlink:href="#m0d418fc95b" y="103.241295"/>
     <use style="fill:#ff0000;stroke:#000000;stroke-width:0.252982;" x="263.524656" xlink:href="#m0d418fc95b" y="121.405034"/>
     <use style="fill:#ff0000;stroke:#000000;stroke-width:0.252982;" x="237.149991" xlink:href="#m0d418fc95b" y="114.157951"/>
     <use style="fill:#ff0000;stroke:#000000;stroke-width:0.252982;" x="242.073262" xlink:href="#m0d418fc95b" y="118.191458"/>
     <use style="fill:#ff0000;stroke:#000000;stroke-width:0.252982;" x="239.259964" xlink:href="#m0d418fc95b" y="110.845287"/>
     <use style="fill:#ff0000;stroke:#000000;stroke-width:0.252982;" x="258.073892" xlink:href="#m0d418fc95b" y="117.176322"/>
     <use style="fill:#ff0000;stroke:#000000;stroke-width:0.252982;" x="243.831573" xlink:href="#m0d418fc95b" y="123.302185"/>
     <use style="fill:#ff0000;stroke:#000000;stroke-width:0.252982;" x="245.941546" xlink:href="#m0d418fc95b" y="114.006155"/>
     <use style="fill:#ff0000;stroke:#000000;stroke-width:0.252982;" x="229.765084" xlink:href="#m0d418fc95b" y="99.016015"/>
     <use style="fill:#ff0000;stroke:#000000;stroke-width:0.252982;" x="233.985031" xlink:href="#m0d418fc95b" y="103.120899"/>
    </g>
   </g>
   <g id="PathCollection_9">
    <g clip-path="url(#pef362fa048)">
     <use style="fill:#808080;stroke:#000000;stroke-width:0.252982;" x="220.270205" xlink:href="#m0850caa26c" y="84.534527"/>
     <use style="fill:#808080;stroke:#000000;stroke-width:0.252982;" x="212.533637" xlink:href="#m0850caa26c" y="93.097682"/>
     <use style="fill:#808080;stroke:#000000;stroke-width:0.252982;" x="280.404442" xlink:href="#m0850caa26c" y="132.076179"/>
     <use style="fill:#808080;stroke:#000000;stroke-width:0.252982;" x="280.404442" xlink:href="#m0850caa26c" y="131.4558"/>
     <use style="fill:#808080;stroke:#000000;stroke-width:0.252982;" x="280.404442" xlink:href="#m0850caa26c" y="131.62074"/>
     <use style="fill:#808080;stroke:#000000;stroke-width:0.252982;" x="280.404442" xlink:href="#m0850caa26c" y="133.047862"/>
     <use style="fill:#808080;stroke:#000000;stroke-width:0.252982;" x="280.404442" xlink:href="#m0850caa26c" y="132.137665"/>
     <use style="fill:#808080;stroke:#000000;stroke-width:0.252982;" x="214.995272" xlink:href="#m0850caa26c" y="112.716883"/>
     <use style="fill:#808080;stroke:#000000;stroke-width:0.252982;" x="258.073892" xlink:href="#m0850caa26c" y="117.176322"/>
     <use style="fill:#808080;stroke:#000000;stroke-width:0.252982;" x="212.357805" xlink:href="#m0850caa26c" y="15.869413"/>
     <use style="fill:#808080;stroke:#000000;stroke-width:0.252982;" x="215.171103" xlink:href="#m0850caa26c" y="28.726969"/>
     <use style="fill:#808080;stroke:#000000;stroke-width:0.252982;" x="243.831573" xlink:href="#m0850caa26c" y="123.302185"/>
     <use style="fill:#808080;stroke:#000000;stroke-width:0.252982;" x="245.941546" xlink:href="#m0850caa26c" y="114.006155"/>
     <use style="fill:#808080;stroke:#000000;stroke-width:0.252982;" x="218.687725" xlink:href="#m0850caa26c" y="24.582185"/>
    </g>
   </g>
   <g id="matplotlib.axis_3">
    <g id="xtick_6">
     <g id="line2d_15">
      <g>
       <use style="stroke:#000000;stroke-width:0.8;" x="206.379548" xlink:href="#mf6787948b5" y="138.978043"/>
      </g>
     </g>
     <g id="text_17">
      <!-- 1300 -->
      <g transform="translate(200.017048 149.777262)scale(0.05 -0.05)">
       <defs>
        <path d="M 40.578125 39.3125 
Q 47.65625 37.796875 51.625 33 
Q 55.609375 28.21875 55.609375 21.1875 
Q 55.609375 10.40625 48.1875 4.484375 
Q 40.765625 -1.421875 27.09375 -1.421875 
Q 22.515625 -1.421875 17.65625 -0.515625 
Q 12.796875 0.390625 7.625 2.203125 
L 7.625 11.71875 
Q 11.71875 9.328125 16.59375 8.109375 
Q 21.484375 6.890625 26.8125 6.890625 
Q 36.078125 6.890625 40.9375 10.546875 
Q 45.796875 14.203125 45.796875 21.1875 
Q 45.796875 27.640625 41.28125 31.265625 
Q 36.765625 34.90625 28.71875 34.90625 
L 20.21875 34.90625 
L 20.21875 43.015625 
L 29.109375 43.015625 
Q 36.375 43.015625 40.234375 45.921875 
Q 44.09375 48.828125 44.09375 54.296875 
Q 44.09375 59.90625 40.109375 62.90625 
Q 36.140625 65.921875 28.71875 65.921875 
Q 24.65625 65.921875 20.015625 65.03125 
Q 15.375 64.15625 9.8125 62.3125 
L 9.8125 71.09375 
Q 15.4375 72.65625 20.34375 73.4375 
Q 25.25 74.21875 29.59375 74.21875 
Q 40.828125 74.21875 47.359375 69.109375 
Q 53.90625 64.015625 53.90625 55.328125 
Q 53.90625 49.265625 50.4375 45.09375 
Q 46.96875 40.921875 40.578125 39.3125 
z
" id="DejaVuSans-51"/>
       </defs>
       <use xlink:href="#DejaVuSans-49"/>
       <use x="63.623047" xlink:href="#DejaVuSans-51"/>
       <use x="127.246094" xlink:href="#DejaVuSans-48"/>
       <use x="190.869141" xlink:href="#DejaVuSans-48"/>
      </g>
     </g>
    </g>
    <g id="xtick_7">
     <g id="line2d_16">
      <g>
       <use style="stroke:#000000;stroke-width:0.8;" x="223.962658" xlink:href="#mf6787948b5" y="138.978043"/>
      </g>
     </g>
     <g id="text_18">
      <!-- 1400 -->
      <g transform="translate(217.600158 149.777262)scale(0.05 -0.05)">
       <defs>
        <path d="M 37.796875 64.3125 
L 12.890625 25.390625 
L 37.796875 25.390625 
z
M 35.203125 72.90625 
L 47.609375 72.90625 
L 47.609375 25.390625 
L 58.015625 25.390625 
L 58.015625 17.1875 
L 47.609375 17.1875 
L 47.609375 0 
L 37.796875 0 
L 37.796875 17.1875 
L 4.890625 17.1875 
L 4.890625 26.703125 
z
" id="DejaVuSans-52"/>
       </defs>
       <use xlink:href="#DejaVuSans-49"/>
       <use x="63.623047" xlink:href="#DejaVuSans-52"/>
       <use x="127.246094" xlink:href="#DejaVuSans-48"/>
       <use x="190.869141" xlink:href="#DejaVuSans-48"/>
      </g>
     </g>
    </g>
    <g id="xtick_8">
     <g id="line2d_17">
      <g>
       <use style="stroke:#000000;stroke-width:0.8;" x="241.545768" xlink:href="#mf6787948b5" y="138.978043"/>
      </g>
     </g>
     <g id="text_19">
      <!-- 1500 -->
      <g transform="translate(235.183268 149.777262)scale(0.05 -0.05)">
       <use xlink:href="#DejaVuSans-49"/>
       <use x="63.623047" xlink:href="#DejaVuSans-53"/>
       <use x="127.246094" xlink:href="#DejaVuSans-48"/>
       <use x="190.869141" xlink:href="#DejaVuSans-48"/>
      </g>
     </g>
    </g>
    <g id="xtick_9">
     <g id="line2d_18">
      <g>
       <use style="stroke:#000000;stroke-width:0.8;" x="259.128878" xlink:href="#mf6787948b5" y="138.978043"/>
      </g>
     </g>
     <g id="text_20">
      <!-- 1600 -->
      <g transform="translate(252.766378 149.777262)scale(0.05 -0.05)">
       <defs>
        <path d="M 33.015625 40.375 
Q 26.375 40.375 22.484375 35.828125 
Q 18.609375 31.296875 18.609375 23.390625 
Q 18.609375 15.53125 22.484375 10.953125 
Q 26.375 6.390625 33.015625 6.390625 
Q 39.65625 6.390625 43.53125 10.953125 
Q 47.40625 15.53125 47.40625 23.390625 
Q 47.40625 31.296875 43.53125 35.828125 
Q 39.65625 40.375 33.015625 40.375 
z
M 52.59375 71.296875 
L 52.59375 62.3125 
Q 48.875 64.0625 45.09375 64.984375 
Q 41.3125 65.921875 37.59375 65.921875 
Q 27.828125 65.921875 22.671875 59.328125 
Q 17.53125 52.734375 16.796875 39.40625 
Q 19.671875 43.65625 24.015625 45.921875 
Q 28.375 48.1875 33.59375 48.1875 
Q 44.578125 48.1875 50.953125 41.515625 
Q 57.328125 34.859375 57.328125 23.390625 
Q 57.328125 12.15625 50.6875 5.359375 
Q 44.046875 -1.421875 33.015625 -1.421875 
Q 20.359375 -1.421875 13.671875 8.265625 
Q 6.984375 17.96875 6.984375 36.375 
Q 6.984375 53.65625 15.1875 63.9375 
Q 23.390625 74.21875 37.203125 74.21875 
Q 40.921875 74.21875 44.703125 73.484375 
Q 48.484375 72.75 52.59375 71.296875 
z
" id="DejaVuSans-54"/>
       </defs>
       <use xlink:href="#DejaVuSans-49"/>
       <use x="63.623047" xlink:href="#DejaVuSans-54"/>
       <use x="127.246094" xlink:href="#DejaVuSans-48"/>
       <use x="190.869141" xlink:href="#DejaVuSans-48"/>
      </g>
     </g>
    </g>
    <g id="xtick_10">
     <g id="line2d_19">
      <g>
       <use style="stroke:#000000;stroke-width:0.8;" x="276.711988" xlink:href="#mf6787948b5" y="138.978043"/>
      </g>
     </g>
     <g id="text_21">
      <!-- 1700 -->
      <g transform="translate(270.349488 149.777262)scale(0.05 -0.05)">
       <defs>
        <path d="M 8.203125 72.90625 
L 55.078125 72.90625 
L 55.078125 68.703125 
L 28.609375 0 
L 18.3125 0 
L 43.21875 64.59375 
L 8.203125 64.59375 
z
" id="DejaVuSans-55"/>
       </defs>
       <use xlink:href="#DejaVuSans-49"/>
       <use x="63.623047" xlink:href="#DejaVuSans-55"/>
       <use x="127.246094" xlink:href="#DejaVuSans-48"/>
       <use x="190.869141" xlink:href="#DejaVuSans-48"/>
      </g>
     </g>
    </g>
    <g id="xtick_11">
     <g id="line2d_20">
      <g>
       <use style="stroke:#000000;stroke-width:0.8;" x="294.295099" xlink:href="#mf6787948b5" y="138.978043"/>
      </g>
     </g>
     <g id="text_22">
      <!-- 1800 -->
      <g transform="translate(287.932599 149.777262)scale(0.05 -0.05)">
       <defs>
        <path d="M 31.78125 34.625 
Q 24.75 34.625 20.71875 30.859375 
Q 16.703125 27.09375 16.703125 20.515625 
Q 16.703125 13.921875 20.71875 10.15625 
Q 24.75 6.390625 31.78125 6.390625 
Q 38.8125 6.390625 42.859375 10.171875 
Q 46.921875 13.96875 46.921875 20.515625 
Q 46.921875 27.09375 42.890625 30.859375 
Q 38.875 34.625 31.78125 34.625 
z
M 21.921875 38.8125 
Q 15.578125 40.375 12.03125 44.71875 
Q 8.5 49.078125 8.5 55.328125 
Q 8.5 64.0625 14.71875 69.140625 
Q 20.953125 74.21875 31.78125 74.21875 
Q 42.671875 74.21875 48.875 69.140625 
Q 55.078125 64.0625 55.078125 55.328125 
Q 55.078125 49.078125 51.53125 44.71875 
Q 48 40.375 41.703125 38.8125 
Q 48.828125 37.15625 52.796875 32.3125 
Q 56.78125 27.484375 56.78125 20.515625 
Q 56.78125 9.90625 50.3125 4.234375 
Q 43.84375 -1.421875 31.78125 -1.421875 
Q 19.734375 -1.421875 13.25 4.234375 
Q 6.78125 9.90625 6.78125 20.515625 
Q 6.78125 27.484375 10.78125 32.3125 
Q 14.796875 37.15625 21.921875 38.8125 
z
M 18.3125 54.390625 
Q 18.3125 48.734375 21.84375 45.5625 
Q 25.390625 42.390625 31.78125 42.390625 
Q 38.140625 42.390625 41.71875 45.5625 
Q 45.3125 48.734375 45.3125 54.390625 
Q 45.3125 60.0625 41.71875 63.234375 
Q 38.140625 66.40625 31.78125 66.40625 
Q 25.390625 66.40625 21.84375 63.234375 
Q 18.3125 60.0625 18.3125 54.390625 
z
" id="DejaVuSans-56"/>
       </defs>
       <use xlink:href="#DejaVuSans-49"/>
       <use x="63.623047" xlink:href="#DejaVuSans-56"/>
       <use x="127.246094" xlink:href="#DejaVuSans-48"/>
       <use x="190.869141" xlink:href="#DejaVuSans-48"/>
      </g>
     </g>
    </g>
    <g id="text_23">
     <!-- Date -->
     <g transform="translate(238.647422 158.616325)scale(0.05 -0.05)">
      <use xlink:href="#DejaVuSans-68"/>
      <use x="77.001953" xlink:href="#DejaVuSans-97"/>
      <use x="138.28125" xlink:href="#DejaVuSans-116"/>
      <use x="177.490234" xlink:href="#DejaVuSans-101"/>
     </g>
    </g>
   </g>
   <g id="matplotlib.axis_4">
    <g id="ytick_7">
     <g id="line2d_21">
      <g>
       <use style="stroke:#000000;stroke-width:0.8;" x="188.822812" xlink:href="#m0fc9fdb833" y="133.803513"/>
      </g>
     </g>
     <g id="text_24">
      <!-- 0.00 -->
      <g transform="translate(170.69 135.703122)scale(0.05 -0.05)">
       <defs>
        <path d="M 10.6875 12.40625 
L 21 12.40625 
L 21 0 
L 10.6875 0 
z
" id="DejaVuSans-46"/>
       </defs>
       <use xlink:href="#DejaVuSans-48"/>
       <use x="63.623047" xlink:href="#DejaVuSans-46"/>
       <use x="95.410156" xlink:href="#DejaVuSans-48"/>
       <use x="159.033203" xlink:href="#DejaVuSans-48"/>
      </g>
     </g>
    </g>
    <g id="ytick_8">
     <g id="line2d_22">
      <g>
       <use style="stroke:#000000;stroke-width:0.8;" x="188.822812" xlink:href="#m0fc9fdb833" y="115.98867"/>
      </g>
     </g>
     <g id="text_25">
      <!-- 0.25 -->
      <g transform="translate(170.69 117.888279)scale(0.05 -0.05)">
       <use xlink:href="#DejaVuSans-48"/>
       <use x="63.623047" xlink:href="#DejaVuSans-46"/>
       <use x="95.410156" xlink:href="#DejaVuSans-50"/>
       <use x="159.033203" xlink:href="#DejaVuSans-53"/>
      </g>
     </g>
    </g>
    <g id="ytick_9">
     <g id="line2d_23">
      <g>
       <use style="stroke:#000000;stroke-width:0.8;" x="188.822812" xlink:href="#m0fc9fdb833" y="98.173826"/>
      </g>
     </g>
     <g id="text_26">
      <!-- 0.50 -->
      <g transform="translate(170.69 100.073436)scale(0.05 -0.05)">
       <use xlink:href="#DejaVuSans-48"/>
       <use x="63.623047" xlink:href="#DejaVuSans-46"/>
       <use x="95.410156" xlink:href="#DejaVuSans-53"/>
       <use x="159.033203" xlink:href="#DejaVuSans-48"/>
      </g>
     </g>
    </g>
    <g id="ytick_10">
     <g id="line2d_24">
      <g>
       <use style="stroke:#000000;stroke-width:0.8;" x="188.822812" xlink:href="#m0fc9fdb833" y="80.358983"/>
      </g>
     </g>
     <g id="text_27">
      <!-- 0.75 -->
      <g transform="translate(170.69 82.258592)scale(0.05 -0.05)">
       <use xlink:href="#DejaVuSans-48"/>
       <use x="63.623047" xlink:href="#DejaVuSans-46"/>
       <use x="95.410156" xlink:href="#DejaVuSans-55"/>
       <use x="159.033203" xlink:href="#DejaVuSans-53"/>
      </g>
     </g>
    </g>
    <g id="ytick_11">
     <g id="line2d_25">
      <g>
       <use style="stroke:#000000;stroke-width:0.8;" x="188.822812" xlink:href="#m0fc9fdb833" y="62.544139"/>
      </g>
     </g>
     <g id="text_28">
      <!-- 1.00 -->
      <g transform="translate(170.69 64.443749)scale(0.05 -0.05)">
       <use xlink:href="#DejaVuSans-49"/>
       <use x="63.623047" xlink:href="#DejaVuSans-46"/>
       <use x="95.410156" xlink:href="#DejaVuSans-48"/>
       <use x="159.033203" xlink:href="#DejaVuSans-48"/>
      </g>
     </g>
    </g>
    <g id="ytick_12">
     <g id="line2d_26">
      <g>
       <use style="stroke:#000000;stroke-width:0.8;" x="188.822812" xlink:href="#m0fc9fdb833" y="44.729296"/>
      </g>
     </g>
     <g id="text_29">
      <!-- 1.25 -->
      <g transform="translate(170.69 46.628905)scale(0.05 -0.05)">
       <use xlink:href="#DejaVuSans-49"/>
       <use x="63.623047" xlink:href="#DejaVuSans-46"/>
       <use x="95.410156" xlink:href="#DejaVuSans-50"/>
       <use x="159.033203" xlink:href="#DejaVuSans-53"/>
      </g>
     </g>
    </g>
    <g id="ytick_13">
     <g id="line2d_27">
      <g>
       <use style="stroke:#000000;stroke-width:0.8;" x="188.822812" xlink:href="#m0fc9fdb833" y="26.914453"/>
      </g>
     </g>
     <g id="text_30">
      <!-- 1.50 -->
      <g transform="translate(170.69 28.814062)scale(0.05 -0.05)">
       <use xlink:href="#DejaVuSans-49"/>
       <use x="63.623047" xlink:href="#DejaVuSans-46"/>
       <use x="95.410156" xlink:href="#DejaVuSans-53"/>
       <use x="159.033203" xlink:href="#DejaVuSans-48"/>
      </g>
     </g>
    </g>
    <g id="ytick_14">
     <g id="line2d_28">
      <g>
       <use style="stroke:#000000;stroke-width:0.8;" x="188.822812" xlink:href="#m0fc9fdb833" y="9.099609"/>
      </g>
     </g>
     <g id="text_31">
      <!-- 1.75 -->
      <g transform="translate(170.69 10.999219)scale(0.05 -0.05)">
       <use xlink:href="#DejaVuSans-49"/>
       <use x="63.623047" xlink:href="#DejaVuSans-46"/>
       <use x="95.410156" xlink:href="#DejaVuSans-55"/>
       <use x="159.033203" xlink:href="#DejaVuSans-53"/>
      </g>
     </g>
    </g>
    <g id="text_32">
     <!-- pla Depth / pPCP1 Depth -->
     <g transform="translate(165.650156 104.747996)rotate(-90)scale(0.05 -0.05)">
      <defs>
       <path d="M 25.390625 72.90625 
L 33.6875 72.90625 
L 8.296875 -9.28125 
L 0 -9.28125 
z
" id="DejaVuSans-47"/>
      </defs>
      <use xlink:href="#DejaVuSans-112"/>
      <use x="63.476562" xlink:href="#DejaVuSans-108"/>
      <use x="91.259766" xlink:href="#DejaVuSans-97"/>
      <use x="152.539062" xlink:href="#DejaVuSans-32"/>
      <use x="184.326172" xlink:href="#DejaVuSans-68"/>
      <use x="261.328125" xlink:href="#DejaVuSans-101"/>
      <use x="322.851562" xlink:href="#DejaVuSans-112"/>
      <use x="386.328125" xlink:href="#DejaVuSans-116"/>
      <use x="425.537109" xlink:href="#DejaVuSans-104"/>
      <use x="488.916016" xlink:href="#DejaVuSans-32"/>
      <use x="520.703125" xlink:href="#DejaVuSans-47"/>
      <use x="554.394531" xlink:href="#DejaVuSans-32"/>
      <use x="586.181641" xlink:href="#DejaVuSans-112"/>
      <use x="649.658203" xlink:href="#DejaVuSans-80"/>
      <use x="709.960938" xlink:href="#DejaVuSans-67"/>
      <use x="779.785156" xlink:href="#DejaVuSans-80"/>
      <use x="840.087891" xlink:href="#DejaVuSans-49"/>
      <use x="903.710938" xlink:href="#DejaVuSans-32"/>
      <use x="935.498047" xlink:href="#DejaVuSans-68"/>
      <use x="1012.5" xlink:href="#DejaVuSans-101"/>
      <use x="1074.023438" xlink:href="#DejaVuSans-112"/>
      <use x="1137.5" xlink:href="#DejaVuSans-116"/>
      <use x="1176.708984" xlink:href="#DejaVuSans-104"/>
     </g>
    </g>
   </g>
   <g id="patch_58">
    <path d="M 188.822812 138.978043 
L 188.822812 8.514043 
" style="fill:none;stroke:#000000;stroke-linecap:square;stroke-linejoin:miter;stroke-width:0.8;"/>
   </g>
   <g id="patch_59">
    <path d="M 300.422813 138.978043 
L 300.422813 8.514043 
" style="fill:none;stroke:#000000;stroke-linecap:square;stroke-linejoin:miter;stroke-width:0.8;"/>
   </g>
   <g id="patch_60">
    <path d="M 188.822812 138.978043 
L 300.422813 138.978043 
" style="fill:none;stroke:#000000;stroke-linecap:square;stroke-linejoin:miter;stroke-width:0.8;"/>
   </g>
   <g id="patch_61">
    <path d="M 188.822812 8.514043 
L 300.422813 8.514043 
" style="fill:none;stroke:#000000;stroke-linecap:square;stroke-linejoin:miter;stroke-width:0.8;"/>
   </g>
  </g>
 </g>
 <defs>
  <clipPath id="p9a47143ab3">
   <rect height="130.464" width="111.6" x="32.582813" y="8.514043"/>
  </clipPath>
  <clipPath id="pef362fa048">
   <rect height="130.464" width="111.6" x="188.822812" y="8.514043"/>
  </clipPath>
 </defs>
</svg>
