<?xml version="1.0" encoding="utf-8" standalone="no"?>
<!DOCTYPE svg PUBLIC "-//W3C//DTD SVG 1.1//EN"
  "http://www.w3.org/Graphics/SVG/1.1/DTD/svg11.dtd">
<!-- Created with matplotlib (https://matplotlib.org/) -->
<svg height="166.856168pt" version="1.1" viewBox="0 0 307.857599 166.856168" width="307.857599pt" xmlns="http://www.w3.org/2000/svg" xmlns:xlink="http://www.w3.org/1999/xlink">
 <metadata>
  <rdf:RDF xmlns:cc="http://creativecommons.org/ns#" xmlns:dc="http://purl.org/dc/elements/1.1/" xmlns:rdf="http://www.w3.org/1999/02/22-rdf-syntax-ns#">
   <cc:Work>
    <dc:type rdf:resource="http://purl.org/dc/dcmitype/StillImage"/>
    <dc:date>2021-07-13T14:51:56.055149</dc:date>
    <dc:format>image/svg+xml</dc:format>
    <dc:creator>
     <cc:Agent>
      <dc:title>Matplotlib v3.3.2, https://matplotlib.org/</dc:title>
     </cc:Agent>
    </dc:creator>
   </cc:Work>
  </rdf:RDF>
 </metadata>
 <defs>
  <style type="text/css">*{stroke-linecap:butt;stroke-linejoin:round;}</style>
 </defs>
 <g id="figure_1">
  <g id="patch_1">
   <path d="M 0 166.856168 
L 307.857599 166.856168 
L 307.857599 0 
L 0 0 
z
" style="fill:none;"/>
  </g>
  <g id="axes_1">
   <g id="patch_2">
    <path d="M 32.582813 138.978043 
L 144.182812 138.978043 
L 144.182812 8.514043 
L 32.582813 8.514043 
z
" style="fill:#ffffff;"/>
   </g>
   <g id="line2d_1">
    <path clip-path="url(#pe9fff3b851)" d="M 38.090986 126.066753 
L 39.069827 125.104782 
L 40.048667 124.142811 
L 41.027508 123.180841 
L 42.006349 122.21887 
L 42.98519 121.256899 
L 43.964031 120.294928 
L 44.942872 119.332957 
L 45.921712 118.370987 
L 46.900553 117.409016 
L 47.879394 116.447045 
L 48.858235 115.485074 
L 49.837076 114.523103 
L 50.815916 113.561133 
L 51.794757 112.599162 
L 52.773598 111.637191 
L 53.752439 110.67522 
L 54.73128 109.713249 
L 55.710121 108.751279 
L 56.688961 107.789308 
L 57.667802 106.827337 
L 58.646643 105.865366 
L 59.625484 104.903395 
L 60.604325 103.941425 
L 61.583165 102.979454 
L 62.562006 102.017483 
L 63.540847 101.055512 
L 64.519688 100.093541 
L 65.498529 99.131571 
L 66.47737 98.1696 
L 67.45621 97.207629 
L 68.435051 96.245658 
L 69.413892 95.283687 
L 70.392733 94.321717 
L 71.371574 93.359746 
L 72.350414 92.397775 
L 73.329255 91.435804 
L 74.308096 90.473833 
L 75.286937 89.511863 
L 76.265778 88.549892 
L 77.244619 87.587921 
L 78.223459 86.62595 
L 79.2023 85.663979 
L 80.181141 84.702009 
L 81.159982 83.740038 
L 82.138823 82.778067 
L 83.117664 81.816096 
L 84.096504 80.854125 
L 85.075345 79.892155 
L 86.054186 78.930184 
L 87.033027 77.968213 
L 88.011868 77.006242 
L 88.990708 76.044271 
L 89.969549 75.082301 
L 90.94839 74.12033 
L 91.927231 73.158359 
L 92.906072 72.196388 
L 93.884913 71.234417 
L 94.863753 70.272447 
L 95.842594 69.310476 
L 96.821435 68.348505 
L 97.800276 67.386534 
L 98.779117 66.424563 
L 99.757957 65.462593 
L 100.736798 64.500622 
L 101.715639 63.538651 
L 102.69448 62.57668 
L 103.673321 61.614709 
L 104.652162 60.652739 
L 105.631002 59.690768 
L 106.609843 58.728797 
L 107.588684 57.766826 
L 108.567525 56.804855 
L 109.546366 55.842885 
L 110.525206 54.880914 
L 111.504047 53.918943 
L 112.482888 52.956972 
L 113.461729 51.995001 
L 114.44057 51.033031 
L 115.419411 50.07106 
L 116.398251 49.109089 
L 117.377092 48.147118 
L 118.355933 47.185147 
L 119.334774 46.223177 
L 120.313615 45.261206 
L 121.292455 44.299235 
L 122.271296 43.337264 
L 123.250137 42.375293 
L 124.228978 41.413322 
L 125.207819 40.451352 
L 126.18666 39.489381 
L 127.1655 38.52741 
L 128.144341 37.565439 
L 129.123182 36.603468 
L 130.102023 35.641498 
L 131.080864 34.679527 
L 132.059704 33.717556 
L 133.038545 32.755585 
L 134.017386 31.793614 
L 134.996227 30.831644 
" style="fill:none;stroke:#008000;stroke-linecap:square;"/>
   </g>
   <g id="line2d_2">
    <path clip-path="url(#pe9fff3b851)" d="M 38.049874 130.220438 
L 38.80627 129.978142 
L 39.562666 129.735846 
L 40.319062 129.49355 
L 41.075458 129.251254 
L 41.831854 129.008958 
L 42.58825 128.766662 
L 43.344646 128.524366 
L 44.101043 128.28207 
L 44.857439 128.039774 
L 45.613835 127.797478 
L 46.370231 127.555183 
L 47.126627 127.312887 
L 47.883023 127.070591 
L 48.639419 126.828295 
L 49.395815 126.585999 
L 50.152211 126.343703 
L 50.908607 126.101407 
L 51.665003 125.859111 
L 52.421399 125.616815 
L 53.177795 125.374519 
L 53.934191 125.132223 
L 54.690587 124.889927 
L 55.446983 124.647631 
L 56.203379 124.405335 
L 56.959775 124.163039 
L 57.716171 123.920744 
L 58.472568 123.678448 
L 59.228964 123.436152 
L 59.98536 123.193856 
L 60.741756 122.95156 
L 61.498152 122.709264 
L 62.254548 122.466968 
L 63.010944 122.224672 
L 63.76734 121.982376 
L 64.523736 121.74008 
L 65.280132 121.497784 
L 66.036528 121.255488 
L 66.792924 121.013192 
L 67.54932 120.770896 
L 68.305716 120.528601 
L 69.062112 120.286305 
L 69.818508 120.044009 
L 70.574904 119.801713 
L 71.3313 119.559417 
L 72.087696 119.317121 
L 72.844093 119.074825 
L 73.600489 118.832529 
L 74.356885 118.590233 
L 75.113281 118.347937 
L 75.869677 118.105641 
L 76.626073 117.863345 
L 77.382469 117.621049 
L 78.138865 117.378753 
L 78.895261 117.136458 
L 79.651657 116.894162 
L 80.408053 116.651866 
L 81.164449 116.40957 
L 81.920845 116.167274 
L 82.677241 115.924978 
L 83.433637 115.682682 
L 84.190033 115.440386 
L 84.946429 115.19809 
L 85.702825 114.955794 
L 86.459221 114.713498 
L 87.215618 114.471202 
L 87.972014 114.228906 
L 88.72841 113.98661 
L 89.484806 113.744315 
L 90.241202 113.502019 
L 90.997598 113.259723 
L 91.753994 113.017427 
L 92.51039 112.775131 
L 93.266786 112.532835 
L 94.023182 112.290539 
L 94.779578 112.048243 
L 95.535974 111.805947 
L 96.29237 111.563651 
L 97.048766 111.321355 
L 97.805162 111.079059 
L 98.561558 110.836763 
L 99.317954 110.594467 
L 100.07435 110.352172 
L 100.830746 110.109876 
L 101.587143 109.86758 
L 102.343539 109.625284 
L 103.099935 109.382988 
L 103.856331 109.140692 
L 104.612727 108.898396 
L 105.369123 108.6561 
L 106.125519 108.413804 
L 106.881915 108.171508 
L 107.638311 107.929212 
L 108.394707 107.686916 
L 109.151103 107.44462 
L 109.907499 107.202324 
L 110.663895 106.960029 
L 111.420291 106.717733 
L 112.176687 106.475437 
L 112.933083 106.233141 
" style="fill:none;stroke:#ff0000;stroke-linecap:square;"/>
   </g>
   <g id="PathCollection_1">
    <defs>
     <path d="M 0 1.581139 
C 0.419323 1.581139 0.821528 1.41454 1.118034 1.118034 
C 1.41454 0.821528 1.581139 0.419323 1.581139 0 
C 1.581139 -0.419323 1.41454 -0.821528 1.118034 -1.118034 
C 0.821528 -1.41454 0.419323 -1.581139 0 -1.581139 
C -0.419323 -1.581139 -0.821528 -1.41454 -1.118034 -1.118034 
C -1.41454 -0.821528 -1.581139 -0.419323 -1.581139 0 
C -1.581139 0.419323 -1.41454 0.821528 -1.118034 1.118034 
C -0.821528 1.41454 -0.419323 1.581139 0 1.581139 
z
" id="m1bbd4bdd4e" style="stroke:#000000;stroke-opacity:0.8;stroke-width:0.5;"/>
    </defs>
    <g clip-path="url(#pe9fff3b851)">
     <use style="fill:#008000;fill-opacity:0.8;stroke:#000000;stroke-opacity:0.8;stroke-width:0.5;" x="65.842214" xlink:href="#m1bbd4bdd4e" y="106.645239"/>
     <use style="fill:#008000;fill-opacity:0.8;stroke:#000000;stroke-opacity:0.8;stroke-width:0.5;" x="67.756519" xlink:href="#m1bbd4bdd4e" y="101.464746"/>
     <use style="fill:#008000;fill-opacity:0.8;stroke:#000000;stroke-opacity:0.8;stroke-width:0.5;" x="60.794502" xlink:href="#m1bbd4bdd4e" y="103.055111"/>
     <use style="fill:#008000;fill-opacity:0.8;stroke:#000000;stroke-opacity:0.8;stroke-width:0.5;" x="114.429776" xlink:href="#m1bbd4bdd4e" y="39.246393"/>
     <use style="fill:#008000;fill-opacity:0.8;stroke:#000000;stroke-opacity:0.8;stroke-width:0.5;" x="109.49458" xlink:href="#m1bbd4bdd4e" y="43.560441"/>
     <use style="fill:#008000;fill-opacity:0.8;stroke:#000000;stroke-opacity:0.8;stroke-width:0.5;" x="94.684985" xlink:href="#m1bbd4bdd4e" y="71.74427"/>
     <use style="fill:#008000;fill-opacity:0.8;stroke:#000000;stroke-opacity:0.8;stroke-width:0.5;" x="73.802785" xlink:href="#m1bbd4bdd4e" y="82.184103"/>
     <use style="fill:#008000;fill-opacity:0.8;stroke:#000000;stroke-opacity:0.8;stroke-width:0.5;" x="90.110083" xlink:href="#m1bbd4bdd4e" y="74.033424"/>
     <use style="fill:#008000;fill-opacity:0.8;stroke:#000000;stroke-opacity:0.8;stroke-width:0.5;" x="134.996227" xlink:href="#m1bbd4bdd4e" y="51.205547"/>
     <use style="fill:#008000;fill-opacity:0.8;stroke:#000000;stroke-opacity:0.8;stroke-width:0.5;" x="38.090986" xlink:href="#m1bbd4bdd4e" y="128.74487"/>
     <use style="fill:#008000;fill-opacity:0.8;stroke:#000000;stroke-opacity:0.8;stroke-width:0.5;" x="39.967293" xlink:href="#m1bbd4bdd4e" y="126.589146"/>
     <use style="fill:#008000;fill-opacity:0.8;stroke:#000000;stroke-opacity:0.8;stroke-width:0.5;" x="75.701048" xlink:href="#m1bbd4bdd4e" y="82.403749"/>
     <use style="fill:#008000;fill-opacity:0.8;stroke:#000000;stroke-opacity:0.8;stroke-width:0.5;" x="40.570036" xlink:href="#m1bbd4bdd4e" y="125.74046"/>
    </g>
   </g>
   <g id="PolyCollection_1">
    <path clip-path="url(#pe9fff3b851)" d="M 38.090986 119.052743 
L 38.090986 133.047862 
L 39.069827 131.866975 
L 40.048667 130.686088 
L 41.027508 129.505202 
L 42.006349 128.327061 
L 42.98519 127.159451 
L 43.964031 126.048936 
L 44.942872 124.916996 
L 45.921712 123.722268 
L 46.900553 122.57823 
L 47.879394 121.432306 
L 48.858235 120.287933 
L 49.837076 119.141311 
L 50.815916 117.91915 
L 51.794757 116.696921 
L 52.773598 115.600113 
L 53.752439 114.505848 
L 54.73128 113.368269 
L 55.710121 112.263321 
L 56.688961 111.12992 
L 57.667802 110.009822 
L 58.646643 108.990373 
L 59.625484 107.927325 
L 60.604325 106.955842 
L 61.583165 105.833905 
L 62.562006 104.881728 
L 63.540847 103.884521 
L 64.519688 102.875737 
L 65.498529 101.925498 
L 66.47737 101.013528 
L 67.45621 100.204602 
L 68.435051 99.293095 
L 69.413892 98.37741 
L 70.392733 97.533981 
L 71.371574 96.745681 
L 72.350414 95.90287 
L 73.329255 95.033469 
L 74.308096 94.214022 
L 75.286937 93.328378 
L 76.265778 92.480038 
L 77.244619 91.689509 
L 78.223459 90.873893 
L 79.2023 90.058277 
L 80.181141 89.242662 
L 81.159982 88.425472 
L 82.138823 87.61062 
L 83.117664 86.856032 
L 84.096504 86.005928 
L 85.075345 85.219906 
L 86.054186 84.466952 
L 87.033027 83.711807 
L 88.011868 82.898315 
L 88.990708 82.108745 
L 89.969549 81.337312 
L 90.94839 80.504509 
L 91.927231 79.671707 
L 92.906072 78.837666 
L 93.884913 78.057654 
L 94.863753 77.300138 
L 95.842594 76.542223 
L 96.821435 75.784137 
L 97.800276 75.007237 
L 98.779117 74.18267 
L 99.757957 73.357057 
L 100.736798 72.567272 
L 101.715639 71.797297 
L 102.69448 71.027322 
L 103.673321 70.248464 
L 104.652162 69.488472 
L 105.631002 68.741902 
L 106.609843 67.996774 
L 107.588684 67.248849 
L 108.567525 66.499759 
L 109.546366 65.744334 
L 110.525206 64.927443 
L 111.504047 64.132009 
L 112.482888 63.337133 
L 113.461729 62.567916 
L 114.44057 61.798032 
L 115.419411 61.028075 
L 116.398251 60.229152 
L 117.377092 59.430228 
L 118.355933 58.72213 
L 119.334774 57.95598 
L 120.313615 57.186248 
L 121.292455 56.416243 
L 122.271296 55.646237 
L 123.250137 54.876232 
L 124.228978 54.106227 
L 125.207819 53.308176 
L 126.18666 52.504496 
L 127.1655 51.700815 
L 128.144341 50.897134 
L 129.123182 50.093453 
L 130.102023 49.289773 
L 131.080864 48.486092 
L 132.059704 47.682411 
L 133.038545 46.878731 
L 134.017386 46.07505 
L 134.996227 45.271369 
L 134.996227 14.444225 
L 134.996227 14.444225 
L 134.017386 15.611916 
L 133.038545 16.780674 
L 132.059704 17.949581 
L 131.080864 19.152384 
L 130.102023 20.357006 
L 129.123182 21.542094 
L 128.144341 22.704958 
L 127.1655 23.914855 
L 126.18666 25.088244 
L 125.207819 26.279649 
L 124.228978 27.430449 
L 123.250137 28.581417 
L 122.271296 29.781518 
L 121.292455 30.969111 
L 120.313615 32.131593 
L 119.334774 33.294075 
L 118.355933 34.451376 
L 117.377092 35.593901 
L 116.398251 36.737379 
L 115.419411 37.881937 
L 114.44057 39.076235 
L 113.461729 40.270951 
L 112.482888 41.438858 
L 111.504047 42.660382 
L 110.525206 43.829244 
L 109.546366 45.012926 
L 108.567525 46.17066 
L 107.588684 47.317898 
L 106.609843 48.465567 
L 105.631002 49.659056 
L 104.652162 50.859951 
L 103.673321 52.039499 
L 102.69448 53.178294 
L 101.715639 54.317229 
L 100.736798 55.456164 
L 99.757957 56.595099 
L 98.779117 57.734035 
L 97.800276 58.901461 
L 96.821435 60.08664 
L 95.842594 61.243341 
L 94.863753 62.45194 
L 93.884913 63.629268 
L 92.906072 64.769001 
L 91.927231 65.908733 
L 90.94839 67.048478 
L 89.969549 68.189023 
L 88.990708 69.343079 
L 88.011868 70.50543 
L 87.033027 71.667535 
L 86.054186 72.829641 
L 85.075345 73.983867 
L 84.096504 75.11028 
L 83.117664 76.246347 
L 82.138823 77.400957 
L 81.159982 78.554897 
L 80.181141 79.677879 
L 79.2023 80.85076 
L 78.223459 81.919748 
L 77.244619 83.039574 
L 76.265778 84.160372 
L 75.286937 85.274861 
L 74.308096 86.322732 
L 73.329255 87.38415 
L 72.350414 88.537453 
L 71.371574 89.587717 
L 70.392733 90.640951 
L 69.413892 91.67375 
L 68.435051 92.669733 
L 67.45621 93.626834 
L 66.47737 94.687525 
L 65.498529 95.614694 
L 64.519688 96.596927 
L 63.540847 97.41556 
L 62.562006 98.208783 
L 61.583165 99.055177 
L 60.604325 99.887576 
L 59.625484 100.823353 
L 58.646643 101.610322 
L 57.667802 102.492236 
L 56.688961 103.385568 
L 55.710121 104.222721 
L 54.73128 105.125956 
L 53.752439 105.968451 
L 52.773598 106.724697 
L 51.794757 107.490061 
L 50.815916 108.406795 
L 49.837076 109.327253 
L 48.858235 110.107657 
L 47.879394 110.909351 
L 46.900553 111.763554 
L 45.921712 112.616666 
L 44.942872 113.517719 
L 43.964031 114.320484 
L 42.98519 115.121841 
L 42.006349 115.921779 
L 41.027508 116.720249 
L 40.048667 117.51872 
L 39.069827 118.260818 
L 38.090986 119.052743 
z
" style="fill:#008000;fill-opacity:0.15;"/>
   </g>
   <g id="PathCollection_2">
    <defs>
     <path d="M 0 1.581139 
C 0.419323 1.581139 0.821528 1.41454 1.118034 1.118034 
C 1.41454 0.821528 1.581139 0.419323 1.581139 0 
C 1.581139 -0.419323 1.41454 -0.821528 1.118034 -1.118034 
C 0.821528 -1.41454 0.419323 -1.581139 0 -1.581139 
C -0.419323 -1.581139 -0.821528 -1.41454 -1.118034 -1.118034 
C -1.41454 -0.821528 -1.581139 -0.419323 -1.581139 0 
C -1.581139 0.419323 -1.41454 0.821528 -1.118034 1.118034 
C -0.821528 1.41454 -0.419323 1.581139 0 1.581139 
z
" id="m94aa28d5dd" style="stroke:#000000;stroke-opacity:0.8;stroke-width:0.5;"/>
    </defs>
    <g clip-path="url(#pe9fff3b851)">
     <use style="fill:#ff0000;fill-opacity:0.8;stroke:#000000;stroke-opacity:0.8;stroke-width:0.5;" x="61.206831" xlink:href="#m94aa28d5dd" y="125.347093"/>
     <use style="fill:#ff0000;fill-opacity:0.8;stroke:#000000;stroke-opacity:0.8;stroke-width:0.5;" x="63.956037" xlink:href="#m94aa28d5dd" y="123.886261"/>
     <use style="fill:#ff0000;fill-opacity:0.8;stroke:#000000;stroke-opacity:0.8;stroke-width:0.5;" x="57.337795" xlink:href="#m94aa28d5dd" y="126.198378"/>
     <use style="fill:#ff0000;fill-opacity:0.8;stroke:#000000;stroke-opacity:0.8;stroke-width:0.5;" x="70.627899" xlink:href="#m94aa28d5dd" y="116.463399"/>
     <use style="fill:#ff0000;fill-opacity:0.8;stroke:#000000;stroke-opacity:0.8;stroke-width:0.5;" x="50.468767" xlink:href="#m94aa28d5dd" y="127.474223"/>
     <use style="fill:#ff0000;fill-opacity:0.8;stroke:#000000;stroke-opacity:0.8;stroke-width:0.5;" x="50.446602" xlink:href="#m94aa28d5dd" y="127.5665"/>
     <use style="fill:#ff0000;fill-opacity:0.8;stroke:#000000;stroke-opacity:0.8;stroke-width:0.5;" x="61.269213" xlink:href="#m94aa28d5dd" y="125.220158"/>
     <use style="fill:#ff0000;fill-opacity:0.8;stroke:#000000;stroke-opacity:0.8;stroke-width:0.5;" x="54.282496" xlink:href="#m94aa28d5dd" y="126.216573"/>
     <use style="fill:#ff0000;fill-opacity:0.8;stroke:#000000;stroke-opacity:0.8;stroke-width:0.5;" x="55.567724" xlink:href="#m94aa28d5dd" y="124.148362"/>
     <use style="fill:#ff0000;fill-opacity:0.8;stroke:#000000;stroke-opacity:0.8;stroke-width:0.5;" x="57.063735" xlink:href="#m94aa28d5dd" y="125.089324"/>
     <use style="fill:#ff0000;fill-opacity:0.8;stroke:#000000;stroke-opacity:0.8;stroke-width:0.5;" x="51.127451" xlink:href="#m94aa28d5dd" y="120.205589"/>
     <use style="fill:#ff0000;fill-opacity:0.8;stroke:#000000;stroke-opacity:0.8;stroke-width:0.5;" x="50.21207" xlink:href="#m94aa28d5dd" y="127.485054"/>
     <use style="fill:#ff0000;fill-opacity:0.8;stroke:#000000;stroke-opacity:0.8;stroke-width:0.5;" x="58.098493" xlink:href="#m94aa28d5dd" y="123.858101"/>
     <use style="fill:#ff0000;fill-opacity:0.8;stroke:#000000;stroke-opacity:0.8;stroke-width:0.5;" x="62.270352" xlink:href="#m94aa28d5dd" y="121.631763"/>
     <use style="fill:#ff0000;fill-opacity:0.8;stroke:#000000;stroke-opacity:0.8;stroke-width:0.5;" x="58.525126" xlink:href="#m94aa28d5dd" y="125.086725"/>
     <use style="fill:#ff0000;fill-opacity:0.8;stroke:#000000;stroke-opacity:0.8;stroke-width:0.5;" x="98.017352" xlink:href="#m94aa28d5dd" y="109.135845"/>
     <use style="fill:#ff0000;fill-opacity:0.8;stroke:#000000;stroke-opacity:0.8;stroke-width:0.5;" x="72.828718" xlink:href="#m94aa28d5dd" y="120.878819"/>
     <use style="fill:#ff0000;fill-opacity:0.8;stroke:#000000;stroke-opacity:0.8;stroke-width:0.5;" x="56.94953" xlink:href="#m94aa28d5dd" y="126.695286"/>
     <use style="fill:#ff0000;fill-opacity:0.8;stroke:#000000;stroke-opacity:0.8;stroke-width:0.5;" x="38.277492" xlink:href="#m94aa28d5dd" y="128.977944"/>
     <use style="fill:#ff0000;fill-opacity:0.8;stroke:#000000;stroke-opacity:0.8;stroke-width:0.5;" x="38.481151" xlink:href="#m94aa28d5dd" y="128.944586"/>
     <use style="fill:#ff0000;fill-opacity:0.8;stroke:#000000;stroke-opacity:0.8;stroke-width:0.5;" x="39.48303" xlink:href="#m94aa28d5dd" y="129.287266"/>
     <use style="fill:#ff0000;fill-opacity:0.8;stroke:#000000;stroke-opacity:0.8;stroke-width:0.5;" x="38.868941" xlink:href="#m94aa28d5dd" y="129.290732"/>
     <use style="fill:#ff0000;fill-opacity:0.8;stroke:#000000;stroke-opacity:0.8;stroke-width:0.5;" x="39.50736" xlink:href="#m94aa28d5dd" y="129.277302"/>
     <use style="fill:#ff0000;fill-opacity:0.8;stroke:#000000;stroke-opacity:0.8;stroke-width:0.5;" x="39.438594" xlink:href="#m94aa28d5dd" y="129.307628"/>
     <use style="fill:#ff0000;fill-opacity:0.8;stroke:#000000;stroke-opacity:0.8;stroke-width:0.5;" x="38.995865" xlink:href="#m94aa28d5dd" y="129.297664"/>
     <use style="fill:#ff0000;fill-opacity:0.8;stroke:#000000;stroke-opacity:0.8;stroke-width:0.5;" x="38.049874" xlink:href="#m94aa28d5dd" y="129.229214"/>
     <use style="fill:#ff0000;fill-opacity:0.8;stroke:#000000;stroke-opacity:0.8;stroke-width:0.5;" x="112.933083" xlink:href="#m94aa28d5dd" y="103.432016"/>
     <use style="fill:#ff0000;fill-opacity:0.8;stroke:#000000;stroke-opacity:0.8;stroke-width:0.5;" x="51.478616" xlink:href="#m94aa28d5dd" y="127.394077"/>
     <use style="fill:#ff0000;fill-opacity:0.8;stroke:#000000;stroke-opacity:0.8;stroke-width:0.5;" x="70.438593" xlink:href="#m94aa28d5dd" y="122.074951"/>
     <use style="fill:#ff0000;fill-opacity:0.8;stroke:#000000;stroke-opacity:0.8;stroke-width:0.5;" x="56.104655" xlink:href="#m94aa28d5dd" y="126.081408"/>
     <use style="fill:#ff0000;fill-opacity:0.8;stroke:#000000;stroke-opacity:0.8;stroke-width:0.5;" x="89.433246" xlink:href="#m94aa28d5dd" y="115.945263"/>
     <use style="fill:#ff0000;fill-opacity:0.8;stroke:#000000;stroke-opacity:0.8;stroke-width:0.5;" x="38.65573" xlink:href="#m94aa28d5dd" y="129.135638"/>
     <use style="fill:#ff0000;fill-opacity:0.8;stroke:#000000;stroke-opacity:0.8;stroke-width:0.5;" x="38.758958" xlink:href="#m94aa28d5dd" y="129.19239"/>
     <use style="fill:#ff0000;fill-opacity:0.8;stroke:#000000;stroke-opacity:0.8;stroke-width:0.5;" x="39.378378" xlink:href="#m94aa28d5dd" y="128.938954"/>
     <use style="fill:#ff0000;fill-opacity:0.8;stroke:#000000;stroke-opacity:0.8;stroke-width:0.5;" x="64.12898" xlink:href="#m94aa28d5dd" y="118.958769"/>
     <use style="fill:#ff0000;fill-opacity:0.8;stroke:#000000;stroke-opacity:0.8;stroke-width:0.5;" x="66.387221" xlink:href="#m94aa28d5dd" y="119.401958"/>
    </g>
   </g>
   <g id="PolyCollection_2">
    <path clip-path="url(#pe9fff3b851)" d="M 38.049874 129.233273 
L 38.049874 130.968224 
L 38.80627 130.703856 
L 39.562666 130.450779 
L 40.319062 130.201441 
L 41.075458 129.94877 
L 41.831854 129.695443 
L 42.58825 129.431662 
L 43.344646 129.185138 
L 44.101043 128.938835 
L 44.857439 128.694081 
L 45.613835 128.428813 
L 46.370231 128.175421 
L 47.126627 127.929695 
L 47.883023 127.668985 
L 48.639419 127.415487 
L 49.395815 127.162679 
L 50.152211 126.916474 
L 50.908607 126.678114 
L 51.665003 126.457398 
L 52.421399 126.232797 
L 53.177795 125.995985 
L 53.934191 125.757653 
L 54.690587 125.53151 
L 55.446983 125.310185 
L 56.203379 125.08614 
L 56.959775 124.85125 
L 57.716171 124.638612 
L 58.472568 124.428487 
L 59.228964 124.218518 
L 59.98536 124.024653 
L 60.741756 123.825856 
L 61.498152 123.610936 
L 62.254548 123.392583 
L 63.010944 123.208241 
L 63.76734 123.003544 
L 64.523736 122.796461 
L 65.280132 122.594071 
L 66.036528 122.399599 
L 66.792924 122.209828 
L 67.54932 122.020364 
L 68.305716 121.830448 
L 69.062112 121.640315 
L 69.818508 121.436571 
L 70.574904 121.228157 
L 71.3313 121.030283 
L 72.087696 120.834647 
L 72.844093 120.639716 
L 73.600489 120.444786 
L 74.356885 120.249855 
L 75.113281 120.054924 
L 75.869677 119.859993 
L 76.626073 119.665062 
L 77.382469 119.470131 
L 78.138865 119.2752 
L 78.895261 119.080269 
L 79.651657 118.885338 
L 80.408053 118.691337 
L 81.164449 118.496693 
L 81.920845 118.301739 
L 82.677241 118.106785 
L 83.433637 117.911832 
L 84.190033 117.716878 
L 84.946429 117.521924 
L 85.702825 117.32697 
L 86.459221 117.131948 
L 87.215618 116.936915 
L 87.972014 116.741881 
L 88.72841 116.546847 
L 89.484806 116.351814 
L 90.241202 116.15678 
L 90.997598 115.961747 
L 91.753994 115.766713 
L 92.51039 115.571679 
L 93.266786 115.376646 
L 94.023182 115.179858 
L 94.779578 114.98476 
L 95.535974 114.789662 
L 96.29237 114.594564 
L 97.048766 114.399466 
L 97.805162 114.204367 
L 98.561558 114.009269 
L 99.317954 113.814171 
L 100.07435 113.619073 
L 100.830746 113.423975 
L 101.587143 113.228877 
L 102.343539 113.033779 
L 103.099935 112.838681 
L 103.856331 112.643583 
L 104.612727 112.448485 
L 105.369123 112.253387 
L 106.125519 112.058289 
L 106.881915 111.86319 
L 107.638311 111.668092 
L 108.394707 111.472994 
L 109.151103 111.277896 
L 109.907499 111.082798 
L 110.663895 110.8877 
L 111.420291 110.692602 
L 112.176687 110.497504 
L 112.933083 110.302406 
L 112.933083 104.337814 
L 112.933083 104.337814 
L 112.176687 104.605714 
L 111.420291 104.87385 
L 110.663895 105.140101 
L 109.907499 105.40577 
L 109.151103 105.671439 
L 108.394707 105.937108 
L 107.638311 106.203747 
L 106.881915 106.472881 
L 106.125519 106.742015 
L 105.369123 107.011149 
L 104.612727 107.280434 
L 103.856331 107.547196 
L 103.099935 107.810096 
L 102.343539 108.071167 
L 101.587143 108.332397 
L 100.830746 108.593655 
L 100.07435 108.858436 
L 99.317954 109.123903 
L 98.561558 109.38937 
L 97.805162 109.654837 
L 97.048766 109.920304 
L 96.29237 110.18577 
L 95.535974 110.451237 
L 94.779578 110.716865 
L 94.023182 110.982358 
L 93.266786 111.239558 
L 92.51039 111.496759 
L 91.753994 111.762018 
L 90.997598 112.014198 
L 90.241202 112.266069 
L 89.484806 112.517738 
L 88.72841 112.771966 
L 87.972014 113.032879 
L 87.215618 113.293875 
L 86.459221 113.552126 
L 85.702825 113.816422 
L 84.946429 114.077464 
L 84.190033 114.338505 
L 83.433637 114.599546 
L 82.677241 114.860587 
L 81.920845 115.121628 
L 81.164449 115.382669 
L 80.408053 115.641577 
L 79.651657 115.895392 
L 78.895261 116.149208 
L 78.138865 116.403235 
L 77.382469 116.657298 
L 76.626073 116.916965 
L 75.869677 117.170913 
L 75.113281 117.424929 
L 74.356885 117.6844 
L 73.600489 117.94737 
L 72.844093 118.197107 
L 72.087696 118.440827 
L 71.3313 118.702203 
L 70.574904 118.963105 
L 69.818508 119.205794 
L 69.062112 119.46853 
L 68.305716 119.731393 
L 67.54932 119.979004 
L 66.792924 120.241575 
L 66.036528 120.494854 
L 65.280132 120.745813 
L 64.523736 121.002537 
L 63.76734 121.25768 
L 63.010944 121.510741 
L 62.254548 121.76595 
L 61.498152 122.012134 
L 60.741756 122.259608 
L 59.98536 122.515525 
L 59.228964 122.775807 
L 58.472568 123.033275 
L 57.716171 123.282236 
L 56.959775 123.519759 
L 56.203379 123.761801 
L 55.446983 124.007928 
L 54.690587 124.261948 
L 53.934191 124.501454 
L 53.177795 124.731937 
L 52.421399 124.979781 
L 51.665003 125.223572 
L 50.908607 125.463687 
L 50.152211 125.693591 
L 49.395815 125.93499 
L 48.639419 126.163545 
L 47.883023 126.394892 
L 47.126627 126.631109 
L 46.370231 126.866276 
L 45.613835 127.094742 
L 44.857439 127.323723 
L 44.101043 127.544566 
L 43.344646 127.742745 
L 42.58825 127.951863 
L 41.831854 128.174546 
L 41.075458 128.389941 
L 40.319062 128.603552 
L 39.562666 128.819008 
L 38.80627 129.030329 
L 38.049874 129.233273 
z
" style="fill:#ff0000;fill-opacity:0.15;"/>
   </g>
   <g id="PathCollection_3">
    <defs>
     <path d="M 0 1.581139 
C 0.419323 1.581139 0.821528 1.41454 1.118034 1.118034 
C 1.41454 0.821528 1.581139 0.419323 1.581139 0 
C 1.581139 -0.419323 1.41454 -0.821528 1.118034 -1.118034 
C 0.821528 -1.41454 0.419323 -1.581139 0 -1.581139 
C -0.419323 -1.581139 -0.821528 -1.41454 -1.118034 -1.118034 
C -1.41454 -0.821528 -1.581139 -0.419323 -1.581139 0 
C -1.581139 0.419323 -1.41454 0.821528 -1.118034 1.118034 
C -0.821528 1.41454 -0.419323 1.581139 0 1.581139 
z
" id="m992257eb5c" style="stroke:#000000;stroke-width:0.252982;"/>
    </defs>
    <g clip-path="url(#pe9fff3b851)">
     <use style="fill:#808080;stroke:#000000;stroke-width:0.252982;" x="38.277492" xlink:href="#m992257eb5c" y="128.977944"/>
     <use style="fill:#808080;stroke:#000000;stroke-width:0.252982;" x="38.481151" xlink:href="#m992257eb5c" y="128.944586"/>
     <use style="fill:#808080;stroke:#000000;stroke-width:0.252982;" x="39.48303" xlink:href="#m992257eb5c" y="129.287266"/>
     <use style="fill:#808080;stroke:#000000;stroke-width:0.252982;" x="38.868941" xlink:href="#m992257eb5c" y="129.290732"/>
     <use style="fill:#808080;stroke:#000000;stroke-width:0.252982;" x="39.50736" xlink:href="#m992257eb5c" y="129.277302"/>
     <use style="fill:#808080;stroke:#000000;stroke-width:0.252982;" x="39.438594" xlink:href="#m992257eb5c" y="129.307628"/>
     <use style="fill:#808080;stroke:#000000;stroke-width:0.252982;" x="38.995865" xlink:href="#m992257eb5c" y="129.297664"/>
     <use style="fill:#808080;stroke:#000000;stroke-width:0.252982;" x="38.049874" xlink:href="#m992257eb5c" y="129.229214"/>
     <use style="fill:#808080;stroke:#000000;stroke-width:0.252982;" x="38.65573" xlink:href="#m992257eb5c" y="129.135638"/>
     <use style="fill:#808080;stroke:#000000;stroke-width:0.252982;" x="38.090986" xlink:href="#m992257eb5c" y="128.74487"/>
     <use style="fill:#808080;stroke:#000000;stroke-width:0.252982;" x="39.967293" xlink:href="#m992257eb5c" y="126.589146"/>
     <use style="fill:#808080;stroke:#000000;stroke-width:0.252982;" x="38.758958" xlink:href="#m992257eb5c" y="129.19239"/>
     <use style="fill:#808080;stroke:#000000;stroke-width:0.252982;" x="39.378378" xlink:href="#m992257eb5c" y="128.938954"/>
     <use style="fill:#808080;stroke:#000000;stroke-width:0.252982;" x="40.570036" xlink:href="#m992257eb5c" y="125.74046"/>
    </g>
   </g>
   <g id="matplotlib.axis_1">
    <g id="xtick_1">
     <g id="line2d_3">
      <defs>
       <path d="M 0 0 
L 0 3.5 
" id="m44d49d49bc" style="stroke:#000000;stroke-width:0.8;"/>
      </defs>
      <g>
       <use style="stroke:#000000;stroke-width:0.8;" x="37.65554" xlink:href="#m44d49d49bc" y="138.978043"/>
      </g>
     </g>
     <g id="text_1">
      <!-- 0 -->
      <g transform="translate(36.064915 149.777262)scale(0.05 -0.05)">
       <defs>
        <path d="M 31.78125 66.40625 
Q 24.171875 66.40625 20.328125 58.90625 
Q 16.5 51.421875 16.5 36.375 
Q 16.5 21.390625 20.328125 13.890625 
Q 24.171875 6.390625 31.78125 6.390625 
Q 39.453125 6.390625 43.28125 13.890625 
Q 47.125 21.390625 47.125 36.375 
Q 47.125 51.421875 43.28125 58.90625 
Q 39.453125 66.40625 31.78125 66.40625 
z
M 31.78125 74.21875 
Q 44.046875 74.21875 50.515625 64.515625 
Q 56.984375 54.828125 56.984375 36.375 
Q 56.984375 17.96875 50.515625 8.265625 
Q 44.046875 -1.421875 31.78125 -1.421875 
Q 19.53125 -1.421875 13.0625 8.265625 
Q 6.59375 17.96875 6.59375 36.375 
Q 6.59375 54.828125 13.0625 64.515625 
Q 19.53125 74.21875 31.78125 74.21875 
z
" id="DejaVuSans-48"/>
       </defs>
       <use xlink:href="#DejaVuSans-48"/>
      </g>
     </g>
    </g>
    <g id="xtick_2">
     <g id="line2d_4">
      <g>
       <use style="stroke:#000000;stroke-width:0.8;" x="63.019176" xlink:href="#m44d49d49bc" y="138.978043"/>
      </g>
     </g>
     <g id="text_2">
      <!-- 50 -->
      <g transform="translate(59.837926 149.777262)scale(0.05 -0.05)">
       <defs>
        <path d="M 10.796875 72.90625 
L 49.515625 72.90625 
L 49.515625 64.59375 
L 19.828125 64.59375 
L 19.828125 46.734375 
Q 21.96875 47.46875 24.109375 47.828125 
Q 26.265625 48.1875 28.421875 48.1875 
Q 40.625 48.1875 47.75 41.5 
Q 54.890625 34.8125 54.890625 23.390625 
Q 54.890625 11.625 47.5625 5.09375 
Q 40.234375 -1.421875 26.90625 -1.421875 
Q 22.3125 -1.421875 17.546875 -0.640625 
Q 12.796875 0.140625 7.71875 1.703125 
L 7.71875 11.625 
Q 12.109375 9.234375 16.796875 8.0625 
Q 21.484375 6.890625 26.703125 6.890625 
Q 35.15625 6.890625 40.078125 11.328125 
Q 45.015625 15.765625 45.015625 23.390625 
Q 45.015625 31 40.078125 35.4375 
Q 35.15625 39.890625 26.703125 39.890625 
Q 22.75 39.890625 18.8125 39.015625 
Q 14.890625 38.140625 10.796875 36.28125 
z
" id="DejaVuSans-53"/>
       </defs>
       <use xlink:href="#DejaVuSans-53"/>
       <use x="63.623047" xlink:href="#DejaVuSans-48"/>
      </g>
     </g>
    </g>
    <g id="xtick_3">
     <g id="line2d_5">
      <g>
       <use style="stroke:#000000;stroke-width:0.8;" x="88.382812" xlink:href="#m44d49d49bc" y="138.978043"/>
      </g>
     </g>
     <g id="text_3">
      <!-- 100 -->
      <g transform="translate(83.610938 149.777262)scale(0.05 -0.05)">
       <defs>
        <path d="M 12.40625 8.296875 
L 28.515625 8.296875 
L 28.515625 63.921875 
L 10.984375 60.40625 
L 10.984375 69.390625 
L 28.421875 72.90625 
L 38.28125 72.90625 
L 38.28125 8.296875 
L 54.390625 8.296875 
L 54.390625 0 
L 12.40625 0 
z
" id="DejaVuSans-49"/>
       </defs>
       <use xlink:href="#DejaVuSans-49"/>
       <use x="63.623047" xlink:href="#DejaVuSans-48"/>
       <use x="127.246094" xlink:href="#DejaVuSans-48"/>
      </g>
     </g>
    </g>
    <g id="xtick_4">
     <g id="line2d_6">
      <g>
       <use style="stroke:#000000;stroke-width:0.8;" x="113.746449" xlink:href="#m44d49d49bc" y="138.978043"/>
      </g>
     </g>
     <g id="text_4">
      <!-- 150 -->
      <g transform="translate(108.974574 149.777262)scale(0.05 -0.05)">
       <use xlink:href="#DejaVuSans-49"/>
       <use x="63.623047" xlink:href="#DejaVuSans-53"/>
       <use x="127.246094" xlink:href="#DejaVuSans-48"/>
      </g>
     </g>
    </g>
    <g id="xtick_5">
     <g id="line2d_7">
      <g>
       <use style="stroke:#000000;stroke-width:0.8;" x="139.110085" xlink:href="#m44d49d49bc" y="138.978043"/>
      </g>
     </g>
     <g id="text_5">
      <!-- 200 -->
      <g transform="translate(134.33821 149.777262)scale(0.05 -0.05)">
       <defs>
        <path d="M 19.1875 8.296875 
L 53.609375 8.296875 
L 53.609375 0 
L 7.328125 0 
L 7.328125 8.296875 
Q 12.9375 14.109375 22.625 23.890625 
Q 32.328125 33.6875 34.8125 36.53125 
Q 39.546875 41.84375 41.421875 45.53125 
Q 43.3125 49.21875 43.3125 52.78125 
Q 43.3125 58.59375 39.234375 62.25 
Q 35.15625 65.921875 28.609375 65.921875 
Q 23.96875 65.921875 18.8125 64.3125 
Q 13.671875 62.703125 7.8125 59.421875 
L 7.8125 69.390625 
Q 13.765625 71.78125 18.9375 73 
Q 24.125 74.21875 28.421875 74.21875 
Q 39.75 74.21875 46.484375 68.546875 
Q 53.21875 62.890625 53.21875 53.421875 
Q 53.21875 48.921875 51.53125 44.890625 
Q 49.859375 40.875 45.40625 35.40625 
Q 44.1875 33.984375 37.640625 27.21875 
Q 31.109375 20.453125 19.1875 8.296875 
z
" id="DejaVuSans-50"/>
       </defs>
       <use xlink:href="#DejaVuSans-50"/>
       <use x="63.623047" xlink:href="#DejaVuSans-48"/>
       <use x="127.246094" xlink:href="#DejaVuSans-48"/>
      </g>
     </g>
    </g>
    <g id="text_6">
     <!-- pPCP1 Depth (X) -->
     <g transform="translate(67.577344 158.616325)scale(0.05 -0.05)">
      <defs>
       <path d="M 18.109375 8.203125 
L 18.109375 -20.796875 
L 9.078125 -20.796875 
L 9.078125 54.6875 
L 18.109375 54.6875 
L 18.109375 46.390625 
Q 20.953125 51.265625 25.265625 53.625 
Q 29.59375 56 35.59375 56 
Q 45.5625 56 51.78125 48.09375 
Q 58.015625 40.1875 58.015625 27.296875 
Q 58.015625 14.40625 51.78125 6.484375 
Q 45.5625 -1.421875 35.59375 -1.421875 
Q 29.59375 -1.421875 25.265625 0.953125 
Q 20.953125 3.328125 18.109375 8.203125 
z
M 48.6875 27.296875 
Q 48.6875 37.203125 44.609375 42.84375 
Q 40.53125 48.484375 33.40625 48.484375 
Q 26.265625 48.484375 22.1875 42.84375 
Q 18.109375 37.203125 18.109375 27.296875 
Q 18.109375 17.390625 22.1875 11.75 
Q 26.265625 6.109375 33.40625 6.109375 
Q 40.53125 6.109375 44.609375 11.75 
Q 48.6875 17.390625 48.6875 27.296875 
z
" id="DejaVuSans-112"/>
       <path d="M 19.671875 64.796875 
L 19.671875 37.40625 
L 32.078125 37.40625 
Q 38.96875 37.40625 42.71875 40.96875 
Q 46.484375 44.53125 46.484375 51.125 
Q 46.484375 57.671875 42.71875 61.234375 
Q 38.96875 64.796875 32.078125 64.796875 
z
M 9.8125 72.90625 
L 32.078125 72.90625 
Q 44.34375 72.90625 50.609375 67.359375 
Q 56.890625 61.8125 56.890625 51.125 
Q 56.890625 40.328125 50.609375 34.8125 
Q 44.34375 29.296875 32.078125 29.296875 
L 19.671875 29.296875 
L 19.671875 0 
L 9.8125 0 
z
" id="DejaVuSans-80"/>
       <path d="M 64.40625 67.28125 
L 64.40625 56.890625 
Q 59.421875 61.53125 53.78125 63.8125 
Q 48.140625 66.109375 41.796875 66.109375 
Q 29.296875 66.109375 22.65625 58.46875 
Q 16.015625 50.828125 16.015625 36.375 
Q 16.015625 21.96875 22.65625 14.328125 
Q 29.296875 6.6875 41.796875 6.6875 
Q 48.140625 6.6875 53.78125 8.984375 
Q 59.421875 11.28125 64.40625 15.921875 
L 64.40625 5.609375 
Q 59.234375 2.09375 53.4375 0.328125 
Q 47.65625 -1.421875 41.21875 -1.421875 
Q 24.65625 -1.421875 15.125 8.703125 
Q 5.609375 18.84375 5.609375 36.375 
Q 5.609375 53.953125 15.125 64.078125 
Q 24.65625 74.21875 41.21875 74.21875 
Q 47.75 74.21875 53.53125 72.484375 
Q 59.328125 70.75 64.40625 67.28125 
z
" id="DejaVuSans-67"/>
       <path id="DejaVuSans-32"/>
       <path d="M 19.671875 64.796875 
L 19.671875 8.109375 
L 31.59375 8.109375 
Q 46.6875 8.109375 53.6875 14.9375 
Q 60.6875 21.78125 60.6875 36.53125 
Q 60.6875 51.171875 53.6875 57.984375 
Q 46.6875 64.796875 31.59375 64.796875 
z
M 9.8125 72.90625 
L 30.078125 72.90625 
Q 51.265625 72.90625 61.171875 64.09375 
Q 71.09375 55.28125 71.09375 36.53125 
Q 71.09375 17.671875 61.125 8.828125 
Q 51.171875 0 30.078125 0 
L 9.8125 0 
z
" id="DejaVuSans-68"/>
       <path d="M 56.203125 29.59375 
L 56.203125 25.203125 
L 14.890625 25.203125 
Q 15.484375 15.921875 20.484375 11.0625 
Q 25.484375 6.203125 34.421875 6.203125 
Q 39.59375 6.203125 44.453125 7.46875 
Q 49.3125 8.734375 54.109375 11.28125 
L 54.109375 2.78125 
Q 49.265625 0.734375 44.1875 -0.34375 
Q 39.109375 -1.421875 33.890625 -1.421875 
Q 20.796875 -1.421875 13.15625 6.1875 
Q 5.515625 13.8125 5.515625 26.8125 
Q 5.515625 40.234375 12.765625 48.109375 
Q 20.015625 56 32.328125 56 
Q 43.359375 56 49.78125 48.890625 
Q 56.203125 41.796875 56.203125 29.59375 
z
M 47.21875 32.234375 
Q 47.125 39.59375 43.09375 43.984375 
Q 39.0625 48.390625 32.421875 48.390625 
Q 24.90625 48.390625 20.390625 44.140625 
Q 15.875 39.890625 15.1875 32.171875 
z
" id="DejaVuSans-101"/>
       <path d="M 18.3125 70.21875 
L 18.3125 54.6875 
L 36.8125 54.6875 
L 36.8125 47.703125 
L 18.3125 47.703125 
L 18.3125 18.015625 
Q 18.3125 11.328125 20.140625 9.421875 
Q 21.96875 7.515625 27.59375 7.515625 
L 36.8125 7.515625 
L 36.8125 0 
L 27.59375 0 
Q 17.1875 0 13.234375 3.875 
Q 9.28125 7.765625 9.28125 18.015625 
L 9.28125 47.703125 
L 2.6875 47.703125 
L 2.6875 54.6875 
L 9.28125 54.6875 
L 9.28125 70.21875 
z
" id="DejaVuSans-116"/>
       <path d="M 54.890625 33.015625 
L 54.890625 0 
L 45.90625 0 
L 45.90625 32.71875 
Q 45.90625 40.484375 42.875 44.328125 
Q 39.84375 48.1875 33.796875 48.1875 
Q 26.515625 48.1875 22.3125 43.546875 
Q 18.109375 38.921875 18.109375 30.90625 
L 18.109375 0 
L 9.078125 0 
L 9.078125 75.984375 
L 18.109375 75.984375 
L 18.109375 46.1875 
Q 21.34375 51.125 25.703125 53.5625 
Q 30.078125 56 35.796875 56 
Q 45.21875 56 50.046875 50.171875 
Q 54.890625 44.34375 54.890625 33.015625 
z
" id="DejaVuSans-104"/>
       <path d="M 31 75.875 
Q 24.46875 64.65625 21.28125 53.65625 
Q 18.109375 42.671875 18.109375 31.390625 
Q 18.109375 20.125 21.3125 9.0625 
Q 24.515625 -2 31 -13.1875 
L 23.1875 -13.1875 
Q 15.875 -1.703125 12.234375 9.375 
Q 8.59375 20.453125 8.59375 31.390625 
Q 8.59375 42.28125 12.203125 53.3125 
Q 15.828125 64.359375 23.1875 75.875 
z
" id="DejaVuSans-40"/>
       <path d="M 6.296875 72.90625 
L 16.890625 72.90625 
L 35.015625 45.796875 
L 53.21875 72.90625 
L 63.8125 72.90625 
L 40.375 37.890625 
L 65.375 0 
L 54.78125 0 
L 34.28125 31 
L 13.625 0 
L 2.984375 0 
L 29 38.921875 
z
" id="DejaVuSans-88"/>
       <path d="M 8.015625 75.875 
L 15.828125 75.875 
Q 23.140625 64.359375 26.78125 53.3125 
Q 30.421875 42.28125 30.421875 31.390625 
Q 30.421875 20.453125 26.78125 9.375 
Q 23.140625 -1.703125 15.828125 -13.1875 
L 8.015625 -13.1875 
Q 14.5 -2 17.703125 9.0625 
Q 20.90625 20.125 20.90625 31.390625 
Q 20.90625 42.671875 17.703125 53.65625 
Q 14.5 64.65625 8.015625 75.875 
z
" id="DejaVuSans-41"/>
      </defs>
      <use xlink:href="#DejaVuSans-112"/>
      <use x="63.476562" xlink:href="#DejaVuSans-80"/>
      <use x="123.779297" xlink:href="#DejaVuSans-67"/>
      <use x="193.603516" xlink:href="#DejaVuSans-80"/>
      <use x="253.90625" xlink:href="#DejaVuSans-49"/>
      <use x="317.529297" xlink:href="#DejaVuSans-32"/>
      <use x="349.316406" xlink:href="#DejaVuSans-68"/>
      <use x="426.318359" xlink:href="#DejaVuSans-101"/>
      <use x="487.841797" xlink:href="#DejaVuSans-112"/>
      <use x="551.318359" xlink:href="#DejaVuSans-116"/>
      <use x="590.527344" xlink:href="#DejaVuSans-104"/>
      <use x="653.90625" xlink:href="#DejaVuSans-32"/>
      <use x="685.693359" xlink:href="#DejaVuSans-40"/>
      <use x="724.707031" xlink:href="#DejaVuSans-88"/>
      <use x="793.212891" xlink:href="#DejaVuSans-41"/>
     </g>
    </g>
   </g>
   <g id="matplotlib.axis_2">
    <g id="ytick_1">
     <g id="line2d_8">
      <defs>
       <path d="M 0 0 
L -3.5 0 
" id="mfc9fcff835" style="stroke:#000000;stroke-width:0.8;"/>
      </defs>
      <g>
       <use style="stroke:#000000;stroke-width:0.8;" x="32.582813" xlink:href="#mfc9fcff835" y="129.322791"/>
      </g>
     </g>
     <g id="text_7">
      <!-- 0 -->
      <g transform="translate(22.401563 131.2224)scale(0.05 -0.05)">
       <use xlink:href="#DejaVuSans-48"/>
      </g>
     </g>
    </g>
    <g id="ytick_2">
     <g id="line2d_9">
      <g>
       <use style="stroke:#000000;stroke-width:0.8;" x="32.582813" xlink:href="#mfc9fcff835" y="108.982917"/>
      </g>
     </g>
     <g id="text_8">
      <!-- 50 -->
      <g transform="translate(19.220313 110.882526)scale(0.05 -0.05)">
       <use xlink:href="#DejaVuSans-53"/>
       <use x="63.623047" xlink:href="#DejaVuSans-48"/>
      </g>
     </g>
    </g>
    <g id="ytick_3">
     <g id="line2d_10">
      <g>
       <use style="stroke:#000000;stroke-width:0.8;" x="32.582813" xlink:href="#mfc9fcff835" y="88.643044"/>
      </g>
     </g>
     <g id="text_9">
      <!-- 100 -->
      <g transform="translate(16.039062 90.542653)scale(0.05 -0.05)">
       <use xlink:href="#DejaVuSans-49"/>
       <use x="63.623047" xlink:href="#DejaVuSans-48"/>
       <use x="127.246094" xlink:href="#DejaVuSans-48"/>
      </g>
     </g>
    </g>
    <g id="ytick_4">
     <g id="line2d_11">
      <g>
       <use style="stroke:#000000;stroke-width:0.8;" x="32.582813" xlink:href="#mfc9fcff835" y="68.30317"/>
      </g>
     </g>
     <g id="text_10">
      <!-- 150 -->
      <g transform="translate(16.039062 70.202779)scale(0.05 -0.05)">
       <use xlink:href="#DejaVuSans-49"/>
       <use x="63.623047" xlink:href="#DejaVuSans-53"/>
       <use x="127.246094" xlink:href="#DejaVuSans-48"/>
      </g>
     </g>
    </g>
    <g id="ytick_5">
     <g id="line2d_12">
      <g>
       <use style="stroke:#000000;stroke-width:0.8;" x="32.582813" xlink:href="#mfc9fcff835" y="47.963297"/>
      </g>
     </g>
     <g id="text_11">
      <!-- 200 -->
      <g transform="translate(16.039062 49.862906)scale(0.05 -0.05)">
       <use xlink:href="#DejaVuSans-50"/>
       <use x="63.623047" xlink:href="#DejaVuSans-48"/>
       <use x="127.246094" xlink:href="#DejaVuSans-48"/>
      </g>
     </g>
    </g>
    <g id="ytick_6">
     <g id="line2d_13">
      <g>
       <use style="stroke:#000000;stroke-width:0.8;" x="32.582813" xlink:href="#mfc9fcff835" y="27.623423"/>
      </g>
     </g>
     <g id="text_12">
      <!-- 250 -->
      <g transform="translate(16.039062 29.523032)scale(0.05 -0.05)">
       <use xlink:href="#DejaVuSans-50"/>
       <use x="63.623047" xlink:href="#DejaVuSans-53"/>
       <use x="127.246094" xlink:href="#DejaVuSans-48"/>
      </g>
     </g>
    </g>
    <g id="text_13">
     <!-- pla Depth (X) -->
     <g transform="translate(10.999219 90.426903)rotate(-90)scale(0.05 -0.05)">
      <defs>
       <path d="M 9.421875 75.984375 
L 18.40625 75.984375 
L 18.40625 0 
L 9.421875 0 
z
" id="DejaVuSans-108"/>
       <path d="M 34.28125 27.484375 
Q 23.390625 27.484375 19.1875 25 
Q 14.984375 22.515625 14.984375 16.5 
Q 14.984375 11.71875 18.140625 8.90625 
Q 21.296875 6.109375 26.703125 6.109375 
Q 34.1875 6.109375 38.703125 11.40625 
Q 43.21875 16.703125 43.21875 25.484375 
L 43.21875 27.484375 
z
M 52.203125 31.203125 
L 52.203125 0 
L 43.21875 0 
L 43.21875 8.296875 
Q 40.140625 3.328125 35.546875 0.953125 
Q 30.953125 -1.421875 24.3125 -1.421875 
Q 15.921875 -1.421875 10.953125 3.296875 
Q 6 8.015625 6 15.921875 
Q 6 25.140625 12.171875 29.828125 
Q 18.359375 34.515625 30.609375 34.515625 
L 43.21875 34.515625 
L 43.21875 35.40625 
Q 43.21875 41.609375 39.140625 45 
Q 35.0625 48.390625 27.6875 48.390625 
Q 23 48.390625 18.546875 47.265625 
Q 14.109375 46.140625 10.015625 43.890625 
L 10.015625 52.203125 
Q 14.9375 54.109375 19.578125 55.046875 
Q 24.21875 56 28.609375 56 
Q 40.484375 56 46.34375 49.84375 
Q 52.203125 43.703125 52.203125 31.203125 
z
" id="DejaVuSans-97"/>
      </defs>
      <use xlink:href="#DejaVuSans-112"/>
      <use x="63.476562" xlink:href="#DejaVuSans-108"/>
      <use x="91.259766" xlink:href="#DejaVuSans-97"/>
      <use x="152.539062" xlink:href="#DejaVuSans-32"/>
      <use x="184.326172" xlink:href="#DejaVuSans-68"/>
      <use x="261.328125" xlink:href="#DejaVuSans-101"/>
      <use x="322.851562" xlink:href="#DejaVuSans-112"/>
      <use x="386.328125" xlink:href="#DejaVuSans-116"/>
      <use x="425.537109" xlink:href="#DejaVuSans-104"/>
      <use x="488.916016" xlink:href="#DejaVuSans-32"/>
      <use x="520.703125" xlink:href="#DejaVuSans-40"/>
      <use x="559.716797" xlink:href="#DejaVuSans-88"/>
      <use x="628.222656" xlink:href="#DejaVuSans-41"/>
     </g>
    </g>
   </g>
   <g id="patch_3">
    <path d="M 32.582813 138.978043 
L 32.582813 8.514043 
" style="fill:none;stroke:#000000;stroke-linecap:square;stroke-linejoin:miter;stroke-width:0.8;"/>
   </g>
   <g id="patch_4">
    <path d="M 144.182812 138.978043 
L 144.182812 8.514043 
" style="fill:none;stroke:#000000;stroke-linecap:square;stroke-linejoin:miter;stroke-width:0.8;"/>
   </g>
   <g id="patch_5">
    <path d="M 32.582813 138.978043 
L 144.182812 138.978043 
" style="fill:none;stroke:#000000;stroke-linecap:square;stroke-linejoin:miter;stroke-width:0.8;"/>
   </g>
   <g id="patch_6">
    <path d="M 32.582813 8.514043 
L 144.182812 8.514043 
" style="fill:none;stroke:#000000;stroke-linecap:square;stroke-linejoin:miter;stroke-width:0.8;"/>
   </g>
   <g id="legend_1">
    <g id="patch_7">
     <path d="M 36.082813 34.531231 
L 79.395313 34.531231 
Q 80.395313 34.531231 80.395313 33.531231 
L 80.395313 12.014043 
Q 80.395313 11.014043 79.395313 11.014043 
L 36.082813 11.014043 
Q 35.082813 11.014043 35.082813 12.014043 
L 35.082813 33.531231 
Q 35.082813 34.531231 36.082813 34.531231 
z
" style="fill:#ffffff;opacity:0.8;stroke:#000000;stroke-linejoin:miter;stroke-width:0.5;"/>
    </g>
    <g id="PathCollection_4">
     <g>
      <use style="fill:#008000;fill-opacity:0.8;stroke:#000000;stroke-opacity:0.8;stroke-width:0.5;" x="42.082813" xlink:href="#m1bbd4bdd4e" y="15.500762"/>
     </g>
    </g>
    <g id="text_14">
     <!-- High pla -->
     <g transform="translate(51.082813 16.813262)scale(0.05 -0.05)">
      <defs>
       <path d="M 9.8125 72.90625 
L 19.671875 72.90625 
L 19.671875 43.015625 
L 55.515625 43.015625 
L 55.515625 72.90625 
L 65.375 72.90625 
L 65.375 0 
L 55.515625 0 
L 55.515625 34.71875 
L 19.671875 34.71875 
L 19.671875 0 
L 9.8125 0 
z
" id="DejaVuSans-72"/>
       <path d="M 9.421875 54.6875 
L 18.40625 54.6875 
L 18.40625 0 
L 9.421875 0 
z
M 9.421875 75.984375 
L 18.40625 75.984375 
L 18.40625 64.59375 
L 9.421875 64.59375 
z
" id="DejaVuSans-105"/>
       <path d="M 45.40625 27.984375 
Q 45.40625 37.75 41.375 43.109375 
Q 37.359375 48.484375 30.078125 48.484375 
Q 22.859375 48.484375 18.828125 43.109375 
Q 14.796875 37.75 14.796875 27.984375 
Q 14.796875 18.265625 18.828125 12.890625 
Q 22.859375 7.515625 30.078125 7.515625 
Q 37.359375 7.515625 41.375 12.890625 
Q 45.40625 18.265625 45.40625 27.984375 
z
M 54.390625 6.78125 
Q 54.390625 -7.171875 48.1875 -13.984375 
Q 42 -20.796875 29.203125 -20.796875 
Q 24.46875 -20.796875 20.265625 -20.09375 
Q 16.0625 -19.390625 12.109375 -17.921875 
L 12.109375 -9.1875 
Q 16.0625 -11.328125 19.921875 -12.34375 
Q 23.78125 -13.375 27.78125 -13.375 
Q 36.625 -13.375 41.015625 -8.765625 
Q 45.40625 -4.15625 45.40625 5.171875 
L 45.40625 9.625 
Q 42.625 4.78125 38.28125 2.390625 
Q 33.9375 0 27.875 0 
Q 17.828125 0 11.671875 7.65625 
Q 5.515625 15.328125 5.515625 27.984375 
Q 5.515625 40.671875 11.671875 48.328125 
Q 17.828125 56 27.875 56 
Q 33.9375 56 38.28125 53.609375 
Q 42.625 51.21875 45.40625 46.390625 
L 45.40625 54.6875 
L 54.390625 54.6875 
z
" id="DejaVuSans-103"/>
      </defs>
      <use xlink:href="#DejaVuSans-72"/>
      <use x="75.195312" xlink:href="#DejaVuSans-105"/>
      <use x="102.978516" xlink:href="#DejaVuSans-103"/>
      <use x="166.455078" xlink:href="#DejaVuSans-104"/>
      <use x="229.833984" xlink:href="#DejaVuSans-32"/>
      <use x="261.621094" xlink:href="#DejaVuSans-112"/>
      <use x="325.097656" xlink:href="#DejaVuSans-108"/>
      <use x="352.880859" xlink:href="#DejaVuSans-97"/>
     </g>
    </g>
    <g id="PathCollection_5">
     <g>
      <use style="fill:#ff0000;fill-opacity:0.8;stroke:#000000;stroke-opacity:0.8;stroke-width:0.5;" x="42.082813" xlink:href="#m94aa28d5dd" y="22.839825"/>
     </g>
    </g>
    <g id="text_15">
     <!-- Low pla -->
     <g transform="translate(51.082813 24.152325)scale(0.05 -0.05)">
      <defs>
       <path d="M 9.8125 72.90625 
L 19.671875 72.90625 
L 19.671875 8.296875 
L 55.171875 8.296875 
L 55.171875 0 
L 9.8125 0 
z
" id="DejaVuSans-76"/>
       <path d="M 30.609375 48.390625 
Q 23.390625 48.390625 19.1875 42.75 
Q 14.984375 37.109375 14.984375 27.296875 
Q 14.984375 17.484375 19.15625 11.84375 
Q 23.34375 6.203125 30.609375 6.203125 
Q 37.796875 6.203125 41.984375 11.859375 
Q 46.1875 17.53125 46.1875 27.296875 
Q 46.1875 37.015625 41.984375 42.703125 
Q 37.796875 48.390625 30.609375 48.390625 
z
M 30.609375 56 
Q 42.328125 56 49.015625 48.375 
Q 55.71875 40.765625 55.71875 27.296875 
Q 55.71875 13.875 49.015625 6.21875 
Q 42.328125 -1.421875 30.609375 -1.421875 
Q 18.84375 -1.421875 12.171875 6.21875 
Q 5.515625 13.875 5.515625 27.296875 
Q 5.515625 40.765625 12.171875 48.375 
Q 18.84375 56 30.609375 56 
z
" id="DejaVuSans-111"/>
       <path d="M 4.203125 54.6875 
L 13.1875 54.6875 
L 24.421875 12.015625 
L 35.59375 54.6875 
L 46.1875 54.6875 
L 57.421875 12.015625 
L 68.609375 54.6875 
L 77.59375 54.6875 
L 63.28125 0 
L 52.6875 0 
L 40.921875 44.828125 
L 29.109375 0 
L 18.5 0 
z
" id="DejaVuSans-119"/>
      </defs>
      <use xlink:href="#DejaVuSans-76"/>
      <use x="53.962891" xlink:href="#DejaVuSans-111"/>
      <use x="115.144531" xlink:href="#DejaVuSans-119"/>
      <use x="196.931641" xlink:href="#DejaVuSans-32"/>
      <use x="228.71875" xlink:href="#DejaVuSans-112"/>
      <use x="292.195312" xlink:href="#DejaVuSans-108"/>
      <use x="319.978516" xlink:href="#DejaVuSans-97"/>
     </g>
    </g>
    <g id="PathCollection_6">
     <g>
      <use style="fill:#808080;stroke:#000000;stroke-width:0.252982;" x="42.082813" xlink:href="#m992257eb5c" y="30.178887"/>
     </g>
    </g>
    <g id="text_16">
     <!-- Low pPCP1 -->
     <g transform="translate(51.082813 31.491387)scale(0.05 -0.05)">
      <use xlink:href="#DejaVuSans-76"/>
      <use x="53.962891" xlink:href="#DejaVuSans-111"/>
      <use x="115.144531" xlink:href="#DejaVuSans-119"/>
      <use x="196.931641" xlink:href="#DejaVuSans-32"/>
      <use x="228.71875" xlink:href="#DejaVuSans-112"/>
      <use x="292.195312" xlink:href="#DejaVuSans-80"/>
      <use x="352.498047" xlink:href="#DejaVuSans-67"/>
      <use x="422.322266" xlink:href="#DejaVuSans-80"/>
      <use x="482.625" xlink:href="#DejaVuSans-49"/>
     </g>
    </g>
   </g>
  </g>
  <g id="axes_2">
   <g id="patch_8">
    <path d="M 188.822812 138.978043 
L 300.422813 138.978043 
L 300.422813 8.514043 
L 188.822812 8.514043 
z
" style="fill:#ffffff;"/>
   </g>
   <g id="patch_9">
    <path clip-path="url(#p4264f6f546)" d="M 238.908302 118.803075 
L 264.931305 118.803075 
L 264.931305 117.377888 
L 238.908302 117.377888 
z
" style="fill:#ff0000;opacity:0.2;"/>
   </g>
   <g id="patch_10">
    <path clip-path="url(#p4264f6f546)" d="M 237.677484 115.435463 
L 263.700487 115.435463 
L 263.700487 114.010275 
L 237.677484 114.010275 
z
" style="fill:#ff0000;opacity:0.2;"/>
   </g>
   <g id="patch_11">
    <path clip-path="url(#p4264f6f546)" d="M 237.501653 119.697679 
L 263.348825 119.697679 
L 263.348825 118.272491 
L 237.501653 118.272491 
z
" style="fill:#ff0000;opacity:0.2;"/>
   </g>
   <g id="patch_12">
    <path clip-path="url(#p4264f6f546)" d="M 236.97416 99.147733 
L 263.172994 99.147733 
L 263.172994 97.722545 
L 236.97416 97.722545 
z
" style="fill:#ff0000;opacity:0.2;"/>
   </g>
   <g id="patch_13">
    <path clip-path="url(#p4264f6f546)" d="M 239.084133 120.983689 
L 265.458798 120.983689 
L 265.458798 119.558502 
L 239.084133 119.558502 
z
" style="fill:#ff0000;opacity:0.2;"/>
   </g>
   <g id="patch_14">
    <path clip-path="url(#p4264f6f546)" d="M 238.732471 121.602523 
L 265.986291 121.602523 
L 265.986291 120.177335 
L 238.732471 120.177335 
z
" style="fill:#ff0000;opacity:0.2;"/>
   </g>
   <g id="patch_15">
    <path clip-path="url(#p4264f6f546)" d="M 237.853315 118.365039 
L 264.22798 118.365039 
L 264.22798 116.939851 
L 237.853315 116.939851 
z
" style="fill:#ff0000;opacity:0.2;"/>
   </g>
   <g id="patch_16">
    <path clip-path="url(#p4264f6f546)" d="M 238.380808 117.202892 
L 264.403811 117.202892 
L 264.403811 115.777705 
L 238.380808 115.777705 
z
" style="fill:#ff0000;opacity:0.2;"/>
   </g>
   <g id="patch_17">
    <path clip-path="url(#p4264f6f546)" d="M 213.588623 108.133909 
L 243.128248 108.133909 
L 243.128248 106.708722 
L 213.588623 106.708722 
z
" style="fill:#ff0000;opacity:0.2;"/>
   </g>
   <g id="patch_18">
    <path clip-path="url(#p4264f6f546)" d="M 225.193476 114.420727 
L 251.216479 114.420727 
L 251.216479 112.995539 
L 225.193476 112.995539 
z
" style="fill:#ff0000;opacity:0.2;"/>
   </g>
   <g id="patch_19">
    <path clip-path="url(#p4264f6f546)" d="M 198.115486 73.667086 
L 223.435165 73.667086 
L 223.435165 72.241899 
L 198.115486 72.241899 
z
" style="fill:#ff0000;opacity:0.2;"/>
   </g>
   <g id="patch_20">
    <path clip-path="url(#p4264f6f546)" d="M 204.093744 62.311488 
L 230.64424 62.311488 
L 230.64424 60.886301 
L 204.093744 60.886301 
z
" style="fill:#008000;opacity:0.2;"/>
   </g>
   <g id="patch_21">
    <path clip-path="url(#p4264f6f546)" d="M 232.050889 120.798256 
L 259.304709 120.798256 
L 259.304709 119.373069 
L 232.050889 119.373069 
z
" style="fill:#ff0000;opacity:0.2;"/>
   </g>
   <g id="patch_22">
    <path clip-path="url(#p4264f6f546)" d="M 193.89554 51.564995 
L 219.918543 51.564995 
L 219.918543 50.139808 
L 193.89554 50.139808 
z
" style="fill:#008000;opacity:0.2;"/>
   </g>
   <g id="patch_23">
    <path clip-path="url(#p4264f6f546)" d="M 223.083503 110.050039 
L 251.216479 110.050039 
L 251.216479 108.624852 
L 223.083503 108.624852 
z
" style="fill:#ff0000;opacity:0.2;"/>
   </g>
   <g id="patch_24">
    <path clip-path="url(#p4264f6f546)" d="M 251.040648 106.038804 
L 274.074522 106.038804 
L 274.074522 104.613616 
L 251.040648 104.613616 
z
" style="fill:#ff0000;opacity:0.2;"/>
   </g>
   <g id="patch_25">
    <path clip-path="url(#p4264f6f546)" d="M 245.414052 115.766937 
L 269.854576 115.766937 
L 269.854576 114.34175 
L 245.414052 114.34175 
z
" style="fill:#ff0000;opacity:0.2;"/>
   </g>
   <g id="patch_26">
    <path clip-path="url(#p4264f6f546)" d="M 242.249093 104.085921 
L 267.041278 104.085921 
L 267.041278 102.660734 
L 242.249093 102.660734 
z
" style="fill:#ff0000;opacity:0.2;"/>
   </g>
   <g id="patch_27">
    <path clip-path="url(#p4264f6f546)" d="M 246.469039 112.471078 
L 271.085393 112.471078 
L 271.085393 111.04589 
L 246.469039 111.04589 
z
" style="fill:#ff0000;opacity:0.2;"/>
   </g>
   <g id="patch_28">
    <path clip-path="url(#p4264f6f546)" d="M 246.469039 121.702362 
L 271.437055 121.702362 
L 271.437055 120.277174 
L 246.469039 120.277174 
z
" style="fill:#ff0000;opacity:0.2;"/>
   </g>
   <g id="patch_29">
    <path clip-path="url(#p4264f6f546)" d="M 198.291317 32.928616 
L 225.193476 32.928616 
L 225.193476 31.503429 
L 198.291317 31.503429 
z
" style="fill:#008000;opacity:0.2;"/>
   </g>
   <g id="patch_30">
    <path clip-path="url(#p4264f6f546)" d="M 197.939655 29.547582 
L 223.962658 29.547582 
L 223.962658 28.122394 
L 197.939655 28.122394 
z
" style="fill:#008000;opacity:0.2;"/>
   </g>
   <g id="patch_31">
    <path clip-path="url(#p4264f6f546)" d="M 206.555379 27.721582 
L 231.523395 27.721582 
L 231.523395 26.296394 
L 206.555379 26.296394 
z
" style="fill:#008000;opacity:0.2;"/>
   </g>
   <g id="patch_32">
    <path clip-path="url(#p4264f6f546)" d="M 204.445406 44.088189 
L 229.765084 44.088189 
L 229.765084 42.663002 
L 204.445406 42.663002 
z
" style="fill:#008000;opacity:0.2;"/>
   </g>
   <g id="patch_33">
    <path clip-path="url(#p4264f6f546)" d="M 206.73121 84.534527 
L 230.116747 84.534527 
L 230.116747 83.109339 
L 206.73121 83.109339 
z
" style="fill:#808080;opacity:0.2;"/>
   </g>
   <g id="patch_34">
    <path clip-path="url(#p4264f6f546)" d="M 198.291317 93.097682 
L 224.490151 93.097682 
L 224.490151 91.672495 
L 198.291317 91.672495 
z
" style="fill:#808080;opacity:0.2;"/>
   </g>
   <g id="patch_35">
    <path clip-path="url(#p4264f6f546)" d="M 267.568771 132.076179 
L 288.316841 132.076179 
L 288.316841 130.650991 
L 267.568771 130.650991 
z
" style="fill:#ff0000;opacity:0.2;"/>
   </g>
   <g id="patch_36">
    <path clip-path="url(#p4264f6f546)" d="M 267.568771 131.4558 
L 288.316841 131.4558 
L 288.316841 130.030613 
L 267.568771 130.030613 
z
" style="fill:#808080;opacity:0.2;"/>
   </g>
   <g id="patch_37">
    <path clip-path="url(#p4264f6f546)" d="M 267.568771 131.62074 
L 288.316841 131.62074 
L 288.316841 130.195553 
L 267.568771 130.195553 
z
" style="fill:#ff0000;opacity:0.2;"/>
   </g>
   <g id="patch_38">
    <path clip-path="url(#p4264f6f546)" d="M 267.568771 133.047862 
L 288.316841 133.047862 
L 288.316841 131.622674 
L 267.568771 131.622674 
z
" style="fill:#ff0000;opacity:0.2;"/>
   </g>
   <g id="patch_39">
    <path clip-path="url(#p4264f6f546)" d="M 267.568771 132.137665 
L 288.316841 132.137665 
L 288.316841 130.712477 
L 267.568771 130.712477 
z
" style="fill:#808080;opacity:0.2;"/>
   </g>
   <g id="patch_40">
    <path clip-path="url(#p4264f6f546)" d="M 202.159602 112.716883 
L 222.907671 112.716883 
L 222.907671 111.291696 
L 202.159602 111.291696 
z
" style="fill:#808080;opacity:0.2;"/>
   </g>
   <g id="patch_41">
    <path clip-path="url(#p4264f6f546)" d="M 201.280446 17.923764 
L 228.006773 17.923764 
L 228.006773 16.498577 
L 201.280446 16.498577 
z
" style="fill:#008000;opacity:0.2;"/>
   </g>
   <g id="patch_42">
    <path clip-path="url(#p4264f6f546)" d="M 287.261855 103.241295 
L 295.350085 103.241295 
L 295.350085 101.816108 
L 287.261855 101.816108 
z
" style="fill:#ff0000;opacity:0.2;"/>
   </g>
   <g id="patch_43">
    <path clip-path="url(#p4264f6f546)" d="M 275.832833 40.141439 
L 295.350085 40.141439 
L 295.350085 38.716251 
L 275.832833 38.716251 
z
" style="fill:#008000;opacity:0.2;"/>
   </g>
   <g id="patch_44">
    <path clip-path="url(#p4264f6f546)" d="M 246.469039 121.405034 
L 280.228611 121.405034 
L 280.228611 119.979847 
L 246.469039 119.979847 
z
" style="fill:#ff0000;opacity:0.2;"/>
   </g>
   <g id="patch_45">
    <path clip-path="url(#p4264f6f546)" d="M 224.490151 62.492309 
L 252.798959 62.492309 
L 252.798959 61.067121 
L 224.490151 61.067121 
z
" style="fill:#008000;opacity:0.2;"/>
   </g>
   <g id="patch_46">
    <path clip-path="url(#p4264f6f546)" d="M 223.435165 114.157951 
L 246.996532 114.157951 
L 246.996532 112.732764 
L 223.435165 112.732764 
z
" style="fill:#ff0000;opacity:0.2;"/>
   </g>
   <g id="patch_47">
    <path clip-path="url(#p4264f6f546)" d="M 226.951787 118.191458 
L 254.205608 118.191458 
L 254.205608 116.766271 
L 226.951787 116.766271 
z
" style="fill:#ff0000;opacity:0.2;"/>
   </g>
   <g id="patch_48">
    <path clip-path="url(#p4264f6f546)" d="M 224.490151 110.845287 
L 252.447297 110.845287 
L 252.447297 109.420099 
L 224.490151 109.420099 
z
" style="fill:#ff0000;opacity:0.2;"/>
   </g>
   <g id="patch_49">
    <path clip-path="url(#p4264f6f546)" d="M 240.666613 117.176322 
L 273.72286 117.176322 
L 273.72286 115.751135 
L 240.666613 115.751135 
z
" style="fill:#808080;opacity:0.2;"/>
   </g>
   <g id="patch_50">
    <path clip-path="url(#p4264f6f546)" d="M 196.181344 15.869413 
L 224.490151 15.869413 
L 224.490151 14.444225 
L 196.181344 14.444225 
z
" style="fill:#808080;opacity:0.2;"/>
   </g>
   <g id="patch_51">
    <path clip-path="url(#p4264f6f546)" d="M 200.049628 28.726969 
L 228.006773 28.726969 
L 228.006773 27.301782 
L 200.049628 27.301782 
z
" style="fill:#008000;opacity:0.2;"/>
   </g>
   <g id="patch_52">
    <path clip-path="url(#p4264f6f546)" d="M 228.710098 123.302185 
L 256.315581 123.302185 
L 256.315581 121.876998 
L 228.710098 121.876998 
z
" style="fill:#808080;opacity:0.2;"/>
   </g>
   <g id="patch_53">
    <path clip-path="url(#p4264f6f546)" d="M 230.292578 114.006155 
L 258.777216 114.006155 
L 258.777216 112.580968 
L 230.292578 112.580968 
z
" style="fill:#ff0000;opacity:0.2;"/>
   </g>
   <g id="patch_54">
    <path clip-path="url(#p4264f6f546)" d="M 215.346934 99.016015 
L 242.776586 99.016015 
L 242.776586 97.590828 
L 215.346934 97.590828 
z
" style="fill:#ff0000;opacity:0.2;"/>
   </g>
   <g id="patch_55">
    <path clip-path="url(#p4264f6f546)" d="M 218.511894 103.120899 
L 245.765715 103.120899 
L 245.765715 101.695712 
L 218.511894 101.695712 
z
" style="fill:#ff0000;opacity:0.2;"/>
   </g>
   <g id="patch_56">
    <path clip-path="url(#p4264f6f546)" d="M 213.236961 24.218541 
L 242.073262 24.218541 
L 242.073262 22.793353 
L 213.236961 22.793353 
z
" style="fill:#008000;opacity:0.2;"/>
   </g>
   <g id="patch_57">
    <path clip-path="url(#p4264f6f546)" d="M 203.214588 24.582185 
L 232.402551 24.582185 
L 232.402551 23.156998 
L 203.214588 23.156998 
z
" style="fill:#008000;opacity:0.2;"/>
   </g>
   <g id="PathCollection_7">
    <defs>
     <path d="M 0 1.581139 
C 0.419323 1.581139 0.821528 1.41454 1.118034 1.118034 
C 1.41454 0.821528 1.581139 0.419323 1.581139 0 
C 1.581139 -0.419323 1.41454 -0.821528 1.118034 -1.118034 
C 0.821528 -1.41454 0.419323 -1.581139 0 -1.581139 
C -0.419323 -1.581139 -0.821528 -1.41454 -1.118034 -1.118034 
C -1.41454 -0.821528 -1.581139 -0.419323 -1.581139 0 
C -1.581139 0.419323 -1.41454 0.821528 -1.118034 1.118034 
C -0.821528 1.41454 -0.419323 1.581139 0 1.581139 
z
" id="m3d0ff9284a" style="stroke:#000000;stroke-width:0.252982;"/>
    </defs>
    <g clip-path="url(#p4264f6f546)">
     <use style="fill:#008000;stroke:#000000;stroke-width:0.252982;" x="218.336063" xlink:href="#m3d0ff9284a" y="62.311488"/>
     <use style="fill:#008000;stroke:#000000;stroke-width:0.252982;" x="208.31369" xlink:href="#m3d0ff9284a" y="51.564995"/>
     <use style="fill:#008000;stroke:#000000;stroke-width:0.252982;" x="213.764454" xlink:href="#m3d0ff9284a" y="32.928616"/>
     <use style="fill:#008000;stroke:#000000;stroke-width:0.252982;" x="212.006143" xlink:href="#m3d0ff9284a" y="29.547582"/>
     <use style="fill:#008000;stroke:#000000;stroke-width:0.252982;" x="220.270205" xlink:href="#m3d0ff9284a" y="27.721582"/>
     <use style="fill:#008000;stroke:#000000;stroke-width:0.252982;" x="218.687725" xlink:href="#m3d0ff9284a" y="44.088189"/>
     <use style="fill:#008000;stroke:#000000;stroke-width:0.252982;" x="215.874427" xlink:href="#m3d0ff9284a" y="17.923764"/>
     <use style="fill:#008000;stroke:#000000;stroke-width:0.252982;" x="288.668503" xlink:href="#m3d0ff9284a" y="40.141439"/>
     <use style="fill:#008000;stroke:#000000;stroke-width:0.252982;" x="239.787457" xlink:href="#m3d0ff9284a" y="62.492309"/>
     <use style="fill:#008000;stroke:#000000;stroke-width:0.252982;" x="212.357805" xlink:href="#m3d0ff9284a" y="15.869413"/>
     <use style="fill:#008000;stroke:#000000;stroke-width:0.252982;" x="215.171103" xlink:href="#m3d0ff9284a" y="28.726969"/>
     <use style="fill:#008000;stroke:#000000;stroke-width:0.252982;" x="229.06176" xlink:href="#m3d0ff9284a" y="24.218541"/>
     <use style="fill:#008000;stroke:#000000;stroke-width:0.252982;" x="218.687725" xlink:href="#m3d0ff9284a" y="24.582185"/>
    </g>
   </g>
   <g id="PathCollection_8">
    <defs>
     <path d="M 0 1.581139 
C 0.419323 1.581139 0.821528 1.41454 1.118034 1.118034 
C 1.41454 0.821528 1.581139 0.419323 1.581139 0 
C 1.581139 -0.419323 1.41454 -0.821528 1.118034 -1.118034 
C 0.821528 -1.41454 0.419323 -1.581139 0 -1.581139 
C -0.419323 -1.581139 -0.821528 -1.41454 -1.118034 -1.118034 
C -1.41454 -0.821528 -1.581139 -0.419323 -1.581139 0 
C -1.581139 0.419323 -1.41454 0.821528 -1.118034 1.118034 
C -0.821528 1.41454 -0.419323 1.581139 0 1.581139 
z
" id="m84023c998c" style="stroke:#000000;stroke-width:0.252982;"/>
    </defs>
    <g clip-path="url(#p4264f6f546)">
     <use style="fill:#ff0000;stroke:#000000;stroke-width:0.252982;" x="253.502283" xlink:href="#m84023c998c" y="118.803075"/>
     <use style="fill:#ff0000;stroke:#000000;stroke-width:0.252982;" x="252.095634" xlink:href="#m84023c998c" y="115.435463"/>
     <use style="fill:#ff0000;stroke:#000000;stroke-width:0.252982;" x="252.095634" xlink:href="#m84023c998c" y="119.697679"/>
     <use style="fill:#ff0000;stroke:#000000;stroke-width:0.252982;" x="251.743972" xlink:href="#m84023c998c" y="99.147733"/>
     <use style="fill:#ff0000;stroke:#000000;stroke-width:0.252982;" x="254.205608" xlink:href="#m84023c998c" y="120.983689"/>
     <use style="fill:#ff0000;stroke:#000000;stroke-width:0.252982;" x="254.029776" xlink:href="#m84023c998c" y="121.602523"/>
     <use style="fill:#ff0000;stroke:#000000;stroke-width:0.252982;" x="252.623128" xlink:href="#m84023c998c" y="118.365039"/>
     <use style="fill:#ff0000;stroke:#000000;stroke-width:0.252982;" x="252.97479" xlink:href="#m84023c998c" y="117.202892"/>
     <use style="fill:#ff0000;stroke:#000000;stroke-width:0.252982;" x="229.765084" xlink:href="#m84023c998c" y="108.133909"/>
     <use style="fill:#ff0000;stroke:#000000;stroke-width:0.252982;" x="239.963288" xlink:href="#m84023c998c" y="114.420727"/>
     <use style="fill:#ff0000;stroke:#000000;stroke-width:0.252982;" x="212.006143" xlink:href="#m84023c998c" y="73.667086"/>
     <use style="fill:#ff0000;stroke:#000000;stroke-width:0.252982;" x="247.172363" xlink:href="#m84023c998c" y="120.798256"/>
     <use style="fill:#ff0000;stroke:#000000;stroke-width:0.252982;" x="239.084133" xlink:href="#m84023c998c" y="110.050039"/>
     <use style="fill:#ff0000;stroke:#000000;stroke-width:0.252982;" x="264.579642" xlink:href="#m84023c998c" y="106.038804"/>
     <use style="fill:#ff0000;stroke:#000000;stroke-width:0.252982;" x="259.656372" xlink:href="#m84023c998c" y="115.766937"/>
     <use style="fill:#ff0000;stroke:#000000;stroke-width:0.252982;" x="256.491412" xlink:href="#m84023c998c" y="104.085921"/>
     <use style="fill:#ff0000;stroke:#000000;stroke-width:0.252982;" x="260.711358" xlink:href="#m84023c998c" y="112.471078"/>
     <use style="fill:#ff0000;stroke:#000000;stroke-width:0.252982;" x="260.535527" xlink:href="#m84023c998c" y="121.702362"/>
     <use style="fill:#ff0000;stroke:#000000;stroke-width:0.252982;" x="220.270205" xlink:href="#m84023c998c" y="84.534527"/>
     <use style="fill:#ff0000;stroke:#000000;stroke-width:0.252982;" x="212.533637" xlink:href="#m84023c998c" y="93.097682"/>
     <use style="fill:#ff0000;stroke:#000000;stroke-width:0.252982;" x="280.404442" xlink:href="#m84023c998c" y="132.076179"/>
     <use style="fill:#ff0000;stroke:#000000;stroke-width:0.252982;" x="280.404442" xlink:href="#m84023c998c" y="131.4558"/>
     <use style="fill:#ff0000;stroke:#000000;stroke-width:0.252982;" x="280.404442" xlink:href="#m84023c998c" y="131.62074"/>
     <use style="fill:#ff0000;stroke:#000000;stroke-width:0.252982;" x="280.404442" xlink:href="#m84023c998c" y="133.047862"/>
     <use style="fill:#ff0000;stroke:#000000;stroke-width:0.252982;" x="280.404442" xlink:href="#m84023c998c" y="132.137665"/>
     <use style="fill:#ff0000;stroke:#000000;stroke-width:0.252982;" x="214.995272" xlink:href="#m84023c998c" y="112.716883"/>
     <use style="fill:#ff0000;stroke:#000000;stroke-width:0.252982;" x="294.119268" xlink:href="#m84023c998c" y="103.241295"/>
     <use style="fill:#ff0000;stroke:#000000;stroke-width:0.252982;" x="263.524656" xlink:href="#m84023c998c" y="121.405034"/>
     <use style="fill:#ff0000;stroke:#000000;stroke-width:0.252982;" x="237.149991" xlink:href="#m84023c998c" y="114.157951"/>
     <use style="fill:#ff0000;stroke:#000000;stroke-width:0.252982;" x="242.073262" xlink:href="#m84023c998c" y="118.191458"/>
     <use style="fill:#ff0000;stroke:#000000;stroke-width:0.252982;" x="239.259964" xlink:href="#m84023c998c" y="110.845287"/>
     <use style="fill:#ff0000;stroke:#000000;stroke-width:0.252982;" x="258.073892" xlink:href="#m84023c998c" y="117.176322"/>
     <use style="fill:#ff0000;stroke:#000000;stroke-width:0.252982;" x="243.831573" xlink:href="#m84023c998c" y="123.302185"/>
     <use style="fill:#ff0000;stroke:#000000;stroke-width:0.252982;" x="245.941546" xlink:href="#m84023c998c" y="114.006155"/>
     <use style="fill:#ff0000;stroke:#000000;stroke-width:0.252982;" x="229.765084" xlink:href="#m84023c998c" y="99.016015"/>
     <use style="fill:#ff0000;stroke:#000000;stroke-width:0.252982;" x="233.985031" xlink:href="#m84023c998c" y="103.120899"/>
    </g>
   </g>
   <g id="PathCollection_9">
    <g clip-path="url(#p4264f6f546)">
     <use style="fill:#808080;stroke:#000000;stroke-width:0.252982;" x="220.270205" xlink:href="#m992257eb5c" y="84.534527"/>
     <use style="fill:#808080;stroke:#000000;stroke-width:0.252982;" x="212.533637" xlink:href="#m992257eb5c" y="93.097682"/>
     <use style="fill:#808080;stroke:#000000;stroke-width:0.252982;" x="280.404442" xlink:href="#m992257eb5c" y="132.076179"/>
     <use style="fill:#808080;stroke:#000000;stroke-width:0.252982;" x="280.404442" xlink:href="#m992257eb5c" y="131.4558"/>
     <use style="fill:#808080;stroke:#000000;stroke-width:0.252982;" x="280.404442" xlink:href="#m992257eb5c" y="131.62074"/>
     <use style="fill:#808080;stroke:#000000;stroke-width:0.252982;" x="280.404442" xlink:href="#m992257eb5c" y="133.047862"/>
     <use style="fill:#808080;stroke:#000000;stroke-width:0.252982;" x="280.404442" xlink:href="#m992257eb5c" y="132.137665"/>
     <use style="fill:#808080;stroke:#000000;stroke-width:0.252982;" x="214.995272" xlink:href="#m992257eb5c" y="112.716883"/>
     <use style="fill:#808080;stroke:#000000;stroke-width:0.252982;" x="258.073892" xlink:href="#m992257eb5c" y="117.176322"/>
     <use style="fill:#808080;stroke:#000000;stroke-width:0.252982;" x="212.357805" xlink:href="#m992257eb5c" y="15.869413"/>
     <use style="fill:#808080;stroke:#000000;stroke-width:0.252982;" x="215.171103" xlink:href="#m992257eb5c" y="28.726969"/>
     <use style="fill:#808080;stroke:#000000;stroke-width:0.252982;" x="243.831573" xlink:href="#m992257eb5c" y="123.302185"/>
     <use style="fill:#808080;stroke:#000000;stroke-width:0.252982;" x="245.941546" xlink:href="#m992257eb5c" y="114.006155"/>
     <use style="fill:#808080;stroke:#000000;stroke-width:0.252982;" x="218.687725" xlink:href="#m992257eb5c" y="24.582185"/>
    </g>
   </g>
   <g id="matplotlib.axis_3">
    <g id="xtick_6">
     <g id="line2d_14">
      <g>
       <use style="stroke:#000000;stroke-width:0.8;" x="206.379548" xlink:href="#m44d49d49bc" y="138.978043"/>
      </g>
     </g>
     <g id="text_17">
      <!-- 1300 -->
      <g transform="translate(200.017048 149.777262)scale(0.05 -0.05)">
       <defs>
        <path d="M 40.578125 39.3125 
Q 47.65625 37.796875 51.625 33 
Q 55.609375 28.21875 55.609375 21.1875 
Q 55.609375 10.40625 48.1875 4.484375 
Q 40.765625 -1.421875 27.09375 -1.421875 
Q 22.515625 -1.421875 17.65625 -0.515625 
Q 12.796875 0.390625 7.625 2.203125 
L 7.625 11.71875 
Q 11.71875 9.328125 16.59375 8.109375 
Q 21.484375 6.890625 26.8125 6.890625 
Q 36.078125 6.890625 40.9375 10.546875 
Q 45.796875 14.203125 45.796875 21.1875 
Q 45.796875 27.640625 41.28125 31.265625 
Q 36.765625 34.90625 28.71875 34.90625 
L 20.21875 34.90625 
L 20.21875 43.015625 
L 29.109375 43.015625 
Q 36.375 43.015625 40.234375 45.921875 
Q 44.09375 48.828125 44.09375 54.296875 
Q 44.09375 59.90625 40.109375 62.90625 
Q 36.140625 65.921875 28.71875 65.921875 
Q 24.65625 65.921875 20.015625 65.03125 
Q 15.375 64.15625 9.8125 62.3125 
L 9.8125 71.09375 
Q 15.4375 72.65625 20.34375 73.4375 
Q 25.25 74.21875 29.59375 74.21875 
Q 40.828125 74.21875 47.359375 69.109375 
Q 53.90625 64.015625 53.90625 55.328125 
Q 53.90625 49.265625 50.4375 45.09375 
Q 46.96875 40.921875 40.578125 39.3125 
z
" id="DejaVuSans-51"/>
       </defs>
       <use xlink:href="#DejaVuSans-49"/>
       <use x="63.623047" xlink:href="#DejaVuSans-51"/>
       <use x="127.246094" xlink:href="#DejaVuSans-48"/>
       <use x="190.869141" xlink:href="#DejaVuSans-48"/>
      </g>
     </g>
    </g>
    <g id="xtick_7">
     <g id="line2d_15">
      <g>
       <use style="stroke:#000000;stroke-width:0.8;" x="223.962658" xlink:href="#m44d49d49bc" y="138.978043"/>
      </g>
     </g>
     <g id="text_18">
      <!-- 1400 -->
      <g transform="translate(217.600158 149.777262)scale(0.05 -0.05)">
       <defs>
        <path d="M 37.796875 64.3125 
L 12.890625 25.390625 
L 37.796875 25.390625 
z
M 35.203125 72.90625 
L 47.609375 72.90625 
L 47.609375 25.390625 
L 58.015625 25.390625 
L 58.015625 17.1875 
L 47.609375 17.1875 
L 47.609375 0 
L 37.796875 0 
L 37.796875 17.1875 
L 4.890625 17.1875 
L 4.890625 26.703125 
z
" id="DejaVuSans-52"/>
       </defs>
       <use xlink:href="#DejaVuSans-49"/>
       <use x="63.623047" xlink:href="#DejaVuSans-52"/>
       <use x="127.246094" xlink:href="#DejaVuSans-48"/>
       <use x="190.869141" xlink:href="#DejaVuSans-48"/>
      </g>
     </g>
    </g>
    <g id="xtick_8">
     <g id="line2d_16">
      <g>
       <use style="stroke:#000000;stroke-width:0.8;" x="241.545768" xlink:href="#m44d49d49bc" y="138.978043"/>
      </g>
     </g>
     <g id="text_19">
      <!-- 1500 -->
      <g transform="translate(235.183268 149.777262)scale(0.05 -0.05)">
       <use xlink:href="#DejaVuSans-49"/>
       <use x="63.623047" xlink:href="#DejaVuSans-53"/>
       <use x="127.246094" xlink:href="#DejaVuSans-48"/>
       <use x="190.869141" xlink:href="#DejaVuSans-48"/>
      </g>
     </g>
    </g>
    <g id="xtick_9">
     <g id="line2d_17">
      <g>
       <use style="stroke:#000000;stroke-width:0.8;" x="259.128878" xlink:href="#m44d49d49bc" y="138.978043"/>
      </g>
     </g>
     <g id="text_20">
      <!-- 1600 -->
      <g transform="translate(252.766378 149.777262)scale(0.05 -0.05)">
       <defs>
        <path d="M 33.015625 40.375 
Q 26.375 40.375 22.484375 35.828125 
Q 18.609375 31.296875 18.609375 23.390625 
Q 18.609375 15.53125 22.484375 10.953125 
Q 26.375 6.390625 33.015625 6.390625 
Q 39.65625 6.390625 43.53125 10.953125 
Q 47.40625 15.53125 47.40625 23.390625 
Q 47.40625 31.296875 43.53125 35.828125 
Q 39.65625 40.375 33.015625 40.375 
z
M 52.59375 71.296875 
L 52.59375 62.3125 
Q 48.875 64.0625 45.09375 64.984375 
Q 41.3125 65.921875 37.59375 65.921875 
Q 27.828125 65.921875 22.671875 59.328125 
Q 17.53125 52.734375 16.796875 39.40625 
Q 19.671875 43.65625 24.015625 45.921875 
Q 28.375 48.1875 33.59375 48.1875 
Q 44.578125 48.1875 50.953125 41.515625 
Q 57.328125 34.859375 57.328125 23.390625 
Q 57.328125 12.15625 50.6875 5.359375 
Q 44.046875 -1.421875 33.015625 -1.421875 
Q 20.359375 -1.421875 13.671875 8.265625 
Q 6.984375 17.96875 6.984375 36.375 
Q 6.984375 53.65625 15.1875 63.9375 
Q 23.390625 74.21875 37.203125 74.21875 
Q 40.921875 74.21875 44.703125 73.484375 
Q 48.484375 72.75 52.59375 71.296875 
z
" id="DejaVuSans-54"/>
       </defs>
       <use xlink:href="#DejaVuSans-49"/>
       <use x="63.623047" xlink:href="#DejaVuSans-54"/>
       <use x="127.246094" xlink:href="#DejaVuSans-48"/>
       <use x="190.869141" xlink:href="#DejaVuSans-48"/>
      </g>
     </g>
    </g>
    <g id="xtick_10">
     <g id="line2d_18">
      <g>
       <use style="stroke:#000000;stroke-width:0.8;" x="276.711988" xlink:href="#m44d49d49bc" y="138.978043"/>
      </g>
     </g>
     <g id="text_21">
      <!-- 1700 -->
      <g transform="translate(270.349488 149.777262)scale(0.05 -0.05)">
       <defs>
        <path d="M 8.203125 72.90625 
L 55.078125 72.90625 
L 55.078125 68.703125 
L 28.609375 0 
L 18.3125 0 
L 43.21875 64.59375 
L 8.203125 64.59375 
z
" id="DejaVuSans-55"/>
       </defs>
       <use xlink:href="#DejaVuSans-49"/>
       <use x="63.623047" xlink:href="#DejaVuSans-55"/>
       <use x="127.246094" xlink:href="#DejaVuSans-48"/>
       <use x="190.869141" xlink:href="#DejaVuSans-48"/>
      </g>
     </g>
    </g>
    <g id="xtick_11">
     <g id="line2d_19">
      <g>
       <use style="stroke:#000000;stroke-width:0.8;" x="294.295099" xlink:href="#m44d49d49bc" y="138.978043"/>
      </g>
     </g>
     <g id="text_22">
      <!-- 1800 -->
      <g transform="translate(287.932599 149.777262)scale(0.05 -0.05)">
       <defs>
        <path d="M 31.78125 34.625 
Q 24.75 34.625 20.71875 30.859375 
Q 16.703125 27.09375 16.703125 20.515625 
Q 16.703125 13.921875 20.71875 10.15625 
Q 24.75 6.390625 31.78125 6.390625 
Q 38.8125 6.390625 42.859375 10.171875 
Q 46.921875 13.96875 46.921875 20.515625 
Q 46.921875 27.09375 42.890625 30.859375 
Q 38.875 34.625 31.78125 34.625 
z
M 21.921875 38.8125 
Q 15.578125 40.375 12.03125 44.71875 
Q 8.5 49.078125 8.5 55.328125 
Q 8.5 64.0625 14.71875 69.140625 
Q 20.953125 74.21875 31.78125 74.21875 
Q 42.671875 74.21875 48.875 69.140625 
Q 55.078125 64.0625 55.078125 55.328125 
Q 55.078125 49.078125 51.53125 44.71875 
Q 48 40.375 41.703125 38.8125 
Q 48.828125 37.15625 52.796875 32.3125 
Q 56.78125 27.484375 56.78125 20.515625 
Q 56.78125 9.90625 50.3125 4.234375 
Q 43.84375 -1.421875 31.78125 -1.421875 
Q 19.734375 -1.421875 13.25 4.234375 
Q 6.78125 9.90625 6.78125 20.515625 
Q 6.78125 27.484375 10.78125 32.3125 
Q 14.796875 37.15625 21.921875 38.8125 
z
M 18.3125 54.390625 
Q 18.3125 48.734375 21.84375 45.5625 
Q 25.390625 42.390625 31.78125 42.390625 
Q 38.140625 42.390625 41.71875 45.5625 
Q 45.3125 48.734375 45.3125 54.390625 
Q 45.3125 60.0625 41.71875 63.234375 
Q 38.140625 66.40625 31.78125 66.40625 
Q 25.390625 66.40625 21.84375 63.234375 
Q 18.3125 60.0625 18.3125 54.390625 
z
" id="DejaVuSans-56"/>
       </defs>
       <use xlink:href="#DejaVuSans-49"/>
       <use x="63.623047" xlink:href="#DejaVuSans-56"/>
       <use x="127.246094" xlink:href="#DejaVuSans-48"/>
       <use x="190.869141" xlink:href="#DejaVuSans-48"/>
      </g>
     </g>
    </g>
    <g id="text_23">
     <!-- Date -->
     <g transform="translate(238.647422 158.616325)scale(0.05 -0.05)">
      <use xlink:href="#DejaVuSans-68"/>
      <use x="77.001953" xlink:href="#DejaVuSans-97"/>
      <use x="138.28125" xlink:href="#DejaVuSans-116"/>
      <use x="177.490234" xlink:href="#DejaVuSans-101"/>
     </g>
    </g>
   </g>
   <g id="matplotlib.axis_4">
    <g id="ytick_7">
     <g id="line2d_20">
      <g>
       <use style="stroke:#000000;stroke-width:0.8;" x="188.822812" xlink:href="#mfc9fcff835" y="133.803513"/>
      </g>
     </g>
     <g id="text_24">
      <!-- 0.00 -->
      <g transform="translate(170.69 135.703122)scale(0.05 -0.05)">
       <defs>
        <path d="M 10.6875 12.40625 
L 21 12.40625 
L 21 0 
L 10.6875 0 
z
" id="DejaVuSans-46"/>
       </defs>
       <use xlink:href="#DejaVuSans-48"/>
       <use x="63.623047" xlink:href="#DejaVuSans-46"/>
       <use x="95.410156" xlink:href="#DejaVuSans-48"/>
       <use x="159.033203" xlink:href="#DejaVuSans-48"/>
      </g>
     </g>
    </g>
    <g id="ytick_8">
     <g id="line2d_21">
      <g>
       <use style="stroke:#000000;stroke-width:0.8;" x="188.822812" xlink:href="#mfc9fcff835" y="115.98867"/>
      </g>
     </g>
     <g id="text_25">
      <!-- 0.25 -->
      <g transform="translate(170.69 117.888279)scale(0.05 -0.05)">
       <use xlink:href="#DejaVuSans-48"/>
       <use x="63.623047" xlink:href="#DejaVuSans-46"/>
       <use x="95.410156" xlink:href="#DejaVuSans-50"/>
       <use x="159.033203" xlink:href="#DejaVuSans-53"/>
      </g>
     </g>
    </g>
    <g id="ytick_9">
     <g id="line2d_22">
      <g>
       <use style="stroke:#000000;stroke-width:0.8;" x="188.822812" xlink:href="#mfc9fcff835" y="98.173826"/>
      </g>
     </g>
     <g id="text_26">
      <!-- 0.50 -->
      <g transform="translate(170.69 100.073436)scale(0.05 -0.05)">
       <use xlink:href="#DejaVuSans-48"/>
       <use x="63.623047" xlink:href="#DejaVuSans-46"/>
       <use x="95.410156" xlink:href="#DejaVuSans-53"/>
       <use x="159.033203" xlink:href="#DejaVuSans-48"/>
      </g>
     </g>
    </g>
    <g id="ytick_10">
     <g id="line2d_23">
      <g>
       <use style="stroke:#000000;stroke-width:0.8;" x="188.822812" xlink:href="#mfc9fcff835" y="80.358983"/>
      </g>
     </g>
     <g id="text_27">
      <!-- 0.75 -->
      <g transform="translate(170.69 82.258592)scale(0.05 -0.05)">
       <use xlink:href="#DejaVuSans-48"/>
       <use x="63.623047" xlink:href="#DejaVuSans-46"/>
       <use x="95.410156" xlink:href="#DejaVuSans-55"/>
       <use x="159.033203" xlink:href="#DejaVuSans-53"/>
      </g>
     </g>
    </g>
    <g id="ytick_11">
     <g id="line2d_24">
      <g>
       <use style="stroke:#000000;stroke-width:0.8;" x="188.822812" xlink:href="#mfc9fcff835" y="62.544139"/>
      </g>
     </g>
     <g id="text_28">
      <!-- 1.00 -->
      <g transform="translate(170.69 64.443749)scale(0.05 -0.05)">
       <use xlink:href="#DejaVuSans-49"/>
       <use x="63.623047" xlink:href="#DejaVuSans-46"/>
       <use x="95.410156" xlink:href="#DejaVuSans-48"/>
       <use x="159.033203" xlink:href="#DejaVuSans-48"/>
      </g>
     </g>
    </g>
    <g id="ytick_12">
     <g id="line2d_25">
      <g>
       <use style="stroke:#000000;stroke-width:0.8;" x="188.822812" xlink:href="#mfc9fcff835" y="44.729296"/>
      </g>
     </g>
     <g id="text_29">
      <!-- 1.25 -->
      <g transform="translate(170.69 46.628905)scale(0.05 -0.05)">
       <use xlink:href="#DejaVuSans-49"/>
       <use x="63.623047" xlink:href="#DejaVuSans-46"/>
       <use x="95.410156" xlink:href="#DejaVuSans-50"/>
       <use x="159.033203" xlink:href="#DejaVuSans-53"/>
      </g>
     </g>
    </g>
    <g id="ytick_13">
     <g id="line2d_26">
      <g>
       <use style="stroke:#000000;stroke-width:0.8;" x="188.822812" xlink:href="#mfc9fcff835" y="26.914453"/>
      </g>
     </g>
     <g id="text_30">
      <!-- 1.50 -->
      <g transform="translate(170.69 28.814062)scale(0.05 -0.05)">
       <use xlink:href="#DejaVuSans-49"/>
       <use x="63.623047" xlink:href="#DejaVuSans-46"/>
       <use x="95.410156" xlink:href="#DejaVuSans-53"/>
       <use x="159.033203" xlink:href="#DejaVuSans-48"/>
      </g>
     </g>
    </g>
    <g id="ytick_14">
     <g id="line2d_27">
      <g>
       <use style="stroke:#000000;stroke-width:0.8;" x="188.822812" xlink:href="#mfc9fcff835" y="9.099609"/>
      </g>
     </g>
     <g id="text_31">
      <!-- 1.75 -->
      <g transform="translate(170.69 10.999219)scale(0.05 -0.05)">
       <use xlink:href="#DejaVuSans-49"/>
       <use x="63.623047" xlink:href="#DejaVuSans-46"/>
       <use x="95.410156" xlink:href="#DejaVuSans-55"/>
       <use x="159.033203" xlink:href="#DejaVuSans-53"/>
      </g>
     </g>
    </g>
    <g id="text_32">
     <!-- pla Depth / pPCP1 Depth -->
     <g transform="translate(165.650156 104.747996)rotate(-90)scale(0.05 -0.05)">
      <defs>
       <path d="M 25.390625 72.90625 
L 33.6875 72.90625 
L 8.296875 -9.28125 
L 0 -9.28125 
z
" id="DejaVuSans-47"/>
      </defs>
      <use xlink:href="#DejaVuSans-112"/>
      <use x="63.476562" xlink:href="#DejaVuSans-108"/>
      <use x="91.259766" xlink:href="#DejaVuSans-97"/>
      <use x="152.539062" xlink:href="#DejaVuSans-32"/>
      <use x="184.326172" xlink:href="#DejaVuSans-68"/>
      <use x="261.328125" xlink:href="#DejaVuSans-101"/>
      <use x="322.851562" xlink:href="#DejaVuSans-112"/>
      <use x="386.328125" xlink:href="#DejaVuSans-116"/>
      <use x="425.537109" xlink:href="#DejaVuSans-104"/>
      <use x="488.916016" xlink:href="#DejaVuSans-32"/>
      <use x="520.703125" xlink:href="#DejaVuSans-47"/>
      <use x="554.394531" xlink:href="#DejaVuSans-32"/>
      <use x="586.181641" xlink:href="#DejaVuSans-112"/>
      <use x="649.658203" xlink:href="#DejaVuSans-80"/>
      <use x="709.960938" xlink:href="#DejaVuSans-67"/>
      <use x="779.785156" xlink:href="#DejaVuSans-80"/>
      <use x="840.087891" xlink:href="#DejaVuSans-49"/>
      <use x="903.710938" xlink:href="#DejaVuSans-32"/>
      <use x="935.498047" xlink:href="#DejaVuSans-68"/>
      <use x="1012.5" xlink:href="#DejaVuSans-101"/>
      <use x="1074.023438" xlink:href="#DejaVuSans-112"/>
      <use x="1137.5" xlink:href="#DejaVuSans-116"/>
      <use x="1176.708984" xlink:href="#DejaVuSans-104"/>
     </g>
    </g>
   </g>
   <g id="patch_58">
    <path d="M 188.822812 138.978043 
L 188.822812 8.514043 
" style="fill:none;stroke:#000000;stroke-linecap:square;stroke-linejoin:miter;stroke-width:0.8;"/>
   </g>
   <g id="patch_59">
    <path d="M 300.422813 138.978043 
L 300.422813 8.514043 
" style="fill:none;stroke:#000000;stroke-linecap:square;stroke-linejoin:miter;stroke-width:0.8;"/>
   </g>
   <g id="patch_60">
    <path d="M 188.822812 138.978043 
L 300.422813 138.978043 
" style="fill:none;stroke:#000000;stroke-linecap:square;stroke-linejoin:miter;stroke-width:0.8;"/>
   </g>
   <g id="patch_61">
    <path d="M 188.822812 8.514043 
L 300.422813 8.514043 
" style="fill:none;stroke:#000000;stroke-linecap:square;stroke-linejoin:miter;stroke-width:0.8;"/>
   </g>
  </g>
 </g>
 <defs>
  <clipPath id="pe9fff3b851">
   <rect height="130.464" width="111.6" x="32.582813" y="8.514043"/>
  </clipPath>
  <clipPath id="p4264f6f546">
   <rect height="130.464" width="111.6" x="188.822812" y="8.514043"/>
  </clipPath>
 </defs>
</svg>
