<?xml version="1.0" encoding="utf-8" standalone="no"?>
<!DOCTYPE svg PUBLIC "-//W3C//DTD SVG 1.1//EN"
  "http://www.w3.org/Graphics/SVG/1.1/DTD/svg11.dtd">
<!-- Created with matplotlib (https://matplotlib.org/) -->
<svg height="166.856168pt" version="1.1" viewBox="0 0 307.857599 166.856168" width="307.857599pt" xmlns="http://www.w3.org/2000/svg" xmlns:xlink="http://www.w3.org/1999/xlink">
 <metadata>
  <rdf:RDF xmlns:cc="http://creativecommons.org/ns#" xmlns:dc="http://purl.org/dc/elements/1.1/" xmlns:rdf="http://www.w3.org/1999/02/22-rdf-syntax-ns#">
   <cc:Work>
    <dc:type rdf:resource="http://purl.org/dc/dcmitype/StillImage"/>
    <dc:date>2021-07-13T15:32:04.181160</dc:date>
    <dc:format>image/svg+xml</dc:format>
    <dc:creator>
     <cc:Agent>
      <dc:title>Matplotlib v3.3.2, https://matplotlib.org/</dc:title>
     </cc:Agent>
    </dc:creator>
   </cc:Work>
  </rdf:RDF>
 </metadata>
 <defs>
  <style type="text/css">*{stroke-linecap:butt;stroke-linejoin:round;}</style>
 </defs>
 <g id="figure_1">
  <g id="patch_1">
   <path d="M 0 166.856168 
L 307.857599 166.856168 
L 307.857599 0 
L 0 0 
z
" style="fill:none;"/>
  </g>
  <g id="axes_1">
   <g id="patch_2">
    <path d="M 32.582813 138.978043 
L 144.182812 138.978043 
L 144.182812 8.514043 
L 32.582813 8.514043 
z
" style="fill:#ffffff;"/>
   </g>
   <g id="line2d_1">
    <path clip-path="url(#p84cfdf944d)" d="M 38.090986 125.962583 
L 39.069827 125.005721 
L 40.048667 124.048858 
L 41.027508 123.091996 
L 42.006349 122.135134 
L 42.98519 121.178272 
L 43.964031 120.221409 
L 44.942872 119.264547 
L 45.921712 118.307685 
L 46.900553 117.350823 
L 47.879394 116.39396 
L 48.858235 115.437098 
L 49.837076 114.480236 
L 50.815916 113.523374 
L 51.794757 112.566511 
L 52.773598 111.609649 
L 53.752439 110.652787 
L 54.73128 109.695924 
L 55.710121 108.739062 
L 56.688961 107.7822 
L 57.667802 106.825338 
L 58.646643 105.868475 
L 59.625484 104.911613 
L 60.604325 103.954751 
L 61.583165 102.997889 
L 62.562006 102.041026 
L 63.540847 101.084164 
L 64.519688 100.127302 
L 65.498529 99.170439 
L 66.47737 98.213577 
L 67.45621 97.256715 
L 68.435051 96.299853 
L 69.413892 95.34299 
L 70.392733 94.386128 
L 71.371574 93.429266 
L 72.350414 92.472404 
L 73.329255 91.515541 
L 74.308096 90.558679 
L 75.286937 89.601817 
L 76.265778 88.644955 
L 77.244619 87.688092 
L 78.223459 86.73123 
L 79.2023 85.774368 
L 80.181141 84.817505 
L 81.159982 83.860643 
L 82.138823 82.903781 
L 83.117664 81.946919 
L 84.096504 80.990056 
L 85.075345 80.033194 
L 86.054186 79.076332 
L 87.033027 78.11947 
L 88.011868 77.162607 
L 88.990708 76.205745 
L 89.969549 75.248883 
L 90.94839 74.292021 
L 91.927231 73.335158 
L 92.906072 72.378296 
L 93.884913 71.421434 
L 94.863753 70.464571 
L 95.842594 69.507709 
L 96.821435 68.550847 
L 97.800276 67.593985 
L 98.779117 66.637122 
L 99.757957 65.68026 
L 100.736798 64.723398 
L 101.715639 63.766536 
L 102.69448 62.809673 
L 103.673321 61.852811 
L 104.652162 60.895949 
L 105.631002 59.939086 
L 106.609843 58.982224 
L 107.588684 58.025362 
L 108.567525 57.0685 
L 109.546366 56.111637 
L 110.525206 55.154775 
L 111.504047 54.197913 
L 112.482888 53.241051 
L 113.461729 52.284188 
L 114.44057 51.327326 
L 115.419411 50.370464 
L 116.398251 49.413602 
L 117.377092 48.456739 
L 118.355933 47.499877 
L 119.334774 46.543015 
L 120.313615 45.586152 
L 121.292455 44.62929 
L 122.271296 43.672428 
L 123.250137 42.715566 
L 124.228978 41.758703 
L 125.207819 40.801841 
L 126.18666 39.844979 
L 127.1655 38.888117 
L 128.144341 37.931254 
L 129.123182 36.974392 
L 130.102023 36.01753 
L 131.080864 35.060668 
L 132.059704 34.103805 
L 133.038545 33.146943 
L 134.017386 32.190081 
L 134.996227 31.233218 
" style="fill:none;stroke:#008000;stroke-linecap:square;"/>
   </g>
   <g id="line2d_2">
    <path clip-path="url(#p84cfdf944d)" d="M 38.049874 130.09421 
L 38.80627 129.8532 
L 39.562666 129.612191 
L 40.319062 129.371182 
L 41.075458 129.130173 
L 41.831854 128.889163 
L 42.58825 128.648154 
L 43.344646 128.407145 
L 44.101043 128.166136 
L 44.857439 127.925127 
L 45.613835 127.684117 
L 46.370231 127.443108 
L 47.126627 127.202099 
L 47.883023 126.96109 
L 48.639419 126.72008 
L 49.395815 126.479071 
L 50.152211 126.238062 
L 50.908607 125.997053 
L 51.665003 125.756044 
L 52.421399 125.515034 
L 53.177795 125.274025 
L 53.934191 125.033016 
L 54.690587 124.792007 
L 55.446983 124.550997 
L 56.203379 124.309988 
L 56.959775 124.068979 
L 57.716171 123.82797 
L 58.472568 123.586961 
L 59.228964 123.345951 
L 59.98536 123.104942 
L 60.741756 122.863933 
L 61.498152 122.622924 
L 62.254548 122.381915 
L 63.010944 122.140905 
L 63.76734 121.899896 
L 64.523736 121.658887 
L 65.280132 121.417878 
L 66.036528 121.176868 
L 66.792924 120.935859 
L 67.54932 120.69485 
L 68.305716 120.453841 
L 69.062112 120.212832 
L 69.818508 119.971822 
L 70.574904 119.730813 
L 71.3313 119.489804 
L 72.087696 119.248795 
L 72.844093 119.007785 
L 73.600489 118.766776 
L 74.356885 118.525767 
L 75.113281 118.284758 
L 75.869677 118.043749 
L 76.626073 117.802739 
L 77.382469 117.56173 
L 78.138865 117.320721 
L 78.895261 117.079712 
L 79.651657 116.838702 
L 80.408053 116.597693 
L 81.164449 116.356684 
L 81.920845 116.115675 
L 82.677241 115.874666 
L 83.433637 115.633656 
L 84.190033 115.392647 
L 84.946429 115.151638 
L 85.702825 114.910629 
L 86.459221 114.669619 
L 87.215618 114.42861 
L 87.972014 114.187601 
L 88.72841 113.946592 
L 89.484806 113.705583 
L 90.241202 113.464573 
L 90.997598 113.223564 
L 91.753994 112.982555 
L 92.51039 112.741546 
L 93.266786 112.500537 
L 94.023182 112.259527 
L 94.779578 112.018518 
L 95.535974 111.777509 
L 96.29237 111.5365 
L 97.048766 111.29549 
L 97.805162 111.054481 
L 98.561558 110.813472 
L 99.317954 110.572463 
L 100.07435 110.331454 
L 100.830746 110.090444 
L 101.587143 109.849435 
L 102.343539 109.608426 
L 103.099935 109.367417 
L 103.856331 109.126407 
L 104.612727 108.885398 
L 105.369123 108.644389 
L 106.125519 108.40338 
L 106.881915 108.162371 
L 107.638311 107.921361 
L 108.394707 107.680352 
L 109.151103 107.439343 
L 109.907499 107.198334 
L 110.663895 106.957324 
L 111.420291 106.716315 
L 112.176687 106.475306 
L 112.933083 106.234297 
" style="fill:none;stroke:#ff0000;stroke-linecap:square;"/>
   </g>
   <g id="PathCollection_1">
    <defs>
     <path d="M 0 1.581139 
C 0.419323 1.581139 0.821528 1.41454 1.118034 1.118034 
C 1.41454 0.821528 1.581139 0.419323 1.581139 0 
C 1.581139 -0.419323 1.41454 -0.821528 1.118034 -1.118034 
C 0.821528 -1.41454 0.419323 -1.581139 0 -1.581139 
C -0.419323 -1.581139 -0.821528 -1.41454 -1.118034 -1.118034 
C -1.41454 -0.821528 -1.581139 -0.419323 -1.581139 0 
C -1.581139 0.419323 -1.41454 0.821528 -1.118034 1.118034 
C -0.821528 1.41454 -0.419323 1.581139 0 1.581139 
z
" id="mc5895dd87a" style="stroke:#000000;stroke-opacity:0.8;stroke-width:0.5;"/>
    </defs>
    <g clip-path="url(#p84cfdf944d)">
     <use style="fill:#008000;fill-opacity:0.8;stroke:#000000;stroke-opacity:0.8;stroke-width:0.5;" x="65.842214" xlink:href="#mc5895dd87a" y="106.644207"/>
     <use style="fill:#008000;fill-opacity:0.8;stroke:#000000;stroke-opacity:0.8;stroke-width:0.5;" x="67.756519" xlink:href="#mc5895dd87a" y="101.491225"/>
     <use style="fill:#008000;fill-opacity:0.8;stroke:#000000;stroke-opacity:0.8;stroke-width:0.5;" x="60.794502" xlink:href="#mc5895dd87a" y="103.073144"/>
     <use style="fill:#008000;fill-opacity:0.8;stroke:#000000;stroke-opacity:0.8;stroke-width:0.5;" x="114.429776" xlink:href="#mc5895dd87a" y="39.603282"/>
     <use style="fill:#008000;fill-opacity:0.8;stroke:#000000;stroke-opacity:0.8;stroke-width:0.5;" x="109.49458" xlink:href="#mc5895dd87a" y="43.89442"/>
     <use style="fill:#008000;fill-opacity:0.8;stroke:#000000;stroke-opacity:0.8;stroke-width:0.5;" x="94.684985" xlink:href="#mc5895dd87a" y="71.928578"/>
     <use style="fill:#008000;fill-opacity:0.8;stroke:#000000;stroke-opacity:0.8;stroke-width:0.5;" x="73.802785" xlink:href="#mc5895dd87a" y="82.312971"/>
     <use style="fill:#008000;fill-opacity:0.8;stroke:#000000;stroke-opacity:0.8;stroke-width:0.5;" x="90.110083" xlink:href="#mc5895dd87a" y="74.205576"/>
     <use style="fill:#008000;fill-opacity:0.8;stroke:#000000;stroke-opacity:0.8;stroke-width:0.5;" x="134.996227" xlink:href="#mc5895dd87a" y="51.498927"/>
     <use style="fill:#008000;fill-opacity:0.8;stroke:#000000;stroke-opacity:0.8;stroke-width:0.5;" x="38.090986" xlink:href="#mc5895dd87a" y="128.626477"/>
     <use style="fill:#008000;fill-opacity:0.8;stroke:#000000;stroke-opacity:0.8;stroke-width:0.5;" x="39.967293" xlink:href="#mc5895dd87a" y="126.482202"/>
     <use style="fill:#008000;fill-opacity:0.8;stroke:#000000;stroke-opacity:0.8;stroke-width:0.5;" x="75.701048" xlink:href="#mc5895dd87a" y="82.531451"/>
     <use style="fill:#008000;fill-opacity:0.8;stroke:#000000;stroke-opacity:0.8;stroke-width:0.5;" x="40.570036" xlink:href="#mc5895dd87a" y="125.638023"/>
    </g>
   </g>
   <g id="PolyCollection_1">
    <path clip-path="url(#p84cfdf944d)" d="M 38.090986 118.938072 
L 38.090986 133.047862 
L 39.069827 131.843686 
L 40.048667 130.705556 
L 41.027508 129.572845 
L 42.006349 128.439646 
L 42.98519 127.270884 
L 43.964031 126.099406 
L 44.942872 124.95055 
L 45.921712 123.801694 
L 46.900553 122.652838 
L 47.879394 121.503982 
L 48.858235 120.355126 
L 49.837076 119.20627 
L 50.815916 118.05899 
L 51.794757 116.906558 
L 52.773598 115.733936 
L 53.752439 114.575741 
L 54.73128 113.417419 
L 55.710121 112.277483 
L 56.688961 111.16596 
L 57.667802 110.084001 
L 58.646643 109.088225 
L 59.625484 108.195501 
L 60.604325 107.258559 
L 61.583165 106.237293 
L 62.562006 105.303356 
L 63.540847 104.325596 
L 64.519688 103.375432 
L 65.498529 102.437744 
L 66.47737 101.445798 
L 67.45621 100.652494 
L 68.435051 99.747743 
L 69.413892 98.978831 
L 70.392733 98.138466 
L 71.371574 97.300597 
L 72.350414 96.440904 
L 73.329255 95.585247 
L 74.308096 94.725816 
L 75.286937 93.855733 
L 76.265778 93.011171 
L 77.244619 92.202775 
L 78.223459 91.368893 
L 79.2023 90.490826 
L 80.181141 89.668574 
L 81.159982 88.841404 
L 82.138823 88.017839 
L 83.117664 87.194273 
L 84.096504 86.370203 
L 85.075345 85.544564 
L 86.054186 84.727799 
L 87.033027 83.931939 
L 88.011868 83.136079 
L 88.990708 82.340219 
L 89.969549 81.544359 
L 90.94839 80.745754 
L 91.927231 79.907755 
L 92.906072 79.159651 
L 93.884913 78.366616 
L 94.863753 77.57208 
L 95.842594 76.776281 
L 96.821435 75.980482 
L 97.800276 75.148038 
L 98.779117 74.310616 
L 99.757957 73.473193 
L 100.736798 72.681305 
L 101.715639 71.920859 
L 102.69448 71.160412 
L 103.673321 70.399965 
L 104.652162 69.623155 
L 105.631002 68.828714 
L 106.609843 68.013087 
L 107.588684 67.171145 
L 108.567525 66.329203 
L 109.546366 65.48726 
L 110.525206 64.645318 
L 111.504047 63.803375 
L 112.482888 62.961433 
L 113.461729 62.119491 
L 114.44057 61.277548 
L 115.419411 60.435606 
L 116.398251 59.592809 
L 117.377092 58.750249 
L 118.355933 57.945263 
L 119.334774 57.163092 
L 120.313615 56.380921 
L 121.292455 55.610466 
L 122.271296 54.896475 
L 123.250137 54.182485 
L 124.228978 53.401516 
L 125.207819 52.60479 
L 126.18666 51.870663 
L 127.1655 51.135996 
L 128.144341 50.399292 
L 129.123182 49.662588 
L 130.102023 48.875001 
L 131.080864 48.091895 
L 132.059704 47.357268 
L 133.038545 46.577514 
L 134.017386 45.784351 
L 134.996227 44.990652 
L 134.996227 14.444225 
L 134.996227 14.444225 
L 134.017386 15.600873 
L 133.038545 16.809267 
L 132.059704 17.981272 
L 131.080864 19.152979 
L 130.102023 20.345075 
L 129.123182 21.514798 
L 128.144341 22.730282 
L 127.1655 23.922222 
L 126.18666 25.115607 
L 125.207819 26.282314 
L 124.228978 27.437327 
L 123.250137 28.639155 
L 122.271296 29.798922 
L 121.292455 30.99052 
L 120.313615 32.167102 
L 119.334774 33.405495 
L 118.355933 34.629538 
L 117.377092 35.835171 
L 116.398251 37.042733 
L 115.419411 38.213857 
L 114.44057 39.373532 
L 113.461729 40.533207 
L 112.482888 41.682814 
L 111.504047 42.824114 
L 110.525206 43.965453 
L 109.546366 45.123465 
L 108.567525 46.314758 
L 107.588684 47.492501 
L 106.609843 48.653792 
L 105.631002 49.858251 
L 104.652162 51.06408 
L 103.673321 52.252356 
L 102.69448 53.409858 
L 101.715639 54.575485 
L 100.736798 55.72564 
L 99.757957 56.878229 
L 98.779117 58.01464 
L 97.800276 59.145982 
L 96.821435 60.302657 
L 95.842594 61.445601 
L 94.863753 62.644986 
L 93.884913 63.801127 
L 92.906072 64.954644 
L 91.927231 66.125381 
L 90.94839 67.281108 
L 89.969549 68.436835 
L 88.990708 69.592562 
L 88.011868 70.748289 
L 87.033027 71.873971 
L 86.054186 73.007893 
L 85.075345 74.089847 
L 84.096504 75.267018 
L 83.117664 76.428294 
L 82.138823 77.57665 
L 81.159982 78.725007 
L 80.181141 79.873364 
L 79.2023 81.021721 
L 78.223459 82.151018 
L 77.244619 83.292341 
L 76.265778 84.378981 
L 75.286937 85.485372 
L 74.308096 86.452158 
L 73.329255 87.526861 
L 72.350414 88.662616 
L 71.371574 89.798443 
L 70.392733 90.883278 
L 69.413892 91.951654 
L 68.435051 92.913087 
L 67.45621 93.837297 
L 66.47737 94.818955 
L 65.498529 95.84983 
L 64.519688 96.789525 
L 63.540847 97.64171 
L 62.562006 98.550343 
L 61.583165 99.358176 
L 60.604325 100.16601 
L 59.625484 100.974026 
L 58.646643 101.850942 
L 57.667802 102.7602 
L 56.688961 103.571787 
L 55.710121 104.383374 
L 54.73128 105.194961 
L 53.752439 106.003538 
L 52.773598 106.816715 
L 51.794757 107.671722 
L 50.815916 108.439628 
L 49.837076 109.249619 
L 48.858235 110.059377 
L 47.879394 110.859803 
L 46.900553 111.68057 
L 45.921712 112.483507 
L 44.942872 113.27069 
L 43.964031 114.059135 
L 42.98519 114.858276 
L 42.006349 115.64604 
L 41.027508 116.433805 
L 40.048667 117.258451 
L 39.069827 118.098262 
L 38.090986 118.938072 
z
" style="fill:#008000;fill-opacity:0.15;"/>
   </g>
   <g id="PathCollection_2">
    <defs>
     <path d="M 0 1.581139 
C 0.419323 1.581139 0.821528 1.41454 1.118034 1.118034 
C 1.41454 0.821528 1.581139 0.419323 1.581139 0 
C 1.581139 -0.419323 1.41454 -0.821528 1.118034 -1.118034 
C 0.821528 -1.41454 0.419323 -1.581139 0 -1.581139 
C -0.419323 -1.581139 -0.821528 -1.41454 -1.118034 -1.118034 
C -1.41454 -0.821528 -1.581139 -0.419323 -1.581139 0 
C -1.581139 0.419323 -1.41454 0.821528 -1.118034 1.118034 
C -0.821528 1.41454 -0.419323 1.581139 0 1.581139 
z
" id="mfc795af471" style="stroke:#000000;stroke-opacity:0.8;stroke-width:0.5;"/>
    </defs>
    <g clip-path="url(#p84cfdf944d)">
     <use style="fill:#ff0000;fill-opacity:0.8;stroke:#000000;stroke-opacity:0.8;stroke-width:0.5;" x="61.206831" xlink:href="#mfc795af471" y="125.246744"/>
     <use style="fill:#ff0000;fill-opacity:0.8;stroke:#000000;stroke-opacity:0.8;stroke-width:0.5;" x="63.956037" xlink:href="#mfc795af471" y="123.79367"/>
     <use style="fill:#ff0000;fill-opacity:0.8;stroke:#000000;stroke-opacity:0.8;stroke-width:0.5;" x="57.337795" xlink:href="#mfc795af471" y="126.093509"/>
     <use style="fill:#ff0000;fill-opacity:0.8;stroke:#000000;stroke-opacity:0.8;stroke-width:0.5;" x="70.627899" xlink:href="#mfc795af471" y="116.410227"/>
     <use style="fill:#ff0000;fill-opacity:0.8;stroke:#000000;stroke-opacity:0.8;stroke-width:0.5;" x="50.468767" xlink:href="#mfc795af471" y="127.362579"/>
     <use style="fill:#ff0000;fill-opacity:0.8;stroke:#000000;stroke-opacity:0.8;stroke-width:0.5;" x="50.446602" xlink:href="#mfc795af471" y="127.454365"/>
     <use style="fill:#ff0000;fill-opacity:0.8;stroke:#000000;stroke-opacity:0.8;stroke-width:0.5;" x="61.269213" xlink:href="#mfc795af471" y="125.120483"/>
     <use style="fill:#ff0000;fill-opacity:0.8;stroke:#000000;stroke-opacity:0.8;stroke-width:0.5;" x="54.282496" xlink:href="#mfc795af471" y="126.111608"/>
     <use style="fill:#ff0000;fill-opacity:0.8;stroke:#000000;stroke-opacity:0.8;stroke-width:0.5;" x="55.567724" xlink:href="#mfc795af471" y="124.054379"/>
     <use style="fill:#ff0000;fill-opacity:0.8;stroke:#000000;stroke-opacity:0.8;stroke-width:0.5;" x="57.063735" xlink:href="#mfc795af471" y="124.990345"/>
     <use style="fill:#ff0000;fill-opacity:0.8;stroke:#000000;stroke-opacity:0.8;stroke-width:0.5;" x="51.127451" xlink:href="#mfc795af471" y="120.132544"/>
     <use style="fill:#ff0000;fill-opacity:0.8;stroke:#000000;stroke-opacity:0.8;stroke-width:0.5;" x="50.21207" xlink:href="#mfc795af471" y="127.373352"/>
     <use style="fill:#ff0000;fill-opacity:0.8;stroke:#000000;stroke-opacity:0.8;stroke-width:0.5;" x="58.098493" xlink:href="#mfc795af471" y="123.76566"/>
     <use style="fill:#ff0000;fill-opacity:0.8;stroke:#000000;stroke-opacity:0.8;stroke-width:0.5;" x="62.270352" xlink:href="#mfc795af471" y="121.551145"/>
     <use style="fill:#ff0000;fill-opacity:0.8;stroke:#000000;stroke-opacity:0.8;stroke-width:0.5;" x="58.525126" xlink:href="#mfc795af471" y="124.987759"/>
     <use style="fill:#ff0000;fill-opacity:0.8;stroke:#000000;stroke-opacity:0.8;stroke-width:0.5;" x="98.017352" xlink:href="#mfc795af471" y="109.121586"/>
     <use style="fill:#ff0000;fill-opacity:0.8;stroke:#000000;stroke-opacity:0.8;stroke-width:0.5;" x="72.828718" xlink:href="#mfc795af471" y="120.802199"/>
     <use style="fill:#ff0000;fill-opacity:0.8;stroke:#000000;stroke-opacity:0.8;stroke-width:0.5;" x="56.94953" xlink:href="#mfc795af471" y="126.587778"/>
     <use style="fill:#ff0000;fill-opacity:0.8;stroke:#000000;stroke-opacity:0.8;stroke-width:0.5;" x="38.277492" xlink:href="#mfc795af471" y="128.858314"/>
     <use style="fill:#ff0000;fill-opacity:0.8;stroke:#000000;stroke-opacity:0.8;stroke-width:0.5;" x="38.481151" xlink:href="#mfc795af471" y="128.825133"/>
     <use style="fill:#ff0000;fill-opacity:0.8;stroke:#000000;stroke-opacity:0.8;stroke-width:0.5;" x="39.48303" xlink:href="#mfc795af471" y="129.165994"/>
     <use style="fill:#ff0000;fill-opacity:0.8;stroke:#000000;stroke-opacity:0.8;stroke-width:0.5;" x="38.868941" xlink:href="#mfc795af471" y="129.169441"/>
     <use style="fill:#ff0000;fill-opacity:0.8;stroke:#000000;stroke-opacity:0.8;stroke-width:0.5;" x="39.50736" xlink:href="#mfc795af471" y="129.156082"/>
     <use style="fill:#ff0000;fill-opacity:0.8;stroke:#000000;stroke-opacity:0.8;stroke-width:0.5;" x="39.438594" xlink:href="#mfc795af471" y="129.186247"/>
     <use style="fill:#ff0000;fill-opacity:0.8;stroke:#000000;stroke-opacity:0.8;stroke-width:0.5;" x="38.995865" xlink:href="#mfc795af471" y="129.176336"/>
     <use style="fill:#ff0000;fill-opacity:0.8;stroke:#000000;stroke-opacity:0.8;stroke-width:0.5;" x="38.049874" xlink:href="#mfc795af471" y="129.10825"/>
     <use style="fill:#ff0000;fill-opacity:0.8;stroke:#000000;stroke-opacity:0.8;stroke-width:0.5;" x="112.933083" xlink:href="#mfc795af471" y="103.448048"/>
     <use style="fill:#ff0000;fill-opacity:0.8;stroke:#000000;stroke-opacity:0.8;stroke-width:0.5;" x="51.478616" xlink:href="#mfc795af471" y="127.282858"/>
     <use style="fill:#ff0000;fill-opacity:0.8;stroke:#000000;stroke-opacity:0.8;stroke-width:0.5;" x="70.438593" xlink:href="#mfc795af471" y="121.991979"/>
     <use style="fill:#ff0000;fill-opacity:0.8;stroke:#000000;stroke-opacity:0.8;stroke-width:0.5;" x="56.104655" xlink:href="#mfc795af471" y="125.97716"/>
     <use style="fill:#ff0000;fill-opacity:0.8;stroke:#000000;stroke-opacity:0.8;stroke-width:0.5;" x="89.433246" xlink:href="#mfc795af471" y="115.894843"/>
     <use style="fill:#ff0000;fill-opacity:0.8;stroke:#000000;stroke-opacity:0.8;stroke-width:0.5;" x="38.65573" xlink:href="#mfc795af471" y="129.01517"/>
     <use style="fill:#ff0000;fill-opacity:0.8;stroke:#000000;stroke-opacity:0.8;stroke-width:0.5;" x="38.758958" xlink:href="#mfc795af471" y="129.071621"/>
     <use style="fill:#ff0000;fill-opacity:0.8;stroke:#000000;stroke-opacity:0.8;stroke-width:0.5;" x="39.378378" xlink:href="#mfc795af471" y="128.819531"/>
     <use style="fill:#ff0000;fill-opacity:0.8;stroke:#000000;stroke-opacity:0.8;stroke-width:0.5;" x="64.12898" xlink:href="#mfc795af471" y="118.892346"/>
     <use style="fill:#ff0000;fill-opacity:0.8;stroke:#000000;stroke-opacity:0.8;stroke-width:0.5;" x="66.387221" xlink:href="#mfc795af471" y="119.333181"/>
    </g>
   </g>
   <g id="PolyCollection_2">
    <path clip-path="url(#p84cfdf944d)" d="M 38.049874 129.190917 
L 38.049874 130.852343 
L 38.80627 130.596628 
L 39.562666 130.343303 
L 40.319062 130.091346 
L 41.075458 129.832685 
L 41.831854 129.578842 
L 42.58825 129.320349 
L 43.344646 129.061326 
L 44.101043 128.805901 
L 44.857439 128.553481 
L 45.613835 128.306347 
L 46.370231 128.037908 
L 47.126627 127.774373 
L 47.883023 127.522887 
L 48.639419 127.264591 
L 49.395815 127.018451 
L 50.152211 126.778762 
L 50.908607 126.544183 
L 51.665003 126.305155 
L 52.421399 126.061564 
L 53.177795 125.831351 
L 53.934191 125.620954 
L 54.690587 125.411913 
L 55.446983 125.185411 
L 56.203379 124.952893 
L 56.959775 124.734157 
L 57.716171 124.527502 
L 58.472568 124.33331 
L 59.228964 124.141567 
L 59.98536 123.937842 
L 60.741756 123.744398 
L 61.498152 123.541099 
L 62.254548 123.346001 
L 63.010944 123.151253 
L 63.76734 122.959137 
L 64.523736 122.761023 
L 65.280132 122.565858 
L 66.036528 122.366916 
L 66.792924 122.174635 
L 67.54932 121.980792 
L 68.305716 121.785841 
L 69.062112 121.59089 
L 69.818508 121.395939 
L 70.574904 121.201348 
L 71.3313 121.007104 
L 72.087696 120.812685 
L 72.844093 120.618184 
L 73.600489 120.423902 
L 74.356885 120.229746 
L 75.113281 120.035319 
L 75.869677 119.840891 
L 76.626073 119.642382 
L 77.382469 119.448448 
L 78.138865 119.257966 
L 78.895261 119.063762 
L 79.651657 118.869558 
L 80.408053 118.675354 
L 81.164449 118.481795 
L 81.920845 118.300068 
L 82.677241 118.116078 
L 83.433637 117.925965 
L 84.190033 117.735375 
L 84.946429 117.534767 
L 85.702825 117.333271 
L 86.459221 117.131775 
L 87.215618 116.930279 
L 87.972014 116.733313 
L 88.72841 116.539104 
L 89.484806 116.346262 
L 90.241202 116.157156 
L 90.997598 115.96805 
L 91.753994 115.783505 
L 92.51039 115.599147 
L 93.266786 115.414788 
L 94.023182 115.230429 
L 94.779578 115.046071 
L 95.535974 114.85388 
L 96.29237 114.660835 
L 97.048766 114.46779 
L 97.805162 114.274659 
L 98.561558 114.08142 
L 99.317954 113.888754 
L 100.07435 113.699681 
L 100.830746 113.510609 
L 101.587143 113.321537 
L 102.343539 113.132464 
L 103.099935 112.943392 
L 103.856331 112.754319 
L 104.612727 112.565247 
L 105.369123 112.376175 
L 106.125519 112.187102 
L 106.881915 111.99803 
L 107.638311 111.808957 
L 108.394707 111.619323 
L 109.151103 111.427481 
L 109.907499 111.235639 
L 110.663895 111.043925 
L 111.420291 110.856251 
L 112.176687 110.668577 
L 112.933083 110.480903 
L 112.933083 104.347381 
L 112.933083 104.347381 
L 112.176687 104.609245 
L 111.420291 104.871249 
L 110.663895 105.132506 
L 109.907499 105.390124 
L 109.151103 105.650576 
L 108.394707 105.906695 
L 107.638311 106.169772 
L 106.881915 106.433462 
L 106.125519 106.697152 
L 105.369123 106.960842 
L 104.612727 107.224532 
L 103.856331 107.484684 
L 103.099935 107.742422 
L 102.343539 108.000159 
L 101.587143 108.257897 
L 100.830746 108.515634 
L 100.07435 108.774582 
L 99.317954 109.035543 
L 98.561558 109.293969 
L 97.805162 109.550638 
L 97.048766 109.814946 
L 96.29237 110.07822 
L 95.535974 110.340629 
L 94.779578 110.601746 
L 94.023182 110.863832 
L 93.266786 111.123915 
L 92.51039 111.384718 
L 91.753994 111.645521 
L 90.997598 111.906486 
L 90.241202 112.165703 
L 89.484806 112.420911 
L 88.72841 112.689935 
L 87.972014 112.950631 
L 87.215618 113.202387 
L 86.459221 113.454385 
L 85.702825 113.714674 
L 84.946429 113.97966 
L 84.190033 114.246682 
L 83.433637 114.506243 
L 82.677241 114.766894 
L 81.920845 115.030328 
L 81.164449 115.288458 
L 80.408053 115.546565 
L 79.651657 115.804749 
L 78.895261 116.059849 
L 78.138865 116.314697 
L 77.382469 116.572932 
L 76.626073 116.831167 
L 75.869677 117.089649 
L 75.113281 117.350999 
L 74.356885 117.613813 
L 73.600489 117.870278 
L 72.844093 118.128405 
L 72.087696 118.385271 
L 71.3313 118.641544 
L 70.574904 118.897801 
L 69.818508 119.153985 
L 69.062112 119.414726 
L 68.305716 119.673016 
L 67.54932 119.929714 
L 66.792924 120.184309 
L 66.036528 120.442927 
L 65.280132 120.695934 
L 64.523736 120.94894 
L 63.76734 121.203733 
L 63.010944 121.454666 
L 62.254548 121.707042 
L 61.498152 121.953747 
L 60.741756 122.196295 
L 59.98536 122.457797 
L 59.228964 122.718269 
L 58.472568 122.972256 
L 57.716171 123.210679 
L 56.959775 123.474987 
L 56.203379 123.716947 
L 55.446983 123.974202 
L 54.690587 124.221101 
L 53.934191 124.467715 
L 53.177795 124.70722 
L 52.421399 124.952392 
L 51.665003 125.192206 
L 50.908607 125.426542 
L 50.152211 125.661333 
L 49.395815 125.906984 
L 48.639419 126.129609 
L 47.883023 126.373972 
L 47.126627 126.588986 
L 46.370231 126.830146 
L 45.613835 127.047693 
L 44.857439 127.289758 
L 44.101043 127.514719 
L 43.344646 127.734762 
L 42.58825 127.949253 
L 41.831854 128.174775 
L 41.075458 128.387482 
L 40.319062 128.583826 
L 39.562666 128.797239 
L 38.80627 128.997776 
L 38.049874 129.190917 
z
" style="fill:#ff0000;fill-opacity:0.15;"/>
   </g>
   <g id="PathCollection_3">
    <defs>
     <path d="M 0 1.581139 
C 0.419323 1.581139 0.821528 1.41454 1.118034 1.118034 
C 1.41454 0.821528 1.581139 0.419323 1.581139 0 
C 1.581139 -0.419323 1.41454 -0.821528 1.118034 -1.118034 
C 0.821528 -1.41454 0.419323 -1.581139 0 -1.581139 
C -0.419323 -1.581139 -0.821528 -1.41454 -1.118034 -1.118034 
C -1.41454 -0.821528 -1.581139 -0.419323 -1.581139 0 
C -1.581139 0.419323 -1.41454 0.821528 -1.118034 1.118034 
C -0.821528 1.41454 -0.419323 1.581139 0 1.581139 
z
" id="mc2fc614be4" style="stroke:#000000;stroke-width:0.252982;"/>
    </defs>
    <g clip-path="url(#p84cfdf944d)">
     <use style="fill:#808080;stroke:#000000;stroke-width:0.252982;" x="38.277492" xlink:href="#mc2fc614be4" y="128.858314"/>
     <use style="fill:#808080;stroke:#000000;stroke-width:0.252982;" x="38.481151" xlink:href="#mc2fc614be4" y="128.825133"/>
     <use style="fill:#808080;stroke:#000000;stroke-width:0.252982;" x="39.48303" xlink:href="#mc2fc614be4" y="129.165994"/>
     <use style="fill:#808080;stroke:#000000;stroke-width:0.252982;" x="38.868941" xlink:href="#mc2fc614be4" y="129.169441"/>
     <use style="fill:#808080;stroke:#000000;stroke-width:0.252982;" x="39.50736" xlink:href="#mc2fc614be4" y="129.156082"/>
     <use style="fill:#808080;stroke:#000000;stroke-width:0.252982;" x="39.438594" xlink:href="#mc2fc614be4" y="129.186247"/>
     <use style="fill:#808080;stroke:#000000;stroke-width:0.252982;" x="38.995865" xlink:href="#mc2fc614be4" y="129.176336"/>
     <use style="fill:#808080;stroke:#000000;stroke-width:0.252982;" x="38.049874" xlink:href="#mc2fc614be4" y="129.10825"/>
     <use style="fill:#808080;stroke:#000000;stroke-width:0.252982;" x="38.65573" xlink:href="#mc2fc614be4" y="129.01517"/>
     <use style="fill:#808080;stroke:#000000;stroke-width:0.252982;" x="38.090986" xlink:href="#mc2fc614be4" y="128.626477"/>
     <use style="fill:#808080;stroke:#000000;stroke-width:0.252982;" x="39.967293" xlink:href="#mc2fc614be4" y="126.482202"/>
     <use style="fill:#808080;stroke:#000000;stroke-width:0.252982;" x="38.758958" xlink:href="#mc2fc614be4" y="129.071621"/>
     <use style="fill:#808080;stroke:#000000;stroke-width:0.252982;" x="39.378378" xlink:href="#mc2fc614be4" y="128.819531"/>
     <use style="fill:#808080;stroke:#000000;stroke-width:0.252982;" x="40.570036" xlink:href="#mc2fc614be4" y="125.638023"/>
    </g>
   </g>
   <g id="matplotlib.axis_1">
    <g id="xtick_1">
     <g id="line2d_3">
      <defs>
       <path d="M 0 0 
L 0 3.5 
" id="mb70397b6a4" style="stroke:#000000;stroke-width:0.8;"/>
      </defs>
      <g>
       <use style="stroke:#000000;stroke-width:0.8;" x="37.65554" xlink:href="#mb70397b6a4" y="138.978043"/>
      </g>
     </g>
     <g id="text_1">
      <!-- 0 -->
      <g transform="translate(36.064915 149.777262)scale(0.05 -0.05)">
       <defs>
        <path d="M 31.78125 66.40625 
Q 24.171875 66.40625 20.328125 58.90625 
Q 16.5 51.421875 16.5 36.375 
Q 16.5 21.390625 20.328125 13.890625 
Q 24.171875 6.390625 31.78125 6.390625 
Q 39.453125 6.390625 43.28125 13.890625 
Q 47.125 21.390625 47.125 36.375 
Q 47.125 51.421875 43.28125 58.90625 
Q 39.453125 66.40625 31.78125 66.40625 
z
M 31.78125 74.21875 
Q 44.046875 74.21875 50.515625 64.515625 
Q 56.984375 54.828125 56.984375 36.375 
Q 56.984375 17.96875 50.515625 8.265625 
Q 44.046875 -1.421875 31.78125 -1.421875 
Q 19.53125 -1.421875 13.0625 8.265625 
Q 6.59375 17.96875 6.59375 36.375 
Q 6.59375 54.828125 13.0625 64.515625 
Q 19.53125 74.21875 31.78125 74.21875 
z
" id="DejaVuSans-48"/>
       </defs>
       <use xlink:href="#DejaVuSans-48"/>
      </g>
     </g>
    </g>
    <g id="xtick_2">
     <g id="line2d_4">
      <g>
       <use style="stroke:#000000;stroke-width:0.8;" x="63.019176" xlink:href="#mb70397b6a4" y="138.978043"/>
      </g>
     </g>
     <g id="text_2">
      <!-- 50 -->
      <g transform="translate(59.837926 149.777262)scale(0.05 -0.05)">
       <defs>
        <path d="M 10.796875 72.90625 
L 49.515625 72.90625 
L 49.515625 64.59375 
L 19.828125 64.59375 
L 19.828125 46.734375 
Q 21.96875 47.46875 24.109375 47.828125 
Q 26.265625 48.1875 28.421875 48.1875 
Q 40.625 48.1875 47.75 41.5 
Q 54.890625 34.8125 54.890625 23.390625 
Q 54.890625 11.625 47.5625 5.09375 
Q 40.234375 -1.421875 26.90625 -1.421875 
Q 22.3125 -1.421875 17.546875 -0.640625 
Q 12.796875 0.140625 7.71875 1.703125 
L 7.71875 11.625 
Q 12.109375 9.234375 16.796875 8.0625 
Q 21.484375 6.890625 26.703125 6.890625 
Q 35.15625 6.890625 40.078125 11.328125 
Q 45.015625 15.765625 45.015625 23.390625 
Q 45.015625 31 40.078125 35.4375 
Q 35.15625 39.890625 26.703125 39.890625 
Q 22.75 39.890625 18.8125 39.015625 
Q 14.890625 38.140625 10.796875 36.28125 
z
" id="DejaVuSans-53"/>
       </defs>
       <use xlink:href="#DejaVuSans-53"/>
       <use x="63.623047" xlink:href="#DejaVuSans-48"/>
      </g>
     </g>
    </g>
    <g id="xtick_3">
     <g id="line2d_5">
      <g>
       <use style="stroke:#000000;stroke-width:0.8;" x="88.382812" xlink:href="#mb70397b6a4" y="138.978043"/>
      </g>
     </g>
     <g id="text_3">
      <!-- 100 -->
      <g transform="translate(83.610938 149.777262)scale(0.05 -0.05)">
       <defs>
        <path d="M 12.40625 8.296875 
L 28.515625 8.296875 
L 28.515625 63.921875 
L 10.984375 60.40625 
L 10.984375 69.390625 
L 28.421875 72.90625 
L 38.28125 72.90625 
L 38.28125 8.296875 
L 54.390625 8.296875 
L 54.390625 0 
L 12.40625 0 
z
" id="DejaVuSans-49"/>
       </defs>
       <use xlink:href="#DejaVuSans-49"/>
       <use x="63.623047" xlink:href="#DejaVuSans-48"/>
       <use x="127.246094" xlink:href="#DejaVuSans-48"/>
      </g>
     </g>
    </g>
    <g id="xtick_4">
     <g id="line2d_6">
      <g>
       <use style="stroke:#000000;stroke-width:0.8;" x="113.746449" xlink:href="#mb70397b6a4" y="138.978043"/>
      </g>
     </g>
     <g id="text_4">
      <!-- 150 -->
      <g transform="translate(108.974574 149.777262)scale(0.05 -0.05)">
       <use xlink:href="#DejaVuSans-49"/>
       <use x="63.623047" xlink:href="#DejaVuSans-53"/>
       <use x="127.246094" xlink:href="#DejaVuSans-48"/>
      </g>
     </g>
    </g>
    <g id="xtick_5">
     <g id="line2d_7">
      <g>
       <use style="stroke:#000000;stroke-width:0.8;" x="139.110085" xlink:href="#mb70397b6a4" y="138.978043"/>
      </g>
     </g>
     <g id="text_5">
      <!-- 200 -->
      <g transform="translate(134.33821 149.777262)scale(0.05 -0.05)">
       <defs>
        <path d="M 19.1875 8.296875 
L 53.609375 8.296875 
L 53.609375 0 
L 7.328125 0 
L 7.328125 8.296875 
Q 12.9375 14.109375 22.625 23.890625 
Q 32.328125 33.6875 34.8125 36.53125 
Q 39.546875 41.84375 41.421875 45.53125 
Q 43.3125 49.21875 43.3125 52.78125 
Q 43.3125 58.59375 39.234375 62.25 
Q 35.15625 65.921875 28.609375 65.921875 
Q 23.96875 65.921875 18.8125 64.3125 
Q 13.671875 62.703125 7.8125 59.421875 
L 7.8125 69.390625 
Q 13.765625 71.78125 18.9375 73 
Q 24.125 74.21875 28.421875 74.21875 
Q 39.75 74.21875 46.484375 68.546875 
Q 53.21875 62.890625 53.21875 53.421875 
Q 53.21875 48.921875 51.53125 44.890625 
Q 49.859375 40.875 45.40625 35.40625 
Q 44.1875 33.984375 37.640625 27.21875 
Q 31.109375 20.453125 19.1875 8.296875 
z
" id="DejaVuSans-50"/>
       </defs>
       <use xlink:href="#DejaVuSans-50"/>
       <use x="63.623047" xlink:href="#DejaVuSans-48"/>
       <use x="127.246094" xlink:href="#DejaVuSans-48"/>
      </g>
     </g>
    </g>
    <g id="text_6">
     <!-- pPCP1 Depth (X) -->
     <g transform="translate(67.577344 158.616325)scale(0.05 -0.05)">
      <defs>
       <path d="M 18.109375 8.203125 
L 18.109375 -20.796875 
L 9.078125 -20.796875 
L 9.078125 54.6875 
L 18.109375 54.6875 
L 18.109375 46.390625 
Q 20.953125 51.265625 25.265625 53.625 
Q 29.59375 56 35.59375 56 
Q 45.5625 56 51.78125 48.09375 
Q 58.015625 40.1875 58.015625 27.296875 
Q 58.015625 14.40625 51.78125 6.484375 
Q 45.5625 -1.421875 35.59375 -1.421875 
Q 29.59375 -1.421875 25.265625 0.953125 
Q 20.953125 3.328125 18.109375 8.203125 
z
M 48.6875 27.296875 
Q 48.6875 37.203125 44.609375 42.84375 
Q 40.53125 48.484375 33.40625 48.484375 
Q 26.265625 48.484375 22.1875 42.84375 
Q 18.109375 37.203125 18.109375 27.296875 
Q 18.109375 17.390625 22.1875 11.75 
Q 26.265625 6.109375 33.40625 6.109375 
Q 40.53125 6.109375 44.609375 11.75 
Q 48.6875 17.390625 48.6875 27.296875 
z
" id="DejaVuSans-112"/>
       <path d="M 19.671875 64.796875 
L 19.671875 37.40625 
L 32.078125 37.40625 
Q 38.96875 37.40625 42.71875 40.96875 
Q 46.484375 44.53125 46.484375 51.125 
Q 46.484375 57.671875 42.71875 61.234375 
Q 38.96875 64.796875 32.078125 64.796875 
z
M 9.8125 72.90625 
L 32.078125 72.90625 
Q 44.34375 72.90625 50.609375 67.359375 
Q 56.890625 61.8125 56.890625 51.125 
Q 56.890625 40.328125 50.609375 34.8125 
Q 44.34375 29.296875 32.078125 29.296875 
L 19.671875 29.296875 
L 19.671875 0 
L 9.8125 0 
z
" id="DejaVuSans-80"/>
       <path d="M 64.40625 67.28125 
L 64.40625 56.890625 
Q 59.421875 61.53125 53.78125 63.8125 
Q 48.140625 66.109375 41.796875 66.109375 
Q 29.296875 66.109375 22.65625 58.46875 
Q 16.015625 50.828125 16.015625 36.375 
Q 16.015625 21.96875 22.65625 14.328125 
Q 29.296875 6.6875 41.796875 6.6875 
Q 48.140625 6.6875 53.78125 8.984375 
Q 59.421875 11.28125 64.40625 15.921875 
L 64.40625 5.609375 
Q 59.234375 2.09375 53.4375 0.328125 
Q 47.65625 -1.421875 41.21875 -1.421875 
Q 24.65625 -1.421875 15.125 8.703125 
Q 5.609375 18.84375 5.609375 36.375 
Q 5.609375 53.953125 15.125 64.078125 
Q 24.65625 74.21875 41.21875 74.21875 
Q 47.75 74.21875 53.53125 72.484375 
Q 59.328125 70.75 64.40625 67.28125 
z
" id="DejaVuSans-67"/>
       <path id="DejaVuSans-32"/>
       <path d="M 19.671875 64.796875 
L 19.671875 8.109375 
L 31.59375 8.109375 
Q 46.6875 8.109375 53.6875 14.9375 
Q 60.6875 21.78125 60.6875 36.53125 
Q 60.6875 51.171875 53.6875 57.984375 
Q 46.6875 64.796875 31.59375 64.796875 
z
M 9.8125 72.90625 
L 30.078125 72.90625 
Q 51.265625 72.90625 61.171875 64.09375 
Q 71.09375 55.28125 71.09375 36.53125 
Q 71.09375 17.671875 61.125 8.828125 
Q 51.171875 0 30.078125 0 
L 9.8125 0 
z
" id="DejaVuSans-68"/>
       <path d="M 56.203125 29.59375 
L 56.203125 25.203125 
L 14.890625 25.203125 
Q 15.484375 15.921875 20.484375 11.0625 
Q 25.484375 6.203125 34.421875 6.203125 
Q 39.59375 6.203125 44.453125 7.46875 
Q 49.3125 8.734375 54.109375 11.28125 
L 54.109375 2.78125 
Q 49.265625 0.734375 44.1875 -0.34375 
Q 39.109375 -1.421875 33.890625 -1.421875 
Q 20.796875 -1.421875 13.15625 6.1875 
Q 5.515625 13.8125 5.515625 26.8125 
Q 5.515625 40.234375 12.765625 48.109375 
Q 20.015625 56 32.328125 56 
Q 43.359375 56 49.78125 48.890625 
Q 56.203125 41.796875 56.203125 29.59375 
z
M 47.21875 32.234375 
Q 47.125 39.59375 43.09375 43.984375 
Q 39.0625 48.390625 32.421875 48.390625 
Q 24.90625 48.390625 20.390625 44.140625 
Q 15.875 39.890625 15.1875 32.171875 
z
" id="DejaVuSans-101"/>
       <path d="M 18.3125 70.21875 
L 18.3125 54.6875 
L 36.8125 54.6875 
L 36.8125 47.703125 
L 18.3125 47.703125 
L 18.3125 18.015625 
Q 18.3125 11.328125 20.140625 9.421875 
Q 21.96875 7.515625 27.59375 7.515625 
L 36.8125 7.515625 
L 36.8125 0 
L 27.59375 0 
Q 17.1875 0 13.234375 3.875 
Q 9.28125 7.765625 9.28125 18.015625 
L 9.28125 47.703125 
L 2.6875 47.703125 
L 2.6875 54.6875 
L 9.28125 54.6875 
L 9.28125 70.21875 
z
" id="DejaVuSans-116"/>
       <path d="M 54.890625 33.015625 
L 54.890625 0 
L 45.90625 0 
L 45.90625 32.71875 
Q 45.90625 40.484375 42.875 44.328125 
Q 39.84375 48.1875 33.796875 48.1875 
Q 26.515625 48.1875 22.3125 43.546875 
Q 18.109375 38.921875 18.109375 30.90625 
L 18.109375 0 
L 9.078125 0 
L 9.078125 75.984375 
L 18.109375 75.984375 
L 18.109375 46.1875 
Q 21.34375 51.125 25.703125 53.5625 
Q 30.078125 56 35.796875 56 
Q 45.21875 56 50.046875 50.171875 
Q 54.890625 44.34375 54.890625 33.015625 
z
" id="DejaVuSans-104"/>
       <path d="M 31 75.875 
Q 24.46875 64.65625 21.28125 53.65625 
Q 18.109375 42.671875 18.109375 31.390625 
Q 18.109375 20.125 21.3125 9.0625 
Q 24.515625 -2 31 -13.1875 
L 23.1875 -13.1875 
Q 15.875 -1.703125 12.234375 9.375 
Q 8.59375 20.453125 8.59375 31.390625 
Q 8.59375 42.28125 12.203125 53.3125 
Q 15.828125 64.359375 23.1875 75.875 
z
" id="DejaVuSans-40"/>
       <path d="M 6.296875 72.90625 
L 16.890625 72.90625 
L 35.015625 45.796875 
L 53.21875 72.90625 
L 63.8125 72.90625 
L 40.375 37.890625 
L 65.375 0 
L 54.78125 0 
L 34.28125 31 
L 13.625 0 
L 2.984375 0 
L 29 38.921875 
z
" id="DejaVuSans-88"/>
       <path d="M 8.015625 75.875 
L 15.828125 75.875 
Q 23.140625 64.359375 26.78125 53.3125 
Q 30.421875 42.28125 30.421875 31.390625 
Q 30.421875 20.453125 26.78125 9.375 
Q 23.140625 -1.703125 15.828125 -13.1875 
L 8.015625 -13.1875 
Q 14.5 -2 17.703125 9.0625 
Q 20.90625 20.125 20.90625 31.390625 
Q 20.90625 42.671875 17.703125 53.65625 
Q 14.5 64.65625 8.015625 75.875 
z
" id="DejaVuSans-41"/>
      </defs>
      <use xlink:href="#DejaVuSans-112"/>
      <use x="63.476562" xlink:href="#DejaVuSans-80"/>
      <use x="123.779297" xlink:href="#DejaVuSans-67"/>
      <use x="193.603516" xlink:href="#DejaVuSans-80"/>
      <use x="253.90625" xlink:href="#DejaVuSans-49"/>
      <use x="317.529297" xlink:href="#DejaVuSans-32"/>
      <use x="349.316406" xlink:href="#DejaVuSans-68"/>
      <use x="426.318359" xlink:href="#DejaVuSans-101"/>
      <use x="487.841797" xlink:href="#DejaVuSans-112"/>
      <use x="551.318359" xlink:href="#DejaVuSans-116"/>
      <use x="590.527344" xlink:href="#DejaVuSans-104"/>
      <use x="653.90625" xlink:href="#DejaVuSans-32"/>
      <use x="685.693359" xlink:href="#DejaVuSans-40"/>
      <use x="724.707031" xlink:href="#DejaVuSans-88"/>
      <use x="793.212891" xlink:href="#DejaVuSans-41"/>
     </g>
    </g>
   </g>
   <g id="matplotlib.axis_2">
    <g id="ytick_1">
     <g id="line2d_8">
      <defs>
       <path d="M 0 0 
L -3.5 0 
" id="md8e63dba3f" style="stroke:#000000;stroke-width:0.8;"/>
      </defs>
      <g>
       <use style="stroke:#000000;stroke-width:0.8;" x="32.582813" xlink:href="#md8e63dba3f" y="129.201329"/>
      </g>
     </g>
     <g id="text_7">
      <!-- 0 -->
      <g transform="translate(22.401563 131.100939)scale(0.05 -0.05)">
       <use xlink:href="#DejaVuSans-48"/>
      </g>
     </g>
    </g>
    <g id="ytick_2">
     <g id="line2d_9">
      <g>
       <use style="stroke:#000000;stroke-width:0.8;" x="32.582813" xlink:href="#md8e63dba3f" y="108.96947"/>
      </g>
     </g>
     <g id="text_8">
      <!-- 50 -->
      <g transform="translate(19.220313 110.86908)scale(0.05 -0.05)">
       <use xlink:href="#DejaVuSans-53"/>
       <use x="63.623047" xlink:href="#DejaVuSans-48"/>
      </g>
     </g>
    </g>
    <g id="ytick_3">
     <g id="line2d_10">
      <g>
       <use style="stroke:#000000;stroke-width:0.8;" x="32.582813" xlink:href="#md8e63dba3f" y="88.737612"/>
      </g>
     </g>
     <g id="text_9">
      <!-- 100 -->
      <g transform="translate(16.039062 90.637221)scale(0.05 -0.05)">
       <use xlink:href="#DejaVuSans-49"/>
       <use x="63.623047" xlink:href="#DejaVuSans-48"/>
       <use x="127.246094" xlink:href="#DejaVuSans-48"/>
      </g>
     </g>
    </g>
    <g id="ytick_4">
     <g id="line2d_11">
      <g>
       <use style="stroke:#000000;stroke-width:0.8;" x="32.582813" xlink:href="#md8e63dba3f" y="68.505753"/>
      </g>
     </g>
     <g id="text_10">
      <!-- 150 -->
      <g transform="translate(16.039062 70.405362)scale(0.05 -0.05)">
       <use xlink:href="#DejaVuSans-49"/>
       <use x="63.623047" xlink:href="#DejaVuSans-53"/>
       <use x="127.246094" xlink:href="#DejaVuSans-48"/>
      </g>
     </g>
    </g>
    <g id="ytick_5">
     <g id="line2d_12">
      <g>
       <use style="stroke:#000000;stroke-width:0.8;" x="32.582813" xlink:href="#md8e63dba3f" y="48.273894"/>
      </g>
     </g>
     <g id="text_11">
      <!-- 200 -->
      <g transform="translate(16.039062 50.173503)scale(0.05 -0.05)">
       <use xlink:href="#DejaVuSans-50"/>
       <use x="63.623047" xlink:href="#DejaVuSans-48"/>
       <use x="127.246094" xlink:href="#DejaVuSans-48"/>
      </g>
     </g>
    </g>
    <g id="ytick_6">
     <g id="line2d_13">
      <g>
       <use style="stroke:#000000;stroke-width:0.8;" x="32.582813" xlink:href="#md8e63dba3f" y="28.042035"/>
      </g>
     </g>
     <g id="text_12">
      <!-- 250 -->
      <g transform="translate(16.039062 29.941644)scale(0.05 -0.05)">
       <use xlink:href="#DejaVuSans-50"/>
       <use x="63.623047" xlink:href="#DejaVuSans-53"/>
       <use x="127.246094" xlink:href="#DejaVuSans-48"/>
      </g>
     </g>
    </g>
    <g id="text_13">
     <!-- pla Depth (X) -->
     <g transform="translate(10.999219 90.426903)rotate(-90)scale(0.05 -0.05)">
      <defs>
       <path d="M 9.421875 75.984375 
L 18.40625 75.984375 
L 18.40625 0 
L 9.421875 0 
z
" id="DejaVuSans-108"/>
       <path d="M 34.28125 27.484375 
Q 23.390625 27.484375 19.1875 25 
Q 14.984375 22.515625 14.984375 16.5 
Q 14.984375 11.71875 18.140625 8.90625 
Q 21.296875 6.109375 26.703125 6.109375 
Q 34.1875 6.109375 38.703125 11.40625 
Q 43.21875 16.703125 43.21875 25.484375 
L 43.21875 27.484375 
z
M 52.203125 31.203125 
L 52.203125 0 
L 43.21875 0 
L 43.21875 8.296875 
Q 40.140625 3.328125 35.546875 0.953125 
Q 30.953125 -1.421875 24.3125 -1.421875 
Q 15.921875 -1.421875 10.953125 3.296875 
Q 6 8.015625 6 15.921875 
Q 6 25.140625 12.171875 29.828125 
Q 18.359375 34.515625 30.609375 34.515625 
L 43.21875 34.515625 
L 43.21875 35.40625 
Q 43.21875 41.609375 39.140625 45 
Q 35.0625 48.390625 27.6875 48.390625 
Q 23 48.390625 18.546875 47.265625 
Q 14.109375 46.140625 10.015625 43.890625 
L 10.015625 52.203125 
Q 14.9375 54.109375 19.578125 55.046875 
Q 24.21875 56 28.609375 56 
Q 40.484375 56 46.34375 49.84375 
Q 52.203125 43.703125 52.203125 31.203125 
z
" id="DejaVuSans-97"/>
      </defs>
      <use xlink:href="#DejaVuSans-112"/>
      <use x="63.476562" xlink:href="#DejaVuSans-108"/>
      <use x="91.259766" xlink:href="#DejaVuSans-97"/>
      <use x="152.539062" xlink:href="#DejaVuSans-32"/>
      <use x="184.326172" xlink:href="#DejaVuSans-68"/>
      <use x="261.328125" xlink:href="#DejaVuSans-101"/>
      <use x="322.851562" xlink:href="#DejaVuSans-112"/>
      <use x="386.328125" xlink:href="#DejaVuSans-116"/>
      <use x="425.537109" xlink:href="#DejaVuSans-104"/>
      <use x="488.916016" xlink:href="#DejaVuSans-32"/>
      <use x="520.703125" xlink:href="#DejaVuSans-40"/>
      <use x="559.716797" xlink:href="#DejaVuSans-88"/>
      <use x="628.222656" xlink:href="#DejaVuSans-41"/>
     </g>
    </g>
   </g>
   <g id="patch_3">
    <path d="M 32.582813 138.978043 
L 32.582813 8.514043 
" style="fill:none;stroke:#000000;stroke-linecap:square;stroke-linejoin:miter;stroke-width:0.8;"/>
   </g>
   <g id="patch_4">
    <path d="M 144.182812 138.978043 
L 144.182812 8.514043 
" style="fill:none;stroke:#000000;stroke-linecap:square;stroke-linejoin:miter;stroke-width:0.8;"/>
   </g>
   <g id="patch_5">
    <path d="M 32.582813 138.978043 
L 144.182812 138.978043 
" style="fill:none;stroke:#000000;stroke-linecap:square;stroke-linejoin:miter;stroke-width:0.8;"/>
   </g>
   <g id="patch_6">
    <path d="M 32.582813 8.514043 
L 144.182812 8.514043 
" style="fill:none;stroke:#000000;stroke-linecap:square;stroke-linejoin:miter;stroke-width:0.8;"/>
   </g>
   <g id="legend_1">
    <g id="patch_7">
     <path d="M 36.082813 34.531231 
L 84.076563 34.531231 
Q 85.076563 34.531231 85.076563 33.531231 
L 85.076563 12.014043 
Q 85.076563 11.014043 84.076563 11.014043 
L 36.082813 11.014043 
Q 35.082813 11.014043 35.082813 12.014043 
L 35.082813 33.531231 
Q 35.082813 34.531231 36.082813 34.531231 
z
" style="fill:#ffffff;opacity:0.8;stroke:#000000;stroke-linejoin:miter;stroke-width:0.5;"/>
    </g>
    <g id="PathCollection_4">
     <g>
      <use style="fill:#008000;fill-opacity:0.8;stroke:#000000;stroke-opacity:0.8;stroke-width:0.5;" x="42.082813" xlink:href="#mc5895dd87a" y="15.500762"/>
     </g>
    </g>
    <g id="text_14">
     <!-- pla Normal -->
     <g transform="translate(51.082813 16.813262)scale(0.05 -0.05)">
      <defs>
       <path d="M 9.8125 72.90625 
L 23.09375 72.90625 
L 55.421875 11.921875 
L 55.421875 72.90625 
L 64.984375 72.90625 
L 64.984375 0 
L 51.703125 0 
L 19.390625 60.984375 
L 19.390625 0 
L 9.8125 0 
z
" id="DejaVuSans-78"/>
       <path d="M 30.609375 48.390625 
Q 23.390625 48.390625 19.1875 42.75 
Q 14.984375 37.109375 14.984375 27.296875 
Q 14.984375 17.484375 19.15625 11.84375 
Q 23.34375 6.203125 30.609375 6.203125 
Q 37.796875 6.203125 41.984375 11.859375 
Q 46.1875 17.53125 46.1875 27.296875 
Q 46.1875 37.015625 41.984375 42.703125 
Q 37.796875 48.390625 30.609375 48.390625 
z
M 30.609375 56 
Q 42.328125 56 49.015625 48.375 
Q 55.71875 40.765625 55.71875 27.296875 
Q 55.71875 13.875 49.015625 6.21875 
Q 42.328125 -1.421875 30.609375 -1.421875 
Q 18.84375 -1.421875 12.171875 6.21875 
Q 5.515625 13.875 5.515625 27.296875 
Q 5.515625 40.765625 12.171875 48.375 
Q 18.84375 56 30.609375 56 
z
" id="DejaVuSans-111"/>
       <path d="M 41.109375 46.296875 
Q 39.59375 47.171875 37.8125 47.578125 
Q 36.03125 48 33.890625 48 
Q 26.265625 48 22.1875 43.046875 
Q 18.109375 38.09375 18.109375 28.8125 
L 18.109375 0 
L 9.078125 0 
L 9.078125 54.6875 
L 18.109375 54.6875 
L 18.109375 46.1875 
Q 20.953125 51.171875 25.484375 53.578125 
Q 30.03125 56 36.53125 56 
Q 37.453125 56 38.578125 55.875 
Q 39.703125 55.765625 41.0625 55.515625 
z
" id="DejaVuSans-114"/>
       <path d="M 52 44.1875 
Q 55.375 50.25 60.0625 53.125 
Q 64.75 56 71.09375 56 
Q 79.640625 56 84.28125 50.015625 
Q 88.921875 44.046875 88.921875 33.015625 
L 88.921875 0 
L 79.890625 0 
L 79.890625 32.71875 
Q 79.890625 40.578125 77.09375 44.375 
Q 74.3125 48.1875 68.609375 48.1875 
Q 61.625 48.1875 57.5625 43.546875 
Q 53.515625 38.921875 53.515625 30.90625 
L 53.515625 0 
L 44.484375 0 
L 44.484375 32.71875 
Q 44.484375 40.625 41.703125 44.40625 
Q 38.921875 48.1875 33.109375 48.1875 
Q 26.21875 48.1875 22.15625 43.53125 
Q 18.109375 38.875 18.109375 30.90625 
L 18.109375 0 
L 9.078125 0 
L 9.078125 54.6875 
L 18.109375 54.6875 
L 18.109375 46.1875 
Q 21.1875 51.21875 25.484375 53.609375 
Q 29.78125 56 35.6875 56 
Q 41.65625 56 45.828125 52.96875 
Q 50 49.953125 52 44.1875 
z
" id="DejaVuSans-109"/>
      </defs>
      <use xlink:href="#DejaVuSans-112"/>
      <use x="63.476562" xlink:href="#DejaVuSans-108"/>
      <use x="91.259766" xlink:href="#DejaVuSans-97"/>
      <use x="152.539062" xlink:href="#DejaVuSans-32"/>
      <use x="184.326172" xlink:href="#DejaVuSans-78"/>
      <use x="259.130859" xlink:href="#DejaVuSans-111"/>
      <use x="320.3125" xlink:href="#DejaVuSans-114"/>
      <use x="359.675781" xlink:href="#DejaVuSans-109"/>
      <use x="457.087891" xlink:href="#DejaVuSans-97"/>
      <use x="518.367188" xlink:href="#DejaVuSans-108"/>
     </g>
    </g>
    <g id="PathCollection_5">
     <g>
      <use style="fill:#ff0000;fill-opacity:0.8;stroke:#000000;stroke-opacity:0.8;stroke-width:0.5;" x="42.082813" xlink:href="#mfc795af471" y="22.839825"/>
     </g>
    </g>
    <g id="text_15">
     <!-- pla Depleted -->
     <g transform="translate(51.082813 24.152325)scale(0.05 -0.05)">
      <defs>
       <path d="M 45.40625 46.390625 
L 45.40625 75.984375 
L 54.390625 75.984375 
L 54.390625 0 
L 45.40625 0 
L 45.40625 8.203125 
Q 42.578125 3.328125 38.25 0.953125 
Q 33.9375 -1.421875 27.875 -1.421875 
Q 17.96875 -1.421875 11.734375 6.484375 
Q 5.515625 14.40625 5.515625 27.296875 
Q 5.515625 40.1875 11.734375 48.09375 
Q 17.96875 56 27.875 56 
Q 33.9375 56 38.25 53.625 
Q 42.578125 51.265625 45.40625 46.390625 
z
M 14.796875 27.296875 
Q 14.796875 17.390625 18.875 11.75 
Q 22.953125 6.109375 30.078125 6.109375 
Q 37.203125 6.109375 41.296875 11.75 
Q 45.40625 17.390625 45.40625 27.296875 
Q 45.40625 37.203125 41.296875 42.84375 
Q 37.203125 48.484375 30.078125 48.484375 
Q 22.953125 48.484375 18.875 42.84375 
Q 14.796875 37.203125 14.796875 27.296875 
z
" id="DejaVuSans-100"/>
      </defs>
      <use xlink:href="#DejaVuSans-112"/>
      <use x="63.476562" xlink:href="#DejaVuSans-108"/>
      <use x="91.259766" xlink:href="#DejaVuSans-97"/>
      <use x="152.539062" xlink:href="#DejaVuSans-32"/>
      <use x="184.326172" xlink:href="#DejaVuSans-68"/>
      <use x="261.328125" xlink:href="#DejaVuSans-101"/>
      <use x="322.851562" xlink:href="#DejaVuSans-112"/>
      <use x="386.328125" xlink:href="#DejaVuSans-108"/>
      <use x="414.111328" xlink:href="#DejaVuSans-101"/>
      <use x="475.634766" xlink:href="#DejaVuSans-116"/>
      <use x="514.84375" xlink:href="#DejaVuSans-101"/>
      <use x="576.367188" xlink:href="#DejaVuSans-100"/>
     </g>
    </g>
    <g id="PathCollection_6">
     <g>
      <use style="fill:#808080;stroke:#000000;stroke-width:0.252982;" x="42.082813" xlink:href="#mc2fc614be4" y="30.178887"/>
     </g>
    </g>
    <g id="text_16">
     <!-- Low pPCP1 -->
     <g transform="translate(51.082813 31.491387)scale(0.05 -0.05)">
      <defs>
       <path d="M 9.8125 72.90625 
L 19.671875 72.90625 
L 19.671875 8.296875 
L 55.171875 8.296875 
L 55.171875 0 
L 9.8125 0 
z
" id="DejaVuSans-76"/>
       <path d="M 4.203125 54.6875 
L 13.1875 54.6875 
L 24.421875 12.015625 
L 35.59375 54.6875 
L 46.1875 54.6875 
L 57.421875 12.015625 
L 68.609375 54.6875 
L 77.59375 54.6875 
L 63.28125 0 
L 52.6875 0 
L 40.921875 44.828125 
L 29.109375 0 
L 18.5 0 
z
" id="DejaVuSans-119"/>
      </defs>
      <use xlink:href="#DejaVuSans-76"/>
      <use x="53.962891" xlink:href="#DejaVuSans-111"/>
      <use x="115.144531" xlink:href="#DejaVuSans-119"/>
      <use x="196.931641" xlink:href="#DejaVuSans-32"/>
      <use x="228.71875" xlink:href="#DejaVuSans-112"/>
      <use x="292.195312" xlink:href="#DejaVuSans-80"/>
      <use x="352.498047" xlink:href="#DejaVuSans-67"/>
      <use x="422.322266" xlink:href="#DejaVuSans-80"/>
      <use x="482.625" xlink:href="#DejaVuSans-49"/>
     </g>
    </g>
   </g>
  </g>
  <g id="axes_2">
   <g id="patch_8">
    <path d="M 188.822812 138.978043 
L 300.422813 138.978043 
L 300.422813 8.514043 
L 188.822812 8.514043 
z
" style="fill:#ffffff;"/>
   </g>
   <g id="patch_9">
    <path clip-path="url(#p520d495220)" d="M 238.908302 118.803075 
L 264.931305 118.803075 
L 264.931305 117.377888 
L 238.908302 117.377888 
z
" style="fill:#ff0000;opacity:0.2;"/>
   </g>
   <g id="patch_10">
    <path clip-path="url(#p520d495220)" d="M 237.677484 115.435463 
L 263.700487 115.435463 
L 263.700487 114.010275 
L 237.677484 114.010275 
z
" style="fill:#ff0000;opacity:0.2;"/>
   </g>
   <g id="patch_11">
    <path clip-path="url(#p520d495220)" d="M 237.501653 119.697679 
L 263.348825 119.697679 
L 263.348825 118.272491 
L 237.501653 118.272491 
z
" style="fill:#ff0000;opacity:0.2;"/>
   </g>
   <g id="patch_12">
    <path clip-path="url(#p520d495220)" d="M 236.97416 99.147733 
L 263.172994 99.147733 
L 263.172994 97.722545 
L 236.97416 97.722545 
z
" style="fill:#ff0000;opacity:0.2;"/>
   </g>
   <g id="patch_13">
    <path clip-path="url(#p520d495220)" d="M 239.084133 120.983689 
L 265.458798 120.983689 
L 265.458798 119.558502 
L 239.084133 119.558502 
z
" style="fill:#ff0000;opacity:0.2;"/>
   </g>
   <g id="patch_14">
    <path clip-path="url(#p520d495220)" d="M 238.732471 121.602523 
L 265.986291 121.602523 
L 265.986291 120.177335 
L 238.732471 120.177335 
z
" style="fill:#ff0000;opacity:0.2;"/>
   </g>
   <g id="patch_15">
    <path clip-path="url(#p520d495220)" d="M 237.853315 118.365039 
L 264.22798 118.365039 
L 264.22798 116.939851 
L 237.853315 116.939851 
z
" style="fill:#ff0000;opacity:0.2;"/>
   </g>
   <g id="patch_16">
    <path clip-path="url(#p520d495220)" d="M 238.380808 117.202892 
L 264.403811 117.202892 
L 264.403811 115.777705 
L 238.380808 115.777705 
z
" style="fill:#ff0000;opacity:0.2;"/>
   </g>
   <g id="patch_17">
    <path clip-path="url(#p520d495220)" d="M 213.588623 108.133909 
L 243.128248 108.133909 
L 243.128248 106.708722 
L 213.588623 106.708722 
z
" style="fill:#ff0000;opacity:0.2;"/>
   </g>
   <g id="patch_18">
    <path clip-path="url(#p520d495220)" d="M 225.193476 114.420727 
L 251.216479 114.420727 
L 251.216479 112.995539 
L 225.193476 112.995539 
z
" style="fill:#ff0000;opacity:0.2;"/>
   </g>
   <g id="patch_19">
    <path clip-path="url(#p520d495220)" d="M 198.115486 73.667086 
L 223.435165 73.667086 
L 223.435165 72.241899 
L 198.115486 72.241899 
z
" style="fill:#ff0000;opacity:0.2;"/>
   </g>
   <g id="patch_20">
    <path clip-path="url(#p520d495220)" d="M 204.093744 62.311488 
L 230.64424 62.311488 
L 230.64424 60.886301 
L 204.093744 60.886301 
z
" style="fill:#008000;opacity:0.2;"/>
   </g>
   <g id="patch_21">
    <path clip-path="url(#p520d495220)" d="M 232.050889 120.798256 
L 259.304709 120.798256 
L 259.304709 119.373069 
L 232.050889 119.373069 
z
" style="fill:#ff0000;opacity:0.2;"/>
   </g>
   <g id="patch_22">
    <path clip-path="url(#p520d495220)" d="M 193.89554 51.564995 
L 219.918543 51.564995 
L 219.918543 50.139808 
L 193.89554 50.139808 
z
" style="fill:#008000;opacity:0.2;"/>
   </g>
   <g id="patch_23">
    <path clip-path="url(#p520d495220)" d="M 223.083503 110.050039 
L 251.216479 110.050039 
L 251.216479 108.624852 
L 223.083503 108.624852 
z
" style="fill:#ff0000;opacity:0.2;"/>
   </g>
   <g id="patch_24">
    <path clip-path="url(#p520d495220)" d="M 251.040648 106.038804 
L 274.074522 106.038804 
L 274.074522 104.613616 
L 251.040648 104.613616 
z
" style="fill:#ff0000;opacity:0.2;"/>
   </g>
   <g id="patch_25">
    <path clip-path="url(#p520d495220)" d="M 245.414052 115.766937 
L 269.854576 115.766937 
L 269.854576 114.34175 
L 245.414052 114.34175 
z
" style="fill:#ff0000;opacity:0.2;"/>
   </g>
   <g id="patch_26">
    <path clip-path="url(#p520d495220)" d="M 242.249093 104.085921 
L 267.041278 104.085921 
L 267.041278 102.660734 
L 242.249093 102.660734 
z
" style="fill:#ff0000;opacity:0.2;"/>
   </g>
   <g id="patch_27">
    <path clip-path="url(#p520d495220)" d="M 246.469039 112.471078 
L 271.085393 112.471078 
L 271.085393 111.04589 
L 246.469039 111.04589 
z
" style="fill:#ff0000;opacity:0.2;"/>
   </g>
   <g id="patch_28">
    <path clip-path="url(#p520d495220)" d="M 246.469039 121.702362 
L 271.437055 121.702362 
L 271.437055 120.277174 
L 246.469039 120.277174 
z
" style="fill:#ff0000;opacity:0.2;"/>
   </g>
   <g id="patch_29">
    <path clip-path="url(#p520d495220)" d="M 198.291317 32.928616 
L 225.193476 32.928616 
L 225.193476 31.503429 
L 198.291317 31.503429 
z
" style="fill:#008000;opacity:0.2;"/>
   </g>
   <g id="patch_30">
    <path clip-path="url(#p520d495220)" d="M 197.939655 29.547582 
L 223.962658 29.547582 
L 223.962658 28.122394 
L 197.939655 28.122394 
z
" style="fill:#008000;opacity:0.2;"/>
   </g>
   <g id="patch_31">
    <path clip-path="url(#p520d495220)" d="M 206.555379 27.721582 
L 231.523395 27.721582 
L 231.523395 26.296394 
L 206.555379 26.296394 
z
" style="fill:#008000;opacity:0.2;"/>
   </g>
   <g id="patch_32">
    <path clip-path="url(#p520d495220)" d="M 204.445406 44.088189 
L 229.765084 44.088189 
L 229.765084 42.663002 
L 204.445406 42.663002 
z
" style="fill:#008000;opacity:0.2;"/>
   </g>
   <g id="patch_33">
    <path clip-path="url(#p520d495220)" d="M 206.73121 84.534527 
L 230.116747 84.534527 
L 230.116747 83.109339 
L 206.73121 83.109339 
z
" style="fill:#808080;opacity:0.2;"/>
   </g>
   <g id="patch_34">
    <path clip-path="url(#p520d495220)" d="M 198.291317 93.097682 
L 224.490151 93.097682 
L 224.490151 91.672495 
L 198.291317 91.672495 
z
" style="fill:#808080;opacity:0.2;"/>
   </g>
   <g id="patch_35">
    <path clip-path="url(#p520d495220)" d="M 267.568771 132.076179 
L 288.316841 132.076179 
L 288.316841 130.650991 
L 267.568771 130.650991 
z
" style="fill:#ff0000;opacity:0.2;"/>
   </g>
   <g id="patch_36">
    <path clip-path="url(#p520d495220)" d="M 267.568771 131.4558 
L 288.316841 131.4558 
L 288.316841 130.030613 
L 267.568771 130.030613 
z
" style="fill:#808080;opacity:0.2;"/>
   </g>
   <g id="patch_37">
    <path clip-path="url(#p520d495220)" d="M 267.568771 131.62074 
L 288.316841 131.62074 
L 288.316841 130.195553 
L 267.568771 130.195553 
z
" style="fill:#ff0000;opacity:0.2;"/>
   </g>
   <g id="patch_38">
    <path clip-path="url(#p520d495220)" d="M 267.568771 133.047862 
L 288.316841 133.047862 
L 288.316841 131.622674 
L 267.568771 131.622674 
z
" style="fill:#ff0000;opacity:0.2;"/>
   </g>
   <g id="patch_39">
    <path clip-path="url(#p520d495220)" d="M 267.568771 132.137665 
L 288.316841 132.137665 
L 288.316841 130.712477 
L 267.568771 130.712477 
z
" style="fill:#808080;opacity:0.2;"/>
   </g>
   <g id="patch_40">
    <path clip-path="url(#p520d495220)" d="M 202.159602 112.716883 
L 222.907671 112.716883 
L 222.907671 111.291696 
L 202.159602 111.291696 
z
" style="fill:#808080;opacity:0.2;"/>
   </g>
   <g id="patch_41">
    <path clip-path="url(#p520d495220)" d="M 201.280446 17.923764 
L 228.006773 17.923764 
L 228.006773 16.498577 
L 201.280446 16.498577 
z
" style="fill:#008000;opacity:0.2;"/>
   </g>
   <g id="patch_42">
    <path clip-path="url(#p520d495220)" d="M 287.261855 103.241295 
L 295.350085 103.241295 
L 295.350085 101.816108 
L 287.261855 101.816108 
z
" style="fill:#ff0000;opacity:0.2;"/>
   </g>
   <g id="patch_43">
    <path clip-path="url(#p520d495220)" d="M 275.832833 40.141439 
L 295.350085 40.141439 
L 295.350085 38.716251 
L 275.832833 38.716251 
z
" style="fill:#008000;opacity:0.2;"/>
   </g>
   <g id="patch_44">
    <path clip-path="url(#p520d495220)" d="M 246.469039 121.405034 
L 280.228611 121.405034 
L 280.228611 119.979847 
L 246.469039 119.979847 
z
" style="fill:#ff0000;opacity:0.2;"/>
   </g>
   <g id="patch_45">
    <path clip-path="url(#p520d495220)" d="M 224.490151 62.492309 
L 252.798959 62.492309 
L 252.798959 61.067121 
L 224.490151 61.067121 
z
" style="fill:#008000;opacity:0.2;"/>
   </g>
   <g id="patch_46">
    <path clip-path="url(#p520d495220)" d="M 223.435165 114.157951 
L 246.996532 114.157951 
L 246.996532 112.732764 
L 223.435165 112.732764 
z
" style="fill:#ff0000;opacity:0.2;"/>
   </g>
   <g id="patch_47">
    <path clip-path="url(#p520d495220)" d="M 226.951787 118.191458 
L 254.205608 118.191458 
L 254.205608 116.766271 
L 226.951787 116.766271 
z
" style="fill:#ff0000;opacity:0.2;"/>
   </g>
   <g id="patch_48">
    <path clip-path="url(#p520d495220)" d="M 224.490151 110.845287 
L 252.447297 110.845287 
L 252.447297 109.420099 
L 224.490151 109.420099 
z
" style="fill:#ff0000;opacity:0.2;"/>
   </g>
   <g id="patch_49">
    <path clip-path="url(#p520d495220)" d="M 240.666613 117.176322 
L 273.72286 117.176322 
L 273.72286 115.751135 
L 240.666613 115.751135 
z
" style="fill:#808080;opacity:0.2;"/>
   </g>
   <g id="patch_50">
    <path clip-path="url(#p520d495220)" d="M 196.181344 15.869413 
L 224.490151 15.869413 
L 224.490151 14.444225 
L 196.181344 14.444225 
z
" style="fill:#808080;opacity:0.2;"/>
   </g>
   <g id="patch_51">
    <path clip-path="url(#p520d495220)" d="M 200.049628 28.726969 
L 228.006773 28.726969 
L 228.006773 27.301782 
L 200.049628 27.301782 
z
" style="fill:#008000;opacity:0.2;"/>
   </g>
   <g id="patch_52">
    <path clip-path="url(#p520d495220)" d="M 228.710098 123.302185 
L 256.315581 123.302185 
L 256.315581 121.876998 
L 228.710098 121.876998 
z
" style="fill:#808080;opacity:0.2;"/>
   </g>
   <g id="patch_53">
    <path clip-path="url(#p520d495220)" d="M 230.292578 114.006155 
L 258.777216 114.006155 
L 258.777216 112.580968 
L 230.292578 112.580968 
z
" style="fill:#ff0000;opacity:0.2;"/>
   </g>
   <g id="patch_54">
    <path clip-path="url(#p520d495220)" d="M 215.346934 99.016015 
L 242.776586 99.016015 
L 242.776586 97.590828 
L 215.346934 97.590828 
z
" style="fill:#ff0000;opacity:0.2;"/>
   </g>
   <g id="patch_55">
    <path clip-path="url(#p520d495220)" d="M 218.511894 103.120899 
L 245.765715 103.120899 
L 245.765715 101.695712 
L 218.511894 101.695712 
z
" style="fill:#ff0000;opacity:0.2;"/>
   </g>
   <g id="patch_56">
    <path clip-path="url(#p520d495220)" d="M 213.236961 24.218541 
L 242.073262 24.218541 
L 242.073262 22.793353 
L 213.236961 22.793353 
z
" style="fill:#008000;opacity:0.2;"/>
   </g>
   <g id="patch_57">
    <path clip-path="url(#p520d495220)" d="M 203.214588 24.582185 
L 232.402551 24.582185 
L 232.402551 23.156998 
L 203.214588 23.156998 
z
" style="fill:#008000;opacity:0.2;"/>
   </g>
   <g id="PathCollection_7">
    <defs>
     <path d="M 0 1.581139 
C 0.419323 1.581139 0.821528 1.41454 1.118034 1.118034 
C 1.41454 0.821528 1.581139 0.419323 1.581139 0 
C 1.581139 -0.419323 1.41454 -0.821528 1.118034 -1.118034 
C 0.821528 -1.41454 0.419323 -1.581139 0 -1.581139 
C -0.419323 -1.581139 -0.821528 -1.41454 -1.118034 -1.118034 
C -1.41454 -0.821528 -1.581139 -0.419323 -1.581139 0 
C -1.581139 0.419323 -1.41454 0.821528 -1.118034 1.118034 
C -0.821528 1.41454 -0.419323 1.581139 0 1.581139 
z
" id="mfecd017123" style="stroke:#000000;stroke-width:0.252982;"/>
    </defs>
    <g clip-path="url(#p520d495220)">
     <use style="fill:#008000;stroke:#000000;stroke-width:0.252982;" x="218.336063" xlink:href="#mfecd017123" y="62.311488"/>
     <use style="fill:#008000;stroke:#000000;stroke-width:0.252982;" x="208.31369" xlink:href="#mfecd017123" y="51.564995"/>
     <use style="fill:#008000;stroke:#000000;stroke-width:0.252982;" x="213.764454" xlink:href="#mfecd017123" y="32.928616"/>
     <use style="fill:#008000;stroke:#000000;stroke-width:0.252982;" x="212.006143" xlink:href="#mfecd017123" y="29.547582"/>
     <use style="fill:#008000;stroke:#000000;stroke-width:0.252982;" x="220.270205" xlink:href="#mfecd017123" y="27.721582"/>
     <use style="fill:#008000;stroke:#000000;stroke-width:0.252982;" x="218.687725" xlink:href="#mfecd017123" y="44.088189"/>
     <use style="fill:#008000;stroke:#000000;stroke-width:0.252982;" x="215.874427" xlink:href="#mfecd017123" y="17.923764"/>
     <use style="fill:#008000;stroke:#000000;stroke-width:0.252982;" x="288.668503" xlink:href="#mfecd017123" y="40.141439"/>
     <use style="fill:#008000;stroke:#000000;stroke-width:0.252982;" x="239.787457" xlink:href="#mfecd017123" y="62.492309"/>
     <use style="fill:#008000;stroke:#000000;stroke-width:0.252982;" x="212.357805" xlink:href="#mfecd017123" y="15.869413"/>
     <use style="fill:#008000;stroke:#000000;stroke-width:0.252982;" x="215.171103" xlink:href="#mfecd017123" y="28.726969"/>
     <use style="fill:#008000;stroke:#000000;stroke-width:0.252982;" x="229.06176" xlink:href="#mfecd017123" y="24.218541"/>
     <use style="fill:#008000;stroke:#000000;stroke-width:0.252982;" x="218.687725" xlink:href="#mfecd017123" y="24.582185"/>
    </g>
   </g>
   <g id="PathCollection_8">
    <defs>
     <path d="M 0 1.581139 
C 0.419323 1.581139 0.821528 1.41454 1.118034 1.118034 
C 1.41454 0.821528 1.581139 0.419323 1.581139 0 
C 1.581139 -0.419323 1.41454 -0.821528 1.118034 -1.118034 
C 0.821528 -1.41454 0.419323 -1.581139 0 -1.581139 
C -0.419323 -1.581139 -0.821528 -1.41454 -1.118034 -1.118034 
C -1.41454 -0.821528 -1.581139 -0.419323 -1.581139 0 
C -1.581139 0.419323 -1.41454 0.821528 -1.118034 1.118034 
C -0.821528 1.41454 -0.419323 1.581139 0 1.581139 
z
" id="m68d4a0407b" style="stroke:#000000;stroke-width:0.252982;"/>
    </defs>
    <g clip-path="url(#p520d495220)">
     <use style="fill:#ff0000;stroke:#000000;stroke-width:0.252982;" x="253.502283" xlink:href="#m68d4a0407b" y="118.803075"/>
     <use style="fill:#ff0000;stroke:#000000;stroke-width:0.252982;" x="252.095634" xlink:href="#m68d4a0407b" y="115.435463"/>
     <use style="fill:#ff0000;stroke:#000000;stroke-width:0.252982;" x="252.095634" xlink:href="#m68d4a0407b" y="119.697679"/>
     <use style="fill:#ff0000;stroke:#000000;stroke-width:0.252982;" x="251.743972" xlink:href="#m68d4a0407b" y="99.147733"/>
     <use style="fill:#ff0000;stroke:#000000;stroke-width:0.252982;" x="254.205608" xlink:href="#m68d4a0407b" y="120.983689"/>
     <use style="fill:#ff0000;stroke:#000000;stroke-width:0.252982;" x="254.029776" xlink:href="#m68d4a0407b" y="121.602523"/>
     <use style="fill:#ff0000;stroke:#000000;stroke-width:0.252982;" x="252.623128" xlink:href="#m68d4a0407b" y="118.365039"/>
     <use style="fill:#ff0000;stroke:#000000;stroke-width:0.252982;" x="252.97479" xlink:href="#m68d4a0407b" y="117.202892"/>
     <use style="fill:#ff0000;stroke:#000000;stroke-width:0.252982;" x="229.765084" xlink:href="#m68d4a0407b" y="108.133909"/>
     <use style="fill:#ff0000;stroke:#000000;stroke-width:0.252982;" x="239.963288" xlink:href="#m68d4a0407b" y="114.420727"/>
     <use style="fill:#ff0000;stroke:#000000;stroke-width:0.252982;" x="212.006143" xlink:href="#m68d4a0407b" y="73.667086"/>
     <use style="fill:#ff0000;stroke:#000000;stroke-width:0.252982;" x="247.172363" xlink:href="#m68d4a0407b" y="120.798256"/>
     <use style="fill:#ff0000;stroke:#000000;stroke-width:0.252982;" x="239.084133" xlink:href="#m68d4a0407b" y="110.050039"/>
     <use style="fill:#ff0000;stroke:#000000;stroke-width:0.252982;" x="264.579642" xlink:href="#m68d4a0407b" y="106.038804"/>
     <use style="fill:#ff0000;stroke:#000000;stroke-width:0.252982;" x="259.656372" xlink:href="#m68d4a0407b" y="115.766937"/>
     <use style="fill:#ff0000;stroke:#000000;stroke-width:0.252982;" x="256.491412" xlink:href="#m68d4a0407b" y="104.085921"/>
     <use style="fill:#ff0000;stroke:#000000;stroke-width:0.252982;" x="260.711358" xlink:href="#m68d4a0407b" y="112.471078"/>
     <use style="fill:#ff0000;stroke:#000000;stroke-width:0.252982;" x="260.535527" xlink:href="#m68d4a0407b" y="121.702362"/>
     <use style="fill:#ff0000;stroke:#000000;stroke-width:0.252982;" x="220.270205" xlink:href="#m68d4a0407b" y="84.534527"/>
     <use style="fill:#ff0000;stroke:#000000;stroke-width:0.252982;" x="212.533637" xlink:href="#m68d4a0407b" y="93.097682"/>
     <use style="fill:#ff0000;stroke:#000000;stroke-width:0.252982;" x="280.404442" xlink:href="#m68d4a0407b" y="132.076179"/>
     <use style="fill:#ff0000;stroke:#000000;stroke-width:0.252982;" x="280.404442" xlink:href="#m68d4a0407b" y="131.4558"/>
     <use style="fill:#ff0000;stroke:#000000;stroke-width:0.252982;" x="280.404442" xlink:href="#m68d4a0407b" y="131.62074"/>
     <use style="fill:#ff0000;stroke:#000000;stroke-width:0.252982;" x="280.404442" xlink:href="#m68d4a0407b" y="133.047862"/>
     <use style="fill:#ff0000;stroke:#000000;stroke-width:0.252982;" x="280.404442" xlink:href="#m68d4a0407b" y="132.137665"/>
     <use style="fill:#ff0000;stroke:#000000;stroke-width:0.252982;" x="214.995272" xlink:href="#m68d4a0407b" y="112.716883"/>
     <use style="fill:#ff0000;stroke:#000000;stroke-width:0.252982;" x="294.119268" xlink:href="#m68d4a0407b" y="103.241295"/>
     <use style="fill:#ff0000;stroke:#000000;stroke-width:0.252982;" x="263.524656" xlink:href="#m68d4a0407b" y="121.405034"/>
     <use style="fill:#ff0000;stroke:#000000;stroke-width:0.252982;" x="237.149991" xlink:href="#m68d4a0407b" y="114.157951"/>
     <use style="fill:#ff0000;stroke:#000000;stroke-width:0.252982;" x="242.073262" xlink:href="#m68d4a0407b" y="118.191458"/>
     <use style="fill:#ff0000;stroke:#000000;stroke-width:0.252982;" x="239.259964" xlink:href="#m68d4a0407b" y="110.845287"/>
     <use style="fill:#ff0000;stroke:#000000;stroke-width:0.252982;" x="258.073892" xlink:href="#m68d4a0407b" y="117.176322"/>
     <use style="fill:#ff0000;stroke:#000000;stroke-width:0.252982;" x="243.831573" xlink:href="#m68d4a0407b" y="123.302185"/>
     <use style="fill:#ff0000;stroke:#000000;stroke-width:0.252982;" x="245.941546" xlink:href="#m68d4a0407b" y="114.006155"/>
     <use style="fill:#ff0000;stroke:#000000;stroke-width:0.252982;" x="229.765084" xlink:href="#m68d4a0407b" y="99.016015"/>
     <use style="fill:#ff0000;stroke:#000000;stroke-width:0.252982;" x="233.985031" xlink:href="#m68d4a0407b" y="103.120899"/>
    </g>
   </g>
   <g id="PathCollection_9">
    <g clip-path="url(#p520d495220)">
     <use style="fill:#808080;stroke:#000000;stroke-width:0.252982;" x="220.270205" xlink:href="#mc2fc614be4" y="84.534527"/>
     <use style="fill:#808080;stroke:#000000;stroke-width:0.252982;" x="212.533637" xlink:href="#mc2fc614be4" y="93.097682"/>
     <use style="fill:#808080;stroke:#000000;stroke-width:0.252982;" x="280.404442" xlink:href="#mc2fc614be4" y="132.076179"/>
     <use style="fill:#808080;stroke:#000000;stroke-width:0.252982;" x="280.404442" xlink:href="#mc2fc614be4" y="131.4558"/>
     <use style="fill:#808080;stroke:#000000;stroke-width:0.252982;" x="280.404442" xlink:href="#mc2fc614be4" y="131.62074"/>
     <use style="fill:#808080;stroke:#000000;stroke-width:0.252982;" x="280.404442" xlink:href="#mc2fc614be4" y="133.047862"/>
     <use style="fill:#808080;stroke:#000000;stroke-width:0.252982;" x="280.404442" xlink:href="#mc2fc614be4" y="132.137665"/>
     <use style="fill:#808080;stroke:#000000;stroke-width:0.252982;" x="214.995272" xlink:href="#mc2fc614be4" y="112.716883"/>
     <use style="fill:#808080;stroke:#000000;stroke-width:0.252982;" x="258.073892" xlink:href="#mc2fc614be4" y="117.176322"/>
     <use style="fill:#808080;stroke:#000000;stroke-width:0.252982;" x="212.357805" xlink:href="#mc2fc614be4" y="15.869413"/>
     <use style="fill:#808080;stroke:#000000;stroke-width:0.252982;" x="215.171103" xlink:href="#mc2fc614be4" y="28.726969"/>
     <use style="fill:#808080;stroke:#000000;stroke-width:0.252982;" x="243.831573" xlink:href="#mc2fc614be4" y="123.302185"/>
     <use style="fill:#808080;stroke:#000000;stroke-width:0.252982;" x="245.941546" xlink:href="#mc2fc614be4" y="114.006155"/>
     <use style="fill:#808080;stroke:#000000;stroke-width:0.252982;" x="218.687725" xlink:href="#mc2fc614be4" y="24.582185"/>
    </g>
   </g>
   <g id="matplotlib.axis_3">
    <g id="xtick_6">
     <g id="line2d_14">
      <g>
       <use style="stroke:#000000;stroke-width:0.8;" x="206.379548" xlink:href="#mb70397b6a4" y="138.978043"/>
      </g>
     </g>
     <g id="text_17">
      <!-- 1300 -->
      <g transform="translate(200.017048 149.777262)scale(0.05 -0.05)">
       <defs>
        <path d="M 40.578125 39.3125 
Q 47.65625 37.796875 51.625 33 
Q 55.609375 28.21875 55.609375 21.1875 
Q 55.609375 10.40625 48.1875 4.484375 
Q 40.765625 -1.421875 27.09375 -1.421875 
Q 22.515625 -1.421875 17.65625 -0.515625 
Q 12.796875 0.390625 7.625 2.203125 
L 7.625 11.71875 
Q 11.71875 9.328125 16.59375 8.109375 
Q 21.484375 6.890625 26.8125 6.890625 
Q 36.078125 6.890625 40.9375 10.546875 
Q 45.796875 14.203125 45.796875 21.1875 
Q 45.796875 27.640625 41.28125 31.265625 
Q 36.765625 34.90625 28.71875 34.90625 
L 20.21875 34.90625 
L 20.21875 43.015625 
L 29.109375 43.015625 
Q 36.375 43.015625 40.234375 45.921875 
Q 44.09375 48.828125 44.09375 54.296875 
Q 44.09375 59.90625 40.109375 62.90625 
Q 36.140625 65.921875 28.71875 65.921875 
Q 24.65625 65.921875 20.015625 65.03125 
Q 15.375 64.15625 9.8125 62.3125 
L 9.8125 71.09375 
Q 15.4375 72.65625 20.34375 73.4375 
Q 25.25 74.21875 29.59375 74.21875 
Q 40.828125 74.21875 47.359375 69.109375 
Q 53.90625 64.015625 53.90625 55.328125 
Q 53.90625 49.265625 50.4375 45.09375 
Q 46.96875 40.921875 40.578125 39.3125 
z
" id="DejaVuSans-51"/>
       </defs>
       <use xlink:href="#DejaVuSans-49"/>
       <use x="63.623047" xlink:href="#DejaVuSans-51"/>
       <use x="127.246094" xlink:href="#DejaVuSans-48"/>
       <use x="190.869141" xlink:href="#DejaVuSans-48"/>
      </g>
     </g>
    </g>
    <g id="xtick_7">
     <g id="line2d_15">
      <g>
       <use style="stroke:#000000;stroke-width:0.8;" x="223.962658" xlink:href="#mb70397b6a4" y="138.978043"/>
      </g>
     </g>
     <g id="text_18">
      <!-- 1400 -->
      <g transform="translate(217.600158 149.777262)scale(0.05 -0.05)">
       <defs>
        <path d="M 37.796875 64.3125 
L 12.890625 25.390625 
L 37.796875 25.390625 
z
M 35.203125 72.90625 
L 47.609375 72.90625 
L 47.609375 25.390625 
L 58.015625 25.390625 
L 58.015625 17.1875 
L 47.609375 17.1875 
L 47.609375 0 
L 37.796875 0 
L 37.796875 17.1875 
L 4.890625 17.1875 
L 4.890625 26.703125 
z
" id="DejaVuSans-52"/>
       </defs>
       <use xlink:href="#DejaVuSans-49"/>
       <use x="63.623047" xlink:href="#DejaVuSans-52"/>
       <use x="127.246094" xlink:href="#DejaVuSans-48"/>
       <use x="190.869141" xlink:href="#DejaVuSans-48"/>
      </g>
     </g>
    </g>
    <g id="xtick_8">
     <g id="line2d_16">
      <g>
       <use style="stroke:#000000;stroke-width:0.8;" x="241.545768" xlink:href="#mb70397b6a4" y="138.978043"/>
      </g>
     </g>
     <g id="text_19">
      <!-- 1500 -->
      <g transform="translate(235.183268 149.777262)scale(0.05 -0.05)">
       <use xlink:href="#DejaVuSans-49"/>
       <use x="63.623047" xlink:href="#DejaVuSans-53"/>
       <use x="127.246094" xlink:href="#DejaVuSans-48"/>
       <use x="190.869141" xlink:href="#DejaVuSans-48"/>
      </g>
     </g>
    </g>
    <g id="xtick_9">
     <g id="line2d_17">
      <g>
       <use style="stroke:#000000;stroke-width:0.8;" x="259.128878" xlink:href="#mb70397b6a4" y="138.978043"/>
      </g>
     </g>
     <g id="text_20">
      <!-- 1600 -->
      <g transform="translate(252.766378 149.777262)scale(0.05 -0.05)">
       <defs>
        <path d="M 33.015625 40.375 
Q 26.375 40.375 22.484375 35.828125 
Q 18.609375 31.296875 18.609375 23.390625 
Q 18.609375 15.53125 22.484375 10.953125 
Q 26.375 6.390625 33.015625 6.390625 
Q 39.65625 6.390625 43.53125 10.953125 
Q 47.40625 15.53125 47.40625 23.390625 
Q 47.40625 31.296875 43.53125 35.828125 
Q 39.65625 40.375 33.015625 40.375 
z
M 52.59375 71.296875 
L 52.59375 62.3125 
Q 48.875 64.0625 45.09375 64.984375 
Q 41.3125 65.921875 37.59375 65.921875 
Q 27.828125 65.921875 22.671875 59.328125 
Q 17.53125 52.734375 16.796875 39.40625 
Q 19.671875 43.65625 24.015625 45.921875 
Q 28.375 48.1875 33.59375 48.1875 
Q 44.578125 48.1875 50.953125 41.515625 
Q 57.328125 34.859375 57.328125 23.390625 
Q 57.328125 12.15625 50.6875 5.359375 
Q 44.046875 -1.421875 33.015625 -1.421875 
Q 20.359375 -1.421875 13.671875 8.265625 
Q 6.984375 17.96875 6.984375 36.375 
Q 6.984375 53.65625 15.1875 63.9375 
Q 23.390625 74.21875 37.203125 74.21875 
Q 40.921875 74.21875 44.703125 73.484375 
Q 48.484375 72.75 52.59375 71.296875 
z
" id="DejaVuSans-54"/>
       </defs>
       <use xlink:href="#DejaVuSans-49"/>
       <use x="63.623047" xlink:href="#DejaVuSans-54"/>
       <use x="127.246094" xlink:href="#DejaVuSans-48"/>
       <use x="190.869141" xlink:href="#DejaVuSans-48"/>
      </g>
     </g>
    </g>
    <g id="xtick_10">
     <g id="line2d_18">
      <g>
       <use style="stroke:#000000;stroke-width:0.8;" x="276.711988" xlink:href="#mb70397b6a4" y="138.978043"/>
      </g>
     </g>
     <g id="text_21">
      <!-- 1700 -->
      <g transform="translate(270.349488 149.777262)scale(0.05 -0.05)">
       <defs>
        <path d="M 8.203125 72.90625 
L 55.078125 72.90625 
L 55.078125 68.703125 
L 28.609375 0 
L 18.3125 0 
L 43.21875 64.59375 
L 8.203125 64.59375 
z
" id="DejaVuSans-55"/>
       </defs>
       <use xlink:href="#DejaVuSans-49"/>
       <use x="63.623047" xlink:href="#DejaVuSans-55"/>
       <use x="127.246094" xlink:href="#DejaVuSans-48"/>
       <use x="190.869141" xlink:href="#DejaVuSans-48"/>
      </g>
     </g>
    </g>
    <g id="xtick_11">
     <g id="line2d_19">
      <g>
       <use style="stroke:#000000;stroke-width:0.8;" x="294.295099" xlink:href="#mb70397b6a4" y="138.978043"/>
      </g>
     </g>
     <g id="text_22">
      <!-- 1800 -->
      <g transform="translate(287.932599 149.777262)scale(0.05 -0.05)">
       <defs>
        <path d="M 31.78125 34.625 
Q 24.75 34.625 20.71875 30.859375 
Q 16.703125 27.09375 16.703125 20.515625 
Q 16.703125 13.921875 20.71875 10.15625 
Q 24.75 6.390625 31.78125 6.390625 
Q 38.8125 6.390625 42.859375 10.171875 
Q 46.921875 13.96875 46.921875 20.515625 
Q 46.921875 27.09375 42.890625 30.859375 
Q 38.875 34.625 31.78125 34.625 
z
M 21.921875 38.8125 
Q 15.578125 40.375 12.03125 44.71875 
Q 8.5 49.078125 8.5 55.328125 
Q 8.5 64.0625 14.71875 69.140625 
Q 20.953125 74.21875 31.78125 74.21875 
Q 42.671875 74.21875 48.875 69.140625 
Q 55.078125 64.0625 55.078125 55.328125 
Q 55.078125 49.078125 51.53125 44.71875 
Q 48 40.375 41.703125 38.8125 
Q 48.828125 37.15625 52.796875 32.3125 
Q 56.78125 27.484375 56.78125 20.515625 
Q 56.78125 9.90625 50.3125 4.234375 
Q 43.84375 -1.421875 31.78125 -1.421875 
Q 19.734375 -1.421875 13.25 4.234375 
Q 6.78125 9.90625 6.78125 20.515625 
Q 6.78125 27.484375 10.78125 32.3125 
Q 14.796875 37.15625 21.921875 38.8125 
z
M 18.3125 54.390625 
Q 18.3125 48.734375 21.84375 45.5625 
Q 25.390625 42.390625 31.78125 42.390625 
Q 38.140625 42.390625 41.71875 45.5625 
Q 45.3125 48.734375 45.3125 54.390625 
Q 45.3125 60.0625 41.71875 63.234375 
Q 38.140625 66.40625 31.78125 66.40625 
Q 25.390625 66.40625 21.84375 63.234375 
Q 18.3125 60.0625 18.3125 54.390625 
z
" id="DejaVuSans-56"/>
       </defs>
       <use xlink:href="#DejaVuSans-49"/>
       <use x="63.623047" xlink:href="#DejaVuSans-56"/>
       <use x="127.246094" xlink:href="#DejaVuSans-48"/>
       <use x="190.869141" xlink:href="#DejaVuSans-48"/>
      </g>
     </g>
    </g>
    <g id="text_23">
     <!-- Date -->
     <g transform="translate(238.647422 158.616325)scale(0.05 -0.05)">
      <use xlink:href="#DejaVuSans-68"/>
      <use x="77.001953" xlink:href="#DejaVuSans-97"/>
      <use x="138.28125" xlink:href="#DejaVuSans-116"/>
      <use x="177.490234" xlink:href="#DejaVuSans-101"/>
     </g>
    </g>
   </g>
   <g id="matplotlib.axis_4">
    <g id="ytick_7">
     <g id="line2d_20">
      <g>
       <use style="stroke:#000000;stroke-width:0.8;" x="188.822812" xlink:href="#md8e63dba3f" y="133.803513"/>
      </g>
     </g>
     <g id="text_24">
      <!-- 0.00 -->
      <g transform="translate(170.69 135.703122)scale(0.05 -0.05)">
       <defs>
        <path d="M 10.6875 12.40625 
L 21 12.40625 
L 21 0 
L 10.6875 0 
z
" id="DejaVuSans-46"/>
       </defs>
       <use xlink:href="#DejaVuSans-48"/>
       <use x="63.623047" xlink:href="#DejaVuSans-46"/>
       <use x="95.410156" xlink:href="#DejaVuSans-48"/>
       <use x="159.033203" xlink:href="#DejaVuSans-48"/>
      </g>
     </g>
    </g>
    <g id="ytick_8">
     <g id="line2d_21">
      <g>
       <use style="stroke:#000000;stroke-width:0.8;" x="188.822812" xlink:href="#md8e63dba3f" y="115.98867"/>
      </g>
     </g>
     <g id="text_25">
      <!-- 0.25 -->
      <g transform="translate(170.69 117.888279)scale(0.05 -0.05)">
       <use xlink:href="#DejaVuSans-48"/>
       <use x="63.623047" xlink:href="#DejaVuSans-46"/>
       <use x="95.410156" xlink:href="#DejaVuSans-50"/>
       <use x="159.033203" xlink:href="#DejaVuSans-53"/>
      </g>
     </g>
    </g>
    <g id="ytick_9">
     <g id="line2d_22">
      <g>
       <use style="stroke:#000000;stroke-width:0.8;" x="188.822812" xlink:href="#md8e63dba3f" y="98.173826"/>
      </g>
     </g>
     <g id="text_26">
      <!-- 0.50 -->
      <g transform="translate(170.69 100.073436)scale(0.05 -0.05)">
       <use xlink:href="#DejaVuSans-48"/>
       <use x="63.623047" xlink:href="#DejaVuSans-46"/>
       <use x="95.410156" xlink:href="#DejaVuSans-53"/>
       <use x="159.033203" xlink:href="#DejaVuSans-48"/>
      </g>
     </g>
    </g>
    <g id="ytick_10">
     <g id="line2d_23">
      <g>
       <use style="stroke:#000000;stroke-width:0.8;" x="188.822812" xlink:href="#md8e63dba3f" y="80.358983"/>
      </g>
     </g>
     <g id="text_27">
      <!-- 0.75 -->
      <g transform="translate(170.69 82.258592)scale(0.05 -0.05)">
       <use xlink:href="#DejaVuSans-48"/>
       <use x="63.623047" xlink:href="#DejaVuSans-46"/>
       <use x="95.410156" xlink:href="#DejaVuSans-55"/>
       <use x="159.033203" xlink:href="#DejaVuSans-53"/>
      </g>
     </g>
    </g>
    <g id="ytick_11">
     <g id="line2d_24">
      <g>
       <use style="stroke:#000000;stroke-width:0.8;" x="188.822812" xlink:href="#md8e63dba3f" y="62.544139"/>
      </g>
     </g>
     <g id="text_28">
      <!-- 1.00 -->
      <g transform="translate(170.69 64.443749)scale(0.05 -0.05)">
       <use xlink:href="#DejaVuSans-49"/>
       <use x="63.623047" xlink:href="#DejaVuSans-46"/>
       <use x="95.410156" xlink:href="#DejaVuSans-48"/>
       <use x="159.033203" xlink:href="#DejaVuSans-48"/>
      </g>
     </g>
    </g>
    <g id="ytick_12">
     <g id="line2d_25">
      <g>
       <use style="stroke:#000000;stroke-width:0.8;" x="188.822812" xlink:href="#md8e63dba3f" y="44.729296"/>
      </g>
     </g>
     <g id="text_29">
      <!-- 1.25 -->
      <g transform="translate(170.69 46.628905)scale(0.05 -0.05)">
       <use xlink:href="#DejaVuSans-49"/>
       <use x="63.623047" xlink:href="#DejaVuSans-46"/>
       <use x="95.410156" xlink:href="#DejaVuSans-50"/>
       <use x="159.033203" xlink:href="#DejaVuSans-53"/>
      </g>
     </g>
    </g>
    <g id="ytick_13">
     <g id="line2d_26">
      <g>
       <use style="stroke:#000000;stroke-width:0.8;" x="188.822812" xlink:href="#md8e63dba3f" y="26.914453"/>
      </g>
     </g>
     <g id="text_30">
      <!-- 1.50 -->
      <g transform="translate(170.69 28.814062)scale(0.05 -0.05)">
       <use xlink:href="#DejaVuSans-49"/>
       <use x="63.623047" xlink:href="#DejaVuSans-46"/>
       <use x="95.410156" xlink:href="#DejaVuSans-53"/>
       <use x="159.033203" xlink:href="#DejaVuSans-48"/>
      </g>
     </g>
    </g>
    <g id="ytick_14">
     <g id="line2d_27">
      <g>
       <use style="stroke:#000000;stroke-width:0.8;" x="188.822812" xlink:href="#md8e63dba3f" y="9.099609"/>
      </g>
     </g>
     <g id="text_31">
      <!-- 1.75 -->
      <g transform="translate(170.69 10.999219)scale(0.05 -0.05)">
       <use xlink:href="#DejaVuSans-49"/>
       <use x="63.623047" xlink:href="#DejaVuSans-46"/>
       <use x="95.410156" xlink:href="#DejaVuSans-55"/>
       <use x="159.033203" xlink:href="#DejaVuSans-53"/>
      </g>
     </g>
    </g>
    <g id="text_32">
     <!-- pla Depth / pPCP1 Depth -->
     <g transform="translate(165.650156 104.747996)rotate(-90)scale(0.05 -0.05)">
      <defs>
       <path d="M 25.390625 72.90625 
L 33.6875 72.90625 
L 8.296875 -9.28125 
L 0 -9.28125 
z
" id="DejaVuSans-47"/>
      </defs>
      <use xlink:href="#DejaVuSans-112"/>
      <use x="63.476562" xlink:href="#DejaVuSans-108"/>
      <use x="91.259766" xlink:href="#DejaVuSans-97"/>
      <use x="152.539062" xlink:href="#DejaVuSans-32"/>
      <use x="184.326172" xlink:href="#DejaVuSans-68"/>
      <use x="261.328125" xlink:href="#DejaVuSans-101"/>
      <use x="322.851562" xlink:href="#DejaVuSans-112"/>
      <use x="386.328125" xlink:href="#DejaVuSans-116"/>
      <use x="425.537109" xlink:href="#DejaVuSans-104"/>
      <use x="488.916016" xlink:href="#DejaVuSans-32"/>
      <use x="520.703125" xlink:href="#DejaVuSans-47"/>
      <use x="554.394531" xlink:href="#DejaVuSans-32"/>
      <use x="586.181641" xlink:href="#DejaVuSans-112"/>
      <use x="649.658203" xlink:href="#DejaVuSans-80"/>
      <use x="709.960938" xlink:href="#DejaVuSans-67"/>
      <use x="779.785156" xlink:href="#DejaVuSans-80"/>
      <use x="840.087891" xlink:href="#DejaVuSans-49"/>
      <use x="903.710938" xlink:href="#DejaVuSans-32"/>
      <use x="935.498047" xlink:href="#DejaVuSans-68"/>
      <use x="1012.5" xlink:href="#DejaVuSans-101"/>
      <use x="1074.023438" xlink:href="#DejaVuSans-112"/>
      <use x="1137.5" xlink:href="#DejaVuSans-116"/>
      <use x="1176.708984" xlink:href="#DejaVuSans-104"/>
     </g>
    </g>
   </g>
   <g id="patch_58">
    <path d="M 188.822812 138.978043 
L 188.822812 8.514043 
" style="fill:none;stroke:#000000;stroke-linecap:square;stroke-linejoin:miter;stroke-width:0.8;"/>
   </g>
   <g id="patch_59">
    <path d="M 300.422813 138.978043 
L 300.422813 8.514043 
" style="fill:none;stroke:#000000;stroke-linecap:square;stroke-linejoin:miter;stroke-width:0.8;"/>
   </g>
   <g id="patch_60">
    <path d="M 188.822812 138.978043 
L 300.422813 138.978043 
" style="fill:none;stroke:#000000;stroke-linecap:square;stroke-linejoin:miter;stroke-width:0.8;"/>
   </g>
   <g id="patch_61">
    <path d="M 188.822812 8.514043 
L 300.422813 8.514043 
" style="fill:none;stroke:#000000;stroke-linecap:square;stroke-linejoin:miter;stroke-width:0.8;"/>
   </g>
  </g>
 </g>
 <defs>
  <clipPath id="p84cfdf944d">
   <rect height="130.464" width="111.6" x="32.582813" y="8.514043"/>
  </clipPath>
  <clipPath id="p520d495220">
   <rect height="130.464" width="111.6" x="188.822812" y="8.514043"/>
  </clipPath>
 </defs>
</svg>
