<?xml version="1.0" encoding="utf-8" standalone="no"?>
<!DOCTYPE svg PUBLIC "-//W3C//DTD SVG 1.1//EN"
  "http://www.w3.org/Graphics/SVG/1.1/DTD/svg11.dtd">
<!-- Created with matplotlib (https://matplotlib.org/) -->
<svg height="189.147587pt" version="1.1" viewBox="0 0 182.536919 189.147587" width="182.536919pt" xmlns="http://www.w3.org/2000/svg" xmlns:xlink="http://www.w3.org/1999/xlink">
 <metadata>
  <rdf:RDF xmlns:cc="http://creativecommons.org/ns#" xmlns:dc="http://purl.org/dc/elements/1.1/" xmlns:rdf="http://www.w3.org/1999/02/22-rdf-syntax-ns#">
   <cc:Work>
    <dc:type rdf:resource="http://purl.org/dc/dcmitype/StillImage"/>
    <dc:date>2021-07-16T14:23:13.666088</dc:date>
    <dc:format>image/svg+xml</dc:format>
    <dc:creator>
     <cc:Agent>
      <dc:title>Matplotlib v3.3.2, https://matplotlib.org/</dc:title>
     </cc:Agent>
    </dc:creator>
   </cc:Work>
  </rdf:RDF>
 </metadata>
 <defs>
  <style type="text/css">*{stroke-linecap:butt;stroke-linejoin:round;}</style>
 </defs>
 <g id="figure_1">
  <g id="patch_1">
   <path d="M 0 189.147587 
L 182.536919 189.147587 
L 182.536919 0 
L 0 0 
z
" style="fill:none;"/>
  </g>
  <g id="axes_1">
   <g id="patch_2">
    <path d="M 38.003125 161.269462 
L 171.923125 161.269462 
L 171.923125 30.805463 
L 38.003125 30.805463 
z
" style="fill:#ffffff;"/>
   </g>
   <g id="PolyCollection_1">
    <path clip-path="url(#p2056c48334)" d="M 44.090398 155.339281 
L 44.090398 154.021108 
L 45.32015 153.761171 
L 46.549902 153.456902 
L 47.779654 153.1022 
L 49.009406 152.690408 
L 50.239158 152.214314 
L 51.46891 151.666167 
L 52.698662 151.037699 
L 53.928414 150.32017 
L 55.158166 149.504425 
L 56.387918 148.580967 
L 57.61767 147.540058 
L 58.847423 146.371828 
L 60.077175 145.066414 
L 61.306927 143.614114 
L 62.536679 142.005565 
L 63.766431 140.231935 
L 64.996183 138.285137 
L 66.225935 136.15805 
L 67.455687 133.844758 
L 68.685439 131.340788 
L 69.915191 128.643361 
L 71.144943 125.75162 
L 72.374695 122.666872 
L 73.604447 119.392792 
L 74.834199 115.935618 
L 76.063951 112.304311 
L 77.293704 108.510676 
L 78.523456 104.56945 
L 79.753208 100.498325 
L 80.98296 96.317935 
L 82.212712 92.051772 
L 83.442464 87.726051 
L 84.672216 83.369502 
L 85.901968 79.013116 
L 87.13172 74.689812 
L 88.361472 70.434064 
L 89.591224 66.281465 
L 90.820976 62.268256 
L 92.050728 58.430809 
L 93.28048 54.805088 
L 94.510232 51.426101 
L 95.739985 48.327332 
L 96.969737 45.5402 
L 98.199489 43.093523 
L 99.429241 41.013031 
L 100.658993 39.320906 
L 101.888745 38.035397 
L 103.118497 37.170488 
L 104.348249 36.735644 
L 105.578001 36.735644 
L 106.807753 37.170488 
L 108.037505 38.035397 
L 109.267257 39.320906 
L 110.497009 41.013031 
L 111.726761 43.093523 
L 112.956513 45.5402 
L 114.186265 48.327332 
L 115.416018 51.426101 
L 116.64577 54.805088 
L 117.875522 58.430809 
L 119.105274 62.268256 
L 120.335026 66.281465 
L 121.564778 70.434064 
L 122.79453 74.689812 
L 124.024282 79.013116 
L 125.254034 83.369502 
L 126.483786 87.726051 
L 127.713538 92.051772 
L 128.94329 96.317935 
L 130.173042 100.498325 
L 131.402794 104.56945 
L 132.632546 108.510676 
L 133.862299 112.304311 
L 135.092051 115.935618 
L 136.321803 119.392792 
L 137.551555 122.666872 
L 138.781307 125.75162 
L 140.011059 128.643361 
L 141.240811 131.340788 
L 142.470563 133.844758 
L 143.700315 136.15805 
L 144.930067 138.285137 
L 146.159819 140.231935 
L 147.389571 142.005565 
L 148.619323 143.614114 
L 149.849075 145.066414 
L 151.078827 146.371828 
L 152.30858 147.540058 
L 153.538332 148.580967 
L 154.768084 149.504425 
L 155.997836 150.32017 
L 157.227588 151.037699 
L 158.45734 151.666167 
L 159.687092 152.214314 
L 160.916844 152.690408 
L 162.146596 153.1022 
L 163.376348 153.456902 
L 164.6061 153.761171 
L 165.835852 154.021108 
L 165.835852 155.339281 
L 165.835852 155.339281 
L 164.6061 155.339281 
L 163.376348 155.339281 
L 162.146596 155.339281 
L 160.916844 155.339281 
L 159.687092 155.339281 
L 158.45734 155.339281 
L 157.227588 155.339281 
L 155.997836 155.339281 
L 154.768084 155.339281 
L 153.538332 155.339281 
L 152.30858 155.339281 
L 151.078827 155.339281 
L 149.849075 155.339281 
L 148.619323 155.339281 
L 147.389571 155.339281 
L 146.159819 155.339281 
L 144.930067 155.339281 
L 143.700315 155.339281 
L 142.470563 155.339281 
L 141.240811 155.339281 
L 140.011059 155.339281 
L 138.781307 155.339281 
L 137.551555 155.339281 
L 136.321803 155.339281 
L 135.092051 155.339281 
L 133.862299 155.339281 
L 132.632546 155.339281 
L 131.402794 155.339281 
L 130.173042 155.339281 
L 128.94329 155.339281 
L 127.713538 155.339281 
L 126.483786 155.339281 
L 125.254034 155.339281 
L 124.024282 155.339281 
L 122.79453 155.339281 
L 121.564778 155.339281 
L 120.335026 155.339281 
L 119.105274 155.339281 
L 117.875522 155.339281 
L 116.64577 155.339281 
L 115.416018 155.339281 
L 114.186265 155.339281 
L 112.956513 155.339281 
L 111.726761 155.339281 
L 110.497009 155.339281 
L 109.267257 155.339281 
L 108.037505 155.339281 
L 106.807753 155.339281 
L 105.578001 155.339281 
L 104.348249 155.339281 
L 103.118497 155.339281 
L 101.888745 155.339281 
L 100.658993 155.339281 
L 99.429241 155.339281 
L 98.199489 155.339281 
L 96.969737 155.339281 
L 95.739985 155.339281 
L 94.510232 155.339281 
L 93.28048 155.339281 
L 92.050728 155.339281 
L 90.820976 155.339281 
L 89.591224 155.339281 
L 88.361472 155.339281 
L 87.13172 155.339281 
L 85.901968 155.339281 
L 84.672216 155.339281 
L 83.442464 155.339281 
L 82.212712 155.339281 
L 80.98296 155.339281 
L 79.753208 155.339281 
L 78.523456 155.339281 
L 77.293704 155.339281 
L 76.063951 155.339281 
L 74.834199 155.339281 
L 73.604447 155.339281 
L 72.374695 155.339281 
L 71.144943 155.339281 
L 69.915191 155.339281 
L 68.685439 155.339281 
L 67.455687 155.339281 
L 66.225935 155.339281 
L 64.996183 155.339281 
L 63.766431 155.339281 
L 62.536679 155.339281 
L 61.306927 155.339281 
L 60.077175 155.339281 
L 58.847423 155.339281 
L 57.61767 155.339281 
L 56.387918 155.339281 
L 55.158166 155.339281 
L 53.928414 155.339281 
L 52.698662 155.339281 
L 51.46891 155.339281 
L 50.239158 155.339281 
L 49.009406 155.339281 
L 47.779654 155.339281 
L 46.549902 155.339281 
L 45.32015 155.339281 
L 44.090398 155.339281 
z
" style="fill:#1f77b4;fill-opacity:0.25;"/>
   </g>
   <g id="matplotlib.axis_1">
    <g id="xtick_1">
     <g id="line2d_1">
      <defs>
       <path d="M 0 0 
L 0 3.5 
" id="m927407c83e" style="stroke:#000000;stroke-width:0.8;"/>
      </defs>
      <g>
       <use style="stroke:#000000;stroke-width:0.8;" x="46.737038" xlink:href="#m927407c83e" y="161.269462"/>
      </g>
     </g>
     <g id="text_1">
      <!-- 1000 -->
      <g transform="translate(41.647038 171.308837)scale(0.04 -0.04)">
       <defs>
        <path d="M 12.40625 8.296875 
L 28.515625 8.296875 
L 28.515625 63.921875 
L 10.984375 60.40625 
L 10.984375 69.390625 
L 28.421875 72.90625 
L 38.28125 72.90625 
L 38.28125 8.296875 
L 54.390625 8.296875 
L 54.390625 0 
L 12.40625 0 
z
" id="DejaVuSans-49"/>
        <path d="M 31.78125 66.40625 
Q 24.171875 66.40625 20.328125 58.90625 
Q 16.5 51.421875 16.5 36.375 
Q 16.5 21.390625 20.328125 13.890625 
Q 24.171875 6.390625 31.78125 6.390625 
Q 39.453125 6.390625 43.28125 13.890625 
Q 47.125 21.390625 47.125 36.375 
Q 47.125 51.421875 43.28125 58.90625 
Q 39.453125 66.40625 31.78125 66.40625 
z
M 31.78125 74.21875 
Q 44.046875 74.21875 50.515625 64.515625 
Q 56.984375 54.828125 56.984375 36.375 
Q 56.984375 17.96875 50.515625 8.265625 
Q 44.046875 -1.421875 31.78125 -1.421875 
Q 19.53125 -1.421875 13.0625 8.265625 
Q 6.59375 17.96875 6.59375 36.375 
Q 6.59375 54.828125 13.0625 64.515625 
Q 19.53125 74.21875 31.78125 74.21875 
z
" id="DejaVuSans-48"/>
       </defs>
       <use xlink:href="#DejaVuSans-49"/>
       <use x="63.623047" xlink:href="#DejaVuSans-48"/>
       <use x="127.246094" xlink:href="#DejaVuSans-48"/>
       <use x="190.869141" xlink:href="#DejaVuSans-48"/>
      </g>
     </g>
    </g>
    <g id="xtick_2">
     <g id="line2d_2">
      <g>
       <use style="stroke:#000000;stroke-width:0.8;" x="64.381307" xlink:href="#m927407c83e" y="161.269462"/>
      </g>
     </g>
     <g id="text_2">
      <!-- 1100 -->
      <g transform="translate(59.291307 171.308837)scale(0.04 -0.04)">
       <use xlink:href="#DejaVuSans-49"/>
       <use x="63.623047" xlink:href="#DejaVuSans-49"/>
       <use x="127.246094" xlink:href="#DejaVuSans-48"/>
       <use x="190.869141" xlink:href="#DejaVuSans-48"/>
      </g>
     </g>
    </g>
    <g id="xtick_3">
     <g id="line2d_3">
      <g>
       <use style="stroke:#000000;stroke-width:0.8;" x="82.025576" xlink:href="#m927407c83e" y="161.269462"/>
      </g>
     </g>
     <g id="text_3">
      <!-- 1200 -->
      <g transform="translate(76.935576 171.308837)scale(0.04 -0.04)">
       <defs>
        <path d="M 19.1875 8.296875 
L 53.609375 8.296875 
L 53.609375 0 
L 7.328125 0 
L 7.328125 8.296875 
Q 12.9375 14.109375 22.625 23.890625 
Q 32.328125 33.6875 34.8125 36.53125 
Q 39.546875 41.84375 41.421875 45.53125 
Q 43.3125 49.21875 43.3125 52.78125 
Q 43.3125 58.59375 39.234375 62.25 
Q 35.15625 65.921875 28.609375 65.921875 
Q 23.96875 65.921875 18.8125 64.3125 
Q 13.671875 62.703125 7.8125 59.421875 
L 7.8125 69.390625 
Q 13.765625 71.78125 18.9375 73 
Q 24.125 74.21875 28.421875 74.21875 
Q 39.75 74.21875 46.484375 68.546875 
Q 53.21875 62.890625 53.21875 53.421875 
Q 53.21875 48.921875 51.53125 44.890625 
Q 49.859375 40.875 45.40625 35.40625 
Q 44.1875 33.984375 37.640625 27.21875 
Q 31.109375 20.453125 19.1875 8.296875 
z
" id="DejaVuSans-50"/>
       </defs>
       <use xlink:href="#DejaVuSans-49"/>
       <use x="63.623047" xlink:href="#DejaVuSans-50"/>
       <use x="127.246094" xlink:href="#DejaVuSans-48"/>
       <use x="190.869141" xlink:href="#DejaVuSans-48"/>
      </g>
     </g>
    </g>
    <g id="xtick_4">
     <g id="line2d_4">
      <g>
       <use style="stroke:#000000;stroke-width:0.8;" x="99.669844" xlink:href="#m927407c83e" y="161.269462"/>
      </g>
     </g>
     <g id="text_4">
      <!-- 1300 -->
      <g transform="translate(94.579844 171.308837)scale(0.04 -0.04)">
       <defs>
        <path d="M 40.578125 39.3125 
Q 47.65625 37.796875 51.625 33 
Q 55.609375 28.21875 55.609375 21.1875 
Q 55.609375 10.40625 48.1875 4.484375 
Q 40.765625 -1.421875 27.09375 -1.421875 
Q 22.515625 -1.421875 17.65625 -0.515625 
Q 12.796875 0.390625 7.625 2.203125 
L 7.625 11.71875 
Q 11.71875 9.328125 16.59375 8.109375 
Q 21.484375 6.890625 26.8125 6.890625 
Q 36.078125 6.890625 40.9375 10.546875 
Q 45.796875 14.203125 45.796875 21.1875 
Q 45.796875 27.640625 41.28125 31.265625 
Q 36.765625 34.90625 28.71875 34.90625 
L 20.21875 34.90625 
L 20.21875 43.015625 
L 29.109375 43.015625 
Q 36.375 43.015625 40.234375 45.921875 
Q 44.09375 48.828125 44.09375 54.296875 
Q 44.09375 59.90625 40.109375 62.90625 
Q 36.140625 65.921875 28.71875 65.921875 
Q 24.65625 65.921875 20.015625 65.03125 
Q 15.375 64.15625 9.8125 62.3125 
L 9.8125 71.09375 
Q 15.4375 72.65625 20.34375 73.4375 
Q 25.25 74.21875 29.59375 74.21875 
Q 40.828125 74.21875 47.359375 69.109375 
Q 53.90625 64.015625 53.90625 55.328125 
Q 53.90625 49.265625 50.4375 45.09375 
Q 46.96875 40.921875 40.578125 39.3125 
z
" id="DejaVuSans-51"/>
       </defs>
       <use xlink:href="#DejaVuSans-49"/>
       <use x="63.623047" xlink:href="#DejaVuSans-51"/>
       <use x="127.246094" xlink:href="#DejaVuSans-48"/>
       <use x="190.869141" xlink:href="#DejaVuSans-48"/>
      </g>
     </g>
    </g>
    <g id="xtick_5">
     <g id="line2d_5">
      <g>
       <use style="stroke:#000000;stroke-width:0.8;" x="117.314113" xlink:href="#m927407c83e" y="161.269462"/>
      </g>
     </g>
     <g id="text_5">
      <!-- 1400 -->
      <g transform="translate(112.224113 171.308837)scale(0.04 -0.04)">
       <defs>
        <path d="M 37.796875 64.3125 
L 12.890625 25.390625 
L 37.796875 25.390625 
z
M 35.203125 72.90625 
L 47.609375 72.90625 
L 47.609375 25.390625 
L 58.015625 25.390625 
L 58.015625 17.1875 
L 47.609375 17.1875 
L 47.609375 0 
L 37.796875 0 
L 37.796875 17.1875 
L 4.890625 17.1875 
L 4.890625 26.703125 
z
" id="DejaVuSans-52"/>
       </defs>
       <use xlink:href="#DejaVuSans-49"/>
       <use x="63.623047" xlink:href="#DejaVuSans-52"/>
       <use x="127.246094" xlink:href="#DejaVuSans-48"/>
       <use x="190.869141" xlink:href="#DejaVuSans-48"/>
      </g>
     </g>
    </g>
    <g id="xtick_6">
     <g id="line2d_6">
      <g>
       <use style="stroke:#000000;stroke-width:0.8;" x="134.958382" xlink:href="#m927407c83e" y="161.269462"/>
      </g>
     </g>
     <g id="text_6">
      <!-- 1500 -->
      <g transform="translate(129.868382 171.308837)scale(0.04 -0.04)">
       <defs>
        <path d="M 10.796875 72.90625 
L 49.515625 72.90625 
L 49.515625 64.59375 
L 19.828125 64.59375 
L 19.828125 46.734375 
Q 21.96875 47.46875 24.109375 47.828125 
Q 26.265625 48.1875 28.421875 48.1875 
Q 40.625 48.1875 47.75 41.5 
Q 54.890625 34.8125 54.890625 23.390625 
Q 54.890625 11.625 47.5625 5.09375 
Q 40.234375 -1.421875 26.90625 -1.421875 
Q 22.3125 -1.421875 17.546875 -0.640625 
Q 12.796875 0.140625 7.71875 1.703125 
L 7.71875 11.625 
Q 12.109375 9.234375 16.796875 8.0625 
Q 21.484375 6.890625 26.703125 6.890625 
Q 35.15625 6.890625 40.078125 11.328125 
Q 45.015625 15.765625 45.015625 23.390625 
Q 45.015625 31 40.078125 35.4375 
Q 35.15625 39.890625 26.703125 39.890625 
Q 22.75 39.890625 18.8125 39.015625 
Q 14.890625 38.140625 10.796875 36.28125 
z
" id="DejaVuSans-53"/>
       </defs>
       <use xlink:href="#DejaVuSans-49"/>
       <use x="63.623047" xlink:href="#DejaVuSans-53"/>
       <use x="127.246094" xlink:href="#DejaVuSans-48"/>
       <use x="190.869141" xlink:href="#DejaVuSans-48"/>
      </g>
     </g>
    </g>
    <g id="xtick_7">
     <g id="line2d_7">
      <g>
       <use style="stroke:#000000;stroke-width:0.8;" x="152.602651" xlink:href="#m927407c83e" y="161.269462"/>
      </g>
     </g>
     <g id="text_7">
      <!-- 1600 -->
      <g transform="translate(147.512651 171.308837)scale(0.04 -0.04)">
       <defs>
        <path d="M 33.015625 40.375 
Q 26.375 40.375 22.484375 35.828125 
Q 18.609375 31.296875 18.609375 23.390625 
Q 18.609375 15.53125 22.484375 10.953125 
Q 26.375 6.390625 33.015625 6.390625 
Q 39.65625 6.390625 43.53125 10.953125 
Q 47.40625 15.53125 47.40625 23.390625 
Q 47.40625 31.296875 43.53125 35.828125 
Q 39.65625 40.375 33.015625 40.375 
z
M 52.59375 71.296875 
L 52.59375 62.3125 
Q 48.875 64.0625 45.09375 64.984375 
Q 41.3125 65.921875 37.59375 65.921875 
Q 27.828125 65.921875 22.671875 59.328125 
Q 17.53125 52.734375 16.796875 39.40625 
Q 19.671875 43.65625 24.015625 45.921875 
Q 28.375 48.1875 33.59375 48.1875 
Q 44.578125 48.1875 50.953125 41.515625 
Q 57.328125 34.859375 57.328125 23.390625 
Q 57.328125 12.15625 50.6875 5.359375 
Q 44.046875 -1.421875 33.015625 -1.421875 
Q 20.359375 -1.421875 13.671875 8.265625 
Q 6.984375 17.96875 6.984375 36.375 
Q 6.984375 53.65625 15.1875 63.9375 
Q 23.390625 74.21875 37.203125 74.21875 
Q 40.921875 74.21875 44.703125 73.484375 
Q 48.484375 72.75 52.59375 71.296875 
z
" id="DejaVuSans-54"/>
       </defs>
       <use xlink:href="#DejaVuSans-49"/>
       <use x="63.623047" xlink:href="#DejaVuSans-54"/>
       <use x="127.246094" xlink:href="#DejaVuSans-48"/>
       <use x="190.869141" xlink:href="#DejaVuSans-48"/>
      </g>
     </g>
    </g>
    <g id="xtick_8">
     <g id="line2d_8">
      <g>
       <use style="stroke:#000000;stroke-width:0.8;" x="170.246919" xlink:href="#m927407c83e" y="161.269462"/>
      </g>
     </g>
     <g id="text_8">
      <!-- 1700 -->
      <g transform="translate(165.156919 171.308837)scale(0.04 -0.04)">
       <defs>
        <path d="M 8.203125 72.90625 
L 55.078125 72.90625 
L 55.078125 68.703125 
L 28.609375 0 
L 18.3125 0 
L 43.21875 64.59375 
L 8.203125 64.59375 
z
" id="DejaVuSans-55"/>
       </defs>
       <use xlink:href="#DejaVuSans-49"/>
       <use x="63.623047" xlink:href="#DejaVuSans-55"/>
       <use x="127.246094" xlink:href="#DejaVuSans-48"/>
       <use x="190.869141" xlink:href="#DejaVuSans-48"/>
      </g>
     </g>
    </g>
    <g id="text_9">
     <!-- Date -->
     <g transform="translate(97.792656 180.699775)scale(0.06 -0.06)">
      <defs>
       <path d="M 19.671875 64.796875 
L 19.671875 8.109375 
L 31.59375 8.109375 
Q 46.6875 8.109375 53.6875 14.9375 
Q 60.6875 21.78125 60.6875 36.53125 
Q 60.6875 51.171875 53.6875 57.984375 
Q 46.6875 64.796875 31.59375 64.796875 
z
M 9.8125 72.90625 
L 30.078125 72.90625 
Q 51.265625 72.90625 61.171875 64.09375 
Q 71.09375 55.28125 71.09375 36.53125 
Q 71.09375 17.671875 61.125 8.828125 
Q 51.171875 0 30.078125 0 
L 9.8125 0 
z
" id="DejaVuSans-68"/>
       <path d="M 34.28125 27.484375 
Q 23.390625 27.484375 19.1875 25 
Q 14.984375 22.515625 14.984375 16.5 
Q 14.984375 11.71875 18.140625 8.90625 
Q 21.296875 6.109375 26.703125 6.109375 
Q 34.1875 6.109375 38.703125 11.40625 
Q 43.21875 16.703125 43.21875 25.484375 
L 43.21875 27.484375 
z
M 52.203125 31.203125 
L 52.203125 0 
L 43.21875 0 
L 43.21875 8.296875 
Q 40.140625 3.328125 35.546875 0.953125 
Q 30.953125 -1.421875 24.3125 -1.421875 
Q 15.921875 -1.421875 10.953125 3.296875 
Q 6 8.015625 6 15.921875 
Q 6 25.140625 12.171875 29.828125 
Q 18.359375 34.515625 30.609375 34.515625 
L 43.21875 34.515625 
L 43.21875 35.40625 
Q 43.21875 41.609375 39.140625 45 
Q 35.0625 48.390625 27.6875 48.390625 
Q 23 48.390625 18.546875 47.265625 
Q 14.109375 46.140625 10.015625 43.890625 
L 10.015625 52.203125 
Q 14.9375 54.109375 19.578125 55.046875 
Q 24.21875 56 28.609375 56 
Q 40.484375 56 46.34375 49.84375 
Q 52.203125 43.703125 52.203125 31.203125 
z
" id="DejaVuSans-97"/>
       <path d="M 18.3125 70.21875 
L 18.3125 54.6875 
L 36.8125 54.6875 
L 36.8125 47.703125 
L 18.3125 47.703125 
L 18.3125 18.015625 
Q 18.3125 11.328125 20.140625 9.421875 
Q 21.96875 7.515625 27.59375 7.515625 
L 36.8125 7.515625 
L 36.8125 0 
L 27.59375 0 
Q 17.1875 0 13.234375 3.875 
Q 9.28125 7.765625 9.28125 18.015625 
L 9.28125 47.703125 
L 2.6875 47.703125 
L 2.6875 54.6875 
L 9.28125 54.6875 
L 9.28125 70.21875 
z
" id="DejaVuSans-116"/>
       <path d="M 56.203125 29.59375 
L 56.203125 25.203125 
L 14.890625 25.203125 
Q 15.484375 15.921875 20.484375 11.0625 
Q 25.484375 6.203125 34.421875 6.203125 
Q 39.59375 6.203125 44.453125 7.46875 
Q 49.3125 8.734375 54.109375 11.28125 
L 54.109375 2.78125 
Q 49.265625 0.734375 44.1875 -0.34375 
Q 39.109375 -1.421875 33.890625 -1.421875 
Q 20.796875 -1.421875 13.15625 6.1875 
Q 5.515625 13.8125 5.515625 26.8125 
Q 5.515625 40.234375 12.765625 48.109375 
Q 20.015625 56 32.328125 56 
Q 43.359375 56 49.78125 48.890625 
Q 56.203125 41.796875 56.203125 29.59375 
z
M 47.21875 32.234375 
Q 47.125 39.59375 43.09375 43.984375 
Q 39.0625 48.390625 32.421875 48.390625 
Q 24.90625 48.390625 20.390625 44.140625 
Q 15.875 39.890625 15.1875 32.171875 
z
" id="DejaVuSans-101"/>
      </defs>
      <use xlink:href="#DejaVuSans-68"/>
      <use x="77.001953" xlink:href="#DejaVuSans-97"/>
      <use x="138.28125" xlink:href="#DejaVuSans-116"/>
      <use x="177.490234" xlink:href="#DejaVuSans-101"/>
     </g>
    </g>
   </g>
   <g id="matplotlib.axis_2">
    <g id="ytick_1">
     <g id="line2d_9">
      <defs>
       <path d="M 0 0 
L -3.5 0 
" id="m8e646492fd" style="stroke:#000000;stroke-width:0.8;"/>
      </defs>
      <g>
       <use style="stroke:#000000;stroke-width:0.8;" x="38.003125" xlink:href="#m8e646492fd" y="155.339281"/>
      </g>
     </g>
     <g id="text_10">
      <!-- 0.0000 -->
      <g transform="translate(17.006875 156.858968)scale(0.04 -0.04)">
       <defs>
        <path d="M 10.6875 12.40625 
L 21 12.40625 
L 21 0 
L 10.6875 0 
z
" id="DejaVuSans-46"/>
       </defs>
       <use xlink:href="#DejaVuSans-48"/>
       <use x="63.623047" xlink:href="#DejaVuSans-46"/>
       <use x="95.410156" xlink:href="#DejaVuSans-48"/>
       <use x="159.033203" xlink:href="#DejaVuSans-48"/>
       <use x="222.65625" xlink:href="#DejaVuSans-48"/>
       <use x="286.279297" xlink:href="#DejaVuSans-48"/>
      </g>
     </g>
    </g>
    <g id="ytick_2">
     <g id="line2d_10">
      <g>
       <use style="stroke:#000000;stroke-width:0.8;" x="38.003125" xlink:href="#m8e646492fd" y="138.236955"/>
      </g>
     </g>
     <g id="text_11">
      <!-- 0.0005 -->
      <g transform="translate(17.006875 139.756642)scale(0.04 -0.04)">
       <use xlink:href="#DejaVuSans-48"/>
       <use x="63.623047" xlink:href="#DejaVuSans-46"/>
       <use x="95.410156" xlink:href="#DejaVuSans-48"/>
       <use x="159.033203" xlink:href="#DejaVuSans-48"/>
       <use x="222.65625" xlink:href="#DejaVuSans-48"/>
       <use x="286.279297" xlink:href="#DejaVuSans-53"/>
      </g>
     </g>
    </g>
    <g id="ytick_3">
     <g id="line2d_11">
      <g>
       <use style="stroke:#000000;stroke-width:0.8;" x="38.003125" xlink:href="#m8e646492fd" y="121.134628"/>
      </g>
     </g>
     <g id="text_12">
      <!-- 0.0010 -->
      <g transform="translate(17.006875 122.654316)scale(0.04 -0.04)">
       <use xlink:href="#DejaVuSans-48"/>
       <use x="63.623047" xlink:href="#DejaVuSans-46"/>
       <use x="95.410156" xlink:href="#DejaVuSans-48"/>
       <use x="159.033203" xlink:href="#DejaVuSans-48"/>
       <use x="222.65625" xlink:href="#DejaVuSans-49"/>
       <use x="286.279297" xlink:href="#DejaVuSans-48"/>
      </g>
     </g>
    </g>
    <g id="ytick_4">
     <g id="line2d_12">
      <g>
       <use style="stroke:#000000;stroke-width:0.8;" x="38.003125" xlink:href="#m8e646492fd" y="104.032302"/>
      </g>
     </g>
     <g id="text_13">
      <!-- 0.0015 -->
      <g transform="translate(17.006875 105.55199)scale(0.04 -0.04)">
       <use xlink:href="#DejaVuSans-48"/>
       <use x="63.623047" xlink:href="#DejaVuSans-46"/>
       <use x="95.410156" xlink:href="#DejaVuSans-48"/>
       <use x="159.033203" xlink:href="#DejaVuSans-48"/>
       <use x="222.65625" xlink:href="#DejaVuSans-49"/>
       <use x="286.279297" xlink:href="#DejaVuSans-53"/>
      </g>
     </g>
    </g>
    <g id="ytick_5">
     <g id="line2d_13">
      <g>
       <use style="stroke:#000000;stroke-width:0.8;" x="38.003125" xlink:href="#m8e646492fd" y="86.929976"/>
      </g>
     </g>
     <g id="text_14">
      <!-- 0.0020 -->
      <g transform="translate(17.006875 88.449664)scale(0.04 -0.04)">
       <use xlink:href="#DejaVuSans-48"/>
       <use x="63.623047" xlink:href="#DejaVuSans-46"/>
       <use x="95.410156" xlink:href="#DejaVuSans-48"/>
       <use x="159.033203" xlink:href="#DejaVuSans-48"/>
       <use x="222.65625" xlink:href="#DejaVuSans-50"/>
       <use x="286.279297" xlink:href="#DejaVuSans-48"/>
      </g>
     </g>
    </g>
    <g id="ytick_6">
     <g id="line2d_14">
      <g>
       <use style="stroke:#000000;stroke-width:0.8;" x="38.003125" xlink:href="#m8e646492fd" y="69.82765"/>
      </g>
     </g>
     <g id="text_15">
      <!-- 0.0025 -->
      <g transform="translate(17.006875 71.347337)scale(0.04 -0.04)">
       <use xlink:href="#DejaVuSans-48"/>
       <use x="63.623047" xlink:href="#DejaVuSans-46"/>
       <use x="95.410156" xlink:href="#DejaVuSans-48"/>
       <use x="159.033203" xlink:href="#DejaVuSans-48"/>
       <use x="222.65625" xlink:href="#DejaVuSans-50"/>
       <use x="286.279297" xlink:href="#DejaVuSans-53"/>
      </g>
     </g>
    </g>
    <g id="ytick_7">
     <g id="line2d_15">
      <g>
       <use style="stroke:#000000;stroke-width:0.8;" x="38.003125" xlink:href="#m8e646492fd" y="52.725324"/>
      </g>
     </g>
     <g id="text_16">
      <!-- 0.0030 -->
      <g transform="translate(17.006875 54.245011)scale(0.04 -0.04)">
       <use xlink:href="#DejaVuSans-48"/>
       <use x="63.623047" xlink:href="#DejaVuSans-46"/>
       <use x="95.410156" xlink:href="#DejaVuSans-48"/>
       <use x="159.033203" xlink:href="#DejaVuSans-48"/>
       <use x="222.65625" xlink:href="#DejaVuSans-51"/>
       <use x="286.279297" xlink:href="#DejaVuSans-48"/>
      </g>
     </g>
    </g>
    <g id="ytick_8">
     <g id="line2d_16">
      <g>
       <use style="stroke:#000000;stroke-width:0.8;" x="38.003125" xlink:href="#m8e646492fd" y="35.622998"/>
      </g>
     </g>
     <g id="text_17">
      <!-- 0.0035 -->
      <g transform="translate(17.006875 37.142685)scale(0.04 -0.04)">
       <use xlink:href="#DejaVuSans-48"/>
       <use x="63.623047" xlink:href="#DejaVuSans-46"/>
       <use x="95.410156" xlink:href="#DejaVuSans-48"/>
       <use x="159.033203" xlink:href="#DejaVuSans-48"/>
       <use x="222.65625" xlink:href="#DejaVuSans-51"/>
       <use x="286.279297" xlink:href="#DejaVuSans-53"/>
      </g>
     </g>
    </g>
    <g id="text_18">
     <!-- Density -->
     <g transform="translate(11.759063 107.442619)rotate(-90)scale(0.06 -0.06)">
      <defs>
       <path d="M 54.890625 33.015625 
L 54.890625 0 
L 45.90625 0 
L 45.90625 32.71875 
Q 45.90625 40.484375 42.875 44.328125 
Q 39.84375 48.1875 33.796875 48.1875 
Q 26.515625 48.1875 22.3125 43.546875 
Q 18.109375 38.921875 18.109375 30.90625 
L 18.109375 0 
L 9.078125 0 
L 9.078125 54.6875 
L 18.109375 54.6875 
L 18.109375 46.1875 
Q 21.34375 51.125 25.703125 53.5625 
Q 30.078125 56 35.796875 56 
Q 45.21875 56 50.046875 50.171875 
Q 54.890625 44.34375 54.890625 33.015625 
z
" id="DejaVuSans-110"/>
       <path d="M 44.28125 53.078125 
L 44.28125 44.578125 
Q 40.484375 46.53125 36.375 47.5 
Q 32.28125 48.484375 27.875 48.484375 
Q 21.1875 48.484375 17.84375 46.4375 
Q 14.5 44.390625 14.5 40.28125 
Q 14.5 37.15625 16.890625 35.375 
Q 19.28125 33.59375 26.515625 31.984375 
L 29.59375 31.296875 
Q 39.15625 29.25 43.1875 25.515625 
Q 47.21875 21.78125 47.21875 15.09375 
Q 47.21875 7.46875 41.1875 3.015625 
Q 35.15625 -1.421875 24.609375 -1.421875 
Q 20.21875 -1.421875 15.453125 -0.5625 
Q 10.6875 0.296875 5.421875 2 
L 5.421875 11.28125 
Q 10.40625 8.6875 15.234375 7.390625 
Q 20.0625 6.109375 24.8125 6.109375 
Q 31.15625 6.109375 34.5625 8.28125 
Q 37.984375 10.453125 37.984375 14.40625 
Q 37.984375 18.0625 35.515625 20.015625 
Q 33.0625 21.96875 24.703125 23.78125 
L 21.578125 24.515625 
Q 13.234375 26.265625 9.515625 29.90625 
Q 5.8125 33.546875 5.8125 39.890625 
Q 5.8125 47.609375 11.28125 51.796875 
Q 16.75 56 26.8125 56 
Q 31.78125 56 36.171875 55.265625 
Q 40.578125 54.546875 44.28125 53.078125 
z
" id="DejaVuSans-115"/>
       <path d="M 9.421875 54.6875 
L 18.40625 54.6875 
L 18.40625 0 
L 9.421875 0 
z
M 9.421875 75.984375 
L 18.40625 75.984375 
L 18.40625 64.59375 
L 9.421875 64.59375 
z
" id="DejaVuSans-105"/>
       <path d="M 32.171875 -5.078125 
Q 28.375 -14.84375 24.75 -17.8125 
Q 21.140625 -20.796875 15.09375 -20.796875 
L 7.90625 -20.796875 
L 7.90625 -13.28125 
L 13.1875 -13.28125 
Q 16.890625 -13.28125 18.9375 -11.515625 
Q 21 -9.765625 23.484375 -3.21875 
L 25.09375 0.875 
L 2.984375 54.6875 
L 12.5 54.6875 
L 29.59375 11.921875 
L 46.6875 54.6875 
L 56.203125 54.6875 
z
" id="DejaVuSans-121"/>
      </defs>
      <use xlink:href="#DejaVuSans-68"/>
      <use x="77.001953" xlink:href="#DejaVuSans-101"/>
      <use x="138.525391" xlink:href="#DejaVuSans-110"/>
      <use x="201.904297" xlink:href="#DejaVuSans-115"/>
      <use x="254.003906" xlink:href="#DejaVuSans-105"/>
      <use x="281.787109" xlink:href="#DejaVuSans-116"/>
      <use x="320.996094" xlink:href="#DejaVuSans-121"/>
     </g>
    </g>
   </g>
   <g id="line2d_17">
    <path clip-path="url(#p2056c48334)" d="M 44.090398 154.021108 
L 45.32015 153.761171 
L 46.549902 153.456902 
L 47.779654 153.1022 
L 49.009406 152.690408 
L 50.239158 152.214314 
L 51.46891 151.666167 
L 52.698662 151.037699 
L 53.928414 150.32017 
L 55.158166 149.504425 
L 56.387918 148.580967 
L 57.61767 147.540058 
L 58.847423 146.371828 
L 60.077175 145.066414 
L 61.306927 143.614114 
L 62.536679 142.005565 
L 63.766431 140.231935 
L 64.996183 138.285137 
L 66.225935 136.15805 
L 67.455687 133.844758 
L 68.685439 131.340788 
L 69.915191 128.643361 
L 71.144943 125.75162 
L 72.374695 122.666872 
L 73.604447 119.392792 
L 74.834199 115.935618 
L 76.063951 112.304311 
L 77.293704 108.510676 
L 78.523456 104.56945 
L 79.753208 100.498325 
L 80.98296 96.317935 
L 82.212712 92.051772 
L 83.442464 87.726051 
L 84.672216 83.369502 
L 85.901968 79.013116 
L 87.13172 74.689812 
L 88.361472 70.434064 
L 89.591224 66.281465 
L 90.820976 62.268256 
L 92.050728 58.430809 
L 93.28048 54.805088 
L 94.510232 51.426101 
L 95.739985 48.327332 
L 96.969737 45.5402 
L 98.199489 43.093523 
L 99.429241 41.013031 
L 100.658993 39.320906 
L 101.888745 38.035397 
L 103.118497 37.170488 
L 104.348249 36.735644 
L 105.578001 36.735644 
L 106.807753 37.170488 
L 108.037505 38.035397 
L 109.267257 39.320906 
L 110.497009 41.013031 
L 111.726761 43.093523 
L 112.956513 45.5402 
L 114.186265 48.327332 
L 115.416018 51.426101 
L 116.64577 54.805088 
L 117.875522 58.430809 
L 119.105274 62.268256 
L 120.335026 66.281465 
L 121.564778 70.434064 
L 122.79453 74.689812 
L 124.024282 79.013116 
L 125.254034 83.369502 
L 126.483786 87.726051 
L 127.713538 92.051772 
L 128.94329 96.317935 
L 130.173042 100.498325 
L 131.402794 104.56945 
L 132.632546 108.510676 
L 133.862299 112.304311 
L 135.092051 115.935618 
L 136.321803 119.392792 
L 137.551555 122.666872 
L 138.781307 125.75162 
L 140.011059 128.643361 
L 141.240811 131.340788 
L 142.470563 133.844758 
L 143.700315 136.15805 
L 144.930067 138.285137 
L 146.159819 140.231935 
L 147.389571 142.005565 
L 148.619323 143.614114 
L 149.849075 145.066414 
L 151.078827 146.371828 
L 152.30858 147.540058 
L 153.538332 148.580967 
L 154.768084 149.504425 
L 155.997836 150.32017 
L 157.227588 151.037699 
L 158.45734 151.666167 
L 159.687092 152.214314 
L 160.916844 152.690408 
L 162.146596 153.1022 
L 163.376348 153.456902 
L 164.6061 153.761171 
L 165.835852 154.021108 
" style="fill:none;stroke:#1f77b4;stroke-linecap:square;stroke-width:0.5;"/>
   </g>
   <g id="line2d_18">
    <path clip-path="url(#p2056c48334)" d="M 104.963125 161.269462 
L 104.963125 30.805463 
" style="fill:none;stroke:#000000;stroke-linecap:square;stroke-width:0.5;"/>
   </g>
   <g id="line2d_19">
    <path clip-path="url(#p2056c48334)" d="M 64.381307 161.269462 
L 64.381307 30.805463 
" style="fill:none;stroke:#000000;stroke-dasharray:1.85,0.8;stroke-dashoffset:0;stroke-width:0.5;"/>
   </g>
   <g id="line2d_20">
    <path clip-path="url(#p2056c48334)" d="M 145.544943 161.269462 
L 145.544943 30.805463 
" style="fill:none;stroke:#000000;stroke-dasharray:1.85,0.8;stroke-dashoffset:0;stroke-width:0.5;"/>
   </g>
   <g id="patch_3">
    <path d="M 38.003125 161.269462 
L 38.003125 30.805463 
" style="fill:none;stroke:#000000;stroke-linecap:square;stroke-linejoin:miter;stroke-width:0.8;"/>
   </g>
   <g id="patch_4">
    <path d="M 171.923125 161.269462 
L 171.923125 30.805463 
" style="fill:none;stroke:#000000;stroke-linecap:square;stroke-linejoin:miter;stroke-width:0.8;"/>
   </g>
   <g id="patch_5">
    <path d="M 38.003125 161.269462 
L 171.923125 161.269462 
" style="fill:none;stroke:#000000;stroke-linecap:square;stroke-linejoin:miter;stroke-width:0.8;"/>
   </g>
   <g id="patch_6">
    <path d="M 38.003125 30.805463 
L 171.923125 30.805463 
" style="fill:none;stroke:#000000;stroke-linecap:square;stroke-linejoin:miter;stroke-width:0.8;"/>
   </g>
   <g id="text_19">
    <!-- Collection Date Prior -->
    <g transform="translate(74.154531 11.759063)scale(0.06 -0.06)">
     <defs>
      <path d="M 64.40625 67.28125 
L 64.40625 56.890625 
Q 59.421875 61.53125 53.78125 63.8125 
Q 48.140625 66.109375 41.796875 66.109375 
Q 29.296875 66.109375 22.65625 58.46875 
Q 16.015625 50.828125 16.015625 36.375 
Q 16.015625 21.96875 22.65625 14.328125 
Q 29.296875 6.6875 41.796875 6.6875 
Q 48.140625 6.6875 53.78125 8.984375 
Q 59.421875 11.28125 64.40625 15.921875 
L 64.40625 5.609375 
Q 59.234375 2.09375 53.4375 0.328125 
Q 47.65625 -1.421875 41.21875 -1.421875 
Q 24.65625 -1.421875 15.125 8.703125 
Q 5.609375 18.84375 5.609375 36.375 
Q 5.609375 53.953125 15.125 64.078125 
Q 24.65625 74.21875 41.21875 74.21875 
Q 47.75 74.21875 53.53125 72.484375 
Q 59.328125 70.75 64.40625 67.28125 
z
" id="DejaVuSans-67"/>
      <path d="M 30.609375 48.390625 
Q 23.390625 48.390625 19.1875 42.75 
Q 14.984375 37.109375 14.984375 27.296875 
Q 14.984375 17.484375 19.15625 11.84375 
Q 23.34375 6.203125 30.609375 6.203125 
Q 37.796875 6.203125 41.984375 11.859375 
Q 46.1875 17.53125 46.1875 27.296875 
Q 46.1875 37.015625 41.984375 42.703125 
Q 37.796875 48.390625 30.609375 48.390625 
z
M 30.609375 56 
Q 42.328125 56 49.015625 48.375 
Q 55.71875 40.765625 55.71875 27.296875 
Q 55.71875 13.875 49.015625 6.21875 
Q 42.328125 -1.421875 30.609375 -1.421875 
Q 18.84375 -1.421875 12.171875 6.21875 
Q 5.515625 13.875 5.515625 27.296875 
Q 5.515625 40.765625 12.171875 48.375 
Q 18.84375 56 30.609375 56 
z
" id="DejaVuSans-111"/>
      <path d="M 9.421875 75.984375 
L 18.40625 75.984375 
L 18.40625 0 
L 9.421875 0 
z
" id="DejaVuSans-108"/>
      <path d="M 48.78125 52.59375 
L 48.78125 44.1875 
Q 44.96875 46.296875 41.140625 47.34375 
Q 37.3125 48.390625 33.40625 48.390625 
Q 24.65625 48.390625 19.8125 42.84375 
Q 14.984375 37.3125 14.984375 27.296875 
Q 14.984375 17.28125 19.8125 11.734375 
Q 24.65625 6.203125 33.40625 6.203125 
Q 37.3125 6.203125 41.140625 7.25 
Q 44.96875 8.296875 48.78125 10.40625 
L 48.78125 2.09375 
Q 45.015625 0.34375 40.984375 -0.53125 
Q 36.96875 -1.421875 32.421875 -1.421875 
Q 20.0625 -1.421875 12.78125 6.34375 
Q 5.515625 14.109375 5.515625 27.296875 
Q 5.515625 40.671875 12.859375 48.328125 
Q 20.21875 56 33.015625 56 
Q 37.15625 56 41.109375 55.140625 
Q 45.0625 54.296875 48.78125 52.59375 
z
" id="DejaVuSans-99"/>
      <path id="DejaVuSans-32"/>
      <path d="M 19.671875 64.796875 
L 19.671875 37.40625 
L 32.078125 37.40625 
Q 38.96875 37.40625 42.71875 40.96875 
Q 46.484375 44.53125 46.484375 51.125 
Q 46.484375 57.671875 42.71875 61.234375 
Q 38.96875 64.796875 32.078125 64.796875 
z
M 9.8125 72.90625 
L 32.078125 72.90625 
Q 44.34375 72.90625 50.609375 67.359375 
Q 56.890625 61.8125 56.890625 51.125 
Q 56.890625 40.328125 50.609375 34.8125 
Q 44.34375 29.296875 32.078125 29.296875 
L 19.671875 29.296875 
L 19.671875 0 
L 9.8125 0 
z
" id="DejaVuSans-80"/>
      <path d="M 41.109375 46.296875 
Q 39.59375 47.171875 37.8125 47.578125 
Q 36.03125 48 33.890625 48 
Q 26.265625 48 22.1875 43.046875 
Q 18.109375 38.09375 18.109375 28.8125 
L 18.109375 0 
L 9.078125 0 
L 9.078125 54.6875 
L 18.109375 54.6875 
L 18.109375 46.1875 
Q 20.953125 51.171875 25.484375 53.578125 
Q 30.03125 56 36.53125 56 
Q 37.453125 56 38.578125 55.875 
Q 39.703125 55.765625 41.0625 55.515625 
z
" id="DejaVuSans-114"/>
     </defs>
     <use xlink:href="#DejaVuSans-67"/>
     <use x="69.824219" xlink:href="#DejaVuSans-111"/>
     <use x="131.005859" xlink:href="#DejaVuSans-108"/>
     <use x="158.789062" xlink:href="#DejaVuSans-108"/>
     <use x="186.572266" xlink:href="#DejaVuSans-101"/>
     <use x="248.095703" xlink:href="#DejaVuSans-99"/>
     <use x="303.076172" xlink:href="#DejaVuSans-116"/>
     <use x="342.285156" xlink:href="#DejaVuSans-105"/>
     <use x="370.068359" xlink:href="#DejaVuSans-111"/>
     <use x="431.25" xlink:href="#DejaVuSans-110"/>
     <use x="494.628906" xlink:href="#DejaVuSans-32"/>
     <use x="526.416016" xlink:href="#DejaVuSans-68"/>
     <use x="603.417969" xlink:href="#DejaVuSans-97"/>
     <use x="664.697266" xlink:href="#DejaVuSans-116"/>
     <use x="703.90625" xlink:href="#DejaVuSans-101"/>
     <use x="765.429688" xlink:href="#DejaVuSans-32"/>
     <use x="797.216797" xlink:href="#DejaVuSans-80"/>
     <use x="855.769531" xlink:href="#DejaVuSans-114"/>
     <use x="896.882812" xlink:href="#DejaVuSans-105"/>
     <use x="924.666016" xlink:href="#DejaVuSans-111"/>
     <use x="985.847656" xlink:href="#DejaVuSans-114"/>
    </g>
   </g>
   <g id="legend_1">
    <g id="patch_7">
     <path d="M 80.979125 28.805463 
L 126.2385 28.805463 
Q 127.0385 28.805463 127.0385 28.005462 
L 127.0385 16.662963 
Q 127.0385 15.862963 126.2385 15.862963 
L 80.979125 15.862963 
Q 80.179125 15.862963 80.179125 16.662963 
L 80.179125 28.005462 
Q 80.179125 28.805463 80.979125 28.805463 
z
" style="fill:#ffffff;opacity:0.8;stroke:#000000;stroke-linejoin:miter;stroke-width:0.5;"/>
    </g>
    <g id="line2d_21">
     <path d="M 81.779125 19.102338 
L 89.779125 19.102338 
" style="fill:none;stroke:#000000;stroke-linecap:square;stroke-width:0.5;"/>
    </g>
    <g id="line2d_22"/>
    <g id="text_20">
     <!-- Mean Site Date -->
     <g transform="translate(92.979125 20.502338)scale(0.04 -0.04)">
      <defs>
       <path d="M 9.8125 72.90625 
L 24.515625 72.90625 
L 43.109375 23.296875 
L 61.8125 72.90625 
L 76.515625 72.90625 
L 76.515625 0 
L 66.890625 0 
L 66.890625 64.015625 
L 48.09375 14.015625 
L 38.1875 14.015625 
L 19.390625 64.015625 
L 19.390625 0 
L 9.8125 0 
z
" id="DejaVuSans-77"/>
       <path d="M 53.515625 70.515625 
L 53.515625 60.890625 
Q 47.90625 63.578125 42.921875 64.890625 
Q 37.9375 66.21875 33.296875 66.21875 
Q 25.25 66.21875 20.875 63.09375 
Q 16.5 59.96875 16.5 54.203125 
Q 16.5 49.359375 19.40625 46.890625 
Q 22.3125 44.4375 30.421875 42.921875 
L 36.375 41.703125 
Q 47.40625 39.59375 52.65625 34.296875 
Q 57.90625 29 57.90625 20.125 
Q 57.90625 9.515625 50.796875 4.046875 
Q 43.703125 -1.421875 29.984375 -1.421875 
Q 24.8125 -1.421875 18.96875 -0.25 
Q 13.140625 0.921875 6.890625 3.21875 
L 6.890625 13.375 
Q 12.890625 10.015625 18.65625 8.296875 
Q 24.421875 6.59375 29.984375 6.59375 
Q 38.421875 6.59375 43.015625 9.90625 
Q 47.609375 13.234375 47.609375 19.390625 
Q 47.609375 24.75 44.3125 27.78125 
Q 41.015625 30.8125 33.5 32.328125 
L 27.484375 33.5 
Q 16.453125 35.6875 11.515625 40.375 
Q 6.59375 45.0625 6.59375 53.421875 
Q 6.59375 63.09375 13.40625 68.65625 
Q 20.21875 74.21875 32.171875 74.21875 
Q 37.3125 74.21875 42.625 73.28125 
Q 47.953125 72.359375 53.515625 70.515625 
z
" id="DejaVuSans-83"/>
      </defs>
      <use xlink:href="#DejaVuSans-77"/>
      <use x="86.279297" xlink:href="#DejaVuSans-101"/>
      <use x="147.802734" xlink:href="#DejaVuSans-97"/>
      <use x="209.082031" xlink:href="#DejaVuSans-110"/>
      <use x="272.460938" xlink:href="#DejaVuSans-32"/>
      <use x="304.248047" xlink:href="#DejaVuSans-83"/>
      <use x="367.724609" xlink:href="#DejaVuSans-105"/>
      <use x="395.507812" xlink:href="#DejaVuSans-116"/>
      <use x="434.716797" xlink:href="#DejaVuSans-101"/>
      <use x="496.240234" xlink:href="#DejaVuSans-32"/>
      <use x="528.027344" xlink:href="#DejaVuSans-68"/>
      <use x="605.029297" xlink:href="#DejaVuSans-97"/>
      <use x="666.308594" xlink:href="#DejaVuSans-116"/>
      <use x="705.517578" xlink:href="#DejaVuSans-101"/>
     </g>
    </g>
    <g id="line2d_23">
     <path d="M 81.779125 24.973588 
L 89.779125 24.973588 
" style="fill:none;stroke:#000000;stroke-dasharray:1.85,0.8;stroke-dashoffset:0;stroke-width:0.5;"/>
    </g>
    <g id="line2d_24"/>
    <g id="text_21">
     <!-- Site Date Range -->
     <g transform="translate(92.979125 26.373588)scale(0.04 -0.04)">
      <defs>
       <path d="M 44.390625 34.1875 
Q 47.5625 33.109375 50.5625 29.59375 
Q 53.5625 26.078125 56.59375 19.921875 
L 66.609375 0 
L 56 0 
L 46.6875 18.703125 
Q 43.0625 26.03125 39.671875 28.421875 
Q 36.28125 30.8125 30.421875 30.8125 
L 19.671875 30.8125 
L 19.671875 0 
L 9.8125 0 
L 9.8125 72.90625 
L 32.078125 72.90625 
Q 44.578125 72.90625 50.734375 67.671875 
Q 56.890625 62.453125 56.890625 51.90625 
Q 56.890625 45.015625 53.6875 40.46875 
Q 50.484375 35.9375 44.390625 34.1875 
z
M 19.671875 64.796875 
L 19.671875 38.921875 
L 32.078125 38.921875 
Q 39.203125 38.921875 42.84375 42.21875 
Q 46.484375 45.515625 46.484375 51.90625 
Q 46.484375 58.296875 42.84375 61.546875 
Q 39.203125 64.796875 32.078125 64.796875 
z
" id="DejaVuSans-82"/>
       <path d="M 45.40625 27.984375 
Q 45.40625 37.75 41.375 43.109375 
Q 37.359375 48.484375 30.078125 48.484375 
Q 22.859375 48.484375 18.828125 43.109375 
Q 14.796875 37.75 14.796875 27.984375 
Q 14.796875 18.265625 18.828125 12.890625 
Q 22.859375 7.515625 30.078125 7.515625 
Q 37.359375 7.515625 41.375 12.890625 
Q 45.40625 18.265625 45.40625 27.984375 
z
M 54.390625 6.78125 
Q 54.390625 -7.171875 48.1875 -13.984375 
Q 42 -20.796875 29.203125 -20.796875 
Q 24.46875 -20.796875 20.265625 -20.09375 
Q 16.0625 -19.390625 12.109375 -17.921875 
L 12.109375 -9.1875 
Q 16.0625 -11.328125 19.921875 -12.34375 
Q 23.78125 -13.375 27.78125 -13.375 
Q 36.625 -13.375 41.015625 -8.765625 
Q 45.40625 -4.15625 45.40625 5.171875 
L 45.40625 9.625 
Q 42.625 4.78125 38.28125 2.390625 
Q 33.9375 0 27.875 0 
Q 17.828125 0 11.671875 7.65625 
Q 5.515625 15.328125 5.515625 27.984375 
Q 5.515625 40.671875 11.671875 48.328125 
Q 17.828125 56 27.875 56 
Q 33.9375 56 38.28125 53.609375 
Q 42.625 51.21875 45.40625 46.390625 
L 45.40625 54.6875 
L 54.390625 54.6875 
z
" id="DejaVuSans-103"/>
      </defs>
      <use xlink:href="#DejaVuSans-83"/>
      <use x="63.476562" xlink:href="#DejaVuSans-105"/>
      <use x="91.259766" xlink:href="#DejaVuSans-116"/>
      <use x="130.46875" xlink:href="#DejaVuSans-101"/>
      <use x="191.992188" xlink:href="#DejaVuSans-32"/>
      <use x="223.779297" xlink:href="#DejaVuSans-68"/>
      <use x="300.78125" xlink:href="#DejaVuSans-97"/>
      <use x="362.060547" xlink:href="#DejaVuSans-116"/>
      <use x="401.269531" xlink:href="#DejaVuSans-101"/>
      <use x="462.792969" xlink:href="#DejaVuSans-32"/>
      <use x="494.580078" xlink:href="#DejaVuSans-82"/>
      <use x="561.8125" xlink:href="#DejaVuSans-97"/>
      <use x="623.091797" xlink:href="#DejaVuSans-110"/>
      <use x="686.470703" xlink:href="#DejaVuSans-103"/>
      <use x="749.947266" xlink:href="#DejaVuSans-101"/>
     </g>
    </g>
   </g>
  </g>
 </g>
 <defs>
  <clipPath id="p2056c48334">
   <rect height="130.464" width="133.92" x="38.003125" y="30.805463"/>
  </clipPath>
 </defs>
</svg>
