<?xml version="1.0" encoding="utf-8" standalone="no"?>
<!DOCTYPE svg PUBLIC "-//W3C//DTD SVG 1.1//EN"
  "http://www.w3.org/Graphics/SVG/1.1/DTD/svg11.dtd">
<!-- Created with matplotlib (https://matplotlib.org/) -->
<svg height="287.715688pt" version="1.1" viewBox="0 0 390.470846 287.715688" width="390.470846pt" xmlns="http://www.w3.org/2000/svg" xmlns:xlink="http://www.w3.org/1999/xlink">
 <metadata>
  <rdf:RDF xmlns:cc="http://creativecommons.org/ns#" xmlns:dc="http://purl.org/dc/elements/1.1/" xmlns:rdf="http://www.w3.org/1999/02/22-rdf-syntax-ns#">
   <cc:Work>
    <dc:type rdf:resource="http://purl.org/dc/dcmitype/StillImage"/>
    <dc:date>2021-10-05T10:43:53.441944</dc:date>
    <dc:format>image/svg+xml</dc:format>
    <dc:creator>
     <cc:Agent>
      <dc:title>Matplotlib v3.3.2, https://matplotlib.org/</dc:title>
     </cc:Agent>
    </dc:creator>
   </cc:Work>
  </rdf:RDF>
 </metadata>
 <defs>
  <style type="text/css">*{stroke-linecap:butt;stroke-linejoin:round;}</style>
 </defs>
 <g id="figure_1">
  <g id="patch_1">
   <path d="M 0 287.715688 
L 390.470846 287.715688 
L 390.470846 0 
L 0 0 
z
" style="fill:#ffffff;"/>
  </g>
  <g id="axes_1">
   <g id="patch_2">
    <path d="M 10.760846 226.74 
L 321.185846 226.74 
L 321.185846 68.09 
L 10.760846 68.09 
z
" style="fill:#ffffff;"/>
   </g>
   <g id="matplotlib.axis_1">
    <g id="xtick_1">
     <g id="line2d_1">
      <defs>
       <path d="M 0 0 
L 0 3.5 
" id="m0e2ed6df3b" style="stroke:#000000;stroke-width:0.8;"/>
      </defs>
      <g>
       <use style="stroke:#000000;stroke-width:0.8;" x="18.332188" xlink:href="#m0e2ed6df3b" y="226.74"/>
      </g>
     </g>
     <g id="text_1">
      <text style="font-family:DejaVu Sans;font-size:14px;font-stretch:normal;font-style:normal;font-weight:normal;text-anchor:middle;" transform="rotate(-0, 18.332188, 244.377813)" x="18.332188" y="244.377813">0.0</text>
     </g>
    </g>
    <g id="xtick_2">
     <g id="line2d_2">
      <g>
       <use style="stroke:#000000;stroke-width:0.8;" x="94.045602" xlink:href="#m0e2ed6df3b" y="226.74"/>
      </g>
     </g>
     <g id="text_2">
      <text style="font-family:DejaVu Sans;font-size:14px;font-stretch:normal;font-style:normal;font-weight:normal;text-anchor:middle;" transform="rotate(-0, 94.045602, 244.377813)" x="94.045602" y="244.377813">0.5</text>
     </g>
    </g>
    <g id="xtick_3">
     <g id="line2d_3">
      <g>
       <use style="stroke:#000000;stroke-width:0.8;" x="169.759017" xlink:href="#m0e2ed6df3b" y="226.74"/>
      </g>
     </g>
     <g id="text_3">
      <text style="font-family:DejaVu Sans;font-size:14px;font-stretch:normal;font-style:normal;font-weight:normal;text-anchor:middle;" transform="rotate(-0, 169.759017, 244.377813)" x="169.759017" y="244.377813">1.0</text>
     </g>
    </g>
    <g id="xtick_4">
     <g id="line2d_4">
      <g>
       <use style="stroke:#000000;stroke-width:0.8;" x="245.472431" xlink:href="#m0e2ed6df3b" y="226.74"/>
      </g>
     </g>
     <g id="text_4">
      <text style="font-family:DejaVu Sans;font-size:14px;font-stretch:normal;font-style:normal;font-weight:normal;text-anchor:middle;" transform="rotate(-0, 245.472431, 244.377813)" x="245.472431" y="244.377813">1.5</text>
     </g>
    </g>
    <g id="xtick_5">
     <g id="line2d_5">
      <g>
       <use style="stroke:#000000;stroke-width:0.8;" x="321.185846" xlink:href="#m0e2ed6df3b" y="226.74"/>
      </g>
     </g>
     <g id="text_5">
      <text style="font-family:DejaVu Sans;font-size:14px;font-stretch:normal;font-style:normal;font-weight:normal;text-anchor:middle;" transform="rotate(-0, 321.185846, 244.377813)" x="321.185846" y="244.377813">2.0</text>
     </g>
    </g>
    <g id="text_6">
     <text style="font-family:DejaVu Sans;font-size:14px;font-stretch:normal;font-style:normal;font-weight:normal;" transform="translate(89.946784 261.927188)">Distance to the MRCA</text>
     <text style="font-family:DejaVu Sans;font-size:14px;font-stretch:normal;font-style:normal;font-weight:normal;" transform="translate(98.81819 277.604125)">(Substitutions/Site)</text>
    </g>
    <g id="text_7">
     <text style="font-family:DejaVu Sans;font-size:14px;font-stretch:normal;font-style:normal;font-weight:normal;text-anchor:end;" transform="rotate(-0, 321.185846, 260.927188)" x="321.185846" y="260.927188">1e−4</text>
    </g>
   </g>
   <g id="matplotlib.axis_2"/>
   <g id="LineCollection_1">
    <path clip-path="url(#p297f10389f)" d="M 18.332188 184.646635 
L 18.332188 184.646635 
" style="fill:none;stroke:#8000ff;"/>
   </g>
   <g id="LineCollection_2">
    <path clip-path="url(#p297f10389f)" d="M 18.332188 168.072552 
L 38.537221 168.072552 
" style="fill:none;stroke:#8000ff;"/>
   </g>
   <g id="LineCollection_3">
    <path clip-path="url(#p297f10389f)" d="M 38.537221 150.297449 
L 58.692737 150.297449 
" style="fill:none;stroke:#8000ff;"/>
   </g>
   <g id="LineCollection_4">
    <path clip-path="url(#p297f10389f)" d="M 58.692737 130.120305 
L 60.091164 130.120305 
" style="fill:none;stroke:#8000ff;"/>
   </g>
   <g id="LineCollection_5">
    <path clip-path="url(#p297f10389f)" d="M 60.091164 112.82561 
L 76.671039 112.82561 
" style="fill:none;stroke:#8000ff;"/>
   </g>
   <g id="LineCollection_6">
    <path clip-path="url(#p297f10389f)" d="M 76.671039 101.295814 
L 103.733285 101.295814 
" style="fill:none;stroke:#8000ff;"/>
   </g>
   <g id="LineCollection_7">
    <path clip-path="url(#p297f10389f)" d="M 103.733285 93.609283 
L 106.943685 93.609283 
" style="fill:none;stroke:#8000ff;"/>
   </g>
   <g id="LineCollection_8">
    <path clip-path="url(#p297f10389f)" d="M 103.733285 108.982345 
L 162.482503 108.982345 
" style="fill:none;stroke:#c4c4c4;"/>
   </g>
   <g id="LineCollection_9">
    <path clip-path="url(#p297f10389f)" d="M 76.671039 124.355407 
L 83.356534 124.355407 
" style="fill:none;stroke:#8000ff;"/>
   </g>
   <g id="LineCollection_10">
    <path clip-path="url(#p297f10389f)" d="M 60.091164 147.415 
L 62.537313 147.415 
" style="fill:none;stroke:#8000ff;"/>
   </g>
   <g id="LineCollection_11">
    <path clip-path="url(#p297f10389f)" d="M 62.537313 139.728469 
L 63.344418 139.728469 
" style="fill:none;stroke:#8000ff;"/>
   </g>
   <g id="LineCollection_12">
    <path clip-path="url(#p297f10389f)" d="M 62.537313 155.101531 
L 62.57305 155.101531 
" style="fill:none;stroke:#8000ff;"/>
   </g>
   <g id="LineCollection_13">
    <path clip-path="url(#p297f10389f)" d="M 58.692737 170.474593 
L 62.915275 170.474593 
" style="fill:none;stroke:#8000ff;"/>
   </g>
   <g id="LineCollection_14">
    <path clip-path="url(#p297f10389f)" d="M 38.537221 185.847655 
L 44.597625 185.847655 
" style="fill:none;stroke:#8000ff;"/>
   </g>
   <g id="LineCollection_15">
    <path clip-path="url(#p297f10389f)" d="M 18.332188 201.220717 
L 26.69428 201.220717 
" style="fill:none;stroke:#8000ff;"/>
   </g>
   <g id="LineCollection_16">
    <path clip-path="url(#p297f10389f)" d="M 18.332188 201.220717 
L 18.332188 168.072552 
" style="fill:none;stroke:#8000ff;"/>
   </g>
   <g id="LineCollection_17">
    <path clip-path="url(#p297f10389f)" d="M 38.537221 185.847655 
L 38.537221 150.297449 
" style="fill:none;stroke:#8000ff;"/>
   </g>
   <g id="LineCollection_18">
    <path clip-path="url(#p297f10389f)" d="M 58.692737 170.474593 
L 58.692737 130.120305 
" style="fill:none;stroke:#8000ff;"/>
   </g>
   <g id="LineCollection_19">
    <path clip-path="url(#p297f10389f)" d="M 60.091164 147.415 
L 60.091164 112.82561 
" style="fill:none;stroke:#8000ff;"/>
   </g>
   <g id="LineCollection_20">
    <path clip-path="url(#p297f10389f)" d="M 76.671039 124.355407 
L 76.671039 101.295814 
" style="fill:none;stroke:#8000ff;"/>
   </g>
   <g id="LineCollection_21">
    <path clip-path="url(#p297f10389f)" d="M 103.733285 108.982345 
L 103.733285 93.609283 
" style="fill:none;stroke:#8000ff;"/>
   </g>
   <g id="LineCollection_22">
    <path clip-path="url(#p297f10389f)" d="M 62.537313 155.101531 
L 62.537313 139.728469 
" style="fill:none;stroke:#8000ff;"/>
   </g>
   <g id="PathCollection_1">
    <defs>
     <path d="M 0 1.581139 
C 0.419323 1.581139 0.821528 1.41454 1.118034 1.118034 
C 1.41454 0.821528 1.581139 0.419323 1.581139 -0 
C 1.581139 -0.419323 1.41454 -0.821528 1.118034 -1.118034 
C 0.821528 -1.41454 0.419323 -1.581139 0 -1.581139 
C -0.419323 -1.581139 -0.821528 -1.41454 -1.118034 -1.118034 
C -1.41454 -0.821528 -1.581139 -0.419323 -1.581139 0 
C -1.581139 0.419323 -1.41454 0.821528 -1.118034 1.118034 
C -0.821528 1.41454 -0.419323 1.581139 0 1.581139 
z
" id="C0_0_9f3d745efa"/>
    </defs>
    <g clip-path="url(#p297f10389f)">
     <use style="fill:#8000ff;stroke:#000000;stroke-width:0.252982;" x="106.943685" xlink:href="#C0_0_9f3d745efa" y="93.609283"/>
    </g>
    <g clip-path="url(#p297f10389f)">
     <use style="fill:#c4c4c4;stroke:#000000;stroke-width:0.252982;" x="162.482503" xlink:href="#C0_0_9f3d745efa" y="108.982345"/>
    </g>
    <g clip-path="url(#p297f10389f)">
     <use style="fill:#8000ff;stroke:#000000;stroke-width:0.252982;" x="83.356534" xlink:href="#C0_0_9f3d745efa" y="124.355407"/>
    </g>
    <g clip-path="url(#p297f10389f)">
     <use style="fill:#8000ff;stroke:#000000;stroke-width:0.252982;" x="63.344418" xlink:href="#C0_0_9f3d745efa" y="139.728469"/>
    </g>
    <g clip-path="url(#p297f10389f)">
     <use style="fill:#8000ff;stroke:#000000;stroke-width:0.252982;" x="62.57305" xlink:href="#C0_0_9f3d745efa" y="155.101531"/>
    </g>
    <g clip-path="url(#p297f10389f)">
     <use style="fill:#8000ff;stroke:#000000;stroke-width:0.252982;" x="62.915275" xlink:href="#C0_0_9f3d745efa" y="170.474593"/>
    </g>
    <g clip-path="url(#p297f10389f)">
     <use style="fill:#8000ff;stroke:#000000;stroke-width:0.252982;" x="44.597625" xlink:href="#C0_0_9f3d745efa" y="185.847655"/>
    </g>
    <g clip-path="url(#p297f10389f)">
     <use style="fill:#8000ff;stroke:#000000;stroke-width:0.252982;" x="26.69428" xlink:href="#C0_0_9f3d745efa" y="201.220717"/>
    </g>
   </g>
   <g id="patch_3">
    <path d="M 10.760846 226.74 
L 10.760846 68.09 
" style="fill:none;stroke:#000000;stroke-linecap:square;stroke-linejoin:miter;stroke-width:0.8;"/>
   </g>
   <g id="patch_4">
    <path d="M 10.760846 226.74 
L 321.185846 226.74 
" style="fill:none;stroke:#000000;stroke-linecap:square;stroke-linejoin:miter;stroke-width:0.8;"/>
   </g>
   <g id="text_8">
    <text style="font-family:DejaVu Sans;font-size:14px;font-stretch:normal;font-style:normal;font-weight:normal;text-anchor:start;" transform="rotate(-0, 18.332188, 188.50976)" x="18.332188" y="188.50976"> </text>
   </g>
   <g id="text_9">
    <text style="font-family:DejaVu Sans;font-size:14px;font-stretch:normal;font-style:normal;font-weight:normal;text-anchor:start;" transform="rotate(-0, 38.537221, 171.935677)" x="38.537221" y="171.935677"> </text>
   </g>
   <g id="text_10">
    <text style="font-family:DejaVu Sans;font-size:14px;font-stretch:normal;font-style:normal;font-weight:normal;text-anchor:start;" transform="rotate(-0, 58.692737, 154.160574)" x="58.692737" y="154.160574"> </text>
   </g>
   <g id="text_11">
    <text style="font-family:DejaVu Sans;font-size:14px;font-stretch:normal;font-style:normal;font-weight:normal;text-anchor:start;" transform="rotate(-0, 60.091164, 133.98343)" x="60.091164" y="133.98343"> </text>
   </g>
   <g id="text_12">
    <text style="font-family:DejaVu Sans;font-size:14px;font-stretch:normal;font-style:normal;font-weight:normal;text-anchor:start;" transform="rotate(-0, 76.671039, 116.688735)" x="76.671039" y="116.688735"> </text>
   </g>
   <g id="text_13">
    <text style="font-family:DejaVu Sans;font-size:14px;font-stretch:normal;font-style:normal;font-weight:normal;text-anchor:start;" transform="rotate(-0, 103.733285, 105.158939)" x="103.733285" y="105.158939"> </text>
   </g>
   <g id="text_14">
    <text style="font-family:DejaVu Sans;font-size:14px;font-stretch:normal;font-style:normal;font-weight:normal;text-anchor:start;" transform="rotate(-0, 106.943685, 97.472408)" x="106.943685" y="97.472408"> </text>
   </g>
   <g id="text_15">
    <text style="font-family:DejaVu Sans;font-size:14px;font-stretch:normal;font-style:normal;font-weight:normal;text-anchor:start;" transform="rotate(-0, 162.482503, 112.84547)" x="162.482503" y="112.84547"> </text>
   </g>
   <g id="text_16">
    <text style="font-family:DejaVu Sans;font-size:14px;font-stretch:normal;font-style:normal;font-weight:normal;text-anchor:start;" transform="rotate(-0, 83.356534, 128.218532)" x="83.356534" y="128.218532"> </text>
   </g>
   <g id="text_17">
    <text style="font-family:DejaVu Sans;font-size:14px;font-stretch:normal;font-style:normal;font-weight:normal;text-anchor:start;" transform="rotate(-0, 62.537313, 151.278125)" x="62.537313" y="151.278125"> </text>
   </g>
   <g id="text_18">
    <text style="font-family:DejaVu Sans;font-size:14px;font-stretch:normal;font-style:normal;font-weight:normal;text-anchor:start;" transform="rotate(-0, 63.344418, 143.591594)" x="63.344418" y="143.591594"> </text>
   </g>
   <g id="text_19">
    <text style="font-family:DejaVu Sans;font-size:14px;font-stretch:normal;font-style:normal;font-weight:normal;text-anchor:start;" transform="rotate(-0, 62.57305, 158.964656)" x="62.57305" y="158.964656"> </text>
   </g>
   <g id="text_20">
    <text style="font-family:DejaVu Sans;font-size:14px;font-stretch:normal;font-style:normal;font-weight:normal;text-anchor:start;" transform="rotate(-0, 62.915275, 174.337718)" x="62.915275" y="174.337718"> </text>
   </g>
   <g id="text_21">
    <text style="font-family:DejaVu Sans;font-size:14px;font-stretch:normal;font-style:normal;font-weight:normal;text-anchor:start;" transform="rotate(-0, 44.597625, 189.71078)" x="44.597625" y="189.71078"> </text>
   </g>
   <g id="text_22">
    <text style="font-family:DejaVu Sans;font-size:14px;font-stretch:normal;font-style:normal;font-weight:normal;text-anchor:start;" transform="rotate(-0, 26.69428, 205.083842)" x="26.69428" y="205.083842"> </text>
   </g>
   <g id="text_23">
    <text style="font-family:DejaVu Sans;font-size:16.8px;font-stretch:normal;font-style:normal;font-weight:normal;text-anchor:middle;" transform="rotate(-0, 165.973346, 62.09)" x="165.973346" y="62.09">NODE1</text>
   </g>
  </g>
  <g id="axes_2">
   <g id="patch_5">
    <path d="M 10.760846 68.09 
L 321.185846 68.09 
L 321.185846 36.36 
L 10.760846 36.36 
z
" style="fill:#ffffff;"/>
   </g>
   <g id="PolyCollection_1">
    <defs>
     <path d="M 18.332188 -228.318091 
L 18.332188 -219.625687 
L 19.056561 -219.625687 
L 19.780934 -219.625687 
L 20.505308 -219.625687 
L 21.229681 -219.625687 
L 21.954055 -219.625687 
L 22.678428 -219.625687 
L 23.402802 -219.625687 
L 24.127175 -219.625687 
L 24.851549 -219.625687 
L 25.575922 -219.625687 
L 26.300295 -219.625687 
L 27.024669 -219.625687 
L 27.749042 -219.625687 
L 28.473416 -219.625687 
L 29.197789 -219.625687 
L 29.922163 -219.625687 
L 30.646536 -219.625687 
L 31.37091 -219.625687 
L 32.095283 -219.625687 
L 32.819656 -219.625687 
L 33.54403 -219.625687 
L 34.268403 -219.625687 
L 34.992777 -219.625687 
L 35.71715 -219.625687 
L 36.441524 -219.625687 
L 37.165897 -219.625687 
L 37.890271 -219.625687 
L 38.614644 -219.625687 
L 39.339017 -219.625687 
L 40.063391 -219.625687 
L 40.787764 -219.625687 
L 41.512138 -219.625687 
L 42.236511 -219.625687 
L 42.960885 -219.625687 
L 43.685258 -219.625687 
L 44.409632 -219.625687 
L 45.134005 -219.625687 
L 45.858378 -219.625687 
L 46.582752 -219.625687 
L 47.307125 -219.625687 
L 48.031499 -219.625687 
L 48.755872 -219.625687 
L 49.480246 -219.625687 
L 50.204619 -219.625687 
L 50.928993 -219.625687 
L 51.653366 -219.625687 
L 52.377739 -219.625687 
L 53.102113 -219.625687 
L 53.826486 -219.625687 
L 54.55086 -219.625687 
L 55.275233 -219.625687 
L 55.999607 -219.625687 
L 56.72398 -219.625687 
L 57.448354 -219.625687 
L 58.172727 -219.625687 
L 58.897101 -219.625687 
L 59.621474 -219.625687 
L 60.345847 -219.625687 
L 61.070221 -219.625687 
L 61.794594 -219.625687 
L 62.518968 -219.625687 
L 63.243341 -219.625687 
L 63.967715 -219.625687 
L 64.692088 -219.625687 
L 65.416462 -219.625687 
L 66.140835 -219.625687 
L 66.865208 -219.625687 
L 67.589582 -219.625687 
L 68.313955 -219.625687 
L 69.038329 -219.625687 
L 69.762702 -219.625687 
L 70.487076 -219.625687 
L 71.211449 -219.625687 
L 71.935823 -219.625687 
L 72.660196 -219.625687 
L 73.384569 -219.625687 
L 74.108943 -219.625687 
L 74.833316 -219.625687 
L 75.55769 -219.625687 
L 76.282063 -219.625687 
L 77.006437 -219.625687 
L 77.73081 -219.625687 
L 78.455184 -219.625687 
L 79.179557 -219.625687 
L 79.90393 -219.625687 
L 80.628304 -219.625687 
L 81.352677 -219.625687 
L 82.077051 -219.625687 
L 82.801424 -219.625687 
L 83.525798 -219.625687 
L 84.250171 -219.625687 
L 84.974545 -219.625687 
L 85.698918 -219.625687 
L 86.423291 -219.625687 
L 87.147665 -219.625687 
L 87.872038 -219.625687 
L 88.596412 -219.625687 
L 89.320785 -219.625687 
L 90.045159 -219.625687 
L 90.769532 -219.625687 
L 91.493906 -219.625687 
L 92.218279 -219.625687 
L 92.942652 -219.625687 
L 93.667026 -219.625687 
L 94.391399 -219.625687 
L 95.115773 -219.625687 
L 95.840146 -219.625687 
L 96.56452 -219.625687 
L 97.288893 -219.625687 
L 98.013267 -219.625687 
L 98.73764 -219.625687 
L 99.462014 -219.625687 
L 100.186387 -219.625687 
L 100.91076 -219.625687 
L 101.635134 -219.625687 
L 102.359507 -219.625687 
L 103.083881 -219.625687 
L 103.808254 -219.625687 
L 104.532628 -219.625687 
L 105.257001 -219.625687 
L 105.981375 -219.625687 
L 106.705748 -219.625687 
L 107.430121 -219.625687 
L 108.154495 -219.625687 
L 108.878868 -219.625687 
L 109.603242 -219.625687 
L 110.327615 -219.625687 
L 111.051989 -219.625687 
L 111.776362 -219.625687 
L 112.500736 -219.625687 
L 113.225109 -219.625687 
L 113.949482 -219.625687 
L 114.673856 -219.625687 
L 115.398229 -219.625687 
L 116.122603 -219.625687 
L 116.846976 -219.625687 
L 117.57135 -219.625687 
L 118.295723 -219.625687 
L 119.020097 -219.625687 
L 119.74447 -219.625687 
L 120.468843 -219.625687 
L 121.193217 -219.625687 
L 121.91759 -219.625687 
L 122.641964 -219.625687 
L 123.366337 -219.625687 
L 124.090711 -219.625687 
L 124.815084 -219.625687 
L 125.539458 -219.625687 
L 126.263831 -219.625687 
L 126.988204 -219.625687 
L 127.712578 -219.625687 
L 128.436951 -219.625687 
L 129.161325 -219.625687 
L 129.885698 -219.625687 
L 130.610072 -219.625687 
L 131.334445 -219.625687 
L 132.058819 -219.625687 
L 132.783192 -219.625687 
L 133.507565 -219.625687 
L 134.231939 -219.625687 
L 134.956312 -219.625687 
L 135.680686 -219.625687 
L 136.405059 -219.625687 
L 137.129433 -219.625687 
L 137.853806 -219.625687 
L 138.57818 -219.625687 
L 139.302553 -219.625687 
L 140.026927 -219.625687 
L 140.7513 -219.625687 
L 141.475673 -219.625687 
L 142.200047 -219.625687 
L 142.92442 -219.625687 
L 143.648794 -219.625687 
L 144.373167 -219.625687 
L 145.097541 -219.625687 
L 145.821914 -219.625687 
L 146.546288 -219.625687 
L 147.270661 -219.625687 
L 147.995034 -219.625687 
L 148.719408 -219.625687 
L 149.443781 -219.625687 
L 150.168155 -219.625687 
L 150.892528 -219.625687 
L 151.616902 -219.625687 
L 152.341275 -219.625687 
L 153.065649 -219.625687 
L 153.790022 -219.625687 
L 154.514395 -219.625687 
L 155.238769 -219.625687 
L 155.963142 -219.625687 
L 156.687516 -219.625687 
L 157.411889 -219.625687 
L 158.136263 -219.625687 
L 158.860636 -219.625687 
L 159.58501 -219.625687 
L 160.309383 -219.625687 
L 161.033756 -219.625687 
L 161.75813 -219.625687 
L 162.482503 -219.625687 
L 162.482503 -223.136978 
L 162.482503 -223.136978 
L 161.75813 -223.148173 
L 161.033756 -223.156233 
L 160.309383 -223.161275 
L 159.58501 -223.163439 
L 158.860636 -223.162884 
L 158.136263 -223.159792 
L 157.411889 -223.154362 
L 156.687516 -223.146814 
L 155.963142 -223.137387 
L 155.238769 -223.126338 
L 154.514395 -223.113937 
L 153.790022 -223.100474 
L 153.065649 -223.086249 
L 152.341275 -223.071578 
L 151.616902 -223.056787 
L 150.892528 -223.042209 
L 150.168155 -223.02819 
L 149.443781 -223.015079 
L 148.719408 -223.003231 
L 147.995034 -222.993002 
L 147.270661 -222.984753 
L 146.546288 -222.97884 
L 145.821914 -222.97562 
L 145.097541 -222.975444 
L 144.373167 -222.978657 
L 143.648794 -222.985597 
L 142.92442 -222.996592 
L 142.200047 -223.011959 
L 141.475673 -223.032003 
L 140.7513 -223.057015 
L 140.026927 -223.087269 
L 139.302553 -223.123023 
L 138.57818 -223.164518 
L 137.853806 -223.211975 
L 137.129433 -223.265594 
L 136.405059 -223.325557 
L 135.680686 -223.392021 
L 134.956312 -223.465124 
L 134.231939 -223.544979 
L 133.507565 -223.63168 
L 132.783192 -223.725294 
L 132.058819 -223.82587 
L 131.334445 -223.93343 
L 130.610072 -224.047978 
L 129.885698 -224.169494 
L 129.161325 -224.29794 
L 128.436951 -224.433257 
L 127.712578 -224.575367 
L 126.988204 -224.724176 
L 126.263831 -224.879572 
L 125.539458 -225.041431 
L 124.815084 -225.209613 
L 124.090711 -225.383968 
L 123.366337 -225.564337 
L 122.641964 -225.750552 
L 121.91759 -225.94244 
L 121.193217 -226.139822 
L 120.468843 -226.342519 
L 119.74447 -226.55035 
L 119.020097 -226.763138 
L 118.295723 -226.980706 
L 117.57135 -227.202885 
L 116.846976 -227.429513 
L 116.122603 -227.660437 
L 115.398229 -227.895514 
L 114.673856 -228.134611 
L 113.949482 -228.377612 
L 113.225109 -228.624413 
L 112.500736 -228.874925 
L 111.776362 -229.129077 
L 111.051989 -229.386813 
L 110.327615 -229.648095 
L 109.603242 -229.912901 
L 108.878868 -230.181228 
L 108.154495 -230.453088 
L 107.430121 -230.72851 
L 106.705748 -231.007537 
L 105.981375 -231.290228 
L 105.257001 -231.576654 
L 104.532628 -231.866897 
L 103.808254 -232.161047 
L 103.083881 -232.459206 
L 102.359507 -232.761476 
L 101.635134 -233.067964 
L 100.91076 -233.378778 
L 100.186387 -233.694021 
L 99.462014 -234.013794 
L 98.73764 -234.338186 
L 98.013267 -234.667277 
L 97.288893 -235.001131 
L 96.56452 -235.339795 
L 95.840146 -235.683294 
L 95.115773 -236.031632 
L 94.391399 -236.384783 
L 93.667026 -236.742692 
L 92.942652 -237.105273 
L 92.218279 -237.472404 
L 91.493906 -237.843926 
L 90.769532 -238.219639 
L 90.045159 -238.599302 
L 89.320785 -238.982634 
L 88.596412 -239.369305 
L 87.872038 -239.758944 
L 87.147665 -240.15113 
L 86.423291 -240.545399 
L 85.698918 -240.94124 
L 84.974545 -241.338095 
L 84.250171 -241.735365 
L 83.525798 -242.132403 
L 82.801424 -242.528524 
L 82.077051 -242.923002 
L 81.352677 -243.315074 
L 80.628304 -243.703941 
L 79.90393 -244.088776 
L 79.179557 -244.468722 
L 78.455184 -244.842899 
L 77.73081 -245.210407 
L 77.006437 -245.57033 
L 76.282063 -245.921741 
L 75.55769 -246.263707 
L 74.833316 -246.595295 
L 74.108943 -246.915573 
L 73.384569 -247.22362 
L 72.660196 -247.518526 
L 71.935823 -247.799402 
L 71.211449 -248.065382 
L 70.487076 -248.315629 
L 69.762702 -248.549338 
L 69.038329 -248.765745 
L 68.313955 -248.964124 
L 67.589582 -249.1438 
L 66.865208 -249.304146 
L 66.140835 -249.444588 
L 65.416462 -249.564613 
L 64.692088 -249.663763 
L 63.967715 -249.741646 
L 63.243341 -249.797932 
L 62.518968 -249.832361 
L 61.794594 -249.844735 
L 61.070221 -249.834928 
L 60.345847 -249.802882 
L 59.621474 -249.748605 
L 58.897101 -249.672175 
L 58.172727 -249.573735 
L 57.448354 -249.453497 
L 56.72398 -249.311732 
L 55.999607 -249.148777 
L 55.275233 -248.965026 
L 54.55086 -248.76093 
L 53.826486 -248.536994 
L 53.102113 -248.293773 
L 52.377739 -248.031868 
L 51.653366 -247.751926 
L 50.928993 -247.454629 
L 50.204619 -247.140697 
L 49.480246 -246.810883 
L 48.755872 -246.465963 
L 48.031499 -246.106739 
L 47.307125 -245.734032 
L 46.582752 -245.348677 
L 45.858378 -244.95152 
L 45.134005 -244.543415 
L 44.409632 -244.125219 
L 43.685258 -243.69779 
L 42.960885 -243.26198 
L 42.236511 -242.818636 
L 41.512138 -242.368596 
L 40.787764 -241.912683 
L 40.063391 -241.451709 
L 39.339017 -240.986464 
L 38.614644 -240.517721 
L 37.890271 -240.046232 
L 37.165897 -239.572726 
L 36.441524 -239.097907 
L 35.71715 -238.622453 
L 34.992777 -238.147019 
L 34.268403 -237.672229 
L 33.54403 -237.198682 
L 32.819656 -236.72695 
L 32.095283 -236.257574 
L 31.37091 -235.791071 
L 30.646536 -235.327927 
L 29.922163 -234.868603 
L 29.197789 -234.413532 
L 28.473416 -233.963122 
L 27.749042 -233.517753 
L 27.024669 -233.077783 
L 26.300295 -232.643543 
L 25.575922 -232.215341 
L 24.851549 -231.793463 
L 24.127175 -231.378173 
L 23.402802 -230.969715 
L 22.678428 -230.568309 
L 21.954055 -230.17416 
L 21.229681 -229.787451 
L 20.505308 -229.408349 
L 19.780934 -229.037002 
L 19.056561 -228.673544 
L 18.332188 -228.318091 
z
" id="m4d3d2873f8" style="stroke:#8000ff;"/>
    </defs>
    <g clip-path="url(#p77f524b0f3)">
     <use style="fill:#8000ff;fill-opacity:0.25;stroke:#8000ff;" x="0" xlink:href="#m4d3d2873f8" y="287.715688"/>
    </g>
   </g>
   <g id="matplotlib.axis_3">
    <g id="xtick_6">
     <g id="line2d_6">
      <g>
       <use style="stroke:#000000;stroke-width:0.8;" x="18.332188" xlink:href="#m0e2ed6df3b" y="68.09"/>
      </g>
     </g>
    </g>
    <g id="xtick_7">
     <g id="line2d_7">
      <g>
       <use style="stroke:#000000;stroke-width:0.8;" x="94.045602" xlink:href="#m0e2ed6df3b" y="68.09"/>
      </g>
     </g>
    </g>
    <g id="xtick_8">
     <g id="line2d_8">
      <g>
       <use style="stroke:#000000;stroke-width:0.8;" x="169.759017" xlink:href="#m0e2ed6df3b" y="68.09"/>
      </g>
     </g>
    </g>
    <g id="xtick_9">
     <g id="line2d_9">
      <g>
       <use style="stroke:#000000;stroke-width:0.8;" x="245.472431" xlink:href="#m0e2ed6df3b" y="68.09"/>
      </g>
     </g>
    </g>
    <g id="xtick_10">
     <g id="line2d_10">
      <g>
       <use style="stroke:#000000;stroke-width:0.8;" x="321.185846" xlink:href="#m0e2ed6df3b" y="68.09"/>
      </g>
     </g>
    </g>
    <g id="text_24">
     <text style="font-family:DejaVu Sans;font-size:14px;font-stretch:normal;font-style:normal;font-weight:normal;text-anchor:end;" transform="rotate(-0, 321.185846, 81.727813)" x="321.185846" y="81.727813">1e−4</text>
    </g>
   </g>
   <g id="matplotlib.axis_4">
    <g id="ytick_1"/>
    <g id="ytick_2"/>
   </g>
   <g id="patch_6">
    <path d="M 10.760846 68.09 
L 321.185846 68.09 
" style="fill:none;stroke:#000000;stroke-linecap:square;stroke-linejoin:miter;stroke-width:0.8;"/>
   </g>
  </g>
  <g id="axes_3">
   <g id="patch_7">
    <path d="M 321.185846 226.74 
L 383.270846 226.74 
L 383.270846 68.09 
L 321.185846 68.09 
z
" style="fill:#ffffff;"/>
   </g>
   <g id="matplotlib.axis_5">
    <g id="xtick_11"/>
    <g id="xtick_12"/>
   </g>
   <g id="matplotlib.axis_6"/>
   <g id="patch_8">
    <path d="M 321.185846 226.74 
L 321.185846 68.09 
" style="fill:none;stroke:#000000;stroke-linecap:square;stroke-linejoin:miter;stroke-width:0.8;"/>
   </g>
  </g>
  <g id="text_25">
   <text style="font-family:DejaVu Sans;font-size:16.8px;font-stretch:normal;font-style:normal;font-weight:bold;text-anchor:middle;" transform="rotate(-0, 160.790846, 19.965375)" x="160.790846" y="19.965375">0.PRE</text>
  </g>
 </g>
 <defs>
  <clipPath id="p297f10389f">
   <rect height="158.65" width="310.425" x="10.760846" y="68.09"/>
  </clipPath>
  <clipPath id="p77f524b0f3">
   <rect height="31.73" width="310.425" x="10.760846" y="36.36"/>
  </clipPath>
 </defs>
</svg>
