<?xml version="1.0" encoding="utf-8" standalone="no"?>
<!DOCTYPE svg PUBLIC "-//W3C//DTD SVG 1.1//EN"
  "http://www.w3.org/Graphics/SVG/1.1/DTD/svg11.dtd">
<!-- Created with matplotlib (https://matplotlib.org/) -->
<svg height="287.715688pt" version="1.1" viewBox="0 0 390.41 287.715688" width="390.41pt" xmlns="http://www.w3.org/2000/svg" xmlns:xlink="http://www.w3.org/1999/xlink">
 <metadata>
  <rdf:RDF xmlns:cc="http://creativecommons.org/ns#" xmlns:dc="http://purl.org/dc/elements/1.1/" xmlns:rdf="http://www.w3.org/1999/02/22-rdf-syntax-ns#">
   <cc:Work>
    <dc:type rdf:resource="http://purl.org/dc/dcmitype/StillImage"/>
    <dc:date>2021-09-29T11:15:43.367052</dc:date>
    <dc:format>image/svg+xml</dc:format>
    <dc:creator>
     <cc:Agent>
      <dc:title>Matplotlib v3.3.2, https://matplotlib.org/</dc:title>
     </cc:Agent>
    </dc:creator>
   </cc:Work>
  </rdf:RDF>
 </metadata>
 <defs>
  <style type="text/css">*{stroke-linecap:butt;stroke-linejoin:round;}</style>
 </defs>
 <g id="figure_1">
  <g id="patch_1">
   <path d="M 0 287.715688 
L 390.41 287.715688 
L 390.41 0 
L 0 0 
z
" style="fill:#ffffff;"/>
  </g>
  <g id="axes_1">
   <g id="patch_2">
    <path d="M 10.7 226.74 
L 321.125 226.74 
L 321.125 68.09 
L 10.7 68.09 
z
" style="fill:#ffffff;"/>
   </g>
   <g id="matplotlib.axis_1">
    <g id="xtick_1">
     <g id="line2d_1">
      <defs>
       <path d="M 0 0 
L 0 3.5 
" id="mac6abf890d" style="stroke:#000000;stroke-width:0.8;"/>
      </defs>
      <g>
       <use style="stroke:#000000;stroke-width:0.8;" x="31.395" xlink:href="#mac6abf890d" y="226.74"/>
      </g>
     </g>
     <g id="text_1">
      <text style="font-family:DejaVu Sans;font-size:14px;font-stretch:normal;font-style:normal;font-weight:normal;text-anchor:middle;" transform="rotate(-0, 31.395, 244.377813)" x="31.395" y="244.377813">0</text>
     </g>
    </g>
    <g id="xtick_2">
     <g id="line2d_2">
      <g>
       <use style="stroke:#000000;stroke-width:0.8;" x="114.175" xlink:href="#mac6abf890d" y="226.74"/>
      </g>
     </g>
     <g id="text_2">
      <text style="font-family:DejaVu Sans;font-size:14px;font-stretch:normal;font-style:normal;font-weight:normal;text-anchor:middle;" transform="rotate(-0, 114.175, 244.377813)" x="114.175" y="244.377813">2</text>
     </g>
    </g>
    <g id="xtick_3">
     <g id="line2d_3">
      <g>
       <use style="stroke:#000000;stroke-width:0.8;" x="196.955" xlink:href="#mac6abf890d" y="226.74"/>
      </g>
     </g>
     <g id="text_3">
      <text style="font-family:DejaVu Sans;font-size:14px;font-stretch:normal;font-style:normal;font-weight:normal;text-anchor:middle;" transform="rotate(-0, 196.955, 244.377813)" x="196.955" y="244.377813">4</text>
     </g>
    </g>
    <g id="xtick_4">
     <g id="line2d_4">
      <g>
       <use style="stroke:#000000;stroke-width:0.8;" x="279.735" xlink:href="#mac6abf890d" y="226.74"/>
      </g>
     </g>
     <g id="text_4">
      <text style="font-family:DejaVu Sans;font-size:14px;font-stretch:normal;font-style:normal;font-weight:normal;text-anchor:middle;" transform="rotate(-0, 279.735, 244.377813)" x="279.735" y="244.377813">6</text>
     </g>
    </g>
    <g id="text_5">
     <text style="font-family:DejaVu Sans;font-size:14px;font-stretch:normal;font-style:normal;font-weight:normal;" transform="translate(89.885938 261.927188)">Distance to the MRCA</text>
     <text style="font-family:DejaVu Sans;font-size:14px;font-stretch:normal;font-style:normal;font-weight:normal;" transform="translate(98.757344 277.604125)">(Substitutions/Site)</text>
    </g>
    <g id="text_6">
     <text style="font-family:DejaVu Sans;font-size:14px;font-stretch:normal;font-style:normal;font-weight:normal;text-anchor:end;" transform="rotate(-0, 321.125, 260.927188)" x="321.125" y="260.927188">1e−5</text>
    </g>
   </g>
   <g id="matplotlib.axis_2"/>
   <g id="LineCollection_1">
    <path clip-path="url(#pf586e7f6c6)" d="M 31.395 170.031458 
L 31.395 170.031458 
" style="fill:none;stroke:#3ae8d7;"/>
   </g>
   <g id="LineCollection_2">
    <path clip-path="url(#pf586e7f6c6)" d="M 31.395 145.634177 
L 47.970039 145.634177 
" style="fill:none;stroke:#3ae8d7;"/>
   </g>
   <g id="LineCollection_3">
    <path clip-path="url(#pf586e7f6c6)" d="M 47.970039 132.456083 
L 50.895071 132.456083 
" style="fill:none;stroke:#3ae8d7;"/>
   </g>
   <g id="LineCollection_4">
    <path clip-path="url(#pf586e7f6c6)" d="M 50.895071 117.497166 
L 53.820102 117.497166 
" style="fill:none;stroke:#3ae8d7;"/>
   </g>
   <g id="LineCollection_5">
    <path clip-path="url(#pf586e7f6c6)" d="M 53.820102 104.675237 
L 54.79525 104.675237 
" style="fill:none;stroke:#3ae8d7;"/>
   </g>
   <g id="LineCollection_6">
    <path clip-path="url(#pf586e7f6c6)" d="M 54.79525 96.127284 
L 56.745133 96.127284 
" style="fill:none;stroke:#3ae8d7;"/>
   </g>
   <g id="LineCollection_7">
    <path clip-path="url(#pf586e7f6c6)" d="M 56.745133 90.428649 
L 58.695016 90.428649 
" style="fill:none;stroke:#3ae8d7;"/>
   </g>
   <g id="LineCollection_8">
    <path clip-path="url(#pf586e7f6c6)" d="M 56.745133 101.82592 
L 61.620048 101.82592 
" style="fill:none;stroke:#3ae8d7;"/>
   </g>
   <g id="LineCollection_9">
    <path clip-path="url(#pf586e7f6c6)" d="M 54.79525 113.22319 
L 70.395141 113.22319 
" style="fill:none;stroke:#3ae8d7;"/>
   </g>
   <g id="LineCollection_10">
    <path clip-path="url(#pf586e7f6c6)" d="M 53.820102 130.319095 
L 65.520227 130.319095 
" style="fill:none;stroke:#3ae8d7;"/>
   </g>
   <g id="LineCollection_11">
    <path clip-path="url(#pf586e7f6c6)" d="M 65.520227 124.62046 
L 69.420407 124.62046 
" style="fill:none;stroke:#3ae8d7;"/>
   </g>
   <g id="LineCollection_12">
    <path clip-path="url(#pf586e7f6c6)" d="M 65.520227 136.01773 
L 65.617908 136.01773 
" style="fill:none;stroke:#3ae8d7;"/>
   </g>
   <g id="LineCollection_13">
    <path clip-path="url(#pf586e7f6c6)" d="M 50.895071 147.415 
L 59.670165 147.415 
" style="fill:none;stroke:#3ae8d7;"/>
   </g>
   <g id="LineCollection_14">
    <path clip-path="url(#pf586e7f6c6)" d="M 47.970039 158.81227 
L 58.695016 158.81227 
" style="fill:none;stroke:#3ae8d7;"/>
   </g>
   <g id="LineCollection_15">
    <path clip-path="url(#pf586e7f6c6)" d="M 31.395 194.428739 
L 32.370148 194.428739 
" style="fill:none;stroke:#3ae8d7;"/>
   </g>
   <g id="LineCollection_16">
    <path clip-path="url(#pf586e7f6c6)" d="M 32.370148 184.456128 
L 42.983372 184.456128 
" style="fill:none;stroke:#3ae8d7;"/>
   </g>
   <g id="LineCollection_17">
    <path clip-path="url(#pf586e7f6c6)" d="M 42.983372 175.908175 
L 43.958521 175.908175 
" style="fill:none;stroke:#3ae8d7;"/>
   </g>
   <g id="LineCollection_18">
    <path clip-path="url(#pf586e7f6c6)" d="M 43.958521 170.20954 
L 47.8587 170.20954 
" style="fill:none;stroke:#3ae8d7;"/>
   </g>
   <g id="LineCollection_19">
    <path clip-path="url(#pf586e7f6c6)" d="M 43.958521 181.60681 
L 47.8587 181.60681 
" style="fill:none;stroke:#3ae8d7;"/>
   </g>
   <g id="LineCollection_20">
    <path clip-path="url(#pf586e7f6c6)" d="M 42.983372 193.00408 
L 47.858286 193.00408 
" style="fill:none;stroke:#3ae8d7;"/>
   </g>
   <g id="LineCollection_21">
    <path clip-path="url(#pf586e7f6c6)" d="M 32.370148 204.401351 
L 43.095125 204.401351 
" style="fill:none;stroke:#3ae8d7;"/>
   </g>
   <g id="LineCollection_22">
    <path clip-path="url(#pf586e7f6c6)" d="M 31.395 194.428739 
L 31.395 145.634177 
" style="fill:none;stroke:#3ae8d7;"/>
   </g>
   <g id="LineCollection_23">
    <path clip-path="url(#pf586e7f6c6)" d="M 47.970039 158.81227 
L 47.970039 132.456083 
" style="fill:none;stroke:#3ae8d7;"/>
   </g>
   <g id="LineCollection_24">
    <path clip-path="url(#pf586e7f6c6)" d="M 50.895071 147.415 
L 50.895071 117.497166 
" style="fill:none;stroke:#3ae8d7;"/>
   </g>
   <g id="LineCollection_25">
    <path clip-path="url(#pf586e7f6c6)" d="M 53.820102 130.319095 
L 53.820102 104.675237 
" style="fill:none;stroke:#3ae8d7;"/>
   </g>
   <g id="LineCollection_26">
    <path clip-path="url(#pf586e7f6c6)" d="M 54.79525 113.22319 
L 54.79525 96.127284 
" style="fill:none;stroke:#3ae8d7;"/>
   </g>
   <g id="LineCollection_27">
    <path clip-path="url(#pf586e7f6c6)" d="M 56.745133 101.82592 
L 56.745133 90.428649 
" style="fill:none;stroke:#3ae8d7;"/>
   </g>
   <g id="LineCollection_28">
    <path clip-path="url(#pf586e7f6c6)" d="M 65.520227 136.01773 
L 65.520227 124.62046 
" style="fill:none;stroke:#3ae8d7;"/>
   </g>
   <g id="LineCollection_29">
    <path clip-path="url(#pf586e7f6c6)" d="M 32.370148 204.401351 
L 32.370148 184.456128 
" style="fill:none;stroke:#3ae8d7;"/>
   </g>
   <g id="LineCollection_30">
    <path clip-path="url(#pf586e7f6c6)" d="M 42.983372 193.00408 
L 42.983372 175.908175 
" style="fill:none;stroke:#3ae8d7;"/>
   </g>
   <g id="LineCollection_31">
    <path clip-path="url(#pf586e7f6c6)" d="M 43.958521 181.60681 
L 43.958521 170.20954 
" style="fill:none;stroke:#3ae8d7;"/>
   </g>
   <g id="PathCollection_1">
    <defs>
     <path d="M 0 1.581139 
C 0.419323 1.581139 0.821528 1.41454 1.118034 1.118034 
C 1.41454 0.821528 1.581139 0.419323 1.581139 -0 
C 1.581139 -0.419323 1.41454 -0.821528 1.118034 -1.118034 
C 0.821528 -1.41454 0.419323 -1.581139 0 -1.581139 
C -0.419323 -1.581139 -0.821528 -1.41454 -1.118034 -1.118034 
C -1.41454 -0.821528 -1.581139 -0.419323 -1.581139 0 
C -1.581139 0.419323 -1.41454 0.821528 -1.118034 1.118034 
C -0.821528 1.41454 -0.419323 1.581139 0 1.581139 
z
" id="C0_0_c9290d880d"/>
    </defs>
    <g clip-path="url(#pf586e7f6c6)">
     <use style="fill:#3ae8d7;stroke:#000000;stroke-width:0.252982;" x="58.695016" xlink:href="#C0_0_c9290d880d" y="90.428649"/>
    </g>
    <g clip-path="url(#pf586e7f6c6)">
     <use style="fill:#3ae8d7;stroke:#000000;stroke-width:0.252982;" x="61.620048" xlink:href="#C0_0_c9290d880d" y="101.82592"/>
    </g>
    <g clip-path="url(#pf586e7f6c6)">
     <use style="fill:#3ae8d7;stroke:#000000;stroke-width:0.252982;" x="70.395141" xlink:href="#C0_0_c9290d880d" y="113.22319"/>
    </g>
    <g clip-path="url(#pf586e7f6c6)">
     <use style="fill:#3ae8d7;stroke:#000000;stroke-width:0.252982;" x="69.420407" xlink:href="#C0_0_c9290d880d" y="124.62046"/>
    </g>
    <g clip-path="url(#pf586e7f6c6)">
     <use style="fill:#3ae8d7;stroke:#000000;stroke-width:0.252982;" x="65.617908" xlink:href="#C0_0_c9290d880d" y="136.01773"/>
    </g>
    <g clip-path="url(#pf586e7f6c6)">
     <use style="fill:#3ae8d7;stroke:#000000;stroke-width:0.252982;" x="59.670165" xlink:href="#C0_0_c9290d880d" y="147.415"/>
    </g>
    <g clip-path="url(#pf586e7f6c6)">
     <use style="fill:#3ae8d7;stroke:#000000;stroke-width:0.252982;" x="58.695016" xlink:href="#C0_0_c9290d880d" y="158.81227"/>
    </g>
    <g clip-path="url(#pf586e7f6c6)">
     <use style="fill:#3ae8d7;stroke:#000000;stroke-width:0.252982;" x="47.8587" xlink:href="#C0_0_c9290d880d" y="170.20954"/>
    </g>
    <g clip-path="url(#pf586e7f6c6)">
     <use style="fill:#3ae8d7;stroke:#000000;stroke-width:0.252982;" x="47.8587" xlink:href="#C0_0_c9290d880d" y="181.60681"/>
    </g>
    <g clip-path="url(#pf586e7f6c6)">
     <use style="fill:#3ae8d7;stroke:#000000;stroke-width:0.252982;" x="47.858286" xlink:href="#C0_0_c9290d880d" y="193.00408"/>
    </g>
    <g clip-path="url(#pf586e7f6c6)">
     <use style="fill:#3ae8d7;stroke:#000000;stroke-width:0.252982;" x="43.095125" xlink:href="#C0_0_c9290d880d" y="204.401351"/>
    </g>
   </g>
   <g id="patch_3">
    <path d="M 10.7 226.74 
L 10.7 68.09 
" style="fill:none;stroke:#000000;stroke-linecap:square;stroke-linejoin:miter;stroke-width:0.8;"/>
   </g>
   <g id="patch_4">
    <path d="M 10.7 226.74 
L 321.125 226.74 
" style="fill:none;stroke:#000000;stroke-linecap:square;stroke-linejoin:miter;stroke-width:0.8;"/>
   </g>
   <g id="text_7">
    <text style="font-family:DejaVu Sans;font-size:14px;font-stretch:normal;font-style:normal;font-weight:normal;text-anchor:start;" transform="rotate(-0, 31.395, 173.894583)" x="31.395" y="173.894583"> </text>
   </g>
   <g id="text_8">
    <text style="font-family:DejaVu Sans;font-size:14px;font-stretch:normal;font-style:normal;font-weight:normal;text-anchor:start;" transform="rotate(-0, 47.970039, 149.497302)" x="47.970039" y="149.497302"> </text>
   </g>
   <g id="text_9">
    <text style="font-family:DejaVu Sans;font-size:14px;font-stretch:normal;font-style:normal;font-weight:normal;text-anchor:start;" transform="rotate(-0, 50.895071, 136.319208)" x="50.895071" y="136.319208"> </text>
   </g>
   <g id="text_10">
    <text style="font-family:DejaVu Sans;font-size:14px;font-stretch:normal;font-style:normal;font-weight:normal;text-anchor:start;" transform="rotate(-0, 53.820102, 121.360291)" x="53.820102" y="121.360291"> </text>
   </g>
   <g id="text_11">
    <text style="font-family:DejaVu Sans;font-size:14px;font-stretch:normal;font-style:normal;font-weight:normal;text-anchor:start;" transform="rotate(-0, 54.79525, 108.538362)" x="54.79525" y="108.538362"> </text>
   </g>
   <g id="text_12">
    <text style="font-family:DejaVu Sans;font-size:14px;font-stretch:normal;font-style:normal;font-weight:normal;text-anchor:start;" transform="rotate(-0, 56.745133, 99.990409)" x="56.745133" y="99.990409"> </text>
   </g>
   <g id="text_13">
    <text style="font-family:DejaVu Sans;font-size:14px;font-stretch:normal;font-style:normal;font-weight:normal;text-anchor:start;" transform="rotate(-0, 58.695016, 94.291774)" x="58.695016" y="94.291774"> </text>
   </g>
   <g id="text_14">
    <text style="font-family:DejaVu Sans;font-size:14px;font-stretch:normal;font-style:normal;font-weight:normal;text-anchor:start;" transform="rotate(-0, 61.620048, 105.689045)" x="61.620048" y="105.689045"> </text>
   </g>
   <g id="text_15">
    <text style="font-family:DejaVu Sans;font-size:14px;font-stretch:normal;font-style:normal;font-weight:normal;text-anchor:start;" transform="rotate(-0, 70.395141, 117.086315)" x="70.395141" y="117.086315"> </text>
   </g>
   <g id="text_16">
    <text style="font-family:DejaVu Sans;font-size:14px;font-stretch:normal;font-style:normal;font-weight:normal;text-anchor:start;" transform="rotate(-0, 65.520227, 134.18222)" x="65.520227" y="134.18222"> </text>
   </g>
   <g id="text_17">
    <text style="font-family:DejaVu Sans;font-size:14px;font-stretch:normal;font-style:normal;font-weight:normal;text-anchor:start;" transform="rotate(-0, 69.420407, 128.483585)" x="69.420407" y="128.483585"> </text>
   </g>
   <g id="text_18">
    <text style="font-family:DejaVu Sans;font-size:14px;font-stretch:normal;font-style:normal;font-weight:normal;text-anchor:start;" transform="rotate(-0, 65.617908, 139.880855)" x="65.617908" y="139.880855"> </text>
   </g>
   <g id="text_19">
    <text style="font-family:DejaVu Sans;font-size:14px;font-stretch:normal;font-style:normal;font-weight:normal;text-anchor:start;" transform="rotate(-0, 59.670165, 151.278125)" x="59.670165" y="151.278125"> </text>
   </g>
   <g id="text_20">
    <text style="font-family:DejaVu Sans;font-size:14px;font-stretch:normal;font-style:normal;font-weight:normal;text-anchor:start;" transform="rotate(-0, 58.695016, 162.675395)" x="58.695016" y="162.675395"> </text>
   </g>
   <g id="text_21">
    <text style="font-family:DejaVu Sans;font-size:14px;font-stretch:normal;font-style:normal;font-weight:normal;text-anchor:start;" transform="rotate(-0, 32.370148, 198.291864)" x="32.370148" y="198.291864"> </text>
   </g>
   <g id="text_22">
    <text style="font-family:DejaVu Sans;font-size:14px;font-stretch:normal;font-style:normal;font-weight:normal;text-anchor:start;" transform="rotate(-0, 42.983372, 188.319253)" x="42.983372" y="188.319253"> </text>
   </g>
   <g id="text_23">
    <text style="font-family:DejaVu Sans;font-size:14px;font-stretch:normal;font-style:normal;font-weight:normal;text-anchor:start;" transform="rotate(-0, 43.958521, 179.7713)" x="43.958521" y="179.7713"> </text>
   </g>
   <g id="text_24">
    <text style="font-family:DejaVu Sans;font-size:14px;font-stretch:normal;font-style:normal;font-weight:normal;text-anchor:start;" transform="rotate(-0, 47.8587, 174.072665)" x="47.8587" y="174.072665"> </text>
   </g>
   <g id="text_25">
    <text style="font-family:DejaVu Sans;font-size:14px;font-stretch:normal;font-style:normal;font-weight:normal;text-anchor:start;" transform="rotate(-0, 47.8587, 185.469935)" x="47.8587" y="185.469935"> </text>
   </g>
   <g id="text_26">
    <text style="font-family:DejaVu Sans;font-size:14px;font-stretch:normal;font-style:normal;font-weight:normal;text-anchor:start;" transform="rotate(-0, 47.858286, 196.867205)" x="47.858286" y="196.867205"> </text>
   </g>
   <g id="text_27">
    <text style="font-family:DejaVu Sans;font-size:14px;font-stretch:normal;font-style:normal;font-weight:normal;text-anchor:start;" transform="rotate(-0, 43.095125, 208.264476)" x="43.095125" y="208.264476"> </text>
   </g>
   <g id="text_28">
    <text style="font-family:DejaVu Sans;font-size:16.8px;font-stretch:normal;font-style:normal;font-weight:normal;text-anchor:middle;" transform="rotate(-0, 165.9125, 62.09)" x="165.9125" y="62.09">NODE211</text>
   </g>
  </g>
  <g id="axes_2">
   <g id="patch_5">
    <path d="M 10.7 68.09 
L 321.125 68.09 
L 321.125 36.36 
L 10.7 36.36 
z
" style="fill:#ffffff;"/>
   </g>
   <g id="PolyCollection_1">
    <defs>
     <path d="M 31.395 -224.009817 
L 31.395 -219.625687 
L 31.590981 -219.625687 
L 31.786961 -219.625687 
L 31.982942 -219.625687 
L 32.178922 -219.625687 
L 32.374903 -219.625687 
L 32.570884 -219.625687 
L 32.766864 -219.625687 
L 32.962845 -219.625687 
L 33.158825 -219.625687 
L 33.354806 -219.625687 
L 33.550787 -219.625687 
L 33.746767 -219.625687 
L 33.942748 -219.625687 
L 34.138729 -219.625687 
L 34.334709 -219.625687 
L 34.53069 -219.625687 
L 34.72667 -219.625687 
L 34.922651 -219.625687 
L 35.118632 -219.625687 
L 35.314612 -219.625687 
L 35.510593 -219.625687 
L 35.706573 -219.625687 
L 35.902554 -219.625687 
L 36.098535 -219.625687 
L 36.294515 -219.625687 
L 36.490496 -219.625687 
L 36.686476 -219.625687 
L 36.882457 -219.625687 
L 37.078438 -219.625687 
L 37.274418 -219.625687 
L 37.470399 -219.625687 
L 37.66638 -219.625687 
L 37.86236 -219.625687 
L 38.058341 -219.625687 
L 38.254321 -219.625687 
L 38.450302 -219.625687 
L 38.646283 -219.625687 
L 38.842263 -219.625687 
L 39.038244 -219.625687 
L 39.234224 -219.625687 
L 39.430205 -219.625687 
L 39.626186 -219.625687 
L 39.822166 -219.625687 
L 40.018147 -219.625687 
L 40.214127 -219.625687 
L 40.410108 -219.625687 
L 40.606089 -219.625687 
L 40.802069 -219.625687 
L 40.99805 -219.625687 
L 41.194031 -219.625687 
L 41.390011 -219.625687 
L 41.585992 -219.625687 
L 41.781972 -219.625687 
L 41.977953 -219.625687 
L 42.173934 -219.625687 
L 42.369914 -219.625687 
L 42.565895 -219.625687 
L 42.761875 -219.625687 
L 42.957856 -219.625687 
L 43.153837 -219.625687 
L 43.349817 -219.625687 
L 43.545798 -219.625687 
L 43.741778 -219.625687 
L 43.937759 -219.625687 
L 44.13374 -219.625687 
L 44.32972 -219.625687 
L 44.525701 -219.625687 
L 44.721681 -219.625687 
L 44.917662 -219.625687 
L 45.113643 -219.625687 
L 45.309623 -219.625687 
L 45.505604 -219.625687 
L 45.701585 -219.625687 
L 45.897565 -219.625687 
L 46.093546 -219.625687 
L 46.289526 -219.625687 
L 46.485507 -219.625687 
L 46.681488 -219.625687 
L 46.877468 -219.625687 
L 47.073449 -219.625687 
L 47.269429 -219.625687 
L 47.46541 -219.625687 
L 47.661391 -219.625687 
L 47.857371 -219.625687 
L 48.053352 -219.625687 
L 48.249332 -219.625687 
L 48.445313 -219.625687 
L 48.641294 -219.625687 
L 48.837274 -219.625687 
L 49.033255 -219.625687 
L 49.229236 -219.625687 
L 49.425216 -219.625687 
L 49.621197 -219.625687 
L 49.817177 -219.625687 
L 50.013158 -219.625687 
L 50.209139 -219.625687 
L 50.405119 -219.625687 
L 50.6011 -219.625687 
L 50.79708 -219.625687 
L 50.993061 -219.625687 
L 51.189042 -219.625687 
L 51.385022 -219.625687 
L 51.581003 -219.625687 
L 51.776983 -219.625687 
L 51.972964 -219.625687 
L 52.168945 -219.625687 
L 52.364925 -219.625687 
L 52.560906 -219.625687 
L 52.756886 -219.625687 
L 52.952867 -219.625687 
L 53.148848 -219.625687 
L 53.344828 -219.625687 
L 53.540809 -219.625687 
L 53.73679 -219.625687 
L 53.93277 -219.625687 
L 54.128751 -219.625687 
L 54.324731 -219.625687 
L 54.520712 -219.625687 
L 54.716693 -219.625687 
L 54.912673 -219.625687 
L 55.108654 -219.625687 
L 55.304634 -219.625687 
L 55.500615 -219.625687 
L 55.696596 -219.625687 
L 55.892576 -219.625687 
L 56.088557 -219.625687 
L 56.284537 -219.625687 
L 56.480518 -219.625687 
L 56.676499 -219.625687 
L 56.872479 -219.625687 
L 57.06846 -219.625687 
L 57.264441 -219.625687 
L 57.460421 -219.625687 
L 57.656402 -219.625687 
L 57.852382 -219.625687 
L 58.048363 -219.625687 
L 58.244344 -219.625687 
L 58.440324 -219.625687 
L 58.636305 -219.625687 
L 58.832285 -219.625687 
L 59.028266 -219.625687 
L 59.224247 -219.625687 
L 59.420227 -219.625687 
L 59.616208 -219.625687 
L 59.812188 -219.625687 
L 60.008169 -219.625687 
L 60.20415 -219.625687 
L 60.40013 -219.625687 
L 60.596111 -219.625687 
L 60.792092 -219.625687 
L 60.988072 -219.625687 
L 61.184053 -219.625687 
L 61.380033 -219.625687 
L 61.576014 -219.625687 
L 61.771995 -219.625687 
L 61.967975 -219.625687 
L 62.163956 -219.625687 
L 62.359936 -219.625687 
L 62.555917 -219.625687 
L 62.751898 -219.625687 
L 62.947878 -219.625687 
L 63.143859 -219.625687 
L 63.339839 -219.625687 
L 63.53582 -219.625687 
L 63.731801 -219.625687 
L 63.927781 -219.625687 
L 64.123762 -219.625687 
L 64.319742 -219.625687 
L 64.515723 -219.625687 
L 64.711704 -219.625687 
L 64.907684 -219.625687 
L 65.103665 -219.625687 
L 65.299646 -219.625687 
L 65.495626 -219.625687 
L 65.691607 -219.625687 
L 65.887587 -219.625687 
L 66.083568 -219.625687 
L 66.279549 -219.625687 
L 66.475529 -219.625687 
L 66.67151 -219.625687 
L 66.86749 -219.625687 
L 67.063471 -219.625687 
L 67.259452 -219.625687 
L 67.455432 -219.625687 
L 67.651413 -219.625687 
L 67.847393 -219.625687 
L 68.043374 -219.625687 
L 68.239355 -219.625687 
L 68.435335 -219.625687 
L 68.631316 -219.625687 
L 68.827297 -219.625687 
L 69.023277 -219.625687 
L 69.219258 -219.625687 
L 69.415238 -219.625687 
L 69.611219 -219.625687 
L 69.8072 -219.625687 
L 70.00318 -219.625687 
L 70.199161 -219.625687 
L 70.395141 -219.625687 
L 70.395141 -233.164324 
L 70.395141 -233.164324 
L 70.199161 -233.492296 
L 70.00318 -233.81916 
L 69.8072 -234.144699 
L 69.611219 -234.468713 
L 69.415238 -234.791018 
L 69.219258 -235.11144 
L 69.023277 -235.429825 
L 68.827297 -235.746031 
L 68.631316 -236.059932 
L 68.435335 -236.371415 
L 68.239355 -236.680381 
L 68.043374 -236.986744 
L 67.847393 -237.290431 
L 67.651413 -237.59138 
L 67.455432 -237.889538 
L 67.259452 -238.184863 
L 67.063471 -238.47732 
L 66.86749 -238.766882 
L 66.67151 -239.053526 
L 66.475529 -239.337236 
L 66.279549 -239.617995 
L 66.083568 -239.895793 
L 65.887587 -240.170617 
L 65.691607 -240.442453 
L 65.495626 -240.711289 
L 65.299646 -240.977105 
L 65.103665 -241.239882 
L 64.907684 -241.499593 
L 64.711704 -241.756207 
L 64.515723 -242.009686 
L 64.319742 -242.259985 
L 64.123762 -242.507054 
L 63.927781 -242.750833 
L 63.731801 -242.991255 
L 63.53582 -243.228248 
L 63.339839 -243.46173 
L 63.143859 -243.691613 
L 62.947878 -243.917804 
L 62.751898 -244.140203 
L 62.555917 -244.358706 
L 62.359936 -244.573205 
L 62.163956 -244.783589 
L 61.967975 -244.989745 
L 61.771995 -245.191562 
L 61.576014 -245.388927 
L 61.380033 -245.58173 
L 61.184053 -245.769867 
L 60.988072 -245.953237 
L 60.792092 -246.131746 
L 60.596111 -246.305309 
L 60.40013 -246.473848 
L 60.20415 -246.6373 
L 60.008169 -246.79561 
L 59.812188 -246.948737 
L 59.616208 -247.096654 
L 59.420227 -247.239351 
L 59.224247 -247.37683 
L 59.028266 -247.509112 
L 58.832285 -247.636233 
L 58.636305 -247.758245 
L 58.440324 -247.875218 
L 58.244344 -247.987238 
L 58.048363 -248.094404 
L 57.852382 -248.196835 
L 57.656402 -248.29466 
L 57.460421 -248.388022 
L 57.264441 -248.477078 
L 57.06846 -248.561992 
L 56.872479 -248.642938 
L 56.676499 -248.720098 
L 56.480518 -248.793656 
L 56.284537 -248.863801 
L 56.088557 -248.930722 
L 55.892576 -248.994604 
L 55.696596 -249.055631 
L 55.500615 -249.113976 
L 55.304634 -249.169807 
L 55.108654 -249.223278 
L 54.912673 -249.274529 
L 54.716693 -249.323683 
L 54.520712 -249.370846 
L 54.324731 -249.416101 
L 54.128751 -249.45951 
L 53.93277 -249.501109 
L 53.73679 -249.540908 
L 53.540809 -249.578889 
L 53.344828 -249.615004 
L 53.148848 -249.649175 
L 52.952867 -249.681296 
L 52.756886 -249.711225 
L 52.560906 -249.738791 
L 52.364925 -249.763791 
L 52.168945 -249.785992 
L 51.972964 -249.805128 
L 51.776983 -249.820906 
L 51.581003 -249.833003 
L 51.385022 -249.841071 
L 51.189042 -249.844735 
L 50.993061 -249.843599 
L 50.79708 -249.837246 
L 50.6011 -249.825241 
L 50.405119 -249.807133 
L 50.209139 -249.78246 
L 50.013158 -249.750751 
L 49.817177 -249.711529 
L 49.621197 -249.664313 
L 49.425216 -249.608627 
L 49.229236 -249.543995 
L 49.033255 -249.469952 
L 48.837274 -249.386044 
L 48.641294 -249.291834 
L 48.445313 -249.186902 
L 48.249332 -249.070851 
L 48.053352 -248.94331 
L 47.857371 -248.803937 
L 47.661391 -248.652423 
L 47.46541 -248.488492 
L 47.269429 -248.311907 
L 47.073449 -248.122472 
L 46.877468 -247.920031 
L 46.681488 -247.704474 
L 46.485507 -247.475738 
L 46.289526 -247.233804 
L 46.093546 -246.978706 
L 45.897565 -246.710524 
L 45.701585 -246.429388 
L 45.505604 -246.135481 
L 45.309623 -245.829032 
L 45.113643 -245.510323 
L 44.917662 -245.179681 
L 44.721681 -244.837482 
L 44.525701 -244.484151 
L 44.32972 -244.120152 
L 44.13374 -243.745996 
L 43.937759 -243.362231 
L 43.741778 -242.969445 
L 43.545798 -242.568261 
L 43.349817 -242.159331 
L 43.153837 -241.74334 
L 42.957856 -241.320996 
L 42.761875 -240.893031 
L 42.565895 -240.460193 
L 42.369914 -240.023247 
L 42.173934 -239.582969 
L 41.977953 -239.140142 
L 41.781972 -238.695552 
L 41.585992 -238.249985 
L 41.390011 -237.804224 
L 41.194031 -237.359043 
L 40.99805 -236.915203 
L 40.802069 -236.473453 
L 40.606089 -236.034522 
L 40.410108 -235.599115 
L 40.214127 -235.167914 
L 40.018147 -234.741574 
L 39.822166 -234.320716 
L 39.626186 -233.905929 
L 39.430205 -233.497768 
L 39.234224 -233.096747 
L 39.038244 -232.703342 
L 38.842263 -232.317988 
L 38.646283 -231.941078 
L 38.450302 -231.57296 
L 38.254321 -231.213939 
L 38.058341 -230.864275 
L 37.86236 -230.524183 
L 37.66638 -230.193835 
L 37.470399 -229.873356 
L 37.274418 -229.562831 
L 37.078438 -229.262299 
L 36.882457 -228.97176 
L 36.686476 -228.691174 
L 36.490496 -228.420462 
L 36.294515 -228.159508 
L 36.098535 -227.908162 
L 35.902554 -227.666243 
L 35.706573 -227.433538 
L 35.510593 -227.209809 
L 35.314612 -226.99479 
L 35.118632 -226.788195 
L 34.922651 -226.589719 
L 34.72667 -226.399038 
L 34.53069 -226.215815 
L 34.334709 -226.039703 
L 34.138729 -225.870344 
L 33.942748 -225.707377 
L 33.746767 -225.550435 
L 33.550787 -225.399151 
L 33.354806 -225.253163 
L 33.158825 -225.112108 
L 32.962845 -224.975634 
L 32.766864 -224.843394 
L 32.570884 -224.715054 
L 32.374903 -224.590289 
L 32.178922 -224.46879 
L 31.982942 -224.350264 
L 31.786961 -224.23443 
L 31.590981 -224.121029 
L 31.395 -224.009817 
z
" id="mb66402bb8d" style="stroke:#3ae8d7;"/>
    </defs>
    <g clip-path="url(#p9ee3cfb491)">
     <use style="fill:#3ae8d7;fill-opacity:0.25;stroke:#3ae8d7;" x="0" xlink:href="#mb66402bb8d" y="287.715688"/>
    </g>
   </g>
   <g id="matplotlib.axis_3">
    <g id="xtick_5">
     <g id="line2d_5">
      <g>
       <use style="stroke:#000000;stroke-width:0.8;" x="31.395" xlink:href="#mac6abf890d" y="68.09"/>
      </g>
     </g>
    </g>
    <g id="xtick_6">
     <g id="line2d_6">
      <g>
       <use style="stroke:#000000;stroke-width:0.8;" x="114.175" xlink:href="#mac6abf890d" y="68.09"/>
      </g>
     </g>
    </g>
    <g id="xtick_7">
     <g id="line2d_7">
      <g>
       <use style="stroke:#000000;stroke-width:0.8;" x="196.955" xlink:href="#mac6abf890d" y="68.09"/>
      </g>
     </g>
    </g>
    <g id="xtick_8">
     <g id="line2d_8">
      <g>
       <use style="stroke:#000000;stroke-width:0.8;" x="279.735" xlink:href="#mac6abf890d" y="68.09"/>
      </g>
     </g>
    </g>
    <g id="text_29">
     <text style="font-family:DejaVu Sans;font-size:14px;font-stretch:normal;font-style:normal;font-weight:normal;text-anchor:end;" transform="rotate(-0, 321.125, 81.727813)" x="321.125" y="81.727813">1e−5</text>
    </g>
   </g>
   <g id="matplotlib.axis_4">
    <g id="ytick_1"/>
    <g id="ytick_2"/>
   </g>
   <g id="patch_6">
    <path d="M 10.7 68.09 
L 321.125 68.09 
" style="fill:none;stroke:#000000;stroke-linecap:square;stroke-linejoin:miter;stroke-width:0.8;"/>
   </g>
  </g>
  <g id="axes_3">
   <g id="patch_7">
    <path d="M 321.125 226.74 
L 383.21 226.74 
L 383.21 68.09 
L 321.125 68.09 
z
" style="fill:#ffffff;"/>
   </g>
   <g id="matplotlib.axis_5">
    <g id="xtick_9"/>
    <g id="xtick_10"/>
   </g>
   <g id="matplotlib.axis_6"/>
   <g id="patch_8">
    <path d="M 321.125 226.74 
L 321.125 68.09 
" style="fill:none;stroke:#000000;stroke-linecap:square;stroke-linejoin:miter;stroke-width:0.8;"/>
   </g>
  </g>
  <g id="text_30">
   <text style="font-family:DejaVu Sans;font-size:16.8px;font-stretch:normal;font-style:normal;font-weight:bold;text-anchor:middle;" transform="rotate(-0, 160.73, 19.965375)" x="160.73" y="19.965375">3.ANT</text>
  </g>
 </g>
 <defs>
  <clipPath id="pf586e7f6c6">
   <rect height="158.65" width="310.425" x="10.7" y="68.09"/>
  </clipPath>
  <clipPath id="p9ee3cfb491">
   <rect height="31.73" width="310.425" x="10.7" y="36.36"/>
  </clipPath>
 </defs>
</svg>
