<?xml version="1.0" encoding="utf-8" standalone="no"?>
<!DOCTYPE svg PUBLIC "-//W3C//DTD SVG 1.1//EN"
  "http://www.w3.org/Graphics/SVG/1.1/DTD/svg11.dtd">
<!-- Created with matplotlib (https://matplotlib.org/) -->
<svg height="287.715688pt" version="1.1" viewBox="0 0 390.41 287.715688" width="390.41pt" xmlns="http://www.w3.org/2000/svg" xmlns:xlink="http://www.w3.org/1999/xlink">
 <metadata>
  <rdf:RDF xmlns:cc="http://creativecommons.org/ns#" xmlns:dc="http://purl.org/dc/elements/1.1/" xmlns:rdf="http://www.w3.org/1999/02/22-rdf-syntax-ns#">
   <cc:Work>
    <dc:type rdf:resource="http://purl.org/dc/dcmitype/StillImage"/>
    <dc:date>2021-10-05T10:43:11.643902</dc:date>
    <dc:format>image/svg+xml</dc:format>
    <dc:creator>
     <cc:Agent>
      <dc:title>Matplotlib v3.3.2, https://matplotlib.org/</dc:title>
     </cc:Agent>
    </dc:creator>
   </cc:Work>
  </rdf:RDF>
 </metadata>
 <defs>
  <style type="text/css">*{stroke-linecap:butt;stroke-linejoin:round;}</style>
 </defs>
 <g id="figure_1">
  <g id="patch_1">
   <path d="M 0 287.715688 
L 390.41 287.715688 
L 390.41 0 
L 0 0 
z
" style="fill:#ffffff;"/>
  </g>
  <g id="axes_1">
   <g id="patch_2">
    <path d="M 10.7 226.74 
L 321.125 226.74 
L 321.125 68.09 
L 10.7 68.09 
z
" style="fill:#ffffff;"/>
   </g>
   <g id="matplotlib.axis_1">
    <g id="xtick_1">
     <g id="line2d_1">
      <defs>
       <path d="M 0 0 
L 0 3.5 
" id="m069fa12568" style="stroke:#000000;stroke-width:0.8;"/>
      </defs>
      <g>
       <use style="stroke:#000000;stroke-width:0.8;" x="31.395" xlink:href="#m069fa12568" y="226.74"/>
      </g>
     </g>
     <g id="text_1">
      <text style="font-family:DejaVu Sans;font-size:14px;font-stretch:normal;font-style:normal;font-weight:normal;text-anchor:middle;" transform="rotate(-0, 31.395, 244.377813)" x="31.395" y="244.377813">0</text>
     </g>
    </g>
    <g id="xtick_2">
     <g id="line2d_2">
      <g>
       <use style="stroke:#000000;stroke-width:0.8;" x="114.175" xlink:href="#m069fa12568" y="226.74"/>
      </g>
     </g>
     <g id="text_2">
      <text style="font-family:DejaVu Sans;font-size:14px;font-stretch:normal;font-style:normal;font-weight:normal;text-anchor:middle;" transform="rotate(-0, 114.175, 244.377813)" x="114.175" y="244.377813">2</text>
     </g>
    </g>
    <g id="xtick_3">
     <g id="line2d_3">
      <g>
       <use style="stroke:#000000;stroke-width:0.8;" x="196.955" xlink:href="#m069fa12568" y="226.74"/>
      </g>
     </g>
     <g id="text_3">
      <text style="font-family:DejaVu Sans;font-size:14px;font-stretch:normal;font-style:normal;font-weight:normal;text-anchor:middle;" transform="rotate(-0, 196.955, 244.377813)" x="196.955" y="244.377813">4</text>
     </g>
    </g>
    <g id="xtick_4">
     <g id="line2d_4">
      <g>
       <use style="stroke:#000000;stroke-width:0.8;" x="279.735" xlink:href="#m069fa12568" y="226.74"/>
      </g>
     </g>
     <g id="text_4">
      <text style="font-family:DejaVu Sans;font-size:14px;font-stretch:normal;font-style:normal;font-weight:normal;text-anchor:middle;" transform="rotate(-0, 279.735, 244.377813)" x="279.735" y="244.377813">6</text>
     </g>
    </g>
    <g id="text_5">
     <text style="font-family:DejaVu Sans;font-size:14px;font-stretch:normal;font-style:normal;font-weight:normal;" transform="translate(89.885938 261.927188)">Distance to the MRCA</text>
     <text style="font-family:DejaVu Sans;font-size:14px;font-stretch:normal;font-style:normal;font-weight:normal;" transform="translate(98.757344 277.604125)">(Substitutions/Site)</text>
    </g>
    <g id="text_6">
     <text style="font-family:DejaVu Sans;font-size:14px;font-stretch:normal;font-style:normal;font-weight:normal;text-anchor:end;" transform="rotate(-0, 321.125, 260.927188)" x="321.125" y="260.927188">1e−5</text>
    </g>
   </g>
   <g id="matplotlib.axis_2"/>
   <g id="LineCollection_1">
    <path clip-path="url(#p7c9a735c3e)" d="M 31.395 165.378089 
L 31.395 165.378089 
" style="fill:none;stroke:#ff8a48;"/>
   </g>
   <g id="LineCollection_2">
    <path clip-path="url(#p7c9a735c3e)" d="M 31.395 140.229764 
L 79.803088 140.229764 
" style="fill:none;stroke:#ff8a48;"/>
   </g>
   <g id="LineCollection_3">
    <path clip-path="url(#p7c9a735c3e)" d="M 79.803088 118.674058 
L 79.900769 118.674058 
" style="fill:none;stroke:#ff8a48;"/>
   </g>
   <g id="LineCollection_4">
    <path clip-path="url(#p7c9a735c3e)" d="M 79.900769 104.303587 
L 83.800949 104.303587 
" style="fill:none;stroke:#ff8a48;"/>
   </g>
   <g id="LineCollection_5">
    <path clip-path="url(#p7c9a735c3e)" d="M 79.900769 133.044529 
L 79.998449 133.044529 
" style="fill:none;stroke:#ff8a48;"/>
   </g>
   <g id="LineCollection_6">
    <path clip-path="url(#p7c9a735c3e)" d="M 79.803088 161.785471 
L 90.528065 161.785471 
" style="fill:none;stroke:#ff8a48;"/>
   </g>
   <g id="LineCollection_7">
    <path clip-path="url(#p7c9a735c3e)" d="M 31.395 190.526413 
L 95.309852 190.526413 
" style="fill:none;stroke:#ff8a48;"/>
   </g>
   <g id="LineCollection_8">
    <path clip-path="url(#p7c9a735c3e)" d="M 31.395 190.526413 
L 31.395 140.229764 
" style="fill:none;stroke:#ff8a48;"/>
   </g>
   <g id="LineCollection_9">
    <path clip-path="url(#p7c9a735c3e)" d="M 79.803088 161.785471 
L 79.803088 118.674058 
" style="fill:none;stroke:#ff8a48;"/>
   </g>
   <g id="LineCollection_10">
    <path clip-path="url(#p7c9a735c3e)" d="M 79.900769 133.044529 
L 79.900769 104.303587 
" style="fill:none;stroke:#ff8a48;"/>
   </g>
   <g id="PathCollection_1">
    <defs>
     <path d="M 0 1.581139 
C 0.419323 1.581139 0.821528 1.41454 1.118034 1.118034 
C 1.41454 0.821528 1.581139 0.419323 1.581139 -0 
C 1.581139 -0.419323 1.41454 -0.821528 1.118034 -1.118034 
C 0.821528 -1.41454 0.419323 -1.581139 0 -1.581139 
C -0.419323 -1.581139 -0.821528 -1.41454 -1.118034 -1.118034 
C -1.41454 -0.821528 -1.581139 -0.419323 -1.581139 0 
C -1.581139 0.419323 -1.41454 0.821528 -1.118034 1.118034 
C -0.821528 1.41454 -0.419323 1.581139 0 1.581139 
z
" id="C0_0_ab6787d6ef"/>
    </defs>
    <g clip-path="url(#p7c9a735c3e)">
     <use style="fill:#ff8a48;stroke:#000000;stroke-width:0.252982;" x="83.800949" xlink:href="#C0_0_ab6787d6ef" y="104.303587"/>
    </g>
    <g clip-path="url(#p7c9a735c3e)">
     <use style="fill:#ff8a48;stroke:#000000;stroke-width:0.252982;" x="79.998449" xlink:href="#C0_0_ab6787d6ef" y="133.044529"/>
    </g>
    <g clip-path="url(#p7c9a735c3e)">
     <use style="fill:#ff8a48;stroke:#000000;stroke-width:0.252982;" x="90.528065" xlink:href="#C0_0_ab6787d6ef" y="161.785471"/>
    </g>
    <g clip-path="url(#p7c9a735c3e)">
     <use style="fill:#ff8a48;stroke:#000000;stroke-width:0.252982;" x="95.309852" xlink:href="#C0_0_ab6787d6ef" y="190.526413"/>
    </g>
   </g>
   <g id="patch_3">
    <path d="M 10.7 226.74 
L 10.7 68.09 
" style="fill:none;stroke:#000000;stroke-linecap:square;stroke-linejoin:miter;stroke-width:0.8;"/>
   </g>
   <g id="patch_4">
    <path d="M 10.7 226.74 
L 321.125 226.74 
" style="fill:none;stroke:#000000;stroke-linecap:square;stroke-linejoin:miter;stroke-width:0.8;"/>
   </g>
   <g id="text_7">
    <text style="font-family:DejaVu Sans;font-size:14px;font-stretch:normal;font-style:normal;font-weight:normal;text-anchor:start;" transform="rotate(-0, 31.395, 169.241214)" x="31.395" y="169.241214"> </text>
   </g>
   <g id="text_8">
    <text style="font-family:DejaVu Sans;font-size:14px;font-stretch:normal;font-style:normal;font-weight:normal;text-anchor:start;" transform="rotate(-0, 79.803088, 144.092889)" x="79.803088" y="144.092889"> </text>
   </g>
   <g id="text_9">
    <text style="font-family:DejaVu Sans;font-size:14px;font-stretch:normal;font-style:normal;font-weight:normal;text-anchor:start;" transform="rotate(-0, 79.900769, 122.537183)" x="79.900769" y="122.537183"> </text>
   </g>
   <g id="text_10">
    <text style="font-family:DejaVu Sans;font-size:14px;font-stretch:normal;font-style:normal;font-weight:normal;text-anchor:start;" transform="rotate(-0, 83.800949, 108.166712)" x="83.800949" y="108.166712"> </text>
   </g>
   <g id="text_11">
    <text style="font-family:DejaVu Sans;font-size:14px;font-stretch:normal;font-style:normal;font-weight:normal;text-anchor:start;" transform="rotate(-0, 79.998449, 136.907654)" x="79.998449" y="136.907654"> </text>
   </g>
   <g id="text_12">
    <text style="font-family:DejaVu Sans;font-size:14px;font-stretch:normal;font-style:normal;font-weight:normal;text-anchor:start;" transform="rotate(-0, 90.528065, 165.648596)" x="90.528065" y="165.648596"> </text>
   </g>
   <g id="text_13">
    <text style="font-family:DejaVu Sans;font-size:14px;font-stretch:normal;font-style:normal;font-weight:normal;text-anchor:start;" transform="rotate(-0, 95.309852, 194.389538)" x="95.309852" y="194.389538"> </text>
   </g>
   <g id="text_14">
    <text style="font-family:DejaVu Sans;font-size:16.8px;font-stretch:normal;font-style:normal;font-weight:normal;text-anchor:middle;" transform="rotate(-0, 165.9125, 62.09)" x="165.9125" y="62.09">NODE442</text>
   </g>
  </g>
  <g id="axes_2">
   <g id="patch_5">
    <path d="M 10.7 68.09 
L 321.125 68.09 
L 321.125 36.36 
L 10.7 36.36 
z
" style="fill:#ffffff;"/>
   </g>
   <g id="PolyCollection_1">
    <defs>
     <path d="M 66.015842 -219.874419 
L 66.015842 -219.625687 
L 66.163048 -219.625687 
L 66.310255 -219.625687 
L 66.457461 -219.625687 
L 66.604667 -219.625687 
L 66.751873 -219.625687 
L 66.899079 -219.625687 
L 67.046285 -219.625687 
L 67.193491 -219.625687 
L 67.340697 -219.625687 
L 67.487903 -219.625687 
L 67.635109 -219.625687 
L 67.782315 -219.625687 
L 67.929521 -219.625687 
L 68.076727 -219.625687 
L 68.223934 -219.625687 
L 68.37114 -219.625687 
L 68.518346 -219.625687 
L 68.665552 -219.625687 
L 68.812758 -219.625687 
L 68.959964 -219.625687 
L 69.10717 -219.625687 
L 69.254376 -219.625687 
L 69.401582 -219.625687 
L 69.548788 -219.625687 
L 69.695994 -219.625687 
L 69.8432 -219.625687 
L 69.990406 -219.625687 
L 70.137613 -219.625687 
L 70.284819 -219.625687 
L 70.432025 -219.625687 
L 70.579231 -219.625687 
L 70.726437 -219.625687 
L 70.873643 -219.625687 
L 71.020849 -219.625687 
L 71.168055 -219.625687 
L 71.315261 -219.625687 
L 71.462467 -219.625687 
L 71.609673 -219.625687 
L 71.756879 -219.625687 
L 71.904085 -219.625687 
L 72.051292 -219.625687 
L 72.198498 -219.625687 
L 72.345704 -219.625687 
L 72.49291 -219.625687 
L 72.640116 -219.625687 
L 72.787322 -219.625687 
L 72.934528 -219.625687 
L 73.081734 -219.625687 
L 73.22894 -219.625687 
L 73.376146 -219.625687 
L 73.523352 -219.625687 
L 73.670558 -219.625687 
L 73.817764 -219.625687 
L 73.964971 -219.625687 
L 74.112177 -219.625687 
L 74.259383 -219.625687 
L 74.406589 -219.625687 
L 74.553795 -219.625687 
L 74.701001 -219.625687 
L 74.848207 -219.625687 
L 74.995413 -219.625687 
L 75.142619 -219.625687 
L 75.289825 -219.625687 
L 75.437031 -219.625687 
L 75.584237 -219.625687 
L 75.731444 -219.625687 
L 75.87865 -219.625687 
L 76.025856 -219.625687 
L 76.173062 -219.625687 
L 76.320268 -219.625687 
L 76.467474 -219.625687 
L 76.61468 -219.625687 
L 76.761886 -219.625687 
L 76.909092 -219.625687 
L 77.056298 -219.625687 
L 77.203504 -219.625687 
L 77.35071 -219.625687 
L 77.497916 -219.625687 
L 77.645123 -219.625687 
L 77.792329 -219.625687 
L 77.939535 -219.625687 
L 78.086741 -219.625687 
L 78.233947 -219.625687 
L 78.381153 -219.625687 
L 78.528359 -219.625687 
L 78.675565 -219.625687 
L 78.822771 -219.625687 
L 78.969977 -219.625687 
L 79.117183 -219.625687 
L 79.264389 -219.625687 
L 79.411595 -219.625687 
L 79.558802 -219.625687 
L 79.706008 -219.625687 
L 79.853214 -219.625687 
L 80.00042 -219.625687 
L 80.147626 -219.625687 
L 80.294832 -219.625687 
L 80.442038 -219.625687 
L 80.589244 -219.625687 
L 80.73645 -219.625687 
L 80.883656 -219.625687 
L 81.030862 -219.625687 
L 81.178068 -219.625687 
L 81.325274 -219.625687 
L 81.472481 -219.625687 
L 81.619687 -219.625687 
L 81.766893 -219.625687 
L 81.914099 -219.625687 
L 82.061305 -219.625687 
L 82.208511 -219.625687 
L 82.355717 -219.625687 
L 82.502923 -219.625687 
L 82.650129 -219.625687 
L 82.797335 -219.625687 
L 82.944541 -219.625687 
L 83.091747 -219.625687 
L 83.238953 -219.625687 
L 83.38616 -219.625687 
L 83.533366 -219.625687 
L 83.680572 -219.625687 
L 83.827778 -219.625687 
L 83.974984 -219.625687 
L 84.12219 -219.625687 
L 84.269396 -219.625687 
L 84.416602 -219.625687 
L 84.563808 -219.625687 
L 84.711014 -219.625687 
L 84.85822 -219.625687 
L 85.005426 -219.625687 
L 85.152633 -219.625687 
L 85.299839 -219.625687 
L 85.447045 -219.625687 
L 85.594251 -219.625687 
L 85.741457 -219.625687 
L 85.888663 -219.625687 
L 86.035869 -219.625687 
L 86.183075 -219.625687 
L 86.330281 -219.625687 
L 86.477487 -219.625687 
L 86.624693 -219.625687 
L 86.771899 -219.625687 
L 86.919105 -219.625687 
L 87.066312 -219.625687 
L 87.213518 -219.625687 
L 87.360724 -219.625687 
L 87.50793 -219.625687 
L 87.655136 -219.625687 
L 87.802342 -219.625687 
L 87.949548 -219.625687 
L 88.096754 -219.625687 
L 88.24396 -219.625687 
L 88.391166 -219.625687 
L 88.538372 -219.625687 
L 88.685578 -219.625687 
L 88.832784 -219.625687 
L 88.979991 -219.625687 
L 89.127197 -219.625687 
L 89.274403 -219.625687 
L 89.421609 -219.625687 
L 89.568815 -219.625687 
L 89.716021 -219.625687 
L 89.863227 -219.625687 
L 90.010433 -219.625687 
L 90.157639 -219.625687 
L 90.304845 -219.625687 
L 90.452051 -219.625687 
L 90.599257 -219.625687 
L 90.746463 -219.625687 
L 90.89367 -219.625687 
L 91.040876 -219.625687 
L 91.188082 -219.625687 
L 91.335288 -219.625687 
L 91.482494 -219.625687 
L 91.6297 -219.625687 
L 91.776906 -219.625687 
L 91.924112 -219.625687 
L 92.071318 -219.625687 
L 92.218524 -219.625687 
L 92.36573 -219.625687 
L 92.512936 -219.625687 
L 92.660142 -219.625687 
L 92.807349 -219.625687 
L 92.954555 -219.625687 
L 93.101761 -219.625687 
L 93.248967 -219.625687 
L 93.396173 -219.625687 
L 93.543379 -219.625687 
L 93.690585 -219.625687 
L 93.837791 -219.625687 
L 93.984997 -219.625687 
L 94.132203 -219.625687 
L 94.279409 -219.625687 
L 94.426615 -219.625687 
L 94.573822 -219.625687 
L 94.721028 -219.625687 
L 94.868234 -219.625687 
L 95.01544 -219.625687 
L 95.162646 -219.625687 
L 95.309852 -219.625687 
L 95.309852 -232.40071 
L 95.309852 -232.40071 
L 95.162646 -232.586012 
L 95.01544 -232.7663 
L 94.868234 -232.941476 
L 94.721028 -233.111466 
L 94.573822 -233.276217 
L 94.426615 -233.435701 
L 94.279409 -233.589915 
L 94.132203 -233.738879 
L 93.984997 -233.88264 
L 93.837791 -234.021268 
L 93.690585 -234.15486 
L 93.543379 -234.283538 
L 93.396173 -234.40745 
L 93.248967 -234.52677 
L 93.101761 -234.641694 
L 92.954555 -234.752447 
L 92.807349 -234.859275 
L 92.660142 -234.962449 
L 92.512936 -235.062263 
L 92.36573 -235.159033 
L 92.218524 -235.253094 
L 92.071318 -235.344806 
L 91.924112 -235.434543 
L 91.776906 -235.522699 
L 91.6297 -235.609685 
L 91.482494 -235.695924 
L 91.335288 -235.781854 
L 91.188082 -235.867924 
L 91.040876 -235.954593 
L 90.89367 -236.042327 
L 90.746463 -236.131597 
L 90.599257 -236.222879 
L 90.452051 -236.316649 
L 90.304845 -236.413382 
L 90.157639 -236.51355 
L 90.010433 -236.61762 
L 89.863227 -236.72605 
L 89.716021 -236.839286 
L 89.568815 -236.957764 
L 89.421609 -237.081901 
L 89.274403 -237.212097 
L 89.127197 -237.348733 
L 88.979991 -237.492163 
L 88.832784 -237.642717 
L 88.685578 -237.800698 
L 88.538372 -237.966375 
L 88.391166 -238.139986 
L 88.24396 -238.321735 
L 88.096754 -238.511785 
L 87.949548 -238.710261 
L 87.802342 -238.917247 
L 87.655136 -239.132784 
L 87.50793 -239.356867 
L 87.360724 -239.589445 
L 87.213518 -239.830418 
L 87.066312 -240.079641 
L 86.919105 -240.336914 
L 86.771899 -240.601992 
L 86.624693 -240.874576 
L 86.477487 -241.154318 
L 86.330281 -241.440816 
L 86.183075 -241.73362 
L 86.035869 -242.032231 
L 85.888663 -242.336098 
L 85.741457 -242.644623 
L 85.594251 -242.957161 
L 85.447045 -243.273024 
L 85.299839 -243.591477 
L 85.152633 -243.911747 
L 85.005426 -244.23302 
L 84.85822 -244.554447 
L 84.711014 -244.875146 
L 84.563808 -245.194206 
L 84.416602 -245.510686 
L 84.269396 -245.823624 
L 84.12219 -246.132039 
L 83.974984 -246.434933 
L 83.827778 -246.731297 
L 83.680572 -247.020115 
L 83.533366 -247.300368 
L 83.38616 -247.571038 
L 83.238953 -247.831112 
L 83.091747 -248.079589 
L 82.944541 -248.315482 
L 82.797335 -248.537823 
L 82.650129 -248.745669 
L 82.502923 -248.938102 
L 82.355717 -249.114242 
L 82.208511 -249.27324 
L 82.061305 -249.414293 
L 81.914099 -249.536638 
L 81.766893 -249.639565 
L 81.619687 -249.722413 
L 81.472481 -249.784578 
L 81.325274 -249.825513 
L 81.178068 -249.844735 
L 81.030862 -249.841822 
L 80.883656 -249.816419 
L 80.73645 -249.768239 
L 80.589244 -249.697064 
L 80.442038 -249.602747 
L 80.294832 -249.485213 
L 80.147626 -249.344458 
L 80.00042 -249.18055 
L 79.853214 -248.993629 
L 79.706008 -248.783909 
L 79.558802 -248.55167 
L 79.411595 -248.297265 
L 79.264389 -248.021113 
L 79.117183 -247.723698 
L 78.969977 -247.405569 
L 78.822771 -247.067335 
L 78.675565 -246.709664 
L 78.528359 -246.333278 
L 78.381153 -245.938951 
L 78.233947 -245.527506 
L 78.086741 -245.099809 
L 77.939535 -244.656767 
L 77.792329 -244.199324 
L 77.645123 -243.728456 
L 77.497916 -243.245166 
L 77.35071 -242.750482 
L 77.203504 -242.245449 
L 77.056298 -241.731129 
L 76.909092 -241.208592 
L 76.761886 -240.678915 
L 76.61468 -240.143178 
L 76.467474 -239.602455 
L 76.320268 -239.057814 
L 76.173062 -238.510314 
L 76.025856 -237.960996 
L 75.87865 -237.410886 
L 75.731444 -236.860984 
L 75.584237 -236.312267 
L 75.437031 -235.765683 
L 75.289825 -235.222147 
L 75.142619 -234.682542 
L 74.995413 -234.147713 
L 74.848207 -233.618467 
L 74.701001 -233.095569 
L 74.553795 -232.579742 
L 74.406589 -232.071667 
L 74.259383 -231.571979 
L 74.112177 -231.081266 
L 73.964971 -230.600071 
L 73.817764 -230.12889 
L 73.670558 -229.668173 
L 73.523352 -229.218322 
L 73.376146 -228.779692 
L 73.22894 -228.352595 
L 73.081734 -227.937294 
L 72.934528 -227.534011 
L 72.787322 -227.142922 
L 72.640116 -226.764164 
L 72.49291 -226.397831 
L 72.345704 -226.04398 
L 72.198498 -225.70263 
L 72.051292 -225.373763 
L 71.904085 -225.057328 
L 71.756879 -224.753245 
L 71.609673 -224.461399 
L 71.462467 -224.181651 
L 71.315261 -223.913834 
L 71.168055 -223.657759 
L 71.020849 -223.413213 
L 70.873643 -223.179965 
L 70.726437 -222.957766 
L 70.579231 -222.746349 
L 70.432025 -222.545437 
L 70.284819 -222.354737 
L 70.137613 -222.173948 
L 69.990406 -222.002762 
L 69.8432 -221.840861 
L 69.695994 -221.687923 
L 69.548788 -221.543625 
L 69.401582 -221.407638 
L 69.254376 -221.279635 
L 69.10717 -221.159289 
L 68.959964 -221.046274 
L 68.812758 -220.940267 
L 68.665552 -220.840949 
L 68.518346 -220.748007 
L 68.37114 -220.661131 
L 68.223934 -220.580019 
L 68.076727 -220.504377 
L 67.929521 -220.433916 
L 67.782315 -220.368356 
L 67.635109 -220.307427 
L 67.487903 -220.250866 
L 67.340697 -220.19842 
L 67.193491 -220.149843 
L 67.046285 -220.104903 
L 66.899079 -220.063374 
L 66.751873 -220.025039 
L 66.604667 -219.989694 
L 66.457461 -219.957142 
L 66.310255 -219.927196 
L 66.163048 -219.899678 
L 66.015842 -219.874419 
z
" id="macf0eba232" style="stroke:#ff8a48;"/>
    </defs>
    <g clip-path="url(#p7b6311c5ac)">
     <use style="fill:#ff8a48;fill-opacity:0.25;stroke:#ff8a48;" x="0" xlink:href="#macf0eba232" y="287.715688"/>
    </g>
   </g>
   <g id="matplotlib.axis_3">
    <g id="xtick_5">
     <g id="line2d_5">
      <g>
       <use style="stroke:#000000;stroke-width:0.8;" x="31.395" xlink:href="#m069fa12568" y="68.09"/>
      </g>
     </g>
    </g>
    <g id="xtick_6">
     <g id="line2d_6">
      <g>
       <use style="stroke:#000000;stroke-width:0.8;" x="114.175" xlink:href="#m069fa12568" y="68.09"/>
      </g>
     </g>
    </g>
    <g id="xtick_7">
     <g id="line2d_7">
      <g>
       <use style="stroke:#000000;stroke-width:0.8;" x="196.955" xlink:href="#m069fa12568" y="68.09"/>
      </g>
     </g>
    </g>
    <g id="xtick_8">
     <g id="line2d_8">
      <g>
       <use style="stroke:#000000;stroke-width:0.8;" x="279.735" xlink:href="#m069fa12568" y="68.09"/>
      </g>
     </g>
    </g>
    <g id="text_15">
     <text style="font-family:DejaVu Sans;font-size:14px;font-stretch:normal;font-style:normal;font-weight:normal;text-anchor:end;" transform="rotate(-0, 321.125, 81.727813)" x="321.125" y="81.727813">1e−5</text>
    </g>
   </g>
   <g id="matplotlib.axis_4">
    <g id="ytick_1"/>
    <g id="ytick_2"/>
   </g>
   <g id="patch_6">
    <path d="M 10.7 68.09 
L 321.125 68.09 
" style="fill:none;stroke:#000000;stroke-linecap:square;stroke-linejoin:miter;stroke-width:0.8;"/>
   </g>
  </g>
  <g id="axes_3">
   <g id="patch_7">
    <path d="M 321.125 226.74 
L 383.21 226.74 
L 383.21 68.09 
L 321.125 68.09 
z
" style="fill:#ffffff;"/>
   </g>
   <g id="matplotlib.axis_5">
    <g id="xtick_9"/>
    <g id="xtick_10"/>
   </g>
   <g id="matplotlib.axis_6"/>
   <g id="patch_8">
    <path d="M 321.125 226.74 
L 321.125 68.09 
" style="fill:none;stroke:#000000;stroke-linecap:square;stroke-linejoin:miter;stroke-width:0.8;"/>
   </g>
  </g>
  <g id="text_16">
   <text style="font-family:DejaVu Sans;font-size:16.8px;font-stretch:normal;font-style:normal;font-weight:bold;text-anchor:middle;" transform="rotate(-0, 160.73, 19.965375)" x="160.73" y="19.965375">1.ANT</text>
  </g>
 </g>
 <defs>
  <clipPath id="p7c9a735c3e">
   <rect height="158.65" width="310.425" x="10.7" y="68.09"/>
  </clipPath>
  <clipPath id="p7b6311c5ac">
   <rect height="31.73" width="310.425" x="10.7" y="36.36"/>
  </clipPath>
 </defs>
</svg>
