<?xml version="1.0" encoding="utf-8" standalone="no"?>
<!DOCTYPE svg PUBLIC "-//W3C//DTD SVG 1.1//EN"
  "http://www.w3.org/Graphics/SVG/1.1/DTD/svg11.dtd">
<!-- Created with matplotlib (https://matplotlib.org/) -->
<svg height="287.715688pt" version="1.1" viewBox="0 0 390.41 287.715688" width="390.41pt" xmlns="http://www.w3.org/2000/svg" xmlns:xlink="http://www.w3.org/1999/xlink">
 <metadata>
  <rdf:RDF xmlns:cc="http://creativecommons.org/ns#" xmlns:dc="http://purl.org/dc/elements/1.1/" xmlns:rdf="http://www.w3.org/1999/02/22-rdf-syntax-ns#">
   <cc:Work>
    <dc:type rdf:resource="http://purl.org/dc/dcmitype/StillImage"/>
    <dc:date>2021-09-29T11:15:41.606946</dc:date>
    <dc:format>image/svg+xml</dc:format>
    <dc:creator>
     <cc:Agent>
      <dc:title>Matplotlib v3.3.2, https://matplotlib.org/</dc:title>
     </cc:Agent>
    </dc:creator>
   </cc:Work>
  </rdf:RDF>
 </metadata>
 <defs>
  <style type="text/css">*{stroke-linecap:butt;stroke-linejoin:round;}</style>
 </defs>
 <g id="figure_1">
  <g id="patch_1">
   <path d="M 0 287.715688 
L 390.41 287.715688 
L 390.41 0 
L 0 0 
z
" style="fill:#ffffff;"/>
  </g>
  <g id="axes_1">
   <g id="patch_2">
    <path d="M 10.7 226.74 
L 321.125 226.74 
L 321.125 68.09 
L 10.7 68.09 
z
" style="fill:#ffffff;"/>
   </g>
   <g id="matplotlib.axis_1">
    <g id="xtick_1">
     <g id="line2d_1">
      <defs>
       <path d="M 0 0 
L 0 3.5 
" id="m1dd08879d4" style="stroke:#000000;stroke-width:0.8;"/>
      </defs>
      <g>
       <use style="stroke:#000000;stroke-width:0.8;" x="31.395" xlink:href="#m1dd08879d4" y="226.74"/>
      </g>
     </g>
     <g id="text_1">
      <text style="font-family:DejaVu Sans;font-size:14px;font-stretch:normal;font-style:normal;font-weight:normal;text-anchor:middle;" transform="rotate(-0, 31.395, 244.377813)" x="31.395" y="244.377813">0</text>
     </g>
    </g>
    <g id="xtick_2">
     <g id="line2d_2">
      <g>
       <use style="stroke:#000000;stroke-width:0.8;" x="114.175" xlink:href="#m1dd08879d4" y="226.74"/>
      </g>
     </g>
     <g id="text_2">
      <text style="font-family:DejaVu Sans;font-size:14px;font-stretch:normal;font-style:normal;font-weight:normal;text-anchor:middle;" transform="rotate(-0, 114.175, 244.377813)" x="114.175" y="244.377813">2</text>
     </g>
    </g>
    <g id="xtick_3">
     <g id="line2d_3">
      <g>
       <use style="stroke:#000000;stroke-width:0.8;" x="196.955" xlink:href="#m1dd08879d4" y="226.74"/>
      </g>
     </g>
     <g id="text_3">
      <text style="font-family:DejaVu Sans;font-size:14px;font-stretch:normal;font-style:normal;font-weight:normal;text-anchor:middle;" transform="rotate(-0, 196.955, 244.377813)" x="196.955" y="244.377813">4</text>
     </g>
    </g>
    <g id="xtick_4">
     <g id="line2d_4">
      <g>
       <use style="stroke:#000000;stroke-width:0.8;" x="279.735" xlink:href="#m1dd08879d4" y="226.74"/>
      </g>
     </g>
     <g id="text_4">
      <text style="font-family:DejaVu Sans;font-size:14px;font-stretch:normal;font-style:normal;font-weight:normal;text-anchor:middle;" transform="rotate(-0, 279.735, 244.377813)" x="279.735" y="244.377813">6</text>
     </g>
    </g>
    <g id="text_5">
     <text style="font-family:DejaVu Sans;font-size:14px;font-stretch:normal;font-style:normal;font-weight:normal;" transform="translate(89.885938 261.927188)">Distance to the MRCA</text>
     <text style="font-family:DejaVu Sans;font-size:14px;font-stretch:normal;font-style:normal;font-weight:normal;" transform="translate(98.757344 277.604125)">(Substitutions/Site)</text>
    </g>
    <g id="text_6">
     <text style="font-family:DejaVu Sans;font-size:14px;font-stretch:normal;font-style:normal;font-weight:normal;text-anchor:end;" transform="rotate(-0, 321.125, 260.927188)" x="321.125" y="260.927188">1e−5</text>
    </g>
   </g>
   <g id="matplotlib.axis_2"/>
   <g id="LineCollection_1">
    <path clip-path="url(#pef2b572566)" d="M 31.395 182.36366 
L 31.395 182.36366 
" style="fill:none;stroke:#68fcc1;"/>
   </g>
   <g id="LineCollection_2">
    <path clip-path="url(#pef2b572566)" d="M 31.395 166.024605 
L 40.606345 166.024605 
" style="fill:none;stroke:#68fcc1;"/>
   </g>
   <g id="LineCollection_3">
    <path clip-path="url(#pef2b572566)" d="M 40.606345 150.4424 
L 46.456407 150.4424 
" style="fill:none;stroke:#68fcc1;"/>
   </g>
   <g id="LineCollection_4">
    <path clip-path="url(#pef2b572566)" d="M 46.456407 136.373895 
L 50.832158 136.373895 
" style="fill:none;stroke:#68fcc1;"/>
   </g>
   <g id="LineCollection_5">
    <path clip-path="url(#pef2b572566)" d="M 50.832158 125.332789 
L 52.782041 125.332789 
" style="fill:none;stroke:#68fcc1;"/>
   </g>
   <g id="LineCollection_6">
    <path clip-path="url(#pef2b572566)" d="M 52.782041 114.647848 
L 52.879721 114.647848 
" style="fill:none;stroke:#68fcc1;"/>
   </g>
   <g id="LineCollection_7">
    <path clip-path="url(#pef2b572566)" d="M 52.879721 104.675237 
L 52.977402 104.675237 
" style="fill:none;stroke:#68fcc1;"/>
   </g>
   <g id="LineCollection_8">
    <path clip-path="url(#pef2b572566)" d="M 52.977402 96.127284 
L 53.075082 96.127284 
" style="fill:none;stroke:#68fcc1;"/>
   </g>
   <g id="LineCollection_9">
    <path clip-path="url(#pef2b572566)" d="M 53.075082 90.428649 
L 53.172762 90.428649 
" style="fill:none;stroke:#68fcc1;"/>
   </g>
   <g id="LineCollection_10">
    <path clip-path="url(#pef2b572566)" d="M 53.075082 101.82592 
L 53.172762 101.82592 
" style="fill:none;stroke:#68fcc1;"/>
   </g>
   <g id="LineCollection_11">
    <path clip-path="url(#pef2b572566)" d="M 52.977402 113.22319 
L 53.075082 113.22319 
" style="fill:none;stroke:#68fcc1;"/>
   </g>
   <g id="LineCollection_12">
    <path clip-path="url(#pef2b572566)" d="M 52.879721 124.62046 
L 54.829604 124.62046 
" style="fill:none;stroke:#68fcc1;"/>
   </g>
   <g id="LineCollection_13">
    <path clip-path="url(#pef2b572566)" d="M 52.782041 136.01773 
L 52.879721 136.01773 
" style="fill:none;stroke:#68fcc1;"/>
   </g>
   <g id="LineCollection_14">
    <path clip-path="url(#pef2b572566)" d="M 50.832158 147.415 
L 76.182291 147.415 
" style="fill:none;stroke:#c4c4c4;"/>
   </g>
   <g id="LineCollection_15">
    <path clip-path="url(#pef2b572566)" d="M 46.456407 164.510905 
L 53.433106 164.510905 
" style="fill:none;stroke:#68fcc1;"/>
   </g>
   <g id="LineCollection_16">
    <path clip-path="url(#pef2b572566)" d="M 53.433106 158.81227 
L 58.30802 158.81227 
" style="fill:none;stroke:#68fcc1;"/>
   </g>
   <g id="LineCollection_17">
    <path clip-path="url(#pef2b572566)" d="M 53.433106 170.20954 
L 55.586213 170.20954 
" style="fill:none;stroke:#68fcc1;"/>
   </g>
   <g id="LineCollection_18">
    <path clip-path="url(#pef2b572566)" d="M 40.606345 181.60681 
L 57.74553 181.60681 
" style="fill:none;stroke:#68fcc1;"/>
   </g>
   <g id="LineCollection_19">
    <path clip-path="url(#pef2b572566)" d="M 31.395 198.702716 
L 43.095125 198.702716 
" style="fill:none;stroke:#68fcc1;"/>
   </g>
   <g id="LineCollection_20">
    <path clip-path="url(#pef2b572566)" d="M 43.095125 193.00408 
L 45.045008 193.00408 
" style="fill:none;stroke:#68fcc1;"/>
   </g>
   <g id="LineCollection_21">
    <path clip-path="url(#pef2b572566)" d="M 43.095125 204.401351 
L 46.020157 204.401351 
" style="fill:none;stroke:#68fcc1;"/>
   </g>
   <g id="LineCollection_22">
    <path clip-path="url(#pef2b572566)" d="M 31.395 198.702716 
L 31.395 166.024605 
" style="fill:none;stroke:#68fcc1;"/>
   </g>
   <g id="LineCollection_23">
    <path clip-path="url(#pef2b572566)" d="M 40.606345 181.60681 
L 40.606345 150.4424 
" style="fill:none;stroke:#68fcc1;"/>
   </g>
   <g id="LineCollection_24">
    <path clip-path="url(#pef2b572566)" d="M 46.456407 164.510905 
L 46.456407 136.373895 
" style="fill:none;stroke:#68fcc1;"/>
   </g>
   <g id="LineCollection_25">
    <path clip-path="url(#pef2b572566)" d="M 50.832158 147.415 
L 50.832158 125.332789 
" style="fill:none;stroke:#68fcc1;"/>
   </g>
   <g id="LineCollection_26">
    <path clip-path="url(#pef2b572566)" d="M 52.782041 136.01773 
L 52.782041 114.647848 
" style="fill:none;stroke:#68fcc1;"/>
   </g>
   <g id="LineCollection_27">
    <path clip-path="url(#pef2b572566)" d="M 52.879721 124.62046 
L 52.879721 104.675237 
" style="fill:none;stroke:#68fcc1;"/>
   </g>
   <g id="LineCollection_28">
    <path clip-path="url(#pef2b572566)" d="M 52.977402 113.22319 
L 52.977402 96.127284 
" style="fill:none;stroke:#68fcc1;"/>
   </g>
   <g id="LineCollection_29">
    <path clip-path="url(#pef2b572566)" d="M 53.075082 101.82592 
L 53.075082 90.428649 
" style="fill:none;stroke:#68fcc1;"/>
   </g>
   <g id="LineCollection_30">
    <path clip-path="url(#pef2b572566)" d="M 53.433106 170.20954 
L 53.433106 158.81227 
" style="fill:none;stroke:#68fcc1;"/>
   </g>
   <g id="LineCollection_31">
    <path clip-path="url(#pef2b572566)" d="M 43.095125 204.401351 
L 43.095125 193.00408 
" style="fill:none;stroke:#68fcc1;"/>
   </g>
   <g id="PathCollection_1">
    <defs>
     <path d="M 0 1.581139 
C 0.419323 1.581139 0.821528 1.41454 1.118034 1.118034 
C 1.41454 0.821528 1.581139 0.419323 1.581139 -0 
C 1.581139 -0.419323 1.41454 -0.821528 1.118034 -1.118034 
C 0.821528 -1.41454 0.419323 -1.581139 0 -1.581139 
C -0.419323 -1.581139 -0.821528 -1.41454 -1.118034 -1.118034 
C -1.41454 -0.821528 -1.581139 -0.419323 -1.581139 0 
C -1.581139 0.419323 -1.41454 0.821528 -1.118034 1.118034 
C -0.821528 1.41454 -0.419323 1.581139 0 1.581139 
z
" id="C0_0_b52298429c"/>
    </defs>
    <g clip-path="url(#pef2b572566)">
     <use style="fill:#68fcc1;stroke:#000000;stroke-width:0.252982;" x="53.172762" xlink:href="#C0_0_b52298429c" y="90.428649"/>
    </g>
    <g clip-path="url(#pef2b572566)">
     <use style="fill:#68fcc1;stroke:#000000;stroke-width:0.252982;" x="53.172762" xlink:href="#C0_0_b52298429c" y="101.82592"/>
    </g>
    <g clip-path="url(#pef2b572566)">
     <use style="fill:#68fcc1;stroke:#000000;stroke-width:0.252982;" x="53.075082" xlink:href="#C0_0_b52298429c" y="113.22319"/>
    </g>
    <g clip-path="url(#pef2b572566)">
     <use style="fill:#68fcc1;stroke:#000000;stroke-width:0.252982;" x="54.829604" xlink:href="#C0_0_b52298429c" y="124.62046"/>
    </g>
    <g clip-path="url(#pef2b572566)">
     <use style="fill:#68fcc1;stroke:#000000;stroke-width:0.252982;" x="52.879721" xlink:href="#C0_0_b52298429c" y="136.01773"/>
    </g>
    <g clip-path="url(#pef2b572566)">
     <use style="fill:#c4c4c4;stroke:#000000;stroke-width:0.252982;" x="76.182291" xlink:href="#C0_0_b52298429c" y="147.415"/>
    </g>
    <g clip-path="url(#pef2b572566)">
     <use style="fill:#68fcc1;stroke:#000000;stroke-width:0.252982;" x="58.30802" xlink:href="#C0_0_b52298429c" y="158.81227"/>
    </g>
    <g clip-path="url(#pef2b572566)">
     <use style="fill:#68fcc1;stroke:#000000;stroke-width:0.252982;" x="55.586213" xlink:href="#C0_0_b52298429c" y="170.20954"/>
    </g>
    <g clip-path="url(#pef2b572566)">
     <use style="fill:#68fcc1;stroke:#000000;stroke-width:0.252982;" x="57.74553" xlink:href="#C0_0_b52298429c" y="181.60681"/>
    </g>
    <g clip-path="url(#pef2b572566)">
     <use style="fill:#68fcc1;stroke:#000000;stroke-width:0.252982;" x="45.045008" xlink:href="#C0_0_b52298429c" y="193.00408"/>
    </g>
    <g clip-path="url(#pef2b572566)">
     <use style="fill:#68fcc1;stroke:#000000;stroke-width:0.252982;" x="46.020157" xlink:href="#C0_0_b52298429c" y="204.401351"/>
    </g>
   </g>
   <g id="patch_3">
    <path d="M 10.7 226.74 
L 10.7 68.09 
" style="fill:none;stroke:#000000;stroke-linecap:square;stroke-linejoin:miter;stroke-width:0.8;"/>
   </g>
   <g id="patch_4">
    <path d="M 10.7 226.74 
L 321.125 226.74 
" style="fill:none;stroke:#000000;stroke-linecap:square;stroke-linejoin:miter;stroke-width:0.8;"/>
   </g>
   <g id="text_7">
    <text style="font-family:DejaVu Sans;font-size:14px;font-stretch:normal;font-style:normal;font-weight:normal;text-anchor:start;" transform="rotate(-0, 31.395, 186.226785)" x="31.395" y="186.226785"> </text>
   </g>
   <g id="text_8">
    <text style="font-family:DejaVu Sans;font-size:14px;font-stretch:normal;font-style:normal;font-weight:normal;text-anchor:start;" transform="rotate(-0, 40.606345, 169.88773)" x="40.606345" y="169.88773"> </text>
   </g>
   <g id="text_9">
    <text style="font-family:DejaVu Sans;font-size:14px;font-stretch:normal;font-style:normal;font-weight:normal;text-anchor:start;" transform="rotate(-0, 46.456407, 154.305525)" x="46.456407" y="154.305525"> </text>
   </g>
   <g id="text_10">
    <text style="font-family:DejaVu Sans;font-size:14px;font-stretch:normal;font-style:normal;font-weight:normal;text-anchor:start;" transform="rotate(-0, 50.832158, 140.23702)" x="50.832158" y="140.23702"> </text>
   </g>
   <g id="text_11">
    <text style="font-family:DejaVu Sans;font-size:14px;font-stretch:normal;font-style:normal;font-weight:normal;text-anchor:start;" transform="rotate(-0, 52.782041, 129.195914)" x="52.782041" y="129.195914"> </text>
   </g>
   <g id="text_12">
    <text style="font-family:DejaVu Sans;font-size:14px;font-stretch:normal;font-style:normal;font-weight:normal;text-anchor:start;" transform="rotate(-0, 52.879721, 118.510973)" x="52.879721" y="118.510973"> </text>
   </g>
   <g id="text_13">
    <text style="font-family:DejaVu Sans;font-size:14px;font-stretch:normal;font-style:normal;font-weight:normal;text-anchor:start;" transform="rotate(-0, 52.977402, 108.538362)" x="52.977402" y="108.538362"> </text>
   </g>
   <g id="text_14">
    <text style="font-family:DejaVu Sans;font-size:14px;font-stretch:normal;font-style:normal;font-weight:normal;text-anchor:start;" transform="rotate(-0, 53.075082, 99.990409)" x="53.075082" y="99.990409"> </text>
   </g>
   <g id="text_15">
    <text style="font-family:DejaVu Sans;font-size:14px;font-stretch:normal;font-style:normal;font-weight:normal;text-anchor:start;" transform="rotate(-0, 53.172762, 94.291774)" x="53.172762" y="94.291774"> </text>
   </g>
   <g id="text_16">
    <text style="font-family:DejaVu Sans;font-size:14px;font-stretch:normal;font-style:normal;font-weight:normal;text-anchor:start;" transform="rotate(-0, 53.172762, 105.689045)" x="53.172762" y="105.689045"> </text>
   </g>
   <g id="text_17">
    <text style="font-family:DejaVu Sans;font-size:14px;font-stretch:normal;font-style:normal;font-weight:normal;text-anchor:start;" transform="rotate(-0, 53.075082, 117.086315)" x="53.075082" y="117.086315"> </text>
   </g>
   <g id="text_18">
    <text style="font-family:DejaVu Sans;font-size:14px;font-stretch:normal;font-style:normal;font-weight:normal;text-anchor:start;" transform="rotate(-0, 54.829604, 128.483585)" x="54.829604" y="128.483585"> </text>
   </g>
   <g id="text_19">
    <text style="font-family:DejaVu Sans;font-size:14px;font-stretch:normal;font-style:normal;font-weight:normal;text-anchor:start;" transform="rotate(-0, 52.879721, 139.880855)" x="52.879721" y="139.880855"> </text>
   </g>
   <g id="text_20">
    <text style="font-family:DejaVu Sans;font-size:14px;font-stretch:normal;font-style:normal;font-weight:normal;text-anchor:start;" transform="rotate(-0, 76.182291, 151.278125)" x="76.182291" y="151.278125"> </text>
   </g>
   <g id="text_21">
    <text style="font-family:DejaVu Sans;font-size:14px;font-stretch:normal;font-style:normal;font-weight:normal;text-anchor:start;" transform="rotate(-0, 53.433106, 168.37403)" x="53.433106" y="168.37403"> </text>
   </g>
   <g id="text_22">
    <text style="font-family:DejaVu Sans;font-size:14px;font-stretch:normal;font-style:normal;font-weight:normal;text-anchor:start;" transform="rotate(-0, 58.30802, 162.675395)" x="58.30802" y="162.675395"> </text>
   </g>
   <g id="text_23">
    <text style="font-family:DejaVu Sans;font-size:14px;font-stretch:normal;font-style:normal;font-weight:normal;text-anchor:start;" transform="rotate(-0, 55.586213, 174.072665)" x="55.586213" y="174.072665"> </text>
   </g>
   <g id="text_24">
    <text style="font-family:DejaVu Sans;font-size:14px;font-stretch:normal;font-style:normal;font-weight:normal;text-anchor:start;" transform="rotate(-0, 57.74553, 185.469935)" x="57.74553" y="185.469935"> </text>
   </g>
   <g id="text_25">
    <text style="font-family:DejaVu Sans;font-size:14px;font-stretch:normal;font-style:normal;font-weight:normal;text-anchor:start;" transform="rotate(-0, 43.095125, 202.565841)" x="43.095125" y="202.565841"> </text>
   </g>
   <g id="text_26">
    <text style="font-family:DejaVu Sans;font-size:14px;font-stretch:normal;font-style:normal;font-weight:normal;text-anchor:start;" transform="rotate(-0, 45.045008, 196.867205)" x="45.045008" y="196.867205"> </text>
   </g>
   <g id="text_27">
    <text style="font-family:DejaVu Sans;font-size:14px;font-stretch:normal;font-style:normal;font-weight:normal;text-anchor:start;" transform="rotate(-0, 46.020157, 208.264476)" x="46.020157" y="208.264476"> </text>
   </g>
   <g id="text_28">
    <text style="font-family:DejaVu Sans;font-size:16.8px;font-stretch:normal;font-style:normal;font-weight:normal;text-anchor:middle;" transform="rotate(-0, 165.9125, 62.09)" x="165.9125" y="62.09">NODE221</text>
   </g>
  </g>
  <g id="axes_2">
   <g id="patch_5">
    <path d="M 10.7 68.09 
L 321.125 68.09 
L 321.125 36.36 
L 10.7 36.36 
z
" style="fill:#ffffff;"/>
   </g>
   <g id="PolyCollection_1">
    <defs>
     <path d="M 31.395 -219.830533 
L 31.395 -219.625687 
L 31.620062 -219.625687 
L 31.845124 -219.625687 
L 32.070185 -219.625687 
L 32.295247 -219.625687 
L 32.520309 -219.625687 
L 32.745371 -219.625687 
L 32.970432 -219.625687 
L 33.195494 -219.625687 
L 33.420556 -219.625687 
L 33.645618 -219.625687 
L 33.870679 -219.625687 
L 34.095741 -219.625687 
L 34.320803 -219.625687 
L 34.545865 -219.625687 
L 34.770926 -219.625687 
L 34.995988 -219.625687 
L 35.22105 -219.625687 
L 35.446112 -219.625687 
L 35.671174 -219.625687 
L 35.896235 -219.625687 
L 36.121297 -219.625687 
L 36.346359 -219.625687 
L 36.571421 -219.625687 
L 36.796482 -219.625687 
L 37.021544 -219.625687 
L 37.246606 -219.625687 
L 37.471668 -219.625687 
L 37.696729 -219.625687 
L 37.921791 -219.625687 
L 38.146853 -219.625687 
L 38.371915 -219.625687 
L 38.596976 -219.625687 
L 38.822038 -219.625687 
L 39.0471 -219.625687 
L 39.272162 -219.625687 
L 39.497224 -219.625687 
L 39.722285 -219.625687 
L 39.947347 -219.625687 
L 40.172409 -219.625687 
L 40.397471 -219.625687 
L 40.622532 -219.625687 
L 40.847594 -219.625687 
L 41.072656 -219.625687 
L 41.297718 -219.625687 
L 41.522779 -219.625687 
L 41.747841 -219.625687 
L 41.972903 -219.625687 
L 42.197965 -219.625687 
L 42.423026 -219.625687 
L 42.648088 -219.625687 
L 42.87315 -219.625687 
L 43.098212 -219.625687 
L 43.323274 -219.625687 
L 43.548335 -219.625687 
L 43.773397 -219.625687 
L 43.998459 -219.625687 
L 44.223521 -219.625687 
L 44.448582 -219.625687 
L 44.673644 -219.625687 
L 44.898706 -219.625687 
L 45.123768 -219.625687 
L 45.348829 -219.625687 
L 45.573891 -219.625687 
L 45.798953 -219.625687 
L 46.024015 -219.625687 
L 46.249076 -219.625687 
L 46.474138 -219.625687 
L 46.6992 -219.625687 
L 46.924262 -219.625687 
L 47.149324 -219.625687 
L 47.374385 -219.625687 
L 47.599447 -219.625687 
L 47.824509 -219.625687 
L 48.049571 -219.625687 
L 48.274632 -219.625687 
L 48.499694 -219.625687 
L 48.724756 -219.625687 
L 48.949818 -219.625687 
L 49.174879 -219.625687 
L 49.399941 -219.625687 
L 49.625003 -219.625687 
L 49.850065 -219.625687 
L 50.075126 -219.625687 
L 50.300188 -219.625687 
L 50.52525 -219.625687 
L 50.750312 -219.625687 
L 50.975374 -219.625687 
L 51.200435 -219.625687 
L 51.425497 -219.625687 
L 51.650559 -219.625687 
L 51.875621 -219.625687 
L 52.100682 -219.625687 
L 52.325744 -219.625687 
L 52.550806 -219.625687 
L 52.775868 -219.625687 
L 53.000929 -219.625687 
L 53.225991 -219.625687 
L 53.451053 -219.625687 
L 53.676115 -219.625687 
L 53.901176 -219.625687 
L 54.126238 -219.625687 
L 54.3513 -219.625687 
L 54.576362 -219.625687 
L 54.801424 -219.625687 
L 55.026485 -219.625687 
L 55.251547 -219.625687 
L 55.476609 -219.625687 
L 55.701671 -219.625687 
L 55.926732 -219.625687 
L 56.151794 -219.625687 
L 56.376856 -219.625687 
L 56.601918 -219.625687 
L 56.826979 -219.625687 
L 57.052041 -219.625687 
L 57.277103 -219.625687 
L 57.502165 -219.625687 
L 57.727226 -219.625687 
L 57.952288 -219.625687 
L 58.17735 -219.625687 
L 58.402412 -219.625687 
L 58.627474 -219.625687 
L 58.852535 -219.625687 
L 59.077597 -219.625687 
L 59.302659 -219.625687 
L 59.527721 -219.625687 
L 59.752782 -219.625687 
L 59.977844 -219.625687 
L 60.202906 -219.625687 
L 60.427968 -219.625687 
L 60.653029 -219.625687 
L 60.878091 -219.625687 
L 61.103153 -219.625687 
L 61.328215 -219.625687 
L 61.553276 -219.625687 
L 61.778338 -219.625687 
L 62.0034 -219.625687 
L 62.228462 -219.625687 
L 62.453524 -219.625687 
L 62.678585 -219.625687 
L 62.903647 -219.625687 
L 63.128709 -219.625687 
L 63.353771 -219.625687 
L 63.578832 -219.625687 
L 63.803894 -219.625687 
L 64.028956 -219.625687 
L 64.254018 -219.625687 
L 64.479079 -219.625687 
L 64.704141 -219.625687 
L 64.929203 -219.625687 
L 65.154265 -219.625687 
L 65.379326 -219.625687 
L 65.604388 -219.625687 
L 65.82945 -219.625687 
L 66.054512 -219.625687 
L 66.279574 -219.625687 
L 66.504635 -219.625687 
L 66.729697 -219.625687 
L 66.954759 -219.625687 
L 67.179821 -219.625687 
L 67.404882 -219.625687 
L 67.629944 -219.625687 
L 67.855006 -219.625687 
L 68.080068 -219.625687 
L 68.305129 -219.625687 
L 68.530191 -219.625687 
L 68.755253 -219.625687 
L 68.980315 -219.625687 
L 69.205376 -219.625687 
L 69.430438 -219.625687 
L 69.6555 -219.625687 
L 69.880562 -219.625687 
L 70.105624 -219.625687 
L 70.330685 -219.625687 
L 70.555747 -219.625687 
L 70.780809 -219.625687 
L 71.005871 -219.625687 
L 71.230932 -219.625687 
L 71.455994 -219.625687 
L 71.681056 -219.625687 
L 71.906118 -219.625687 
L 72.131179 -219.625687 
L 72.356241 -219.625687 
L 72.581303 -219.625687 
L 72.806365 -219.625687 
L 73.031426 -219.625687 
L 73.256488 -219.625687 
L 73.48155 -219.625687 
L 73.706612 -219.625687 
L 73.931674 -219.625687 
L 74.156735 -219.625687 
L 74.381797 -219.625687 
L 74.606859 -219.625687 
L 74.831921 -219.625687 
L 75.056982 -219.625687 
L 75.282044 -219.625687 
L 75.507106 -219.625687 
L 75.732168 -219.625687 
L 75.957229 -219.625687 
L 76.182291 -219.625687 
L 76.182291 -221.922156 
L 76.182291 -221.922156 
L 75.957229 -221.918569 
L 75.732168 -221.907759 
L 75.507106 -221.889832 
L 75.282044 -221.864962 
L 75.056982 -221.833388 
L 74.831921 -221.795411 
L 74.606859 -221.751389 
L 74.381797 -221.701731 
L 74.156735 -221.646894 
L 73.931674 -221.587376 
L 73.706612 -221.523706 
L 73.48155 -221.456442 
L 73.256488 -221.386162 
L 73.031426 -221.313454 
L 72.806365 -221.238915 
L 72.581303 -221.163142 
L 72.356241 -221.086726 
L 72.131179 -221.010246 
L 71.906118 -220.934267 
L 71.681056 -220.859335 
L 71.455994 -220.785974 
L 71.230932 -220.714683 
L 71.005871 -220.645937 
L 70.780809 -220.580186 
L 70.555747 -220.517855 
L 70.330685 -220.459344 
L 70.105624 -220.405036 
L 69.880562 -220.355291 
L 69.6555 -220.310459 
L 69.430438 -220.270876 
L 69.205376 -220.236875 
L 68.980315 -220.208785 
L 68.755253 -220.18694 
L 68.530191 -220.171686 
L 68.305129 -220.16338 
L 68.080068 -220.162399 
L 67.855006 -220.169146 
L 67.629944 -220.184052 
L 67.404882 -220.207583 
L 67.179821 -220.24024 
L 66.954759 -220.282567 
L 66.729697 -220.335149 
L 66.504635 -220.398617 
L 66.279574 -220.47365 
L 66.054512 -220.560971 
L 65.82945 -220.661352 
L 65.604388 -220.775608 
L 65.379326 -220.9046 
L 65.154265 -221.049225 
L 64.929203 -221.21042 
L 64.704141 -221.389152 
L 64.479079 -221.586411 
L 64.254018 -221.803207 
L 64.028956 -222.040562 
L 63.803894 -222.299498 
L 63.578832 -222.581027 
L 63.353771 -222.886145 
L 63.128709 -223.215816 
L 62.903647 -223.570959 
L 62.678585 -223.952438 
L 62.453524 -224.361044 
L 62.228462 -224.797482 
L 62.0034 -225.262352 
L 61.778338 -225.756136 
L 61.553276 -226.279181 
L 61.328215 -226.831677 
L 61.103153 -227.413643 
L 60.878091 -228.024911 
L 60.653029 -228.665105 
L 60.427968 -229.333626 
L 60.202906 -230.029638 
L 59.977844 -230.752052 
L 59.752782 -231.499513 
L 59.527721 -232.270389 
L 59.302659 -233.062767 
L 59.077597 -233.874441 
L 58.852535 -234.702915 
L 58.627474 -235.545402 
L 58.402412 -236.398831 
L 58.17735 -237.259858 
L 57.952288 -238.124876 
L 57.727226 -238.990039 
L 57.502165 -239.851284 
L 57.277103 -240.704361 
L 57.052041 -241.544868 
L 56.826979 -242.368287 
L 56.601918 -243.170028 
L 56.376856 -243.945477 
L 56.151794 -244.690044 
L 55.926732 -245.399217 
L 55.701671 -246.068616 
L 55.476609 -246.694049 
L 55.251547 -247.271564 
L 55.026485 -247.797506 
L 54.801424 -248.268568 
L 54.576362 -248.68184 
L 54.3513 -249.034852 
L 54.126238 -249.325612 
L 53.901176 -249.552643 
L 53.676115 -249.715004 
L 53.451053 -249.812308 
L 53.225991 -249.844735 
L 53.000929 -249.813031 
L 52.775868 -249.718497 
L 52.550806 -249.562977 
L 52.325744 -249.348829 
L 52.100682 -249.078892 
L 51.875621 -248.756443 
L 51.650559 -248.385152 
L 51.425497 -247.969025 
L 51.200435 -247.512342 
L 50.975374 -247.0196 
L 50.750312 -246.495443 
L 50.52525 -245.944597 
L 50.300188 -245.371801 
L 50.075126 -244.781745 
L 49.850065 -244.179007 
L 49.625003 -243.567992 
L 49.399941 -242.952881 
L 49.174879 -242.337584 
L 48.949818 -241.725693 
L 48.724756 -241.120456 
L 48.499694 -240.524745 
L 48.274632 -239.941041 
L 48.049571 -239.371421 
L 47.824509 -238.817555 
L 47.599447 -238.280711 
L 47.374385 -237.761768 
L 47.149324 -237.261231 
L 46.924262 -236.779257 
L 46.6992 -236.315679 
L 46.474138 -235.870043 
L 46.249076 -235.44164 
L 46.024015 -235.029545 
L 45.798953 -234.632653 
L 45.573891 -234.249721 
L 45.348829 -233.879403 
L 45.123768 -233.520293 
L 44.898706 -233.170951 
L 44.673644 -232.829947 
L 44.448582 -232.495881 
L 44.223521 -232.167416 
L 43.998459 -231.8433 
L 43.773397 -231.522384 
L 43.548335 -231.203638 
L 43.323274 -230.886164 
L 43.098212 -230.569205 
L 42.87315 -230.252147 
L 42.648088 -229.934524 
L 42.423026 -229.616013 
L 42.197965 -229.296435 
L 41.972903 -228.975744 
L 41.747841 -228.65402 
L 41.522779 -228.331462 
L 41.297718 -228.008373 
L 41.072656 -227.685149 
L 40.847594 -227.362269 
L 40.622532 -227.040277 
L 40.397471 -226.719773 
L 40.172409 -226.401398 
L 39.947347 -226.085822 
L 39.722285 -225.773732 
L 39.497224 -225.465818 
L 39.272162 -225.162767 
L 39.0471 -224.86525 
L 38.822038 -224.573912 
L 38.596976 -224.289368 
L 38.371915 -224.012191 
L 38.146853 -223.742913 
L 37.921791 -223.482012 
L 37.696729 -223.229914 
L 37.471668 -222.986988 
L 37.246606 -222.753546 
L 37.021544 -222.529836 
L 36.796482 -222.316051 
L 36.571421 -222.112319 
L 36.346359 -221.918713 
L 36.121297 -221.735249 
L 35.896235 -221.561887 
L 35.671174 -221.398536 
L 35.446112 -221.245058 
L 35.22105 -221.10127 
L 34.995988 -220.966947 
L 34.770926 -220.841829 
L 34.545865 -220.725624 
L 34.320803 -220.618012 
L 34.095741 -220.518648 
L 33.870679 -220.427171 
L 33.645618 -220.343202 
L 33.420556 -220.266355 
L 33.195494 -220.196234 
L 32.970432 -220.132442 
L 32.745371 -220.074582 
L 32.520309 -220.02226 
L 32.295247 -219.975089 
L 32.070185 -219.932692 
L 31.845124 -219.8947 
L 31.620062 -219.86076 
L 31.395 -219.830533 
z
" id="m2cdddc5ffe" style="stroke:#68fcc1;"/>
    </defs>
    <g clip-path="url(#pf3e8f90d58)">
     <use style="fill:#68fcc1;fill-opacity:0.25;stroke:#68fcc1;" x="0" xlink:href="#m2cdddc5ffe" y="287.715688"/>
    </g>
   </g>
   <g id="matplotlib.axis_3">
    <g id="xtick_5">
     <g id="line2d_5">
      <g>
       <use style="stroke:#000000;stroke-width:0.8;" x="31.395" xlink:href="#m1dd08879d4" y="68.09"/>
      </g>
     </g>
    </g>
    <g id="xtick_6">
     <g id="line2d_6">
      <g>
       <use style="stroke:#000000;stroke-width:0.8;" x="114.175" xlink:href="#m1dd08879d4" y="68.09"/>
      </g>
     </g>
    </g>
    <g id="xtick_7">
     <g id="line2d_7">
      <g>
       <use style="stroke:#000000;stroke-width:0.8;" x="196.955" xlink:href="#m1dd08879d4" y="68.09"/>
      </g>
     </g>
    </g>
    <g id="xtick_8">
     <g id="line2d_8">
      <g>
       <use style="stroke:#000000;stroke-width:0.8;" x="279.735" xlink:href="#m1dd08879d4" y="68.09"/>
      </g>
     </g>
    </g>
    <g id="text_29">
     <text style="font-family:DejaVu Sans;font-size:14px;font-stretch:normal;font-style:normal;font-weight:normal;text-anchor:end;" transform="rotate(-0, 321.125, 81.727813)" x="321.125" y="81.727813">1e−5</text>
    </g>
   </g>
   <g id="matplotlib.axis_4">
    <g id="ytick_1"/>
    <g id="ytick_2"/>
   </g>
   <g id="patch_6">
    <path d="M 10.7 68.09 
L 321.125 68.09 
" style="fill:none;stroke:#000000;stroke-linecap:square;stroke-linejoin:miter;stroke-width:0.8;"/>
   </g>
  </g>
  <g id="axes_3">
   <g id="patch_7">
    <path d="M 321.125 226.74 
L 383.21 226.74 
L 383.21 68.09 
L 321.125 68.09 
z
" style="fill:#ffffff;"/>
   </g>
   <g id="matplotlib.axis_5">
    <g id="xtick_9"/>
    <g id="xtick_10"/>
   </g>
   <g id="matplotlib.axis_6"/>
   <g id="patch_8">
    <path d="M 321.125 226.74 
L 321.125 68.09 
" style="fill:none;stroke:#000000;stroke-linecap:square;stroke-linejoin:miter;stroke-width:0.8;"/>
   </g>
  </g>
  <g id="text_30">
   <text style="font-family:DejaVu Sans;font-size:16.8px;font-stretch:normal;font-style:normal;font-weight:bold;text-anchor:middle;" transform="rotate(-0, 160.73, 19.965375)" x="160.73" y="19.965375">4.ANT</text>
  </g>
 </g>
 <defs>
  <clipPath id="pef2b572566">
   <rect height="158.65" width="310.425" x="10.7" y="68.09"/>
  </clipPath>
  <clipPath id="pf3e8f90d58">
   <rect height="31.73" width="310.425" x="10.7" y="36.36"/>
  </clipPath>
 </defs>
</svg>
