<?xml version="1.0" encoding="utf-8" standalone="no"?>
<!DOCTYPE svg PUBLIC "-//W3C//DTD SVG 1.1//EN"
  "http://www.w3.org/Graphics/SVG/1.1/DTD/svg11.dtd">
<!-- Created with matplotlib (https://matplotlib.org/) -->
<svg height="287.715688pt" version="1.1" viewBox="0 0 390.41 287.715688" width="390.41pt" xmlns="http://www.w3.org/2000/svg" xmlns:xlink="http://www.w3.org/1999/xlink">
 <metadata>
  <rdf:RDF xmlns:cc="http://creativecommons.org/ns#" xmlns:dc="http://purl.org/dc/elements/1.1/" xmlns:rdf="http://www.w3.org/1999/02/22-rdf-syntax-ns#">
   <cc:Work>
    <dc:type rdf:resource="http://purl.org/dc/dcmitype/StillImage"/>
    <dc:date>2021-10-05T10:43:31.189406</dc:date>
    <dc:format>image/svg+xml</dc:format>
    <dc:creator>
     <cc:Agent>
      <dc:title>Matplotlib v3.3.2, https://matplotlib.org/</dc:title>
     </cc:Agent>
    </dc:creator>
   </cc:Work>
  </rdf:RDF>
 </metadata>
 <defs>
  <style type="text/css">*{stroke-linecap:butt;stroke-linejoin:round;}</style>
 </defs>
 <g id="figure_1">
  <g id="patch_1">
   <path d="M 0 287.715688 
L 390.41 287.715688 
L 390.41 0 
L 0 0 
z
" style="fill:#ffffff;"/>
  </g>
  <g id="axes_1">
   <g id="patch_2">
    <path d="M 10.7 226.74 
L 321.125 226.74 
L 321.125 68.09 
L 10.7 68.09 
z
" style="fill:#ffffff;"/>
   </g>
   <g id="matplotlib.axis_1">
    <g id="xtick_1">
     <g id="line2d_1">
      <defs>
       <path d="M 0 0 
L 0 3.5 
" id="m0fac278637" style="stroke:#000000;stroke-width:0.8;"/>
      </defs>
      <g>
       <use style="stroke:#000000;stroke-width:0.8;" x="31.395" xlink:href="#m0fac278637" y="226.74"/>
      </g>
     </g>
     <g id="text_1">
      <text style="font-family:DejaVu Sans;font-size:14px;font-stretch:normal;font-style:normal;font-weight:normal;text-anchor:middle;" transform="rotate(-0, 31.395, 244.377813)" x="31.395" y="244.377813">0</text>
     </g>
    </g>
    <g id="xtick_2">
     <g id="line2d_2">
      <g>
       <use style="stroke:#000000;stroke-width:0.8;" x="114.175" xlink:href="#m0fac278637" y="226.74"/>
      </g>
     </g>
     <g id="text_2">
      <text style="font-family:DejaVu Sans;font-size:14px;font-stretch:normal;font-style:normal;font-weight:normal;text-anchor:middle;" transform="rotate(-0, 114.175, 244.377813)" x="114.175" y="244.377813">2</text>
     </g>
    </g>
    <g id="xtick_3">
     <g id="line2d_3">
      <g>
       <use style="stroke:#000000;stroke-width:0.8;" x="196.955" xlink:href="#m0fac278637" y="226.74"/>
      </g>
     </g>
     <g id="text_3">
      <text style="font-family:DejaVu Sans;font-size:14px;font-stretch:normal;font-style:normal;font-weight:normal;text-anchor:middle;" transform="rotate(-0, 196.955, 244.377813)" x="196.955" y="244.377813">4</text>
     </g>
    </g>
    <g id="xtick_4">
     <g id="line2d_4">
      <g>
       <use style="stroke:#000000;stroke-width:0.8;" x="279.735" xlink:href="#m0fac278637" y="226.74"/>
      </g>
     </g>
     <g id="text_4">
      <text style="font-family:DejaVu Sans;font-size:14px;font-stretch:normal;font-style:normal;font-weight:normal;text-anchor:middle;" transform="rotate(-0, 279.735, 244.377813)" x="279.735" y="244.377813">6</text>
     </g>
    </g>
    <g id="text_5">
     <text style="font-family:DejaVu Sans;font-size:14px;font-stretch:normal;font-style:normal;font-weight:normal;" transform="translate(89.885938 261.927188)">Distance to the MRCA</text>
     <text style="font-family:DejaVu Sans;font-size:14px;font-stretch:normal;font-style:normal;font-weight:normal;" transform="translate(98.757344 277.604125)">(Substitutions/Site)</text>
    </g>
    <g id="text_6">
     <text style="font-family:DejaVu Sans;font-size:14px;font-stretch:normal;font-style:normal;font-weight:normal;text-anchor:end;" transform="rotate(-0, 321.125, 260.927188)" x="321.125" y="260.927188">1e−5</text>
    </g>
   </g>
   <g id="matplotlib.axis_2"/>
   <g id="LineCollection_1">
    <path clip-path="url(#pca766b4a04)" d="M 31.395 185.697051 
L 31.395 185.697051 
" style="fill:none;stroke:#0cc1e8;"/>
   </g>
   <g id="LineCollection_2">
    <path clip-path="url(#pca766b4a04)" d="M 31.395 166.269115 
L 76.023354 166.269115 
" style="fill:none;stroke:#0cc1e8;"/>
   </g>
   <g id="LineCollection_3">
    <path clip-path="url(#pca766b4a04)" d="M 76.023354 145.775512 
L 79.328759 145.775512 
" style="fill:none;stroke:#0cc1e8;"/>
   </g>
   <g id="LineCollection_4">
    <path clip-path="url(#pca766b4a04)" d="M 79.328759 128.396936 
L 80.905718 128.396936 
" style="fill:none;stroke:#0cc1e8;"/>
   </g>
   <g id="LineCollection_5">
    <path clip-path="url(#pca766b4a04)" d="M 80.905718 112.002054 
L 81.880866 112.002054 
" style="fill:none;stroke:#0cc1e8;"/>
   </g>
   <g id="LineCollection_6">
    <path clip-path="url(#pca766b4a04)" d="M 81.880866 102.820919 
L 82.08823 102.820919 
" style="fill:none;stroke:#0cc1e8;"/>
   </g>
   <g id="LineCollection_7">
    <path clip-path="url(#pca766b4a04)" d="M 82.08823 94.951376 
L 82.362646 94.951376 
" style="fill:none;stroke:#0cc1e8;"/>
   </g>
   <g id="LineCollection_8">
    <path clip-path="url(#pca766b4a04)" d="M 82.362646 89.705013 
L 85.287677 89.705013 
" style="fill:none;stroke:#0cc1e8;"/>
   </g>
   <g id="LineCollection_9">
    <path clip-path="url(#pca766b4a04)" d="M 82.362646 100.197738 
L 100.428553 100.197738 
" style="fill:none;stroke:#0cc1e8;"/>
   </g>
   <g id="LineCollection_10">
    <path clip-path="url(#pca766b4a04)" d="M 82.08823 110.690463 
L 82.185911 110.690463 
" style="fill:none;stroke:#0cc1e8;"/>
   </g>
   <g id="LineCollection_11">
    <path clip-path="url(#pca766b4a04)" d="M 81.880866 121.183188 
L 81.978547 121.183188 
" style="fill:none;stroke:#0cc1e8;"/>
   </g>
   <g id="LineCollection_12">
    <path clip-path="url(#pca766b4a04)" d="M 80.905718 144.791819 
L 81.003398 144.791819 
" style="fill:none;stroke:#0cc1e8;"/>
   </g>
   <g id="LineCollection_13">
    <path clip-path="url(#pca766b4a04)" d="M 81.003398 136.922275 
L 98.369401 136.922275 
" style="fill:none;stroke:#0cc1e8;"/>
   </g>
   <g id="LineCollection_14">
    <path clip-path="url(#pca766b4a04)" d="M 98.369401 131.675913 
L 110.605526 131.675913 
" style="fill:none;stroke:#0cc1e8;"/>
   </g>
   <g id="LineCollection_15">
    <path clip-path="url(#pca766b4a04)" d="M 98.369401 142.168638 
L 107.144495 142.168638 
" style="fill:none;stroke:#0cc1e8;"/>
   </g>
   <g id="LineCollection_16">
    <path clip-path="url(#pca766b4a04)" d="M 81.003398 152.661362 
L 99.807289 152.661362 
" style="fill:none;stroke:#0cc1e8;"/>
   </g>
   <g id="LineCollection_17">
    <path clip-path="url(#pca766b4a04)" d="M 79.328759 163.154087 
L 85.178822 163.154087 
" style="fill:none;stroke:#0cc1e8;"/>
   </g>
   <g id="LineCollection_18">
    <path clip-path="url(#pca766b4a04)" d="M 76.023354 186.762718 
L 76.121034 186.762718 
" style="fill:none;stroke:#0cc1e8;"/>
   </g>
   <g id="LineCollection_19">
    <path clip-path="url(#pca766b4a04)" d="M 76.121034 178.893175 
L 78.879264 178.893175 
" style="fill:none;stroke:#0cc1e8;"/>
   </g>
   <g id="LineCollection_20">
    <path clip-path="url(#pca766b4a04)" d="M 78.879264 173.646812 
L 78.976944 173.646812 
" style="fill:none;stroke:#0cc1e8;"/>
   </g>
   <g id="LineCollection_21">
    <path clip-path="url(#pca766b4a04)" d="M 78.879264 184.139537 
L 90.17625 184.139537 
" style="fill:none;stroke:#0cc1e8;"/>
   </g>
   <g id="LineCollection_22">
    <path clip-path="url(#pca766b4a04)" d="M 76.121034 194.632262 
L 78.070917 194.632262 
" style="fill:none;stroke:#0cc1e8;"/>
   </g>
   <g id="LineCollection_23">
    <path clip-path="url(#pca766b4a04)" d="M 31.395 205.124987 
L 45.515612 205.124987 
" style="fill:none;stroke:#0cc1e8;"/>
   </g>
   <g id="LineCollection_24">
    <path clip-path="url(#pca766b4a04)" d="M 31.395 205.124987 
L 31.395 166.269115 
" style="fill:none;stroke:#0cc1e8;"/>
   </g>
   <g id="LineCollection_25">
    <path clip-path="url(#pca766b4a04)" d="M 76.023354 186.762718 
L 76.023354 145.775512 
" style="fill:none;stroke:#0cc1e8;"/>
   </g>
   <g id="LineCollection_26">
    <path clip-path="url(#pca766b4a04)" d="M 79.328759 163.154087 
L 79.328759 128.396936 
" style="fill:none;stroke:#0cc1e8;"/>
   </g>
   <g id="LineCollection_27">
    <path clip-path="url(#pca766b4a04)" d="M 80.905718 144.791819 
L 80.905718 112.002054 
" style="fill:none;stroke:#0cc1e8;"/>
   </g>
   <g id="LineCollection_28">
    <path clip-path="url(#pca766b4a04)" d="M 81.880866 121.183188 
L 81.880866 102.820919 
" style="fill:none;stroke:#0cc1e8;"/>
   </g>
   <g id="LineCollection_29">
    <path clip-path="url(#pca766b4a04)" d="M 82.08823 110.690463 
L 82.08823 94.951376 
" style="fill:none;stroke:#0cc1e8;"/>
   </g>
   <g id="LineCollection_30">
    <path clip-path="url(#pca766b4a04)" d="M 82.362646 100.197738 
L 82.362646 89.705013 
" style="fill:none;stroke:#0cc1e8;"/>
   </g>
   <g id="LineCollection_31">
    <path clip-path="url(#pca766b4a04)" d="M 81.003398 152.661362 
L 81.003398 136.922275 
" style="fill:none;stroke:#0cc1e8;"/>
   </g>
   <g id="LineCollection_32">
    <path clip-path="url(#pca766b4a04)" d="M 98.369401 142.168638 
L 98.369401 131.675913 
" style="fill:none;stroke:#0cc1e8;"/>
   </g>
   <g id="LineCollection_33">
    <path clip-path="url(#pca766b4a04)" d="M 76.121034 194.632262 
L 76.121034 178.893175 
" style="fill:none;stroke:#0cc1e8;"/>
   </g>
   <g id="LineCollection_34">
    <path clip-path="url(#pca766b4a04)" d="M 78.879264 184.139537 
L 78.879264 173.646812 
" style="fill:none;stroke:#0cc1e8;"/>
   </g>
   <g id="PathCollection_1">
    <defs>
     <path d="M 0 1.581139 
C 0.419323 1.581139 0.821528 1.41454 1.118034 1.118034 
C 1.41454 0.821528 1.581139 0.419323 1.581139 -0 
C 1.581139 -0.419323 1.41454 -0.821528 1.118034 -1.118034 
C 0.821528 -1.41454 0.419323 -1.581139 0 -1.581139 
C -0.419323 -1.581139 -0.821528 -1.41454 -1.118034 -1.118034 
C -1.41454 -0.821528 -1.581139 -0.419323 -1.581139 0 
C -1.581139 0.419323 -1.41454 0.821528 -1.118034 1.118034 
C -0.821528 1.41454 -0.419323 1.581139 0 1.581139 
z
" id="C0_0_69bba3c494"/>
    </defs>
    <g clip-path="url(#pca766b4a04)">
     <use style="fill:#0cc1e8;stroke:#000000;stroke-width:0.252982;" x="85.287677" xlink:href="#C0_0_69bba3c494" y="89.705013"/>
    </g>
    <g clip-path="url(#pca766b4a04)">
     <use style="fill:#0cc1e8;stroke:#000000;stroke-width:0.252982;" x="100.428553" xlink:href="#C0_0_69bba3c494" y="100.197738"/>
    </g>
    <g clip-path="url(#pca766b4a04)">
     <use style="fill:#0cc1e8;stroke:#000000;stroke-width:0.252982;" x="82.185911" xlink:href="#C0_0_69bba3c494" y="110.690463"/>
    </g>
    <g clip-path="url(#pca766b4a04)">
     <use style="fill:#0cc1e8;stroke:#000000;stroke-width:0.252982;" x="81.978547" xlink:href="#C0_0_69bba3c494" y="121.183188"/>
    </g>
    <g clip-path="url(#pca766b4a04)">
     <use style="fill:#0cc1e8;stroke:#000000;stroke-width:0.252982;" x="110.605526" xlink:href="#C0_0_69bba3c494" y="131.675913"/>
    </g>
    <g clip-path="url(#pca766b4a04)">
     <use style="fill:#0cc1e8;stroke:#000000;stroke-width:0.252982;" x="107.144495" xlink:href="#C0_0_69bba3c494" y="142.168638"/>
    </g>
    <g clip-path="url(#pca766b4a04)">
     <use style="fill:#0cc1e8;stroke:#000000;stroke-width:0.252982;" x="99.807289" xlink:href="#C0_0_69bba3c494" y="152.661362"/>
    </g>
    <g clip-path="url(#pca766b4a04)">
     <use style="fill:#0cc1e8;stroke:#000000;stroke-width:0.252982;" x="85.178822" xlink:href="#C0_0_69bba3c494" y="163.154087"/>
    </g>
    <g clip-path="url(#pca766b4a04)">
     <use style="fill:#0cc1e8;stroke:#000000;stroke-width:0.252982;" x="78.976944" xlink:href="#C0_0_69bba3c494" y="173.646812"/>
    </g>
    <g clip-path="url(#pca766b4a04)">
     <use style="fill:#0cc1e8;stroke:#000000;stroke-width:0.252982;" x="90.17625" xlink:href="#C0_0_69bba3c494" y="184.139537"/>
    </g>
    <g clip-path="url(#pca766b4a04)">
     <use style="fill:#0cc1e8;stroke:#000000;stroke-width:0.252982;" x="78.070917" xlink:href="#C0_0_69bba3c494" y="194.632262"/>
    </g>
    <g clip-path="url(#pca766b4a04)">
     <use style="fill:#0cc1e8;stroke:#000000;stroke-width:0.252982;" x="45.515612" xlink:href="#C0_0_69bba3c494" y="205.124987"/>
    </g>
   </g>
   <g id="patch_3">
    <path d="M 10.7 226.74 
L 10.7 68.09 
" style="fill:none;stroke:#000000;stroke-linecap:square;stroke-linejoin:miter;stroke-width:0.8;"/>
   </g>
   <g id="patch_4">
    <path d="M 10.7 226.74 
L 321.125 226.74 
" style="fill:none;stroke:#000000;stroke-linecap:square;stroke-linejoin:miter;stroke-width:0.8;"/>
   </g>
   <g id="text_7">
    <text style="font-family:DejaVu Sans;font-size:14px;font-stretch:normal;font-style:normal;font-weight:normal;text-anchor:start;" transform="rotate(-0, 31.395, 189.560176)" x="31.395" y="189.560176"> </text>
   </g>
   <g id="text_8">
    <text style="font-family:DejaVu Sans;font-size:14px;font-stretch:normal;font-style:normal;font-weight:normal;text-anchor:start;" transform="rotate(-0, 76.023354, 170.13224)" x="76.023354" y="170.13224"> </text>
   </g>
   <g id="text_9">
    <text style="font-family:DejaVu Sans;font-size:14px;font-stretch:normal;font-style:normal;font-weight:normal;text-anchor:start;" transform="rotate(-0, 79.328759, 149.638637)" x="79.328759" y="149.638637"> </text>
   </g>
   <g id="text_10">
    <text style="font-family:DejaVu Sans;font-size:14px;font-stretch:normal;font-style:normal;font-weight:normal;text-anchor:start;" transform="rotate(-0, 80.905718, 132.260061)" x="80.905718" y="132.260061"> </text>
   </g>
   <g id="text_11">
    <text style="font-family:DejaVu Sans;font-size:14px;font-stretch:normal;font-style:normal;font-weight:normal;text-anchor:start;" transform="rotate(-0, 81.880866, 115.865179)" x="81.880866" y="115.865179"> </text>
   </g>
   <g id="text_12">
    <text style="font-family:DejaVu Sans;font-size:14px;font-stretch:normal;font-style:normal;font-weight:normal;text-anchor:start;" transform="rotate(-0, 82.08823, 106.684044)" x="82.08823" y="106.684044"> </text>
   </g>
   <g id="text_13">
    <text style="font-family:DejaVu Sans;font-size:14px;font-stretch:normal;font-style:normal;font-weight:normal;text-anchor:start;" transform="rotate(-0, 82.362646, 98.814501)" x="82.362646" y="98.814501"> </text>
   </g>
   <g id="text_14">
    <text style="font-family:DejaVu Sans;font-size:14px;font-stretch:normal;font-style:normal;font-weight:normal;text-anchor:start;" transform="rotate(-0, 85.287677, 93.568138)" x="85.287677" y="93.568138"> </text>
   </g>
   <g id="text_15">
    <text style="font-family:DejaVu Sans;font-size:14px;font-stretch:normal;font-style:normal;font-weight:normal;text-anchor:start;" transform="rotate(-0, 100.428553, 104.060863)" x="100.428553" y="104.060863"> </text>
   </g>
   <g id="text_16">
    <text style="font-family:DejaVu Sans;font-size:14px;font-stretch:normal;font-style:normal;font-weight:normal;text-anchor:start;" transform="rotate(-0, 82.185911, 114.553588)" x="82.185911" y="114.553588"> </text>
   </g>
   <g id="text_17">
    <text style="font-family:DejaVu Sans;font-size:14px;font-stretch:normal;font-style:normal;font-weight:normal;text-anchor:start;" transform="rotate(-0, 81.978547, 125.046313)" x="81.978547" y="125.046313"> </text>
   </g>
   <g id="text_18">
    <text style="font-family:DejaVu Sans;font-size:14px;font-stretch:normal;font-style:normal;font-weight:normal;text-anchor:start;" transform="rotate(-0, 81.003398, 148.654944)" x="81.003398" y="148.654944"> </text>
   </g>
   <g id="text_19">
    <text style="font-family:DejaVu Sans;font-size:14px;font-stretch:normal;font-style:normal;font-weight:normal;text-anchor:start;" transform="rotate(-0, 98.369401, 140.7854)" x="98.369401" y="140.7854"> </text>
   </g>
   <g id="text_20">
    <text style="font-family:DejaVu Sans;font-size:14px;font-stretch:normal;font-style:normal;font-weight:normal;text-anchor:start;" transform="rotate(-0, 110.605526, 135.539038)" x="110.605526" y="135.539038"> </text>
   </g>
   <g id="text_21">
    <text style="font-family:DejaVu Sans;font-size:14px;font-stretch:normal;font-style:normal;font-weight:normal;text-anchor:start;" transform="rotate(-0, 107.144495, 146.031763)" x="107.144495" y="146.031763"> </text>
   </g>
   <g id="text_22">
    <text style="font-family:DejaVu Sans;font-size:14px;font-stretch:normal;font-style:normal;font-weight:normal;text-anchor:start;" transform="rotate(-0, 99.807289, 156.524487)" x="99.807289" y="156.524487"> </text>
   </g>
   <g id="text_23">
    <text style="font-family:DejaVu Sans;font-size:14px;font-stretch:normal;font-style:normal;font-weight:normal;text-anchor:start;" transform="rotate(-0, 85.178822, 167.017212)" x="85.178822" y="167.017212"> </text>
   </g>
   <g id="text_24">
    <text style="font-family:DejaVu Sans;font-size:14px;font-stretch:normal;font-style:normal;font-weight:normal;text-anchor:start;" transform="rotate(-0, 76.121034, 190.625843)" x="76.121034" y="190.625843"> </text>
   </g>
   <g id="text_25">
    <text style="font-family:DejaVu Sans;font-size:14px;font-stretch:normal;font-style:normal;font-weight:normal;text-anchor:start;" transform="rotate(-0, 78.879264, 182.7563)" x="78.879264" y="182.7563"> </text>
   </g>
   <g id="text_26">
    <text style="font-family:DejaVu Sans;font-size:14px;font-stretch:normal;font-style:normal;font-weight:normal;text-anchor:start;" transform="rotate(-0, 78.976944, 177.509937)" x="78.976944" y="177.509937"> </text>
   </g>
   <g id="text_27">
    <text style="font-family:DejaVu Sans;font-size:14px;font-stretch:normal;font-style:normal;font-weight:normal;text-anchor:start;" transform="rotate(-0, 90.17625, 188.002662)" x="90.17625" y="188.002662"> </text>
   </g>
   <g id="text_28">
    <text style="font-family:DejaVu Sans;font-size:14px;font-stretch:normal;font-style:normal;font-weight:normal;text-anchor:start;" transform="rotate(-0, 78.070917, 198.495387)" x="78.070917" y="198.495387"> </text>
   </g>
   <g id="text_29">
    <text style="font-family:DejaVu Sans;font-size:14px;font-stretch:normal;font-style:normal;font-weight:normal;text-anchor:start;" transform="rotate(-0, 45.515612, 208.988112)" x="45.515612" y="208.988112"> </text>
   </g>
   <g id="text_30">
    <text style="font-family:DejaVu Sans;font-size:16.8px;font-stretch:normal;font-style:normal;font-weight:normal;text-anchor:middle;" transform="rotate(-0, 165.9125, 62.09)" x="165.9125" y="62.09">NODE181</text>
   </g>
  </g>
  <g id="axes_2">
   <g id="patch_5">
    <path d="M 10.7 68.09 
L 321.125 68.09 
L 321.125 36.36 
L 10.7 36.36 
z
" style="fill:#ffffff;"/>
   </g>
   <g id="PolyCollection_1">
    <defs>
     <path d="M 31.395 -219.929291 
L 31.395 -219.625687 
L 31.793043 -219.625687 
L 32.191086 -219.625687 
L 32.589129 -219.625687 
L 32.987171 -219.625687 
L 33.385214 -219.625687 
L 33.783257 -219.625687 
L 34.1813 -219.625687 
L 34.579343 -219.625687 
L 34.977386 -219.625687 
L 35.375428 -219.625687 
L 35.773471 -219.625687 
L 36.171514 -219.625687 
L 36.569557 -219.625687 
L 36.9676 -219.625687 
L 37.365643 -219.625687 
L 37.763686 -219.625687 
L 38.161728 -219.625687 
L 38.559771 -219.625687 
L 38.957814 -219.625687 
L 39.355857 -219.625687 
L 39.7539 -219.625687 
L 40.151943 -219.625687 
L 40.549985 -219.625687 
L 40.948028 -219.625687 
L 41.346071 -219.625687 
L 41.744114 -219.625687 
L 42.142157 -219.625687 
L 42.5402 -219.625687 
L 42.938243 -219.625687 
L 43.336285 -219.625687 
L 43.734328 -219.625687 
L 44.132371 -219.625687 
L 44.530414 -219.625687 
L 44.928457 -219.625687 
L 45.3265 -219.625687 
L 45.724542 -219.625687 
L 46.122585 -219.625687 
L 46.520628 -219.625687 
L 46.918671 -219.625687 
L 47.316714 -219.625687 
L 47.714757 -219.625687 
L 48.1128 -219.625687 
L 48.510842 -219.625687 
L 48.908885 -219.625687 
L 49.306928 -219.625687 
L 49.704971 -219.625687 
L 50.103014 -219.625687 
L 50.501057 -219.625687 
L 50.899099 -219.625687 
L 51.297142 -219.625687 
L 51.695185 -219.625687 
L 52.093228 -219.625687 
L 52.491271 -219.625687 
L 52.889314 -219.625687 
L 53.287357 -219.625687 
L 53.685399 -219.625687 
L 54.083442 -219.625687 
L 54.481485 -219.625687 
L 54.879528 -219.625687 
L 55.277571 -219.625687 
L 55.675614 -219.625687 
L 56.073656 -219.625687 
L 56.471699 -219.625687 
L 56.869742 -219.625687 
L 57.267785 -219.625687 
L 57.665828 -219.625687 
L 58.063871 -219.625687 
L 58.461914 -219.625687 
L 58.859956 -219.625687 
L 59.257999 -219.625687 
L 59.656042 -219.625687 
L 60.054085 -219.625687 
L 60.452128 -219.625687 
L 60.850171 -219.625687 
L 61.248213 -219.625687 
L 61.646256 -219.625687 
L 62.044299 -219.625687 
L 62.442342 -219.625687 
L 62.840385 -219.625687 
L 63.238428 -219.625687 
L 63.636471 -219.625687 
L 64.034513 -219.625687 
L 64.432556 -219.625687 
L 64.830599 -219.625687 
L 65.228642 -219.625687 
L 65.626685 -219.625687 
L 66.024728 -219.625687 
L 66.42277 -219.625687 
L 66.820813 -219.625687 
L 67.218856 -219.625687 
L 67.616899 -219.625687 
L 68.014942 -219.625687 
L 68.412985 -219.625687 
L 68.811028 -219.625687 
L 69.20907 -219.625687 
L 69.607113 -219.625687 
L 70.005156 -219.625687 
L 70.403199 -219.625687 
L 70.801242 -219.625687 
L 71.199285 -219.625687 
L 71.597327 -219.625687 
L 71.99537 -219.625687 
L 72.393413 -219.625687 
L 72.791456 -219.625687 
L 73.189499 -219.625687 
L 73.587542 -219.625687 
L 73.985585 -219.625687 
L 74.383627 -219.625687 
L 74.78167 -219.625687 
L 75.179713 -219.625687 
L 75.577756 -219.625687 
L 75.975799 -219.625687 
L 76.373842 -219.625687 
L 76.771884 -219.625687 
L 77.169927 -219.625687 
L 77.56797 -219.625687 
L 77.966013 -219.625687 
L 78.364056 -219.625687 
L 78.762099 -219.625687 
L 79.160142 -219.625687 
L 79.558184 -219.625687 
L 79.956227 -219.625687 
L 80.35427 -219.625687 
L 80.752313 -219.625687 
L 81.150356 -219.625687 
L 81.548399 -219.625687 
L 81.946441 -219.625687 
L 82.344484 -219.625687 
L 82.742527 -219.625687 
L 83.14057 -219.625687 
L 83.538613 -219.625687 
L 83.936656 -219.625687 
L 84.334699 -219.625687 
L 84.732741 -219.625687 
L 85.130784 -219.625687 
L 85.528827 -219.625687 
L 85.92687 -219.625687 
L 86.324913 -219.625687 
L 86.722956 -219.625687 
L 87.120998 -219.625687 
L 87.519041 -219.625687 
L 87.917084 -219.625687 
L 88.315127 -219.625687 
L 88.71317 -219.625687 
L 89.111213 -219.625687 
L 89.509256 -219.625687 
L 89.907298 -219.625687 
L 90.305341 -219.625687 
L 90.703384 -219.625687 
L 91.101427 -219.625687 
L 91.49947 -219.625687 
L 91.897513 -219.625687 
L 92.295555 -219.625687 
L 92.693598 -219.625687 
L 93.091641 -219.625687 
L 93.489684 -219.625687 
L 93.887727 -219.625687 
L 94.28577 -219.625687 
L 94.683813 -219.625687 
L 95.081855 -219.625687 
L 95.479898 -219.625687 
L 95.877941 -219.625687 
L 96.275984 -219.625687 
L 96.674027 -219.625687 
L 97.07207 -219.625687 
L 97.470112 -219.625687 
L 97.868155 -219.625687 
L 98.266198 -219.625687 
L 98.664241 -219.625687 
L 99.062284 -219.625687 
L 99.460327 -219.625687 
L 99.85837 -219.625687 
L 100.256412 -219.625687 
L 100.654455 -219.625687 
L 101.052498 -219.625687 
L 101.450541 -219.625687 
L 101.848584 -219.625687 
L 102.246627 -219.625687 
L 102.644669 -219.625687 
L 103.042712 -219.625687 
L 103.440755 -219.625687 
L 103.838798 -219.625687 
L 104.236841 -219.625687 
L 104.634884 -219.625687 
L 105.032927 -219.625687 
L 105.430969 -219.625687 
L 105.829012 -219.625687 
L 106.227055 -219.625687 
L 106.625098 -219.625687 
L 107.023141 -219.625687 
L 107.421184 -219.625687 
L 107.819226 -219.625687 
L 108.217269 -219.625687 
L 108.615312 -219.625687 
L 109.013355 -219.625687 
L 109.411398 -219.625687 
L 109.809441 -219.625687 
L 110.207484 -219.625687 
L 110.605526 -219.625687 
L 110.605526 -225.522868 
L 110.605526 -225.522868 
L 110.207484 -225.741058 
L 109.809441 -225.957094 
L 109.411398 -226.170444 
L 109.013355 -226.380595 
L 108.615312 -226.587056 
L 108.217269 -226.789365 
L 107.819226 -226.98709 
L 107.421184 -227.179837 
L 107.023141 -227.367254 
L 106.625098 -227.549034 
L 106.227055 -227.724926 
L 105.829012 -227.894737 
L 105.430969 -228.058343 
L 105.032927 -228.215692 
L 104.634884 -228.366815 
L 104.236841 -228.51183 
L 103.838798 -228.650955 
L 103.440755 -228.784512 
L 103.042712 -228.912933 
L 102.644669 -229.036772 
L 102.246627 -229.156706 
L 101.848584 -229.27354 
L 101.450541 -229.388215 
L 101.052498 -229.501806 
L 100.654455 -229.615521 
L 100.256412 -229.730705 
L 99.85837 -229.848826 
L 99.460327 -229.971479 
L 99.062284 -230.100366 
L 98.664241 -230.237291 
L 98.266198 -230.384141 
L 97.868155 -230.542866 
L 97.470112 -230.715465 
L 97.07207 -230.903951 
L 96.674027 -231.110336 
L 96.275984 -231.336594 
L 95.877941 -231.584632 
L 95.479898 -231.856262 
L 95.081855 -232.153162 
L 94.683813 -232.476844 
L 94.28577 -232.82862 
L 93.887727 -233.209568 
L 93.489684 -233.620498 
L 93.091641 -234.061922 
L 92.693598 -234.534027 
L 92.295555 -235.036645 
L 91.897513 -235.569231 
L 91.49947 -236.130849 
L 91.101427 -236.720155 
L 90.703384 -237.335387 
L 90.305341 -237.974366 
L 89.907298 -238.634493 
L 89.509256 -239.312765 
L 89.111213 -240.005784 
L 88.71317 -240.709779 
L 88.315127 -241.420638 
L 87.917084 -242.133936 
L 87.519041 -242.844975 
L 87.120998 -243.548832 
L 86.722956 -244.240404 
L 86.324913 -244.914464 
L 85.92687 -245.565717 
L 85.528827 -246.188858 
L 85.130784 -246.778637 
L 84.732741 -247.329917 
L 84.334699 -247.837738 
L 83.936656 -248.297378 
L 83.538613 -248.704414 
L 83.14057 -249.054773 
L 82.742527 -249.344788 
L 82.344484 -249.571246 
L 81.946441 -249.731424 
L 81.548399 -249.823132 
L 81.150356 -249.844735 
L 80.752313 -249.795179 
L 80.35427 -249.674001 
L 79.956227 -249.481335 
L 79.558184 -249.21791 
L 79.160142 -248.885041 
L 78.762099 -248.484607 
L 78.364056 -248.01903 
L 77.966013 -247.491238 
L 77.56797 -246.904631 
L 77.169927 -246.263032 
L 76.771884 -245.570642 
L 76.373842 -244.831986 
L 75.975799 -244.051855 
L 75.577756 -243.235251 
L 75.179713 -242.387329 
L 74.78167 -241.513332 
L 74.383627 -240.61854 
L 73.985585 -239.708209 
L 73.587542 -238.787519 
L 73.189499 -237.861523 
L 72.791456 -236.935098 
L 72.393413 -236.012905 
L 71.99537 -235.099351 
L 71.597327 -234.198556 
L 71.199285 -233.314328 
L 70.801242 -232.450139 
L 70.403199 -231.60911 
L 70.005156 -230.794002 
L 69.607113 -230.007213 
L 69.20907 -229.250773 
L 68.811028 -228.526354 
L 68.412985 -227.835276 
L 68.014942 -227.178523 
L 67.616899 -226.556756 
L 67.218856 -225.970337 
L 66.820813 -225.419346 
L 66.42277 -224.90361 
L 66.024728 -224.422723 
L 65.626685 -223.976073 
L 65.228642 -223.56287 
L 64.830599 -223.18217 
L 64.432556 -222.832902 
L 64.034513 -222.513889 
L 63.636471 -222.223876 
L 63.238428 -221.961548 
L 62.840385 -221.725552 
L 62.442342 -221.514515 
L 62.044299 -221.327059 
L 61.646256 -221.161816 
L 61.248213 -221.017442 
L 60.850171 -220.892622 
L 60.452128 -220.786084 
L 60.054085 -220.696601 
L 59.656042 -220.622996 
L 59.257999 -220.564146 
L 58.859956 -220.518982 
L 58.461914 -220.486487 
L 58.063871 -220.465698 
L 57.665828 -220.455701 
L 57.267785 -220.455627 
L 56.869742 -220.464651 
L 56.471699 -220.481983 
L 56.073656 -220.506869 
L 55.675614 -220.538581 
L 55.277571 -220.576415 
L 54.879528 -220.619688 
L 54.481485 -220.66773 
L 54.083442 -220.719885 
L 53.685399 -220.775503 
L 53.287357 -220.833943 
L 52.889314 -220.894569 
L 52.491271 -220.956748 
L 52.093228 -221.019854 
L 51.695185 -221.083264 
L 51.297142 -221.146363 
L 50.899099 -221.208545 
L 50.501057 -221.269218 
L 50.103014 -221.327802 
L 49.704971 -221.38374 
L 49.306928 -221.436497 
L 48.908885 -221.485568 
L 48.510842 -221.53048 
L 48.1128 -221.570798 
L 47.714757 -221.606128 
L 47.316714 -221.636124 
L 46.918671 -221.660488 
L 46.520628 -221.678977 
L 46.122585 -221.691403 
L 45.724542 -221.697637 
L 45.3265 -221.697608 
L 44.928457 -221.691304 
L 44.530414 -221.678776 
L 44.132371 -221.660129 
L 43.734328 -221.635526 
L 43.336285 -221.605185 
L 42.938243 -221.569372 
L 42.5402 -221.528399 
L 42.142157 -221.48262 
L 41.744114 -221.432425 
L 41.346071 -221.378233 
L 40.948028 -221.320489 
L 40.549985 -221.259655 
L 40.151943 -221.196206 
L 39.7539 -221.130621 
L 39.355857 -221.063382 
L 38.957814 -220.994961 
L 38.559771 -220.925824 
L 38.161728 -220.856415 
L 37.763686 -220.787162 
L 37.365643 -220.718465 
L 36.9676 -220.650699 
L 36.569557 -220.584205 
L 36.171514 -220.519293 
L 35.773471 -220.456239 
L 35.375428 -220.395281 
L 34.977386 -220.336624 
L 34.579343 -220.280436 
L 34.1813 -220.226851 
L 33.783257 -220.17597 
L 33.385214 -220.12786 
L 32.987171 -220.08256 
L 32.589129 -220.040079 
L 32.191086 -220.000403 
L 31.793043 -219.963493 
L 31.395 -219.929291 
z
" id="m8d8620c040" style="stroke:#0cc1e8;"/>
    </defs>
    <g clip-path="url(#pdc2e6197a0)">
     <use style="fill:#0cc1e8;fill-opacity:0.25;stroke:#0cc1e8;" x="0" xlink:href="#m8d8620c040" y="287.715688"/>
    </g>
   </g>
   <g id="matplotlib.axis_3">
    <g id="xtick_5">
     <g id="line2d_5">
      <g>
       <use style="stroke:#000000;stroke-width:0.8;" x="31.395" xlink:href="#m0fac278637" y="68.09"/>
      </g>
     </g>
    </g>
    <g id="xtick_6">
     <g id="line2d_6">
      <g>
       <use style="stroke:#000000;stroke-width:0.8;" x="114.175" xlink:href="#m0fac278637" y="68.09"/>
      </g>
     </g>
    </g>
    <g id="xtick_7">
     <g id="line2d_7">
      <g>
       <use style="stroke:#000000;stroke-width:0.8;" x="196.955" xlink:href="#m0fac278637" y="68.09"/>
      </g>
     </g>
    </g>
    <g id="xtick_8">
     <g id="line2d_8">
      <g>
       <use style="stroke:#000000;stroke-width:0.8;" x="279.735" xlink:href="#m0fac278637" y="68.09"/>
      </g>
     </g>
    </g>
    <g id="text_31">
     <text style="font-family:DejaVu Sans;font-size:14px;font-stretch:normal;font-style:normal;font-weight:normal;text-anchor:end;" transform="rotate(-0, 321.125, 81.727813)" x="321.125" y="81.727813">1e−5</text>
    </g>
   </g>
   <g id="matplotlib.axis_4">
    <g id="ytick_1"/>
    <g id="ytick_2"/>
   </g>
   <g id="patch_6">
    <path d="M 10.7 68.09 
L 321.125 68.09 
" style="fill:none;stroke:#000000;stroke-linecap:square;stroke-linejoin:miter;stroke-width:0.8;"/>
   </g>
  </g>
  <g id="axes_3">
   <g id="patch_7">
    <path d="M 321.125 226.74 
L 383.21 226.74 
L 383.21 68.09 
L 321.125 68.09 
z
" style="fill:#ffffff;"/>
   </g>
   <g id="matplotlib.axis_5">
    <g id="xtick_9"/>
    <g id="xtick_10"/>
   </g>
   <g id="matplotlib.axis_6"/>
   <g id="patch_8">
    <path d="M 321.125 226.74 
L 321.125 68.09 
" style="fill:none;stroke:#000000;stroke-linecap:square;stroke-linejoin:miter;stroke-width:0.8;"/>
   </g>
  </g>
  <g id="text_32">
   <text style="font-family:DejaVu Sans;font-size:16.8px;font-stretch:normal;font-style:normal;font-weight:bold;text-anchor:middle;" transform="rotate(-0, 160.73, 19.965375)" x="160.73" y="19.965375">0.ANT4</text>
  </g>
 </g>
 <defs>
  <clipPath id="pca766b4a04">
   <rect height="158.65" width="310.425" x="10.7" y="68.09"/>
  </clipPath>
  <clipPath id="pdc2e6197a0">
   <rect height="31.73" width="310.425" x="10.7" y="36.36"/>
  </clipPath>
 </defs>
</svg>
