<?xml version="1.0" encoding="utf-8" standalone="no"?>
<!DOCTYPE svg PUBLIC "-//W3C//DTD SVG 1.1//EN"
  "http://www.w3.org/Graphics/SVG/1.1/DTD/svg11.dtd">
<!-- Created with matplotlib (https://matplotlib.org/) -->
<svg height="363.546pt" version="1.1" viewBox="0 0 543.42575 363.546" width="543.42575pt" xmlns="http://www.w3.org/2000/svg" xmlns:xlink="http://www.w3.org/1999/xlink">
 <metadata>
  <rdf:RDF xmlns:cc="http://creativecommons.org/ns#" xmlns:dc="http://purl.org/dc/elements/1.1/" xmlns:rdf="http://www.w3.org/1999/02/22-rdf-syntax-ns#">
   <cc:Work>
    <dc:type rdf:resource="http://purl.org/dc/dcmitype/StillImage"/>
    <dc:date>2021-11-08T16:19:05.792260</dc:date>
    <dc:format>image/svg+xml</dc:format>
    <dc:creator>
     <cc:Agent>
      <dc:title>Matplotlib v3.3.2, https://matplotlib.org/</dc:title>
     </cc:Agent>
    </dc:creator>
   </cc:Work>
  </rdf:RDF>
 </metadata>
 <defs>
  <style type="text/css">*{stroke-linecap:butt;stroke-linejoin:round;}</style>
 </defs>
 <g id="figure_1">
  <g id="patch_1">
   <path d="M 0 363.546 
L 543.42575 363.546 
L 543.42575 0 
L 0 0 
z
" style="fill:#ffffff;"/>
  </g>
  <g id="axes_1">
   <g id="patch_2">
    <path d="M 89.82575 286.893375 
L 536.22575 286.893375 
L 536.22575 69.453375 
L 89.82575 69.453375 
z
" style="fill:#ffffff;"/>
   </g>
   <g id="PathCollection_1">
    <defs>
     <path d="M 0 3.535534 
C 0.937635 3.535534 1.836992 3.163008 2.5 2.5 
C 3.163008 1.836992 3.535534 0.937635 3.535534 -0 
C 3.535534 -0.937635 3.163008 -1.836992 2.5 -2.5 
C 1.836992 -3.163008 0.937635 -3.535534 0 -3.535534 
C -0.937635 -3.535534 -1.836992 -3.163008 -2.5 -2.5 
C -3.163008 -1.836992 -3.535534 -0.937635 -3.535534 0 
C -3.535534 0.937635 -3.163008 1.836992 -2.5 2.5 
C -1.836992 3.163008 -0.937635 3.535534 0 3.535534 
z
" id="C0_0_3ef88c59c5"/>
    </defs>
    <g clip-path="url(#p2cd94fbb19)">
     <use style="fill:#ff0000;fill-opacity:0.8;stroke:#000000;stroke-opacity:0.8;" x="412.22575" xlink:href="#C0_0_3ef88c59c5" y="137.521549"/>
    </g>
    <g clip-path="url(#p2cd94fbb19)">
     <use style="fill:#ff4824;fill-opacity:0.8;stroke:#000000;stroke-opacity:0.8;" x="505.22575" xlink:href="#C0_0_3ef88c59c5" y="116.72294"/>
    </g>
    <g clip-path="url(#p2cd94fbb19)">
     <use style="fill:#ff8a48;fill-opacity:0.8;stroke:#000000;stroke-opacity:0.8;" x="195.22575" xlink:href="#C0_0_3ef88c59c5" y="182.900332"/>
    </g>
    <g clip-path="url(#p2cd94fbb19)">
     <use style="fill:#f3c16a;fill-opacity:0.8;stroke:#000000;stroke-opacity:0.8;" x="226.22575" xlink:href="#C0_0_3ef88c59c5" y="277.439462"/>
    </g>
    <g clip-path="url(#p2cd94fbb19)">
     <use style="fill:#c5e88a;fill-opacity:0.8;stroke:#000000;stroke-opacity:0.8;" x="257.22575" xlink:href="#C0_0_3ef88c59c5" y="116.72294"/>
    </g>
    <g clip-path="url(#p2cd94fbb19)">
     <use style="fill:#97fca7;fill-opacity:0.8;stroke:#000000;stroke-opacity:0.8;" x="449.42575" xlink:href="#C0_0_3ef88c59c5" y="146.975462"/>
    </g>
    <g clip-path="url(#p2cd94fbb19)">
     <use style="fill:#68fcc1;fill-opacity:0.8;stroke:#000000;stroke-opacity:0.8;" x="393.62575" xlink:href="#C0_0_3ef88c59c5" y="105.378245"/>
    </g>
    <g clip-path="url(#p2cd94fbb19)">
     <use style="fill:#3ae8d7;fill-opacity:0.8;stroke:#000000;stroke-opacity:0.8;" x="505.22575" xlink:href="#C0_0_3ef88c59c5" y="105.378245"/>
    </g>
    <g clip-path="url(#p2cd94fbb19)">
     <use style="fill:#0cc1e8;fill-opacity:0.8;stroke:#000000;stroke-opacity:0.8;" x="399.82575" xlink:href="#C0_0_3ef88c59c5" y="277.439462"/>
    </g>
    <g clip-path="url(#p2cd94fbb19)">
     <use style="fill:#238af5;fill-opacity:0.8;stroke:#000000;stroke-opacity:0.8;" x="486.62575" xlink:href="#C0_0_3ef88c59c5" y="88.361201"/>
    </g>
    <g clip-path="url(#p2cd94fbb19)">
     <use style="fill:#5148fc;fill-opacity:0.8;stroke:#000000;stroke-opacity:0.8;" x="443.22575" xlink:href="#C0_0_3ef88c59c5" y="101.596679"/>
    </g>
    <g clip-path="url(#p2cd94fbb19)">
     <use style="fill:#8000ff;fill-opacity:0.8;stroke:#000000;stroke-opacity:0.8;" x="120.82575" xlink:href="#C0_0_3ef88c59c5" y="277.439462"/>
    </g>
   </g>
   <g id="PolyCollection_1">
    <path clip-path="url(#p2cd94fbb19)" d="M 120.82575 164.006806 
L 120.82575 341.228774 
L 124.708578 338.791391 
L 128.591407 336.035635 
L 132.474235 333.27988 
L 136.357063 330.524124 
L 140.239891 327.768369 
L 144.12272 325.012614 
L 148.005548 322.256858 
L 151.888376 319.501103 
L 155.771205 316.745348 
L 159.654033 313.989592 
L 163.536861 311.582452 
L 167.419689 309.23388 
L 171.302518 306.885309 
L 175.185346 304.5339 
L 179.068174 302.179542 
L 182.951003 299.825184 
L 186.833831 297.470826 
L 190.716659 295.176737 
L 194.599487 293.081851 
L 198.482316 290.986965 
L 202.365144 288.892078 
L 206.247972 286.554372 
L 210.130801 283.940788 
L 214.013629 281.492451 
L 217.896457 279.416238 
L 221.779285 277.33588 
L 225.662114 275.246891 
L 229.544942 273.129051 
L 233.42777 270.549679 
L 237.310598 267.970307 
L 241.193427 265.390935 
L 245.076255 262.804082 
L 248.959083 260.216717 
L 252.841912 257.629352 
L 256.72474 255.216729 
L 260.607568 252.867148 
L 264.490396 250.51351 
L 268.373225 248.159872 
L 272.256053 245.806234 
L 276.138881 243.452596 
L 280.02171 241.098959 
L 283.904538 238.745321 
L 287.787366 236.391683 
L 291.670194 234.677104 
L 295.553023 233.054454 
L 299.435851 231.024023 
L 303.318679 229.79797 
L 307.201508 228.152796 
L 311.084336 225.724811 
L 314.967164 223.157878 
L 318.849992 220.942696 
L 322.732821 218.645116 
L 326.615649 216.712008 
L 330.498477 215.200353 
L 334.381306 213.502451 
L 338.264134 211.66821 
L 342.146962 209.885319 
L 346.02979 208.181691 
L 349.912619 206.474794 
L 353.795447 204.768649 
L 357.678275 202.947587 
L 361.561104 200.615511 
L 365.443932 198.510213 
L 369.32676 196.521476 
L 373.209588 194.555663 
L 377.092417 193.03589 
L 380.975245 191.428049 
L 384.858073 189.992993 
L 388.740902 188.052389 
L 392.62373 185.983496 
L 396.506558 184.007155 
L 400.389386 182.194925 
L 404.272215 180.945247 
L 408.155043 179.704092 
L 412.037871 178.462937 
L 415.920699 177.501411 
L 419.803528 176.459339 
L 423.686356 175.719449 
L 427.569184 174.353435 
L 431.452013 173.073058 
L 435.334841 171.967181 
L 439.217669 170.409463 
L 443.100497 169.054555 
L 446.983326 168.146338 
L 450.866154 167.14541 
L 454.748982 165.972805 
L 458.631811 165.034027 
L 462.514639 163.901111 
L 466.397467 162.753126 
L 470.280295 161.476266 
L 474.163124 160.101687 
L 478.045952 158.731451 
L 481.92878 157.37586 
L 485.811609 156.087208 
L 489.694437 155.613893 
L 493.577265 154.606225 
L 497.460093 153.622071 
L 501.342922 152.473332 
L 505.22575 151.184021 
L 505.22575 78.183221 
L 505.22575 78.183221 
L 501.342922 80.004401 
L 497.460093 81.888034 
L 493.577265 83.872841 
L 489.694437 85.808746 
L 485.811609 87.565731 
L 481.92878 89.492914 
L 478.045952 91.220821 
L 474.163124 92.789123 
L 470.280295 94.719504 
L 466.397467 96.282118 
L 462.514639 98.076419 
L 458.631811 99.812921 
L 454.748982 101.335576 
L 450.866154 103.01627 
L 446.983326 104.648405 
L 443.100497 105.736038 
L 439.217669 107.17326 
L 435.334841 108.644889 
L 431.452013 109.959603 
L 427.569184 111.717097 
L 423.686356 112.745801 
L 419.803528 114.145964 
L 415.920699 115.383037 
L 412.037871 116.859415 
L 408.155043 118.315714 
L 404.272215 119.812147 
L 400.389386 121.345924 
L 396.506558 122.512504 
L 392.62373 123.878668 
L 388.740902 124.585293 
L 384.858073 125.822096 
L 380.975245 127.090107 
L 377.092417 127.693565 
L 373.209588 128.724367 
L 369.32676 129.907893 
L 365.443932 130.800763 
L 361.561104 131.687542 
L 357.678275 132.692423 
L 353.795447 133.924154 
L 349.912619 135.151035 
L 346.02979 135.928359 
L 342.146962 136.815501 
L 338.264134 137.512814 
L 334.381306 137.978742 
L 330.498477 137.971812 
L 326.615649 138.910599 
L 322.732821 139.391175 
L 318.849992 139.982327 
L 314.967164 140.956957 
L 311.084336 141.944931 
L 307.201508 142.932904 
L 303.318679 143.835668 
L 299.435851 144.213145 
L 295.553023 144.590622 
L 291.670194 144.968099 
L 287.787366 145.345576 
L 283.904538 145.745959 
L 280.02171 146.092679 
L 276.138881 146.466738 
L 272.256053 146.850117 
L 268.373225 147.230931 
L 264.490396 147.85666 
L 260.607568 148.338991 
L 256.72474 148.771163 
L 252.841912 149.203335 
L 248.959083 149.635507 
L 245.076255 150.067679 
L 241.193427 150.50517 
L 237.310598 150.947647 
L 233.42777 151.641466 
L 229.544942 152.420821 
L 225.662114 153.205567 
L 221.779285 153.99296 
L 217.896457 154.573128 
L 214.013629 154.959371 
L 210.130801 155.483216 
L 206.247972 155.845082 
L 202.365144 156.093014 
L 198.482316 156.46401 
L 194.599487 156.835007 
L 190.716659 157.206004 
L 186.833831 157.577308 
L 182.951003 157.955513 
L 179.068174 158.333719 
L 175.185346 158.711925 
L 171.302518 159.090131 
L 167.419689 159.468337 
L 163.536861 159.846542 
L 159.654033 160.224748 
L 155.771205 160.602954 
L 151.888376 160.98116 
L 148.005548 161.170244 
L 144.12272 161.737571 
L 140.239891 162.115777 
L 136.357063 162.493983 
L 132.474235 162.872188 
L 128.591407 163.250394 
L 124.708578 163.6286 
L 120.82575 164.006806 
z
" style="fill:#808080;fill-opacity:0.15;"/>
   </g>
   <g id="matplotlib.axis_1">
    <g id="xtick_1">
     <g id="line2d_1">
      <defs>
       <path d="M 0 0 
L 0 3.5 
" id="mb2801f89d0" style="stroke:#000000;stroke-width:0.8;"/>
      </defs>
      <g>
       <use style="stroke:#000000;stroke-width:0.8;" x="133.22575" xlink:href="#mb2801f89d0" y="286.893375"/>
      </g>
     </g>
     <g id="text_1">
      <text style="font-family:DejaVu Sans;font-size:14px;font-stretch:normal;font-style:normal;font-weight:normal;text-anchor:middle;" transform="rotate(-0, 133.22575, 304.531187)" x="133.22575" y="304.531187">40</text>
     </g>
    </g>
    <g id="xtick_2">
     <g id="line2d_2">
      <g>
       <use style="stroke:#000000;stroke-width:0.8;" x="195.22575" xlink:href="#mb2801f89d0" y="286.893375"/>
      </g>
     </g>
     <g id="text_2">
      <text style="font-family:DejaVu Sans;font-size:14px;font-stretch:normal;font-style:normal;font-weight:normal;text-anchor:middle;" transform="rotate(-0, 195.22575, 304.531187)" x="195.22575" y="304.531187">50</text>
     </g>
    </g>
    <g id="xtick_3">
     <g id="line2d_3">
      <g>
       <use style="stroke:#000000;stroke-width:0.8;" x="257.22575" xlink:href="#mb2801f89d0" y="286.893375"/>
      </g>
     </g>
     <g id="text_3">
      <text style="font-family:DejaVu Sans;font-size:14px;font-stretch:normal;font-style:normal;font-weight:normal;text-anchor:middle;" transform="rotate(-0, 257.22575, 304.531187)" x="257.22575" y="304.531187">60</text>
     </g>
    </g>
    <g id="xtick_4">
     <g id="line2d_4">
      <g>
       <use style="stroke:#000000;stroke-width:0.8;" x="319.22575" xlink:href="#mb2801f89d0" y="286.893375"/>
      </g>
     </g>
     <g id="text_4">
      <text style="font-family:DejaVu Sans;font-size:14px;font-stretch:normal;font-style:normal;font-weight:normal;text-anchor:middle;" transform="rotate(-0, 319.22575, 304.531187)" x="319.22575" y="304.531187">70</text>
     </g>
    </g>
    <g id="xtick_5">
     <g id="line2d_5">
      <g>
       <use style="stroke:#000000;stroke-width:0.8;" x="381.22575" xlink:href="#mb2801f89d0" y="286.893375"/>
      </g>
     </g>
     <g id="text_5">
      <text style="font-family:DejaVu Sans;font-size:14px;font-stretch:normal;font-style:normal;font-weight:normal;text-anchor:middle;" transform="rotate(-0, 381.22575, 304.531187)" x="381.22575" y="304.531187">80</text>
     </g>
    </g>
    <g id="xtick_6">
     <g id="line2d_6">
      <g>
       <use style="stroke:#000000;stroke-width:0.8;" x="443.22575" xlink:href="#mb2801f89d0" y="286.893375"/>
      </g>
     </g>
     <g id="text_6">
      <text style="font-family:DejaVu Sans;font-size:14px;font-stretch:normal;font-style:normal;font-weight:normal;text-anchor:middle;" transform="rotate(-0, 443.22575, 304.531187)" x="443.22575" y="304.531187">90</text>
     </g>
    </g>
    <g id="xtick_7">
     <g id="line2d_7">
      <g>
       <use style="stroke:#000000;stroke-width:0.8;" x="505.22575" xlink:href="#mb2801f89d0" y="286.893375"/>
      </g>
     </g>
     <g id="text_7">
      <text style="font-family:DejaVu Sans;font-size:14px;font-stretch:normal;font-style:normal;font-weight:normal;text-anchor:middle;" transform="rotate(-0, 505.22575, 304.531187)" x="505.22575" y="304.531187">100</text>
     </g>
    </g>
    <g id="text_8">
     <text style="font-family:DejaVu Sans;font-size:14px;font-stretch:normal;font-style:normal;font-weight:normal;" transform="translate(313.02575 322.080562)"/>
     <text style="font-family:DejaVu Sans;font-size:14px;font-stretch:normal;font-style:normal;font-weight:normal;" transform="translate(136.035125 337.7575)">Closest Relative Collected from the Same Location</text>
     <text style="font-family:DejaVu Sans;font-size:14px;font-stretch:normal;font-style:normal;font-weight:normal;" transform="translate(259.821375 353.434438)">(% of Samples)</text>
    </g>
   </g>
   <g id="matplotlib.axis_2">
    <g id="ytick_1">
     <g id="line2d_8">
      <defs>
       <path d="M 0 0 
L -3.5 0 
" id="m278aa6603b" style="stroke:#000000;stroke-width:0.8;"/>
      </defs>
      <g>
       <use style="stroke:#000000;stroke-width:0.8;" x="89.82575" xlink:href="#m278aa6603b" y="277.439462"/>
      </g>
     </g>
     <g id="text_9">
      <text style="font-family:DejaVu Sans;font-size:14px;font-stretch:normal;font-style:normal;font-weight:normal;text-anchor:end;" transform="rotate(-0, 82.82575, 282.758368)" x="82.82575" y="282.758368">0</text>
     </g>
    </g>
    <g id="ytick_2">
     <g id="line2d_9">
      <g>
       <use style="stroke:#000000;stroke-width:0.8;" x="89.82575" xlink:href="#m278aa6603b" y="239.62381"/>
      </g>
     </g>
     <g id="text_10">
      <text style="font-family:DejaVu Sans;font-size:14px;font-stretch:normal;font-style:normal;font-weight:normal;text-anchor:end;" transform="rotate(-0, 82.82575, 244.942716)" x="82.82575" y="244.942716">20</text>
     </g>
    </g>
    <g id="ytick_3">
     <g id="line2d_10">
      <g>
       <use style="stroke:#000000;stroke-width:0.8;" x="89.82575" xlink:href="#m278aa6603b" y="201.808158"/>
      </g>
     </g>
     <g id="text_11">
      <text style="font-family:DejaVu Sans;font-size:14px;font-stretch:normal;font-style:normal;font-weight:normal;text-anchor:end;" transform="rotate(-0, 82.82575, 207.127064)" x="82.82575" y="207.127064">40</text>
     </g>
    </g>
    <g id="ytick_4">
     <g id="line2d_11">
      <g>
       <use style="stroke:#000000;stroke-width:0.8;" x="89.82575" xlink:href="#m278aa6603b" y="163.992505"/>
      </g>
     </g>
     <g id="text_12">
      <text style="font-family:DejaVu Sans;font-size:14px;font-stretch:normal;font-style:normal;font-weight:normal;text-anchor:end;" transform="rotate(-0, 82.82575, 169.311412)" x="82.82575" y="169.311412">60</text>
     </g>
    </g>
    <g id="ytick_5">
     <g id="line2d_12">
      <g>
       <use style="stroke:#000000;stroke-width:0.8;" x="89.82575" xlink:href="#m278aa6603b" y="126.176853"/>
      </g>
     </g>
     <g id="text_13">
      <text style="font-family:DejaVu Sans;font-size:14px;font-stretch:normal;font-style:normal;font-weight:normal;text-anchor:end;" transform="rotate(-0, 82.82575, 131.49576)" x="82.82575" y="131.49576">80</text>
     </g>
    </g>
    <g id="ytick_6">
     <g id="line2d_13">
      <g>
       <use style="stroke:#000000;stroke-width:0.8;" x="89.82575" xlink:href="#m278aa6603b" y="88.361201"/>
      </g>
     </g>
     <g id="text_14">
      <text style="font-family:DejaVu Sans;font-size:14px;font-stretch:normal;font-style:normal;font-weight:normal;text-anchor:end;" transform="rotate(-0, 82.82575, 93.680107)" x="82.82575" y="93.680107">100</text>
     </g>
    </g>
    <g id="text_15">
     <text style="font-family:DejaVu Sans;font-size:14px;font-stretch:normal;font-style:normal;font-weight:normal;" transform="translate(17.837812 298.024313)rotate(-90)">Collected from a Non-Human Host</text>
     <text style="font-family:DejaVu Sans;font-size:14px;font-stretch:normal;font-style:normal;font-weight:normal;" transform="translate(33.51475 231.37775)rotate(-90)">(% of Samples)</text>
     <text style="font-family:DejaVu Sans;font-size:14px;font-stretch:normal;font-style:normal;font-weight:normal;" transform="translate(49.191688 178.173375)rotate(-90)"/>
    </g>
   </g>
   <g id="line2d_14">
    <path clip-path="url(#p2cd94fbb19)" d="M 120.82575 252.237265 
L 124.708578 250.796239 
L 128.591407 249.355214 
L 132.474235 247.914189 
L 136.357063 246.473163 
L 140.239891 245.032138 
L 144.12272 243.591113 
L 148.005548 242.150088 
L 151.888376 240.709062 
L 155.771205 239.268037 
L 159.654033 237.827012 
L 163.536861 236.385986 
L 167.419689 234.944961 
L 171.302518 233.503936 
L 175.185346 232.062911 
L 179.068174 230.621885 
L 182.951003 229.18086 
L 186.833831 227.739835 
L 190.716659 226.298809 
L 194.599487 224.857784 
L 198.482316 223.416759 
L 202.365144 221.975734 
L 206.247972 220.534708 
L 210.130801 219.093683 
L 214.013629 217.652658 
L 217.896457 216.211632 
L 221.779285 214.770607 
L 225.662114 213.329582 
L 229.544942 211.888556 
L 233.42777 210.447531 
L 237.310598 209.006506 
L 241.193427 207.565481 
L 245.076255 206.124455 
L 248.959083 204.68343 
L 252.841912 203.242405 
L 256.72474 201.801379 
L 260.607568 200.360354 
L 264.490396 198.919329 
L 268.373225 197.478304 
L 272.256053 196.037278 
L 276.138881 194.596253 
L 280.02171 193.155228 
L 283.904538 191.714202 
L 287.787366 190.273177 
L 291.670194 188.832152 
L 295.553023 187.391127 
L 299.435851 185.950101 
L 303.318679 184.509076 
L 307.201508 183.068051 
L 311.084336 181.627025 
L 314.967164 180.186 
L 318.849992 178.744975 
L 322.732821 177.30395 
L 326.615649 175.862924 
L 330.498477 174.421899 
L 334.381306 172.980874 
L 338.264134 171.539848 
L 342.146962 170.098823 
L 346.02979 168.657798 
L 349.912619 167.216773 
L 353.795447 165.775747 
L 357.678275 164.334722 
L 361.561104 162.893697 
L 365.443932 161.452671 
L 369.32676 160.011646 
L 373.209588 158.570621 
L 377.092417 157.129596 
L 380.975245 155.68857 
L 384.858073 154.247545 
L 388.740902 152.80652 
L 392.62373 151.365494 
L 396.506558 149.924469 
L 400.389386 148.483444 
L 404.272215 147.042419 
L 408.155043 145.601393 
L 412.037871 144.160368 
L 415.920699 142.719343 
L 419.803528 141.278317 
L 423.686356 139.837292 
L 427.569184 138.396267 
L 431.452013 136.955241 
L 435.334841 135.514216 
L 439.217669 134.073191 
L 443.100497 132.632166 
L 446.983326 131.19114 
L 450.866154 129.750115 
L 454.748982 128.30909 
L 458.631811 126.868064 
L 462.514639 125.427039 
L 466.397467 123.986014 
L 470.280295 122.544989 
L 474.163124 121.103963 
L 478.045952 119.662938 
L 481.92878 118.221913 
L 485.811609 116.780887 
L 489.694437 115.339862 
L 493.577265 113.898837 
L 497.460093 112.457812 
L 501.342922 111.016786 
L 505.22575 109.575761 
" style="fill:none;stroke:#808080;stroke-linecap:square;stroke-width:1.5;"/>
   </g>
   <g id="patch_3">
    <path d="M 89.82575 286.893375 
L 89.82575 69.453375 
" style="fill:none;stroke:#000000;stroke-linecap:square;stroke-linejoin:miter;stroke-width:0.8;"/>
   </g>
   <g id="patch_4">
    <path d="M 536.22575 286.893375 
L 536.22575 69.453375 
" style="fill:none;stroke:#000000;stroke-linecap:square;stroke-linejoin:miter;stroke-width:0.8;"/>
   </g>
   <g id="patch_5">
    <path d="M 89.82575 286.893375 
L 536.22575 286.893375 
" style="fill:none;stroke:#000000;stroke-linecap:square;stroke-linejoin:miter;stroke-width:0.8;"/>
   </g>
   <g id="patch_6">
    <path d="M 89.82575 69.453375 
L 536.22575 69.453375 
" style="fill:none;stroke:#000000;stroke-linecap:square;stroke-linejoin:miter;stroke-width:0.8;"/>
   </g>
   <g id="text_16">
    <g id="patch_7">
     <path d="M 275.394187 58.544062 
L 350.657312 58.544062 
L 350.657312 36.874687 
L 275.394187 36.874687 
z
" style="fill:#ffffff;stroke:#000000;stroke-linejoin:miter;stroke-width:0.5;"/>
    </g>
    <text style="font-family:DejaVu Sans;font-size:14px;font-stretch:normal;font-style:normal;font-weight:normal;text-anchor:middle;" transform="rotate(-0, 313.02575, 51.5725)" x="313.02575" y="51.5725">R² = 0.43</text>
   </g>
   <g id="text_17">
    <text style="font-family:DejaVu Sans;font-size:16.8px;font-stretch:normal;font-style:normal;font-weight:normal;text-anchor:middle;" transform="rotate(-0, 313.02575, 19.965375)" x="313.02575" y="19.965375">Country</text>
   </g>
  </g>
 </g>
 <defs>
  <clipPath id="p2cd94fbb19">
   <rect height="217.44" width="446.4" x="89.82575" y="69.453375"/>
  </clipPath>
 </defs>
</svg>
