<?xml version="1.0" encoding="utf-8"?>
<!-- Generator: Adobe Illustrator 25.4.1, SVG Export Plug-In . SVG Version: 6.00 Build 0)  -->
<svg version="1.1" id="Layer_1" xmlns="http://www.w3.org/2000/svg" xmlns:xlink="http://www.w3.org/1999/xlink" x="0px" y="0px"
	 viewBox="0 0 1375.7 663.3" style="enable-background:new 0 0 1375.7 663.3;" xml:space="preserve">
<style type="text/css">
	.st0{fill:#FFFFFF;}
	.st1{fill:#808080;fill-opacity:0.15;}
	.st2{fill:none;stroke:#808080;stroke-width:1.5;stroke-linecap:square;stroke-linejoin:round;}
	.st3{stroke:#000000;stroke-width:0.8;stroke-linejoin:round;}
	.st4{font-family:'ArialMT';}
	.st5{font-size:25px;}
	.st6{font-family:'Arial-BoldMT';}
	.st7{font-size:26px;}
	.st8{display:none;stroke:#000000;stroke-width:0.8;stroke-linejoin:round;}
	.st9{fill:#FF0000;stroke:#000000;}
	.st10{fill:#FF4824;stroke:#000000;}
	.st11{fill:#FF8A48;stroke:#000000;}
	.st12{fill:#F3C16A;stroke:#000000;}
	.st13{fill:#C5E88A;stroke:#000000;}
	.st14{fill:#97FCA7;stroke:#000000;}
	.st15{fill:#68FCC1;stroke:#000000;}
	.st16{fill:#49FFFF;stroke:#000000;}
	.st17{fill:#0CC1E8;stroke:#000000;}
	.st18{fill:#238AF5;stroke:#000000;}
	.st19{fill:#5148FC;fill-opacity:0.8;stroke:#000000;stroke-linejoin:round;stroke-opacity:0.8;}
	.st20{fill:#8000FF;stroke:#000000;}
	.st21{font-size:12px;}
	.st22{fill:#FFFFFF;stroke:#000000;}
	.st23{fill:none;stroke:#000000;stroke-width:2;stroke-miterlimit:10;}
	.st24{display:none;}
	.st25{display:inline;}
	.st26{fill:url(#Frame_00000150813816170577487290000009455878602352337075_);stroke:#000000;stroke-width:2;}
	.st27{font-size:24.9514px;}
	.st28{fill:#5148FC;stroke:#000000;}
	.st29{fill:#333333;}
	.st30{font-size:18.7136px;}
</style>
<g id="Background">
	<rect x="52.2" y="13" class="st0" width="1104.3" height="629.6"/>
</g>
<g id="Regression_CI">
	<g>
		<path class="st1" d="M229.6,184.4v272.7l8.8-3.4l8.8-3.4l8.8-3.4l8.8-3.4l8.8-3.6l8.8-3.7l8.8-3.7l8.8-3.7l8.8-3.7l8.8-3.7
			l8.8-3.7l8.8-3.7l8.8-3.7l8.8-3.7l8.8-3.7l8.8-3.7l8.8-3.7l8.8-3.7l8.8-3.7l8.8-3.6l8.8-3.4l8.8-3.4l8.8-3.4l8.8-3.4l8.8-3.7
			l8.8-4l8.8-4l8.8-4l8.8-4l8.8-3l8.8-4.1l8.8-4.1l8.8-4.1l8.8-3.7l8.8-3.2l8.8-2.6l8.8-3.1l8.8-3l8.8-2.6l8.8-3.9l8.8-3.8l8.8-2.8
			l8.8-2.7l8.8-2.9l8.8-2.8l8.8-2.8l8.8-2.8l8.8-2.8l8.8-3.2l8.8-2.9l8.8-3.7l8.8-2.9l8.8-2.7l8.8-2.7l8.8-2.7l8.8-2.7l8.8-2.7
			l8.8-2.8l8.8-3.1l8.8-2.4l8.8-2.7l8.8-2.7l8.8-2.7l8.8-1.7l8.8-3.3l8.8-3.2l8.8-2.5l8.8-2.2l8.8-2.8l8.8-2.2l8.8-2.8l8.8-1.2
			l8.8-2.1l8.8-2.2l8.8-3l8.8-2.6l8.8-3.1l8.8-2l8.8-2.3l8.8-3.9l8.8-2.5l8.8-1.6l8.8-1.9l8.8-4l8.8-2.2l8.8-1.7l8.8-1.7l8.8-1.7
			l8.8-1.7l8.8-1.7l8.8-1.7l8.8-1.7l8.8-1.7l8.8-1.6l8.8-1.9l8.8-1.4l8.8-1.7l8.8-2l8.8-2V56.9l0,0l-8.8,3.2l-8.8,3.4l-8.8,3.1
			l-8.8,2.3l-8.8,2.2l-8.8,2.3l-8.8,2.6l-8.8,2.3l-8.8,2.9l-8.8,2.8l-8.8,2.7l-8.8,2.8l-8.8,2.7l-8.8,1.9l-8.8,2l-8.8,2.6l-8.8,2.1
			l-8.8,1.8l-8.8,2l-8.8,2.9l-8.8,2.1l-8.8,1.9l-8.8,1.5l-8.8,1.7l-8.8,2.2L872,119l-8.8,2.2l-8.8,1.5l-8.8,1.6l-8.8,1.4l-8.8,1.8
			l-8.8,1.5l-8.8,0.9l-8.8,1.6l-8.8,1.7l-8.8,1.1l-8.8,1.2l-8.8,1.2l-8.8,1.2l-8.8,1.2l-8.8,0.7l-8.8,0.5l-8.8,1.4l-8.8,1l-8.8,0.5
			l-8.8,0.9l-8.8,1l-8.8,0.5l-8.8,0.9l-8.8,1.3l-8.8,0.5l-8.8,1l-8.8,1l-8.8,1l-8.8,1l-8.8,1.1l-8.8,1.2l-8.8,1l-8.8,1l-8.8,1
			l-8.8,1l-8.8,1l-8.8,1l-8.8,1l-8.8,1l-8.8,0.7l-8.8,1l-8.8,1l-8.8,1l-8.8,1l-8.8,1l-8.8,1l-8.8,1l-8.8,0.6l-8.8,0.6l-8.8,0.3
			l-8.8,0.3l-8.8,0.3l-8.8,0.3l-8.8,0.3l-8.8,0.3l-8.8,0.3l-8.8,0.3l-8.8,0.5l-8.8,0.6l-8.8,0.6l-8.8,0.6l-8.8,0.6L318,178l-8.8,0.6
			l-8.8,0.7l-8.8,1l-8.8,0.7l-8.8,0.2l-8.8,0.6l-8.8,0.6l-8.8,0.6l-8.8,0.6L229.6,184.4z"/>
	</g>
</g>
<g id="Regression_Line">
	<g>
		<path class="st2" d="M229.6,331.1l8.8-2.3l8.8-2.3l8.8-2.3l8.8-2.3l8.8-2.3l8.8-2.3l8.8-2.3l8.8-2.3l8.8-2.3l8.8-2.3l8.8-2.3
			l8.8-2.3l8.8-2.3l8.8-2.3l8.8-2.3l8.8-2.3l8.8-2.3l8.8-2.3l8.8-2.3l8.8-2.3l8.8-2.3l8.8-2.3l8.8-2.3l8.8-2.3l8.8-2.3l8.8-2.3
			l8.8-2.3l8.8-2.3l8.8-2.3l8.8-2.3l8.8-2.3l8.8-2.3l8.8-2.3l8.8-2.3l8.8-2.3l8.8-2.3l8.8-2.3l8.8-2.3l8.8-2.3l8.8-2.3l8.8-2.3
			l8.8-2.3l8.8-2.3l8.8-2.3l8.8-2.3l8.8-2.3l8.8-2.3l8.8-2.3l8.8-2.3l8.8-2.3l8.8-2.3l8.8-2.3l8.8-2.3l8.8-2.3l8.8-2.3l8.8-2.3
			l8.8-2.3l8.8-2.3l8.8-2.3l8.8-2.3l8.8-2.3l8.8-2.3l8.8-2.3l8.8-2.3l8.8-2.3l8.8-2.3l8.8-2.3l8.8-2.3l8.8-2.3l8.8-2.3l8.8-2.3
			l8.8-2.3l8.8-2.3l8.8-2.3l8.8-2.3l8.8-2.3l8.8-2.3l8.8-2.3l8.8-2.3l8.8-2.3l8.8-2.3l8.8-2.3l8.8-2.3l8.8-2.3l8.8-2.3l8.8-2.3
			l8.8-2.3l8.8-2.3l8.8-2.3l8.8-2.3l8.8-2.3l8.8-2.3l8.8-2.3l8.8-2.3l8.8-2.3l8.8-2.3l8.8-2.3l8.8-2.3l8.8-2.3"/>
	</g>
</g>
<g id="matplotlib.axis_1">
	<g id="xtick_1">
		<g id="line2d_1">
			<g>
				<g>
					<path id="m7d26385062" class="st3" d="M257.8,477.1v7.1"/>
				</g>
			</g>
		</g>
		<g id="text_1">
			<text transform="matrix(1 0 0 1 242.0373 512.8143)" class="st4 st5">40</text>
		</g>
	</g>
	<g id="xtick_2">
		<g id="line2d_2">
			<g>
				<g>
					<path id="m7d26385062_00000101080694177414910450000010247937524906047393_" class="st3" d="M399,477.1v7.1"/>
				</g>
			</g>
		</g>
		<g id="text_2">
			<text transform="matrix(1 0 0 1 383.2624 512.8143)" class="st4 st5">50</text>
		</g>
	</g>
	<g id="xtick_3">
		<g id="line2d_3">
			<g>
				<g>
					<path id="m7d26385062_00000044868227250974787470000012697499775661659276_" class="st3" d="M540.3,477.1v7.1"/>
				</g>
			</g>
		</g>
		<g id="text_3">
			<text transform="matrix(1 0 0 1 524.4866 512.8143)" class="st4 st5">60</text>
		</g>
	</g>
	<g id="xtick_4">
		<g id="line2d_4">
			<g>
				<g>
					<path id="m7d26385062_00000050652259233858828910000011155646086676379782_" class="st3" d="M681.5,477.1v7.1"/>
				</g>
			</g>
		</g>
		<g id="text_4">
			<text transform="matrix(1 0 0 1 665.7117 512.8143)" class="st4 st5">70</text>
		</g>
	</g>
	<g id="xtick_5">
		<g id="line2d_5">
			<g>
				<g>
					<path id="m7d26385062_00000106850530677098957140000018337166084745007247_" class="st3" d="M822.7,477.1v7.1"/>
				</g>
			</g>
		</g>
		<g id="text_5">
			<text transform="matrix(1 0 0 1 806.9373 512.8143)" class="st4 st5">80</text>
		</g>
	</g>
	<g id="xtick_6">
		<g id="line2d_6">
			<g>
				<g>
					<path id="m7d26385062_00000137820936783667210950000001437224605881740946_" class="st3" d="M963.9,477.1v7.1"/>
				</g>
			</g>
		</g>
		<g id="text_6">
			<text transform="matrix(1 0 0 1 948.1624 512.8143)" class="st4 st5">90</text>
		</g>
	</g>
	<g id="xtick_7">
		<g id="line2d_7">
			<g>
				<g>
					<path id="m7d26385062_00000172410148838666677310000011401336809901197700_" class="st3" d="M1105.2,477.1v7.1"/>
				</g>
			</g>
		</g>
		<g id="text_7">
			<text transform="matrix(1 0 0 1 1081.5051 512.8143)" class="st4 st5">100</text>
		</g>
	</g>
	<g id="text_8">
		<text transform="matrix(1 0 0 1 365.7407 561.1338)" class="st6 st7">Percent of Samples Collected from the Same Country</text>
		<text transform="matrix(1 0 0 1 470.4407 592.3338)" class="st6 st7">as their Closest Genetic Relative (%)</text>
	</g>
</g>
<g id="matplotlib.axis_2">
	<g id="ytick_1">
		<g id="line2d_8">
			<g>
				<g>
					<path id="m1b6629f100" class="st8" d="M215.4,446.4h-7.1"/>
				</g>
			</g>
		</g>
	</g>
	<g id="ytick_2">
		<g id="line2d_9">
			<g>
				<g>
					<path id="m1b6629f100_00000171678678166989429170000017781172442879203987_" class="st3" d="M215.4,371.2h-7.1"/>
				</g>
			</g>
		</g>
		<g id="text_9">
			<text transform="matrix(1 0 0 1 185.4978 381.994)" class="st4 st5">0</text>
		</g>
	</g>
	<g id="ytick_3">
		<g id="line2d_10">
			<g>
				<g>
					<path id="m1b6629f100_00000168801784751187728370000012733038276554331322_" class="st3" d="M215.4,296h-7.1"/>
				</g>
			</g>
		</g>
		<g id="text_10">
			<text transform="matrix(1 0 0 1 169.7331 306.8182)" class="st4 st5">25</text>
		</g>
	</g>
	<g id="ytick_4">
		<g id="line2d_11">
			<g>
				<g>
					<path id="m1b6629f100_00000052820647749993103830000008251215872369642934_" class="st3" d="M215.4,220.9h-7.1"/>
				</g>
			</g>
		</g>
		<g id="text_11">
			<text transform="matrix(1 0 0 1 169.7331 231.6405)" class="st4 st5">50</text>
		</g>
	</g>
	<g id="ytick_5">
		<g id="line2d_12">
			<g>
				<g>
					<path id="m1b6629f100_00000026150079086597811450000015685881572556653968_" class="st3" d="M215.4,145.7h-7.1"/>
				</g>
			</g>
		</g>
		<g id="text_12">
			<text transform="matrix(1 0 0 1 169.7331 156.4617)" class="st4 st5">75</text>
		</g>
	</g>
	<g id="ytick_6">
		<g id="line2d_13">
			<g>
				<g>
					<path id="m1b6629f100_00000015314823890162621670000003401899664818833557_" class="st3" d="M215.4,70.5h-7.1"/>
				</g>
			</g>
		</g>
		<g id="text_13">
			<text transform="matrix(1 0 0 1 153.9675 81.2845)" class="st4 st5">100</text>
		</g>
	</g>
	<g id="text_14">
		<text transform="matrix(6.123234e-17 -1 1 6.123234e-17 87.0474 436.2578)" class="st6 st7">Percent of Samples Collected</text>
		<text transform="matrix(6.123234e-17 -1 1 6.123234e-17 118.2474 423.1582)" class="st6 st7">from a Non-Human Host(%)</text>
	</g>
</g>
<g id="Nodes">
	<path id="C0_0_a890f78b96" class="st9" d="M893.3,159.4c2.8,0,5.6-1.1,7.6-3.1s3.1-4.7,3.1-7.6c0-2.8-1.1-5.6-3.1-7.6
		s-4.7-3.1-7.6-3.1c-2.8,0-5.6,1.1-7.6,3.1s-3.1,4.7-3.1,7.6c0,2.8,1.1,5.6,3.1,7.6C887.7,158.3,890.5,159.4,893.3,159.4z"/>
	<path id="C0_0_a890f78b96_00000031914055170009329940000013692215141400093876_" class="st10" d="M1105.2,126.4
		c2.8,0,5.6-1.1,7.6-3.1s3.1-4.7,3.1-7.6c0-2.8-1.1-5.6-3.1-7.6s-4.7-3.1-7.6-3.1s-5.6,1.1-7.6,3.1s-3.1,4.7-3.1,7.6
		c0,2.8,1.1,5.6,3.1,7.6C1099.6,125.2,1102.3,126.4,1105.2,126.4z"/>
	<path id="C0_0_a890f78b96_00000120522934622136440340000009069298345868654252_" class="st11" d="M399,231.6c2.8,0,5.6-1.1,7.6-3.1
		s3.1-4.7,3.1-7.6c0-2.8-1.1-5.6-3.1-7.6s-4.7-3.1-7.6-3.1s-5.6,1.1-7.6,3.1s-3.1,4.7-3.1,7.6c0,2.8,1.1,5.6,3.1,7.6
		S396.2,231.6,399,231.6z"/>
	<path id="C0_0_a890f78b96_00000177471852395443681870000015197506154386233255_" class="st12" d="M469.6,382c2.8,0,5.6-1.1,7.6-3.1
		s3.1-4.7,3.1-7.6s-1.1-5.6-3.1-7.6s-4.7-3.1-7.6-3.1s-5.6,1.1-7.6,3.1s-3.1,4.7-3.1,7.6s1.1,5.6,3.1,7.6
		C464.1,380.8,466.8,382,469.6,382z"/>
	<path id="C0_0_a890f78b96_00000149373806374545687250000007088127202640369292_" class="st13" d="M540.3,126.4
		c2.8,0,5.6-1.1,7.6-3.1s3.1-4.7,3.1-7.6c0-2.8-1.1-5.6-3.1-7.6s-4.7-3.1-7.6-3.1c-2.8,0-5.6,1.1-7.6,3.1s-3.1,4.7-3.1,7.6
		c0,2.8,1.1,5.6,3.1,7.6C534.7,125.2,537.4,126.4,540.3,126.4z"/>
	<path id="C0_0_a890f78b96_00000179617200659332609980000017362119539491600038_" class="st14" d="M978,174.5c2.8,0,5.6-1.1,7.6-3.1
		s3.1-4.7,3.1-7.6c0-2.8-1.1-5.6-3.1-7.6s-4.7-3.1-7.6-3.1c-2.8,0-5.6,1.1-7.6,3.1s-3.1,4.7-3.1,7.6c0,2.8,1.1,5.6,3.1,7.6
		C972.5,173.3,975.2,174.5,978,174.5z"/>
	<path id="C0_0_a890f78b96_00000112624951963240000280000018155526988414338964_" class="st15" d="M850.9,108.3
		c2.8,0,5.6-1.1,7.6-3.1s3.1-4.7,3.1-7.6s-1.1-5.6-3.1-7.6s-4.7-3.1-7.6-3.1c-2.8,0-5.6,1.1-7.6,3.1s-3.1,4.7-3.1,7.6
		s1.1,5.6,3.1,7.6S848.1,108.3,850.9,108.3z"/>
	<path id="C0_0_a890f78b96_00000122695056105250407080000008946910359563018159_" class="st16" d="M1105.2,108.3
		c2.8,0,5.6-1.1,7.6-3.1s3.1-4.7,3.1-7.6s-1.1-5.6-3.1-7.6s-4.7-3.1-7.6-3.1s-5.6,1.1-7.6,3.1s-3.1,4.7-3.1,7.6s1.1,5.6,3.1,7.6
		C1099.6,107.2,1102.3,108.3,1105.2,108.3z"/>
	<path id="C0_0_a890f78b96_00000049193334052889566450000013271663560817345168_" class="st17" d="M865.1,382c2.8,0,5.6-1.1,7.6-3.1
		s3.1-4.7,3.1-7.6s-1.1-5.6-3.1-7.6s-4.7-3.1-7.6-3.1c-2.8,0-5.6,1.1-7.6,3.1s-3.1,4.7-3.1,7.6s1.1,5.6,3.1,7.6S862.2,382,865.1,382
		z"/>
	<path id="C0_0_a890f78b96_00000054986248881072397010000007832198517746201472_" class="st18" d="M1062.8,81.3
		c2.8,0,5.6-1.1,7.6-3.1s3.1-4.7,3.1-7.6s-1.1-5.6-3.1-7.6s-4.7-3.1-7.6-3.1s-5.6,1.1-7.6,3.1s-3.1,4.7-3.1,7.6s1.1,5.6,3.1,7.6
		C1057.2,80.1,1059.9,81.3,1062.8,81.3z"/>
	<path id="C0_0_a890f78b96_00000039813409189424622060000009774724839153927314_" class="st19" d="M963.9,102.3
		c2.8,0,5.6-1.1,7.6-3.1s3.1-4.7,3.1-7.6c0-2.8-1.1-5.6-3.1-7.6s-4.7-3.1-7.6-3.1c-2.8,0-5.6,1.1-7.6,3.1s-3.1,4.7-3.1,7.6
		c0,2.8,1.1,5.6,3.1,7.6C958.3,101.2,961.1,102.3,963.9,102.3z"/>
	<path id="C0_0_a890f78b96_00000091014768147719349560000000088850930923910807_" class="st20" d="M229.6,382c2.8,0,5.6-1.1,7.6-3.1
		s3.1-4.7,3.1-7.6s-1.1-5.6-3.1-7.6s-4.7-3.1-7.6-3.1s-5.6,1.1-7.6,3.1s-3.1,4.7-3.1,7.6s1.1,5.6,3.1,7.6S226.7,382,229.6,382z"/>
</g>
<g id="Node_Labels">
	<text transform="matrix(1 0 0 1 844.6635 153.1)" class="st4 st21">1.ORI</text>
	<text transform="matrix(1 0 0 1 928.5672 169.3137)" class="st4 st21">2.ANT</text>
	<text transform="matrix(1 0 0 1 923.9435 94.1363)" class="st4 st21">0.PE</text>
	<text transform="matrix(1 0 0 1 801.4673 101.9405)" class="st4 st21">4.ANT</text>
	<text transform="matrix(1 0 0 1 349.259 226.1914)" class="st4 st21">1.ANT</text>
	<text transform="matrix(1 0 0 1 487.8975 120.4061)" class="st4 st21">2.MED</text>
	<text transform="matrix(1 0 0 1 485.7986 374.2614)" class="st4 st21">1.PRE</text>
	<text transform="matrix(1 0 0 1 807.9615 374.4052)" class="st4 st21">0.ANT4</text>
	<text transform="matrix(1 0 0 1 247.2845 374.4052)" class="st4 st21">0.PRE</text>
	<text transform="matrix(1 0 0 1 1069.6707 126.4002)" class="st4 st21">1.IN</text>
	<text transform="matrix(1 0 0 1 1055.6282 101.9406)" class="st4 st21">3.ANT</text>
	<text transform="matrix(1 0 0 1 1013.6217 71.2966)" class="st4 st21">0.ANT</text>
</g>
<g id="Legend_00000010989482203167052240000016487194694928035487_">
	<g id="patch_7">
		<path class="st22" d="M229.6,102.8H382V58.9H229.6V102.8z"/>
	</g>
	<text transform="matrix(1 0 0 1 252.4889 89.0053)" class="st4 st7">R² = 0.43</text>
</g>
<rect id="Frame_00000132051359061744487550000001392055749795443390_" x="215.4" y="36.8" class="st23" width="903.8" height="440.3"/>
<g id="Legend" class="st24">
	<g id="Legend_00000104693720827182950550000007761342556041712828_" class="st25">
		<g id="Population_00000134222319965138990920000004631987227985689790_">
			
				<linearGradient id="Frame_00000137125411020521208650000012287700086672489900_" gradientUnits="userSpaceOnUse" x1="1156.6" y1="3317" x2="1345.2999" y2="3317" gradientTransform="matrix(1 0 0 -1 0 3574)">
				<stop  offset="0" style="stop-color:#FFFFFF"/>
				<stop  offset="0.75" style="stop-color:#FFFFFF;stop-opacity:0.75"/>
			</linearGradient>
			
				<rect id="Frame_00000046308938326943625990000007490696231404985764_" x="1156.6" y="38.1" style="fill:url(#Frame_00000137125411020521208650000012287700086672489900_);stroke:#000000;stroke-width:2;" width="188.7" height="437.8"/>
			
				<text id="Title_00000132063128706868382940000008367478602430047661_" transform="matrix(1.0226 0 0 1 1187.1504 66.3813)" class="st6 st27">Population</text>
		</g>
		
			<circle id="tip_GCA_001487065-1_Yersinia_pestis_genomic_00000027581710352976868310000017932519553028982437_" class="st9" cx="1196.8" cy="99.5" r="12.9"/>
		
			<circle id="tip_GCA_001487065-1_Yersinia_pestis_genomic_00000006670928565978809570000000777395562828426159_" class="st10" cx="1196.8" cy="131.2" r="12.9"/>
		
			<circle id="tip_GCA_001487065-1_Yersinia_pestis_genomic_00000180358167445074534130000012281758438062437535_" class="st11" cx="1196.8" cy="162.9" r="12.9"/>
		
			<circle id="tip_GCA_001487065-1_Yersinia_pestis_genomic_00000124862269812221962570000010325315206072908929_" class="st12" cx="1196.8" cy="194.5" r="12.9"/>
		
			<circle id="tip_GCA_001487065-1_Yersinia_pestis_genomic_00000031171682117584655850000005191462755264821658_" class="st13" cx="1196.8" cy="226.2" r="12.9"/>
		
			<circle id="tip_GCA_001487065-1_Yersinia_pestis_genomic_00000139291556979096987820000004408578147336749483_" class="st14" cx="1196.8" cy="257.8" r="12.9"/>
		
			<circle id="tip_GCA_001487065-1_Yersinia_pestis_genomic_00000079484113271632972210000003157375623175440005_" class="st15" cx="1196.8" cy="289.5" r="12.9"/>
		
			<circle id="tip_GCA_001487065-1_Yersinia_pestis_genomic_00000138549410804172563510000006320985216986453674_" class="st16" cx="1196.8" cy="321.2" r="12.9"/>
		
			<circle id="tip_GCA_001487065-1_Yersinia_pestis_genomic_00000034771322033880416530000017588702722937136261_" class="st17" cx="1196.8" cy="352.8" r="12.9"/>
		
			<circle id="tip_GCA_001487065-1_Yersinia_pestis_genomic_00000147923272794007449190000004927856446988354963_" class="st18" cx="1196.8" cy="388.8" r="12.9"/>
		
			<circle id="tip_GCA_001487065-1_Yersinia_pestis_genomic_00000046318010607382367110000016205393209274579843_" class="st28" cx="1196.8" cy="420.5" r="12.9"/>
		
			<circle id="tip_GCA_001487065-1_Yersinia_pestis_genomic_00000056400951078011511830000011479557859972700855_" class="st20" cx="1196.8" cy="452.1" r="12.9"/>
		<text transform="matrix(1 0 0 1 1230.8948 107.7592)" class="st29 st4 st30">1.ORI</text>
		<text transform="matrix(1 0 0 1 1230.8948 139.5932)" class="st29 st4 st30">1.IN</text>
		<text transform="matrix(1 0 0 1 1230.8948 171.4276)" class="st29 st4 st30">1.ANT</text>
		<text transform="matrix(1 0 0 1 1230.8948 203.2631)" class="st29 st4 st30">1.PRE</text>
		<text transform="matrix(1 0 0 1 1230.8943 235.0971)" class="st29 st4 st30">2.MED</text>
		<text transform="matrix(1 0 0 1 1230.8943 266.932)" class="st29 st4 st30">2.ANT</text>
		<text transform="matrix(1 0 0 1 1230.8943 298.766)" class="st29 st4 st30">4.ANT</text>
		<text transform="matrix(1 0 0 1 1230.8943 330.601)" class="st29 st4 st30">3.ANT</text>
		<text transform="matrix(1 0 0 1 1230.8948 394.2709)" class="st29 st4 st30">0.ANT</text>
		<text transform="matrix(1 0 0 1 1230.8943 362.4359)" class="st29 st4 st30">0.ANT4</text>
		<text transform="matrix(1 0 0 1 1230.8943 426.1049)" class="st29 st4 st30">0.PE</text>
		<text transform="matrix(1 0 0 1 1230.8948 457.9398)" class="st29 st4 st30">0.PRE</text>
	</g>
</g>
</svg>
