<?xml version="1.0" encoding="utf-8" standalone="no"?>
<!DOCTYPE svg PUBLIC "-//W3C//DTD SVG 1.1//EN"
  "http://www.w3.org/Graphics/SVG/1.1/DTD/svg11.dtd">
<!-- Created with matplotlib (https://matplotlib.org/) -->
<svg height="277.315156pt" version="1.1" viewBox="0 0 511.760312 277.315156" width="511.760312pt" xmlns="http://www.w3.org/2000/svg" xmlns:xlink="http://www.w3.org/1999/xlink">
 <metadata>
  <rdf:RDF xmlns:cc="http://creativecommons.org/ns#" xmlns:dc="http://purl.org/dc/elements/1.1/" xmlns:rdf="http://www.w3.org/1999/02/22-rdf-syntax-ns#">
   <cc:Work>
    <dc:type rdf:resource="http://purl.org/dc/dcmitype/StillImage"/>
    <dc:date>2021-10-21T19:25:25.966503</dc:date>
    <dc:format>image/svg+xml</dc:format>
    <dc:creator>
     <cc:Agent>
      <dc:title>Matplotlib v3.3.2, https://matplotlib.org/</dc:title>
     </cc:Agent>
    </dc:creator>
   </cc:Work>
  </rdf:RDF>
 </metadata>
 <defs>
  <style type="text/css">*{stroke-linecap:butt;stroke-linejoin:round;}</style>
 </defs>
 <g id="figure_1">
  <g id="patch_1">
   <path d="M 0 277.315156 
L 511.760312 277.315156 
L 511.760312 0 
L 0 0 
z
" style="fill:#ffffff;"/>
  </g>
  <g id="axes_1">
   <g id="patch_2">
    <path d="M 54.979063 228.439219 
L 501.379062 228.439219 
L 501.379062 10.999219 
L 54.979063 10.999219 
z
" style="fill:#ffffff;"/>
   </g>
   <g id="line2d_1">
    <path clip-path="url(#pf110bd513e)" d="M 488.330447 196.690536 
L 476.998755 186.918991 
L 465.667062 177.43416 
L 454.33537 168.236041 
L 443.003678 159.324635 
L 431.671986 150.699943 
L 420.683678 142.610418 
L 409.69537 134.790492 
L 398.707063 127.240166 
L 387.718755 119.95944 
L 376.730447 112.948315 
L 365.742139 106.206789 
L 355.097216 99.933029 
L 344.452293 93.912283 
L 333.80737 88.14455 
L 323.162447 82.629831 
L 312.517524 77.368124 
L 301.872601 72.359431 
L 291.571063 67.753211 
L 281.269524 63.383944 
L 270.967986 59.25163 
L 260.666447 55.356268 
L 250.364909 51.69786 
L 240.06337 48.276405 
L 229.761832 45.091903 
L 219.460293 42.144355 
L 209.158755 39.433759 
L 198.857216 36.960116 
L 188.899063 34.794165 
L 178.940909 32.849633 
L 168.982755 31.126521 
L 159.024601 29.624829 
L 149.066447 28.344555 
L 139.108293 27.285702 
L 129.150139 26.448267 
L 119.191986 25.832253 
L 109.233832 25.437657 
L 99.275678 25.264481 
L 89.317524 25.312725 
L 79.35937 25.582388 
L 72.491678 25.89737 
L 72.491678 25.89737 
" style="fill:none;stroke:#000000;stroke-linecap:square;stroke-width:0.5;"/>
   </g>
   <g id="matplotlib.axis_1">
    <g id="xtick_1">
     <g id="line2d_2">
      <defs>
       <path d="M 0 0 
L 0 3.5 
" id="m0f2a8c45b2" style="stroke:#000000;stroke-width:0.8;"/>
      </defs>
      <g>
       <use style="stroke:#000000;stroke-width:0.8;" x="501.379062" xlink:href="#m0f2a8c45b2" y="228.439219"/>
      </g>
     </g>
     <g id="text_1">
      <text style="font-family:DejaVu Sans;font-size:10px;font-stretch:normal;font-style:normal;font-weight:normal;text-anchor:middle;" transform="rotate(-0, 501.379062, 243.037656)" x="501.379062" y="243.037656">0</text>
     </g>
    </g>
    <g id="xtick_2">
     <g id="line2d_3">
      <g>
       <use style="stroke:#000000;stroke-width:0.8;" x="432.702139" xlink:href="#m0f2a8c45b2" y="228.439219"/>
      </g>
     </g>
     <g id="text_2">
      <text style="font-family:DejaVu Sans;font-size:10px;font-stretch:normal;font-style:normal;font-weight:normal;text-anchor:middle;" transform="rotate(-0, 432.702139, 243.037656)" x="432.702139" y="243.037656">200</text>
     </g>
    </g>
    <g id="xtick_3">
     <g id="line2d_4">
      <g>
       <use style="stroke:#000000;stroke-width:0.8;" x="364.025216" xlink:href="#m0f2a8c45b2" y="228.439219"/>
      </g>
     </g>
     <g id="text_3">
      <text style="font-family:DejaVu Sans;font-size:10px;font-stretch:normal;font-style:normal;font-weight:normal;text-anchor:middle;" transform="rotate(-0, 364.025216, 243.037656)" x="364.025216" y="243.037656">400</text>
     </g>
    </g>
    <g id="xtick_4">
     <g id="line2d_5">
      <g>
       <use style="stroke:#000000;stroke-width:0.8;" x="295.348293" xlink:href="#m0f2a8c45b2" y="228.439219"/>
      </g>
     </g>
     <g id="text_4">
      <text style="font-family:DejaVu Sans;font-size:10px;font-stretch:normal;font-style:normal;font-weight:normal;text-anchor:middle;" transform="rotate(-0, 295.348293, 243.037656)" x="295.348293" y="243.037656">600</text>
     </g>
    </g>
    <g id="xtick_5">
     <g id="line2d_6">
      <g>
       <use style="stroke:#000000;stroke-width:0.8;" x="226.67137" xlink:href="#m0f2a8c45b2" y="228.439219"/>
      </g>
     </g>
     <g id="text_5">
      <text style="font-family:DejaVu Sans;font-size:10px;font-stretch:normal;font-style:normal;font-weight:normal;text-anchor:middle;" transform="rotate(-0, 226.67137, 243.037656)" x="226.67137" y="243.037656">800</text>
     </g>
    </g>
    <g id="xtick_6">
     <g id="line2d_7">
      <g>
       <use style="stroke:#000000;stroke-width:0.8;" x="157.994447" xlink:href="#m0f2a8c45b2" y="228.439219"/>
      </g>
     </g>
     <g id="text_6">
      <text style="font-family:DejaVu Sans;font-size:10px;font-stretch:normal;font-style:normal;font-weight:normal;text-anchor:middle;" transform="rotate(-0, 157.994447, 243.037656)" x="157.994447" y="243.037656">1000</text>
     </g>
    </g>
    <g id="xtick_7">
     <g id="line2d_8">
      <g>
       <use style="stroke:#000000;stroke-width:0.8;" x="89.317524" xlink:href="#m0f2a8c45b2" y="228.439219"/>
      </g>
     </g>
     <g id="text_7">
      <text style="font-family:DejaVu Sans;font-size:10px;font-stretch:normal;font-style:normal;font-weight:normal;text-anchor:middle;" transform="rotate(-0, 89.317524, 243.037656)" x="89.317524" y="243.037656">1200</text>
     </g>
    </g>
    <g id="text_8">
     <!-- $\bf{Sampling\ Age\ Range}$ -->
     <g transform="translate(219.779062 256.717344)">
      <text>
       <tspan style="font-family:DejaVu Sans;font-size:10px;font-style:bold;font-weight:bold;" x="0 7.202148 13.950195 24.370117 31.52832 34.956055 38.383789 45.50293 56.134405 63.873663 71.031866 81.287365 88.987561 95.735608 102.854748 110.012951" y="-0.40625">SamplingAgeRange</tspan>
      </text>
     </g>
     <text style="font-family:DejaVu Sans;font-size:10px;font-stretch:normal;font-style:normal;font-weight:normal;" transform="translate(261.085312 268.035469)">(Years)</text>
    </g>
   </g>
   <g id="matplotlib.axis_2">
    <g id="ytick_1">
     <g id="line2d_9">
      <defs>
       <path d="M 0 0 
L -3.5 0 
" id="mc29eb7825d" style="stroke:#000000;stroke-width:0.8;"/>
      </defs>
      <g>
       <use style="stroke:#000000;stroke-width:0.8;" x="54.979063" xlink:href="#mc29eb7825d" y="208.671946"/>
      </g>
     </g>
     <g id="text_9">
      <text style="font-family:DejaVu Sans;font-size:10px;font-stretch:normal;font-style:normal;font-weight:normal;text-anchor:end;" transform="rotate(-0, 47.979063, 212.471165)" x="47.979063" y="212.471165">0.0</text>
     </g>
    </g>
    <g id="ytick_2">
     <g id="line2d_10">
      <g>
       <use style="stroke:#000000;stroke-width:0.8;" x="54.979063" xlink:href="#mc29eb7825d" y="169.137401"/>
      </g>
     </g>
     <g id="text_10">
      <text style="font-family:DejaVu Sans;font-size:10px;font-stretch:normal;font-style:normal;font-weight:normal;text-anchor:end;" transform="rotate(-0, 47.979063, 172.936619)" x="47.979063" y="172.936619">0.2</text>
     </g>
    </g>
    <g id="ytick_3">
     <g id="line2d_11">
      <g>
       <use style="stroke:#000000;stroke-width:0.8;" x="54.979063" xlink:href="#mc29eb7825d" y="129.602855"/>
      </g>
     </g>
     <g id="text_11">
      <text style="font-family:DejaVu Sans;font-size:10px;font-stretch:normal;font-style:normal;font-weight:normal;text-anchor:end;" transform="rotate(-0, 47.979063, 133.402074)" x="47.979063" y="133.402074">0.4</text>
     </g>
    </g>
    <g id="ytick_4">
     <g id="line2d_12">
      <g>
       <use style="stroke:#000000;stroke-width:0.8;" x="54.979063" xlink:href="#mc29eb7825d" y="90.06831"/>
      </g>
     </g>
     <g id="text_12">
      <text style="font-family:DejaVu Sans;font-size:10px;font-stretch:normal;font-style:normal;font-weight:normal;text-anchor:end;" transform="rotate(-0, 47.979063, 93.867528)" x="47.979063" y="93.867528">0.6</text>
     </g>
    </g>
    <g id="ytick_5">
     <g id="line2d_13">
      <g>
       <use style="stroke:#000000;stroke-width:0.8;" x="54.979063" xlink:href="#mc29eb7825d" y="50.533764"/>
      </g>
     </g>
     <g id="text_13">
      <text style="font-family:DejaVu Sans;font-size:10px;font-stretch:normal;font-style:normal;font-weight:normal;text-anchor:end;" transform="rotate(-0, 47.979063, 54.332983)" x="47.979063" y="54.332983">0.8</text>
     </g>
    </g>
    <g id="ytick_6">
     <g id="line2d_14">
      <g>
       <use style="stroke:#000000;stroke-width:0.8;" x="54.979063" xlink:href="#mc29eb7825d" y="10.999219"/>
      </g>
     </g>
     <g id="text_14">
      <text style="font-family:DejaVu Sans;font-size:10px;font-stretch:normal;font-style:normal;font-weight:normal;text-anchor:end;" transform="rotate(-0, 47.979063, 14.798438)" x="47.979063" y="14.798438">1.0</text>
     </g>
    </g>
    <g id="text_15">
     <!-- $\bf{Coefficient\ of\ Determination}$ -->
     <g transform="translate(14.798438 200.169219)rotate(-90)">
      <text>
       <tspan style="font-family:DejaVu Sans;font-size:10px;font-style:bold;font-weight:bold;" x="0 7.338867 14.208984 20.991211 25.341797 29.692383 33.120117 39.047852 42.475586 49.257812 56.376953 64.630499 71.500616 79.324475 87.625256 94.407483 99.187756 105.969983 110.901623 121.321545 124.749279 131.86842 138.616467 143.39674 146.824475 153.694592" y="-0.40625">CoefficientofDetermination</tspan>
      </text>
     </g>
     <text style="font-family:DejaVu Sans;font-size:10px;font-stretch:normal;font-style:normal;font-weight:normal;" transform="translate(25.99625 129.099688)rotate(-90)">(R²)</text>
    </g>
   </g>
   <g id="PathCollection_1">
    <defs>
     <path d="M 0 3.535534 
C 0.937635 3.535534 1.836992 3.163008 2.5 2.5 
C 3.163008 1.836992 3.535534 0.937635 3.535534 -0 
C 3.535534 -0.937635 3.163008 -1.836992 2.5 -2.5 
C 1.836992 -3.163008 0.937635 -3.535534 0 -3.535534 
C -0.937635 -3.535534 -1.836992 -3.163008 -2.5 -2.5 
C -3.163008 -1.836992 -3.535534 -0.937635 -3.535534 0 
C -3.535534 0.937635 -3.163008 1.836992 -2.5 2.5 
C -1.836992 3.163008 -0.937635 3.535534 0 3.535534 
z
" id="C0_0_53f50c4ed3"/>
    </defs>
    <g clip-path="url(#pf110bd513e)">
     <use style="fill:#ff0000;stroke:#000000;stroke-width:0.565685;" x="469.787678" xlink:href="#C0_0_53f50c4ed3" y="198.338205"/>
    </g>
    <g clip-path="url(#pf110bd513e)">
     <use style="fill:#ff4824;stroke:#000000;stroke-width:0.565685;" x="482.836293" xlink:href="#C0_0_53f50c4ed3" y="203.492379"/>
    </g>
    <g clip-path="url(#pf110bd513e)">
     <use style="fill:#ff8a48;stroke:#000000;stroke-width:0.565685;" x="484.209832" xlink:href="#C0_0_53f50c4ed3" y="83.12146"/>
    </g>
    <g clip-path="url(#pf110bd513e)">
     <use style="fill:#f3c16a;stroke:#000000;stroke-width:0.565685;" x="319.385216" xlink:href="#C0_0_53f50c4ed3" y="57.520316"/>
    </g>
    <g clip-path="url(#pf110bd513e)">
     <use style="fill:#c5e88a;stroke:#000000;stroke-width:0.565685;" x="464.980293" xlink:href="#C0_0_53f50c4ed3" y="205.646513"/>
    </g>
    <g clip-path="url(#pf110bd513e)">
     <use style="fill:#97fca7;stroke:#000000;stroke-width:0.565685;" x="472.534755" xlink:href="#C0_0_53f50c4ed3" y="195.506981"/>
    </g>
    <g clip-path="url(#pf110bd513e)">
     <use style="fill:#68fcc1;stroke:#000000;stroke-width:0.565685;" x="488.330447" xlink:href="#C0_0_53f50c4ed3" y="208.14087"/>
    </g>
    <g clip-path="url(#pf110bd513e)">
     <use style="fill:#3ae8d7;stroke:#000000;stroke-width:0.565685;" x="482.149524" xlink:href="#C0_0_53f50c4ed3" y="195.23463"/>
    </g>
    <g clip-path="url(#pf110bd513e)">
     <use style="fill:#0cc1e8;stroke:#000000;stroke-width:0.565685;" x="272.684909" xlink:href="#C0_0_53f50c4ed3" y="71.764342"/>
    </g>
    <g clip-path="url(#pf110bd513e)">
     <use style="fill:#238af5;stroke:#000000;stroke-width:0.565685;" x="476.65537" xlink:href="#C0_0_53f50c4ed3" y="208.446197"/>
    </g>
    <g clip-path="url(#pf110bd513e)">
     <use style="fill:#5148fc;stroke:#000000;stroke-width:0.565685;" x="482.149524" xlink:href="#C0_0_53f50c4ed3" y="204.810767"/>
    </g>
    <g clip-path="url(#pf110bd513e)">
     <use style="fill:#8000ff;stroke:#000000;stroke-width:0.565685;" x="72.148293" xlink:href="#C0_0_53f50c4ed3" y="26.406895"/>
    </g>
   </g>
   <g id="patch_3">
    <path d="M 54.979063 228.439219 
L 54.979063 10.999219 
" style="fill:none;stroke:#000000;stroke-linecap:square;stroke-linejoin:miter;stroke-width:0.8;"/>
   </g>
   <g id="patch_4">
    <path d="M 501.379062 228.439219 
L 501.379062 10.999219 
" style="fill:none;stroke:#000000;stroke-linecap:square;stroke-linejoin:miter;stroke-width:0.8;"/>
   </g>
   <g id="patch_5">
    <path d="M 54.979063 228.439219 
L 501.379062 228.439219 
" style="fill:none;stroke:#000000;stroke-linecap:square;stroke-linejoin:miter;stroke-width:0.8;"/>
   </g>
   <g id="patch_6">
    <path d="M 54.979063 10.999219 
L 501.379062 10.999219 
" style="fill:none;stroke:#000000;stroke-linecap:square;stroke-linejoin:miter;stroke-width:0.8;"/>
   </g>
   <g id="text_16">
    <g id="patch_7">
     <path d="M 73.299063 204.662281 
L 250.870938 204.662281 
L 250.870938 186.984156 
L 73.299063 186.984156 
z
" style="fill:#ffffff;stroke:#000000;stroke-linejoin:miter;stroke-width:0.5;"/>
    </g>
    <text style="font-family:DejaVu Sans;font-size:10px;font-stretch:normal;font-style:normal;font-weight:normal;text-anchor:start;" transform="rotate(-0, 77.299063, 198.582594)" x="77.299063" y="198.582594">y = 0.002x - 6.66e-07x² + 0.0019</text>
   </g>
  </g>
 </g>
 <defs>
  <clipPath id="pf110bd513e">
   <rect height="217.44" width="446.4" x="54.979063" y="10.999219"/>
  </clipPath>
 </defs>
</svg>
