<?xml version="1.0" encoding="utf-8"?>
<!-- Generator: Adobe Illustrator 25.2.0, SVG Export Plug-In . SVG Version: 6.00 Build 0)  -->
<svg version="1.1" xmlns="http://www.w3.org/2000/svg" xmlns:xlink="http://www.w3.org/1999/xlink" x="0px" y="0px"
	 viewBox="0 0 1725.7 1210" style="enable-background:new 0 0 1725.7 1210;" xml:space="preserve">
<style type="text/css">
	.st0{display:none;fill:none;}
	.st1{display:none;}
	.st2{display:inline;}
	.st3{fill:#FF0000;stroke:#000000;stroke-width:0.5;}
	.st4{font-family:'ArialMT';}
	.st5{font-size:12px;}
	.st6{fill:#FF4600;stroke:#000000;stroke-width:0.5;}
	.st7{fill:#FF6900;stroke:#000000;stroke-width:0.5;}
	.st8{fill:#FF8600;stroke:#000000;stroke-width:0.5;}
	.st9{fill:#FFA200;stroke:#000000;stroke-width:0.5;}
	.st10{fill:#FFBB00;stroke:#000000;stroke-width:0.5;}
	.st11{fill:#FFD400;stroke:#000000;stroke-width:0.5;}
	.st12{fill:#FFEC00;stroke:#000000;stroke-width:0.5;}
	.st13{fill:#FCFF00;stroke:#000000;stroke-width:0.5;}
	.st14{fill:#E9FF00;stroke:#000000;stroke-width:0.5;}
	.st15{fill:#D6FF00;stroke:#000000;stroke-width:0.5;}
	.st16{fill:#C1FF00;stroke:#000000;stroke-width:0.5;}
	.st17{fill:#AAFF00;stroke:#000000;stroke-width:0.5;}
	.st18{fill:#90FF00;stroke:#000000;stroke-width:0.5;}
	.st19{fill:#71FF00;stroke:#000000;stroke-width:0.5;}
	.st20{fill:#45FF00;stroke:#000000;stroke-width:0.5;}
	.st21{fill:#00FF31;stroke:#000000;stroke-width:0.5;}
	.st22{fill:#00FF64;stroke:#000000;stroke-width:0.5;}
	.st23{fill:#00FF89;stroke:#000000;stroke-width:0.5;}
	.st24{fill:#00FFA9;stroke:#000000;stroke-width:0.5;}
	.st25{fill:#00FFC4;stroke:#000000;stroke-width:0.5;}
	.st26{fill:#00FFDB;stroke:#000000;stroke-width:0.5;}
	.st27{fill:#00FFED;stroke:#000000;stroke-width:0.5;}
	.st28{fill:#00FFFB;stroke:#000000;stroke-width:0.5;}
	.st29{fill:#00F4FF;stroke:#000000;stroke-width:0.5;}
	.st30{fill:#00E0FF;stroke:#000000;stroke-width:0.5;}
	.st31{fill:#00CBFF;stroke:#000000;stroke-width:0.5;}
	.st32{fill:#00B4FF;stroke:#000000;stroke-width:0.5;}
	.st33{fill:#009BFF;stroke:#000000;stroke-width:0.5;}
	.st34{fill:#007FFF;stroke:#000000;stroke-width:0.5;}
	.st35{fill:#005CFF;stroke:#000000;stroke-width:0.5;}
	.st36{fill:#0022FF;stroke:#000000;stroke-width:0.5;}
	.st37{fill:#4E00FF;stroke:#000000;stroke-width:0.5;}
	.st38{fill:#7600FF;stroke:#000000;stroke-width:0.5;}
	.st39{fill:#9400FF;stroke:#000000;stroke-width:0.5;}
	.st40{fill:#AD00FF;stroke:#000000;stroke-width:0.5;}
	.st41{fill:#C400FF;stroke:#000000;stroke-width:0.5;}
	.st42{fill:#D900FF;stroke:#000000;stroke-width:0.5;}
	.st43{fill:#ED00FF;stroke:#000000;stroke-width:0.5;}
	.st44{fill:#FF00FF;stroke:#000000;stroke-width:0.5;}
	.st45{font-family:'Arial-BoldMT';}
	.st46{fill:none;stroke:#000000;stroke-width:1.7985;stroke-miterlimit:2.398;}
	.st47{fill:#FF0000;stroke:#000000;stroke-width:0.5995;stroke-miterlimit:2.398;}
	.st48{font-size:8.9925px;}
	.st49{fill:#FF6900;stroke:#000000;stroke-width:0.5995;stroke-miterlimit:2.398;}
	.st50{fill:#FFA200;stroke:#000000;stroke-width:0.5995;stroke-miterlimit:2.398;}
	.st51{fill:#FF8600;stroke:#000000;stroke-width:0.5995;stroke-miterlimit:2.398;}
	.st52{fill:#FFBB00;stroke:#000000;stroke-width:0.5995;stroke-miterlimit:2.398;}
	.st53{fill:#FF4600;stroke:#000000;stroke-width:0.5995;stroke-miterlimit:2.398;}
	.st54{fill:#FFD400;stroke:#000000;stroke-width:0.5995;stroke-miterlimit:2.398;}
	.st55{fill:#E9FF00;stroke:#000000;stroke-width:0.5995;stroke-miterlimit:2.398;}
	.st56{fill:#D6FF00;stroke:#000000;stroke-width:0.5995;stroke-miterlimit:2.398;}
	.st57{fill:#FFEC00;stroke:#000000;stroke-width:0.5995;stroke-miterlimit:2.398;}
	.st58{fill:#FCFF00;stroke:#000000;stroke-width:0.5995;stroke-miterlimit:2.398;}
	.st59{fill:#C1FF00;stroke:#000000;stroke-width:0.5995;stroke-miterlimit:2.398;}
	.st60{fill:#AAFF00;stroke:#000000;stroke-width:0.5995;stroke-miterlimit:2.398;}
	.st61{fill:#90FF00;stroke:#000000;stroke-width:0.5995;stroke-miterlimit:2.398;}
	.st62{fill:#00FF89;stroke:#000000;stroke-width:0.5995;stroke-miterlimit:2.398;}
	.st63{fill:#00FFED;stroke:#000000;stroke-width:0.5995;stroke-miterlimit:2.398;}
	.st64{fill:#0022FF;stroke:#000000;stroke-width:0.5995;stroke-miterlimit:2.398;}
	.st65{fill:#C400FF;stroke:#000000;stroke-width:0.5995;stroke-miterlimit:2.398;}
	.st66{fill:#009BFF;stroke:#000000;stroke-width:0.5995;stroke-miterlimit:2.398;}
	.st67{fill:#007FFF;stroke:#000000;stroke-width:0.5995;stroke-miterlimit:2.398;}
	.st68{fill:#00B4FF;stroke:#000000;stroke-width:0.5995;stroke-miterlimit:2.398;}
	.st69{fill:#00E0FF;stroke:#000000;stroke-width:0.5995;stroke-miterlimit:2.398;}
	.st70{fill:#00F4FF;stroke:#000000;stroke-width:0.5995;stroke-miterlimit:2.398;}
	.st71{fill:#00CBFF;stroke:#000000;stroke-width:0.5995;stroke-miterlimit:2.398;}
	.st72{fill:#00FFFB;stroke:#000000;stroke-width:0.5995;stroke-miterlimit:2.398;}
	.st73{fill:#45FF00;stroke:#000000;stroke-width:0.5995;stroke-miterlimit:2.398;}
	.st74{fill:#00FFC4;stroke:#000000;stroke-width:0.5995;stroke-miterlimit:2.398;}
	.st75{fill:#00FFDB;stroke:#000000;stroke-width:0.5995;stroke-miterlimit:2.398;}
	.st76{fill:#00FFA9;stroke:#000000;stroke-width:0.5995;stroke-miterlimit:2.398;}
	.st77{fill:#71FF00;stroke:#000000;stroke-width:0.5995;stroke-miterlimit:2.398;}
	.st78{fill:#00FF31;stroke:#000000;stroke-width:0.5995;stroke-miterlimit:2.398;}
	.st79{fill:#00FF64;stroke:#000000;stroke-width:0.5995;stroke-miterlimit:2.398;}
	.st80{fill:#005CFF;stroke:#000000;stroke-width:0.5995;stroke-miterlimit:2.398;}
	.st81{fill:#7600FF;stroke:#000000;stroke-width:0.5995;stroke-miterlimit:2.398;}
	.st82{fill:#9400FF;stroke:#000000;stroke-width:0.5995;stroke-miterlimit:2.398;}
	.st83{fill:#4E00FF;stroke:#000000;stroke-width:0.5995;stroke-miterlimit:2.398;}
	.st84{fill:#AD00FF;stroke:#000000;stroke-width:0.5995;stroke-miterlimit:2.398;}
	.st85{fill:#FF00FF;stroke:#000000;stroke-width:0.5995;stroke-miterlimit:2.398;}
	.st86{fill:#ED00FF;stroke:#000000;stroke-width:0.5995;stroke-miterlimit:2.398;}
	.st87{fill:#D900FF;stroke:#000000;stroke-width:0.5995;stroke-miterlimit:2.398;}
	.st88{fill:#FFFFFF;stroke:#000000;stroke-width:0.5995;stroke-miterlimit:2.398;}
	.st89{display:inline;fill:#FFFFFF;stroke:#000000;stroke-width:0.5995;stroke-miterlimit:2.398;}
	.st90{stroke:#000000;stroke-width:2;stroke-miterlimit:2.398;}
	.st91{font-size:20px;}
</style>
<g id="mst-svg">
	<rect x="-251.5" y="0" pointer-events="all" class="st0" width="1913" height="1210"/>
	<g transform="translate(1693.3333587646484,0)" class="st1">
		<g transform="translate(0,30)" class="st2">
			<rect x="-251.5" y="2" class="st3" width="16" height="16"/>
			<text transform="matrix(1 0 0 1 -231.4681 13.2)" class="st4 st5">1311 [1]</text>
		</g>
		<g transform="translate(0,50)" class="st2">
			<rect x="-251.5" y="2" class="st6" width="16" height="16"/>
			<text transform="matrix(1 0 0 1 -231.4681 13.2)" class="st4 st5">1332 [2]</text>
		</g>
		<g transform="translate(0,70)" class="st2">
			<rect x="-251.5" y="2" class="st7" width="16" height="16"/>
			<text transform="matrix(1 0 0 1 -231.4681 13.2)" class="st4 st5">1334 [1]</text>
		</g>
		<g transform="translate(0,90)" class="st2">
			<rect x="-251.5" y="2" class="st8" width="16" height="16"/>
			<text transform="matrix(1 0 0 1 -231.4681 13.2)" class="st4 st5">1335 [1]</text>
		</g>
		<g transform="translate(0,110)" class="st2">
			<rect x="-251.5" y="2" class="st9" width="16" height="16"/>
			<text transform="matrix(1 0 0 1 -231.4681 13.2)" class="st4 st5">1342 [1]</text>
		</g>
		<g transform="translate(0,130)" class="st2">
			<rect x="-251.5" y="2" class="st10" width="16" height="16"/>
			<text transform="matrix(1 0 0 1 -231.4681 13.2)" class="st4 st5">1349 [1]</text>
		</g>
		<g transform="translate(0,150)" class="st2">
			<rect x="-251.5" y="2" class="st11" width="16" height="16"/>
			<text transform="matrix(1 0 0 1 -231.4681 13.2)" class="st4 st5">1350 [1]</text>
		</g>
		<g transform="translate(0,170)" class="st2">
			<rect x="-251.5" y="2" class="st12" width="16" height="16"/>
			<text transform="matrix(1 0 0 1 -231.4681 13.2)" class="st4 st5">1354 [1]</text>
		</g>
		<g transform="translate(0,190)" class="st2">
			<rect x="-251.5" y="2" class="st13" width="16" height="16"/>
			<text transform="matrix(1 0 0 1 -231.4681 13.2)" class="st4 st5">1368 [1]</text>
		</g>
		<g transform="translate(0,210)" class="st2">
			<rect x="-251.5" y="2" class="st14" width="16" height="16"/>
			<text transform="matrix(1 0 0 1 -231.4681 13.2)" class="st4 st5">1370 [2]</text>
		</g>
		<g transform="translate(0,230)" class="st2">
			<rect x="-251.5" y="2" class="st15" width="16" height="16"/>
			<text transform="matrix(1 0 0 1 -231.4681 13.2)" class="st4 st5">1379 [2]</text>
		</g>
		<g transform="translate(0,250)" class="st2">
			<rect x="-251.5" y="2" class="st16" width="16" height="16"/>
			<text transform="matrix(1 0 0 1 -231.4681 13.2)" class="st4 st5">1429 [1]</text>
		</g>
		<g transform="translate(0,270)" class="st2">
			<rect x="-251.5" y="2" class="st17" width="16" height="16"/>
			<text transform="matrix(1 0 0 1 -231.4681 13.2)" class="st4 st5">1433 [2]</text>
		</g>
		<g transform="translate(0,290)" class="st2">
			<rect x="-251.5" y="2" class="st18" width="16" height="16"/>
			<text transform="matrix(1 0 0 1 -231.4681 13.2)" class="st4 st5">1457 [1]</text>
		</g>
		<g transform="translate(0,310)" class="st2">
			<rect x="-251.5" y="2" class="st19" width="16" height="16"/>
			<text transform="matrix(1 0 0 1 -231.4681 13.2)" class="st4 st5">1475 [1]</text>
		</g>
		<g transform="translate(0,330)" class="st2">
			<rect x="-251.5" y="2" class="st20" width="16" height="16"/>
			<text transform="matrix(1 0 0 1 -231.4681 13.2)" class="st4 st5">1486 [1]</text>
		</g>
		<g transform="translate(0,350)" class="st2">
			<rect x="-251.5" y="2" class="st21" width="16" height="16"/>
			<text transform="matrix(1 0 0 1 -231.4681 13.2)" class="st4 st5">1487 [1]</text>
		</g>
		<g transform="translate(0,370)" class="st2">
			<rect x="-251.5" y="2" class="st22" width="16" height="16"/>
			<text transform="matrix(1 0 0 1 -231.4681 13.2)" class="st4 st5">1490 [1]</text>
		</g>
		<g transform="translate(0,390)" class="st2">
			<rect x="-251.5" y="2" class="st23" width="16" height="16"/>
			<text transform="matrix(1 0 0 1 -231.4681 13.2)" class="st4 st5">1491 [1]</text>
		</g>
		<g transform="translate(0,410)" class="st2">
			<rect x="-251.5" y="2" class="st24" width="16" height="16"/>
			<text transform="matrix(1 0 0 1 -231.4681 13.2)" class="st4 st5">1503 [1]</text>
		</g>
		<g transform="translate(0,430)" class="st2">
			<rect x="-251.5" y="2" class="st25" width="16" height="16"/>
			<text transform="matrix(1 0 0 1 -231.4681 13.2)" class="st4 st5">1513 [1]</text>
		</g>
		<g transform="translate(0,450)" class="st2">
			<rect x="-251.5" y="2" class="st26" width="16" height="16"/>
			<text transform="matrix(1 0 0 1 -231.4681 13.2)" class="st4 st5">1525 [1]</text>
		</g>
		<g transform="translate(0,470)" class="st2">
			<rect x="-251.5" y="2" class="st27" width="16" height="16"/>
			<text transform="matrix(1 0 0 1 -231.4681 13.2)" class="st4 st5">1532 [1]</text>
		</g>
		<g transform="translate(0,490)" class="st2">
			<rect x="-251.5" y="2" class="st28" width="16" height="16"/>
			<text transform="matrix(1 0 0 1 -231.4681 13.2)" class="st4 st5">1558 [1]</text>
		</g>
		<g transform="translate(0,510)" class="st2">
			<rect x="-251.5" y="2" class="st29" width="16" height="16"/>
			<text transform="matrix(1 0 0 1 -231.4681 13.2)" class="st4 st5">1560 [2]</text>
		</g>
		<g transform="translate(0,530)" class="st2">
			<rect x="-251.5" y="2" class="st30" width="16" height="16"/>
			<text transform="matrix(1 0 0 1 -231.4681 13.2)" class="st4 st5">1563 [1]</text>
		</g>
		<g transform="translate(0,550)" class="st2">
			<rect x="-251.5" y="2" class="st31" width="16" height="16"/>
			<text transform="matrix(1 0 0 1 -231.4681 13.2)" class="st4 st5">1565 [1]</text>
		</g>
		<g transform="translate(0,570)" class="st2">
			<rect x="-251.5" y="2" class="st32" width="16" height="16"/>
			<text transform="matrix(1 0 0 1 -231.4681 13.2)" class="st4 st5">1568 [1]</text>
		</g>
		<g transform="translate(0,590)" class="st2">
			<rect x="-251.5" y="2" class="st33" width="16" height="16"/>
			<text transform="matrix(1 0 0 1 -231.4681 13.2)" class="st4 st5">1571 [1]</text>
		</g>
		<g transform="translate(0,610)" class="st2">
			<rect x="-251.5" y="2" class="st34" width="16" height="16"/>
			<text transform="matrix(1 0 0 1 -231.4681 13.2)" class="st4 st5">1572 [1]</text>
		</g>
		<g transform="translate(0,630)" class="st2">
			<rect x="-251.5" y="2" class="st35" width="16" height="16"/>
			<text transform="matrix(1 0 0 1 -231.4681 13.2)" class="st4 st5">1585 [1]</text>
		</g>
		<g transform="translate(0,650)" class="st2">
			<rect x="-251.5" y="2" class="st36" width="16" height="16"/>
			<text transform="matrix(1 0 0 1 -231.4681 13.2)" class="st4 st5">1594 [1]</text>
		</g>
		<g transform="translate(0,670)" class="st2">
			<rect x="-251.5" y="2" class="st37" width="16" height="16"/>
			<text transform="matrix(1 0 0 1 -231.4681 13.2)" class="st4 st5">1603 [1]</text>
		</g>
		<g transform="translate(0,690)" class="st2">
			<rect x="-251.5" y="2" class="st38" width="16" height="16"/>
			<text transform="matrix(1 0 0 1 -231.4681 13.2)" class="st4 st5">1608 [1]</text>
		</g>
		<g transform="translate(0,710)" class="st2">
			<rect x="-251.5" y="2" class="st39" width="16" height="16"/>
			<text transform="matrix(1 0 0 1 -231.4681 13.2)" class="st4 st5">1609 [1]</text>
		</g>
		<g transform="translate(0,730)" class="st2">
			<rect x="-251.5" y="2" class="st40" width="16" height="16"/>
			<text transform="matrix(1 0 0 1 -231.4681 13.2)" class="st4 st5">1625 [1]</text>
		</g>
		<g transform="translate(0,750)" class="st2">
			<rect x="-251.5" y="2" class="st41" width="16" height="16"/>
			<text transform="matrix(1 0 0 1 -231.4681 13.2)" class="st4 st5">1631 [1]</text>
		</g>
		<g transform="translate(0,770)" class="st2">
			<rect x="-251.5" y="2" class="st42" width="16" height="16"/>
			<text transform="matrix(1 0 0 1 -231.4681 13.2)" class="st4 st5">1721 [5]</text>
		</g>
		<g transform="translate(0,790)" class="st2">
			<rect x="-251.5" y="2" class="st43" width="16" height="16"/>
			<text transform="matrix(1 0 0 1 -231.4681 13.2)" class="st4 st5">1768 [1]</text>
		</g>
		<g transform="translate(0,810)" class="st2">
			<rect x="-251.5" y="2" class="st44" width="16" height="16"/>
			<text transform="matrix(1 0 0 1 -231.4681 13.2)" class="st4 st5">1799 [1]</text>
		</g>
		<text transform="matrix(1 0 0 1 -229.4681 20)" class="st2 st45 st5">timetree_num_date</text>
	</g>
</g>
<g id="Branches">
</g>
<g id="Branches_1_">
	<g id="_hypo_85-SAMEA7293135">
		<line class="st46" x1="1343.2" y1="748.2" x2="1657.1" y2="748.7"/>
	</g>
	<g id="_hypo_70-_hypo_74">
		<line class="st46" x1="659.1" y1="747.7" x2="953.1" y2="746.9"/>
	</g>
	<g id="_hypo_82-_hypo_84">
		<line class="st46" x1="1038.3" y1="747" x2="1263.5" y2="747"/>
	</g>
	<g id="_hypo_42-SAMEA5818803">
		<line class="st46" x1="648.6" y1="439.2" x2="815.7" y2="287.5"/>
	</g>
	<g id="_hypo_85-SAMEA7313236_38">
		<line class="st46" x1="1343.2" y1="748.2" x2="1344.5" y2="529.2"/>
	</g>
	<g id="_hypo_36-SAMEA5818815">
		<line class="st46" x1="552" y1="747.1" x2="552.7" y2="582.2"/>
	</g>
	<g id="_hypo_38-_hypo_39">
		<line class="st46" x1="596.7" y1="747" x2="597.4" y2="599.6"/>
	</g>
	<g id="_hypo_28-P387">
		<line class="st46" x1="368" y1="746.8" x2="366.9" y2="587.7"/>
	</g>
	<g id="_hypo_30-SAMEA5818817">
		<line class="st46" x1="384.8" y1="747" x2="385.6" y2="592.3"/>
	</g>
	<g id="_hypo_4-SAMEA5054093">
		<line class="st46" x1="135.5" y1="745.8" x2="136.8" y2="619.8"/>
	</g>
	<g id="_hypo_26-_hypo_28">
		<line class="st46" x1="260.9" y1="746" x2="368" y2="746.8"/>
	</g>
	<g id="_hypo_42-D51">
		<line class="st46" x1="648.6" y1="439.2" x2="707.1" y2="342"/>
	</g>
	<g id="_hypo_34-P212">
		<line class="st46" x1="502.4" y1="747" x2="501.3" y2="636.2"/>
	</g>
	<g id="_hypo_2-D62">
		<line class="st46" x1="131.6" y1="745.6" x2="131.3" y2="639.3"/>
	</g>
	<g id="_hypo_39-_hypo_41">
		<line class="st46" x1="597.4" y1="599.6" x2="599.3" y2="509.9"/>
	</g>
	<g id="_hypo_65-D75">
		<line class="st46" x1="643.8" y1="651.7" x2="667" y2="551"/>
	</g>
	<g id="_hypo_15-R36">
		<line class="st46" x1="140.5" y1="640.5" x2="168.2" y2="541.1"/>
	</g>
	<g id="_hypo_63-D72">
		<line class="st46" x1="627.5" y1="684.6" x2="640.5" y2="582.7"/>
	</g>
	<g id="_hypo_84-_hypo_88">
		<line class="st46" x1="1263.5" y1="747" x2="1262.4" y2="659.3"/>
	</g>
	<g id="_hypo_8-SAMN00715800">
		<line class="st46" x1="143.6" y1="701.7" x2="165.7" y2="603.4"/>
	</g>
	<g id="_hypo_45-SAMEA5818822">
		<line class="st46" x1="598.9" y1="483.4" x2="510.3" y2="436.1"/>
	</g>
	<g id="_hypo_41-_hypo_42">
		<line class="st46" x1="599.3" y1="509.9" x2="648.6" y2="439.2"/>
	</g>
	<g id="_hypo_39-SAMEA5818808">
		<line class="st46" x1="597.4" y1="599.6" x2="626.1" y2="506.2"/>
	</g>
	<g id="_hypo_84-_hypo_85">
		<line class="st46" x1="1263.5" y1="747" x2="1343.2" y2="748.2"/>
	</g>
	<g id="_hypo_22-_hypo_24">
		<line class="st46" x1="154.8" y1="746.6" x2="232.5" y2="746"/>
	</g>
	<g id="_hypo_30-_hypo_32">
		<line class="st46" x1="384.8" y1="747" x2="461.2" y2="746.9"/>
	</g>
	<g id="_hypo_82-SAMEA7313243_45">
		<line class="st46" x1="1038.3" y1="747" x2="1038.1" y2="657.6"/>
	</g>
	<g id="_hypo_32-P187">
		<line class="st46" x1="461.2" y1="746.9" x2="461.7" y2="666.1"/>
	</g>
	<g id="_hypo_26-SAMEA5818809">
		<line class="st46" x1="260.9" y1="746" x2="261.5" y2="665.5"/>
	</g>
	<g id="_hypo_22-SAMEA5054092">
		<line class="st46" x1="154.8" y1="746.6" x2="156.9" y2="667.9"/>
	</g>
	<g id="_hypo_47-_hypo_48">
		<line class="st46" x1="598.6" y1="481.6" x2="547.6" y2="446.2"/>
	</g>
	<g id="_hypo_13-D71">
		<line class="st46" x1="140.1" y1="670.9" x2="154.6" y2="597.6"/>
	</g>
	<g id="_hypo_61-SAMEA5818805">
		<line class="st46" x1="619.8" y1="735.7" x2="612" y2="663.9"/>
	</g>
	<g id="_hypo_76-_hypo_82">
		<line class="st46" x1="980.9" y1="747.1" x2="1038.3" y2="747"/>
	</g>
	<g id="_hypo_55-SAMEA5818818">
		<line class="st46" x1="601.5" y1="472.2" x2="599" y2="401.4"/>
	</g>
	<g id="_hypo_17-SAMEA5054089">
		<line class="st46" x1="137.4" y1="605.1" x2="115.3" y2="538.7"/>
	</g>
	<g id="_hypo_88-SAMEA3713715">
		<line class="st46" x1="1262.4" y1="659.3" x2="1219.7" y2="605.5"/>
	</g>
	<g id="_hypo_24-SAMEA7293136">
		<line class="st46" x1="232.5" y1="746" x2="232.2" y2="677.5"/>
	</g>
	<g id="_hypo_61-_hypo_63">
		<line class="st46" x1="619.8" y1="735.7" x2="627.5" y2="684.6"/>
	</g>
	<g id="_hypo_19-SAMEA3937654">
		<line class="st46" x1="139.3" y1="572.9" x2="156.3" y2="510.7"/>
	</g>
	<g id="_hypo_19-SAMEA5054090">
		<line class="st46" x1="139.3" y1="572.9" x2="125.8" y2="510"/>
	</g>
	<g id="_hypo_34-_hypo_36">
		<line class="st46" x1="502.4" y1="747" x2="552" y2="747.1"/>
	</g>
	<g id="_hypo_77-SAMEA5818798">
		<line class="st46" x1="980.6" y1="715.2" x2="956.6" y2="657.1"/>
	</g>
	<g id="_hypo_0-SAMEA5818806">
		<line class="st46" x1="106.4" y1="745.9" x2="106.3" y2="685.3"/>
	</g>
	<g id="_hypo_52-SAMEA5818821">
		<line class="st46" x1="593.1" y1="467.4" x2="562" y2="417.4"/>
	</g>
	<g id="_hypo_36-_hypo_38">
		<line class="st46" x1="552" y1="747.1" x2="596.7" y2="747"/>
	</g>
	<g id="_hypo_11-SAMEA5818811">
		<line class="st46" x1="139.8" y1="711.3" x2="144.8" y2="652.7"/>
	</g>
	<g id="_hypo_8-SAMEA3937653">
		<line class="st46" x1="143.6" y1="701.7" x2="150.5" y2="643.4"/>
	</g>
	<g id="_hypo_32-_hypo_34">
		<line class="st46" x1="461.2" y1="746.9" x2="502.4" y2="747"/>
	</g>
	<g id="_hypo_11-_hypo_13">
		<line class="st46" x1="139.8" y1="711.3" x2="140.1" y2="670.9"/>
	</g>
	<g id="_hypo_79-SAMEA5818799">
		<line class="st46" x1="981.6" y1="704.6" x2="987.2" y2="651.8"/>
	</g>
	<g id="_hypo_74-SAMEA5818800">
		<line class="st46" x1="953.1" y1="746.9" x2="953.3" y2="695.3"/>
	</g>
	<g id="_hypo_63-_hypo_65">
		<line class="st46" x1="627.5" y1="684.6" x2="643.8" y2="651.7"/>
	</g>
	<g id="_hypo_71-SAMEA7313246_49">
		<line class="st46" x1="660" y1="742.3" x2="660.9" y2="692"/>
	</g>
	<g id="_hypo_57-SAMEA5818829">
		<line class="st46" x1="603.7" y1="467.3" x2="631.2" y2="425.3"/>
	</g>
	<g id="_hypo_15-_hypo_17">
		<line class="st46" x1="140.5" y1="640.5" x2="137.4" y2="605.1"/>
	</g>
	<g id="_hypo_52-SAMEA5818828">
		<line class="st46" x1="593.1" y1="467.4" x2="578.1" y2="420.2"/>
	</g>
	<g id="_hypo_17-_hypo_19">
		<line class="st46" x1="137.4" y1="605.1" x2="139.3" y2="572.9"/>
	</g>
	<g id="_hypo_76-_hypo_77">
		<line class="st46" x1="980.9" y1="747.1" x2="980.6" y2="715.2"/>
	</g>
	<g id="_hypo_57-SAMEA5818826">
		<line class="st46" x1="603.7" y1="467.3" x2="616.7" y2="423.6"/>
	</g>
	<g id="_hypo_13-_hypo_15">
		<line class="st46" x1="140.1" y1="670.9" x2="140.5" y2="640.5"/>
	</g>
	<g id="_hypo_88-_hypo_90">
		<line class="st46" x1="1262.4" y1="659.3" x2="1264.7" y2="630.1"/>
	</g>
	<g id="_hypo_7-_hypo_8">
		<line class="st46" x1="139.2" y1="730.6" x2="143.6" y2="701.7"/>
	</g>
	<g id="_hypo_24-_hypo_26">
		<line class="st46" x1="232.5" y1="746" x2="260.9" y2="746"/>
	</g>
	<g id="_hypo_71-SAMEA6637002">
		<line class="st46" x1="660" y1="742.3" x2="684.9" y2="707.8"/>
	</g>
	<g id="_hypo_74-_hypo_76">
		<line class="st46" x1="953.1" y1="746.9" x2="980.9" y2="747.1"/>
	</g>
	<g id="_hypo_41-_hypo_45">
		<line class="st46" x1="599.3" y1="509.9" x2="598.9" y2="483.4"/>
	</g>
	<g id="_hypo_48-SAMEA5818825">
		<line class="st46" x1="547.6" y1="446.2" x2="516.3" y2="420.5"/>
	</g>
	<g id="_hypo_90-SAMEA3713713">
		<line class="st46" x1="1264.7" y1="630.1" x2="1233.9" y2="605.6"/>
	</g>
	<g id="_hypo_0-_hypo_2">
		<line class="st46" x1="106.4" y1="745.9" x2="131.6" y2="745.6"/>
	</g>
	<g id="_hypo_60-_hypo_68">
		<line class="st46" x1="619.7" y1="747.1" x2="642.9" y2="747.6"/>
	</g>
	<g id="_hypo_38-_hypo_60">
		<line class="st46" x1="596.7" y1="747" x2="619.7" y2="747.1"/>
	</g>
	<g id="_hypo_92-SAMEA3713712">
		<line class="st46" x1="1265.5" y1="627.1" x2="1251.7" y2="593.5"/>
	</g>
	<g id="_hypo_79-SAMEA5818801">
		<line class="st46" x1="981.6" y1="704.6" x2="1005.1" y2="678.6"/>
	</g>
	<g id="_hypo_65-SAMEA6637004">
		<line class="st46" x1="643.8" y1="651.7" x2="669.8" y2="629"/>
	</g>
	<g id="_hypo_7-_hypo_11">
		<line class="st46" x1="139.2" y1="730.6" x2="139.8" y2="711.3"/>
	</g>
	<g id="_hypo_28-_hypo_30">
		<line class="st46" x1="368" y1="746.8" x2="384.8" y2="747"/>
	</g>
	<g id="_hypo_68-_hypo_70">
		<line class="st46" x1="642.9" y1="747.6" x2="659.1" y2="747.7"/>
	</g>
	<g id="_hypo_6-_hypo_22">
		<line class="st46" x1="138.8" y1="746" x2="154.8" y2="746.6"/>
	</g>
	<g id="_hypo_6-_hypo_7">
		<line class="st46" x1="138.8" y1="746" x2="139.2" y2="730.6"/>
	</g>
	<g id="_hypo_48-SAMEA5818830">
		<line class="st46" x1="547.6" y1="446.2" x2="539.5" y2="418.9"/>
	</g>
	<g id="_hypo_94-SAMEA3713711">
		<line class="st46" x1="1269.4" y1="619.7" x2="1273.6" y2="592.1"/>
	</g>
	<g id="_hypo_94-SAMEA3713714">
		<line class="st46" x1="1269.4" y1="619.7" x2="1289.9" y2="600.7"/>
	</g>
	<g id="_hypo_51-_hypo_52">
		<line class="st46" x1="598.7" y1="480" x2="593.1" y2="467.4"/>
	</g>
	<g id="_hypo_68-SAMEA6651390">
		<line class="st46" x1="642.9" y1="747.6" x2="642.6" y2="721.3"/>
	</g>
	<g id="_hypo_60-_hypo_61">
		<line class="st46" x1="619.7" y1="747.1" x2="619.8" y2="735.7"/>
	</g>
	<g id="_hypo_77-_hypo_79">
		<line class="st46" x1="980.6" y1="715.2" x2="981.6" y2="704.6"/>
	</g>
	<g id="_hypo_92-_hypo_94">
		<line class="st46" x1="1265.5" y1="627.1" x2="1269.4" y2="619.7"/>
	</g>
	<g id="_hypo_51-_hypo_55">
		<line class="st46" x1="598.7" y1="480" x2="601.5" y2="472.2"/>
	</g>
	<g id="_hypo_70-_hypo_71">
		<line class="st46" x1="659.1" y1="747.7" x2="660" y2="742.3"/>
	</g>
	<g id="_hypo_55-_hypo_57">
		<line class="st46" x1="601.5" y1="472.2" x2="603.7" y2="467.3"/>
	</g>
	<g id="_hypo_2-_hypo_4">
		<line class="st46" x1="131.6" y1="745.6" x2="135.5" y2="745.8"/>
	</g>
	<g id="_hypo_4-_hypo_6">
		<line class="st46" x1="135.5" y1="745.8" x2="138.8" y2="746"/>
	</g>
	<g id="_hypo_90-_hypo_92">
		<line class="st46" x1="1264.7" y1="630.1" x2="1265.5" y2="627.1"/>
	</g>
	<g id="_hypo_45-_hypo_47">
		<line class="st46" x1="598.9" y1="483.4" x2="598.6" y2="481.6"/>
	</g>
	<g id="_hypo_47-_hypo_51">
		<line class="st46" x1="598.6" y1="481.6" x2="598.7" y2="480"/>
	</g>
</g>
<g id="Tips">
	<g id="SAMEA5818806" transform="translate(1071.1273113153793,1174.551855980467)">
		<path class="st47" d="M-964.8-475.1c-7.8,0-14.1-6.3-14.1-14.1s6.3-14.1,14.1-14.1c0,0,0,0,0,0c7.8,0,14.1,6.3,14.1,14.1
			C-950.7-481.4-957-475.1-964.8-475.1C-964.8-475.1-964.8-475.1-964.8-475.1z"/>
		<text transform="matrix(1 0 0 1 -1019.0798 -485.8525)" class="st4 st48">Russia [1300:1400] LAI009</text>
	</g>
	<g id="D62" transform="translate(1112.7941789893268,1097.7364525059188)">
		<path class="st49" d="M-981.5-444.3c-7.8,0-14.1-6.3-14.1-14.1c0-7.8,6.3-14.1,14.1-14.1c0,0,0,0,0,0c7.8,0,14.1,6.3,14.1,14.1
			C-967.4-450.7-973.7-444.3-981.5-444.3C-981.5-444.3-981.5-444.3-981.5-444.3z"/>
		<text transform="matrix(1 0 0 1 -1037.1774 -455.0878)" class="st4 st48">Denmark [1100:1560] G25A</text>
	</g>
	<g id="SAMEA5054093" transform="translate(1122.0315552886602,1065.2280945731457)">
		<path class="st50" d="M-985.2-431.3c-7.8,0-14.1-6.3-14.1-14.1c0-7.8,6.3-14.1,14.1-14.1c0,0,0,0,0,0c7.8,0,14.1,6.3,14.1,14.1
			C-971.1-437.6-977.4-431.3-985.2-431.3C-985.2-431.3-985.2-431.3-985.2-431.3z"/>
		<text transform="matrix(1 0 0 1 -1044.2166 -442.0688)" class="st4 st48">France [1279:1389] SLC1006</text>
	</g>
	<g id="SAMEA3937653" transform="translate(1144.7879243561406,1104.6011645867145)">
		<path class="st51" d="M-994.3-447.1c-7.8,0-14.1-6.3-14.1-14.1c0-7.8,6.3-14.1,14.1-14.1c0,0,0,0,0,0c7.8,0,14.1,6.3,14.1,14.1
			C-980.2-453.4-986.5-447.1-994.3-447.1C-994.3-447.1-994.3-447.1-994.3-447.1z"/>
		<text transform="matrix(1 0 0 1 -1062.3362 -457.8373)" class="st4 st48">Spain [1300:1420] Barcelona3031</text>
	</g>
	<g id="SAMN00715800" transform="translate(1170.2574327769112,1037.837894144218)">
		<path class="st52" d="M-1004.5-420.3c-7.8,0-14.1-6.3-14.1-14.1c0-7.8,6.3-14.1,14.1-14.1c0,0,0,0,0,0c7.8,0,14.1,6.3,14.1,14.1
			C-990.4-426.7-996.7-420.3-1004.5-420.3C-1004.5-420.3-1004.5-420.3-1004.5-420.3z"/>
		<text transform="matrix(1 0 0 1 -1047.291 -431.0984)" class="st4 st48">England 1349.0 8291</text>
	</g>
	<g id="SAMEA5818811" transform="translate(1135.353557005109,1120.1680028289934)">
		<path class="st53" d="M-990.6-453.3c-7.8,0-14.1-6.3-14.1-14.1c0-7.8,6.3-14.1,14.1-14.1c0,0,0,0,0,0c7.8,0,14.1,6.3,14.1,14.1
			C-976.4-459.6-982.7-453.3-990.6-453.3C-990.6-453.3-990.6-453.3-990.6-453.3z"/>
		<text transform="matrix(1 0 0 1 -1052.0453 -464.0721)" class="st4 st48">Germany [1292:1392] NAB003</text>
	</g>
	<g id="D71" transform="translate(1151.762039892676,1028.2236169178277)">
		<path class="st54" d="M-997.1-416.5c-7.8,0-14.1-6.3-14.1-14.1c0-7.8,6.3-14.1,14.1-14.1c0,0,0,0,0,0c7.8,0,14.1,6.3,14.1,14.1
			C-983-422.8-989.3-416.5-997.1-416.5C-997.1-416.5-997.1-416.5-997.1-416.5z"/>
		<text transform="matrix(1 0 0 1 -1049.7849 -427.2479)" class="st4 st48">Denmark [1100:1560] G16</text>
	</g>
	<g id="R36" transform="translate(1174.3165905563312,933.9367549126698)">
		<path class="st55" d="M-1006.2-378.7c-7.8,0-14.1-6.3-14.1-14.1c0-7.8,6.3-14.1,14.1-14.1c0,0,0,0,0,0c7.8,0,14.1,6.3,14.1,14.1
			S-998.3-378.7-1006.2-378.7C-1006.2-378.7-1006.2-378.7-1006.2-378.7z"/>
		<text transform="matrix(1 0 0 1 -1069.066 -389.4864)" class="st4 st48">Denmark [1100:1560] G25Bx98</text>
	</g>
	<g id="SAMEA5054089" transform="translate(1086.2153042494135,930.0236051355043)">
		<path class="st55" d="M-970.9-377.2c-7.8,0-14.1-6.3-14.1-14.1c0-7.8,6.3-14.1,14.1-14.1c0,0,0,0,0,0c7.8,0,14.1,6.3,14.1,14.1
			C-956.7-383.5-963.1-377.2-970.9-377.2C-970.9-377.2-970.9-377.2-970.9-377.2z"/>
		<text transform="matrix(1 0 0 1 -1042.368 -387.9189)" class="st4 st48">The Netherlands [1300:1400] Ber37</text>
	</g>
	<g id="SAMEA3937654" transform="translate(1154.4987718348812,883.3600594455133)">
		<path class="st56" d="M-998.2-358.5c-7.8,0-14.1-6.3-14.1-14.1c0-7.8,6.3-14.1,14.1-14.1c0,0,0,0,0,0c7.8,0,14.1,6.3,14.1,14.1
			C-984.1-364.8-990.4-358.5-998.2-358.5C-998.2-358.5-998.2-358.5-998.2-358.5z"/>
		<text transform="matrix(1 0 0 1 -1068.963 -369.23)" class="st4 st48">Russia [1362:1400] BolgarCity2370</text>
	</g>
	<g id="SAMEA5054090" transform="translate(1103.682583382837,882.2038502211274)">
		<path class="st56" d="M-977.9-358c-7.8,0-14.1-6.3-14.1-14.1c0-7.8,6.3-14.1,14.1-14.1c0,0,0,0,0,0c7.8,0,14.1,6.3,14.1,14.1
			C-963.7-364.3-970.1-358-977.9-358C-977.9-358-977.9-358-977.9-358z"/>
		<text transform="matrix(1 0 0 1 -1049.3636 -368.7672)" class="st4 st48">The Netherlands [1300:1400] Ber45</text>
	</g>
	<g id="SAMEA5054092" transform="translate(1155.4744677656695,1145.5274012673478)">
		<path class="st53" d="M-998.6-463.5c-7.8,0-14.1-6.3-14.1-14.1c0-7.8,6.3-14.1,14.1-14.1c0,0,0,0,0,0c7.8,0,14.1,6.3,14.1,14.1
			C-984.5-469.8-990.8-463.5-998.6-463.5C-998.6-463.5-998.6-463.5-998.6-463.5z"/>
		<text transform="matrix(1 0 0 1 -1051.6057 -474.2283)" class="st4 st48">Norway [1270:1390] OSL1</text>
	</g>
	<g id="SAMEA7293136" transform="translate(1281.2233136258328,1161.5732968301727)">
		<path class="st57" d="M-1049-469.9c-7.8,0-14.1-6.3-14.1-14.1c0-7.8,6.3-14.1,14.1-14.1c0,0,0,0,0,0c7.8,0,14.1,6.3,14.1,14.1
			C-1034.8-476.2-1041.2-469.9-1049-469.9C-1049-469.9-1049-469.9-1049-469.9z"/>
		<text transform="matrix(1 0 0 1 -1100.2227 -480.6551)" class="st4 st48">Italy [1300:1400] COL001</text>
	</g>
	<g id="SAMEA5818809" transform="translate(1329.980933557272,1141.4358018521036)">
		<path class="st58" d="M-1068.5-461.8c-7.8,0-14.1-6.3-14.1-14.1c0-7.8,6.3-14.1,14.1-14.1c0,0,0,0,0,0c7.8,0,14.1,6.3,14.1,14.1
			C-1054.4-468.2-1060.7-461.8-1068.5-461.8C-1068.5-461.8-1068.5-461.8-1068.5-461.8z"/>
		<text transform="matrix(1 0 0 1 -1130.7401 -472.5899)" class="st4 st48">Germany [1283:1390] MAN008</text>
	</g>
	<g id="P387" transform="translate(1505.8706645268758,1011.7716909280018)">
		<path class="st59" d="M-1139-409.9c-7.8,0-14.1-6.3-14.1-14.1c0-7.8,6.3-14.1,14.1-14.1c0,0,0,0,0,0c7.8,0,14.1,6.3,14.1,14.1
			C-1124.8-416.2-1131.1-409.9-1139-409.9C-1138.9-409.9-1138.9-409.9-1139-409.9z"/>
		<text transform="matrix(1 0 0 1 -1208.1112 -420.6592)" class="st4 st48">Denmark [1100:1560] A1480x1480</text>
	</g>
	<g id="SAMEA5818817" transform="translate(1537.052114581787,1019.3862068965572)">
		<path class="st60" d="M-1151.4-412.9c-7.8,0-14.1-6.3-14.1-14.1c0-7.8,6.3-14.1,14.1-14.1c0,0,0,0,0,0c7.8,0,14.1,6.3,14.1,14.1
			C-1137.3-419.3-1143.6-412.9-1151.4-412.9C-1151.4-412.9-1151.4-412.9-1151.4-412.9z"/>
		<text transform="matrix(1 0 0 1 -1212.0916 -423.7093)" class="st4 st48">Germany [1420:1630] STA001</text>
	</g>
	<g id="P187" transform="translate(1664.0143019059067,1142.4986573833737)">
		<path class="st60" d="M-1202.3-462.3c-7.8,0-14.1-6.3-14.1-14.1c0-7.8,6.3-14.1,14.1-14.1c0,0,0,0,0,0c7.8,0,14.1,6.3,14.1,14.1
			C-1188.1-468.6-1194.5-462.3-1202.3-462.3C-1202.3-462.3-1202.3-462.3-1202.3-462.3z"/>
		<text transform="matrix(1 0 0 1 -1268.6133 -473.0151)" class="st4 st48">Denmark [1100:1560] A146x3011</text>
	</g>
	<g id="P212" transform="translate(1730.0729729331415,1092.7089447863234)">
		<path class="st61" d="M-1228.7-442.3c-7.8,0-14.1-6.3-14.1-14.1c0-7.8,6.3-14.1,14.1-14.1c0,0,0,0,0,0c7.8,0,14.1,6.3,14.1,14.1
			C-1214.6-448.6-1220.9-442.3-1228.7-442.3C-1228.7-442.3-1228.7-442.3-1228.7-442.3z"/>
		<text transform="matrix(1 0 0 1 -1283.8995 -453.075)" class="st4 st48">Denmark [1100:1560] G371</text>
	</g>
	<g id="SAMEA5818815" transform="translate(1815.8232915021063,1002.5539153786058)">
		<path class="st62" d="M-1263.1-406.2c-7.8,0-14.1-6.3-14.1-14.1c0-7.8,6.3-14.1,14.1-14.1c0,0,0,0,0,0c7.8,0,14.1,6.3,14.1,14.1
			C-1248.9-412.5-1255.3-406.2-1263.1-406.2C-1263.1-406.2-1263.1-406.2-1263.1-406.2z"/>
		<text transform="matrix(1 0 0 1 -1323.3314 -416.9678)" class="st4 st48">England [1475:1536] NMS002</text>
	</g>
	<g id="SAMEA5818808" transform="translate(1938.1899637554234,875.81047358213)">
		<path class="st63" d="M-1312.1-355.4c-7.8,0-14.1-6.3-14.1-14.1c0-7.8,6.3-14.1,14.1-14.1c0,0,0,0,0,0c7.8,0,14.1,6.3,14.1,14.1
			C-1297.9-361.8-1304.3-355.4-1312.1-355.4C-1312.1-355.4-1312.1-355.4-1312.1-355.4z"/>
		<text transform="matrix(1 0 0 1 -1373.3339 -366.2068)" class="st4 st48">Germany [1455:1632] LBG002</text>
	</g>
	<g id="D51" transform="translate(2073.3904822694626,601.8603110393753)">
		<path class="st64" d="M-1366.2-245.7c-7.8,0-14.1-6.3-14.1-14.1c0-7.8,6.3-14.1,14.1-14.1c0,0,0,0,0,0c7.8,0,14.1,6.3,14.1,14.1
			C-1352.1-252.1-1358.4-245.7-1366.2-245.7C-1366.2-245.7-1366.2-245.7-1366.2-245.7z"/>
		<text transform="matrix(1 0 0 1 -1427.1398 -256.4895)" class="st4 st48">Denmark [1100:1560] GrGC15</text>
	</g>
	<g id="SAMEA5818803" transform="translate(2254.4147647016007,510.9986197836412)">
		<path class="st65" d="M-1438.7-209.3c-7.8,0-14.1-6.3-14.1-14.1c0-7.8,6.3-14.1,14.1-14.1c0,0,0,0,0,0c7.8,0,14.1,6.3,14.1,14.1
			S-1430.9-209.3-1438.7-209.3C-1438.7-209.3-1438.7-209.3-1438.7-209.3z"/>
		<text transform="matrix(1 0 0 1 -1500.2306 -220.099)" class="st4 st48">Germany [1618:1648] BRA001</text>
	</g>
	<g id="SAMEA5818822" transform="translate(1744.9885497695582,758.8029122069088)">
		<path class="st66" d="M-1234.7-308.6c-7.8,0-14.1-6.3-14.1-14.1c0-7.8,6.3-14.1,14.1-14.1c0,0,0,0,0,0c7.8,0,14.1,6.3,14.1,14.1
			C-1220.6-314.9-1226.9-308.6-1234.7-308.6C-1234.7-308.6-1234.7-308.6-1234.7-308.6z"/>
		<text transform="matrix(1 0 0 1 -1300.7028 -319.3447)" class="st4 st48">Switzerland [1485:1635] STN008</text>
	</g>
	<g id="SAMEA5818825" transform="translate(1755.1257837356318,732.9066700533253)">
		<path class="st67" d="M-1238.8-298.2c-7.8,0-14.1-6.3-14.1-14.1c0-7.8,6.3-14.1,14.1-14.1c0,0,0,0,0,0c7.8,0,14.1,6.3,14.1,14.1
			C-1224.6-304.5-1231-298.2-1238.8-298.2C-1238.8-298.2-1238.8-298.2-1238.8-298.2z"/>
		<text transform="matrix(1 0 0 1 -1304.7638 -308.9739)" class="st4 st48">Switzerland [1485:1635] STN013</text>
	</g>
	<g id="SAMEA5818830" transform="translate(1793.8148441502667,730.1591872622396)">
		<path class="st68" d="M-1254.3-297.1c-7.8,0-14.1-6.3-14.1-14.1c0-7.8,6.3-14.1,14.1-14.1c0,0,0,0,0,0c7.8,0,14.1,6.3,14.1,14.1
			C-1240.1-303.4-1246.5-297.1-1254.3-297.1C-1254.3-297.1-1254.3-297.1-1254.3-297.1z"/>
		<text transform="matrix(1 0 0 1 -1320.2585 -307.8729)" class="st4 st48">Switzerland [1485:1635] STN021</text>
	</g>
	<g id="SAMEA5818821" transform="translate(1831.246091145951,727.6840435170714)">
		<path class="st69" d="M-1269.3-296.1c-7.8,0-14.1-6.3-14.1-14.1c0-7.8,6.3-14.1,14.1-14.1c0,0,0,0,0,0c7.8,0,14.1,6.3,14.1,14.1
			C-1255.1-302.5-1261.4-296.1-1269.3-296.1C-1269.3-296.1-1269.3-296.1-1269.3-296.1z"/>
		<text transform="matrix(1 0 0 1 -1335.2494 -306.8821)" class="st4 st48">Switzerland [1485:1635] STN007</text>
	</g>
	<g id="SAMEA5818828" transform="translate(1858.0845162494934,732.3655238836122)">
		<path class="st70" d="M-1280-298c-7.8,0-14.1-6.3-14.1-14.1c0-7.8,6.3-14.1,14.1-14.1c0,0,0,0,0,0c7.8,0,14.1,6.3,14.1,14.1
			C-1265.9-304.3-1272.2-298-1280-298C-1280-298-1280-298-1280-298z"/>
		<text transform="matrix(1 0 0 1 -1345.9979 -308.757)" class="st4 st48">Switzerland [1485:1635] STN019</text>
	</g>
	<g id="SAMEA5818818" transform="translate(1892.9920088489746,700.9407382590323)">
		<path class="st71" d="M-1294-285.4c-7.8,0-14.1-6.3-14.1-14.1c0-7.8,6.3-14.1,14.1-14.1c0,0,0,0,0,0c7.8,0,14.1,6.3,14.1,14.1
			C-1279.8-291.7-1286.2-285.4-1294-285.4C-1294-285.4-1294-285.4-1294-285.4z"/>
		<text transform="matrix(1 0 0 1 -1359.9788 -296.171)" class="st4 st48">Switzerland [1485:1635] STN002</text>
	</g>
	<g id="SAMEA5818826" transform="translate(1922.500632684409,738.0625748776326)">
		<path class="st72" d="M-1305.8-300.3c-7.8,0-14.1-6.3-14.1-14.1c0-7.8,6.3-14.1,14.1-14.1c0,0,0,0,0,0c7.8,0,14.1,6.3,14.1,14.1
			C-1291.7-306.6-1298-300.3-1305.8-300.3C-1305.8-300.3-1305.8-300.3-1305.8-300.3z"/>
		<text transform="matrix(1 0 0 1 -1371.7969 -311.038)" class="st4 st48">Switzerland [1485:1635] STN014</text>
	</g>
	<g id="SAMEA5818829" transform="translate(1946.725406492309,740.8490076175797)">
		<path class="st70" d="M-1315.5-301.4c-7.8,0-14.1-6.3-14.1-14.1c0-7.8,6.3-14.1,14.1-14.1c0,0,0,0,0,0c7.8,0,14.1,6.3,14.1,14.1
			C-1301.4-307.7-1307.7-301.4-1315.5-301.4C-1315.5-301.4-1315.5-301.4-1315.5-301.4z"/>
		<text transform="matrix(1 0 0 1 -1381.4993 -312.1545)" class="st4 st48">Switzerland [1485:1635] STN020</text>
	</g>
	<g id="SAMEA5818805" transform="translate(1914.6478708045192,1138.910710031401)">
		<path class="st73" d="M-1302.7-460.8c-7.8,0-14.1-6.3-14.1-14.1c0-7.8,6.3-14.1,14.1-14.1c0,0,0,0,0,0c7.8,0,14.1,6.3,14.1,14.1
			C-1288.5-467.2-1294.8-460.8-1302.7-460.8C-1302.7-460.8-1302.7-460.8-1302.7-460.8z"/>
		<text transform="matrix(1 0 0 1 -1364.3181 -471.5786)" class="st4 st48">Germany [1485:1627] ELW098</text>
	</g>
	<g id="D72" transform="translate(1962.169976820216,1003.4487044142245)">
		<path class="st74" d="M-1321.7-406.6c-7.8,0-14.1-6.3-14.1-14.1c0-7.8,6.3-14.1,14.1-14.1c0,0,0,0,0,0c7.8,0,14.1,6.3,14.1,14.1
			C-1307.5-412.9-1313.9-406.6-1321.7-406.6C-1321.7-406.6-1321.7-406.6-1321.7-406.6z"/>
		<text transform="matrix(1 0 0 1 -1376.8549 -417.3255)" class="st4 st48">Denmark [1100:1560] G207</text>
	</g>
	<g id="D75" transform="translate(2006.3824690837312,950.5725539312646)">
		<path class="st75" d="M-1339.4-385.4c-7.8,0-14.1-6.3-14.1-14.1c0-7.8,6.3-14.1,14.1-14.1c0,0,0,0,0,0c7.8,0,14.1,6.3,14.1,14.1
			C-1325.3-391.7-1331.6-385.4-1339.4-385.4C-1339.4-385.4-1339.4-385.4-1339.4-385.4z"/>
		<text transform="matrix(1 0 0 1 -1406.8115 -396.1486)" class="st4 st48">Denmark [1100:1560] G861x1035</text>
	</g>
	<g id="SAMEA6637004" transform="translate(2011.04416571783,1080.6164022817893)">
		<path class="st76" d="M-1341.3-437.5c-7.8,0-14.1-6.3-14.1-14.1c0-7.8,6.3-14.1,14.1-14.1c0,0,0,0,0,0c7.8,0,14.1,6.3,14.1,14.1
			C-1327.1-443.8-1333.5-437.5-1341.3-437.5C-1341.3-437.5-1341.3-437.5-1341.3-437.5z"/>
		<text transform="matrix(1 0 0 1 -1402.7711 -448.2315)" class="st4 st48">Lithuania [1441:1612] AGU025</text>
	</g>
	<g id="SAMEA6651390" transform="translate(1965.6629221317855,1234.5892351441548)">
		<path class="st77" d="M-1323.1-499.1c-7.8,0-14.1-6.3-14.1-14.1s6.3-14.1,14.1-14.1c0,0,0,0,0,0c7.8,0,14.1,6.3,14.1,14.1
			C-1308.9-505.5-1315.3-499.1-1323.1-499.1C-1323.1-499.1-1323.1-499.1-1323.1-499.1z"/>
		<text transform="matrix(1 0 0 1 -1384.5959 -509.8976)" class="st4 st48">Lithuania [1435:1477] AGU010</text>
	</g>
	<g id="SAMEA6637002" transform="translate(2036.232531706314,1212.133907483035)">
		<path class="st78" d="M-1351.4-490.1c-7.8,0-14.1-6.3-14.1-14.1c0-7.8,6.3-14.1,14.1-14.1c0,0,0,0,0,0c7.8,0,14.1,6.3,14.1,14.1
			C-1337.2-496.5-1343.5-490.1-1351.4-490.1C-1351.4-490.1-1351.4-490.1-1351.4-490.1z"/>
		<text transform="matrix(1 0 0 1 -1415.8579 -500.9042)" class="st4 st48">Lithuania [1463:1632] AGU007B</text>
	</g>
	<g id="SAMEA7313246_49" transform="translate(1996.2274065151344,1185.635834676596)">
		<path class="st79" d="M-1335.3-479.5c-7.8,0-14.1-6.3-14.1-14.1c0-7.8,6.3-14.1,14.1-14.1c0,0,0,0,0,0c7.8,0,14.1,6.3,14.1,14.1
			C-1321.2-485.9-1327.5-479.5-1335.3-479.5C-1335.3-479.5-1335.3-479.5-1335.3-479.5z"/>
		<text transform="matrix(1 0 0 1 -1393.5862 -490.2919)" class="st4 st48">Poland [1400:1700] Gdansk8</text>
	</g>
	<g id="SAMEA5818800" transform="translate(2483.9233253657544,1191.2717896706583)">
		<path class="st80" d="M-1530.7-481.8c-7.8,0-14.1-6.3-14.1-14.1c0-7.8,6.3-14.1,14.1-14.1c0,0,0,0,0,0c7.8,0,14.1,6.3,14.1,14.1
			C-1516.5-488.1-1522.8-481.8-1530.7-481.8C-1530.7-481.8-1530.7-481.8-1530.7-481.8z"/>
		<text transform="matrix(1 0 0 1 -1590.1591 -492.549)" class="st4 st48">England [1560:1635] BED030</text>
	</g>
	<g id="SAMEA5818798" transform="translate(2489.556210695111,1127.573446362668)">
		<path class="st81" d="M-1532.9-456.3c-7.8,0-14.1-6.3-14.1-14.1c0-7.8,6.3-14.1,14.1-14.1c0,0,0,0,0,0c7.8,0,14.1,6.3,14.1,14.1
			C-1518.8-462.6-1525.1-456.3-1532.9-456.3C-1532.9-456.3-1532.9-456.3-1532.9-456.3z"/>
		<text transform="matrix(1 0 0 1 -1592.4149 -467.0381)" class="st4 st48">England [1560:1635] BED024</text>
	</g>
	<g id="SAMEA5818799" transform="translate(2540.603251219679,1118.7092840189202)">
		<path class="st82" d="M-1553.4-452.7c-7.8,0-14.1-6.3-14.1-14.1c0-7.8,6.3-14.1,14.1-14.1c0,0,0,0,0,0c7.8,0,14.1,6.3,14.1,14.1
			C-1539.2-459.1-1545.5-452.7-1553.4-452.7C-1553.4-452.7-1553.4-452.7-1553.4-452.7z"/>
	</g>
	<g id="SAMEA5818801" transform="translate(2570.4613757737857,1163.392220892772)">
		<path class="st83" d="M-1565.3-470.6c-7.8,0-14.1-6.3-14.1-14.1c0-7.8,6.3-14.1,14.1-14.1c0,0,0,0,0,0c7.8,0,14.1,6.3,14.1,14.1
			C-1551.2-477-1557.5-470.6-1565.3-470.6C-1565.3-470.6-1565.3-470.6-1565.3-470.6z"/>
	</g>
	<g id="SAMEA7313243_45" transform="translate(2625.4720284556665,1128.2958254818718)">
		<path class="st84" d="M-1587.4-456.6c-7.8,0-14.1-6.3-14.1-14.1c0-7.8,6.3-14.1,14.1-14.1c0,0,0,0,0,0c7.8,0,14.1,6.3,14.1,14.1
			C-1573.2-462.9-1579.5-456.6-1587.4-456.6C-1587.3-456.6-1587.4-456.6-1587.4-456.6z"/>
	</g>
	<g id="SAMEA7293135" transform="translate(3657.9044151099883,1280.2862336628837)">
		<path class="st85" d="M-2000.8-517.4c-7.8,0-14.1-6.3-14.1-14.1c0-7.8,6.3-14.1,14.1-14.1c0,0,0,0,0,0c7.8,0,14.1,6.3,14.1,14.1
			C-1986.7-523.8-1993-517.4-2000.8-517.4C-2000.8-517.4-2000.8-517.4-2000.8-517.4z"/>
	</g>
	<g id="SAMEA7313236_38" transform="translate(3136.5860318703103,914.1531848049501)">
		<path class="st86" d="M-1792.1-370.8c-7.8,0-14.1-6.3-14.1-14.1c0-7.8,6.3-14.1,14.1-14.1c0,0,0,0,0,0c7.8,0,14.1,6.3,14.1,14.1
			C-1777.9-377.1-1784.2-370.8-1792.1-370.8C-1792.1-370.8-1792.1-370.8-1792.1-370.8z"/>
	</g>
	<g id="SAMEA3713715" transform="translate(2928.3019448927234,1041.4630422488103)">
		<path class="st87" d="M-1708.6-421.8c-7.8,0-14.1-6.3-14.1-14.1c0-7.8,6.3-14.1,14.1-14.1c0,0,0,0,0,0c7.8,0,14.1,6.3,14.1,14.1
			C-1694.5-428.1-1700.8-421.8-1708.6-421.8C-1708.6-421.8-1708.6-421.8-1708.6-421.8z"/>
	</g>
	<g id="SAMEA3713713" transform="translate(2951.9830294875974,1041.5630724737143)">
		<path class="st87" d="M-1718.1-421.8c-7.8,0-14.1-6.3-14.1-14.1c0-7.8,6.3-14.1,14.1-14.1c0,0,0,0,0,0c7.8,0,14.1,6.3,14.1,14.1
			C-1704-428.2-1710.3-421.8-1718.1-421.8C-1718.1-421.8-1718.1-421.8-1718.1-421.8z"/>
	</g>
	<g id="SAMEA3713712" transform="translate(2981.7350853411745,1021.4708978381675)">
		<path class="st87" d="M-1730-413.8c-7.8,0-14.1-6.3-14.1-14.1c0-7.8,6.3-14.1,14.1-14.1c0,0,0,0,0,0c7.8,0,14.1,6.3,14.1,14.1
			C-1715.9-420.1-1722.2-413.8-1730-413.8C-1730-413.8-1730-413.8-1730-413.8z"/>
	</g>
	<g id="SAMEA3713711" transform="translate(3018.2678966473945,1019.0418363286169)">
		<path class="st87" d="M-1744.7-412.8c-7.8,0-14.1-6.3-14.1-14.1c0-7.8,6.3-14.1,14.1-14.1c0,0,0,0,0,0c7.8,0,14.1,6.3,14.1,14.1
			C-1730.5-419.1-1736.9-412.8-1744.7-412.8C-1744.7-412.8-1744.7-412.8-1744.7-412.8z"/>
	</g>
	<g id="SAMEA3713714" transform="translate(3045.414986443358,1033.3678145656083)">
		<path class="st87" d="M-1755.5-418.5c-7.8,0-14.1-6.3-14.1-14.1c0-7.8,6.3-14.1,14.1-14.1c0,0,0,0,0,0c7.8,0,14.1,6.3,14.1,14.1
			C-1741.4-424.9-1747.7-418.5-1755.5-418.5C-1755.5-418.5-1755.5-418.5-1755.5-418.5z"/>
	</g>
</g>
<g id="Labels" class="st1">
	<text transform="matrix(1 0 0 1 1242.6354 604.0598)" class="st2 st4 st48">France 1721.0 OBS124</text>
	<text transform="matrix(1 0 0 1 1226.36 595.4709)" class="st2 st4 st48">France 1721.0 OBS107</text>
	<text transform="matrix(1 0 0 1 1204.7916 596.9269)" class="st2 st4 st48">France 1721.0 OBS110</text>
	<text transform="matrix(1 0 0 1 1186.9557 608.9719)" class="st2 st4 st48">France 1721.0 OBS116</text>
	<text transform="matrix(1 0 0 1 1172.4254 608.9123)" class="st2 st4 st48">France 1721.0 OBS137</text>
	<text transform="matrix(1 0 0 1 1280.5426 532.59)" class="st2 st4 st48">Russia [1762:1773] Rostov2033</text>
	<text transform="matrix(1 0 0 1 1605.0748 752.0871)" class="st2 st4 st48">Russia [1500:1800] CHE1</text>
	<text transform="matrix(1 0 0 1 983.3776 660.9689)" class="st2 st4 st48">Russia [1400:1700] Azov38</text>
	<text transform="matrix(1 0 0 1 945.6432 682.009)" class="st2 st4 st48">England [1560:1635] BED034</text>
	<text transform="matrix(1 0 0 1 927.7429 655.2219)" class="st2 st4 st48">England [1560:1635] BED028</text>
</g>
<g id="Nodes">
	<g id="_hypo_51" transform="translate(1892.5367529258365,832.0377745161329)">
		<circle cx="-1293.8" cy="-352.1" r="0.6"/>
		<path class="st88" d="M-1293.8-352.1L-1293.8-352.1L-1293.8-352.1z"/>
	</g>
	<g id="_hypo_52" transform="translate(1883.2175603522876,811.1127942415768)">
		<circle cx="-1290.1" cy="-343.7" r="0.6"/>
		<path class="st88" d="M-1290.1-343.7L-1290.1-343.7L-1290.1-343.7z"/>
	</g>
	<g id="_hypo_55" transform="translate(1897.0962324039597,819.0623634338177)">
		<circle cx="-1295.6" cy="-346.9" r="0.6"/>
		<path class="st88" d="M-1295.6-346.9L-1295.6-346.9L-1295.6-346.9z"/>
	</g>
	<g id="_hypo_57" transform="translate(1900.8168567946655,810.848910304036)">
		<circle cx="-1297.1" cy="-343.6" r="0.6"/>
		<path class="st88" d="M-1297.1-343.6L-1297.1-343.6L-1297.1-343.6z"/>
	</g>
	<g id="_hypo_60" transform="translate(1927.5145044657147,1277.6644052133402)">
		<circle cx="-1307.8" cy="-530.5" r="0.6"/>
		<path class="st88" d="M-1307.8-530.5L-1307.8-530.5L-1307.8-530.5z"/>
	</g>
	<g id="_hypo_61" transform="translate(1927.684332074974,1258.5417378209108)">
		<circle cx="-1307.9" cy="-522.9" r="0.6"/>
		<path class="st88" d="M-1307.9-522.9L-1307.9-522.9L-1307.9-522.9z"/>
	</g>
	<g id="_hypo_63" transform="translate(1940.492333013248,1173.321322771146)">
		<circle cx="-1313" cy="-488.7" r="0.6"/>
		<path class="st88" d="M-1313-488.7L-1313-488.7L-1313-488.7z"/>
	</g>
	<g id="_hypo_65" transform="translate(1967.6866286370891,1118.4922178714485)">
		<circle cx="-1323.9" cy="-466.8" r="0.6"/>
		<path class="st88" d="M-1323.9-466.8L-1323.9-466.8L-1323.9-466.8z"/>
	</g>
	<g id="_hypo_68" transform="translate(1966.156026577013,1278.4721962551894)">
		<circle cx="-1323.3" cy="-530.9" r="0.6"/>
		<path class="st88" d="M-1323.3-530.9L-1323.3-530.9L-1323.3-530.9z"/>
	</g>
	<g id="_hypo_70" transform="translate(1993.1870457929085,1278.5824730116728)">
		<circle cx="-1334.1" cy="-530.9" r="0.6"/>
		<path class="st88" d="M-1334.1-530.9L-1334.1-530.9L-1334.1-530.9z"/>
	</g>
	<g id="_hypo_71" transform="translate(1994.7599432592208,1269.5939236627883)">
		<circle cx="-1334.8" cy="-527.3" r="0.6"/>
		<path class="st88" d="M-1334.8-527.3L-1334.8-527.3L-1334.8-527.3z"/>
	</g>
	<g id="_hypo_74" transform="translate(2483.6489468635245,1277.3513707224001)">
		<circle cx="-1530.6" cy="-530.4" r="0.6"/>
		<path class="st88" d="M-1530.6-530.4L-1530.6-530.4L-1530.6-530.4z"/>
	</g>
	<g id="_hypo_76" transform="translate(2530.1042905955783,1277.6321096128615)">
		<circle cx="-1549.2" cy="-530.5" r="0.6"/>
		<path class="st88" d="M-1549.2-530.5L-1549.2-530.5L-1549.2-530.5z"/>
	</g>
	<g id="_hypo_77" transform="translate(2529.5254960609445,1224.3513557993115)">
		<circle cx="-1548.9" cy="-509.2" r="0.6"/>
		<path class="st88" d="M-1548.9-509.2L-1548.9-509.2L-1548.9-509.2z"/>
	</g>
	<g id="_hypo_79" transform="translate(2531.130917408637,1206.702049930723)">
		<circle cx="-1549.6" cy="-502.1" r="0.6"/>
		<path class="st88" d="M-1549.6-502.1L-1549.6-502.1L-1549.6-502.1z"/>
	</g>
	<g id="_hypo_82" transform="translate(2625.775451867421,1277.3993804745633)">
		<circle cx="-1587.5" cy="-530.4" r="0.6"/>
		<path class="st88" d="M-1587.5-530.4L-1587.5-530.4L-1587.5-530.4z"/>
	</g>
	<g id="_hypo_84" transform="translate(3001.4249127642333,1277.52964835209)">
		<circle cx="-1737.9" cy="-530.5" r="0.6"/>
		<path class="st88" d="M-1737.9-530.5L-1737.9-530.5L-1737.9-530.5z"/>
	</g>
	<g id="_hypo_85" transform="translate(3134.304966637409,1279.5262605004234)">
		<circle cx="-1791.1" cy="-531.3" r="0.6"/>
		<path class="st88" d="M-1791.1-531.3L-1791.1-531.3L-1791.1-531.3z"/>
	</g>
	<g id="_hypo_88" transform="translate(2999.6004253817355,1131.1343647140038)">
		<circle cx="-1737.2" cy="-471.9" r="0.6"/>
		<path class="st88" d="M-1737.2-471.9L-1737.2-471.9L-1737.2-471.9z"/>
	</g>
	<g id="_hypo_90" transform="translate(3003.4265865107473,1082.4114308968924)">
		<circle cx="-1738.7" cy="-452.3" r="0.6"/>
		<path class="st88" d="M-1738.7-452.3L-1738.7-452.3L-1738.7-452.3z"/>
	</g>
	<g id="_hypo_92" transform="translate(3004.794640858402,1077.4573064153515)" class="st1">
		<circle class="st2" cx="-1739.3" cy="-450.4" r="0.6"/>
		<path class="st89" d="M-1739.3-450.4L-1739.3-450.4L-1739.3-450.4z"/>
	</g>
	<g id="_hypo_94" transform="translate(3011.2908434054325,1065.1472923304736)" class="st1">
		<circle class="st2" cx="-1741.9" cy="-445.4" r="0.6"/>
		<path class="st89" d="M-1741.9-445.4L-1741.9-445.4L-1741.9-445.4z"/>
	</g>
	<g id="_hypo_0" transform="translate(1071.3066059852213,1275.6372472868936)">
		<circle cx="-964.9" cy="-529.7" r="0.6"/>
		<path class="st88" d="M-964.9-529.7L-964.9-529.7L-964.9-529.7z"/>
	</g>
	<g id="_hypo_2" transform="translate(1113.3365869427953,1275.0959841545898)">
		<circle cx="-981.7" cy="-529.5" r="0.6"/>
		<path class="st88" d="M-981.7-529.5L-981.7-529.5L-981.7-529.5z"/>
	</g>
	<g id="_hypo_4" transform="translate(1119.8804832292687,1275.3669219996466)">
		<circle cx="-984.4" cy="-529.6" r="0.6"/>
		<path class="st88" d="M-984.4-529.6L-984.4-529.6L-984.4-529.6z"/>
	</g>
	<g id="_hypo_6" transform="translate(1125.3606572762114,1275.8405465302985)">
		<circle cx="-986.6" cy="-529.8" r="0.6"/>
		<path class="st88" d="M-986.6-529.8L-986.6-529.8L-986.6-529.8z"/>
	</g>
	<g id="_hypo_7" transform="translate(1126.013642254169,1250.133239062465)">
		<circle cx="-986.8" cy="-519.5" r="0.6"/>
		<path class="st88" d="M-986.8-519.5L-986.8-519.5L-986.8-519.5z"/>
	</g>
	<g id="_hypo_8" transform="translate(1133.390462407791,1201.8396052690468)">
		<circle cx="-989.8" cy="-500.2" r="0.6"/>
		<path class="st88" d="M-989.8-500.2L-989.8-500.2L-989.8-500.2z"/>
	</g>
	<g id="_hypo_11" transform="translate(1127.0370509130369,1217.8215498045254)">
		<circle cx="-987.2" cy="-506.6" r="0.6"/>
		<path class="st88" d="M-987.2-506.6L-987.2-506.6L-987.2-506.6z"/>
	</g>
	<g id="_hypo_13" transform="translate(1127.5890896165108,1150.5640873857537)">
		<circle cx="-987.4" cy="-479.6" r="0.6"/>
		<path class="st88" d="M-987.4-479.6L-987.4-479.6L-987.4-479.6z"/>
	</g>
	<g id="_hypo_15" transform="translate(1128.1167799993475,1099.7935298736163)">
		<circle cx="-987.7" cy="-459.3" r="0.6"/>
		<path class="st88" d="M-987.7-459.3L-987.7-459.3L-987.7-459.3z"/>
	</g>
	<g id="_hypo_17" transform="translate(1122.9553384487153,1040.715501591591)">
		<circle cx="-985.6" cy="-435.6" r="0.6"/>
		<path class="st88" d="M-985.6-435.6L-985.6-435.6L-985.6-435.6z"/>
	</g>
	<g id="_hypo_19" transform="translate(1126.2613644166247,986.9900620979681)">
		<circle cx="-986.9" cy="-414.1" r="0.6"/>
		<path class="st88" d="M-986.9-414.1L-986.9-414.1L-986.9-414.1z"/>
	</g>
	<g id="_hypo_22" transform="translate(1151.9942889512972,1276.7258027411076)">
		<circle cx="-997.2" cy="-530.2" r="0.6"/>
		<path class="st88" d="M-997.2-530.2L-997.2-530.2L-997.2-530.2z"/>
	</g>
	<g id="_hypo_24" transform="translate(1281.6958182809349,1275.7610508332943)">
		<circle cx="-1049.2" cy="-529.8" r="0.6"/>
		<path class="st88" d="M-1049.2-529.8L-1049.2-529.8L-1049.2-529.8z"/>
	</g>
	<g id="_hypo_26" transform="translate(1328.9971887151976,1275.7152347677993)">
		<circle cx="-1068.1" cy="-529.8" r="0.6"/>
		<path class="st88" d="M-1068.1-529.8L-1068.1-529.8L-1068.1-529.8z"/>
	</g>
	<g id="_hypo_28" transform="translate(1507.6668945536048,1277.1186033458657)">
		<circle cx="-1139.7" cy="-530.3" r="0.6"/>
		<path class="st88" d="M-1139.7-530.3L-1139.7-530.3L-1139.7-530.3z"/>
	</g>
	<g id="_hypo_30" transform="translate(1535.736474084913,1277.372001423147)">
		<circle cx="-1150.9" cy="-530.4" r="0.6"/>
		<path class="st88" d="M-1150.9-530.4L-1150.9-530.4L-1150.9-530.4z"/>
	</g>
	<g id="_hypo_32" transform="translate(1663.0514269682046,1277.3397030039316)">
		<circle cx="-1201.9" cy="-530.4" r="0.6"/>
		<path class="st88" d="M-1201.9-530.4L-1201.9-530.4L-1201.9-530.4z"/>
	</g>
	<g id="_hypo_34" transform="translate(1731.8158546195557,1277.4447370901125)">
		<circle cx="-1229.4" cy="-530.4" r="0.6"/>
		<path class="st88" d="M-1229.4-530.4L-1229.4-530.4L-1229.4-530.4z"/>
	</g>
	<g id="_hypo_36" transform="translate(1814.5162170489702,1277.6874950591339)">
		<circle cx="-1262.6" cy="-530.5" r="0.6"/>
		<path class="st88" d="M-1262.6-530.5L-1262.6-530.5L-1262.6-530.5z"/>
	</g>
	<g id="_hypo_38" transform="translate(1889.1793863879702,1277.5043226295902)">
		<circle cx="-1292.5" cy="-530.5" r="0.6"/>
		<path class="st88" d="M-1292.5-530.5L-1292.5-530.5L-1292.5-530.5z"/>
	</g>
	<g id="_hypo_39" transform="translate(1890.2537526959072,1031.5459560116592)">
		<circle cx="-1292.9" cy="-432" r="0.6"/>
		<path class="st88" d="M-1292.9-432L-1292.9-432L-1292.9-432z"/>
	</g>
	<g id="_hypo_41" transform="translate(1893.4782808826208,881.900180191741)">
		<circle cx="-1294.2" cy="-372" r="0.6"/>
		<path class="st88" d="M-1294.2-372L-1294.2-372L-1294.2-372z"/>
	</g>
	<g id="_hypo_42" transform="translate(1975.724539054703,764.0947100353301)">
		<circle cx="-1327.1" cy="-324.9" r="0.6"/>
		<path class="st88" d="M-1327.1-324.9L-1327.1-324.9L-1327.1-324.9z"/>
	</g>
	<g id="_hypo_45" transform="translate(1892.8281738540081,837.7550618724408)">
		<circle cx="-1293.9" cy="-354.4" r="0.6"/>
		<path class="st88" d="M-1293.9-354.4L-1293.9-354.4L-1293.9-354.4z"/>
	</g>
	<g id="_hypo_47" transform="translate(1892.3700877442739,834.7331743274326)">
		<circle cx="-1293.7" cy="-353.1" r="0.6"/>
		<path class="st88" d="M-1293.7-353.1L-1293.7-353.1L-1293.7-353.1z"/>
	</g>
	<g id="_hypo_48" transform="translate(1807.1881063717522,775.7705782867774)">
		<circle cx="-1259.6" cy="-329.5" r="0.6"/>
		<path class="st88" d="M-1259.6-329.5L-1259.6-329.5L-1259.6-329.5z"/>
	</g>
</g>
<g id="Dates">
	<line class="st90" x1="1642.9" y1="858.7" x2="118.1" y2="858.7"/>
	<line class="st90" x1="119" y1="876.7" x2="119" y2="840.7"/>
	<line class="st90" x1="1642.9" y1="873.1" x2="1642.9" y2="837.1"/>
	<text transform="matrix(1 0 0 1 1618.0444 897.8698)" class="st45 st91">1800</text>
	<text transform="matrix(1 0 0 1 96.4808 897.0909)" class="st45 st91">1300</text>
	<line class="st90" x1="423.8" y1="876.7" x2="423.8" y2="840.7"/>
	<line class="st90" x1="728.6" y1="875.8" x2="728.6" y2="839.8"/>
	<line class="st90" x1="1033.3" y1="875.8" x2="1033.3" y2="839.8"/>
	<line class="st90" x1="1338.1" y1="876.7" x2="1338.1" y2="840.7"/>
	<text transform="matrix(1 0 0 1 401.7221 896.8308)" class="st45 st91">1400</text>
	<text transform="matrix(1 0 0 1 705.2104 897.0905)" class="st45 st91">1500</text>
	<text transform="matrix(1 0 0 1 1012.3279 897.3499)" class="st45 st91">1600</text>
	<text transform="matrix(1 0 0 1 1315.5492 897.6096)" class="st45 st91">1700</text>
</g>
</svg>
