<?xml version="1.0" encoding="utf-8" standalone="no"?>
<!DOCTYPE svg PUBLIC "-//W3C//DTD SVG 1.1//EN"
  "http://www.w3.org/Graphics/SVG/1.1/DTD/svg11.dtd">
<!-- Created with matplotlib (https://matplotlib.org/) -->
<svg height="496.762969pt" version="1.1" viewBox="0 0 280.23 496.762969" width="280.23pt" xmlns="http://www.w3.org/2000/svg" xmlns:xlink="http://www.w3.org/1999/xlink">
 <metadata>
  <rdf:RDF xmlns:cc="http://creativecommons.org/ns#" xmlns:dc="http://purl.org/dc/elements/1.1/" xmlns:rdf="http://www.w3.org/1999/02/22-rdf-syntax-ns#">
   <cc:Work>
    <dc:type rdf:resource="http://purl.org/dc/dcmitype/StillImage"/>
    <dc:date>2021-11-24T16:26:47.803176</dc:date>
    <dc:format>image/svg+xml</dc:format>
    <dc:creator>
     <cc:Agent>
      <dc:title>Matplotlib v3.3.2, https://matplotlib.org/</dc:title>
     </cc:Agent>
    </dc:creator>
   </cc:Work>
  </rdf:RDF>
 </metadata>
 <defs>
  <style type="text/css">*{stroke-linecap:butt;stroke-linejoin:round;}</style>
 </defs>
 <g id="figure_1">
  <g id="patch_1">
   <path d="M 0 496.762969 
L 280.23 496.762969 
L 280.23 0 
L 0 0 
z
" style="fill:#ffffff;"/>
  </g>
  <g id="axes_1">
   <g id="patch_2">
    <path d="M 49.83 447.398906 
L 273.03 447.398906 
L 273.03 12.518906 
L 49.83 12.518906 
z
" style="fill:#ffffff;"/>
   </g>
   <g id="PolyCollection_1">
    <defs>
     <path d="M 62.278287 -210.473733 
L 62.181713 -210.473733 
L 62.133175 -210.881759 
L 62.050225 -211.289786 
L 61.920183 -211.697812 
L 61.732983 -212.105839 
L 61.485204 -212.513865 
L 61.183117 -212.921892 
L 60.843021 -213.329919 
L 60.488168 -213.737945 
L 60.143145 -214.145972 
L 59.827826 -214.553998 
L 59.553112 -214.962025 
L 59.319658 -215.370052 
L 59.119386 -215.778078 
L 58.938811 -216.186105 
L 58.76305 -216.594131 
L 58.579641 -217.002158 
L 58.38143 -217.410185 
L 58.16777 -217.818211 
L 57.943617 -218.226238 
L 57.716831 -218.634264 
L 57.494738 -219.042291 
L 57.281231 -219.450318 
L 57.075278 -219.858344 
L 56.871104 -220.266371 
L 56.660037 -220.674397 
L 56.433754 -221.082424 
L 56.188213 -221.490451 
L 55.926712 -221.898477 
L 55.660186 -222.306504 
L 55.403714 -222.71453 
L 55.170264 -223.122557 
L 54.9646 -223.530583 
L 54.780735 -223.93861 
L 54.604604 -224.346637 
L 54.420978 -224.754663 
L 54.221358 -225.16269 
L 54.009042 -225.570716 
L 53.798802 -225.978743 
L 53.611051 -226.38677 
L 53.462952 -226.794796 
L 53.360444 -227.202823 
L 53.294936 -227.610849 
L 53.246291 -228.018876 
L 53.190769 -228.426903 
L 53.110148 -228.834929 
L 52.997854 -229.242956 
L 52.859711 -229.650982 
L 52.709981 -230.059009 
L 52.565678 -230.467036 
L 52.442449 -230.875062 
L 52.353436 -231.283089 
L 52.31 -231.691115 
L 52.321943 -232.099142 
L 52.395759 -232.507168 
L 52.531595 -232.915195 
L 52.721188 -233.323222 
L 52.948702 -233.731248 
L 53.194524 -234.139275 
L 53.440241 -234.547301 
L 53.672536 -234.955328 
L 53.884698 -235.363355 
L 54.075792 -235.771381 
L 54.248414 -236.179408 
L 54.406161 -236.587434 
L 54.551802 -236.995461 
L 54.686744 -237.403488 
L 54.81189 -237.811514 
L 54.929356 -238.219541 
L 55.044075 -238.627567 
L 55.164345 -239.035594 
L 55.300807 -239.443621 
L 55.464063 -239.851647 
L 55.661741 -240.259674 
L 55.896107 -240.6677 
L 56.163092 -241.075727 
L 56.453016 -241.483753 
L 56.752672 -241.89178 
L 57.048148 -242.299807 
L 57.3278 -242.707833 
L 57.584901 -243.11586 
L 57.819362 -243.523886 
L 58.03784 -243.931913 
L 58.251822 -244.33994 
L 58.474108 -244.747966 
L 58.715063 -245.155993 
L 58.98027 -245.564019 
L 59.27041 -245.972046 
L 59.582815 -246.380073 
L 59.913082 -246.788099 
L 60.255387 -247.196126 
L 60.601438 -247.604152 
L 60.939411 -248.012179 
L 61.254506 -248.420206 
L 61.531681 -248.828232 
L 61.759516 -249.236259 
L 61.933264 -249.644285 
L 62.055572 -250.052312 
L 62.134779 -250.460339 
L 62.181863 -250.868365 
L 62.278137 -250.868365 
L 62.278137 -250.868365 
L 62.325221 -250.460339 
L 62.404428 -250.052312 
L 62.526736 -249.644285 
L 62.700484 -249.236259 
L 62.928319 -248.828232 
L 63.205494 -248.420206 
L 63.520589 -248.012179 
L 63.858562 -247.604152 
L 64.204613 -247.196126 
L 64.546918 -246.788099 
L 64.877185 -246.380073 
L 65.18959 -245.972046 
L 65.47973 -245.564019 
L 65.744937 -245.155993 
L 65.985892 -244.747966 
L 66.208178 -244.33994 
L 66.42216 -243.931913 
L 66.640638 -243.523886 
L 66.875099 -243.11586 
L 67.1322 -242.707833 
L 67.411852 -242.299807 
L 67.707328 -241.89178 
L 68.006984 -241.483753 
L 68.296908 -241.075727 
L 68.563893 -240.6677 
L 68.798259 -240.259674 
L 68.995937 -239.851647 
L 69.159193 -239.443621 
L 69.295655 -239.035594 
L 69.415925 -238.627567 
L 69.530644 -238.219541 
L 69.64811 -237.811514 
L 69.773256 -237.403488 
L 69.908198 -236.995461 
L 70.053839 -236.587434 
L 70.211586 -236.179408 
L 70.384208 -235.771381 
L 70.575302 -235.363355 
L 70.787464 -234.955328 
L 71.019759 -234.547301 
L 71.265476 -234.139275 
L 71.511298 -233.731248 
L 71.738812 -233.323222 
L 71.928405 -232.915195 
L 72.064241 -232.507168 
L 72.138057 -232.099142 
L 72.15 -231.691115 
L 72.106564 -231.283089 
L 72.017551 -230.875062 
L 71.894322 -230.467036 
L 71.750019 -230.059009 
L 71.600289 -229.650982 
L 71.462146 -229.242956 
L 71.349852 -228.834929 
L 71.269231 -228.426903 
L 71.213709 -228.018876 
L 71.165064 -227.610849 
L 71.099556 -227.202823 
L 70.997048 -226.794796 
L 70.848949 -226.38677 
L 70.661198 -225.978743 
L 70.450958 -225.570716 
L 70.238642 -225.16269 
L 70.039022 -224.754663 
L 69.855396 -224.346637 
L 69.679265 -223.93861 
L 69.4954 -223.530583 
L 69.289736 -223.122557 
L 69.056286 -222.71453 
L 68.799814 -222.306504 
L 68.533288 -221.898477 
L 68.271787 -221.490451 
L 68.026246 -221.082424 
L 67.799963 -220.674397 
L 67.588896 -220.266371 
L 67.384722 -219.858344 
L 67.178769 -219.450318 
L 66.965262 -219.042291 
L 66.743169 -218.634264 
L 66.516383 -218.226238 
L 66.29223 -217.818211 
L 66.07857 -217.410185 
L 65.880359 -217.002158 
L 65.69695 -216.594131 
L 65.521189 -216.186105 
L 65.340614 -215.778078 
L 65.140342 -215.370052 
L 64.906888 -214.962025 
L 64.632174 -214.553998 
L 64.316855 -214.145972 
L 63.971832 -213.737945 
L 63.616979 -213.329919 
L 63.276883 -212.921892 
L 62.974796 -212.513865 
L 62.727017 -212.105839 
L 62.539817 -211.697812 
L 62.409775 -211.289786 
L 62.326825 -210.881759 
L 62.278287 -210.473733 
z
" id="mccc4cb01a5" style="stroke:#4d4d4d;stroke-width:1.5;"/>
    </defs>
    <g clip-path="url(#p8fe62999ba)">
     <use style="fill:#808080;stroke:#4d4d4d;stroke-width:1.5;" x="0" xlink:href="#mccc4cb01a5" y="496.762969"/>
    </g>
   </g>
   <g id="PolyCollection_2">
    <defs>
     <path d="M 87.092834 -220.146762 
L 86.967166 -220.146762 
L 86.906561 -220.548151 
L 86.805878 -220.94954 
L 86.652837 -221.350929 
L 86.439687 -221.752318 
L 86.167109 -222.153707 
L 85.846104 -222.555096 
L 85.496439 -222.956485 
L 85.141762 -223.357874 
L 84.803193 -223.759263 
L 84.493996 -224.160652 
L 84.217355 -224.562041 
L 83.967845 -224.96343 
L 83.7356 -225.364819 
L 83.511277 -225.766208 
L 83.289787 -226.167597 
L 83.071442 -226.568986 
L 82.860309 -226.970375 
L 82.660803 -227.371764 
L 82.474274 -227.773153 
L 82.29727 -228.174542 
L 82.122255 -228.575931 
L 81.940379 -228.97732 
L 81.744992 -229.378709 
L 81.534323 -229.780098 
L 81.312138 -230.181487 
L 81.086048 -230.582876 
L 80.864135 -230.984265 
L 80.651374 -231.385654 
L 80.447414 -231.787043 
L 80.246636 -232.188432 
L 80.040313 -232.589821 
L 79.819982 -232.99121 
L 79.580961 -233.392599 
L 79.325105 -233.793988 
L 79.061961 -234.195377 
L 78.807549 -234.596766 
L 78.58047 -234.998155 
L 78.396252 -235.399544 
L 78.262053 -235.800933 
L 78.174213 -236.202322 
L 78.119974 -236.603711 
L 78.082533 -237.0051 
L 78.046776 -237.406489 
L 78.002826 -237.807878 
L 77.946097 -238.209267 
L 77.874847 -238.610656 
L 77.787681 -239.012045 
L 77.683178 -239.413434 
L 77.562069 -239.814823 
L 77.430366 -240.216212 
L 77.301008 -240.617601 
L 77.192356 -241.01899 
L 77.123741 -241.420379 
L 77.11 -241.821768 
L 77.157474 -242.223158 
L 77.263111 -242.624547 
L 77.416737 -243.025936 
L 77.60516 -243.427325 
L 77.816137 -243.828714 
L 78.040619 -244.230103 
L 78.272743 -244.631492 
L 78.50843 -245.032881 
L 78.744157 -245.43427 
L 78.977203 -245.835659 
L 79.207303 -246.237048 
L 79.438276 -246.638437 
L 79.677848 -247.039826 
L 79.934992 -247.441215 
L 80.215822 -247.842604 
L 80.52019 -248.243993 
L 80.840901 -248.645382 
L 81.165984 -249.046771 
L 81.48287 -249.44816 
L 81.782394 -249.849549 
L 82.060871 -250.250938 
L 82.319684 -250.652327 
L 82.563101 -251.053716 
L 82.79571 -251.455105 
L 83.020612 -251.856494 
L 83.238786 -252.257883 
L 83.449382 -252.659272 
L 83.65051 -253.060661 
L 83.840275 -253.46205 
L 84.018008 -253.863439 
L 84.185631 -254.264828 
L 84.348766 -254.666217 
L 84.51691 -255.067606 
L 84.701998 -255.468995 
L 84.915176 -255.870384 
L 85.16253 -256.271773 
L 85.441414 -256.673162 
L 85.739247 -257.074551 
L 86.035888 -257.47594 
L 86.309002 -257.877329 
L 86.540281 -258.278718 
L 86.719898 -258.680107 
L 86.847612 -259.081496 
L 86.930663 -259.482885 
L 86.980021 -259.884274 
L 87.079979 -259.884274 
L 87.079979 -259.884274 
L 87.129337 -259.482885 
L 87.212388 -259.081496 
L 87.340102 -258.680107 
L 87.519719 -258.278718 
L 87.750998 -257.877329 
L 88.024112 -257.47594 
L 88.320753 -257.074551 
L 88.618586 -256.673162 
L 88.89747 -256.271773 
L 89.144824 -255.870384 
L 89.358002 -255.468995 
L 89.54309 -255.067606 
L 89.711234 -254.666217 
L 89.874369 -254.264828 
L 90.041992 -253.863439 
L 90.219725 -253.46205 
L 90.40949 -253.060661 
L 90.610618 -252.659272 
L 90.821214 -252.257883 
L 91.039388 -251.856494 
L 91.26429 -251.455105 
L 91.496899 -251.053716 
L 91.740316 -250.652327 
L 91.999129 -250.250938 
L 92.277606 -249.849549 
L 92.57713 -249.44816 
L 92.894016 -249.046771 
L 93.219099 -248.645382 
L 93.53981 -248.243993 
L 93.844178 -247.842604 
L 94.125008 -247.441215 
L 94.382152 -247.039826 
L 94.621724 -246.638437 
L 94.852697 -246.237048 
L 95.082797 -245.835659 
L 95.315843 -245.43427 
L 95.55157 -245.032881 
L 95.787257 -244.631492 
L 96.019381 -244.230103 
L 96.243863 -243.828714 
L 96.45484 -243.427325 
L 96.643263 -243.025936 
L 96.796889 -242.624547 
L 96.902526 -242.223158 
L 96.95 -241.821768 
L 96.936259 -241.420379 
L 96.867644 -241.01899 
L 96.758992 -240.617601 
L 96.629634 -240.216212 
L 96.497931 -239.814823 
L 96.376822 -239.413434 
L 96.272319 -239.012045 
L 96.185153 -238.610656 
L 96.113903 -238.209267 
L 96.057174 -237.807878 
L 96.013224 -237.406489 
L 95.977467 -237.0051 
L 95.940026 -236.603711 
L 95.885787 -236.202322 
L 95.797947 -235.800933 
L 95.663748 -235.399544 
L 95.47953 -234.998155 
L 95.252451 -234.596766 
L 94.998039 -234.195377 
L 94.734895 -233.793988 
L 94.479039 -233.392599 
L 94.240018 -232.99121 
L 94.019687 -232.589821 
L 93.813364 -232.188432 
L 93.612586 -231.787043 
L 93.408626 -231.385654 
L 93.195865 -230.984265 
L 92.973952 -230.582876 
L 92.747862 -230.181487 
L 92.525677 -229.780098 
L 92.315008 -229.378709 
L 92.119621 -228.97732 
L 91.937745 -228.575931 
L 91.76273 -228.174542 
L 91.585726 -227.773153 
L 91.399197 -227.371764 
L 91.199691 -226.970375 
L 90.988558 -226.568986 
L 90.770213 -226.167597 
L 90.548723 -225.766208 
L 90.3244 -225.364819 
L 90.092155 -224.96343 
L 89.842645 -224.562041 
L 89.566004 -224.160652 
L 89.256807 -223.759263 
L 88.918238 -223.357874 
L 88.563561 -222.956485 
L 88.213896 -222.555096 
L 87.892891 -222.153707 
L 87.620313 -221.752318 
L 87.407163 -221.350929 
L 87.254122 -220.94954 
L 87.153439 -220.548151 
L 87.092834 -220.146762 
z
" id="m35129fc048" style="stroke:#4d4d4d;stroke-width:1.5;"/>
    </defs>
    <g clip-path="url(#p8fe62999ba)">
     <use style="fill:#808080;stroke:#4d4d4d;stroke-width:1.5;" x="0" xlink:href="#m35129fc048" y="496.762969"/>
    </g>
   </g>
   <g id="PolyCollection_3">
    <defs>
     <path d="M 111.892671 -228.840672 
L 111.767329 -228.840672 
L 111.704434 -229.297818 
L 111.597418 -229.754965 
L 111.430751 -230.212111 
L 111.192934 -230.669257 
L 110.88156 -231.126403 
L 110.506598 -231.583549 
L 110.089744 -232.040696 
L 109.65934 -232.497842 
L 109.242692 -232.954988 
L 108.859107 -233.412134 
L 108.516642 -233.86928 
L 108.213497 -234.326427 
L 107.94267 -234.783573 
L 107.697154 -235.240719 
L 107.473233 -235.697865 
L 107.270759 -236.155011 
L 107.090919 -236.612157 
L 106.933103 -237.069304 
L 106.79271 -237.52645 
L 106.661012 -237.983596 
L 106.526985 -238.440742 
L 106.379876 -238.897888 
L 106.211035 -239.355035 
L 106.014233 -239.812181 
L 105.784925 -240.269327 
L 105.519735 -240.726473 
L 105.217267 -241.183619 
L 104.880144 -241.640765 
L 104.516864 -242.097912 
L 104.141649 -242.555058 
L 103.771597 -243.012204 
L 103.422379 -243.46935 
L 103.10496 -243.926496 
L 102.825136 -244.383643 
L 102.585458 -244.840789 
L 102.387324 -245.297935 
L 102.231227 -245.755081 
L 102.11524 -246.212227 
L 102.033756 -246.669373 
L 101.978422 -247.12652 
L 101.941278 -247.583666 
L 101.918133 -248.040812 
L 101.91 -248.497958 
L 101.921877 -248.955104 
L 101.95993 -249.412251 
L 102.028694 -249.869397 
L 102.129299 -250.326543 
L 102.258939 -250.783689 
L 102.411397 -251.240835 
L 102.578491 -251.697981 
L 102.752072 -252.155128 
L 102.925845 -252.612274 
L 103.096269 -253.06942 
L 103.262394 -253.526566 
L 103.425255 -253.983712 
L 103.587547 -254.440859 
L 103.753704 -254.898005 
L 103.929875 -255.355151 
L 104.123157 -255.812297 
L 104.339975 -256.269443 
L 104.584075 -256.726589 
L 104.854918 -257.183736 
L 105.147121 -257.640882 
L 105.451166 -258.098028 
L 105.75513 -258.555174 
L 106.046866 -259.01232 
L 106.316097 -259.469467 
L 106.556109 -259.926613 
L 106.76486 -260.383759 
L 106.945269 -260.840905 
L 107.104396 -261.298051 
L 107.251513 -261.755197 
L 107.395557 -262.212344 
L 107.542872 -262.66949 
L 107.696058 -263.126636 
L 107.854199 -263.583782 
L 108.014123 -264.040928 
L 108.171933 -264.498075 
L 108.324185 -264.955221 
L 108.468473 -265.412367 
L 108.603657 -265.869513 
L 108.730068 -266.326659 
L 108.849815 -266.783805 
L 108.967045 -267.240952 
L 109.08798 -267.698098 
L 109.220614 -268.155244 
L 109.374003 -268.61239 
L 109.556875 -269.069536 
L 109.77535 -269.526683 
L 110.030062 -269.983829 
L 110.313809 -270.440975 
L 110.611279 -270.898121 
L 110.901756 -271.355267 
L 111.164186 -271.812413 
L 111.382593 -272.26956 
L 111.549575 -272.726706 
L 111.666645 -273.183852 
L 111.741819 -273.640998 
L 111.785996 -274.098144 
L 111.874004 -274.098144 
L 111.874004 -274.098144 
L 111.918181 -273.640998 
L 111.993355 -273.183852 
L 112.110425 -272.726706 
L 112.277407 -272.26956 
L 112.495814 -271.812413 
L 112.758244 -271.355267 
L 113.048721 -270.898121 
L 113.346191 -270.440975 
L 113.629938 -269.983829 
L 113.88465 -269.526683 
L 114.103125 -269.069536 
L 114.285997 -268.61239 
L 114.439386 -268.155244 
L 114.57202 -267.698098 
L 114.692955 -267.240952 
L 114.810185 -266.783805 
L 114.929932 -266.326659 
L 115.056343 -265.869513 
L 115.191527 -265.412367 
L 115.335815 -264.955221 
L 115.488067 -264.498075 
L 115.645877 -264.040928 
L 115.805801 -263.583782 
L 115.963942 -263.126636 
L 116.117128 -262.66949 
L 116.264443 -262.212344 
L 116.408487 -261.755197 
L 116.555604 -261.298051 
L 116.714731 -260.840905 
L 116.89514 -260.383759 
L 117.103891 -259.926613 
L 117.343903 -259.469467 
L 117.613134 -259.01232 
L 117.90487 -258.555174 
L 118.208834 -258.098028 
L 118.512879 -257.640882 
L 118.805082 -257.183736 
L 119.075925 -256.726589 
L 119.320025 -256.269443 
L 119.536843 -255.812297 
L 119.730125 -255.355151 
L 119.906296 -254.898005 
L 120.072453 -254.440859 
L 120.234745 -253.983712 
L 120.397606 -253.526566 
L 120.563731 -253.06942 
L 120.734155 -252.612274 
L 120.907928 -252.155128 
L 121.081509 -251.697981 
L 121.248603 -251.240835 
L 121.401061 -250.783689 
L 121.530701 -250.326543 
L 121.631306 -249.869397 
L 121.70007 -249.412251 
L 121.738123 -248.955104 
L 121.75 -248.497958 
L 121.741867 -248.040812 
L 121.718722 -247.583666 
L 121.681578 -247.12652 
L 121.626244 -246.669373 
L 121.54476 -246.212227 
L 121.428773 -245.755081 
L 121.272676 -245.297935 
L 121.074542 -244.840789 
L 120.834864 -244.383643 
L 120.55504 -243.926496 
L 120.237621 -243.46935 
L 119.888403 -243.012204 
L 119.518351 -242.555058 
L 119.143136 -242.097912 
L 118.779856 -241.640765 
L 118.442733 -241.183619 
L 118.140265 -240.726473 
L 117.875075 -240.269327 
L 117.645767 -239.812181 
L 117.448965 -239.355035 
L 117.280124 -238.897888 
L 117.133015 -238.440742 
L 116.998988 -237.983596 
L 116.86729 -237.52645 
L 116.726897 -237.069304 
L 116.569081 -236.612157 
L 116.389241 -236.155011 
L 116.186767 -235.697865 
L 115.962846 -235.240719 
L 115.71733 -234.783573 
L 115.446503 -234.326427 
L 115.143358 -233.86928 
L 114.800893 -233.412134 
L 114.417308 -232.954988 
L 114.00066 -232.497842 
L 113.570256 -232.040696 
L 113.153402 -231.583549 
L 112.77844 -231.126403 
L 112.467066 -230.669257 
L 112.229249 -230.212111 
L 112.062582 -229.754965 
L 111.955566 -229.297818 
L 111.892671 -228.840672 
z
" id="m0e5f60fa24" style="stroke:#4d4d4d;stroke-width:1.5;"/>
    </defs>
    <g clip-path="url(#p8fe62999ba)">
     <use style="fill:#808080;stroke:#4d4d4d;stroke-width:1.5;" x="0" xlink:href="#m0e5f60fa24" y="496.762969"/>
    </g>
   </g>
   <g id="PolyCollection_4">
    <defs>
     <path d="M 136.68557 -259.097444 
L 136.57443 -259.097444 
L 136.520189 -259.573896 
L 136.42867 -260.050348 
L 136.28668 -260.5268 
L 136.083818 -261.003252 
L 135.816388 -261.479704 
L 135.490142 -261.956156 
L 135.120328 -262.432609 
L 134.728568 -262.909061 
L 134.337641 -263.385513 
L 133.9662 -263.861965 
L 133.625286 -264.338417 
L 133.317351 -264.814869 
L 133.03742 -265.291321 
L 132.775531 -265.767773 
L 132.51981 -266.244225 
L 132.259754 -266.720677 
L 131.989121 -267.197129 
L 131.707471 -267.673582 
L 131.419537 -268.150034 
L 131.132428 -268.626486 
L 130.851837 -269.102938 
L 130.57908 -269.57939 
L 130.310396 -270.055842 
L 130.038823 -270.532294 
L 129.757733 -271.008746 
L 129.464527 -271.485198 
L 129.163027 -271.96165 
L 128.863644 -272.438102 
L 128.581038 -272.914555 
L 128.329853 -273.391007 
L 128.119908 -273.867459 
L 127.952681 -274.343911 
L 127.820605 -274.820363 
L 127.709565 -275.296815 
L 127.603674 -275.773267 
L 127.490489 -276.249719 
L 127.364787 -276.726171 
L 127.229634 -277.202623 
L 127.094498 -277.679075 
L 126.971261 -278.155528 
L 126.869833 -278.63198 
L 126.795169 -279.108432 
L 126.746727 -279.584884 
L 126.720154 -280.061336 
L 126.71 -280.537788 
L 126.712128 -281.01424 
L 126.724983 -281.490692 
L 126.749628 -281.967144 
L 126.788891 -282.443596 
L 126.846168 -282.920048 
L 126.924295 -283.3965 
L 127.024674 -283.872953 
L 127.146521 -284.349405 
L 127.286027 -284.825857 
L 127.435628 -285.302309 
L 127.584138 -285.778761 
L 127.718688 -286.255213 
L 127.828721 -286.731665 
L 127.910856 -287.208117 
L 127.972235 -287.684569 
L 128.030119 -288.161021 
L 128.107137 -288.637473 
L 128.22402 -289.113926 
L 128.393071 -289.590378 
L 128.615195 -290.06683 
L 128.881216 -290.543282 
L 129.176028 -291.019734 
L 129.483204 -291.496186 
L 129.788298 -291.972638 
L 130.080384 -292.44909 
L 130.352341 -292.925542 
L 130.600632 -293.401994 
L 130.824973 -293.878446 
L 131.027902 -294.354899 
L 131.21409 -294.831351 
L 131.389335 -295.307803 
L 131.559341 -295.784255 
L 131.728542 -296.260707 
L 131.899271 -296.737159 
L 132.07159 -297.213611 
L 132.243963 -297.690063 
L 132.414737 -298.166515 
L 132.583978 -298.642967 
L 132.755003 -299.119419 
L 132.934939 -299.595872 
L 133.134038 -300.072324 
L 133.363809 -300.548776 
L 133.634217 -301.025228 
L 133.950315 -301.50168 
L 134.309067 -301.978132 
L 134.697589 -302.454584 
L 135.094115 -302.931036 
L 135.472177 -303.407488 
L 135.806859 -303.88394 
L 136.080802 -304.360392 
L 136.287526 -304.836845 
L 136.431069 -305.313297 
L 136.52266 -305.789749 
L 136.576318 -306.266201 
L 136.683682 -306.266201 
L 136.683682 -306.266201 
L 136.73734 -305.789749 
L 136.828931 -305.313297 
L 136.972474 -304.836845 
L 137.179198 -304.360392 
L 137.453141 -303.88394 
L 137.787823 -303.407488 
L 138.165885 -302.931036 
L 138.562411 -302.454584 
L 138.950933 -301.978132 
L 139.309685 -301.50168 
L 139.625783 -301.025228 
L 139.896191 -300.548776 
L 140.125962 -300.072324 
L 140.325061 -299.595872 
L 140.504997 -299.119419 
L 140.676022 -298.642967 
L 140.845263 -298.166515 
L 141.016037 -297.690063 
L 141.18841 -297.213611 
L 141.360729 -296.737159 
L 141.531458 -296.260707 
L 141.700659 -295.784255 
L 141.870665 -295.307803 
L 142.04591 -294.831351 
L 142.232098 -294.354899 
L 142.435027 -293.878446 
L 142.659368 -293.401994 
L 142.907659 -292.925542 
L 143.179616 -292.44909 
L 143.471702 -291.972638 
L 143.776796 -291.496186 
L 144.083972 -291.019734 
L 144.378784 -290.543282 
L 144.644805 -290.06683 
L 144.866929 -289.590378 
L 145.03598 -289.113926 
L 145.152863 -288.637473 
L 145.229881 -288.161021 
L 145.287765 -287.684569 
L 145.349144 -287.208117 
L 145.431279 -286.731665 
L 145.541312 -286.255213 
L 145.675862 -285.778761 
L 145.824372 -285.302309 
L 145.973973 -284.825857 
L 146.113479 -284.349405 
L 146.235326 -283.872953 
L 146.335705 -283.3965 
L 146.413832 -282.920048 
L 146.471109 -282.443596 
L 146.510372 -281.967144 
L 146.535017 -281.490692 
L 146.547872 -281.01424 
L 146.55 -280.537788 
L 146.539846 -280.061336 
L 146.513273 -279.584884 
L 146.464831 -279.108432 
L 146.390167 -278.63198 
L 146.288739 -278.155528 
L 146.165502 -277.679075 
L 146.030366 -277.202623 
L 145.895213 -276.726171 
L 145.769511 -276.249719 
L 145.656326 -275.773267 
L 145.550435 -275.296815 
L 145.439395 -274.820363 
L 145.307319 -274.343911 
L 145.140092 -273.867459 
L 144.930147 -273.391007 
L 144.678962 -272.914555 
L 144.396356 -272.438102 
L 144.096973 -271.96165 
L 143.795473 -271.485198 
L 143.502267 -271.008746 
L 143.221177 -270.532294 
L 142.949604 -270.055842 
L 142.68092 -269.57939 
L 142.408163 -269.102938 
L 142.127572 -268.626486 
L 141.840463 -268.150034 
L 141.552529 -267.673582 
L 141.270879 -267.197129 
L 141.000246 -266.720677 
L 140.74019 -266.244225 
L 140.484469 -265.767773 
L 140.22258 -265.291321 
L 139.942649 -264.814869 
L 139.634714 -264.338417 
L 139.2938 -263.861965 
L 138.922359 -263.385513 
L 138.531432 -262.909061 
L 138.139672 -262.432609 
L 137.769858 -261.956156 
L 137.443612 -261.479704 
L 137.176182 -261.003252 
L 136.97332 -260.5268 
L 136.83133 -260.050348 
L 136.739811 -259.573896 
L 136.68557 -259.097444 
z
" id="m46c6da860d" style="stroke:#4d4d4d;stroke-width:1.5;"/>
    </defs>
    <g clip-path="url(#p8fe62999ba)">
     <use style="fill:#808080;stroke:#4d4d4d;stroke-width:1.5;" x="0" xlink:href="#m46c6da860d" y="496.762969"/>
    </g>
   </g>
   <g id="PolyCollection_5">
    <defs>
     <path d="M 161.494958 -265.849193 
L 161.365042 -265.849193 
L 161.304145 -266.237764 
L 161.204149 -266.626335 
L 161.053643 -267.014906 
L 160.845716 -267.403477 
L 160.581409 -267.792048 
L 160.270953 -268.180619 
L 159.931585 -268.56919 
L 159.582433 -268.957762 
L 159.238836 -269.346333 
L 158.90893 -269.734904 
L 158.594076 -270.123475 
L 158.292327 -270.512046 
L 158.00243 -270.900617 
L 157.725875 -271.289188 
L 157.466066 -271.677759 
L 157.225562 -272.06633 
L 157.003316 -272.454901 
L 156.793547 -272.843473 
L 156.586889 -273.232044 
L 156.373274 -273.620615 
L 156.145369 -274.009186 
L 155.901145 -274.397757 
L 155.644603 -274.786328 
L 155.384331 -275.174899 
L 155.130413 -275.56347 
L 154.89073 -275.952041 
L 154.667969 -276.340613 
L 154.458526 -276.729184 
L 154.25399 -277.117755 
L 154.044884 -277.506326 
L 153.82514 -277.894897 
L 153.595103 -278.283468 
L 153.361366 -278.672039 
L 153.13351 -279.06061 
L 152.919717 -279.449181 
L 152.723887 -279.837752 
L 152.5458 -280.226324 
L 152.383618 -280.614895 
L 152.236532 -281.003466 
L 152.105517 -281.392037 
L 151.991881 -281.780608 
L 151.895094 -282.169179 
L 151.811856 -282.55775 
L 151.73733 -282.946321 
L 151.667893 -283.334892 
L 151.603789 -283.723463 
L 151.550145 -284.112035 
L 151.515746 -284.500606 
L 151.51 -284.889177 
L 151.539356 -285.277748 
L 151.604652 -285.666319 
L 151.700532 -286.05489 
L 151.817122 -286.443461 
L 151.943132 -286.832032 
L 152.069011 -287.220603 
L 152.189061 -287.609175 
L 152.30224 -287.997746 
L 152.412067 -288.386317 
L 152.525998 -288.774888 
L 152.654198 -289.163459 
L 152.807429 -289.55203 
L 152.994166 -289.940601 
L 153.217787 -290.329172 
L 153.475019 -290.717743 
L 153.756351 -291.106314 
L 154.048245 -291.494886 
L 154.33629 -291.883457 
L 154.608181 -292.272028 
L 154.855744 -292.660599 
L 155.075586 -293.04917 
L 155.268471 -293.437741 
L 155.437912 -293.826312 
L 155.588782 -294.214883 
L 155.726635 -294.603454 
L 155.857864 -294.992026 
L 155.990133 -295.380597 
L 156.132156 -295.769168 
L 156.292265 -296.157739 
L 156.476102 -296.54631 
L 156.684493 -296.934881 
L 156.912686 -297.323452 
L 157.151555 -297.712023 
L 157.390575 -298.100594 
L 157.621704 -298.489165 
L 157.842917 -298.877737 
L 158.060066 -299.266308 
L 158.286036 -299.654879 
L 158.536911 -300.04345 
L 158.82602 -300.432021 
L 159.157861 -300.820592 
L 159.524413 -301.209163 
L 159.905698 -301.597734 
L 160.274732 -301.986305 
L 160.605 -302.374877 
L 160.877417 -302.763448 
L 161.084153 -303.152019 
L 161.228359 -303.54059 
L 161.320758 -303.929161 
L 161.375121 -304.317732 
L 161.484879 -304.317732 
L 161.484879 -304.317732 
L 161.539242 -303.929161 
L 161.631641 -303.54059 
L 161.775847 -303.152019 
L 161.982583 -302.763448 
L 162.255 -302.374877 
L 162.585268 -301.986305 
L 162.954302 -301.597734 
L 163.335587 -301.209163 
L 163.702139 -300.820592 
L 164.03398 -300.432021 
L 164.323089 -300.04345 
L 164.573964 -299.654879 
L 164.799934 -299.266308 
L 165.017083 -298.877737 
L 165.238296 -298.489165 
L 165.469425 -298.100594 
L 165.708445 -297.712023 
L 165.947314 -297.323452 
L 166.175507 -296.934881 
L 166.383898 -296.54631 
L 166.567735 -296.157739 
L 166.727844 -295.769168 
L 166.869867 -295.380597 
L 167.002136 -294.992026 
L 167.133365 -294.603454 
L 167.271218 -294.214883 
L 167.422088 -293.826312 
L 167.591529 -293.437741 
L 167.784414 -293.04917 
L 168.004256 -292.660599 
L 168.251819 -292.272028 
L 168.52371 -291.883457 
L 168.811755 -291.494886 
L 169.103649 -291.106314 
L 169.384981 -290.717743 
L 169.642213 -290.329172 
L 169.865834 -289.940601 
L 170.052571 -289.55203 
L 170.205802 -289.163459 
L 170.334002 -288.774888 
L 170.447933 -288.386317 
L 170.55776 -287.997746 
L 170.670939 -287.609175 
L 170.790989 -287.220603 
L 170.916868 -286.832032 
L 171.042878 -286.443461 
L 171.159468 -286.05489 
L 171.255348 -285.666319 
L 171.320644 -285.277748 
L 171.35 -284.889177 
L 171.344254 -284.500606 
L 171.309855 -284.112035 
L 171.256211 -283.723463 
L 171.192107 -283.334892 
L 171.12267 -282.946321 
L 171.048144 -282.55775 
L 170.964906 -282.169179 
L 170.868119 -281.780608 
L 170.754483 -281.392037 
L 170.623468 -281.003466 
L 170.476382 -280.614895 
L 170.3142 -280.226324 
L 170.136113 -279.837752 
L 169.940283 -279.449181 
L 169.72649 -279.06061 
L 169.498634 -278.672039 
L 169.264897 -278.283468 
L 169.03486 -277.894897 
L 168.815116 -277.506326 
L 168.60601 -277.117755 
L 168.401474 -276.729184 
L 168.192031 -276.340613 
L 167.96927 -275.952041 
L 167.729587 -275.56347 
L 167.475669 -275.174899 
L 167.215397 -274.786328 
L 166.958855 -274.397757 
L 166.714631 -274.009186 
L 166.486726 -273.620615 
L 166.273111 -273.232044 
L 166.066453 -272.843473 
L 165.856684 -272.454901 
L 165.634438 -272.06633 
L 165.393934 -271.677759 
L 165.134125 -271.289188 
L 164.85757 -270.900617 
L 164.567673 -270.512046 
L 164.265924 -270.123475 
L 163.95107 -269.734904 
L 163.621164 -269.346333 
L 163.277567 -268.957762 
L 162.928415 -268.56919 
L 162.589047 -268.180619 
L 162.278591 -267.792048 
L 162.014284 -267.403477 
L 161.806357 -267.014906 
L 161.655851 -266.626335 
L 161.555855 -266.237764 
L 161.494958 -265.849193 
z
" id="mb600b3e226" style="stroke:#4d4d4d;stroke-width:1.5;"/>
    </defs>
    <g clip-path="url(#p8fe62999ba)">
     <use style="fill:#808080;stroke:#4d4d4d;stroke-width:1.5;" x="0" xlink:href="#mb600b3e226" y="496.762969"/>
    </g>
   </g>
   <g id="PolyCollection_6">
    <defs>
     <path d="M 186.297903 -278.852019 
L 186.162097 -278.852019 
L 186.097346 -279.233677 
L 185.99004 -279.615335 
L 185.827009 -279.996993 
L 185.599642 -280.378651 
L 185.308038 -280.760309 
L 184.963215 -281.141967 
L 184.585819 -281.523625 
L 184.201307 -281.905283 
L 183.833287 -282.286941 
L 183.497615 -282.668599 
L 183.199412 -283.050258 
L 182.933813 -283.431916 
L 182.689708 -283.813574 
L 182.45474 -284.195232 
L 182.219642 -284.57689 
L 181.980546 -284.958548 
L 181.738935 -285.340206 
L 181.499862 -285.721864 
L 181.269476 -286.103522 
L 181.05274 -286.48518 
L 180.851785 -286.866838 
L 180.665132 -287.248496 
L 180.487957 -287.630154 
L 180.31341 -288.011812 
L 180.134627 -288.39347 
L 179.946679 -288.775128 
L 179.747724 -289.156786 
L 179.539045 -289.538444 
L 179.324081 -289.920102 
L 179.106892 -290.30176 
L 178.890635 -290.683418 
L 178.676763 -291.065077 
L 178.465497 -291.446735 
L 178.257441 -291.828393 
L 178.055243 -292.210051 
L 177.863852 -292.591709 
L 177.688704 -292.973367 
L 177.532736 -293.355025 
L 177.39427 -293.736683 
L 177.267326 -294.118341 
L 177.144335 -294.499999 
L 177.019578 -294.881657 
L 176.891431 -295.263315 
L 176.762589 -295.644973 
L 176.638762 -296.026631 
L 176.526969 -296.408289 
L 176.434079 -296.789947 
L 176.365597 -297.171605 
L 176.32445 -297.553263 
L 176.31 -297.934921 
L 176.318004 -298.316579 
L 176.342113 -298.698237 
L 176.376632 -299.079896 
L 176.419344 -299.461554 
L 176.472977 -299.843212 
L 176.544586 -300.22487 
L 176.643126 -300.606528 
L 176.776205 -300.988186 
L 176.947141 -301.369844 
L 177.153256 -301.751502 
L 177.386011 -302.13316 
L 177.633082 -302.514818 
L 177.881809 -302.896476 
L 178.122788 -303.278134 
L 178.352236 -303.659792 
L 178.572216 -304.04145 
L 178.788815 -304.423108 
L 179.009274 -304.804766 
L 179.239383 -305.186424 
L 179.482077 -305.568082 
L 179.737307 -305.94974 
L 180.002593 -306.331398 
L 180.27361 -306.713056 
L 180.544633 -307.094715 
L 180.809218 -307.476373 
L 181.061435 -307.858031 
L 181.297442 -308.239689 
L 181.516599 -308.621347 
L 181.721351 -309.003005 
L 181.915882 -309.384663 
L 182.104373 -309.766321 
L 182.289985 -310.147979 
L 182.475155 -310.529637 
L 182.662896 -310.911295 
L 182.858166 -311.292953 
L 183.068315 -311.674611 
L 183.302091 -312.056269 
L 183.56726 -312.437927 
L 183.867444 -312.819585 
L 184.199251 -313.201243 
L 184.550956 -313.582901 
L 184.903713 -313.964559 
L 185.235386 -314.346217 
L 185.525821 -314.727875 
L 185.761608 -315.109534 
L 185.938506 -315.491192 
L 186.060869 -315.87285 
L 186.138775 -316.254508 
L 186.184371 -316.636166 
L 186.275629 -316.636166 
L 186.275629 -316.636166 
L 186.321225 -316.254508 
L 186.399131 -315.87285 
L 186.521494 -315.491192 
L 186.698392 -315.109534 
L 186.934179 -314.727875 
L 187.224614 -314.346217 
L 187.556287 -313.964559 
L 187.909044 -313.582901 
L 188.260749 -313.201243 
L 188.592556 -312.819585 
L 188.89274 -312.437927 
L 189.157909 -312.056269 
L 189.391685 -311.674611 
L 189.601834 -311.292953 
L 189.797104 -310.911295 
L 189.984845 -310.529637 
L 190.170015 -310.147979 
L 190.355627 -309.766321 
L 190.544118 -309.384663 
L 190.738649 -309.003005 
L 190.943401 -308.621347 
L 191.162558 -308.239689 
L 191.398565 -307.858031 
L 191.650782 -307.476373 
L 191.915367 -307.094715 
L 192.18639 -306.713056 
L 192.457407 -306.331398 
L 192.722693 -305.94974 
L 192.977923 -305.568082 
L 193.220617 -305.186424 
L 193.450726 -304.804766 
L 193.671185 -304.423108 
L 193.887784 -304.04145 
L 194.107764 -303.659792 
L 194.337212 -303.278134 
L 194.578191 -302.896476 
L 194.826918 -302.514818 
L 195.073989 -302.13316 
L 195.306744 -301.751502 
L 195.512859 -301.369844 
L 195.683795 -300.988186 
L 195.816874 -300.606528 
L 195.915414 -300.22487 
L 195.987023 -299.843212 
L 196.040656 -299.461554 
L 196.083368 -299.079896 
L 196.117887 -298.698237 
L 196.141996 -298.316579 
L 196.15 -297.934921 
L 196.13555 -297.553263 
L 196.094403 -297.171605 
L 196.025921 -296.789947 
L 195.933031 -296.408289 
L 195.821238 -296.026631 
L 195.697411 -295.644973 
L 195.568569 -295.263315 
L 195.440422 -294.881657 
L 195.315665 -294.499999 
L 195.192674 -294.118341 
L 195.06573 -293.736683 
L 194.927264 -293.355025 
L 194.771296 -292.973367 
L 194.596148 -292.591709 
L 194.404757 -292.210051 
L 194.202559 -291.828393 
L 193.994503 -291.446735 
L 193.783237 -291.065077 
L 193.569365 -290.683418 
L 193.353108 -290.30176 
L 193.135919 -289.920102 
L 192.920955 -289.538444 
L 192.712276 -289.156786 
L 192.513321 -288.775128 
L 192.325373 -288.39347 
L 192.14659 -288.011812 
L 191.972043 -287.630154 
L 191.794868 -287.248496 
L 191.608215 -286.866838 
L 191.40726 -286.48518 
L 191.190524 -286.103522 
L 190.960138 -285.721864 
L 190.721065 -285.340206 
L 190.479454 -284.958548 
L 190.240358 -284.57689 
L 190.00526 -284.195232 
L 189.770292 -283.813574 
L 189.526187 -283.431916 
L 189.260588 -283.050258 
L 188.962385 -282.668599 
L 188.626713 -282.286941 
L 188.258693 -281.905283 
L 187.874181 -281.523625 
L 187.496785 -281.141967 
L 187.151962 -280.760309 
L 186.860358 -280.378651 
L 186.632991 -279.996993 
L 186.46996 -279.615335 
L 186.362654 -279.233677 
L 186.297903 -278.852019 
z
" id="mc6677ad3fb" style="stroke:#4d4d4d;stroke-width:1.5;"/>
    </defs>
    <g clip-path="url(#p8fe62999ba)">
     <use style="fill:#808080;stroke:#4d4d4d;stroke-width:1.5;" x="0" xlink:href="#mc6677ad3fb" y="496.762969"/>
    </g>
   </g>
   <g id="PolyCollection_7">
    <defs>
     <path d="M 211.106931 -309.913435 
L 210.953069 -309.913435 
L 210.879345 -310.309129 
L 210.75605 -310.704823 
L 210.566348 -311.100516 
L 210.297487 -311.49621 
L 209.945847 -311.891904 
L 209.520251 -312.287597 
L 209.041508 -312.683291 
L 208.53768 -313.078985 
L 208.036736 -313.474679 
L 207.55976 -313.870372 
L 207.117647 -314.266066 
L 206.712261 -314.66176 
L 206.34062 -315.057453 
L 205.999256 -315.453147 
L 205.686228 -315.848841 
L 205.400067 -316.244534 
L 205.136998 -316.640228 
L 204.888841 -317.035922 
L 204.643476 -317.431616 
L 204.388052 -317.827309 
L 204.113391 -318.223003 
L 203.817329 -318.618697 
L 203.505472 -319.01439 
L 203.189302 -319.410084 
L 202.88283 -319.805778 
L 202.599304 -320.201471 
L 202.348939 -320.597165 
L 202.137773 -320.992859 
L 201.967205 -321.388553 
L 201.833803 -321.784246 
L 201.729502 -322.17994 
L 201.642828 -322.575634 
L 201.561661 -322.971327 
L 201.477132 -323.367021 
L 201.38699 -323.762715 
L 201.29643 -324.158408 
L 201.215502 -324.554102 
L 201.154352 -324.949796 
L 201.119015 -325.34549 
L 201.11 -325.741183 
L 201.123864 -326.136877 
L 201.156091 -326.532571 
L 201.203304 -326.928264 
L 201.263978 -327.323958 
L 201.338089 -327.719652 
L 201.426414 -328.115346 
L 201.529711 -328.511039 
L 201.647758 -328.906733 
L 201.778523 -329.302427 
L 201.918123 -329.69812 
L 202.061887 -330.093814 
L 202.205971 -330.489508 
L 202.348305 -330.885201 
L 202.488156 -331.280895 
L 202.624727 -331.676589 
L 202.756175 -332.072283 
L 202.880044 -332.467976 
L 202.994953 -332.86367 
L 203.10228 -333.259364 
L 203.206701 -333.655057 
L 203.315401 -334.050751 
L 203.436802 -334.446445 
L 203.579642 -334.842138 
L 203.752492 -335.237832 
L 203.962922 -335.633526 
L 204.215555 -336.02922 
L 204.509178 -336.424913 
L 204.83426 -336.820607 
L 205.172736 -337.216301 
L 205.50111 -337.611994 
L 205.796271 -338.007688 
L 206.04184 -338.403382 
L 206.232458 -338.799075 
L 206.374375 -339.194769 
L 206.482456 -339.590463 
L 206.575175 -339.986157 
L 206.669693 -340.38185 
L 206.77852 -340.777544 
L 206.908231 -341.173238 
L 207.059846 -341.568931 
L 207.230167 -341.964625 
L 207.41357 -342.360319 
L 207.603947 -342.756012 
L 207.796653 -343.151706 
L 207.990104 -343.5474 
L 208.186624 -343.943094 
L 208.392117 -344.338787 
L 208.614399 -344.734481 
L 208.860353 -345.130175 
L 209.132608 -345.525868 
L 209.426876 -345.921562 
L 209.731254 -346.317256 
L 210.028207 -346.712949 
L 210.298819 -347.108643 
L 210.527719 -347.504337 
L 210.706706 -347.900031 
L 210.835745 -348.295724 
L 210.921368 -348.691418 
L 210.9736 -349.087112 
L 211.0864 -349.087112 
L 211.0864 -349.087112 
L 211.138632 -348.691418 
L 211.224255 -348.295724 
L 211.353294 -347.900031 
L 211.532281 -347.504337 
L 211.761181 -347.108643 
L 212.031793 -346.712949 
L 212.328746 -346.317256 
L 212.633124 -345.921562 
L 212.927392 -345.525868 
L 213.199647 -345.130175 
L 213.445601 -344.734481 
L 213.667883 -344.338787 
L 213.873376 -343.943094 
L 214.069896 -343.5474 
L 214.263347 -343.151706 
L 214.456053 -342.756012 
L 214.64643 -342.360319 
L 214.829833 -341.964625 
L 215.000154 -341.568931 
L 215.151769 -341.173238 
L 215.28148 -340.777544 
L 215.390307 -340.38185 
L 215.484825 -339.986157 
L 215.577544 -339.590463 
L 215.685625 -339.194769 
L 215.827542 -338.799075 
L 216.01816 -338.403382 
L 216.263729 -338.007688 
L 216.55889 -337.611994 
L 216.887264 -337.216301 
L 217.22574 -336.820607 
L 217.550822 -336.424913 
L 217.844445 -336.02922 
L 218.097078 -335.633526 
L 218.307508 -335.237832 
L 218.480358 -334.842138 
L 218.623198 -334.446445 
L 218.744599 -334.050751 
L 218.853299 -333.655057 
L 218.95772 -333.259364 
L 219.065047 -332.86367 
L 219.179956 -332.467976 
L 219.303825 -332.072283 
L 219.435273 -331.676589 
L 219.571844 -331.280895 
L 219.711695 -330.885201 
L 219.854029 -330.489508 
L 219.998113 -330.093814 
L 220.141877 -329.69812 
L 220.281477 -329.302427 
L 220.412242 -328.906733 
L 220.530289 -328.511039 
L 220.633586 -328.115346 
L 220.721911 -327.719652 
L 220.796022 -327.323958 
L 220.856696 -326.928264 
L 220.903909 -326.532571 
L 220.936136 -326.136877 
L 220.95 -325.741183 
L 220.940985 -325.34549 
L 220.905648 -324.949796 
L 220.844498 -324.554102 
L 220.76357 -324.158408 
L 220.67301 -323.762715 
L 220.582868 -323.367021 
L 220.498339 -322.971327 
L 220.417172 -322.575634 
L 220.330498 -322.17994 
L 220.226197 -321.784246 
L 220.092795 -321.388553 
L 219.922227 -320.992859 
L 219.711061 -320.597165 
L 219.460696 -320.201471 
L 219.17717 -319.805778 
L 218.870698 -319.410084 
L 218.554528 -319.01439 
L 218.242671 -318.618697 
L 217.946609 -318.223003 
L 217.671948 -317.827309 
L 217.416524 -317.431616 
L 217.171159 -317.035922 
L 216.923002 -316.640228 
L 216.659933 -316.244534 
L 216.373772 -315.848841 
L 216.060744 -315.453147 
L 215.71938 -315.057453 
L 215.347739 -314.66176 
L 214.942353 -314.266066 
L 214.50024 -313.870372 
L 214.023264 -313.474679 
L 213.52232 -313.078985 
L 213.018492 -312.683291 
L 212.539749 -312.287597 
L 212.114153 -311.891904 
L 211.762513 -311.49621 
L 211.493652 -311.100516 
L 211.30395 -310.704823 
L 211.180655 -310.309129 
L 211.106931 -309.913435 
z
" id="md161bdfd83" style="stroke:#4d4d4d;stroke-width:1.5;"/>
    </defs>
    <g clip-path="url(#p8fe62999ba)">
     <use style="fill:#808080;stroke:#4d4d4d;stroke-width:1.5;" x="0" xlink:href="#md161bdfd83" y="496.762969"/>
    </g>
   </g>
   <g id="PolyCollection_8">
    <defs>
     <path d="M 235.892214 -315.452443 
L 235.767786 -315.452443 
L 235.706878 -315.866088 
L 235.604076 -316.279732 
L 235.444653 -316.693376 
L 235.217168 -317.10702 
L 234.917829 -317.520665 
L 234.553413 -317.934309 
L 234.140978 -318.347953 
L 233.703982 -318.761597 
L 233.266252 -319.175242 
L 232.846393 -319.588886 
L 232.454816 -320.00253 
L 232.093965 -320.416174 
L 231.760674 -320.829819 
L 231.448931 -321.243463 
L 231.15192 -321.657107 
L 230.863217 -322.070751 
L 230.577713 -322.484396 
L 230.292701 -322.89804 
L 230.00887 -323.311684 
L 229.730427 -323.725328 
L 229.463661 -324.138973 
L 229.21416 -324.552617 
L 228.984012 -324.966261 
L 228.770791 -325.379905 
L 228.569257 -325.793549 
L 228.374923 -326.207194 
L 228.187074 -326.620838 
L 228.008966 -327.034482 
L 227.844864 -327.448126 
L 227.696022 -327.861771 
L 227.558657 -328.275415 
L 227.425587 -328.689059 
L 227.290425 -329.102703 
L 227.151299 -329.516348 
L 227.011413 -329.929992 
L 226.876113 -330.343636 
L 226.748603 -330.75728 
L 226.627307 -331.170925 
L 226.506745 -331.584569 
L 226.381487 -331.998213 
L 226.250974 -332.411857 
L 226.122555 -332.825502 
L 226.011034 -333.239146 
L 225.934784 -333.65279 
L 225.91 -334.066434 
L 225.945436 -334.480079 
L 226.03964 -334.893723 
L 226.181611 -335.307367 
L 226.354448 -335.721011 
L 226.540484 -336.134656 
L 226.725913 -336.5483 
L 226.903258 -336.961944 
L 227.071051 -337.375588 
L 227.231529 -337.789233 
L 227.388053 -338.202877 
L 227.543815 -338.616521 
L 227.702172 -339.030165 
L 227.867576 -339.44381 
L 228.045663 -339.857454 
L 228.241851 -340.271098 
L 228.459091 -340.684742 
L 228.696071 -341.098387 
L 228.946837 -341.512031 
L 229.202004 -341.925675 
L 229.451059 -342.339319 
L 229.68498 -342.752964 
L 229.898318 -343.166608 
L 230.089971 -343.580252 
L 230.262364 -343.993896 
L 230.419514 -344.407541 
L 230.565103 -344.821185 
L 230.701635 -345.234829 
L 230.830982 -345.648473 
L 230.955658 -346.062118 
L 231.079732 -346.475762 
L 231.208603 -346.889406 
L 231.347643 -347.30305 
L 231.50045 -347.716694 
L 231.667678 -348.130339 
L 231.847094 -348.543983 
L 232.03487 -348.957627 
L 232.227499 -349.371271 
L 232.423476 -349.784916 
L 232.624046 -350.19856 
L 232.832801 -350.612204 
L 233.054426 -351.025848 
L 233.293184 -351.439493 
L 233.551549 -351.853137 
L 233.829117 -352.266781 
L 234.12173 -352.680425 
L 234.420978 -353.09407 
L 234.71457 -353.507714 
L 234.988068 -353.921358 
L 235.227821 -354.335002 
L 235.424161 -354.748647 
L 235.573526 -355.162291 
L 235.678643 -355.575935 
L 235.746873 -355.989579 
L 235.787632 -356.403224 
L 235.872368 -356.403224 
L 235.872368 -356.403224 
L 235.913127 -355.989579 
L 235.981357 -355.575935 
L 236.086474 -355.162291 
L 236.235839 -354.748647 
L 236.432179 -354.335002 
L 236.671932 -353.921358 
L 236.94543 -353.507714 
L 237.239022 -353.09407 
L 237.53827 -352.680425 
L 237.830883 -352.266781 
L 238.108451 -351.853137 
L 238.366816 -351.439493 
L 238.605574 -351.025848 
L 238.827199 -350.612204 
L 239.035954 -350.19856 
L 239.236524 -349.784916 
L 239.432501 -349.371271 
L 239.62513 -348.957627 
L 239.812906 -348.543983 
L 239.992322 -348.130339 
L 240.15955 -347.716694 
L 240.312357 -347.30305 
L 240.451397 -346.889406 
L 240.580268 -346.475762 
L 240.704342 -346.062118 
L 240.829018 -345.648473 
L 240.958365 -345.234829 
L 241.094897 -344.821185 
L 241.240486 -344.407541 
L 241.397636 -343.993896 
L 241.570029 -343.580252 
L 241.761682 -343.166608 
L 241.97502 -342.752964 
L 242.208941 -342.339319 
L 242.457996 -341.925675 
L 242.713163 -341.512031 
L 242.963929 -341.098387 
L 243.200909 -340.684742 
L 243.418149 -340.271098 
L 243.614337 -339.857454 
L 243.792424 -339.44381 
L 243.957828 -339.030165 
L 244.116185 -338.616521 
L 244.271947 -338.202877 
L 244.428471 -337.789233 
L 244.588949 -337.375588 
L 244.756742 -336.961944 
L 244.934087 -336.5483 
L 245.119516 -336.134656 
L 245.305552 -335.721011 
L 245.478389 -335.307367 
L 245.62036 -334.893723 
L 245.714564 -334.480079 
L 245.75 -334.066434 
L 245.725216 -333.65279 
L 245.648966 -333.239146 
L 245.537445 -332.825502 
L 245.409026 -332.411857 
L 245.278513 -331.998213 
L 245.153255 -331.584569 
L 245.032693 -331.170925 
L 244.911397 -330.75728 
L 244.783887 -330.343636 
L 244.648587 -329.929992 
L 244.508701 -329.516348 
L 244.369575 -329.102703 
L 244.234413 -328.689059 
L 244.101343 -328.275415 
L 243.963978 -327.861771 
L 243.815136 -327.448126 
L 243.651034 -327.034482 
L 243.472926 -326.620838 
L 243.285077 -326.207194 
L 243.090743 -325.793549 
L 242.889209 -325.379905 
L 242.675988 -324.966261 
L 242.44584 -324.552617 
L 242.196339 -324.138973 
L 241.929573 -323.725328 
L 241.65113 -323.311684 
L 241.367299 -322.89804 
L 241.082287 -322.484396 
L 240.796783 -322.070751 
L 240.50808 -321.657107 
L 240.211069 -321.243463 
L 239.899326 -320.829819 
L 239.566035 -320.416174 
L 239.205184 -320.00253 
L 238.813607 -319.588886 
L 238.393748 -319.175242 
L 237.956018 -318.761597 
L 237.519022 -318.347953 
L 237.106587 -317.934309 
L 236.742171 -317.520665 
L 236.442832 -317.10702 
L 236.215347 -316.693376 
L 236.055924 -316.279732 
L 235.953122 -315.866088 
L 235.892214 -315.452443 
z
" id="m97861a5fc2" style="stroke:#4d4d4d;stroke-width:1.5;"/>
    </defs>
    <g clip-path="url(#p8fe62999ba)">
     <use style="fill:#808080;stroke:#4d4d4d;stroke-width:1.5;" x="0" xlink:href="#m97861a5fc2" y="496.762969"/>
    </g>
   </g>
   <g id="PolyCollection_9">
    <defs>
     <path d="M 260.729828 -344.261024 
L 260.530172 -344.261024 
L 260.43639 -344.887793 
L 260.281077 -345.514562 
L 260.044321 -346.141331 
L 259.711789 -346.7681 
L 259.280796 -347.394869 
L 258.764122 -348.021638 
L 258.189207 -348.648407 
L 257.592269 -349.275176 
L 257.009403 -349.901945 
L 256.468375 -350.528714 
L 255.984284 -351.155483 
L 255.560084 -351.782252 
L 255.19041 -352.409021 
L 254.866001 -353.03579 
L 254.576682 -353.662559 
L 254.312522 -354.289328 
L 254.0642 -354.916097 
L 253.82371 -355.542866 
L 253.585701 -356.169635 
L 253.348705 -356.796404 
L 253.115266 -357.423173 
L 252.890641 -358.049942 
L 252.680613 -358.676711 
L 252.489411 -359.30348 
L 252.318427 -359.930249 
L 252.165861 -360.557018 
L 252.027083 -361.183787 
L 251.895552 -361.810556 
L 251.764255 -362.437325 
L 251.627612 -363.064094 
L 251.483418 -363.690863 
L 251.334099 -364.317632 
L 251.186512 -364.9444 
L 251.050033 -365.571169 
L 250.933525 -366.197938 
L 250.842486 -366.824707 
L 250.777769 -367.451476 
L 250.73652 -368.078245 
L 250.714745 -368.705014 
L 250.71 -369.331783 
L 250.72267 -369.958552 
L 250.755251 -370.585321 
L 250.810326 -371.21209 
L 250.888716 -371.838859 
L 250.989043 -372.465628 
L 251.108861 -373.092397 
L 251.246385 -373.719166 
L 251.401414 -374.345935 
L 251.574725 -374.972704 
L 251.76646 -375.599473 
L 251.974773 -376.226242 
L 252.195737 -376.853011 
L 252.424298 -377.47978 
L 252.655221 -378.106549 
L 252.883139 -378.733318 
L 253.101956 -379.360087 
L 253.304812 -379.986856 
L 253.485584 -380.613625 
L 253.641598 -381.240394 
L 253.776002 -381.867163 
L 253.898103 -382.493932 
L 254.021103 -383.120701 
L 254.158174 -383.74747 
L 254.318671 -384.374239 
L 254.506047 -385.001008 
L 254.718046 -385.627777 
L 254.948649 -386.254546 
L 255.190628 -386.881315 
L 255.437574 -387.508084 
L 255.68476 -388.134853 
L 255.928825 -388.761622 
L 256.166729 -389.388391 
L 256.39473 -390.01516 
L 256.608006 -390.641929 
L 256.801255 -391.268698 
L 256.970079 -391.895467 
L 257.112473 -392.522236 
L 257.229651 -393.149005 
L 257.325799 -393.775774 
L 257.406971 -394.402543 
L 257.479786 -395.029311 
L 257.550555 -395.65608 
L 257.625048 -396.282849 
L 257.708759 -396.909618 
L 257.807386 -397.536387 
L 257.927268 -398.163156 
L 258.07538 -398.789925 
L 258.258451 -399.416694 
L 258.480894 -400.043463 
L 258.741989 -400.670232 
L 259.033571 -401.297001 
L 259.339778 -401.92377 
L 259.639674 -402.550539 
L 259.912093 -403.177308 
L 260.140804 -403.804077 
L 260.31788 -404.430846 
L 260.444138 -405.057615 
L 260.526973 -405.684384 
L 260.57695 -406.311153 
L 260.68305 -406.311153 
L 260.68305 -406.311153 
L 260.733027 -405.684384 
L 260.815862 -405.057615 
L 260.94212 -404.430846 
L 261.119196 -403.804077 
L 261.347907 -403.177308 
L 261.620326 -402.550539 
L 261.920222 -401.92377 
L 262.226429 -401.297001 
L 262.518011 -400.670232 
L 262.779106 -400.043463 
L 263.001549 -399.416694 
L 263.18462 -398.789925 
L 263.332732 -398.163156 
L 263.452614 -397.536387 
L 263.551241 -396.909618 
L 263.634952 -396.282849 
L 263.709445 -395.65608 
L 263.780214 -395.029311 
L 263.853029 -394.402543 
L 263.934201 -393.775774 
L 264.030349 -393.149005 
L 264.147527 -392.522236 
L 264.289921 -391.895467 
L 264.458745 -391.268698 
L 264.651994 -390.641929 
L 264.86527 -390.01516 
L 265.093271 -389.388391 
L 265.331175 -388.761622 
L 265.57524 -388.134853 
L 265.822426 -387.508084 
L 266.069372 -386.881315 
L 266.311351 -386.254546 
L 266.541954 -385.627777 
L 266.753953 -385.001008 
L 266.941329 -384.374239 
L 267.101826 -383.74747 
L 267.238897 -383.120701 
L 267.361897 -382.493932 
L 267.483998 -381.867163 
L 267.618402 -381.240394 
L 267.774416 -380.613625 
L 267.955188 -379.986856 
L 268.158044 -379.360087 
L 268.376861 -378.733318 
L 268.604779 -378.106549 
L 268.835702 -377.47978 
L 269.064263 -376.853011 
L 269.285227 -376.226242 
L 269.49354 -375.599473 
L 269.685275 -374.972704 
L 269.858586 -374.345935 
L 270.013615 -373.719166 
L 270.151139 -373.092397 
L 270.270957 -372.465628 
L 270.371284 -371.838859 
L 270.449674 -371.21209 
L 270.504749 -370.585321 
L 270.53733 -369.958552 
L 270.55 -369.331783 
L 270.545255 -368.705014 
L 270.52348 -368.078245 
L 270.482231 -367.451476 
L 270.417514 -366.824707 
L 270.326475 -366.197938 
L 270.209967 -365.571169 
L 270.073488 -364.9444 
L 269.925901 -364.317632 
L 269.776582 -363.690863 
L 269.632388 -363.064094 
L 269.495745 -362.437325 
L 269.364448 -361.810556 
L 269.232917 -361.183787 
L 269.094139 -360.557018 
L 268.941573 -359.930249 
L 268.770589 -359.30348 
L 268.579387 -358.676711 
L 268.369359 -358.049942 
L 268.144734 -357.423173 
L 267.911295 -356.796404 
L 267.674299 -356.169635 
L 267.43629 -355.542866 
L 267.1958 -354.916097 
L 266.947478 -354.289328 
L 266.683318 -353.662559 
L 266.393999 -353.03579 
L 266.06959 -352.409021 
L 265.699916 -351.782252 
L 265.275716 -351.155483 
L 264.791625 -350.528714 
L 264.250597 -349.901945 
L 263.667731 -349.275176 
L 263.070793 -348.648407 
L 262.495878 -348.021638 
L 261.979204 -347.394869 
L 261.548211 -346.7681 
L 261.215679 -346.141331 
L 260.978923 -345.514562 
L 260.82361 -344.887793 
L 260.729828 -344.261024 
z
" id="m88f2961224" style="stroke:#4d4d4d;stroke-width:1.5;"/>
    </defs>
    <g clip-path="url(#p8fe62999ba)">
     <use style="fill:#808080;stroke:#4d4d4d;stroke-width:1.5;" x="0" xlink:href="#m88f2961224" y="496.762969"/>
    </g>
   </g>
   <g id="matplotlib.axis_1">
    <g id="xtick_1">
     <g id="line2d_1">
      <defs>
       <path d="M 0 0 
L 0 3.5 
" id="m3b4de949ab" style="stroke:#000000;stroke-width:0.8;"/>
      </defs>
      <g>
       <use style="stroke:#000000;stroke-width:0.8;" x="62.23" xlink:href="#m3b4de949ab" y="447.398906"/>
      </g>
     </g>
     <g id="text_1">
      <text style="font-family:DejaVu Sans;font-size:14px;font-stretch:normal;font-style:normal;font-weight:normal;" transform="translate(66.093125 482.993906)rotate(-90)">D62</text>
     </g>
    </g>
    <g id="xtick_2">
     <g id="line2d_2">
      <g>
       <use style="stroke:#000000;stroke-width:0.8;" x="87.03" xlink:href="#m3b4de949ab" y="447.398906"/>
      </g>
     </g>
     <g id="text_2">
      <text style="font-family:DejaVu Sans;font-size:14px;font-stretch:normal;font-style:normal;font-weight:normal;" transform="translate(90.893125 482.993906)rotate(-90)">D71</text>
     </g>
    </g>
    <g id="xtick_3">
     <g id="line2d_3">
      <g>
       <use style="stroke:#000000;stroke-width:0.8;" x="111.83" xlink:href="#m3b4de949ab" y="447.398906"/>
      </g>
     </g>
     <g id="text_3">
      <text style="font-family:DejaVu Sans;font-size:14px;font-stretch:normal;font-style:normal;font-weight:normal;" transform="translate(115.693125 481.941719)rotate(-90)">R36</text>
     </g>
    </g>
    <g id="xtick_4">
     <g id="line2d_4">
      <g>
       <use style="stroke:#000000;stroke-width:0.8;" x="136.63" xlink:href="#m3b4de949ab" y="447.398906"/>
      </g>
     </g>
     <g id="text_4">
      <text style="font-family:DejaVu Sans;font-size:14px;font-stretch:normal;font-style:normal;font-weight:normal;" transform="translate(140.493125 489.562969)rotate(-90)">P387</text>
     </g>
    </g>
    <g id="xtick_5">
     <g id="line2d_5">
      <g>
       <use style="stroke:#000000;stroke-width:0.8;" x="161.43" xlink:href="#m3b4de949ab" y="447.398906"/>
      </g>
     </g>
     <g id="text_5">
      <text style="font-family:DejaVu Sans;font-size:14px;font-stretch:normal;font-style:normal;font-weight:normal;" transform="translate(165.293125 489.562969)rotate(-90)">P187</text>
     </g>
    </g>
    <g id="xtick_6">
     <g id="line2d_6">
      <g>
       <use style="stroke:#000000;stroke-width:0.8;" x="186.23" xlink:href="#m3b4de949ab" y="447.398906"/>
      </g>
     </g>
     <g id="text_6">
      <text style="font-family:DejaVu Sans;font-size:14px;font-stretch:normal;font-style:normal;font-weight:normal;" transform="translate(190.093125 489.562969)rotate(-90)">P212</text>
     </g>
    </g>
    <g id="xtick_7">
     <g id="line2d_7">
      <g>
       <use style="stroke:#000000;stroke-width:0.8;" x="211.03" xlink:href="#m3b4de949ab" y="447.398906"/>
      </g>
     </g>
     <g id="text_7">
      <text style="font-family:DejaVu Sans;font-size:14px;font-stretch:normal;font-style:normal;font-weight:normal;" transform="translate(214.893125 482.993906)rotate(-90)">D72</text>
     </g>
    </g>
    <g id="xtick_8">
     <g id="line2d_8">
      <g>
       <use style="stroke:#000000;stroke-width:0.8;" x="235.83" xlink:href="#m3b4de949ab" y="447.398906"/>
      </g>
     </g>
     <g id="text_8">
      <text style="font-family:DejaVu Sans;font-size:14px;font-stretch:normal;font-style:normal;font-weight:normal;" transform="translate(239.693125 482.993906)rotate(-90)">D75</text>
     </g>
    </g>
    <g id="xtick_9">
     <g id="line2d_9">
      <g>
       <use style="stroke:#000000;stroke-width:0.8;" x="260.63" xlink:href="#m3b4de949ab" y="447.398906"/>
      </g>
     </g>
     <g id="text_9">
      <text style="font-family:DejaVu Sans;font-size:14px;font-stretch:normal;font-style:normal;font-weight:normal;" transform="translate(264.493125 482.993906)rotate(-90)">D51</text>
     </g>
    </g>
   </g>
   <g id="matplotlib.axis_2">
    <g id="ytick_1">
     <g id="line2d_10">
      <defs>
       <path d="M 0 0 
L -3.5 0 
" id="me140926ad7" style="stroke:#000000;stroke-width:0.8;"/>
      </defs>
      <g>
       <use style="stroke:#000000;stroke-width:0.8;" x="49.83" xlink:href="#me140926ad7" y="447.398906"/>
      </g>
     </g>
     <g id="text_10">
      <text style="font-family:DejaVu Sans;font-size:14px;font-stretch:normal;font-style:normal;font-weight:normal;text-anchor:end;" transform="rotate(-0, 42.83, 452.717812)" x="42.83" y="452.717812">1000</text>
     </g>
    </g>
    <g id="ytick_2">
     <g id="line2d_11">
      <g>
       <use style="stroke:#000000;stroke-width:0.8;" x="49.83" xlink:href="#me140926ad7" y="393.038906"/>
      </g>
     </g>
     <g id="text_11">
      <text style="font-family:DejaVu Sans;font-size:14px;font-stretch:normal;font-style:normal;font-weight:normal;text-anchor:end;" transform="rotate(-0, 42.83, 398.357813)" x="42.83" y="398.357813">1100</text>
     </g>
    </g>
    <g id="ytick_3">
     <g id="line2d_12">
      <g>
       <use style="stroke:#000000;stroke-width:0.8;" x="49.83" xlink:href="#me140926ad7" y="338.678906"/>
      </g>
     </g>
     <g id="text_12">
      <text style="font-family:DejaVu Sans;font-size:14px;font-stretch:normal;font-style:normal;font-weight:normal;text-anchor:end;" transform="rotate(-0, 42.83, 343.997813)" x="42.83" y="343.997813">1200</text>
     </g>
    </g>
    <g id="ytick_4">
     <g id="line2d_13">
      <g>
       <use style="stroke:#000000;stroke-width:0.8;" x="49.83" xlink:href="#me140926ad7" y="284.318906"/>
      </g>
     </g>
     <g id="text_13">
      <text style="font-family:DejaVu Sans;font-size:14px;font-stretch:normal;font-style:normal;font-weight:normal;text-anchor:end;" transform="rotate(-0, 42.83, 289.637812)" x="42.83" y="289.637812">1300</text>
     </g>
    </g>
    <g id="ytick_5">
     <g id="line2d_14">
      <g>
       <use style="stroke:#000000;stroke-width:0.8;" x="49.83" xlink:href="#me140926ad7" y="229.958906"/>
      </g>
     </g>
     <g id="text_14">
      <text style="font-family:DejaVu Sans;font-size:14px;font-stretch:normal;font-style:normal;font-weight:normal;text-anchor:end;" transform="rotate(-0, 42.83, 235.277812)" x="42.83" y="235.277812">1400</text>
     </g>
    </g>
    <g id="ytick_6">
     <g id="line2d_15">
      <g>
       <use style="stroke:#000000;stroke-width:0.8;" x="49.83" xlink:href="#me140926ad7" y="175.598906"/>
      </g>
     </g>
     <g id="text_15">
      <text style="font-family:DejaVu Sans;font-size:14px;font-stretch:normal;font-style:normal;font-weight:normal;text-anchor:end;" transform="rotate(-0, 42.83, 180.917812)" x="42.83" y="180.917812">1500</text>
     </g>
    </g>
    <g id="ytick_7">
     <g id="line2d_16">
      <g>
       <use style="stroke:#000000;stroke-width:0.8;" x="49.83" xlink:href="#me140926ad7" y="121.238906"/>
      </g>
     </g>
     <g id="text_16">
      <text style="font-family:DejaVu Sans;font-size:14px;font-stretch:normal;font-style:normal;font-weight:normal;text-anchor:end;" transform="rotate(-0, 42.83, 126.557812)" x="42.83" y="126.557812">1600</text>
     </g>
    </g>
    <g id="ytick_8">
     <g id="line2d_17">
      <g>
       <use style="stroke:#000000;stroke-width:0.8;" x="49.83" xlink:href="#me140926ad7" y="66.878906"/>
      </g>
     </g>
     <g id="text_17">
      <text style="font-family:DejaVu Sans;font-size:14px;font-stretch:normal;font-style:normal;font-weight:normal;text-anchor:end;" transform="rotate(-0, 42.83, 72.197812)" x="42.83" y="72.197812">1700</text>
     </g>
    </g>
    <g id="ytick_9">
     <g id="line2d_18">
      <g>
       <use style="stroke:#000000;stroke-width:0.8;" x="49.83" xlink:href="#me140926ad7" y="12.518906"/>
      </g>
     </g>
     <g id="text_18">
      <text style="font-family:DejaVu Sans;font-size:14px;font-stretch:normal;font-style:normal;font-weight:normal;text-anchor:end;" transform="rotate(-0, 42.83, 17.837813)" x="42.83" y="17.837813">1800</text>
     </g>
    </g>
   </g>
   <g id="patch_3">
    <path d="M 49.83 447.398906 
L 49.83 12.518906 
" style="fill:none;stroke:#000000;stroke-linecap:square;stroke-linejoin:miter;stroke-width:0.8;"/>
   </g>
   <g id="patch_4">
    <path d="M 273.03 447.398906 
L 273.03 12.518906 
" style="fill:none;stroke:#000000;stroke-linecap:square;stroke-linejoin:miter;stroke-width:0.8;"/>
   </g>
   <g id="patch_5">
    <path d="M 49.83 447.398906 
L 273.03 447.398906 
" style="fill:none;stroke:#000000;stroke-linecap:square;stroke-linejoin:miter;stroke-width:0.8;"/>
   </g>
   <g id="patch_6">
    <path d="M 49.83 12.518906 
L 273.03 12.518906 
" style="fill:none;stroke:#000000;stroke-linecap:square;stroke-linejoin:miter;stroke-width:0.8;"/>
   </g>
  </g>
 </g>
 <defs>
  <clipPath id="p8fe62999ba">
   <rect height="434.88" width="223.2" x="49.83" y="12.518906"/>
  </clipPath>
 </defs>
</svg>
