<?xml version="1.0" encoding="utf-8"?>
<!-- Generator: Adobe Illustrator 25.2.0, SVG Export Plug-In . SVG Version: 6.00 Build 0)  -->
<svg version="1.1" xmlns="http://www.w3.org/2000/svg" xmlns:xlink="http://www.w3.org/1999/xlink" x="0px" y="0px"
	 viewBox="0 0 595.3 841.9" style="enable-background:new 0 0 595.3 841.9;" xml:space="preserve">
<style type="text/css">
	.st0{fill:#FFFFFF;}
	.st1{fill:none;stroke:#000000;stroke-linecap:round;stroke-linejoin:round;stroke-miterlimit:10;}
	.st2{font-family:'ArialMT';}
	.st3{font-size:8px;}
	.st4{fill:none;stroke:#000000;stroke-miterlimit:10;}
	.st5{font-family:'Arial-BoldMT';}
	.st6{font-size:12px;}
</style>
<g id="Sites">
	<g id="Site_Rectangles">
		<path class="st0" d="M103.3,626.3c0,2.8-2.2,5-5,5H57c-2.8,0-5-2.2-5-5v-6.1c0-2.8,2.2-5,5-5h41.3c2.8,0,5,2.2,5,5V626.3z"/>
		<path class="st1" d="M103.3,626.3c0,2.8-2.2,5-5,5H57c-2.8,0-5-2.2-5-5v-6.1c0-2.8,2.2-5,5-5h41.3c2.8,0,5,2.2,5,5V626.3z"/>
	</g>
</g>
<g id="X_Axis">
	<g id="Site_Labels">
		<text transform="matrix(1 0 0 1 55.7733 626.3632)" class="st2 st3">ASR 13/13II</text>
		<g id="Site_Rectangles_1_">
			<path class="st0" d="M384.4,537.6c0,2.8-2.2,5-5,5H204c-2.8,0-5-2.2-5-5v-6.1c0-2.8,2.2-5,5-5h175.5c2.8,0,5,2.2,5,5V537.6z"/>
			<path class="st1" d="M384.4,537.6c0,2.8-2.2,5-5,5H204c-2.8,0-5-2.2-5-5v-6.1c0-2.8,2.2-5,5-5h175.5c2.8,0,5,2.2,5,5V537.6z"/>
		</g>
		<text transform="matrix(1 0 0 1 274.4748 537.6401)" class="st2 st3">ASR 1015</text>
		<g id="Site_Rectangles_3_">
			<path class="st0" d="M390,626.3c0,2.8-2.2,5-5,5H209.6c-2.8,0-5-2.2-5-5v-6.1c0-2.8,2.2-5,5-5H385c2.8,0,5,2.2,5,5V626.3z"/>
			<path class="st1" d="M390,626.3c0,2.8-2.2,5-5,5H209.6c-2.8,0-5-2.2-5-5v-6.1c0-2.8,2.2-5,5-5H385c2.8,0,5,2.2,5,5V626.3z"/>
		</g>
		<text transform="matrix(1 0 0 1 277.6692 626.3632)" class="st2 st3">ASR 13/13II</text>
		<g id="Site_Rectangles_5_">
			<path class="st0" d="M103.3,607.9c0,2.8-2.2,5-5,5H57c-2.8,0-5-2.2-5-5v-6.1c0-2.8,2.2-5,5-5h41.3c2.8,0,5,2.2,5,5V607.9z"/>
			<path class="st1" d="M103.3,607.9c0,2.8-2.2,5-5,5H57c-2.8,0-5-2.2-5-5v-6.1c0-2.8,2.2-5,5-5h41.3c2.8,0,5,2.2,5,5V607.9z"/>
		</g>
		<text transform="matrix(1 0 0 1 59.535 608.0931)" class="st2 st3">ASR 2391</text>
		<g id="Site_Rectangles_8_">
			<path class="st0" d="M232.3,588.2c0,2.8-2.2,5-5,5H108.3c-2.8,0-5-2.2-5-5v-6.1c0-2.8,2.2-5,5-5h118.9c2.8,0,5,2.2,5,5V588.2z"/>
			<path class="st1" d="M232.3,588.2c0,2.8-2.2,5-5,5H108.3c-2.8,0-5-2.2-5-5v-6.1c0-2.8,2.2-5,5-5h118.9c2.8,0,5,2.2,5,5V588.2z"/>
		</g>
		<text transform="matrix(1 0 0 1 147.5204 588.3509)" class="st2 st3">FHM 3970</text>
		<g id="Site_Rectangles_4_">
			<path class="st0" d="M518.2,588.2c0,2.8-2.2,5-5,5h-94.1c-2.8,0-5-2.2-5-5v-6.1c0-2.8,2.2-5,5-5h94.1c2.8,0,5,2.2,5,5V588.2z"/>
			<path class="st1" d="M518.2,588.2c0,2.8-2.2,5-5,5h-94.1c-2.8,0-5-2.2-5-5v-6.1c0-2.8,2.2-5,5-5h94.1c2.8,0,5,2.2,5,5V588.2z"/>
		</g>
		<text transform="matrix(1 0 0 1 447.0317 588.2554)" class="st2 st3">HOM 1272</text>
		<g id="Site_Rectangles_11_">
			<path class="st0" d="M390.4,504.2c0,2.8-2.2,5-5,5H209.9c-2.8,0-5-2.2-5-5v-6.1c0-2.8,2.2-5,5-5h175.5c2.8,0,5,2.2,5,5V504.2z"/>
			<path class="st1" d="M390.4,504.2c0,2.8-2.2,5-5,5H209.9c-2.8,0-5-2.2-5-5v-6.1c0-2.8,2.2-5,5-5h175.5c2.8,0,5,2.2,5,5V504.2z"/>
		</g>
		<text transform="matrix(1 0 0 1 280.4008 504.321)" class="st2 st3">HOM 1649</text>
	</g>
	<line id="Axis_1_" class="st4" x1="559.5" y1="633.6" x2="49.7" y2="633.6"/>
	<g id="X_Axis_Labels">
		<text transform="matrix(1 0 0 1 40.1035 656.2114)" class="st5 st6">900</text>
		<text transform="matrix(1 0 0 1 88.6839 656.2115)" class="st5 st6">1000</text>
		<text transform="matrix(1 0 0 1 140.9323 656.2115)" class="st5 st6">1100</text>
		<text transform="matrix(1 0 0 1 192.5185 656.2113)" class="st5 st6">1200</text>
		<text transform="matrix(1 0 0 1 244.4354 656.2117)" class="st5 st6">1300</text>
		<text transform="matrix(1 0 0 1 296.3528 656.2111)" class="st5 st6">1400</text>
		<text transform="matrix(1 0 0 1 348.2702 656.2114)" class="st5 st6">1500</text>
		<text transform="matrix(1 0 0 1 400.1871 656.2115)" class="st5 st6">1600</text>
		<text transform="matrix(1 0 0 1 452.1046 656.2109)" class="st5 st6">1700</text>
		<text transform="matrix(1 0 0 1 504.0212 656.3679)" class="st5 st6">1800</text>
	</g>
	<g id="X_Axis_Ticks">
		<line class="st4" x1="466.2" y1="645.1" x2="466.2" y2="633.6"/>
		<line class="st4" x1="414.1" y1="645.1" x2="414.1" y2="633.6"/>
		<line class="st4" x1="362.1" y1="645.1" x2="362.1" y2="633.6"/>
		<line class="st4" x1="310" y1="645.1" x2="310" y2="633.6"/>
		<line class="st4" x1="257.9" y1="645.1" x2="257.9" y2="633.6"/>
		<line class="st4" x1="205.9" y1="645.1" x2="205.9" y2="633.6"/>
		<line class="st4" x1="153.8" y1="645.1" x2="153.8" y2="633.6"/>
		<line class="st4" x1="101.7" y1="645.1" x2="101.7" y2="633.6"/>
		<line class="st4" x1="49.7" y1="645.1" x2="49.7" y2="633.6"/>
		<line class="st4" x1="518.2" y1="645.1" x2="518.2" y2="633.6"/>
	</g>
</g>
<g id="Y_Axis_1_">
	<line id="Axis" class="st4" x1="49.7" y1="428.7" x2="49.7" y2="634.2"/>
</g>
</svg>
