<?xml version="1.0" encoding="utf-8"?>
<!-- Generator: Adobe Illustrator 25.2.0, SVG Export Plug-In . SVG Version: 6.00 Build 0)  -->
<svg version="1.1" xmlns="http://www.w3.org/2000/svg" xmlns:xlink="http://www.w3.org/1999/xlink" x="0px" y="0px"
	 viewBox="0 0 1362.3 572.2" style="enable-background:new 0 0 1362.3 572.2;" xml:space="preserve">
<style type="text/css">
	.st0{fill:none;stroke:#000000;stroke-miterlimit:10;}
	.st1{display:none;}
	.st2{font-family:'ArialMT';}
	.st3{font-size:14px;}
	.st4{font-size:18px;}
	.st5{font-family:'Arial-BoldMT';}
	.st6{font-size:26px;}
	.st7{display:inline;}
	.st8{opacity:0.25;fill:#FF0000;stroke:#FF0000;stroke-miterlimit:10;}
	.st9{fill:none;stroke:#FF0000;stroke-miterlimit:10;}
	.st10{fill:none;stroke:#FF0000;stroke-linecap:square;stroke-miterlimit:10;}
	.st11{opacity:0.25;fill:#FF964F;stroke:#FF964F;stroke-miterlimit:10;}
	.st12{fill:none;stroke:#FF964F;stroke-miterlimit:10;}
	.st13{fill:none;stroke:#FF964F;stroke-linecap:square;stroke-miterlimit:10;}
	.st14{opacity:0.25;fill:#E6CE74;stroke:#E6CE74;stroke-miterlimit:10;}
	.st15{fill:none;stroke:#E6CE74;stroke-miterlimit:10;}
	.st16{fill:none;stroke:#E6CE74;stroke-linecap:square;stroke-miterlimit:10;}
	.st17{opacity:0.25;fill:#B3F396;stroke:#B3F396;stroke-miterlimit:10;}
	.st18{fill:none;stroke:#B3F396;stroke-width:2;stroke-miterlimit:10;}
	.st19{fill:none;stroke:#B3F396;stroke-linecap:square;stroke-miterlimit:10;}
	.st20{opacity:0.25;fill:#4DF3CE;stroke:#4DF3CE;stroke-miterlimit:10;}
	.st21{fill:none;stroke:#4DF3CE;stroke-miterlimit:10;}
	.st22{fill:none;stroke:#4DF3CE;stroke-linecap:square;stroke-miterlimit:10;}
	.st23{opacity:0.25;fill:#1996F3;stroke:#1996F3;stroke-miterlimit:10;}
	.st24{fill:none;stroke:#1996F3;stroke-miterlimit:10;}
	.st25{fill:none;stroke:#1996F3;stroke-linecap:square;stroke-miterlimit:10;}
	.st26{opacity:0.25;fill:#4C4FFC;stroke:#4C4FFC;stroke-miterlimit:10;}
	.st27{fill:none;stroke:#4C4FFC;stroke-width:2;stroke-miterlimit:10;}
	.st28{fill:none;stroke:#4C4FFC;stroke-linecap:square;stroke-miterlimit:10;}
	.st29{opacity:0.25;fill:#8000FF;stroke:#8000FF;stroke-miterlimit:10;}
	.st30{fill:none;stroke:#8000FF;stroke-miterlimit:10;}
	.st31{fill:none;stroke:#8000FF;stroke-linecap:square;stroke-miterlimit:10;}
	.st32{letter-spacing:20;}
	.st33{font-size:8px;}
	.st34{opacity:0.25;fill:#FF0000;}
	.st35{opacity:0.1255;fill:none;stroke:#FF0000;stroke-miterlimit:10;}
	.st36{fill:none;stroke:#FF0000;stroke-width:2;stroke-miterlimit:10;}
	.st37{opacity:0.1255;fill:none;stroke:#FF964F;stroke-miterlimit:10;}
	.st38{opacity:0.25;fill:#E6CE74;}
	.st39{opacity:0.1255;fill:none;stroke:#E6CE74;stroke-miterlimit:10;}
	.st40{opacity:0.25;fill:#B3F396;}
	.st41{opacity:0.1255;fill:none;stroke:#B3F396;stroke-miterlimit:10;}
	.st42{fill:none;stroke:#B3F396;stroke-miterlimit:10;}
	.st43{opacity:0.25;fill:#4DF3CE;}
	.st44{opacity:0.1255;fill:none;stroke:#4DF3CE;stroke-miterlimit:10;}
	.st45{opacity:0.25;fill:#1996F3;}
	.st46{opacity:0.1255;fill:none;stroke:#1996F3;stroke-miterlimit:10;}
	.st47{opacity:0.25;fill:#4C4FFC;}
	.st48{fill:none;stroke:#4C4FFC;stroke-miterlimit:10;}
	.st49{opacity:0.25;fill:#8000FF;}
	.st50{fill:#8000FF;stroke:#8000FF;stroke-miterlimit:10;}
	.st51{display:none;fill:#8000FF;stroke:#8000FF;stroke-linecap:square;stroke-miterlimit:10;}
	.st52{opacity:0.25;fill:#FF964F;}
</style>
<g id="X_Axis">
	<g id="X_Ticks">
		<line class="st0" x1="168.6" y1="470.1" x2="168.6" y2="474.1"/>
		<line class="st0" x1="260.7" y1="470.1" x2="260.7" y2="474.1"/>
		<line class="st0" x1="358" y1="470.1" x2="358" y2="474.1"/>
		<line class="st0" x1="441" y1="470.1" x2="441" y2="474.1"/>
		<line class="st0" x1="537.1" y1="470.1" x2="537.1" y2="474.1"/>
		<line class="st0" x1="637.1" y1="470.1" x2="637.1" y2="474.1"/>
		<line class="st0" x1="735.7" y1="470.1" x2="735.7" y2="474.1"/>
		<line class="st0" x1="841" y1="470.1" x2="841" y2="474.1"/>
		<line class="st0" x1="949.8" y1="470.1" x2="949.8" y2="474.1"/>
		<line class="st0" x1="1160.7" y1="470.3" x2="1160.7" y2="474.3"/>
		<line class="st0" x1="1259.2" y1="470.3" x2="1259.2" y2="474.3"/>
		<line class="st0" x1="1059.5" y1="470.8" x2="1059.5" y2="474.8"/>
	</g>
	<g id="X_Labels">
		<text transform="matrix(1 0 0 1 644.327 491.4396)" class="st1 st2 st3">1.ORI</text>
		<text transform="matrix(1 0 0 1 517.7974 491.4396)" class="st1 st2 st3">1.ANT</text>
		<text transform="matrix(1 0 0 1 763.4924 490.9357)" class="st1 st2 st3">1.PRE</text>
		<text transform="matrix(1 0 0 1 888.6541 491.6076)" class="st1 st2 st3">2.MED</text>
		<text transform="matrix(1 0 0 1 608.673 497.7347)" class="st2 st4">4.ANT</text>
		<text transform="matrix(1 0 0 1 410.7894 497.063)" class="st2 st4">0.ANT4</text>
		<text transform="matrix(1 0 0 1 242.6666 497.2308)" class="st2 st4">0.PE</text>
		<text transform="matrix(1 0 0 1 142.4856 497.0628)" class="st2 st4">0.PRE</text>
		<text transform="matrix(1 0 0 1 329.8539 497.3989)" class="st2 st4">0.ANT</text>
		<text transform="matrix(1 0 0 1 511.5132 497.0629)" class="st2 st4">3.ANT</text>
		<text transform="matrix(1 0 0 1 711.2766 497.0627)" class="st2 st4">2.ANT</text>
		<text transform="matrix(1 0 0 1 814.222 497.7346)" class="st2 st4">2.MED</text>
		<text transform="matrix(1 0 0 1 923.0456 497.7577)" class="st2 st4">1.PRE</text>
		<text transform="matrix(1 0 0 1 1139.9966 497.2841)" class="st2 st4">1.IN</text>
		<text transform="matrix(1 0 0 1 1238.5454 497.2843)" class="st2 st4">1.ORI</text>
		<text transform="matrix(1 0 0 1 1032.7156 498.4296)" class="st2 st4">1.ANT</text>
	</g>
	<text transform="matrix(1 0 0 1 674.0669 540.2048)" class="st5 st6">Clade</text>
</g>
<g id="Coefficient_of_Variation" class="st1">
	<g id="Boxplot_1_" class="st7">
		<g id="_x31_.ORI">
			<rect x="1220.5" y="383.9" class="st8" width="77.4" height="39.2"/>
			<line class="st9" x1="1220.5" y1="406.3" x2="1297.9" y2="406.3"/>
			<path class="st10" d="M1259.2,383.9v-32.1 M1259.2,427.9V423"/>
			<rect x="1220.5" y="383.9" class="st10" width="77.4" height="39.2"/>
		</g>
		<g id="_x31_.ANT_1_">
			<rect x="1020.8" y="372" class="st11" width="77.4" height="98"/>
			<line class="st12" x1="1020.8" y1="447.9" x2="1098.2" y2="447.9"/>
			<path class="st13" d="M1059.5,372v-14.9 M1059.5,470L1059.5,470"/>
			<rect x="1020.8" y="372" class="st13" width="77.4" height="98"/>
		</g>
		<g id="_x31_.PRE_1_">
			<rect x="911.1" y="320.6" class="st14" width="77.4" height="93.3"/>
			<line class="st15" x1="911.1" y1="375.1" x2="988.6" y2="375.1"/>
			<path class="st16" d="M949.8,320.6V135.4 M949.8,425.1v-11.2"/>
			<rect x="911.1" y="320.6" class="st16" width="77.4" height="93.3"/>
		</g>
		<g id="_x32_.MED_1_">
			<rect x="802.3" y="308.4" class="st17" width="77.4" height="58.6"/>
			<line class="st18" x1="802.3" y1="338.4" x2="879.7" y2="338.4"/>
			<path class="st19" d="M841,308.4v-98.6 M841,372.8V367"/>
			<rect x="802.3" y="308.4" class="st19" width="77.4" height="58.6"/>
		</g>
		<g id="_x34_.ANT_1_">
			<rect x="598.4" y="304.5" class="st20" width="77.4" height="109.1"/>
			<line class="st21" x1="598.4" y1="365.2" x2="675.8" y2="365.2"/>
			<path class="st22" d="M637.1,304.5v-37.4 M637.1,428.4v-14.8"/>
			<rect x="598.4" y="304.5" class="st22" width="77.4" height="109.1"/>
		</g>
		<g id="_x30_.ANT4_1_">
			<rect x="402.3" y="288.2" class="st23" width="77.4" height="117.1"/>
			<line class="st24" x1="402.3" y1="355.4" x2="479.7" y2="355.4"/>
			<path class="st25" d="M441,288.2v-30.4 M441,418.1v-12.8"/>
			<rect x="402.3" y="288.2" class="st25" width="77.4" height="117.1"/>
		</g>
		<g id="_x30_.PE_1_">
			<rect x="222" y="341.8" class="st26" width="77.4" height="49.9"/>
			<line class="st27" x1="222" y1="366.6" x2="299.5" y2="366.6"/>
			<path class="st28" d="M260.7,341.8V218.9 M260.7,399.7v-8"/>
			<rect x="222" y="341.8" class="st28" width="77.4" height="49.9"/>
		</g>
		<g id="_x30_.PRE_1_">
			<rect x="129.9" y="324.9" class="st29" width="77.4" height="105.5"/>
			<line class="st30" x1="129.9" y1="387.2" x2="207.3" y2="387.2"/>
			<path class="st31" d="M168.6,324.9v-27.1 M168.6,436.7v-6.3"/>
			<rect x="129.9" y="324.9" class="st31" width="77.4" height="105.5"/>
		</g>
	</g>
	<g id="Y_Axis_1_" class="st7">
		<g id="Y_Ticks_1_">
			<line class="st0" x1="106.8" y1="470" x2="102.8" y2="470"/>
			<line class="st0" x1="106.8" y1="447" x2="104.8" y2="447"/>
			<line class="st0" x1="106.8" y1="423.9" x2="102.8" y2="423.9"/>
			<line class="st0" x1="106.8" y1="400.8" x2="104.8" y2="400.8"/>
			<line class="st0" x1="106.8" y1="377.8" x2="102.8" y2="377.8"/>
			<line class="st0" x1="106.8" y1="354.7" x2="104.8" y2="354.7"/>
			<line class="st0" x1="106.8" y1="331.7" x2="102.8" y2="331.7"/>
			<line class="st0" x1="106.8" y1="308.6" x2="104.8" y2="308.6"/>
			<line class="st0" x1="106.8" y1="285.6" x2="102.8" y2="285.6"/>
			<line class="st0" x1="106.8" y1="262.5" x2="104.8" y2="262.5"/>
			<line class="st0" x1="106.8" y1="239.5" x2="102.8" y2="239.5"/>
			<line class="st0" x1="106.8" y1="216.4" x2="104.8" y2="216.4"/>
			<line class="st0" x1="106.8" y1="193.3" x2="102.8" y2="193.3"/>
			<line class="st0" x1="106.8" y1="170.3" x2="104.8" y2="170.3"/>
			<line class="st0" x1="106.8" y1="147.2" x2="102.8" y2="147.2"/>
			<line class="st0" x1="106.8" y1="124.2" x2="104.8" y2="124.2"/>
			<line class="st0" x1="106.8" y1="101.1" x2="102.8" y2="101.1"/>
		</g>
		<g id="Y_Labels_1_">
			<text transform="matrix(-6.123234e-17 -1 1 -6.123234e-17 47.6397 400.8419)" class="st5 st6">Coefficient of Variation</text>
			<text transform="matrix(1 0 0 1 84.2784 477.2906)" class="st2 st4">0</text>
			<text transform="matrix(1 0 0 1 84.2785 430.3813)"><tspan x="0" y="0" class="st2 st4">1</tspan><tspan x="10" y="0" class="st2 st4 st32">	</tspan></text>
			<text transform="matrix(1 0 0 1 84.2787 380.5036)" class="st2 st4">2</text>
			<text transform="matrix(1 0 0 1 84.2786 336.334)" class="st2 st4">3</text>
			<text transform="matrix(1 0 0 1 84.2788 288.6841)" class="st2 st4">4</text>
			<text transform="matrix(1 0 0 1 84.2787 244.8336)" class="st2 st4">5</text>
			<text transform="matrix(1 0 0 1 84.2787 198.4931)" class="st2 st4">6</text>
			<text transform="matrix(1 0 0 1 84.2787 151.7697)" class="st2 st4">7</text>
			<text transform="matrix(1 0 0 1 84.2787 107.3439)" class="st2 st4">8</text>
		</g>
	</g>
</g>
<g id="Substitution_Rate">
	<g id="Y_Axis">
		<g id="Y_Ticks">
			<line class="st0" x1="106.9" y1="470.1" x2="102.9" y2="470.1"/>
			<line class="st0" x1="106.9" y1="447" x2="104.9" y2="447"/>
			<line class="st0" x1="106.9" y1="424" x2="102.9" y2="424"/>
			<line class="st0" x1="106.9" y1="400.9" x2="104.9" y2="400.9"/>
			<line class="st0" x1="106.9" y1="377.9" x2="102.9" y2="377.9"/>
			<line class="st0" x1="106.9" y1="354.8" x2="104.9" y2="354.8"/>
			<line class="st0" x1="106.9" y1="331.8" x2="102.9" y2="331.8"/>
			<line class="st0" x1="106.9" y1="308.7" x2="104.9" y2="308.7"/>
			<line class="st0" x1="106.9" y1="285.6" x2="102.9" y2="285.6"/>
			<line class="st0" x1="106.9" y1="262.6" x2="104.9" y2="262.6"/>
			<line class="st0" x1="106.9" y1="239.5" x2="102.9" y2="239.5"/>
			<line class="st0" x1="106.9" y1="216.5" x2="104.9" y2="216.5"/>
			<line class="st0" x1="106.9" y1="193.4" x2="102.9" y2="193.4"/>
			<line class="st0" x1="106.9" y1="170.4" x2="104.9" y2="170.4"/>
			<line class="st0" x1="106.9" y1="147.3" x2="102.9" y2="147.3"/>
			<line class="st0" x1="106.9" y1="124.3" x2="104.9" y2="124.3"/>
			<line class="st0" x1="106.9" y1="101.2" x2="102.9" y2="101.2"/>
			<line class="st0" x1="106.9" y1="78.1" x2="104.9" y2="78.1"/>
			<line class="st0" x1="106.9" y1="55.1" x2="102.9" y2="55.1"/>
		</g>
		<g id="Y_Labels">
			<text transform="matrix(1 0 0 1 70.4522 428.9861)" class="st2 st4">1.0</text>
			<text transform="matrix(1 0 0 1 70.4523 381.1484)" class="st2 st4">2.0</text>
			<text transform="matrix(1 0 0 1 70.4524 334.2672)" class="st2 st4">3.0</text>
			<text transform="matrix(1 0 0 1 70.4523 290.0587)" class="st2 st4">4.0</text>
			<text transform="matrix(1 0 0 1 70.4522 244.4248)" class="st2 st4">5.0</text>
			<text transform="matrix(1 0 0 1 70.4524 197.1581)" class="st2 st4">6.0</text>
			<text transform="matrix(1 0 0 1 70.4525 152.1868)" class="st2 st4">7.0</text>
			<text transform="matrix(1 0 0 1 70.4525 105.0805)" class="st2 st4">8.0</text>
			<text transform="matrix(1 0 0 1 70.4525 60.4342)" class="st2 st4">9.0</text>
			<text transform="matrix(1 0 0 1 71.9638 473.8827)" class="st2 st4">0.0</text>
			<text transform="matrix(1 0 0 1 97.4886 38.7197)" class="st2 st4">e</text>
			<text transform="matrix(1 0 0 1 114.2524 33.319)" class="st2 st33">-7</text>
		</g>
	</g>
	<g id="Boxplot">
		<g id="_1.ORI">
			<rect x="1222.2" y="399.4" class="st34" width="74" height="22.7"/>
			<rect x="1222.2" y="399.4" class="st35" width="74" height="22.7"/>
			<line class="st36" x1="1222.2" y1="410.7" x2="1296.2" y2="410.7"/>
			<path class="st10" d="M1259.2,399.4v-7.2 M1259.2,432.4V422"/>
			<rect x="1222.2" y="399.4" class="st10" width="74" height="22.7"/>
		</g>
		<g id="_x31_.ANT">
			<rect x="1022.5" y="425.7" class="st37" width="74" height="27.7"/>
			<line class="st12" x1="1022.5" y1="440.2" x2="1096.5" y2="440.2"/>
			<path class="st13" d="M1059.5,425.7v-21 M1059.5,459.6v-6.1"/>
			<rect x="1022.5" y="425.7" class="st13" width="74" height="27.7"/>
		</g>
		<g id="_x31_.PRE">
			<rect x="912.8" y="442.9" class="st38" width="74" height="10.9"/>
			<rect x="912.8" y="442.9" class="st39" width="74" height="10.2"/>
			<line class="st15" x1="912.8" y1="448.1" x2="986.8" y2="448.1"/>
			<path class="st16" d="M949.8,442.9v-4.6 M949.8,456.9V453"/>
			<rect x="912.8" y="442.9" class="st16" width="74" height="10.2"/>
		</g>
		<g id="_x32_.MED">
			<rect x="804" y="331.4" class="st40" width="74" height="50.6"/>
			<rect x="804" y="331.4" class="st41" width="74" height="50.6"/>
			<line class="st42" x1="804" y1="355.4" x2="878" y2="355.4"/>
			<path class="st19" d="M841,331.4v-12.1 M841,396.4V382"/>
			<rect x="804" y="331.4" class="st19" width="74" height="50.6"/>
		</g>
		<g id="_x34_.ANT">
			<rect x="600.1" y="397.8" class="st43" width="74" height="55.7"/>
			<rect x="600.1" y="397.8" class="st44" width="74" height="55.7"/>
			<line class="st21" x1="600.1" y1="426.8" x2="674.1" y2="426.8"/>
			<path class="st22" d="M637.1,397.8v-40.4 M637.1,462.8v-9.3"/>
			<rect x="600.1" y="397.8" class="st22" width="74" height="55.7"/>
		</g>
		<g id="_x30_.ANT4">
			<rect x="404" y="448.5" class="st45" width="74" height="10.8"/>
			<rect x="404" y="448.5" class="st46" width="74" height="10.8"/>
			<line class="st24" x1="404" y1="453.9" x2="478" y2="453.9"/>
			<path class="st25" d="M441,448.5v-4.1 M441,463.7v-4.3"/>
			<rect x="404" y="448.5" class="st25" width="74" height="10.8"/>
		</g>
		<g id="_x30_.PE">
			<rect x="223.7" y="115.1" class="st47" width="74" height="155.5"/>
			<line class="st48" x1="223.7" y1="188.6" x2="297.7" y2="188.6"/>
			<path class="st28" d="M260.7,115.1V73 M260.7,330v-59.4"/>
			<rect x="223.7" y="115.1" class="st28" width="74" height="155.5"/>
		</g>
		<g id="_x30_.PRE">
			<rect x="131.6" y="440.6" class="st49" width="74" height="11.7"/>
			<rect x="131.6" y="440.2" class="st30" width="74" height="11.7"/>
			<line class="st50" x1="131.6" y1="445.9" x2="205.6" y2="445.9"/>
			<path class="st50" d="M168.6,440.2v-3 M168.6,456.1v-4.3"/>
			<rect x="131.6" y="440.2" class="st51" width="74" height="11.7"/>
		</g>
		<rect x="1022.5" y="425.7" class="st52" width="74" height="27.7"/>
		<text transform="matrix(4.489659e-11 -1 1 4.489659e-11 40.1856 381.1486)" class="st5 st6">Subsitution Rate</text>
	</g>
</g>
<g id="Frame_1_">
	<rect id="Frame" x="106.9" y="55.1" class="st0" width="1228.5" height="415"/>
</g>
<g id="Layer_6">
</g>
</svg>
