<?xml version="1.0" encoding="utf-8"?>
<!-- Generator: Adobe Illustrator 25.2.0, SVG Export Plug-In . SVG Version: 6.00 Build 0)  -->
<svg version="1.1" id="Layer_1" xmlns="http://www.w3.org/2000/svg" xmlns:xlink="http://www.w3.org/1999/xlink" x="0px" y="0px"
	 viewBox="0 0 1070 450" style="enable-background:new 0 0 1070 450;" xml:space="preserve">
<style type="text/css">
	.st0{clip-path:url(#SVGID_2_);}
	.st1{clip-path:url(#SVGID_4_);}
	.st2{clip-path:url(#SVGID_6_);}
	.st3{clip-path:url(#SVGID_8_);}
	.st4{clip-path:url(#SVGID_10_);}
	.st5{clip-path:url(#SVGID_14_);}
	.st6{clip-path:url(#SVGID_16_);}
	.st7{clip-path:url(#SVGID_18_);}
	.st8{clip-path:url(#SVGID_20_);}
	.st9{clip-path:url(#SVGID_22_);}
	.st10{font-family:'ArialMT';}
	.st11{font-size:11px;}
	.st12{clip-path:url(#SVGID_24_);}
	.st13{clip-path:url(#SVGID_26_);}
	.st14{clip-path:url(#SVGID_28_);}
	.st15{clip-path:url(#SVGID_30_);}
	.st16{clip-path:url(#SVGID_32_);}
	.st17{clip-path:url(#SVGID_34_);}
	.st18{clip-path:url(#SVGID_38_);}
	.st19{clip-path:url(#SVGID_40_);}
	.st20{clip-path:url(#SVGID_42_);}
	.st21{clip-path:url(#SVGID_44_);}
	.st22{clip-path:url(#SVGID_46_);}
	.st23{clip-path:url(#SVGID_48_);}
	.st24{clip-path:url(#SVGID_52_);}
	.st25{clip-path:url(#SVGID_54_);}
	.st26{clip-path:url(#SVGID_56_);}
	.st27{clip-path:url(#SVGID_58_);}
	.st28{clip-path:url(#SVGID_60_);fill:#FFFFFF;}
	.st29{clip-path:url(#SVGID_62_);fill:none;stroke:#C0C0C0;stroke-linejoin:bevel;stroke-miterlimit:10;}
	.st30{opacity:0.1255;clip-path:url(#SVGID_62_);fill:#2F8AA3;}
	.st31{clip-path:url(#SVGID_62_);fill:none;stroke:#2F8AA3;stroke-width:2;stroke-miterlimit:10;}
	.st32{clip-path:url(#SVGID_62_);fill:none;stroke:#2F8AA3;stroke-linecap:square;stroke-miterlimit:10;}
	.st33{clip-path:url(#SVGID_58_);fill:none;stroke:#000000;stroke-miterlimit:10;}
	.st34{font-size:12px;}
</style>
<g>
	<defs>
		<rect id="SVGID_1_" width="1070" height="450"/>
	</defs>
	<clipPath id="SVGID_2_">
		<use xlink:href="#SVGID_1_"  style="overflow:visible;"/>
	</clipPath>
	<g class="st0">
		<defs>
			<rect id="SVGID_3_" width="1070" height="450"/>
		</defs>
		<clipPath id="SVGID_4_">
			<use xlink:href="#SVGID_3_"  style="overflow:visible;"/>
		</clipPath>
		<g class="st1">
			<defs>
				<rect id="SVGID_5_" width="1070" height="450"/>
			</defs>
			<clipPath id="SVGID_6_">
				<use xlink:href="#SVGID_5_"  style="overflow:visible;"/>
			</clipPath>
			<g class="st2">
				<defs>
					<rect id="SVGID_7_" width="1070" height="450"/>
				</defs>
				<clipPath id="SVGID_8_">
					<use xlink:href="#SVGID_7_"  style="overflow:visible;"/>
				</clipPath>
				<g class="st3">
					<defs>
						<rect id="SVGID_9_" width="1070" height="450"/>
					</defs>
					<clipPath id="SVGID_10_">
						<use xlink:href="#SVGID_9_"  style="overflow:visible;"/>
					</clipPath>
					<g class="st4">
						<defs>
							<rect id="SVGID_11_" width="1070" height="450"/>
						</defs>
						<clipPath id="SVGID_12_">
							<use xlink:href="#SVGID_11_"  style="overflow:visible;"/>
						</clipPath>
					</g>
				</g>
				<g class="st3">
					<defs>
						<rect id="SVGID_13_" width="1070" height="450"/>
					</defs>
					<clipPath id="SVGID_14_">
						<use xlink:href="#SVGID_13_"  style="overflow:visible;"/>
					</clipPath>
					<g class="st5">
						<defs>
							<rect id="SVGID_15_" width="1070" height="450"/>
						</defs>
						<clipPath id="SVGID_16_">
							<use xlink:href="#SVGID_15_"  style="overflow:visible;"/>
						</clipPath>
						<g class="st6">
							<defs>
								<rect id="SVGID_17_" y="4" width="18" height="442"/>
							</defs>
							<clipPath id="SVGID_18_">
								<use xlink:href="#SVGID_17_"  style="overflow:visible;"/>
							</clipPath>
							<g class="st7">
								<defs>
									<rect id="SVGID_19_" width="1070" height="450"/>
								</defs>
								<clipPath id="SVGID_20_">
									<use xlink:href="#SVGID_19_"  style="overflow:visible;"/>
								</clipPath>
								<g class="st8">
									<defs>
										<rect id="SVGID_21_" y="4" width="18" height="442"/>
									</defs>
									<clipPath id="SVGID_22_">
										<use xlink:href="#SVGID_21_"  style="overflow:visible;"/>
									</clipPath>
									<g class="st9">
										<text transform="matrix(-6.123234e-17 -1 1 -6.123234e-17 13 239)"><tspan x="0" y="0" class="st10 st11">Valu</tspan><tspan x="20.7" y="0" class="st10 st11">e</tspan></text>
									</g>
								</g>
							</g>
						</g>
					</g>
				</g>
				<g class="st3">
					<defs>
						<rect id="SVGID_23_" width="1070" height="450"/>
					</defs>
					<clipPath id="SVGID_24_">
						<use xlink:href="#SVGID_23_"  style="overflow:visible;"/>
					</clipPath>
					<g class="st12">
						<defs>
							<rect id="SVGID_25_" width="1070" height="450"/>
						</defs>
						<clipPath id="SVGID_26_">
							<use xlink:href="#SVGID_25_"  style="overflow:visible;"/>
						</clipPath>
						<g class="st13">
							<defs>
								<rect id="SVGID_27_" x="18" y="446" width="1052" height="4"/>
							</defs>
							<clipPath id="SVGID_28_">
								<use xlink:href="#SVGID_27_"  style="overflow:visible;"/>
							</clipPath>
							<g class="st14">
								<defs>
									<rect id="SVGID_29_" width="1070" height="450"/>
								</defs>
								<clipPath id="SVGID_30_">
									<use xlink:href="#SVGID_29_"  style="overflow:visible;"/>
								</clipPath>
								<g class="st15">
									<defs>
										<rect id="SVGID_31_" x="18" y="446" width="1052" height="4"/>
									</defs>
									<clipPath id="SVGID_32_">
										<use xlink:href="#SVGID_31_"  style="overflow:visible;"/>
									</clipPath>
									<g class="st16">
										<defs>
											<rect id="SVGID_33_" width="1070" height="450"/>
										</defs>
										<clipPath id="SVGID_34_">
											<use xlink:href="#SVGID_33_"  style="overflow:visible;"/>
										</clipPath>
										<g class="st17">
											<defs>
												<rect id="SVGID_35_" x="18" y="446" width="1052" height="4"/>
											</defs>
											<clipPath id="SVGID_36_">
												<use xlink:href="#SVGID_35_"  style="overflow:visible;"/>
											</clipPath>
										</g>
									</g>
								</g>
							</g>
						</g>
					</g>
				</g>
				<g class="st3">
					<defs>
						<rect id="SVGID_37_" width="1070" height="450"/>
					</defs>
					<clipPath id="SVGID_38_">
						<use xlink:href="#SVGID_37_"  style="overflow:visible;"/>
					</clipPath>
					<g class="st18">
						<defs>
							<rect id="SVGID_39_" width="1070" height="450"/>
						</defs>
						<clipPath id="SVGID_40_">
							<use xlink:href="#SVGID_39_"  style="overflow:visible;"/>
						</clipPath>
						<g class="st19">
							<defs>
								<rect id="SVGID_41_" width="1070" height="4"/>
							</defs>
							<clipPath id="SVGID_42_">
								<use xlink:href="#SVGID_41_"  style="overflow:visible;"/>
							</clipPath>
							<g class="st20">
								<defs>
									<rect id="SVGID_43_" width="1070" height="450"/>
								</defs>
								<clipPath id="SVGID_44_">
									<use xlink:href="#SVGID_43_"  style="overflow:visible;"/>
								</clipPath>
								<g class="st21">
									<defs>
										<rect id="SVGID_45_" width="1070" height="4"/>
									</defs>
									<clipPath id="SVGID_46_">
										<use xlink:href="#SVGID_45_"  style="overflow:visible;"/>
									</clipPath>
									<g class="st22">
										<defs>
											<rect id="SVGID_47_" width="1070" height="450"/>
										</defs>
										<clipPath id="SVGID_48_">
											<use xlink:href="#SVGID_47_"  style="overflow:visible;"/>
										</clipPath>
										<g class="st23">
											<defs>
												<rect id="SVGID_49_" width="1070" height="4"/>
											</defs>
											<clipPath id="SVGID_50_">
												<use xlink:href="#SVGID_49_"  style="overflow:visible;"/>
											</clipPath>
										</g>
									</g>
								</g>
							</g>
						</g>
					</g>
				</g>
				<g class="st3">
					<defs>
						<rect id="SVGID_51_" width="1070" height="450"/>
					</defs>
					<clipPath id="SVGID_52_">
						<use xlink:href="#SVGID_51_"  style="overflow:visible;"/>
					</clipPath>
					<g class="st24">
						<defs>
							<rect id="SVGID_53_" width="1070" height="450"/>
						</defs>
						<clipPath id="SVGID_54_">
							<use xlink:href="#SVGID_53_"  style="overflow:visible;"/>
						</clipPath>
						<g class="st25">
							<defs>
								<rect id="SVGID_55_" x="18" y="4" width="1052" height="442"/>
							</defs>
							<clipPath id="SVGID_56_">
								<use xlink:href="#SVGID_55_"  style="overflow:visible;"/>
							</clipPath>
							<g class="st26">
								<defs>
									<rect id="SVGID_57_" width="1070" height="450"/>
								</defs>
								<clipPath id="SVGID_58_">
									<use xlink:href="#SVGID_57_"  style="overflow:visible;"/>
								</clipPath>
								<g class="st27">
									<defs>
										<rect id="SVGID_59_" x="18" y="4" width="1052" height="442"/>
									</defs>
									<clipPath id="SVGID_60_">
										<use xlink:href="#SVGID_59_"  style="overflow:visible;"/>
									</clipPath>
									<rect x="34" y="10" class="st28" width="1032.5" height="415"/>
								</g>
								<g class="st27">
									<defs>
										<rect id="SVGID_61_" x="34" y="10" width="1032.5" height="415"/>
									</defs>
									<clipPath id="SVGID_62_">
										<use xlink:href="#SVGID_61_"  style="overflow:visible;"/>
									</clipPath>
									<line class="st29" x1="34" y1="378.9" x2="1066.5" y2="378.9"/>
									<rect x="59.8" y="234.5" class="st30" width="77.4" height="105.5"/>
									<line class="st31" x1="59.8" y1="296.8" x2="137.2" y2="296.8"/>
									<path class="st32" d="M98.5,234.5v-27.1 M98.5,346.3V340"/>
									<rect x="59.8" y="234.5" class="st32" width="77.4" height="105.5"/>
									<rect x="188.9" y="250.7" class="st30" width="77.4" height="49.9"/>
									<line class="st31" x1="188.9" y1="275.5" x2="266.3" y2="275.5"/>
									<path class="st32" d="M227.6,250.7V127.8 M227.6,308.6v-7.9"/>
									<rect x="188.9" y="250.7" class="st32" width="77.4" height="49.9"/>
									<rect x="317.9" y="197.1" class="st30" width="77.4" height="117.1"/>
									<line class="st31" x1="317.9" y1="264.2" x2="395.4" y2="264.2"/>
									<path class="st32" d="M356.7,197.1v-30.4 M356.7,326.9v-12.8"/>
									<rect x="317.9" y="197.1" class="st32" width="77.4" height="117.1"/>
									<rect x="447" y="213.4" class="st30" width="77.4" height="109.1"/>
									<line class="st31" x1="447" y1="274.1" x2="524.4" y2="274.1"/>
									<path class="st32" d="M485.7,213.4V176 M485.7,337.2v-14.8"/>
									<rect x="447" y="213.4" class="st32" width="77.4" height="109.1"/>
									<rect x="576.1" y="217.2" class="st30" width="77.4" height="58.6"/>
									<line class="st31" x1="576.1" y1="247.3" x2="653.5" y2="247.3"/>
									<path class="st32" d="M614.8,217.2v-98.6 M614.8,281.7v-5.8"/>
									<rect x="576.1" y="217.2" class="st32" width="77.4" height="58.6"/>
									<rect x="705.1" y="229.5" class="st30" width="77.4" height="93.3"/>
									<line class="st31" x1="705.1" y1="283.9" x2="782.6" y2="283.9"/>
									<path class="st32" d="M743.8,229.5V44.3 M743.8,334v-11.2"/>
									<rect x="705.1" y="229.5" class="st32" width="77.4" height="93.3"/>
									<rect x="834.2" y="280.9" class="st30" width="77.4" height="98"/>
									<line class="st31" x1="834.2" y1="356.8" x2="911.6" y2="356.8"/>
									<path class="st32" d="M872.9,280.9V266 M872.9,378.9L872.9,378.9"/>
									<rect x="834.2" y="280.9" class="st32" width="77.4" height="98"/>
									<rect x="963.2" y="292.7" class="st30" width="77.4" height="39.2"/>
									<line class="st31" x1="963.2" y1="315.2" x2="1040.7" y2="315.2"/>
									<path class="st32" d="M1002,292.7v-32.1 M1002,336.7v-4.8"/>
									<rect x="963.2" y="292.7" class="st32" width="77.4" height="39.2"/>
								</g>
								<rect x="34" y="10" class="st33" width="1032.5" height="415"/>
								<line class="st33" x1="98.5" y1="425" x2="98.5" y2="429"/>
								<g class="st27">
									<text transform="matrix(1 0 0 1 95.0298 443)" class="st10 st34">1</text>
								</g>
								<line class="st33" x1="227.6" y1="425" x2="227.6" y2="429"/>
								<g class="st27">
									<text transform="matrix(1 0 0 1 224.0898 443)" class="st10 st34">2</text>
								</g>
								<line class="st33" x1="356.7" y1="425" x2="356.7" y2="429"/>
								<g class="st27">
									<text transform="matrix(1 0 0 1 353.1602 443)" class="st10 st34">3</text>
								</g>
								<line class="st33" x1="485.7" y1="425" x2="485.7" y2="429"/>
								<g class="st27">
									<text transform="matrix(1 0 0 1 482.2202 443)" class="st10 st34">4</text>
								</g>
								<line class="st33" x1="614.8" y1="425" x2="614.8" y2="429"/>
								<g class="st27">
									<text transform="matrix(1 0 0 1 611.2803 443)" class="st10 st34">5</text>
								</g>
								<line class="st33" x1="743.8" y1="425" x2="743.8" y2="429"/>
								<g class="st27">
									<text transform="matrix(1 0 0 1 740.3398 443)" class="st10 st34">6</text>
								</g>
								<line class="st33" x1="872.9" y1="425" x2="872.9" y2="429"/>
								<g class="st27">
									<text transform="matrix(1 0 0 1 869.4102 443)" class="st10 st34">7</text>
								</g>
								<line class="st33" x1="1002" y1="425" x2="1002" y2="429"/>
								<g class="st27">
									<text transform="matrix(1 0 0 1 998.4697 443)" class="st10 st34">8</text>
								</g>
								<line class="st33" x1="34" y1="425" x2="30" y2="425"/>
								<g class="st27">
									<text transform="matrix(1 0 0 1 18 431)" class="st10 st34">-1</text>
								</g>
								<line class="st33" x1="34" y1="401.9" x2="32" y2="401.9"/>
								<line class="st33" x1="34" y1="378.9" x2="30" y2="378.9"/>
								<g class="st27">
									<text transform="matrix(1 0 0 1 22 384.8896)" class="st10 st34">0</text>
								</g>
								<line class="st33" x1="34" y1="355.8" x2="32" y2="355.8"/>
								<line class="st33" x1="34" y1="332.8" x2="30" y2="332.8"/>
								<g class="st27">
									<text transform="matrix(1 0 0 1 22 338.7803)" class="st10 st34">1</text>
								</g>
								<line class="st33" x1="34" y1="309.7" x2="32" y2="309.7"/>
								<line class="st33" x1="34" y1="286.7" x2="30" y2="286.7"/>
								<g class="st27">
									<text transform="matrix(1 0 0 1 22 292.6699)" class="st10 st34">2</text>
								</g>
								<line class="st33" x1="34" y1="263.6" x2="32" y2="263.6"/>
								<line class="st33" x1="34" y1="240.6" x2="30" y2="240.6"/>
								<g class="st27">
									<text transform="matrix(1 0 0 1 22 246.5596)" class="st10 st34">3</text>
								</g>
								<line class="st33" x1="34" y1="217.5" x2="32" y2="217.5"/>
								<line class="st33" x1="34" y1="194.4" x2="30" y2="194.4"/>
								<g class="st27">
									<text transform="matrix(1 0 0 1 22 200.4399)" class="st10 st34">4</text>
								</g>
								<line class="st33" x1="34" y1="171.4" x2="32" y2="171.4"/>
								<line class="st33" x1="34" y1="148.3" x2="30" y2="148.3"/>
								<g class="st27">
									<text transform="matrix(1 0 0 1 22 154.3301)" class="st10 st34">5</text>
								</g>
								<line class="st33" x1="34" y1="125.3" x2="32" y2="125.3"/>
								<line class="st33" x1="34" y1="102.2" x2="30" y2="102.2"/>
								<g class="st27">
									<text transform="matrix(1 0 0 1 22 108.2202)" class="st10 st34">6</text>
								</g>
								<line class="st33" x1="34" y1="79.2" x2="32" y2="79.2"/>
								<line class="st33" x1="34" y1="56.1" x2="30" y2="56.1"/>
								<g class="st27">
									<text transform="matrix(1 0 0 1 22 62.1099)" class="st10 st34">7</text>
								</g>
								<line class="st33" x1="34" y1="33.1" x2="32" y2="33.1"/>
								<line class="st33" x1="34" y1="10" x2="30" y2="10"/>
								<g class="st27">
									<text transform="matrix(1 0 0 1 22 16)" class="st10 st34">8</text>
								</g>
							</g>
						</g>
					</g>
				</g>
			</g>
		</g>
	</g>
</g>
</svg>
