<?xml version="1.0" encoding="utf-8" standalone="no"?>
<!DOCTYPE svg PUBLIC "-//W3C//DTD SVG 1.1//EN"
  "http://www.w3.org/Graphics/SVG/1.1/DTD/svg11.dtd">
<!-- Created with matplotlib (https://matplotlib.org/) -->
<svg height="172.341344pt" version="1.1" viewBox="0 0 170.682255 172.341344" width="170.682255pt" xmlns="http://www.w3.org/2000/svg" xmlns:xlink="http://www.w3.org/1999/xlink">
 <metadata>
  <rdf:RDF xmlns:cc="http://creativecommons.org/ns#" xmlns:dc="http://purl.org/dc/elements/1.1/" xmlns:rdf="http://www.w3.org/1999/02/22-rdf-syntax-ns#">
   <cc:Work>
    <dc:type rdf:resource="http://purl.org/dc/dcmitype/StillImage"/>
    <dc:date>2021-04-29T13:26:50.350378</dc:date>
    <dc:format>image/svg+xml</dc:format>
    <dc:creator>
     <cc:Agent>
      <dc:title>Matplotlib v3.3.2, https://matplotlib.org/</dc:title>
     </cc:Agent>
    </dc:creator>
   </cc:Work>
  </rdf:RDF>
 </metadata>
 <defs>
  <style type="text/css">*{stroke-linecap:butt;stroke-linejoin:round;}</style>
 </defs>
 <g id="figure_1">
  <g id="patch_1">
   <path d="M 0 172.341344 
L 170.682255 172.341344 
L 170.682255 0 
L 0 0 
z
" style="fill:none;"/>
  </g>
  <g id="axes_1">
   <g id="patch_2">
    <path d="M 26.220313 144.463219 
L 160.140312 144.463219 
L 160.140312 13.999219 
L 26.220313 13.999219 
z
" style="fill:#ffffff;"/>
   </g>
   <g id="PathCollection_1">
    <defs>
     <path d="M 0 0 
C 0 0 0 0 0 0 
C 0 0 0 0 0 0 
C 0 0 0 0 0 0 
C 0 0 0 0 0 0 
C 0 0 0 0 0 0 
C 0 0 0 0 0 0 
C 0 0 0 0 0 0 
C 0 0 0 0 0 0 
z
" id="m66185b2172" style="stroke:#808080;stroke-opacity:0.8;"/>
    </defs>
    <g clip-path="url(#p184b6816ec)">
     <use style="fill:#808080;fill-opacity:0.8;stroke:#808080;stroke-opacity:0.8;" x="37.550043" xlink:href="#m66185b2172" y="19.929401"/>
     <use style="fill:#808080;fill-opacity:0.8;stroke:#808080;stroke-opacity:0.8;" x="30.666096" xlink:href="#m66185b2172" y="99.343271"/>
     <use style="fill:#808080;fill-opacity:0.8;stroke:#808080;stroke-opacity:0.8;" x="26.220313" xlink:href="#m66185b2172" y="100.815859"/>
     <use style="fill:#808080;fill-opacity:0.8;stroke:#808080;stroke-opacity:0.8;" x="26.220313" xlink:href="#m66185b2172" y="108.449915"/>
     <use style="fill:#808080;fill-opacity:0.8;stroke:#808080;stroke-opacity:0.8;" x="30.666096" xlink:href="#m66185b2172" y="119.528675"/>
     <use style="fill:#808080;fill-opacity:0.8;stroke:#808080;stroke-opacity:0.8;" x="30.666096" xlink:href="#m66185b2172" y="127.162731"/>
     <use style="fill:#808080;fill-opacity:0.8;stroke:#808080;stroke-opacity:0.8;" x="26.220313" xlink:href="#m66185b2172" y="128.72074"/>
     <use style="fill:#808080;fill-opacity:0.8;stroke:#808080;stroke-opacity:0.8;" x="36.901488" xlink:href="#m66185b2172" y="137.225721"/>
     <use style="fill:#808080;fill-opacity:0.8;stroke:#808080;stroke-opacity:0.8;" x="35.783358" xlink:href="#m66185b2172" y="138.533037"/>
     <use style="fill:#808080;fill-opacity:0.8;stroke:#808080;stroke-opacity:0.8;" x="30.73671" xlink:href="#m66185b2172" y="137.662112"/>
     <use style="fill:#808080;fill-opacity:0.8;stroke:#808080;stroke-opacity:0.8;" x="117.613088" xlink:href="#m66185b2172" y="127.597265"/>
     <use style="fill:#808080;fill-opacity:0.8;stroke:#808080;stroke-opacity:0.8;" x="117.613088" xlink:href="#m66185b2172" y="126.683629"/>
     <use style="fill:#808080;fill-opacity:0.8;stroke:#808080;stroke-opacity:0.8;" x="69.836246" xlink:href="#m66185b2172" y="126.769051"/>
     <use style="fill:#808080;fill-opacity:0.8;stroke:#808080;stroke-opacity:0.8;" x="26.220313" xlink:href="#m66185b2172" y="129.339115"/>
     <use style="fill:#808080;fill-opacity:0.8;stroke:#808080;stroke-opacity:0.8;" x="160.140312" xlink:href="#m66185b2172" y="129.339115"/>
     <use style="fill:#808080;fill-opacity:0.8;stroke:#808080;stroke-opacity:0.8;" x="160.140312" xlink:href="#m66185b2172" y="128.425479"/>
     <use style="fill:#808080;fill-opacity:0.8;stroke:#808080;stroke-opacity:0.8;" x="59.512041" xlink:href="#m66185b2172" y="118.927012"/>
     <use style="fill:#808080;fill-opacity:0.8;stroke:#808080;stroke-opacity:0.8;" x="40.696555" xlink:href="#m66185b2172" y="126.334517"/>
     <use style="fill:#808080;fill-opacity:0.8;stroke:#808080;stroke-opacity:0.8;" x="45.101229" xlink:href="#m66185b2172" y="130.689141"/>
     <use style="fill:#808080;fill-opacity:0.8;stroke:#808080;stroke-opacity:0.8;" x="68.01834" xlink:href="#m66185b2172" y="85.661022"/>
     <use style="fill:#808080;fill-opacity:0.8;stroke:#808080;stroke-opacity:0.8;" x="52.16793" xlink:href="#m66185b2172" y="94.368414"/>
     <use style="fill:#808080;fill-opacity:0.8;stroke:#808080;stroke-opacity:0.8;" x="29.148772" xlink:href="#m66185b2172" y="84.368562"/>
     <use style="fill:#808080;fill-opacity:0.8;stroke:#808080;stroke-opacity:0.8;" x="43.527045" xlink:href="#m66185b2172" y="126.733768"/>
     <use style="fill:#808080;fill-opacity:0.8;stroke:#808080;stroke-opacity:0.8;" x="65.263342" xlink:href="#m66185b2172" y="116.733915"/>
     <use style="fill:#808080;fill-opacity:0.8;stroke:#808080;stroke-opacity:0.8;" x="49.744474" xlink:href="#m66185b2172" y="128.093079"/>
     <use style="fill:#808080;fill-opacity:0.8;stroke:#808080;stroke-opacity:0.8;" x="34.38667" xlink:href="#m66185b2172" y="129.383683"/>
    </g>
   </g>
   <g id="PolyCollection_1">
    <path clip-path="url(#p184b6816ec)" d="M 26.220313 98.401247 
L 26.220313 123.840463 
L 27.57304 123.882027 
L 28.925767 123.899058 
L 30.278494 123.803659 
L 31.631222 123.83816 
L 32.983949 123.872661 
L 34.336676 123.906442 
L 35.689403 123.9326 
L 37.042131 123.975983 
L 38.394858 124.010665 
L 39.747585 123.857036 
L 41.100313 123.896283 
L 42.45304 123.968995 
L 43.805767 124.040211 
L 45.158494 124.062745 
L 46.511222 124.069733 
L 47.863949 124.131916 
L 49.216676 124.148647 
L 50.569403 124.165348 
L 51.922131 124.181784 
L 53.274858 124.193885 
L 54.627585 124.196498 
L 55.980313 124.199111 
L 57.33304 124.248471 
L 58.685767 124.299217 
L 60.038494 124.36464 
L 61.391222 124.429289 
L 62.743949 124.491484 
L 64.096676 124.520657 
L 65.449403 124.578203 
L 66.802131 124.63575 
L 68.154858 124.68674 
L 69.507585 124.752266 
L 70.860313 124.810662 
L 72.21304 124.868068 
L 73.565767 124.896529 
L 74.918494 124.964237 
L 76.271222 125.031679 
L 77.623949 125.069752 
L 78.976676 125.131777 
L 80.329403 125.215881 
L 81.682131 125.274249 
L 83.034858 125.332476 
L 84.387585 125.404018 
L 85.740313 125.506844 
L 87.09304 125.638428 
L 88.445767 125.726421 
L 89.798494 125.761419 
L 91.151222 125.799851 
L 92.503949 125.850354 
L 93.856676 125.915021 
L 95.209403 126.06213 
L 96.562131 126.277062 
L 97.914858 126.372823 
L 99.267585 126.536468 
L 100.620312 126.606281 
L 101.97304 126.752096 
L 103.325767 126.860117 
L 104.678494 126.997773 
L 106.031222 127.097111 
L 107.383949 127.231183 
L 108.736676 127.343717 
L 110.089403 127.461665 
L 111.442131 127.520127 
L 112.794858 127.68728 
L 114.147585 127.79053 
L 115.500313 127.845162 
L 116.85304 127.982243 
L 118.205767 128.221093 
L 119.558494 128.378609 
L 120.911222 128.672816 
L 122.263949 128.912196 
L 123.616676 129.092097 
L 124.969403 129.255662 
L 126.322131 129.472232 
L 127.674858 129.678305 
L 129.027585 129.858228 
L 130.380313 130.153821 
L 131.73304 130.447779 
L 133.085767 130.730927 
L 134.438494 131.00374 
L 135.791222 131.308325 
L 137.143949 131.507712 
L 138.496676 131.723378 
L 139.849403 132.027557 
L 141.202131 132.267182 
L 142.554858 132.506806 
L 143.907585 132.74643 
L 145.260312 133.001141 
L 146.61304 133.309764 
L 147.965767 133.668487 
L 149.318494 133.910071 
L 150.671222 134.091219 
L 152.023949 134.272367 
L 153.376676 134.491825 
L 154.729403 134.718422 
L 156.082131 135.061011 
L 157.434858 135.350152 
L 158.787585 135.680896 
L 160.140312 136.017813 
L 160.140312 113.428554 
L 160.140312 113.428554 
L 158.787585 113.457353 
L 157.434858 113.449408 
L 156.082131 113.381611 
L 154.729403 113.336865 
L 153.376676 113.363475 
L 152.023949 113.390086 
L 150.671222 113.416696 
L 149.318494 113.443306 
L 147.965767 113.469916 
L 146.61304 113.345467 
L 145.260312 113.160105 
L 143.907585 112.97717 
L 142.554858 113.032644 
L 141.202131 113.112504 
L 139.849403 113.192365 
L 138.496676 113.272226 
L 137.143949 113.352087 
L 135.791222 113.431947 
L 134.438494 113.511808 
L 133.085767 113.591669 
L 131.73304 113.67153 
L 130.380313 113.75139 
L 129.027585 113.831251 
L 127.674858 113.796508 
L 126.322131 113.687363 
L 124.969403 113.578217 
L 123.616676 113.469072 
L 122.263949 113.359927 
L 120.911222 113.250782 
L 119.558494 113.240934 
L 118.205767 113.264476 
L 116.85304 113.292121 
L 115.500313 113.346729 
L 114.147585 113.46844 
L 112.794858 113.425439 
L 111.442131 113.392866 
L 110.089403 113.4149 
L 108.736676 113.396428 
L 107.383949 113.278113 
L 106.031222 113.092816 
L 104.678494 112.823015 
L 103.325767 112.724296 
L 101.97304 112.616267 
L 100.620312 112.509257 
L 99.267585 112.182024 
L 97.914858 112.03483 
L 96.562131 112.070248 
L 95.209403 111.900128 
L 93.856676 111.668409 
L 92.503949 111.456898 
L 91.151222 111.255392 
L 89.798494 111.107841 
L 88.445767 110.759986 
L 87.09304 110.718703 
L 85.740313 110.632917 
L 84.387585 110.517408 
L 83.034858 110.574644 
L 81.682131 110.297853 
L 80.329403 110.097688 
L 78.976676 109.987228 
L 77.623949 109.819605 
L 76.271222 109.535964 
L 74.918494 109.420909 
L 73.565767 109.284553 
L 72.21304 109.025063 
L 70.860313 108.950189 
L 69.507585 108.70185 
L 68.154858 108.447353 
L 66.802131 108.143332 
L 65.449403 107.841591 
L 64.096676 107.519246 
L 62.743949 107.168819 
L 61.391222 106.818391 
L 60.038494 106.538057 
L 58.685767 106.265403 
L 57.33304 105.991893 
L 55.980313 105.718383 
L 54.627585 105.421658 
L 53.274858 105.138245 
L 51.922131 104.821905 
L 50.569403 104.518901 
L 49.216676 104.215898 
L 47.863949 103.901928 
L 46.511222 103.587873 
L 45.158494 103.273263 
L 43.805767 102.95893 
L 42.45304 102.644598 
L 41.100313 102.330265 
L 39.747585 101.969417 
L 38.394858 101.588099 
L 37.042131 101.260188 
L 35.689403 100.936422 
L 34.336676 100.613685 
L 32.983949 100.250624 
L 31.631222 99.880749 
L 30.278494 99.510873 
L 28.925767 99.140998 
L 27.57304 98.771123 
L 26.220313 98.401247 
z
" style="fill:#808080;fill-opacity:0.15;"/>
   </g>
   <g id="matplotlib.axis_1">
    <g id="xtick_1">
     <g id="line2d_1">
      <defs>
       <path d="M 0 0 
L 0 3.5 
" id="m56c3f097d6" style="stroke:#000000;stroke-width:0.8;"/>
      </defs>
      <g>
       <use style="stroke:#000000;stroke-width:0.8;" x="26.220313" xlink:href="#m56c3f097d6" y="144.463219"/>
      </g>
     </g>
     <g id="text_1">
      <!-- 0 -->
      <g transform="translate(24.629688 155.262437)scale(0.05 -0.05)">
       <defs>
        <path d="M 31.78125 66.40625 
Q 24.171875 66.40625 20.328125 58.90625 
Q 16.5 51.421875 16.5 36.375 
Q 16.5 21.390625 20.328125 13.890625 
Q 24.171875 6.390625 31.78125 6.390625 
Q 39.453125 6.390625 43.28125 13.890625 
Q 47.125 21.390625 47.125 36.375 
Q 47.125 51.421875 43.28125 58.90625 
Q 39.453125 66.40625 31.78125 66.40625 
z
M 31.78125 74.21875 
Q 44.046875 74.21875 50.515625 64.515625 
Q 56.984375 54.828125 56.984375 36.375 
Q 56.984375 17.96875 50.515625 8.265625 
Q 44.046875 -1.421875 31.78125 -1.421875 
Q 19.53125 -1.421875 13.0625 8.265625 
Q 6.59375 17.96875 6.59375 36.375 
Q 6.59375 54.828125 13.0625 64.515625 
Q 19.53125 74.21875 31.78125 74.21875 
z
" id="DejaVuSans-48"/>
       </defs>
       <use xlink:href="#DejaVuSans-48"/>
      </g>
     </g>
    </g>
    <g id="xtick_2">
     <g id="line2d_2">
      <g>
       <use style="stroke:#000000;stroke-width:0.8;" x="44.693001" xlink:href="#m56c3f097d6" y="144.463219"/>
      </g>
     </g>
     <g id="text_2">
      <!-- 2500 -->
      <g transform="translate(38.330501 155.262437)scale(0.05 -0.05)">
       <defs>
        <path d="M 19.1875 8.296875 
L 53.609375 8.296875 
L 53.609375 0 
L 7.328125 0 
L 7.328125 8.296875 
Q 12.9375 14.109375 22.625 23.890625 
Q 32.328125 33.6875 34.8125 36.53125 
Q 39.546875 41.84375 41.421875 45.53125 
Q 43.3125 49.21875 43.3125 52.78125 
Q 43.3125 58.59375 39.234375 62.25 
Q 35.15625 65.921875 28.609375 65.921875 
Q 23.96875 65.921875 18.8125 64.3125 
Q 13.671875 62.703125 7.8125 59.421875 
L 7.8125 69.390625 
Q 13.765625 71.78125 18.9375 73 
Q 24.125 74.21875 28.421875 74.21875 
Q 39.75 74.21875 46.484375 68.546875 
Q 53.21875 62.890625 53.21875 53.421875 
Q 53.21875 48.921875 51.53125 44.890625 
Q 49.859375 40.875 45.40625 35.40625 
Q 44.1875 33.984375 37.640625 27.21875 
Q 31.109375 20.453125 19.1875 8.296875 
z
" id="DejaVuSans-50"/>
        <path d="M 10.796875 72.90625 
L 49.515625 72.90625 
L 49.515625 64.59375 
L 19.828125 64.59375 
L 19.828125 46.734375 
Q 21.96875 47.46875 24.109375 47.828125 
Q 26.265625 48.1875 28.421875 48.1875 
Q 40.625 48.1875 47.75 41.5 
Q 54.890625 34.8125 54.890625 23.390625 
Q 54.890625 11.625 47.5625 5.09375 
Q 40.234375 -1.421875 26.90625 -1.421875 
Q 22.3125 -1.421875 17.546875 -0.640625 
Q 12.796875 0.140625 7.71875 1.703125 
L 7.71875 11.625 
Q 12.109375 9.234375 16.796875 8.0625 
Q 21.484375 6.890625 26.703125 6.890625 
Q 35.15625 6.890625 40.078125 11.328125 
Q 45.015625 15.765625 45.015625 23.390625 
Q 45.015625 31 40.078125 35.4375 
Q 35.15625 39.890625 26.703125 39.890625 
Q 22.75 39.890625 18.8125 39.015625 
Q 14.890625 38.140625 10.796875 36.28125 
z
" id="DejaVuSans-53"/>
       </defs>
       <use xlink:href="#DejaVuSans-50"/>
       <use x="63.623047" xlink:href="#DejaVuSans-53"/>
       <use x="127.246094" xlink:href="#DejaVuSans-48"/>
       <use x="190.869141" xlink:href="#DejaVuSans-48"/>
      </g>
     </g>
    </g>
    <g id="xtick_3">
     <g id="line2d_3">
      <g>
       <use style="stroke:#000000;stroke-width:0.8;" x="63.165689" xlink:href="#m56c3f097d6" y="144.463219"/>
      </g>
     </g>
     <g id="text_3">
      <!-- 5000 -->
      <g transform="translate(56.803189 155.262437)scale(0.05 -0.05)">
       <use xlink:href="#DejaVuSans-53"/>
       <use x="63.623047" xlink:href="#DejaVuSans-48"/>
       <use x="127.246094" xlink:href="#DejaVuSans-48"/>
       <use x="190.869141" xlink:href="#DejaVuSans-48"/>
      </g>
     </g>
    </g>
    <g id="xtick_4">
     <g id="line2d_4">
      <g>
       <use style="stroke:#000000;stroke-width:0.8;" x="81.638377" xlink:href="#m56c3f097d6" y="144.463219"/>
      </g>
     </g>
     <g id="text_4">
      <!-- 7500 -->
      <g transform="translate(75.275877 155.262437)scale(0.05 -0.05)">
       <defs>
        <path d="M 8.203125 72.90625 
L 55.078125 72.90625 
L 55.078125 68.703125 
L 28.609375 0 
L 18.3125 0 
L 43.21875 64.59375 
L 8.203125 64.59375 
z
" id="DejaVuSans-55"/>
       </defs>
       <use xlink:href="#DejaVuSans-55"/>
       <use x="63.623047" xlink:href="#DejaVuSans-53"/>
       <use x="127.246094" xlink:href="#DejaVuSans-48"/>
       <use x="190.869141" xlink:href="#DejaVuSans-48"/>
      </g>
     </g>
    </g>
    <g id="xtick_5">
     <g id="line2d_5">
      <g>
       <use style="stroke:#000000;stroke-width:0.8;" x="100.111065" xlink:href="#m56c3f097d6" y="144.463219"/>
      </g>
     </g>
     <g id="text_5">
      <!-- 10000 -->
      <g transform="translate(92.15794 155.262437)scale(0.05 -0.05)">
       <defs>
        <path d="M 12.40625 8.296875 
L 28.515625 8.296875 
L 28.515625 63.921875 
L 10.984375 60.40625 
L 10.984375 69.390625 
L 28.421875 72.90625 
L 38.28125 72.90625 
L 38.28125 8.296875 
L 54.390625 8.296875 
L 54.390625 0 
L 12.40625 0 
z
" id="DejaVuSans-49"/>
       </defs>
       <use xlink:href="#DejaVuSans-49"/>
       <use x="63.623047" xlink:href="#DejaVuSans-48"/>
       <use x="127.246094" xlink:href="#DejaVuSans-48"/>
       <use x="190.869141" xlink:href="#DejaVuSans-48"/>
       <use x="254.492188" xlink:href="#DejaVuSans-48"/>
      </g>
     </g>
    </g>
    <g id="xtick_6">
     <g id="line2d_6">
      <g>
       <use style="stroke:#000000;stroke-width:0.8;" x="118.583753" xlink:href="#m56c3f097d6" y="144.463219"/>
      </g>
     </g>
     <g id="text_6">
      <!-- 12500 -->
      <g transform="translate(110.630628 155.262437)scale(0.05 -0.05)">
       <use xlink:href="#DejaVuSans-49"/>
       <use x="63.623047" xlink:href="#DejaVuSans-50"/>
       <use x="127.246094" xlink:href="#DejaVuSans-53"/>
       <use x="190.869141" xlink:href="#DejaVuSans-48"/>
       <use x="254.492188" xlink:href="#DejaVuSans-48"/>
      </g>
     </g>
    </g>
    <g id="xtick_7">
     <g id="line2d_7">
      <g>
       <use style="stroke:#000000;stroke-width:0.8;" x="137.056441" xlink:href="#m56c3f097d6" y="144.463219"/>
      </g>
     </g>
     <g id="text_7">
      <!-- 15000 -->
      <g transform="translate(129.103316 155.262437)scale(0.05 -0.05)">
       <use xlink:href="#DejaVuSans-49"/>
       <use x="63.623047" xlink:href="#DejaVuSans-53"/>
       <use x="127.246094" xlink:href="#DejaVuSans-48"/>
       <use x="190.869141" xlink:href="#DejaVuSans-48"/>
       <use x="254.492188" xlink:href="#DejaVuSans-48"/>
      </g>
     </g>
    </g>
    <g id="xtick_8">
     <g id="line2d_8">
      <g>
       <use style="stroke:#000000;stroke-width:0.8;" x="155.52913" xlink:href="#m56c3f097d6" y="144.463219"/>
      </g>
     </g>
     <g id="text_8">
      <!-- 17500 -->
      <g transform="translate(147.576005 155.262437)scale(0.05 -0.05)">
       <use xlink:href="#DejaVuSans-49"/>
       <use x="63.623047" xlink:href="#DejaVuSans-55"/>
       <use x="127.246094" xlink:href="#DejaVuSans-53"/>
       <use x="190.869141" xlink:href="#DejaVuSans-48"/>
       <use x="254.492188" xlink:href="#DejaVuSans-48"/>
      </g>
     </g>
    </g>
    <g id="text_9">
     <!-- Great Circle Distance (km) -->
     <g transform="translate(60.05375 164.1015)scale(0.05 -0.05)">
      <defs>
       <path d="M 59.515625 10.40625 
L 59.515625 29.984375 
L 43.40625 29.984375 
L 43.40625 38.09375 
L 69.28125 38.09375 
L 69.28125 6.78125 
Q 63.578125 2.734375 56.6875 0.65625 
Q 49.8125 -1.421875 42 -1.421875 
Q 24.90625 -1.421875 15.25 8.5625 
Q 5.609375 18.5625 5.609375 36.375 
Q 5.609375 54.25 15.25 64.234375 
Q 24.90625 74.21875 42 74.21875 
Q 49.125 74.21875 55.546875 72.453125 
Q 61.96875 70.703125 67.390625 67.28125 
L 67.390625 56.78125 
Q 61.921875 61.421875 55.765625 63.765625 
Q 49.609375 66.109375 42.828125 66.109375 
Q 29.4375 66.109375 22.71875 58.640625 
Q 16.015625 51.171875 16.015625 36.375 
Q 16.015625 21.625 22.71875 14.15625 
Q 29.4375 6.6875 42.828125 6.6875 
Q 48.046875 6.6875 52.140625 7.59375 
Q 56.25 8.5 59.515625 10.40625 
z
" id="DejaVuSans-71"/>
       <path d="M 41.109375 46.296875 
Q 39.59375 47.171875 37.8125 47.578125 
Q 36.03125 48 33.890625 48 
Q 26.265625 48 22.1875 43.046875 
Q 18.109375 38.09375 18.109375 28.8125 
L 18.109375 0 
L 9.078125 0 
L 9.078125 54.6875 
L 18.109375 54.6875 
L 18.109375 46.1875 
Q 20.953125 51.171875 25.484375 53.578125 
Q 30.03125 56 36.53125 56 
Q 37.453125 56 38.578125 55.875 
Q 39.703125 55.765625 41.0625 55.515625 
z
" id="DejaVuSans-114"/>
       <path d="M 56.203125 29.59375 
L 56.203125 25.203125 
L 14.890625 25.203125 
Q 15.484375 15.921875 20.484375 11.0625 
Q 25.484375 6.203125 34.421875 6.203125 
Q 39.59375 6.203125 44.453125 7.46875 
Q 49.3125 8.734375 54.109375 11.28125 
L 54.109375 2.78125 
Q 49.265625 0.734375 44.1875 -0.34375 
Q 39.109375 -1.421875 33.890625 -1.421875 
Q 20.796875 -1.421875 13.15625 6.1875 
Q 5.515625 13.8125 5.515625 26.8125 
Q 5.515625 40.234375 12.765625 48.109375 
Q 20.015625 56 32.328125 56 
Q 43.359375 56 49.78125 48.890625 
Q 56.203125 41.796875 56.203125 29.59375 
z
M 47.21875 32.234375 
Q 47.125 39.59375 43.09375 43.984375 
Q 39.0625 48.390625 32.421875 48.390625 
Q 24.90625 48.390625 20.390625 44.140625 
Q 15.875 39.890625 15.1875 32.171875 
z
" id="DejaVuSans-101"/>
       <path d="M 34.28125 27.484375 
Q 23.390625 27.484375 19.1875 25 
Q 14.984375 22.515625 14.984375 16.5 
Q 14.984375 11.71875 18.140625 8.90625 
Q 21.296875 6.109375 26.703125 6.109375 
Q 34.1875 6.109375 38.703125 11.40625 
Q 43.21875 16.703125 43.21875 25.484375 
L 43.21875 27.484375 
z
M 52.203125 31.203125 
L 52.203125 0 
L 43.21875 0 
L 43.21875 8.296875 
Q 40.140625 3.328125 35.546875 0.953125 
Q 30.953125 -1.421875 24.3125 -1.421875 
Q 15.921875 -1.421875 10.953125 3.296875 
Q 6 8.015625 6 15.921875 
Q 6 25.140625 12.171875 29.828125 
Q 18.359375 34.515625 30.609375 34.515625 
L 43.21875 34.515625 
L 43.21875 35.40625 
Q 43.21875 41.609375 39.140625 45 
Q 35.0625 48.390625 27.6875 48.390625 
Q 23 48.390625 18.546875 47.265625 
Q 14.109375 46.140625 10.015625 43.890625 
L 10.015625 52.203125 
Q 14.9375 54.109375 19.578125 55.046875 
Q 24.21875 56 28.609375 56 
Q 40.484375 56 46.34375 49.84375 
Q 52.203125 43.703125 52.203125 31.203125 
z
" id="DejaVuSans-97"/>
       <path d="M 18.3125 70.21875 
L 18.3125 54.6875 
L 36.8125 54.6875 
L 36.8125 47.703125 
L 18.3125 47.703125 
L 18.3125 18.015625 
Q 18.3125 11.328125 20.140625 9.421875 
Q 21.96875 7.515625 27.59375 7.515625 
L 36.8125 7.515625 
L 36.8125 0 
L 27.59375 0 
Q 17.1875 0 13.234375 3.875 
Q 9.28125 7.765625 9.28125 18.015625 
L 9.28125 47.703125 
L 2.6875 47.703125 
L 2.6875 54.6875 
L 9.28125 54.6875 
L 9.28125 70.21875 
z
" id="DejaVuSans-116"/>
       <path id="DejaVuSans-32"/>
       <path d="M 64.40625 67.28125 
L 64.40625 56.890625 
Q 59.421875 61.53125 53.78125 63.8125 
Q 48.140625 66.109375 41.796875 66.109375 
Q 29.296875 66.109375 22.65625 58.46875 
Q 16.015625 50.828125 16.015625 36.375 
Q 16.015625 21.96875 22.65625 14.328125 
Q 29.296875 6.6875 41.796875 6.6875 
Q 48.140625 6.6875 53.78125 8.984375 
Q 59.421875 11.28125 64.40625 15.921875 
L 64.40625 5.609375 
Q 59.234375 2.09375 53.4375 0.328125 
Q 47.65625 -1.421875 41.21875 -1.421875 
Q 24.65625 -1.421875 15.125 8.703125 
Q 5.609375 18.84375 5.609375 36.375 
Q 5.609375 53.953125 15.125 64.078125 
Q 24.65625 74.21875 41.21875 74.21875 
Q 47.75 74.21875 53.53125 72.484375 
Q 59.328125 70.75 64.40625 67.28125 
z
" id="DejaVuSans-67"/>
       <path d="M 9.421875 54.6875 
L 18.40625 54.6875 
L 18.40625 0 
L 9.421875 0 
z
M 9.421875 75.984375 
L 18.40625 75.984375 
L 18.40625 64.59375 
L 9.421875 64.59375 
z
" id="DejaVuSans-105"/>
       <path d="M 48.78125 52.59375 
L 48.78125 44.1875 
Q 44.96875 46.296875 41.140625 47.34375 
Q 37.3125 48.390625 33.40625 48.390625 
Q 24.65625 48.390625 19.8125 42.84375 
Q 14.984375 37.3125 14.984375 27.296875 
Q 14.984375 17.28125 19.8125 11.734375 
Q 24.65625 6.203125 33.40625 6.203125 
Q 37.3125 6.203125 41.140625 7.25 
Q 44.96875 8.296875 48.78125 10.40625 
L 48.78125 2.09375 
Q 45.015625 0.34375 40.984375 -0.53125 
Q 36.96875 -1.421875 32.421875 -1.421875 
Q 20.0625 -1.421875 12.78125 6.34375 
Q 5.515625 14.109375 5.515625 27.296875 
Q 5.515625 40.671875 12.859375 48.328125 
Q 20.21875 56 33.015625 56 
Q 37.15625 56 41.109375 55.140625 
Q 45.0625 54.296875 48.78125 52.59375 
z
" id="DejaVuSans-99"/>
       <path d="M 9.421875 75.984375 
L 18.40625 75.984375 
L 18.40625 0 
L 9.421875 0 
z
" id="DejaVuSans-108"/>
       <path d="M 19.671875 64.796875 
L 19.671875 8.109375 
L 31.59375 8.109375 
Q 46.6875 8.109375 53.6875 14.9375 
Q 60.6875 21.78125 60.6875 36.53125 
Q 60.6875 51.171875 53.6875 57.984375 
Q 46.6875 64.796875 31.59375 64.796875 
z
M 9.8125 72.90625 
L 30.078125 72.90625 
Q 51.265625 72.90625 61.171875 64.09375 
Q 71.09375 55.28125 71.09375 36.53125 
Q 71.09375 17.671875 61.125 8.828125 
Q 51.171875 0 30.078125 0 
L 9.8125 0 
z
" id="DejaVuSans-68"/>
       <path d="M 44.28125 53.078125 
L 44.28125 44.578125 
Q 40.484375 46.53125 36.375 47.5 
Q 32.28125 48.484375 27.875 48.484375 
Q 21.1875 48.484375 17.84375 46.4375 
Q 14.5 44.390625 14.5 40.28125 
Q 14.5 37.15625 16.890625 35.375 
Q 19.28125 33.59375 26.515625 31.984375 
L 29.59375 31.296875 
Q 39.15625 29.25 43.1875 25.515625 
Q 47.21875 21.78125 47.21875 15.09375 
Q 47.21875 7.46875 41.1875 3.015625 
Q 35.15625 -1.421875 24.609375 -1.421875 
Q 20.21875 -1.421875 15.453125 -0.5625 
Q 10.6875 0.296875 5.421875 2 
L 5.421875 11.28125 
Q 10.40625 8.6875 15.234375 7.390625 
Q 20.0625 6.109375 24.8125 6.109375 
Q 31.15625 6.109375 34.5625 8.28125 
Q 37.984375 10.453125 37.984375 14.40625 
Q 37.984375 18.0625 35.515625 20.015625 
Q 33.0625 21.96875 24.703125 23.78125 
L 21.578125 24.515625 
Q 13.234375 26.265625 9.515625 29.90625 
Q 5.8125 33.546875 5.8125 39.890625 
Q 5.8125 47.609375 11.28125 51.796875 
Q 16.75 56 26.8125 56 
Q 31.78125 56 36.171875 55.265625 
Q 40.578125 54.546875 44.28125 53.078125 
z
" id="DejaVuSans-115"/>
       <path d="M 54.890625 33.015625 
L 54.890625 0 
L 45.90625 0 
L 45.90625 32.71875 
Q 45.90625 40.484375 42.875 44.328125 
Q 39.84375 48.1875 33.796875 48.1875 
Q 26.515625 48.1875 22.3125 43.546875 
Q 18.109375 38.921875 18.109375 30.90625 
L 18.109375 0 
L 9.078125 0 
L 9.078125 54.6875 
L 18.109375 54.6875 
L 18.109375 46.1875 
Q 21.34375 51.125 25.703125 53.5625 
Q 30.078125 56 35.796875 56 
Q 45.21875 56 50.046875 50.171875 
Q 54.890625 44.34375 54.890625 33.015625 
z
" id="DejaVuSans-110"/>
       <path d="M 31 75.875 
Q 24.46875 64.65625 21.28125 53.65625 
Q 18.109375 42.671875 18.109375 31.390625 
Q 18.109375 20.125 21.3125 9.0625 
Q 24.515625 -2 31 -13.1875 
L 23.1875 -13.1875 
Q 15.875 -1.703125 12.234375 9.375 
Q 8.59375 20.453125 8.59375 31.390625 
Q 8.59375 42.28125 12.203125 53.3125 
Q 15.828125 64.359375 23.1875 75.875 
z
" id="DejaVuSans-40"/>
       <path d="M 9.078125 75.984375 
L 18.109375 75.984375 
L 18.109375 31.109375 
L 44.921875 54.6875 
L 56.390625 54.6875 
L 27.390625 29.109375 
L 57.625 0 
L 45.90625 0 
L 18.109375 26.703125 
L 18.109375 0 
L 9.078125 0 
z
" id="DejaVuSans-107"/>
       <path d="M 52 44.1875 
Q 55.375 50.25 60.0625 53.125 
Q 64.75 56 71.09375 56 
Q 79.640625 56 84.28125 50.015625 
Q 88.921875 44.046875 88.921875 33.015625 
L 88.921875 0 
L 79.890625 0 
L 79.890625 32.71875 
Q 79.890625 40.578125 77.09375 44.375 
Q 74.3125 48.1875 68.609375 48.1875 
Q 61.625 48.1875 57.5625 43.546875 
Q 53.515625 38.921875 53.515625 30.90625 
L 53.515625 0 
L 44.484375 0 
L 44.484375 32.71875 
Q 44.484375 40.625 41.703125 44.40625 
Q 38.921875 48.1875 33.109375 48.1875 
Q 26.21875 48.1875 22.15625 43.53125 
Q 18.109375 38.875 18.109375 30.90625 
L 18.109375 0 
L 9.078125 0 
L 9.078125 54.6875 
L 18.109375 54.6875 
L 18.109375 46.1875 
Q 21.1875 51.21875 25.484375 53.609375 
Q 29.78125 56 35.6875 56 
Q 41.65625 56 45.828125 52.96875 
Q 50 49.953125 52 44.1875 
z
" id="DejaVuSans-109"/>
       <path d="M 8.015625 75.875 
L 15.828125 75.875 
Q 23.140625 64.359375 26.78125 53.3125 
Q 30.421875 42.28125 30.421875 31.390625 
Q 30.421875 20.453125 26.78125 9.375 
Q 23.140625 -1.703125 15.828125 -13.1875 
L 8.015625 -13.1875 
Q 14.5 -2 17.703125 9.0625 
Q 20.90625 20.125 20.90625 31.390625 
Q 20.90625 42.671875 17.703125 53.65625 
Q 14.5 64.65625 8.015625 75.875 
z
" id="DejaVuSans-41"/>
      </defs>
      <use xlink:href="#DejaVuSans-71"/>
      <use x="77.490234" xlink:href="#DejaVuSans-114"/>
      <use x="116.353516" xlink:href="#DejaVuSans-101"/>
      <use x="177.876953" xlink:href="#DejaVuSans-97"/>
      <use x="239.15625" xlink:href="#DejaVuSans-116"/>
      <use x="278.365234" xlink:href="#DejaVuSans-32"/>
      <use x="310.152344" xlink:href="#DejaVuSans-67"/>
      <use x="379.976562" xlink:href="#DejaVuSans-105"/>
      <use x="407.759766" xlink:href="#DejaVuSans-114"/>
      <use x="446.623047" xlink:href="#DejaVuSans-99"/>
      <use x="501.603516" xlink:href="#DejaVuSans-108"/>
      <use x="529.386719" xlink:href="#DejaVuSans-101"/>
      <use x="590.910156" xlink:href="#DejaVuSans-32"/>
      <use x="622.697266" xlink:href="#DejaVuSans-68"/>
      <use x="699.699219" xlink:href="#DejaVuSans-105"/>
      <use x="727.482422" xlink:href="#DejaVuSans-115"/>
      <use x="779.582031" xlink:href="#DejaVuSans-116"/>
      <use x="818.791016" xlink:href="#DejaVuSans-97"/>
      <use x="880.070312" xlink:href="#DejaVuSans-110"/>
      <use x="943.449219" xlink:href="#DejaVuSans-99"/>
      <use x="998.429688" xlink:href="#DejaVuSans-101"/>
      <use x="1059.953125" xlink:href="#DejaVuSans-32"/>
      <use x="1091.740234" xlink:href="#DejaVuSans-40"/>
      <use x="1130.753906" xlink:href="#DejaVuSans-107"/>
      <use x="1188.664062" xlink:href="#DejaVuSans-109"/>
      <use x="1286.076172" xlink:href="#DejaVuSans-41"/>
     </g>
    </g>
   </g>
   <g id="matplotlib.axis_2">
    <g id="ytick_1">
     <g id="line2d_9">
      <defs>
       <path d="M 0 0 
L -3.5 0 
" id="m6c4eb53e44" style="stroke:#000000;stroke-width:0.8;"/>
      </defs>
      <g>
       <use style="stroke:#000000;stroke-width:0.8;" x="26.220313" xlink:href="#m6c4eb53e44" y="129.981631"/>
      </g>
     </g>
     <g id="text_10">
      <!-- 1 -->
      <g transform="translate(16.039063 131.88124)scale(0.05 -0.05)">
       <use xlink:href="#DejaVuSans-49"/>
      </g>
     </g>
    </g>
    <g id="ytick_2">
     <g id="line2d_10">
      <g>
       <use style="stroke:#000000;stroke-width:0.8;" x="26.220313" xlink:href="#m6c4eb53e44" y="111.411803"/>
      </g>
     </g>
     <g id="text_11">
      <!-- 2 -->
      <g transform="translate(16.039063 113.311412)scale(0.05 -0.05)">
       <use xlink:href="#DejaVuSans-50"/>
      </g>
     </g>
    </g>
    <g id="ytick_3">
     <g id="line2d_11">
      <g>
       <use style="stroke:#000000;stroke-width:0.8;" x="26.220313" xlink:href="#m6c4eb53e44" y="92.841974"/>
      </g>
     </g>
     <g id="text_12">
      <!-- 3 -->
      <g transform="translate(16.039063 94.741584)scale(0.05 -0.05)">
       <defs>
        <path d="M 40.578125 39.3125 
Q 47.65625 37.796875 51.625 33 
Q 55.609375 28.21875 55.609375 21.1875 
Q 55.609375 10.40625 48.1875 4.484375 
Q 40.765625 -1.421875 27.09375 -1.421875 
Q 22.515625 -1.421875 17.65625 -0.515625 
Q 12.796875 0.390625 7.625 2.203125 
L 7.625 11.71875 
Q 11.71875 9.328125 16.59375 8.109375 
Q 21.484375 6.890625 26.8125 6.890625 
Q 36.078125 6.890625 40.9375 10.546875 
Q 45.796875 14.203125 45.796875 21.1875 
Q 45.796875 27.640625 41.28125 31.265625 
Q 36.765625 34.90625 28.71875 34.90625 
L 20.21875 34.90625 
L 20.21875 43.015625 
L 29.109375 43.015625 
Q 36.375 43.015625 40.234375 45.921875 
Q 44.09375 48.828125 44.09375 54.296875 
Q 44.09375 59.90625 40.109375 62.90625 
Q 36.140625 65.921875 28.71875 65.921875 
Q 24.65625 65.921875 20.015625 65.03125 
Q 15.375 64.15625 9.8125 62.3125 
L 9.8125 71.09375 
Q 15.4375 72.65625 20.34375 73.4375 
Q 25.25 74.21875 29.59375 74.21875 
Q 40.828125 74.21875 47.359375 69.109375 
Q 53.90625 64.015625 53.90625 55.328125 
Q 53.90625 49.265625 50.4375 45.09375 
Q 46.96875 40.921875 40.578125 39.3125 
z
" id="DejaVuSans-51"/>
       </defs>
       <use xlink:href="#DejaVuSans-51"/>
      </g>
     </g>
    </g>
    <g id="ytick_4">
     <g id="line2d_12">
      <g>
       <use style="stroke:#000000;stroke-width:0.8;" x="26.220313" xlink:href="#m6c4eb53e44" y="74.272146"/>
      </g>
     </g>
     <g id="text_13">
      <!-- 4 -->
      <g transform="translate(16.039063 76.171755)scale(0.05 -0.05)">
       <defs>
        <path d="M 37.796875 64.3125 
L 12.890625 25.390625 
L 37.796875 25.390625 
z
M 35.203125 72.90625 
L 47.609375 72.90625 
L 47.609375 25.390625 
L 58.015625 25.390625 
L 58.015625 17.1875 
L 47.609375 17.1875 
L 47.609375 0 
L 37.796875 0 
L 37.796875 17.1875 
L 4.890625 17.1875 
L 4.890625 26.703125 
z
" id="DejaVuSans-52"/>
       </defs>
       <use xlink:href="#DejaVuSans-52"/>
      </g>
     </g>
    </g>
    <g id="ytick_5">
     <g id="line2d_13">
      <g>
       <use style="stroke:#000000;stroke-width:0.8;" x="26.220313" xlink:href="#m6c4eb53e44" y="55.702318"/>
      </g>
     </g>
     <g id="text_14">
      <!-- 5 -->
      <g transform="translate(16.039063 57.601927)scale(0.05 -0.05)">
       <use xlink:href="#DejaVuSans-53"/>
      </g>
     </g>
    </g>
    <g id="ytick_6">
     <g id="line2d_14">
      <g>
       <use style="stroke:#000000;stroke-width:0.8;" x="26.220313" xlink:href="#m6c4eb53e44" y="37.13249"/>
      </g>
     </g>
     <g id="text_15">
      <!-- 6 -->
      <g transform="translate(16.039063 39.032099)scale(0.05 -0.05)">
       <defs>
        <path d="M 33.015625 40.375 
Q 26.375 40.375 22.484375 35.828125 
Q 18.609375 31.296875 18.609375 23.390625 
Q 18.609375 15.53125 22.484375 10.953125 
Q 26.375 6.390625 33.015625 6.390625 
Q 39.65625 6.390625 43.53125 10.953125 
Q 47.40625 15.53125 47.40625 23.390625 
Q 47.40625 31.296875 43.53125 35.828125 
Q 39.65625 40.375 33.015625 40.375 
z
M 52.59375 71.296875 
L 52.59375 62.3125 
Q 48.875 64.0625 45.09375 64.984375 
Q 41.3125 65.921875 37.59375 65.921875 
Q 27.828125 65.921875 22.671875 59.328125 
Q 17.53125 52.734375 16.796875 39.40625 
Q 19.671875 43.65625 24.015625 45.921875 
Q 28.375 48.1875 33.59375 48.1875 
Q 44.578125 48.1875 50.953125 41.515625 
Q 57.328125 34.859375 57.328125 23.390625 
Q 57.328125 12.15625 50.6875 5.359375 
Q 44.046875 -1.421875 33.015625 -1.421875 
Q 20.359375 -1.421875 13.671875 8.265625 
Q 6.984375 17.96875 6.984375 36.375 
Q 6.984375 53.65625 15.1875 63.9375 
Q 23.390625 74.21875 37.203125 74.21875 
Q 40.921875 74.21875 44.703125 73.484375 
Q 48.484375 72.75 52.59375 71.296875 
z
" id="DejaVuSans-54"/>
       </defs>
       <use xlink:href="#DejaVuSans-54"/>
      </g>
     </g>
    </g>
    <g id="ytick_7">
     <g id="line2d_15">
      <g>
       <use style="stroke:#000000;stroke-width:0.8;" x="26.220313" xlink:href="#m6c4eb53e44" y="18.562661"/>
      </g>
     </g>
     <g id="text_16">
      <!-- 7 -->
      <g transform="translate(16.039063 20.462271)scale(0.05 -0.05)">
       <use xlink:href="#DejaVuSans-55"/>
      </g>
     </g>
    </g>
    <g id="text_17">
     <!-- Genetic Distance (subs / site) -->
     <g transform="translate(10.999219 116.072234)rotate(-90)scale(0.05 -0.05)">
      <defs>
       <path d="M 8.5 21.578125 
L 8.5 54.6875 
L 17.484375 54.6875 
L 17.484375 21.921875 
Q 17.484375 14.15625 20.5 10.265625 
Q 23.53125 6.390625 29.59375 6.390625 
Q 36.859375 6.390625 41.078125 11.03125 
Q 45.3125 15.671875 45.3125 23.6875 
L 45.3125 54.6875 
L 54.296875 54.6875 
L 54.296875 0 
L 45.3125 0 
L 45.3125 8.40625 
Q 42.046875 3.421875 37.71875 1 
Q 33.40625 -1.421875 27.6875 -1.421875 
Q 18.265625 -1.421875 13.375 4.4375 
Q 8.5 10.296875 8.5 21.578125 
z
M 31.109375 56 
z
" id="DejaVuSans-117"/>
       <path d="M 48.6875 27.296875 
Q 48.6875 37.203125 44.609375 42.84375 
Q 40.53125 48.484375 33.40625 48.484375 
Q 26.265625 48.484375 22.1875 42.84375 
Q 18.109375 37.203125 18.109375 27.296875 
Q 18.109375 17.390625 22.1875 11.75 
Q 26.265625 6.109375 33.40625 6.109375 
Q 40.53125 6.109375 44.609375 11.75 
Q 48.6875 17.390625 48.6875 27.296875 
z
M 18.109375 46.390625 
Q 20.953125 51.265625 25.265625 53.625 
Q 29.59375 56 35.59375 56 
Q 45.5625 56 51.78125 48.09375 
Q 58.015625 40.1875 58.015625 27.296875 
Q 58.015625 14.40625 51.78125 6.484375 
Q 45.5625 -1.421875 35.59375 -1.421875 
Q 29.59375 -1.421875 25.265625 0.953125 
Q 20.953125 3.328125 18.109375 8.203125 
L 18.109375 0 
L 9.078125 0 
L 9.078125 75.984375 
L 18.109375 75.984375 
z
" id="DejaVuSans-98"/>
       <path d="M 25.390625 72.90625 
L 33.6875 72.90625 
L 8.296875 -9.28125 
L 0 -9.28125 
z
" id="DejaVuSans-47"/>
      </defs>
      <use xlink:href="#DejaVuSans-71"/>
      <use x="77.490234" xlink:href="#DejaVuSans-101"/>
      <use x="139.013672" xlink:href="#DejaVuSans-110"/>
      <use x="202.392578" xlink:href="#DejaVuSans-101"/>
      <use x="263.916016" xlink:href="#DejaVuSans-116"/>
      <use x="303.125" xlink:href="#DejaVuSans-105"/>
      <use x="330.908203" xlink:href="#DejaVuSans-99"/>
      <use x="385.888672" xlink:href="#DejaVuSans-32"/>
      <use x="417.675781" xlink:href="#DejaVuSans-68"/>
      <use x="494.677734" xlink:href="#DejaVuSans-105"/>
      <use x="522.460938" xlink:href="#DejaVuSans-115"/>
      <use x="574.560547" xlink:href="#DejaVuSans-116"/>
      <use x="613.769531" xlink:href="#DejaVuSans-97"/>
      <use x="675.048828" xlink:href="#DejaVuSans-110"/>
      <use x="738.427734" xlink:href="#DejaVuSans-99"/>
      <use x="793.408203" xlink:href="#DejaVuSans-101"/>
      <use x="854.931641" xlink:href="#DejaVuSans-32"/>
      <use x="886.71875" xlink:href="#DejaVuSans-40"/>
      <use x="925.732422" xlink:href="#DejaVuSans-115"/>
      <use x="977.832031" xlink:href="#DejaVuSans-117"/>
      <use x="1041.210938" xlink:href="#DejaVuSans-98"/>
      <use x="1104.6875" xlink:href="#DejaVuSans-115"/>
      <use x="1156.787109" xlink:href="#DejaVuSans-32"/>
      <use x="1188.574219" xlink:href="#DejaVuSans-47"/>
      <use x="1222.265625" xlink:href="#DejaVuSans-32"/>
      <use x="1254.052734" xlink:href="#DejaVuSans-115"/>
      <use x="1306.152344" xlink:href="#DejaVuSans-105"/>
      <use x="1333.935547" xlink:href="#DejaVuSans-116"/>
      <use x="1373.144531" xlink:href="#DejaVuSans-101"/>
      <use x="1434.667969" xlink:href="#DejaVuSans-41"/>
     </g>
    </g>
    <g id="text_18">
     <!-- 1e−5 -->
     <g transform="translate(26.220313 10.999219)scale(0.05 -0.05)">
      <defs>
       <path d="M 10.59375 35.5 
L 73.1875 35.5 
L 73.1875 27.203125 
L 10.59375 27.203125 
z
" id="DejaVuSans-8722"/>
      </defs>
      <use xlink:href="#DejaVuSans-49"/>
      <use x="63.623047" xlink:href="#DejaVuSans-101"/>
      <use x="125.146484" xlink:href="#DejaVuSans-8722"/>
      <use x="208.935547" xlink:href="#DejaVuSans-53"/>
     </g>
    </g>
   </g>
   <g id="PathCollection_2">
    <defs>
     <path d="M 0 0.5 
C 0.132602 0.5 0.25979 0.447317 0.353553 0.353553 
C 0.447317 0.25979 0.5 0.132602 0.5 0 
C 0.5 -0.132602 0.447317 -0.25979 0.353553 -0.353553 
C 0.25979 -0.447317 0.132602 -0.5 0 -0.5 
C -0.132602 -0.5 -0.25979 -0.447317 -0.353553 -0.353553 
C -0.447317 -0.25979 -0.5 -0.132602 -0.5 0 
C -0.5 0.132602 -0.447317 0.25979 -0.353553 0.353553 
C -0.25979 0.447317 -0.132602 0.5 0 0.5 
z
" id="ma639ee7d46" style="stroke:#ffffff;stroke-opacity:0.75;stroke-width:0.08;"/>
    </defs>
    <g clip-path="url(#p184b6816ec)">
     <use style="fill-opacity:0.75;stroke:#ffffff;stroke-opacity:0.75;stroke-width:0.08;" x="37.550043" xlink:href="#ma639ee7d46" y="19.929401"/>
     <use style="fill-opacity:0.75;stroke:#ffffff;stroke-opacity:0.75;stroke-width:0.08;" x="30.666096" xlink:href="#ma639ee7d46" y="99.343271"/>
     <use style="fill-opacity:0.75;stroke:#ffffff;stroke-opacity:0.75;stroke-width:0.08;" x="26.220313" xlink:href="#ma639ee7d46" y="100.815859"/>
     <use style="fill-opacity:0.75;stroke:#ffffff;stroke-opacity:0.75;stroke-width:0.08;" x="26.220313" xlink:href="#ma639ee7d46" y="108.449915"/>
     <use style="fill-opacity:0.75;stroke:#ffffff;stroke-opacity:0.75;stroke-width:0.08;" x="30.666096" xlink:href="#ma639ee7d46" y="119.528675"/>
     <use style="fill-opacity:0.75;stroke:#ffffff;stroke-opacity:0.75;stroke-width:0.08;" x="30.666096" xlink:href="#ma639ee7d46" y="127.162731"/>
     <use style="fill-opacity:0.75;stroke:#ffffff;stroke-opacity:0.75;stroke-width:0.08;" x="26.220313" xlink:href="#ma639ee7d46" y="128.72074"/>
     <use style="fill-opacity:0.75;stroke:#ffffff;stroke-opacity:0.75;stroke-width:0.08;" x="36.901488" xlink:href="#ma639ee7d46" y="137.225721"/>
     <use style="fill-opacity:0.75;stroke:#ffffff;stroke-opacity:0.75;stroke-width:0.08;" x="35.783358" xlink:href="#ma639ee7d46" y="138.533037"/>
     <use style="fill-opacity:0.75;stroke:#ffffff;stroke-opacity:0.75;stroke-width:0.08;" x="30.73671" xlink:href="#ma639ee7d46" y="137.662112"/>
     <use style="fill-opacity:0.75;stroke:#ffffff;stroke-opacity:0.75;stroke-width:0.08;" x="117.613088" xlink:href="#ma639ee7d46" y="127.597265"/>
     <use style="fill-opacity:0.75;stroke:#ffffff;stroke-opacity:0.75;stroke-width:0.08;" x="117.613088" xlink:href="#ma639ee7d46" y="126.683629"/>
     <use style="fill-opacity:0.75;stroke:#ffffff;stroke-opacity:0.75;stroke-width:0.08;" x="69.836246" xlink:href="#ma639ee7d46" y="126.769051"/>
     <use style="fill-opacity:0.75;stroke:#ffffff;stroke-opacity:0.75;stroke-width:0.08;" x="26.220313" xlink:href="#ma639ee7d46" y="129.339115"/>
     <use style="fill-opacity:0.75;stroke:#ffffff;stroke-opacity:0.75;stroke-width:0.08;" x="160.140312" xlink:href="#ma639ee7d46" y="129.339115"/>
     <use style="fill-opacity:0.75;stroke:#ffffff;stroke-opacity:0.75;stroke-width:0.08;" x="160.140312" xlink:href="#ma639ee7d46" y="128.425479"/>
     <use style="fill-opacity:0.75;stroke:#ffffff;stroke-opacity:0.75;stroke-width:0.08;" x="59.512041" xlink:href="#ma639ee7d46" y="118.927012"/>
     <use style="fill-opacity:0.75;stroke:#ffffff;stroke-opacity:0.75;stroke-width:0.08;" x="40.696555" xlink:href="#ma639ee7d46" y="126.334517"/>
     <use style="fill-opacity:0.75;stroke:#ffffff;stroke-opacity:0.75;stroke-width:0.08;" x="45.101229" xlink:href="#ma639ee7d46" y="130.689141"/>
     <use style="fill-opacity:0.75;stroke:#ffffff;stroke-opacity:0.75;stroke-width:0.08;" x="68.01834" xlink:href="#ma639ee7d46" y="85.661022"/>
     <use style="fill-opacity:0.75;stroke:#ffffff;stroke-opacity:0.75;stroke-width:0.08;" x="52.16793" xlink:href="#ma639ee7d46" y="94.368414"/>
     <use style="fill-opacity:0.75;stroke:#ffffff;stroke-opacity:0.75;stroke-width:0.08;" x="29.148772" xlink:href="#ma639ee7d46" y="84.368562"/>
     <use style="fill-opacity:0.75;stroke:#ffffff;stroke-opacity:0.75;stroke-width:0.08;" x="43.527045" xlink:href="#ma639ee7d46" y="126.733768"/>
     <use style="fill-opacity:0.75;stroke:#ffffff;stroke-opacity:0.75;stroke-width:0.08;" x="65.263342" xlink:href="#ma639ee7d46" y="116.733915"/>
     <use style="fill-opacity:0.75;stroke:#ffffff;stroke-opacity:0.75;stroke-width:0.08;" x="49.744474" xlink:href="#ma639ee7d46" y="128.093079"/>
     <use style="fill-opacity:0.75;stroke:#ffffff;stroke-opacity:0.75;stroke-width:0.08;" x="34.38667" xlink:href="#ma639ee7d46" y="129.383683"/>
    </g>
   </g>
   <g id="line2d_16">
    <path clip-path="url(#p184b6816ec)" d="M 26.220313 113.136636 
L 27.57304 113.286619 
L 28.925767 113.436601 
L 30.278494 113.586583 
L 31.631222 113.736565 
L 32.983949 113.886548 
L 34.336676 114.03653 
L 35.689403 114.186512 
L 37.042131 114.336494 
L 38.394858 114.486477 
L 39.747585 114.636459 
L 41.100313 114.786441 
L 42.45304 114.936423 
L 43.805767 115.086406 
L 45.158494 115.236388 
L 46.511222 115.38637 
L 47.863949 115.536352 
L 49.216676 115.686335 
L 50.569403 115.836317 
L 51.922131 115.986299 
L 53.274858 116.136281 
L 54.627585 116.286264 
L 55.980313 116.436246 
L 57.33304 116.586228 
L 58.685767 116.73621 
L 60.038494 116.886193 
L 61.391222 117.036175 
L 62.743949 117.186157 
L 64.096676 117.336139 
L 65.449403 117.486122 
L 66.802131 117.636104 
L 68.154858 117.786086 
L 69.507585 117.936068 
L 70.860313 118.086051 
L 72.21304 118.236033 
L 73.565767 118.386015 
L 74.918494 118.535997 
L 76.271222 118.68598 
L 77.623949 118.835962 
L 78.976676 118.985944 
L 80.329403 119.135926 
L 81.682131 119.285909 
L 83.034858 119.435891 
L 84.387585 119.585873 
L 85.740313 119.735855 
L 87.09304 119.885838 
L 88.445767 120.03582 
L 89.798494 120.185802 
L 91.151222 120.335784 
L 92.503949 120.485766 
L 93.856676 120.635749 
L 95.209403 120.785731 
L 96.562131 120.935713 
L 97.914858 121.085695 
L 99.267585 121.235678 
L 100.620312 121.38566 
L 101.97304 121.535642 
L 103.325767 121.685624 
L 104.678494 121.835607 
L 106.031222 121.985589 
L 107.383949 122.135571 
L 108.736676 122.285553 
L 110.089403 122.435536 
L 111.442131 122.585518 
L 112.794858 122.7355 
L 114.147585 122.885482 
L 115.500313 123.035465 
L 116.85304 123.185447 
L 118.205767 123.335429 
L 119.558494 123.485411 
L 120.911222 123.635394 
L 122.263949 123.785376 
L 123.616676 123.935358 
L 124.969403 124.08534 
L 126.322131 124.235323 
L 127.674858 124.385305 
L 129.027585 124.535287 
L 130.380313 124.685269 
L 131.73304 124.835252 
L 133.085767 124.985234 
L 134.438494 125.135216 
L 135.791222 125.285198 
L 137.143949 125.435181 
L 138.496676 125.585163 
L 139.849403 125.735145 
L 141.202131 125.885127 
L 142.554858 126.03511 
L 143.907585 126.185092 
L 145.260312 126.335074 
L 146.61304 126.485056 
L 147.965767 126.635039 
L 149.318494 126.785021 
L 150.671222 126.935003 
L 152.023949 127.084985 
L 153.376676 127.234968 
L 154.729403 127.38495 
L 156.082131 127.534932 
L 157.434858 127.684914 
L 158.787585 127.834897 
L 160.140312 127.984879 
" style="fill:none;stroke:#808080;stroke-linecap:square;stroke-width:0.5;"/>
   </g>
   <g id="patch_3">
    <path d="M 26.220313 144.463219 
L 26.220313 13.999219 
" style="fill:none;stroke:#000000;stroke-linecap:square;stroke-linejoin:miter;stroke-width:0.8;"/>
   </g>
   <g id="patch_4">
    <path d="M 160.140312 144.463219 
L 160.140312 13.999219 
" style="fill:none;stroke:#000000;stroke-linecap:square;stroke-linejoin:miter;stroke-width:0.8;"/>
   </g>
   <g id="patch_5">
    <path d="M 26.220313 144.463219 
L 160.140312 144.463219 
" style="fill:none;stroke:#000000;stroke-linecap:square;stroke-linejoin:miter;stroke-width:0.8;"/>
   </g>
   <g id="patch_6">
    <path d="M 26.220313 13.999219 
L 160.140312 13.999219 
" style="fill:none;stroke:#000000;stroke-linecap:square;stroke-linejoin:miter;stroke-width:0.8;"/>
   </g>
   <g id="legend_1">
    <g id="patch_7">
     <path d="M 108.985625 34.937187 
L 156.640312 34.937187 
Q 157.640312 34.937187 157.640312 33.937187 
L 157.640312 17.499219 
Q 157.640312 16.499219 156.640312 16.499219 
L 108.985625 16.499219 
Q 107.985625 16.499219 107.985625 17.499219 
L 107.985625 33.937187 
Q 107.985625 34.937187 108.985625 34.937187 
z
" style="fill:#ffffff;opacity:0.8;stroke:#000000;stroke-linejoin:miter;stroke-width:0.5;"/>
    </g>
    <g id="PathCollection_3">
     <g>
      <use style="fill:#808080;fill-opacity:0.8;stroke:#808080;stroke-opacity:0.8;" x="116.985625" xlink:href="#m66185b2172" y="26.305312"/>
     </g>
    </g>
    <g id="text_19">
     <!--    R²: 1.0 -->
     <g transform="translate(111.985625 24.298437)scale(0.05 -0.05)">
      <defs>
       <path d="M 44.390625 34.1875 
Q 47.5625 33.109375 50.5625 29.59375 
Q 53.5625 26.078125 56.59375 19.921875 
L 66.609375 0 
L 56 0 
L 46.6875 18.703125 
Q 43.0625 26.03125 39.671875 28.421875 
Q 36.28125 30.8125 30.421875 30.8125 
L 19.671875 30.8125 
L 19.671875 0 
L 9.8125 0 
L 9.8125 72.90625 
L 32.078125 72.90625 
Q 44.578125 72.90625 50.734375 67.671875 
Q 56.890625 62.453125 56.890625 51.90625 
Q 56.890625 45.015625 53.6875 40.46875 
Q 50.484375 35.9375 44.390625 34.1875 
z
M 19.671875 64.796875 
L 19.671875 38.921875 
L 32.078125 38.921875 
Q 39.203125 38.921875 42.84375 42.21875 
Q 46.484375 45.515625 46.484375 51.90625 
Q 46.484375 58.296875 42.84375 61.546875 
Q 39.203125 64.796875 32.078125 64.796875 
z
" id="DejaVuSans-82"/>
       <path d="M 13.09375 38.1875 
L 33.796875 38.1875 
L 33.796875 32.625 
L 4.59375 32.625 
L 4.59375 37.984375 
Q 6.25 39.5 9.328125 42.234375 
Q 26.125 57.125 26.125 61.71875 
Q 26.125 64.9375 23.578125 66.90625 
Q 21.046875 68.890625 16.890625 68.890625 
Q 14.359375 68.890625 11.375 68.03125 
Q 8.40625 67.1875 4.890625 65.484375 
L 4.890625 71.484375 
Q 8.640625 72.859375 11.890625 73.53125 
Q 15.140625 74.21875 17.921875 74.21875 
Q 25 74.21875 29.25 71 
Q 33.5 67.78125 33.5 62.5 
Q 33.5 55.71875 17.328125 41.84375 
Q 14.59375 39.5 13.09375 38.1875 
z
" id="DejaVuSans-178"/>
       <path d="M 11.71875 12.40625 
L 22.015625 12.40625 
L 22.015625 0 
L 11.71875 0 
z
M 11.71875 51.703125 
L 22.015625 51.703125 
L 22.015625 39.3125 
L 11.71875 39.3125 
z
" id="DejaVuSans-58"/>
       <path d="M 10.6875 12.40625 
L 21 12.40625 
L 21 0 
L 10.6875 0 
z
" id="DejaVuSans-46"/>
      </defs>
      <use xlink:href="#DejaVuSans-32"/>
      <use x="31.787109" xlink:href="#DejaVuSans-32"/>
      <use x="63.574219" xlink:href="#DejaVuSans-32"/>
      <use x="95.361328" xlink:href="#DejaVuSans-82"/>
      <use x="164.84375" xlink:href="#DejaVuSans-178"/>
      <use x="204.931641" xlink:href="#DejaVuSans-58"/>
      <use x="238.623047" xlink:href="#DejaVuSans-32"/>
      <use x="270.410156" xlink:href="#DejaVuSans-49"/>
      <use x="334.033203" xlink:href="#DejaVuSans-46"/>
      <use x="365.820312" xlink:href="#DejaVuSans-48"/>
     </g>
     <!--      p: 0.00e+00* -->
     <g transform="translate(111.985625 29.897344)scale(0.05 -0.05)">
      <defs>
       <path d="M 18.109375 8.203125 
L 18.109375 -20.796875 
L 9.078125 -20.796875 
L 9.078125 54.6875 
L 18.109375 54.6875 
L 18.109375 46.390625 
Q 20.953125 51.265625 25.265625 53.625 
Q 29.59375 56 35.59375 56 
Q 45.5625 56 51.78125 48.09375 
Q 58.015625 40.1875 58.015625 27.296875 
Q 58.015625 14.40625 51.78125 6.484375 
Q 45.5625 -1.421875 35.59375 -1.421875 
Q 29.59375 -1.421875 25.265625 0.953125 
Q 20.953125 3.328125 18.109375 8.203125 
z
M 48.6875 27.296875 
Q 48.6875 37.203125 44.609375 42.84375 
Q 40.53125 48.484375 33.40625 48.484375 
Q 26.265625 48.484375 22.1875 42.84375 
Q 18.109375 37.203125 18.109375 27.296875 
Q 18.109375 17.390625 22.1875 11.75 
Q 26.265625 6.109375 33.40625 6.109375 
Q 40.53125 6.109375 44.609375 11.75 
Q 48.6875 17.390625 48.6875 27.296875 
z
" id="DejaVuSans-112"/>
       <path d="M 46 62.703125 
L 46 35.5 
L 73.1875 35.5 
L 73.1875 27.203125 
L 46 27.203125 
L 46 0 
L 37.796875 0 
L 37.796875 27.203125 
L 10.59375 27.203125 
L 10.59375 35.5 
L 37.796875 35.5 
L 37.796875 62.703125 
z
" id="DejaVuSans-43"/>
       <path d="M 47.015625 60.890625 
L 29.5 51.421875 
L 47.015625 41.890625 
L 44.1875 37.109375 
L 27.78125 47.015625 
L 27.78125 28.609375 
L 22.21875 28.609375 
L 22.21875 47.015625 
L 5.8125 37.109375 
L 2.984375 41.890625 
L 20.515625 51.421875 
L 2.984375 60.890625 
L 5.8125 65.71875 
L 22.21875 55.8125 
L 22.21875 74.21875 
L 27.78125 74.21875 
L 27.78125 55.8125 
L 44.1875 65.71875 
z
" id="DejaVuSans-42"/>
      </defs>
      <use xlink:href="#DejaVuSans-32"/>
      <use x="31.787109" xlink:href="#DejaVuSans-32"/>
      <use x="63.574219" xlink:href="#DejaVuSans-32"/>
      <use x="95.361328" xlink:href="#DejaVuSans-32"/>
      <use x="127.148438" xlink:href="#DejaVuSans-32"/>
      <use x="158.935547" xlink:href="#DejaVuSans-112"/>
      <use x="222.412109" xlink:href="#DejaVuSans-58"/>
      <use x="256.103516" xlink:href="#DejaVuSans-32"/>
      <use x="287.890625" xlink:href="#DejaVuSans-48"/>
      <use x="351.513672" xlink:href="#DejaVuSans-46"/>
      <use x="383.300781" xlink:href="#DejaVuSans-48"/>
      <use x="446.923828" xlink:href="#DejaVuSans-48"/>
      <use x="510.546875" xlink:href="#DejaVuSans-101"/>
      <use x="572.070312" xlink:href="#DejaVuSans-43"/>
      <use x="655.859375" xlink:href="#DejaVuSans-48"/>
      <use x="719.482422" xlink:href="#DejaVuSans-48"/>
      <use x="783.105469" xlink:href="#DejaVuSans-42"/>
     </g>
    </g>
   </g>
  </g>
 </g>
 <defs>
  <clipPath id="p184b6816ec">
   <rect height="130.464" width="133.92" x="26.220313" y="13.999219"/>
  </clipPath>
 </defs>
</svg>
