<?xml version="1.0" encoding="utf-8" standalone="no"?>
<!DOCTYPE svg PUBLIC "-//W3C//DTD SVG 1.1//EN"
  "http://www.w3.org/Graphics/SVG/1.1/DTD/svg11.dtd">
<!-- Created with matplotlib (https://matplotlib.org/) -->
<svg height="172.341344pt" version="1.1" viewBox="0 0 172.748966 172.341344" width="172.748966pt" xmlns="http://www.w3.org/2000/svg" xmlns:xlink="http://www.w3.org/1999/xlink">
 <metadata>
  <rdf:RDF xmlns:cc="http://creativecommons.org/ns#" xmlns:dc="http://purl.org/dc/elements/1.1/" xmlns:rdf="http://www.w3.org/1999/02/22-rdf-syntax-ns#">
   <cc:Work>
    <dc:type rdf:resource="http://purl.org/dc/dcmitype/StillImage"/>
    <dc:date>2021-04-29T13:19:03.939289</dc:date>
    <dc:format>image/svg+xml</dc:format>
    <dc:creator>
     <cc:Agent>
      <dc:title>Matplotlib v3.3.2, https://matplotlib.org/</dc:title>
     </cc:Agent>
    </dc:creator>
   </cc:Work>
  </rdf:RDF>
 </metadata>
 <defs>
  <style type="text/css">*{stroke-linecap:butt;stroke-linejoin:round;}</style>
 </defs>
 <g id="figure_1">
  <g id="patch_1">
   <path d="M 0 172.341344 
L 172.748966 172.341344 
L 172.748966 0 
L 0 0 
z
" style="fill:none;"/>
  </g>
  <g id="axes_1">
   <g id="patch_2">
    <path d="M 26.220313 144.463219 
L 160.140312 144.463219 
L 160.140312 13.999219 
L 26.220313 13.999219 
z
" style="fill:#ffffff;"/>
   </g>
   <g id="PathCollection_1">
    <defs>
     <path d="M 0 0 
C 0 0 0 0 0 0 
C 0 0 0 0 0 0 
C 0 0 0 0 0 0 
C 0 0 0 0 0 0 
C 0 0 0 0 0 0 
C 0 0 0 0 0 0 
C 0 0 0 0 0 0 
C 0 0 0 0 0 0 
z
" id="m984cab9519" style="stroke:#808080;stroke-opacity:0.8;"/>
    </defs>
    <g clip-path="url(#pa0a3c0cc5c)">
     <use style="fill:#808080;fill-opacity:0.8;stroke:#808080;stroke-opacity:0.8;" x="132.478774" xlink:href="#m984cab9519" y="55.444872"/>
     <use style="fill:#808080;fill-opacity:0.8;stroke:#808080;stroke-opacity:0.8;" x="112.448005" xlink:href="#m984cab9519" y="102.334339"/>
     <use style="fill:#808080;fill-opacity:0.8;stroke:#808080;stroke-opacity:0.8;" x="136.294159" xlink:href="#m984cab9519" y="19.929401"/>
     <use style="fill:#808080;fill-opacity:0.8;stroke:#808080;stroke-opacity:0.8;" x="144.878774" xlink:href="#m984cab9519" y="58.959309"/>
     <use style="fill:#808080;fill-opacity:0.8;stroke:#808080;stroke-opacity:0.8;" x="131.524928" xlink:href="#m984cab9519" y="57.863198"/>
     <use style="fill:#808080;fill-opacity:0.8;stroke:#808080;stroke-opacity:0.8;" x="121.03262" xlink:href="#m984cab9519" y="74.081217"/>
     <use style="fill:#808080;fill-opacity:0.8;stroke:#808080;stroke-opacity:0.8;" x="113.401851" xlink:href="#m984cab9519" y="74.489187"/>
     <use style="fill:#808080;fill-opacity:0.8;stroke:#808080;stroke-opacity:0.8;" x="94.324928" xlink:href="#m984cab9519" y="90.230423"/>
     <use style="fill:#808080;fill-opacity:0.8;stroke:#808080;stroke-opacity:0.8;" x="67.617236" xlink:href="#m984cab9519" y="57.3176"/>
     <use style="fill:#808080;fill-opacity:0.8;stroke:#808080;stroke-opacity:0.8;" x="128.663389" xlink:href="#m984cab9519" y="69.991691"/>
     <use style="fill:#808080;fill-opacity:0.8;stroke:#808080;stroke-opacity:0.8;" x="125.801851" xlink:href="#m984cab9519" y="35.338854"/>
     <use style="fill:#808080;fill-opacity:0.8;stroke:#808080;stroke-opacity:0.8;" x="122.463389" xlink:href="#m984cab9519" y="33.490702"/>
     <use style="fill:#808080;fill-opacity:0.8;stroke:#808080;stroke-opacity:0.8;" x="96.23262" xlink:href="#m984cab9519" y="79.77313"/>
     <use style="fill:#808080;fill-opacity:0.8;stroke:#808080;stroke-opacity:0.8;" x="138.201851" xlink:href="#m984cab9519" y="80.947886"/>
     <use style="fill:#808080;fill-opacity:0.8;stroke:#808080;stroke-opacity:0.8;" x="122.940313" xlink:href="#m984cab9519" y="78.620493"/>
     <use style="fill:#808080;fill-opacity:0.8;stroke:#808080;stroke-opacity:0.8;" x="99.094159" xlink:href="#m984cab9519" y="72.306795"/>
     <use style="fill:#808080;fill-opacity:0.8;stroke:#808080;stroke-opacity:0.8;" x="141.063389" xlink:href="#m984cab9519" y="92.179337"/>
     <use style="fill:#808080;fill-opacity:0.8;stroke:#808080;stroke-opacity:0.8;" x="96.23262" xlink:href="#m984cab9519" y="83.806131"/>
     <use style="fill:#808080;fill-opacity:0.8;stroke:#808080;stroke-opacity:0.8;" x="142.971082" xlink:href="#m984cab9519" y="55.533348"/>
     <use style="fill:#808080;fill-opacity:0.8;stroke:#808080;stroke-opacity:0.8;" x="102.909543" xlink:href="#m984cab9519" y="138.533037"/>
     <use style="fill:#808080;fill-opacity:0.8;stroke:#808080;stroke-opacity:0.8;" x="143.924928" xlink:href="#m984cab9519" y="106.927683"/>
     <use style="fill:#808080;fill-opacity:0.8;stroke:#808080;stroke-opacity:0.8;" x="114.355697" xlink:href="#m984cab9519" y="67.057259"/>
     <use style="fill:#808080;fill-opacity:0.8;stroke:#808080;stroke-opacity:0.8;" x="143.924928" xlink:href="#m984cab9519" y="92.47917"/>
     <use style="fill:#808080;fill-opacity:0.8;stroke:#808080;stroke-opacity:0.8;" x="103.863389" xlink:href="#m984cab9519" y="136.79548"/>
     <use style="fill:#808080;fill-opacity:0.8;stroke:#808080;stroke-opacity:0.8;" x="142.971082" xlink:href="#m984cab9519" y="102.282728"/>
     <use style="fill:#808080;fill-opacity:0.8;stroke:#808080;stroke-opacity:0.8;" x="149.648005" xlink:href="#m984cab9519" y="57.750146"/>
     <use style="fill:#808080;fill-opacity:0.8;stroke:#808080;stroke-opacity:0.8;" x="126.755697" xlink:href="#m984cab9519" y="53.822825"/>
     <use style="fill:#808080;fill-opacity:0.8;stroke:#808080;stroke-opacity:0.8;" x="147.740313" xlink:href="#m984cab9519" y="72.884343"/>
    </g>
   </g>
   <g id="PolyCollection_1">
    <path clip-path="url(#pa0a3c0cc5c)" d="M 67.617236 64.182661 
L 67.617236 125.140016 
L 68.445829 124.567914 
L 69.274423 123.90021 
L 70.103016 123.231099 
L 70.93161 122.561447 
L 71.760204 121.891796 
L 72.588797 121.222144 
L 73.417391 120.55224 
L 74.245985 119.882237 
L 75.074578 119.212233 
L 75.903172 118.536051 
L 76.731765 117.845221 
L 77.560359 117.154391 
L 78.388953 116.43603 
L 79.217546 115.575878 
L 80.04614 114.807464 
L 80.874734 114.156802 
L 81.703327 113.506139 
L 82.531921 112.855477 
L 83.360515 112.204814 
L 84.189108 111.554152 
L 85.017702 110.903489 
L 85.846295 110.239695 
L 86.674889 109.525959 
L 87.503483 108.859027 
L 88.332076 108.244947 
L 89.16067 107.533242 
L 89.989264 106.919805 
L 90.817857 106.351401 
L 91.646451 105.706186 
L 92.475044 105.042609 
L 93.303638 104.366003 
L 94.132232 103.689397 
L 94.960825 103.084813 
L 95.789419 102.393517 
L 96.618013 101.69959 
L 97.446606 101.020255 
L 98.2752 100.368516 
L 99.103793 99.73509 
L 99.932387 99.139184 
L 100.760981 98.562433 
L 101.589574 97.962322 
L 102.418168 97.341488 
L 103.246762 96.653397 
L 104.075355 95.969551 
L 104.903949 95.322176 
L 105.732542 94.803287 
L 106.561136 94.305107 
L 107.38973 93.788627 
L 108.218323 93.286131 
L 109.046917 92.783289 
L 109.875511 92.144012 
L 110.704104 91.681913 
L 111.532698 91.23527 
L 112.361292 90.452395 
L 113.189885 89.966035 
L 114.018479 89.565531 
L 114.847072 89.052896 
L 115.675666 88.599687 
L 116.50426 88.192547 
L 117.332853 87.512192 
L 118.161447 86.977961 
L 118.990041 86.386203 
L 119.818634 85.826019 
L 120.647228 85.565623 
L 121.475821 85.259394 
L 122.304415 84.938323 
L 123.133009 84.748499 
L 123.961602 84.502876 
L 124.790196 84.189705 
L 125.61879 83.87287 
L 126.447383 83.329459 
L 127.275977 83.056868 
L 128.10457 82.837771 
L 128.933164 82.701257 
L 129.761758 82.541499 
L 130.590351 82.483763 
L 131.418945 82.290102 
L 132.247539 82.091836 
L 133.076132 82.021674 
L 133.904726 82.072548 
L 134.733319 81.977977 
L 135.561913 81.960338 
L 136.390507 81.940794 
L 137.2191 81.850184 
L 138.047694 81.901119 
L 138.876288 81.885807 
L 139.704881 81.869969 
L 140.533475 81.857887 
L 141.362069 81.839232 
L 142.190662 81.897781 
L 143.019256 81.971975 
L 143.847849 82.045396 
L 144.676443 82.118816 
L 145.505037 82.240757 
L 146.33363 82.455868 
L 147.162224 82.507063 
L 147.990818 82.497461 
L 148.819411 82.484536 
L 149.648005 82.472018 
L 149.648005 50.743515 
L 149.648005 50.743515 
L 148.819411 51.310496 
L 147.990818 52.033852 
L 147.162224 52.871613 
L 146.33363 53.503493 
L 145.505037 54.20711 
L 144.676443 54.897364 
L 143.847849 55.388075 
L 143.019256 55.727644 
L 142.190662 56.319501 
L 141.362069 57.061549 
L 140.533475 57.785444 
L 139.704881 58.139119 
L 138.876288 58.502532 
L 138.047694 59.120011 
L 137.2191 59.602931 
L 136.390507 59.893996 
L 135.561913 60.338669 
L 134.733319 60.869978 
L 133.904726 61.425938 
L 133.076132 61.68878 
L 132.247539 61.897451 
L 131.418945 62.251792 
L 130.590351 62.869411 
L 129.761758 63.156668 
L 128.933164 63.543298 
L 128.10457 63.834289 
L 127.275977 64.095691 
L 126.447383 64.243797 
L 125.61879 64.484935 
L 124.790196 64.807778 
L 123.961602 65.15058 
L 123.133009 65.26791 
L 122.304415 65.338905 
L 121.475821 65.520589 
L 120.647228 65.731238 
L 119.818634 65.85916 
L 118.990041 65.923867 
L 118.161447 66.034126 
L 117.332853 66.114368 
L 116.50426 66.150156 
L 115.675666 66.252438 
L 114.847072 66.322231 
L 114.018479 66.36173 
L 113.189885 66.382802 
L 112.361292 66.446775 
L 111.532698 66.513248 
L 110.704104 66.579721 
L 109.875511 66.608472 
L 109.046917 66.658286 
L 108.218323 66.683616 
L 107.38973 66.602874 
L 106.561136 66.638519 
L 105.732542 66.705696 
L 104.903949 66.67375 
L 104.075355 66.599176 
L 103.246762 66.529102 
L 102.418168 66.630646 
L 101.589574 66.681856 
L 100.760981 66.775228 
L 99.932387 66.828565 
L 99.103793 66.893134 
L 98.2752 66.798836 
L 97.446606 66.686441 
L 96.618013 66.574046 
L 95.789419 66.447611 
L 94.960825 66.450326 
L 94.132232 66.368041 
L 93.303638 66.278628 
L 92.475044 66.212331 
L 91.646451 66.320242 
L 90.817857 66.431966 
L 89.989264 66.412123 
L 89.16067 66.438812 
L 88.332076 66.369265 
L 87.503483 66.279967 
L 86.674889 66.190669 
L 85.846295 66.101371 
L 85.017702 66.032247 
L 84.189108 65.967908 
L 83.360515 65.842265 
L 82.531921 65.764932 
L 81.703327 65.760622 
L 80.874734 65.710553 
L 80.04614 65.646215 
L 79.217546 65.581876 
L 78.388953 65.517537 
L 77.560359 65.451255 
L 76.731765 65.3474 
L 75.903172 65.243545 
L 75.074578 65.164401 
L 74.245985 65.032283 
L 73.417391 64.925324 
L 72.588797 64.818365 
L 71.760204 64.711407 
L 70.93161 64.605219 
L 70.103016 64.49958 
L 69.274423 64.39394 
L 68.445829 64.288301 
L 67.617236 64.182661 
z
" style="fill:#808080;fill-opacity:0.15;"/>
   </g>
   <g id="LineCollection_1">
    <path clip-path="url(#pa0a3c0cc5c)" d="M 132.478774 55.444872 
L 132.478774 55.444872 
" style="fill:none;stroke:#000000;stroke-width:0.5;"/>
    <path clip-path="url(#pa0a3c0cc5c)" d="M 112.448005 102.334339 
L 112.448005 102.334339 
" style="fill:none;stroke:#000000;stroke-width:0.5;"/>
    <path clip-path="url(#pa0a3c0cc5c)" d="M 136.294159 19.929401 
L 136.294159 19.929401 
" style="fill:none;stroke:#000000;stroke-width:0.5;"/>
    <path clip-path="url(#pa0a3c0cc5c)" d="M 144.878774 58.959309 
L 144.878774 58.959309 
" style="fill:none;stroke:#000000;stroke-width:0.5;"/>
    <path clip-path="url(#pa0a3c0cc5c)" d="M 131.524928 57.863198 
L 131.524928 57.863198 
" style="fill:none;stroke:#000000;stroke-width:0.5;"/>
    <path clip-path="url(#pa0a3c0cc5c)" d="M 121.03262 74.081217 
L 121.03262 74.081217 
" style="fill:none;stroke:#000000;stroke-width:0.5;"/>
    <path clip-path="url(#pa0a3c0cc5c)" d="M 113.401851 74.489187 
L 113.401851 74.489187 
" style="fill:none;stroke:#000000;stroke-width:0.5;"/>
    <path clip-path="url(#pa0a3c0cc5c)" d="M 94.324928 90.230423 
L 94.324928 90.230423 
" style="fill:none;stroke:#000000;stroke-width:0.5;"/>
    <path clip-path="url(#pa0a3c0cc5c)" d="M 42.817236 57.3176 
L 92.417236 57.3176 
" style="fill:none;stroke:#000000;stroke-width:0.5;"/>
    <path clip-path="url(#pa0a3c0cc5c)" d="M 128.663389 69.991691 
L 128.663389 69.991691 
" style="fill:none;stroke:#000000;stroke-width:0.5;"/>
    <path clip-path="url(#pa0a3c0cc5c)" d="M 125.801851 35.338854 
L 125.801851 35.338854 
" style="fill:none;stroke:#000000;stroke-width:0.5;"/>
    <path clip-path="url(#pa0a3c0cc5c)" d="M 107.678774 33.490702 
L 137.248005 33.490702 
" style="fill:none;stroke:#000000;stroke-width:0.5;"/>
    <path clip-path="url(#pa0a3c0cc5c)" d="M 96.23262 79.77313 
L 96.23262 79.77313 
" style="fill:none;stroke:#000000;stroke-width:0.5;"/>
    <path clip-path="url(#pa0a3c0cc5c)" d="M 138.201851 80.947886 
L 138.201851 80.947886 
" style="fill:none;stroke:#000000;stroke-width:0.5;"/>
    <path clip-path="url(#pa0a3c0cc5c)" d="M 122.940313 78.620493 
L 122.940313 78.620493 
" style="fill:none;stroke:#000000;stroke-width:0.5;"/>
    <path clip-path="url(#pa0a3c0cc5c)" d="M 99.094159 72.306795 
L 99.094159 72.306795 
" style="fill:none;stroke:#000000;stroke-width:0.5;"/>
    <path clip-path="url(#pa0a3c0cc5c)" d="M 141.063389 92.179337 
L 141.063389 92.179337 
" style="fill:none;stroke:#000000;stroke-width:0.5;"/>
    <path clip-path="url(#pa0a3c0cc5c)" d="M 96.23262 83.806131 
L 96.23262 83.806131 
" style="fill:none;stroke:#000000;stroke-width:0.5;"/>
    <path clip-path="url(#pa0a3c0cc5c)" d="M 142.971082 55.533348 
L 142.971082 55.533348 
" style="fill:none;stroke:#000000;stroke-width:0.5;"/>
    <path clip-path="url(#pa0a3c0cc5c)" d="M 102.909543 138.533037 
L 102.909543 138.533037 
" style="fill:none;stroke:#000000;stroke-width:0.5;"/>
    <path clip-path="url(#pa0a3c0cc5c)" d="M 143.924928 106.927683 
L 143.924928 106.927683 
" style="fill:none;stroke:#000000;stroke-width:0.5;"/>
    <path clip-path="url(#pa0a3c0cc5c)" d="M 114.355697 67.057259 
L 114.355697 67.057259 
" style="fill:none;stroke:#000000;stroke-width:0.5;"/>
    <path clip-path="url(#pa0a3c0cc5c)" d="M 143.924928 92.47917 
L 143.924928 92.47917 
" style="fill:none;stroke:#000000;stroke-width:0.5;"/>
    <path clip-path="url(#pa0a3c0cc5c)" d="M 103.863389 136.79548 
L 103.863389 136.79548 
" style="fill:none;stroke:#000000;stroke-width:0.5;"/>
    <path clip-path="url(#pa0a3c0cc5c)" d="M 142.971082 102.282728 
L 142.971082 102.282728 
" style="fill:none;stroke:#000000;stroke-width:0.5;"/>
    <path clip-path="url(#pa0a3c0cc5c)" d="M 149.648005 57.750146 
L 149.648005 57.750146 
" style="fill:none;stroke:#000000;stroke-width:0.5;"/>
    <path clip-path="url(#pa0a3c0cc5c)" d="M 126.755697 53.822825 
L 126.755697 53.822825 
" style="fill:none;stroke:#000000;stroke-width:0.5;"/>
    <path clip-path="url(#pa0a3c0cc5c)" d="M 147.740313 72.884343 
L 147.740313 72.884343 
" style="fill:none;stroke:#000000;stroke-width:0.5;"/>
   </g>
   <g id="line2d_1">
    <defs>
     <path d="M 0 1 
L 0 -1 
" id="mb1d643571e" style="stroke:#000000;"/>
    </defs>
    <g clip-path="url(#pa0a3c0cc5c)">
     <use style="stroke:#000000;" x="132.478774" xlink:href="#mb1d643571e" y="55.444872"/>
     <use style="stroke:#000000;" x="112.448005" xlink:href="#mb1d643571e" y="102.334339"/>
     <use style="stroke:#000000;" x="136.294159" xlink:href="#mb1d643571e" y="19.929401"/>
     <use style="stroke:#000000;" x="144.878774" xlink:href="#mb1d643571e" y="58.959309"/>
     <use style="stroke:#000000;" x="131.524928" xlink:href="#mb1d643571e" y="57.863198"/>
     <use style="stroke:#000000;" x="121.03262" xlink:href="#mb1d643571e" y="74.081217"/>
     <use style="stroke:#000000;" x="113.401851" xlink:href="#mb1d643571e" y="74.489187"/>
     <use style="stroke:#000000;" x="94.324928" xlink:href="#mb1d643571e" y="90.230423"/>
     <use style="stroke:#000000;" x="42.817236" xlink:href="#mb1d643571e" y="57.3176"/>
     <use style="stroke:#000000;" x="128.663389" xlink:href="#mb1d643571e" y="69.991691"/>
     <use style="stroke:#000000;" x="125.801851" xlink:href="#mb1d643571e" y="35.338854"/>
     <use style="stroke:#000000;" x="107.678774" xlink:href="#mb1d643571e" y="33.490702"/>
     <use style="stroke:#000000;" x="96.23262" xlink:href="#mb1d643571e" y="79.77313"/>
     <use style="stroke:#000000;" x="138.201851" xlink:href="#mb1d643571e" y="80.947886"/>
     <use style="stroke:#000000;" x="122.940313" xlink:href="#mb1d643571e" y="78.620493"/>
     <use style="stroke:#000000;" x="99.094159" xlink:href="#mb1d643571e" y="72.306795"/>
     <use style="stroke:#000000;" x="141.063389" xlink:href="#mb1d643571e" y="92.179337"/>
     <use style="stroke:#000000;" x="96.23262" xlink:href="#mb1d643571e" y="83.806131"/>
     <use style="stroke:#000000;" x="142.971082" xlink:href="#mb1d643571e" y="55.533348"/>
     <use style="stroke:#000000;" x="102.909543" xlink:href="#mb1d643571e" y="138.533037"/>
     <use style="stroke:#000000;" x="143.924928" xlink:href="#mb1d643571e" y="106.927683"/>
     <use style="stroke:#000000;" x="114.355697" xlink:href="#mb1d643571e" y="67.057259"/>
     <use style="stroke:#000000;" x="143.924928" xlink:href="#mb1d643571e" y="92.47917"/>
     <use style="stroke:#000000;" x="103.863389" xlink:href="#mb1d643571e" y="136.79548"/>
     <use style="stroke:#000000;" x="142.971082" xlink:href="#mb1d643571e" y="102.282728"/>
     <use style="stroke:#000000;" x="149.648005" xlink:href="#mb1d643571e" y="57.750146"/>
     <use style="stroke:#000000;" x="126.755697" xlink:href="#mb1d643571e" y="53.822825"/>
     <use style="stroke:#000000;" x="147.740313" xlink:href="#mb1d643571e" y="72.884343"/>
    </g>
   </g>
   <g id="line2d_2">
    <g clip-path="url(#pa0a3c0cc5c)">
     <use style="stroke:#000000;" x="132.478774" xlink:href="#mb1d643571e" y="55.444872"/>
     <use style="stroke:#000000;" x="112.448005" xlink:href="#mb1d643571e" y="102.334339"/>
     <use style="stroke:#000000;" x="136.294159" xlink:href="#mb1d643571e" y="19.929401"/>
     <use style="stroke:#000000;" x="144.878774" xlink:href="#mb1d643571e" y="58.959309"/>
     <use style="stroke:#000000;" x="131.524928" xlink:href="#mb1d643571e" y="57.863198"/>
     <use style="stroke:#000000;" x="121.03262" xlink:href="#mb1d643571e" y="74.081217"/>
     <use style="stroke:#000000;" x="113.401851" xlink:href="#mb1d643571e" y="74.489187"/>
     <use style="stroke:#000000;" x="94.324928" xlink:href="#mb1d643571e" y="90.230423"/>
     <use style="stroke:#000000;" x="92.417236" xlink:href="#mb1d643571e" y="57.3176"/>
     <use style="stroke:#000000;" x="128.663389" xlink:href="#mb1d643571e" y="69.991691"/>
     <use style="stroke:#000000;" x="125.801851" xlink:href="#mb1d643571e" y="35.338854"/>
     <use style="stroke:#000000;" x="137.248005" xlink:href="#mb1d643571e" y="33.490702"/>
     <use style="stroke:#000000;" x="96.23262" xlink:href="#mb1d643571e" y="79.77313"/>
     <use style="stroke:#000000;" x="138.201851" xlink:href="#mb1d643571e" y="80.947886"/>
     <use style="stroke:#000000;" x="122.940313" xlink:href="#mb1d643571e" y="78.620493"/>
     <use style="stroke:#000000;" x="99.094159" xlink:href="#mb1d643571e" y="72.306795"/>
     <use style="stroke:#000000;" x="141.063389" xlink:href="#mb1d643571e" y="92.179337"/>
     <use style="stroke:#000000;" x="96.23262" xlink:href="#mb1d643571e" y="83.806131"/>
     <use style="stroke:#000000;" x="142.971082" xlink:href="#mb1d643571e" y="55.533348"/>
     <use style="stroke:#000000;" x="102.909543" xlink:href="#mb1d643571e" y="138.533037"/>
     <use style="stroke:#000000;" x="143.924928" xlink:href="#mb1d643571e" y="106.927683"/>
     <use style="stroke:#000000;" x="114.355697" xlink:href="#mb1d643571e" y="67.057259"/>
     <use style="stroke:#000000;" x="143.924928" xlink:href="#mb1d643571e" y="92.47917"/>
     <use style="stroke:#000000;" x="103.863389" xlink:href="#mb1d643571e" y="136.79548"/>
     <use style="stroke:#000000;" x="142.971082" xlink:href="#mb1d643571e" y="102.282728"/>
     <use style="stroke:#000000;" x="149.648005" xlink:href="#mb1d643571e" y="57.750146"/>
     <use style="stroke:#000000;" x="126.755697" xlink:href="#mb1d643571e" y="53.822825"/>
     <use style="stroke:#000000;" x="147.740313" xlink:href="#mb1d643571e" y="72.884343"/>
    </g>
   </g>
   <g id="line2d_3"/>
   <g id="matplotlib.axis_1">
    <g id="xtick_1">
     <g id="line2d_4">
      <defs>
       <path d="M 0 0 
L 0 3.5 
" id="mf91c639934" style="stroke:#000000;stroke-width:0.8;"/>
      </defs>
      <g>
       <use style="stroke:#000000;stroke-width:0.8;" x="44.724928" xlink:href="#mf91c639934" y="144.463219"/>
      </g>
     </g>
     <g id="text_1">
      <!-- 1900 -->
      <g transform="translate(38.362428 155.262437)scale(0.05 -0.05)">
       <defs>
        <path d="M 12.40625 8.296875 
L 28.515625 8.296875 
L 28.515625 63.921875 
L 10.984375 60.40625 
L 10.984375 69.390625 
L 28.421875 72.90625 
L 38.28125 72.90625 
L 38.28125 8.296875 
L 54.390625 8.296875 
L 54.390625 0 
L 12.40625 0 
z
" id="DejaVuSans-49"/>
        <path d="M 10.984375 1.515625 
L 10.984375 10.5 
Q 14.703125 8.734375 18.5 7.8125 
Q 22.3125 6.890625 25.984375 6.890625 
Q 35.75 6.890625 40.890625 13.453125 
Q 46.046875 20.015625 46.78125 33.40625 
Q 43.953125 29.203125 39.59375 26.953125 
Q 35.25 24.703125 29.984375 24.703125 
Q 19.046875 24.703125 12.671875 31.3125 
Q 6.296875 37.9375 6.296875 49.421875 
Q 6.296875 60.640625 12.9375 67.421875 
Q 19.578125 74.21875 30.609375 74.21875 
Q 43.265625 74.21875 49.921875 64.515625 
Q 56.59375 54.828125 56.59375 36.375 
Q 56.59375 19.140625 48.40625 8.859375 
Q 40.234375 -1.421875 26.421875 -1.421875 
Q 22.703125 -1.421875 18.890625 -0.6875 
Q 15.09375 0.046875 10.984375 1.515625 
z
M 30.609375 32.421875 
Q 37.25 32.421875 41.125 36.953125 
Q 45.015625 41.5 45.015625 49.421875 
Q 45.015625 57.28125 41.125 61.84375 
Q 37.25 66.40625 30.609375 66.40625 
Q 23.96875 66.40625 20.09375 61.84375 
Q 16.21875 57.28125 16.21875 49.421875 
Q 16.21875 41.5 20.09375 36.953125 
Q 23.96875 32.421875 30.609375 32.421875 
z
" id="DejaVuSans-57"/>
        <path d="M 31.78125 66.40625 
Q 24.171875 66.40625 20.328125 58.90625 
Q 16.5 51.421875 16.5 36.375 
Q 16.5 21.390625 20.328125 13.890625 
Q 24.171875 6.390625 31.78125 6.390625 
Q 39.453125 6.390625 43.28125 13.890625 
Q 47.125 21.390625 47.125 36.375 
Q 47.125 51.421875 43.28125 58.90625 
Q 39.453125 66.40625 31.78125 66.40625 
z
M 31.78125 74.21875 
Q 44.046875 74.21875 50.515625 64.515625 
Q 56.984375 54.828125 56.984375 36.375 
Q 56.984375 17.96875 50.515625 8.265625 
Q 44.046875 -1.421875 31.78125 -1.421875 
Q 19.53125 -1.421875 13.0625 8.265625 
Q 6.59375 17.96875 6.59375 36.375 
Q 6.59375 54.828125 13.0625 64.515625 
Q 19.53125 74.21875 31.78125 74.21875 
z
" id="DejaVuSans-48"/>
       </defs>
       <use xlink:href="#DejaVuSans-49"/>
       <use x="63.623047" xlink:href="#DejaVuSans-57"/>
       <use x="127.246094" xlink:href="#DejaVuSans-48"/>
       <use x="190.869141" xlink:href="#DejaVuSans-48"/>
      </g>
     </g>
    </g>
    <g id="xtick_2">
     <g id="line2d_5">
      <g>
       <use style="stroke:#000000;stroke-width:0.8;" x="63.801851" xlink:href="#mf91c639934" y="144.463219"/>
      </g>
     </g>
     <g id="text_2">
      <!-- 1920 -->
      <g transform="translate(57.439351 155.262437)scale(0.05 -0.05)">
       <defs>
        <path d="M 19.1875 8.296875 
L 53.609375 8.296875 
L 53.609375 0 
L 7.328125 0 
L 7.328125 8.296875 
Q 12.9375 14.109375 22.625 23.890625 
Q 32.328125 33.6875 34.8125 36.53125 
Q 39.546875 41.84375 41.421875 45.53125 
Q 43.3125 49.21875 43.3125 52.78125 
Q 43.3125 58.59375 39.234375 62.25 
Q 35.15625 65.921875 28.609375 65.921875 
Q 23.96875 65.921875 18.8125 64.3125 
Q 13.671875 62.703125 7.8125 59.421875 
L 7.8125 69.390625 
Q 13.765625 71.78125 18.9375 73 
Q 24.125 74.21875 28.421875 74.21875 
Q 39.75 74.21875 46.484375 68.546875 
Q 53.21875 62.890625 53.21875 53.421875 
Q 53.21875 48.921875 51.53125 44.890625 
Q 49.859375 40.875 45.40625 35.40625 
Q 44.1875 33.984375 37.640625 27.21875 
Q 31.109375 20.453125 19.1875 8.296875 
z
" id="DejaVuSans-50"/>
       </defs>
       <use xlink:href="#DejaVuSans-49"/>
       <use x="63.623047" xlink:href="#DejaVuSans-57"/>
       <use x="127.246094" xlink:href="#DejaVuSans-50"/>
       <use x="190.869141" xlink:href="#DejaVuSans-48"/>
      </g>
     </g>
    </g>
    <g id="xtick_3">
     <g id="line2d_6">
      <g>
       <use style="stroke:#000000;stroke-width:0.8;" x="82.878774" xlink:href="#mf91c639934" y="144.463219"/>
      </g>
     </g>
     <g id="text_3">
      <!-- 1940 -->
      <g transform="translate(76.516274 155.262437)scale(0.05 -0.05)">
       <defs>
        <path d="M 37.796875 64.3125 
L 12.890625 25.390625 
L 37.796875 25.390625 
z
M 35.203125 72.90625 
L 47.609375 72.90625 
L 47.609375 25.390625 
L 58.015625 25.390625 
L 58.015625 17.1875 
L 47.609375 17.1875 
L 47.609375 0 
L 37.796875 0 
L 37.796875 17.1875 
L 4.890625 17.1875 
L 4.890625 26.703125 
z
" id="DejaVuSans-52"/>
       </defs>
       <use xlink:href="#DejaVuSans-49"/>
       <use x="63.623047" xlink:href="#DejaVuSans-57"/>
       <use x="127.246094" xlink:href="#DejaVuSans-52"/>
       <use x="190.869141" xlink:href="#DejaVuSans-48"/>
      </g>
     </g>
    </g>
    <g id="xtick_4">
     <g id="line2d_7">
      <g>
       <use style="stroke:#000000;stroke-width:0.8;" x="101.955697" xlink:href="#mf91c639934" y="144.463219"/>
      </g>
     </g>
     <g id="text_4">
      <!-- 1960 -->
      <g transform="translate(95.593197 155.262437)scale(0.05 -0.05)">
       <defs>
        <path d="M 33.015625 40.375 
Q 26.375 40.375 22.484375 35.828125 
Q 18.609375 31.296875 18.609375 23.390625 
Q 18.609375 15.53125 22.484375 10.953125 
Q 26.375 6.390625 33.015625 6.390625 
Q 39.65625 6.390625 43.53125 10.953125 
Q 47.40625 15.53125 47.40625 23.390625 
Q 47.40625 31.296875 43.53125 35.828125 
Q 39.65625 40.375 33.015625 40.375 
z
M 52.59375 71.296875 
L 52.59375 62.3125 
Q 48.875 64.0625 45.09375 64.984375 
Q 41.3125 65.921875 37.59375 65.921875 
Q 27.828125 65.921875 22.671875 59.328125 
Q 17.53125 52.734375 16.796875 39.40625 
Q 19.671875 43.65625 24.015625 45.921875 
Q 28.375 48.1875 33.59375 48.1875 
Q 44.578125 48.1875 50.953125 41.515625 
Q 57.328125 34.859375 57.328125 23.390625 
Q 57.328125 12.15625 50.6875 5.359375 
Q 44.046875 -1.421875 33.015625 -1.421875 
Q 20.359375 -1.421875 13.671875 8.265625 
Q 6.984375 17.96875 6.984375 36.375 
Q 6.984375 53.65625 15.1875 63.9375 
Q 23.390625 74.21875 37.203125 74.21875 
Q 40.921875 74.21875 44.703125 73.484375 
Q 48.484375 72.75 52.59375 71.296875 
z
" id="DejaVuSans-54"/>
       </defs>
       <use xlink:href="#DejaVuSans-49"/>
       <use x="63.623047" xlink:href="#DejaVuSans-57"/>
       <use x="127.246094" xlink:href="#DejaVuSans-54"/>
       <use x="190.869141" xlink:href="#DejaVuSans-48"/>
      </g>
     </g>
    </g>
    <g id="xtick_5">
     <g id="line2d_8">
      <g>
       <use style="stroke:#000000;stroke-width:0.8;" x="121.03262" xlink:href="#mf91c639934" y="144.463219"/>
      </g>
     </g>
     <g id="text_5">
      <!-- 1980 -->
      <g transform="translate(114.67012 155.262437)scale(0.05 -0.05)">
       <defs>
        <path d="M 31.78125 34.625 
Q 24.75 34.625 20.71875 30.859375 
Q 16.703125 27.09375 16.703125 20.515625 
Q 16.703125 13.921875 20.71875 10.15625 
Q 24.75 6.390625 31.78125 6.390625 
Q 38.8125 6.390625 42.859375 10.171875 
Q 46.921875 13.96875 46.921875 20.515625 
Q 46.921875 27.09375 42.890625 30.859375 
Q 38.875 34.625 31.78125 34.625 
z
M 21.921875 38.8125 
Q 15.578125 40.375 12.03125 44.71875 
Q 8.5 49.078125 8.5 55.328125 
Q 8.5 64.0625 14.71875 69.140625 
Q 20.953125 74.21875 31.78125 74.21875 
Q 42.671875 74.21875 48.875 69.140625 
Q 55.078125 64.0625 55.078125 55.328125 
Q 55.078125 49.078125 51.53125 44.71875 
Q 48 40.375 41.703125 38.8125 
Q 48.828125 37.15625 52.796875 32.3125 
Q 56.78125 27.484375 56.78125 20.515625 
Q 56.78125 9.90625 50.3125 4.234375 
Q 43.84375 -1.421875 31.78125 -1.421875 
Q 19.734375 -1.421875 13.25 4.234375 
Q 6.78125 9.90625 6.78125 20.515625 
Q 6.78125 27.484375 10.78125 32.3125 
Q 14.796875 37.15625 21.921875 38.8125 
z
M 18.3125 54.390625 
Q 18.3125 48.734375 21.84375 45.5625 
Q 25.390625 42.390625 31.78125 42.390625 
Q 38.140625 42.390625 41.71875 45.5625 
Q 45.3125 48.734375 45.3125 54.390625 
Q 45.3125 60.0625 41.71875 63.234375 
Q 38.140625 66.40625 31.78125 66.40625 
Q 25.390625 66.40625 21.84375 63.234375 
Q 18.3125 60.0625 18.3125 54.390625 
z
" id="DejaVuSans-56"/>
       </defs>
       <use xlink:href="#DejaVuSans-49"/>
       <use x="63.623047" xlink:href="#DejaVuSans-57"/>
       <use x="127.246094" xlink:href="#DejaVuSans-56"/>
       <use x="190.869141" xlink:href="#DejaVuSans-48"/>
      </g>
     </g>
    </g>
    <g id="xtick_6">
     <g id="line2d_9">
      <g>
       <use style="stroke:#000000;stroke-width:0.8;" x="140.109543" xlink:href="#mf91c639934" y="144.463219"/>
      </g>
     </g>
     <g id="text_6">
      <!-- 2000 -->
      <g transform="translate(133.747043 155.262437)scale(0.05 -0.05)">
       <use xlink:href="#DejaVuSans-50"/>
       <use x="63.623047" xlink:href="#DejaVuSans-48"/>
       <use x="127.246094" xlink:href="#DejaVuSans-48"/>
       <use x="190.869141" xlink:href="#DejaVuSans-48"/>
      </g>
     </g>
    </g>
    <g id="xtick_7">
     <g id="line2d_10">
      <g>
       <use style="stroke:#000000;stroke-width:0.8;" x="159.186466" xlink:href="#mf91c639934" y="144.463219"/>
      </g>
     </g>
     <g id="text_7">
      <!-- 2020 -->
      <g transform="translate(152.823966 155.262437)scale(0.05 -0.05)">
       <use xlink:href="#DejaVuSans-50"/>
       <use x="63.623047" xlink:href="#DejaVuSans-48"/>
       <use x="127.246094" xlink:href="#DejaVuSans-50"/>
       <use x="190.869141" xlink:href="#DejaVuSans-48"/>
      </g>
     </g>
    </g>
    <g id="text_8">
     <!-- Date -->
     <g transform="translate(87.204922 164.1015)scale(0.05 -0.05)">
      <defs>
       <path d="M 19.671875 64.796875 
L 19.671875 8.109375 
L 31.59375 8.109375 
Q 46.6875 8.109375 53.6875 14.9375 
Q 60.6875 21.78125 60.6875 36.53125 
Q 60.6875 51.171875 53.6875 57.984375 
Q 46.6875 64.796875 31.59375 64.796875 
z
M 9.8125 72.90625 
L 30.078125 72.90625 
Q 51.265625 72.90625 61.171875 64.09375 
Q 71.09375 55.28125 71.09375 36.53125 
Q 71.09375 17.671875 61.125 8.828125 
Q 51.171875 0 30.078125 0 
L 9.8125 0 
z
" id="DejaVuSans-68"/>
       <path d="M 34.28125 27.484375 
Q 23.390625 27.484375 19.1875 25 
Q 14.984375 22.515625 14.984375 16.5 
Q 14.984375 11.71875 18.140625 8.90625 
Q 21.296875 6.109375 26.703125 6.109375 
Q 34.1875 6.109375 38.703125 11.40625 
Q 43.21875 16.703125 43.21875 25.484375 
L 43.21875 27.484375 
z
M 52.203125 31.203125 
L 52.203125 0 
L 43.21875 0 
L 43.21875 8.296875 
Q 40.140625 3.328125 35.546875 0.953125 
Q 30.953125 -1.421875 24.3125 -1.421875 
Q 15.921875 -1.421875 10.953125 3.296875 
Q 6 8.015625 6 15.921875 
Q 6 25.140625 12.171875 29.828125 
Q 18.359375 34.515625 30.609375 34.515625 
L 43.21875 34.515625 
L 43.21875 35.40625 
Q 43.21875 41.609375 39.140625 45 
Q 35.0625 48.390625 27.6875 48.390625 
Q 23 48.390625 18.546875 47.265625 
Q 14.109375 46.140625 10.015625 43.890625 
L 10.015625 52.203125 
Q 14.9375 54.109375 19.578125 55.046875 
Q 24.21875 56 28.609375 56 
Q 40.484375 56 46.34375 49.84375 
Q 52.203125 43.703125 52.203125 31.203125 
z
" id="DejaVuSans-97"/>
       <path d="M 18.3125 70.21875 
L 18.3125 54.6875 
L 36.8125 54.6875 
L 36.8125 47.703125 
L 18.3125 47.703125 
L 18.3125 18.015625 
Q 18.3125 11.328125 20.140625 9.421875 
Q 21.96875 7.515625 27.59375 7.515625 
L 36.8125 7.515625 
L 36.8125 0 
L 27.59375 0 
Q 17.1875 0 13.234375 3.875 
Q 9.28125 7.765625 9.28125 18.015625 
L 9.28125 47.703125 
L 2.6875 47.703125 
L 2.6875 54.6875 
L 9.28125 54.6875 
L 9.28125 70.21875 
z
" id="DejaVuSans-116"/>
       <path d="M 56.203125 29.59375 
L 56.203125 25.203125 
L 14.890625 25.203125 
Q 15.484375 15.921875 20.484375 11.0625 
Q 25.484375 6.203125 34.421875 6.203125 
Q 39.59375 6.203125 44.453125 7.46875 
Q 49.3125 8.734375 54.109375 11.28125 
L 54.109375 2.78125 
Q 49.265625 0.734375 44.1875 -0.34375 
Q 39.109375 -1.421875 33.890625 -1.421875 
Q 20.796875 -1.421875 13.15625 6.1875 
Q 5.515625 13.8125 5.515625 26.8125 
Q 5.515625 40.234375 12.765625 48.109375 
Q 20.015625 56 32.328125 56 
Q 43.359375 56 49.78125 48.890625 
Q 56.203125 41.796875 56.203125 29.59375 
z
M 47.21875 32.234375 
Q 47.125 39.59375 43.09375 43.984375 
Q 39.0625 48.390625 32.421875 48.390625 
Q 24.90625 48.390625 20.390625 44.140625 
Q 15.875 39.890625 15.1875 32.171875 
z
" id="DejaVuSans-101"/>
      </defs>
      <use xlink:href="#DejaVuSans-68"/>
      <use x="77.001953" xlink:href="#DejaVuSans-97"/>
      <use x="138.28125" xlink:href="#DejaVuSans-116"/>
      <use x="177.490234" xlink:href="#DejaVuSans-101"/>
     </g>
    </g>
   </g>
   <g id="matplotlib.axis_2">
    <g id="ytick_1">
     <g id="line2d_11">
      <defs>
       <path d="M 0 0 
L -3.5 0 
" id="mc948b6092f" style="stroke:#000000;stroke-width:0.8;"/>
      </defs>
      <g>
       <use style="stroke:#000000;stroke-width:0.8;" x="26.220313" xlink:href="#mc948b6092f" y="133.969185"/>
      </g>
     </g>
     <g id="text_9">
      <!-- 4 -->
      <g transform="translate(16.039063 135.868794)scale(0.05 -0.05)">
       <use xlink:href="#DejaVuSans-52"/>
      </g>
     </g>
    </g>
    <g id="ytick_2">
     <g id="line2d_12">
      <g>
       <use style="stroke:#000000;stroke-width:0.8;" x="26.220313" xlink:href="#mc948b6092f" y="109.392704"/>
      </g>
     </g>
     <g id="text_10">
      <!-- 5 -->
      <g transform="translate(16.039063 111.292314)scale(0.05 -0.05)">
       <defs>
        <path d="M 10.796875 72.90625 
L 49.515625 72.90625 
L 49.515625 64.59375 
L 19.828125 64.59375 
L 19.828125 46.734375 
Q 21.96875 47.46875 24.109375 47.828125 
Q 26.265625 48.1875 28.421875 48.1875 
Q 40.625 48.1875 47.75 41.5 
Q 54.890625 34.8125 54.890625 23.390625 
Q 54.890625 11.625 47.5625 5.09375 
Q 40.234375 -1.421875 26.90625 -1.421875 
Q 22.3125 -1.421875 17.546875 -0.640625 
Q 12.796875 0.140625 7.71875 1.703125 
L 7.71875 11.625 
Q 12.109375 9.234375 16.796875 8.0625 
Q 21.484375 6.890625 26.703125 6.890625 
Q 35.15625 6.890625 40.078125 11.328125 
Q 45.015625 15.765625 45.015625 23.390625 
Q 45.015625 31 40.078125 35.4375 
Q 35.15625 39.890625 26.703125 39.890625 
Q 22.75 39.890625 18.8125 39.015625 
Q 14.890625 38.140625 10.796875 36.28125 
z
" id="DejaVuSans-53"/>
       </defs>
       <use xlink:href="#DejaVuSans-53"/>
      </g>
     </g>
    </g>
    <g id="ytick_3">
     <g id="line2d_13">
      <g>
       <use style="stroke:#000000;stroke-width:0.8;" x="26.220313" xlink:href="#mc948b6092f" y="84.816224"/>
      </g>
     </g>
     <g id="text_11">
      <!-- 6 -->
      <g transform="translate(16.039063 86.715833)scale(0.05 -0.05)">
       <use xlink:href="#DejaVuSans-54"/>
      </g>
     </g>
    </g>
    <g id="ytick_4">
     <g id="line2d_14">
      <g>
       <use style="stroke:#000000;stroke-width:0.8;" x="26.220313" xlink:href="#mc948b6092f" y="60.239744"/>
      </g>
     </g>
     <g id="text_12">
      <!-- 7 -->
      <g transform="translate(16.039063 62.139353)scale(0.05 -0.05)">
       <defs>
        <path d="M 8.203125 72.90625 
L 55.078125 72.90625 
L 55.078125 68.703125 
L 28.609375 0 
L 18.3125 0 
L 43.21875 64.59375 
L 8.203125 64.59375 
z
" id="DejaVuSans-55"/>
       </defs>
       <use xlink:href="#DejaVuSans-55"/>
      </g>
     </g>
    </g>
    <g id="ytick_5">
     <g id="line2d_15">
      <g>
       <use style="stroke:#000000;stroke-width:0.8;" x="26.220313" xlink:href="#mc948b6092f" y="35.663263"/>
      </g>
     </g>
     <g id="text_13">
      <!-- 8 -->
      <g transform="translate(16.039063 37.562873)scale(0.05 -0.05)">
       <use xlink:href="#DejaVuSans-56"/>
      </g>
     </g>
    </g>
    <g id="text_14">
     <!-- Root to Tip Distance -->
     <g transform="translate(10.999219 104.450359)rotate(-90)scale(0.05 -0.05)">
      <defs>
       <path d="M 44.390625 34.1875 
Q 47.5625 33.109375 50.5625 29.59375 
Q 53.5625 26.078125 56.59375 19.921875 
L 66.609375 0 
L 56 0 
L 46.6875 18.703125 
Q 43.0625 26.03125 39.671875 28.421875 
Q 36.28125 30.8125 30.421875 30.8125 
L 19.671875 30.8125 
L 19.671875 0 
L 9.8125 0 
L 9.8125 72.90625 
L 32.078125 72.90625 
Q 44.578125 72.90625 50.734375 67.671875 
Q 56.890625 62.453125 56.890625 51.90625 
Q 56.890625 45.015625 53.6875 40.46875 
Q 50.484375 35.9375 44.390625 34.1875 
z
M 19.671875 64.796875 
L 19.671875 38.921875 
L 32.078125 38.921875 
Q 39.203125 38.921875 42.84375 42.21875 
Q 46.484375 45.515625 46.484375 51.90625 
Q 46.484375 58.296875 42.84375 61.546875 
Q 39.203125 64.796875 32.078125 64.796875 
z
" id="DejaVuSans-82"/>
       <path d="M 30.609375 48.390625 
Q 23.390625 48.390625 19.1875 42.75 
Q 14.984375 37.109375 14.984375 27.296875 
Q 14.984375 17.484375 19.15625 11.84375 
Q 23.34375 6.203125 30.609375 6.203125 
Q 37.796875 6.203125 41.984375 11.859375 
Q 46.1875 17.53125 46.1875 27.296875 
Q 46.1875 37.015625 41.984375 42.703125 
Q 37.796875 48.390625 30.609375 48.390625 
z
M 30.609375 56 
Q 42.328125 56 49.015625 48.375 
Q 55.71875 40.765625 55.71875 27.296875 
Q 55.71875 13.875 49.015625 6.21875 
Q 42.328125 -1.421875 30.609375 -1.421875 
Q 18.84375 -1.421875 12.171875 6.21875 
Q 5.515625 13.875 5.515625 27.296875 
Q 5.515625 40.765625 12.171875 48.375 
Q 18.84375 56 30.609375 56 
z
" id="DejaVuSans-111"/>
       <path id="DejaVuSans-32"/>
       <path d="M -0.296875 72.90625 
L 61.375 72.90625 
L 61.375 64.59375 
L 35.5 64.59375 
L 35.5 0 
L 25.59375 0 
L 25.59375 64.59375 
L -0.296875 64.59375 
z
" id="DejaVuSans-84"/>
       <path d="M 9.421875 54.6875 
L 18.40625 54.6875 
L 18.40625 0 
L 9.421875 0 
z
M 9.421875 75.984375 
L 18.40625 75.984375 
L 18.40625 64.59375 
L 9.421875 64.59375 
z
" id="DejaVuSans-105"/>
       <path d="M 18.109375 8.203125 
L 18.109375 -20.796875 
L 9.078125 -20.796875 
L 9.078125 54.6875 
L 18.109375 54.6875 
L 18.109375 46.390625 
Q 20.953125 51.265625 25.265625 53.625 
Q 29.59375 56 35.59375 56 
Q 45.5625 56 51.78125 48.09375 
Q 58.015625 40.1875 58.015625 27.296875 
Q 58.015625 14.40625 51.78125 6.484375 
Q 45.5625 -1.421875 35.59375 -1.421875 
Q 29.59375 -1.421875 25.265625 0.953125 
Q 20.953125 3.328125 18.109375 8.203125 
z
M 48.6875 27.296875 
Q 48.6875 37.203125 44.609375 42.84375 
Q 40.53125 48.484375 33.40625 48.484375 
Q 26.265625 48.484375 22.1875 42.84375 
Q 18.109375 37.203125 18.109375 27.296875 
Q 18.109375 17.390625 22.1875 11.75 
Q 26.265625 6.109375 33.40625 6.109375 
Q 40.53125 6.109375 44.609375 11.75 
Q 48.6875 17.390625 48.6875 27.296875 
z
" id="DejaVuSans-112"/>
       <path d="M 44.28125 53.078125 
L 44.28125 44.578125 
Q 40.484375 46.53125 36.375 47.5 
Q 32.28125 48.484375 27.875 48.484375 
Q 21.1875 48.484375 17.84375 46.4375 
Q 14.5 44.390625 14.5 40.28125 
Q 14.5 37.15625 16.890625 35.375 
Q 19.28125 33.59375 26.515625 31.984375 
L 29.59375 31.296875 
Q 39.15625 29.25 43.1875 25.515625 
Q 47.21875 21.78125 47.21875 15.09375 
Q 47.21875 7.46875 41.1875 3.015625 
Q 35.15625 -1.421875 24.609375 -1.421875 
Q 20.21875 -1.421875 15.453125 -0.5625 
Q 10.6875 0.296875 5.421875 2 
L 5.421875 11.28125 
Q 10.40625 8.6875 15.234375 7.390625 
Q 20.0625 6.109375 24.8125 6.109375 
Q 31.15625 6.109375 34.5625 8.28125 
Q 37.984375 10.453125 37.984375 14.40625 
Q 37.984375 18.0625 35.515625 20.015625 
Q 33.0625 21.96875 24.703125 23.78125 
L 21.578125 24.515625 
Q 13.234375 26.265625 9.515625 29.90625 
Q 5.8125 33.546875 5.8125 39.890625 
Q 5.8125 47.609375 11.28125 51.796875 
Q 16.75 56 26.8125 56 
Q 31.78125 56 36.171875 55.265625 
Q 40.578125 54.546875 44.28125 53.078125 
z
" id="DejaVuSans-115"/>
       <path d="M 54.890625 33.015625 
L 54.890625 0 
L 45.90625 0 
L 45.90625 32.71875 
Q 45.90625 40.484375 42.875 44.328125 
Q 39.84375 48.1875 33.796875 48.1875 
Q 26.515625 48.1875 22.3125 43.546875 
Q 18.109375 38.921875 18.109375 30.90625 
L 18.109375 0 
L 9.078125 0 
L 9.078125 54.6875 
L 18.109375 54.6875 
L 18.109375 46.1875 
Q 21.34375 51.125 25.703125 53.5625 
Q 30.078125 56 35.796875 56 
Q 45.21875 56 50.046875 50.171875 
Q 54.890625 44.34375 54.890625 33.015625 
z
" id="DejaVuSans-110"/>
       <path d="M 48.78125 52.59375 
L 48.78125 44.1875 
Q 44.96875 46.296875 41.140625 47.34375 
Q 37.3125 48.390625 33.40625 48.390625 
Q 24.65625 48.390625 19.8125 42.84375 
Q 14.984375 37.3125 14.984375 27.296875 
Q 14.984375 17.28125 19.8125 11.734375 
Q 24.65625 6.203125 33.40625 6.203125 
Q 37.3125 6.203125 41.140625 7.25 
Q 44.96875 8.296875 48.78125 10.40625 
L 48.78125 2.09375 
Q 45.015625 0.34375 40.984375 -0.53125 
Q 36.96875 -1.421875 32.421875 -1.421875 
Q 20.0625 -1.421875 12.78125 6.34375 
Q 5.515625 14.109375 5.515625 27.296875 
Q 5.515625 40.671875 12.859375 48.328125 
Q 20.21875 56 33.015625 56 
Q 37.15625 56 41.109375 55.140625 
Q 45.0625 54.296875 48.78125 52.59375 
z
" id="DejaVuSans-99"/>
      </defs>
      <use xlink:href="#DejaVuSans-82"/>
      <use x="64.982422" xlink:href="#DejaVuSans-111"/>
      <use x="126.164062" xlink:href="#DejaVuSans-111"/>
      <use x="187.345703" xlink:href="#DejaVuSans-116"/>
      <use x="226.554688" xlink:href="#DejaVuSans-32"/>
      <use x="258.341797" xlink:href="#DejaVuSans-116"/>
      <use x="297.550781" xlink:href="#DejaVuSans-111"/>
      <use x="358.732422" xlink:href="#DejaVuSans-32"/>
      <use x="390.519531" xlink:href="#DejaVuSans-84"/>
      <use x="448.478516" xlink:href="#DejaVuSans-105"/>
      <use x="476.261719" xlink:href="#DejaVuSans-112"/>
      <use x="539.738281" xlink:href="#DejaVuSans-32"/>
      <use x="571.525391" xlink:href="#DejaVuSans-68"/>
      <use x="648.527344" xlink:href="#DejaVuSans-105"/>
      <use x="676.310547" xlink:href="#DejaVuSans-115"/>
      <use x="728.410156" xlink:href="#DejaVuSans-116"/>
      <use x="767.619141" xlink:href="#DejaVuSans-97"/>
      <use x="828.898438" xlink:href="#DejaVuSans-110"/>
      <use x="892.277344" xlink:href="#DejaVuSans-99"/>
      <use x="947.257812" xlink:href="#DejaVuSans-101"/>
     </g>
    </g>
    <g id="text_15">
     <!-- 1e−5 -->
     <g transform="translate(26.220313 10.999219)scale(0.05 -0.05)">
      <defs>
       <path d="M 10.59375 35.5 
L 73.1875 35.5 
L 73.1875 27.203125 
L 10.59375 27.203125 
z
" id="DejaVuSans-8722"/>
      </defs>
      <use xlink:href="#DejaVuSans-49"/>
      <use x="63.623047" xlink:href="#DejaVuSans-101"/>
      <use x="125.146484" xlink:href="#DejaVuSans-8722"/>
      <use x="208.935547" xlink:href="#DejaVuSans-53"/>
     </g>
    </g>
   </g>
   <g id="PathCollection_2">
    <defs>
     <path d="M 0 1.581139 
C 0.419323 1.581139 0.821528 1.41454 1.118034 1.118034 
C 1.41454 0.821528 1.581139 0.419323 1.581139 0 
C 1.581139 -0.419323 1.41454 -0.821528 1.118034 -1.118034 
C 0.821528 -1.41454 0.419323 -1.581139 0 -1.581139 
C -0.419323 -1.581139 -0.821528 -1.41454 -1.118034 -1.118034 
C -1.41454 -0.821528 -1.581139 -0.419323 -1.581139 0 
C -1.581139 0.419323 -1.41454 0.821528 -1.118034 1.118034 
C -0.821528 1.41454 -0.419323 1.581139 0 1.581139 
z
" id="meac36eb398" style="stroke:#ffffff;stroke-opacity:0.75;stroke-width:0.252982;"/>
    </defs>
    <g clip-path="url(#pa0a3c0cc5c)">
     <use style="fill-opacity:0.75;stroke:#ffffff;stroke-opacity:0.75;stroke-width:0.252982;" x="132.478774" xlink:href="#meac36eb398" y="55.444872"/>
     <use style="fill-opacity:0.75;stroke:#ffffff;stroke-opacity:0.75;stroke-width:0.252982;" x="112.448005" xlink:href="#meac36eb398" y="102.334339"/>
     <use style="fill-opacity:0.75;stroke:#ffffff;stroke-opacity:0.75;stroke-width:0.252982;" x="136.294159" xlink:href="#meac36eb398" y="19.929401"/>
     <use style="fill-opacity:0.75;stroke:#ffffff;stroke-opacity:0.75;stroke-width:0.252982;" x="144.878774" xlink:href="#meac36eb398" y="58.959309"/>
     <use style="fill-opacity:0.75;stroke:#ffffff;stroke-opacity:0.75;stroke-width:0.252982;" x="131.524928" xlink:href="#meac36eb398" y="57.863198"/>
     <use style="fill-opacity:0.75;stroke:#ffffff;stroke-opacity:0.75;stroke-width:0.252982;" x="121.03262" xlink:href="#meac36eb398" y="74.081217"/>
     <use style="fill-opacity:0.75;stroke:#ffffff;stroke-opacity:0.75;stroke-width:0.252982;" x="113.401851" xlink:href="#meac36eb398" y="74.489187"/>
     <use style="fill-opacity:0.75;stroke:#ffffff;stroke-opacity:0.75;stroke-width:0.252982;" x="94.324928" xlink:href="#meac36eb398" y="90.230423"/>
     <use style="fill-opacity:0.75;stroke:#ffffff;stroke-opacity:0.75;stroke-width:0.252982;" x="67.617236" xlink:href="#meac36eb398" y="57.3176"/>
     <use style="fill-opacity:0.75;stroke:#ffffff;stroke-opacity:0.75;stroke-width:0.252982;" x="128.663389" xlink:href="#meac36eb398" y="69.991691"/>
     <use style="fill-opacity:0.75;stroke:#ffffff;stroke-opacity:0.75;stroke-width:0.252982;" x="125.801851" xlink:href="#meac36eb398" y="35.338854"/>
     <use style="fill-opacity:0.75;stroke:#ffffff;stroke-opacity:0.75;stroke-width:0.252982;" x="122.463389" xlink:href="#meac36eb398" y="33.490702"/>
     <use style="fill-opacity:0.75;stroke:#ffffff;stroke-opacity:0.75;stroke-width:0.252982;" x="96.23262" xlink:href="#meac36eb398" y="79.77313"/>
     <use style="fill-opacity:0.75;stroke:#ffffff;stroke-opacity:0.75;stroke-width:0.252982;" x="138.201851" xlink:href="#meac36eb398" y="80.947886"/>
     <use style="fill-opacity:0.75;stroke:#ffffff;stroke-opacity:0.75;stroke-width:0.252982;" x="122.940313" xlink:href="#meac36eb398" y="78.620493"/>
     <use style="fill-opacity:0.75;stroke:#ffffff;stroke-opacity:0.75;stroke-width:0.252982;" x="99.094159" xlink:href="#meac36eb398" y="72.306795"/>
     <use style="fill-opacity:0.75;stroke:#ffffff;stroke-opacity:0.75;stroke-width:0.252982;" x="141.063389" xlink:href="#meac36eb398" y="92.179337"/>
     <use style="fill-opacity:0.75;stroke:#ffffff;stroke-opacity:0.75;stroke-width:0.252982;" x="96.23262" xlink:href="#meac36eb398" y="83.806131"/>
     <use style="fill-opacity:0.75;stroke:#ffffff;stroke-opacity:0.75;stroke-width:0.252982;" x="142.971082" xlink:href="#meac36eb398" y="55.533348"/>
     <use style="fill-opacity:0.75;stroke:#ffffff;stroke-opacity:0.75;stroke-width:0.252982;" x="102.909543" xlink:href="#meac36eb398" y="138.533037"/>
     <use style="fill-opacity:0.75;stroke:#ffffff;stroke-opacity:0.75;stroke-width:0.252982;" x="143.924928" xlink:href="#meac36eb398" y="106.927683"/>
     <use style="fill-opacity:0.75;stroke:#ffffff;stroke-opacity:0.75;stroke-width:0.252982;" x="114.355697" xlink:href="#meac36eb398" y="67.057259"/>
     <use style="fill-opacity:0.75;stroke:#ffffff;stroke-opacity:0.75;stroke-width:0.252982;" x="143.924928" xlink:href="#meac36eb398" y="92.47917"/>
     <use style="fill-opacity:0.75;stroke:#ffffff;stroke-opacity:0.75;stroke-width:0.252982;" x="103.863389" xlink:href="#meac36eb398" y="136.79548"/>
     <use style="fill-opacity:0.75;stroke:#ffffff;stroke-opacity:0.75;stroke-width:0.252982;" x="142.971082" xlink:href="#meac36eb398" y="102.282728"/>
     <use style="fill-opacity:0.75;stroke:#ffffff;stroke-opacity:0.75;stroke-width:0.252982;" x="149.648005" xlink:href="#meac36eb398" y="57.750146"/>
     <use style="fill-opacity:0.75;stroke:#ffffff;stroke-opacity:0.75;stroke-width:0.252982;" x="126.755697" xlink:href="#meac36eb398" y="53.822825"/>
     <use style="fill-opacity:0.75;stroke:#ffffff;stroke-opacity:0.75;stroke-width:0.252982;" x="147.740313" xlink:href="#meac36eb398" y="72.884343"/>
    </g>
   </g>
   <g id="line2d_16">
    <path clip-path="url(#pa0a3c0cc5c)" d="M 67.617236 89.462899 
L 68.445829 89.247108 
L 69.274423 89.031318 
L 70.103016 88.815527 
L 70.93161 88.599736 
L 71.760204 88.383946 
L 72.588797 88.168155 
L 73.417391 87.952365 
L 74.245985 87.736574 
L 75.074578 87.520784 
L 75.903172 87.304993 
L 76.731765 87.089202 
L 77.560359 86.873412 
L 78.388953 86.657621 
L 79.217546 86.441831 
L 80.04614 86.22604 
L 80.874734 86.01025 
L 81.703327 85.794459 
L 82.531921 85.578668 
L 83.360515 85.362878 
L 84.189108 85.147087 
L 85.017702 84.931297 
L 85.846295 84.715506 
L 86.674889 84.499716 
L 87.503483 84.283925 
L 88.332076 84.068134 
L 89.16067 83.852344 
L 89.989264 83.636553 
L 90.817857 83.420763 
L 91.646451 83.204972 
L 92.475044 82.989182 
L 93.303638 82.773391 
L 94.132232 82.5576 
L 94.960825 82.34181 
L 95.789419 82.126019 
L 96.618013 81.910229 
L 97.446606 81.694438 
L 98.2752 81.478648 
L 99.103793 81.262857 
L 99.932387 81.047066 
L 100.760981 80.831276 
L 101.589574 80.615485 
L 102.418168 80.399695 
L 103.246762 80.183904 
L 104.075355 79.968114 
L 104.903949 79.752323 
L 105.732542 79.536532 
L 106.561136 79.320742 
L 107.38973 79.104951 
L 108.218323 78.889161 
L 109.046917 78.67337 
L 109.875511 78.45758 
L 110.704104 78.241789 
L 111.532698 78.025998 
L 112.361292 77.810208 
L 113.189885 77.594417 
L 114.018479 77.378627 
L 114.847072 77.162836 
L 115.675666 76.947046 
L 116.50426 76.731255 
L 117.332853 76.515464 
L 118.161447 76.299674 
L 118.990041 76.083883 
L 119.818634 75.868093 
L 120.647228 75.652302 
L 121.475821 75.436512 
L 122.304415 75.220721 
L 123.133009 75.00493 
L 123.961602 74.78914 
L 124.790196 74.573349 
L 125.61879 74.357559 
L 126.447383 74.141768 
L 127.275977 73.925978 
L 128.10457 73.710187 
L 128.933164 73.494396 
L 129.761758 73.278606 
L 130.590351 73.062815 
L 131.418945 72.847025 
L 132.247539 72.631234 
L 133.076132 72.415444 
L 133.904726 72.199653 
L 134.733319 71.983862 
L 135.561913 71.768072 
L 136.390507 71.552281 
L 137.2191 71.336491 
L 138.047694 71.1207 
L 138.876288 70.90491 
L 139.704881 70.689119 
L 140.533475 70.473328 
L 141.362069 70.257538 
L 142.190662 70.041747 
L 143.019256 69.825957 
L 143.847849 69.610166 
L 144.676443 69.394376 
L 145.505037 69.178585 
L 146.33363 68.962794 
L 147.162224 68.747004 
L 147.990818 68.531213 
L 148.819411 68.315423 
L 149.648005 68.099632 
" style="fill:none;stroke:#808080;stroke-linecap:square;stroke-width:0.5;"/>
   </g>
   <g id="patch_3">
    <path d="M 26.220313 144.463219 
L 26.220313 13.999219 
" style="fill:none;stroke:#000000;stroke-linecap:square;stroke-linejoin:miter;stroke-width:0.8;"/>
   </g>
   <g id="patch_4">
    <path d="M 160.140312 144.463219 
L 160.140312 13.999219 
" style="fill:none;stroke:#000000;stroke-linecap:square;stroke-linejoin:miter;stroke-width:0.8;"/>
   </g>
   <g id="patch_5">
    <path d="M 26.220313 144.463219 
L 160.140313 144.463219 
" style="fill:none;stroke:#000000;stroke-linecap:square;stroke-linejoin:miter;stroke-width:0.8;"/>
   </g>
   <g id="patch_6">
    <path d="M 26.220313 13.999219 
L 160.140313 13.999219 
" style="fill:none;stroke:#000000;stroke-linecap:square;stroke-linejoin:miter;stroke-width:0.8;"/>
   </g>
   <g id="legend_1">
    <g id="patch_7">
     <path d="M 29.720313 51.733906 
L 96.305469 51.733906 
Q 97.305469 51.733906 97.305469 50.733906 
L 97.305469 17.499219 
Q 97.305469 16.499219 96.305469 16.499219 
L 29.720313 16.499219 
Q 28.720313 16.499219 28.720313 17.499219 
L 28.720313 50.733906 
Q 28.720313 51.733906 29.720313 51.733906 
z
" style="fill:#ffffff;opacity:0.8;stroke:#000000;stroke-linejoin:miter;stroke-width:0.5;"/>
    </g>
    <g id="PathCollection_3">
     <g>
      <use style="fill:#808080;fill-opacity:0.8;stroke:#808080;stroke-opacity:0.8;" x="37.720313" xlink:href="#m984cab9519" y="34.703672"/>
     </g>
    </g>
    <g id="text_16">
     <!--       R²: 0.04 -->
     <g transform="translate(32.720313 24.298438)scale(0.05 -0.05)">
      <defs>
       <path d="M 13.09375 38.1875 
L 33.796875 38.1875 
L 33.796875 32.625 
L 4.59375 32.625 
L 4.59375 37.984375 
Q 6.25 39.5 9.328125 42.234375 
Q 26.125 57.125 26.125 61.71875 
Q 26.125 64.9375 23.578125 66.90625 
Q 21.046875 68.890625 16.890625 68.890625 
Q 14.359375 68.890625 11.375 68.03125 
Q 8.40625 67.1875 4.890625 65.484375 
L 4.890625 71.484375 
Q 8.640625 72.859375 11.890625 73.53125 
Q 15.140625 74.21875 17.921875 74.21875 
Q 25 74.21875 29.25 71 
Q 33.5 67.78125 33.5 62.5 
Q 33.5 55.71875 17.328125 41.84375 
Q 14.59375 39.5 13.09375 38.1875 
z
" id="DejaVuSans-178"/>
       <path d="M 11.71875 12.40625 
L 22.015625 12.40625 
L 22.015625 0 
L 11.71875 0 
z
M 11.71875 51.703125 
L 22.015625 51.703125 
L 22.015625 39.3125 
L 11.71875 39.3125 
z
" id="DejaVuSans-58"/>
       <path d="M 10.6875 12.40625 
L 21 12.40625 
L 21 0 
L 10.6875 0 
z
" id="DejaVuSans-46"/>
      </defs>
      <use xlink:href="#DejaVuSans-32"/>
      <use x="31.787109" xlink:href="#DejaVuSans-32"/>
      <use x="63.574219" xlink:href="#DejaVuSans-32"/>
      <use x="95.361328" xlink:href="#DejaVuSans-32"/>
      <use x="127.148438" xlink:href="#DejaVuSans-32"/>
      <use x="158.935547" xlink:href="#DejaVuSans-32"/>
      <use x="190.722656" xlink:href="#DejaVuSans-82"/>
      <use x="260.205078" xlink:href="#DejaVuSans-178"/>
      <use x="300.292969" xlink:href="#DejaVuSans-58"/>
      <use x="333.984375" xlink:href="#DejaVuSans-32"/>
      <use x="365.771484" xlink:href="#DejaVuSans-48"/>
      <use x="429.394531" xlink:href="#DejaVuSans-46"/>
      <use x="461.181641" xlink:href="#DejaVuSans-48"/>
      <use x="524.804688" xlink:href="#DejaVuSans-52"/>
     </g>
     <!--        p: 3.18e-01 -->
     <g transform="translate(32.720313 29.897344)scale(0.05 -0.05)">
      <defs>
       <path d="M 40.578125 39.3125 
Q 47.65625 37.796875 51.625 33 
Q 55.609375 28.21875 55.609375 21.1875 
Q 55.609375 10.40625 48.1875 4.484375 
Q 40.765625 -1.421875 27.09375 -1.421875 
Q 22.515625 -1.421875 17.65625 -0.515625 
Q 12.796875 0.390625 7.625 2.203125 
L 7.625 11.71875 
Q 11.71875 9.328125 16.59375 8.109375 
Q 21.484375 6.890625 26.8125 6.890625 
Q 36.078125 6.890625 40.9375 10.546875 
Q 45.796875 14.203125 45.796875 21.1875 
Q 45.796875 27.640625 41.28125 31.265625 
Q 36.765625 34.90625 28.71875 34.90625 
L 20.21875 34.90625 
L 20.21875 43.015625 
L 29.109375 43.015625 
Q 36.375 43.015625 40.234375 45.921875 
Q 44.09375 48.828125 44.09375 54.296875 
Q 44.09375 59.90625 40.109375 62.90625 
Q 36.140625 65.921875 28.71875 65.921875 
Q 24.65625 65.921875 20.015625 65.03125 
Q 15.375 64.15625 9.8125 62.3125 
L 9.8125 71.09375 
Q 15.4375 72.65625 20.34375 73.4375 
Q 25.25 74.21875 29.59375 74.21875 
Q 40.828125 74.21875 47.359375 69.109375 
Q 53.90625 64.015625 53.90625 55.328125 
Q 53.90625 49.265625 50.4375 45.09375 
Q 46.96875 40.921875 40.578125 39.3125 
z
" id="DejaVuSans-51"/>
       <path d="M 4.890625 31.390625 
L 31.203125 31.390625 
L 31.203125 23.390625 
L 4.890625 23.390625 
z
" id="DejaVuSans-45"/>
      </defs>
      <use xlink:href="#DejaVuSans-32"/>
      <use x="31.787109" xlink:href="#DejaVuSans-32"/>
      <use x="63.574219" xlink:href="#DejaVuSans-32"/>
      <use x="95.361328" xlink:href="#DejaVuSans-32"/>
      <use x="127.148438" xlink:href="#DejaVuSans-32"/>
      <use x="158.935547" xlink:href="#DejaVuSans-32"/>
      <use x="190.722656" xlink:href="#DejaVuSans-32"/>
      <use x="222.509766" xlink:href="#DejaVuSans-112"/>
      <use x="285.986328" xlink:href="#DejaVuSans-58"/>
      <use x="319.677734" xlink:href="#DejaVuSans-32"/>
      <use x="351.464844" xlink:href="#DejaVuSans-51"/>
      <use x="415.087891" xlink:href="#DejaVuSans-46"/>
      <use x="446.875" xlink:href="#DejaVuSans-49"/>
      <use x="510.498047" xlink:href="#DejaVuSans-56"/>
      <use x="574.121094" xlink:href="#DejaVuSans-101"/>
      <use x="635.644531" xlink:href="#DejaVuSans-45"/>
      <use x="671.728516" xlink:href="#DejaVuSans-48"/>
      <use x="735.351562" xlink:href="#DejaVuSans-49"/>
     </g>
     <!--   Rate: 1e-07 +/ 9.9e-08 -->
     <g transform="translate(32.720313 35.49625)scale(0.05 -0.05)">
      <defs>
       <path d="M 46 62.703125 
L 46 35.5 
L 73.1875 35.5 
L 73.1875 27.203125 
L 46 27.203125 
L 46 0 
L 37.796875 0 
L 37.796875 27.203125 
L 10.59375 27.203125 
L 10.59375 35.5 
L 37.796875 35.5 
L 37.796875 62.703125 
z
" id="DejaVuSans-43"/>
       <path d="M 25.390625 72.90625 
L 33.6875 72.90625 
L 8.296875 -9.28125 
L 0 -9.28125 
z
" id="DejaVuSans-47"/>
      </defs>
      <use xlink:href="#DejaVuSans-32"/>
      <use x="31.787109" xlink:href="#DejaVuSans-32"/>
      <use x="63.574219" xlink:href="#DejaVuSans-82"/>
      <use x="130.806641" xlink:href="#DejaVuSans-97"/>
      <use x="192.085938" xlink:href="#DejaVuSans-116"/>
      <use x="231.294922" xlink:href="#DejaVuSans-101"/>
      <use x="292.818359" xlink:href="#DejaVuSans-58"/>
      <use x="326.509766" xlink:href="#DejaVuSans-32"/>
      <use x="358.296875" xlink:href="#DejaVuSans-49"/>
      <use x="421.919922" xlink:href="#DejaVuSans-101"/>
      <use x="483.443359" xlink:href="#DejaVuSans-45"/>
      <use x="519.527344" xlink:href="#DejaVuSans-48"/>
      <use x="583.150391" xlink:href="#DejaVuSans-55"/>
      <use x="646.773438" xlink:href="#DejaVuSans-32"/>
      <use x="678.560547" xlink:href="#DejaVuSans-43"/>
      <use x="762.349609" xlink:href="#DejaVuSans-47"/>
      <use x="796.041016" xlink:href="#DejaVuSans-32"/>
      <use x="827.828125" xlink:href="#DejaVuSans-57"/>
      <use x="891.451172" xlink:href="#DejaVuSans-46"/>
      <use x="923.238281" xlink:href="#DejaVuSans-57"/>
      <use x="986.861328" xlink:href="#DejaVuSans-101"/>
      <use x="1048.384766" xlink:href="#DejaVuSans-45"/>
      <use x="1084.46875" xlink:href="#DejaVuSans-48"/>
      <use x="1148.091797" xlink:href="#DejaVuSans-56"/>
     </g>
     <!--            0.43 subs/year -->
     <g transform="translate(32.720313 41.095156)scale(0.05 -0.05)">
      <defs>
       <path d="M 8.5 21.578125 
L 8.5 54.6875 
L 17.484375 54.6875 
L 17.484375 21.921875 
Q 17.484375 14.15625 20.5 10.265625 
Q 23.53125 6.390625 29.59375 6.390625 
Q 36.859375 6.390625 41.078125 11.03125 
Q 45.3125 15.671875 45.3125 23.6875 
L 45.3125 54.6875 
L 54.296875 54.6875 
L 54.296875 0 
L 45.3125 0 
L 45.3125 8.40625 
Q 42.046875 3.421875 37.71875 1 
Q 33.40625 -1.421875 27.6875 -1.421875 
Q 18.265625 -1.421875 13.375 4.4375 
Q 8.5 10.296875 8.5 21.578125 
z
M 31.109375 56 
z
" id="DejaVuSans-117"/>
       <path d="M 48.6875 27.296875 
Q 48.6875 37.203125 44.609375 42.84375 
Q 40.53125 48.484375 33.40625 48.484375 
Q 26.265625 48.484375 22.1875 42.84375 
Q 18.109375 37.203125 18.109375 27.296875 
Q 18.109375 17.390625 22.1875 11.75 
Q 26.265625 6.109375 33.40625 6.109375 
Q 40.53125 6.109375 44.609375 11.75 
Q 48.6875 17.390625 48.6875 27.296875 
z
M 18.109375 46.390625 
Q 20.953125 51.265625 25.265625 53.625 
Q 29.59375 56 35.59375 56 
Q 45.5625 56 51.78125 48.09375 
Q 58.015625 40.1875 58.015625 27.296875 
Q 58.015625 14.40625 51.78125 6.484375 
Q 45.5625 -1.421875 35.59375 -1.421875 
Q 29.59375 -1.421875 25.265625 0.953125 
Q 20.953125 3.328125 18.109375 8.203125 
L 18.109375 0 
L 9.078125 0 
L 9.078125 75.984375 
L 18.109375 75.984375 
z
" id="DejaVuSans-98"/>
       <path d="M 32.171875 -5.078125 
Q 28.375 -14.84375 24.75 -17.8125 
Q 21.140625 -20.796875 15.09375 -20.796875 
L 7.90625 -20.796875 
L 7.90625 -13.28125 
L 13.1875 -13.28125 
Q 16.890625 -13.28125 18.9375 -11.515625 
Q 21 -9.765625 23.484375 -3.21875 
L 25.09375 0.875 
L 2.984375 54.6875 
L 12.5 54.6875 
L 29.59375 11.921875 
L 46.6875 54.6875 
L 56.203125 54.6875 
z
" id="DejaVuSans-121"/>
       <path d="M 41.109375 46.296875 
Q 39.59375 47.171875 37.8125 47.578125 
Q 36.03125 48 33.890625 48 
Q 26.265625 48 22.1875 43.046875 
Q 18.109375 38.09375 18.109375 28.8125 
L 18.109375 0 
L 9.078125 0 
L 9.078125 54.6875 
L 18.109375 54.6875 
L 18.109375 46.1875 
Q 20.953125 51.171875 25.484375 53.578125 
Q 30.03125 56 36.53125 56 
Q 37.453125 56 38.578125 55.875 
Q 39.703125 55.765625 41.0625 55.515625 
z
" id="DejaVuSans-114"/>
      </defs>
      <use xlink:href="#DejaVuSans-32"/>
      <use x="31.787109" xlink:href="#DejaVuSans-32"/>
      <use x="63.574219" xlink:href="#DejaVuSans-32"/>
      <use x="95.361328" xlink:href="#DejaVuSans-32"/>
      <use x="127.148438" xlink:href="#DejaVuSans-32"/>
      <use x="158.935547" xlink:href="#DejaVuSans-32"/>
      <use x="190.722656" xlink:href="#DejaVuSans-32"/>
      <use x="222.509766" xlink:href="#DejaVuSans-32"/>
      <use x="254.296875" xlink:href="#DejaVuSans-32"/>
      <use x="286.083984" xlink:href="#DejaVuSans-32"/>
      <use x="317.871094" xlink:href="#DejaVuSans-32"/>
      <use x="349.658203" xlink:href="#DejaVuSans-48"/>
      <use x="413.28125" xlink:href="#DejaVuSans-46"/>
      <use x="445.068359" xlink:href="#DejaVuSans-52"/>
      <use x="508.691406" xlink:href="#DejaVuSans-51"/>
      <use x="572.314453" xlink:href="#DejaVuSans-32"/>
      <use x="604.101562" xlink:href="#DejaVuSans-115"/>
      <use x="656.201172" xlink:href="#DejaVuSans-117"/>
      <use x="719.580078" xlink:href="#DejaVuSans-98"/>
      <use x="783.056641" xlink:href="#DejaVuSans-115"/>
      <use x="835.15625" xlink:href="#DejaVuSans-47"/>
      <use x="868.847656" xlink:href="#DejaVuSans-121"/>
      <use x="928.027344" xlink:href="#DejaVuSans-101"/>
      <use x="989.550781" xlink:href="#DejaVuSans-97"/>
      <use x="1050.830078" xlink:href="#DejaVuSans-114"/>
     </g>
     <!-- MRCA: 1349 -->
     <g transform="translate(32.720313 46.694063)scale(0.05 -0.05)">
      <defs>
       <path d="M 9.8125 72.90625 
L 24.515625 72.90625 
L 43.109375 23.296875 
L 61.8125 72.90625 
L 76.515625 72.90625 
L 76.515625 0 
L 66.890625 0 
L 66.890625 64.015625 
L 48.09375 14.015625 
L 38.1875 14.015625 
L 19.390625 64.015625 
L 19.390625 0 
L 9.8125 0 
z
" id="DejaVuSans-77"/>
       <path d="M 64.40625 67.28125 
L 64.40625 56.890625 
Q 59.421875 61.53125 53.78125 63.8125 
Q 48.140625 66.109375 41.796875 66.109375 
Q 29.296875 66.109375 22.65625 58.46875 
Q 16.015625 50.828125 16.015625 36.375 
Q 16.015625 21.96875 22.65625 14.328125 
Q 29.296875 6.6875 41.796875 6.6875 
Q 48.140625 6.6875 53.78125 8.984375 
Q 59.421875 11.28125 64.40625 15.921875 
L 64.40625 5.609375 
Q 59.234375 2.09375 53.4375 0.328125 
Q 47.65625 -1.421875 41.21875 -1.421875 
Q 24.65625 -1.421875 15.125 8.703125 
Q 5.609375 18.84375 5.609375 36.375 
Q 5.609375 53.953125 15.125 64.078125 
Q 24.65625 74.21875 41.21875 74.21875 
Q 47.75 74.21875 53.53125 72.484375 
Q 59.328125 70.75 64.40625 67.28125 
z
" id="DejaVuSans-67"/>
       <path d="M 34.1875 63.1875 
L 20.796875 26.90625 
L 47.609375 26.90625 
z
M 28.609375 72.90625 
L 39.796875 72.90625 
L 67.578125 0 
L 57.328125 0 
L 50.6875 18.703125 
L 17.828125 18.703125 
L 11.1875 0 
L 0.78125 0 
z
" id="DejaVuSans-65"/>
      </defs>
      <use xlink:href="#DejaVuSans-77"/>
      <use x="86.279297" xlink:href="#DejaVuSans-82"/>
      <use x="150.761719" xlink:href="#DejaVuSans-67"/>
      <use x="220.585938" xlink:href="#DejaVuSans-65"/>
      <use x="287.244141" xlink:href="#DejaVuSans-58"/>
      <use x="320.935547" xlink:href="#DejaVuSans-32"/>
      <use x="352.722656" xlink:href="#DejaVuSans-49"/>
      <use x="416.345703" xlink:href="#DejaVuSans-51"/>
      <use x="479.96875" xlink:href="#DejaVuSans-52"/>
      <use x="543.591797" xlink:href="#DejaVuSans-57"/>
     </g>
    </g>
   </g>
  </g>
 </g>
 <defs>
  <clipPath id="pa0a3c0cc5c">
   <rect height="130.464" width="133.92" x="26.220313" y="13.999219"/>
  </clipPath>
 </defs>
</svg>
