<?xml version="1.0" encoding="utf-8" standalone="no"?>
<!DOCTYPE svg PUBLIC "-//W3C//DTD SVG 1.1//EN"
  "http://www.w3.org/Graphics/SVG/1.1/DTD/svg11.dtd">
<!-- Created with matplotlib (https://matplotlib.org/) -->
<svg height="143.798125pt" version="1.1" viewBox="0 0 157.782812 143.798125" width="157.782812pt" xmlns="http://www.w3.org/2000/svg" xmlns:xlink="http://www.w3.org/1999/xlink">
 <metadata>
  <rdf:RDF xmlns:cc="http://creativecommons.org/ns#" xmlns:dc="http://purl.org/dc/elements/1.1/" xmlns:rdf="http://www.w3.org/1999/02/22-rdf-syntax-ns#">
   <cc:Work>
    <dc:type rdf:resource="http://purl.org/dc/dcmitype/StillImage"/>
    <dc:date>2021-08-04T16:46:32.126199</dc:date>
    <dc:format>image/svg+xml</dc:format>
    <dc:creator>
     <cc:Agent>
      <dc:title>Matplotlib v3.3.2, https://matplotlib.org/</dc:title>
     </cc:Agent>
    </dc:creator>
   </cc:Work>
  </rdf:RDF>
 </metadata>
 <defs>
  <style type="text/css">*{stroke-linecap:butt;stroke-linejoin:round;}</style>
 </defs>
 <g id="figure_1">
  <g id="patch_1">
   <path d="M 0 143.798125 
L 157.782812 143.798125 
L 157.782812 0 
L 0 0 
z
" style="fill:none;"/>
  </g>
  <g id="axes_1">
   <g id="patch_2">
    <path d="M 37.392188 115.92 
L 148.992188 115.92 
L 148.992188 7.2 
L 37.392188 7.2 
z
" style="fill:#ffffff;"/>
   </g>
   <g id="PolyCollection_1">
    <defs>
     <path d="M -7.035258 -27.878161 
L -7.035258 -27.878125 
L -6.389925 -27.878125 
L -5.744593 -27.878125 
L -5.09926 -27.878125 
L -4.453927 -27.878125 
L -3.808595 -27.878125 
L -3.163262 -27.878125 
L -2.51793 -27.878125 
L -1.872597 -27.878125 
L -1.227265 -27.878125 
L -0.581932 -27.878125 
L 0.0634 -27.878125 
L 0.708733 -27.878125 
L 1.354066 -27.878125 
L 1.999398 -27.878125 
L 2.644731 -27.878125 
L 3.290063 -27.878125 
L 3.935396 -27.878125 
L 4.580728 -27.878125 
L 5.226061 -27.878125 
L 5.871393 -27.878125 
L 6.516726 -27.878125 
L 7.162059 -27.878125 
L 7.807391 -27.878125 
L 8.452724 -27.878125 
L 9.098056 -27.878125 
L 9.743389 -27.878125 
L 10.388721 -27.878125 
L 11.034054 -27.878125 
L 11.679386 -27.878125 
L 12.324719 -27.878125 
L 12.970052 -27.878125 
L 13.615384 -27.878125 
L 14.260717 -27.878125 
L 14.906049 -27.878125 
L 15.551382 -27.878125 
L 16.196714 -27.878125 
L 16.842047 -27.878125 
L 17.487379 -27.878125 
L 18.132712 -27.878125 
L 18.778045 -27.878125 
L 19.423377 -27.878125 
L 20.06871 -27.878125 
L 20.714042 -27.878125 
L 21.359375 -27.878125 
L 22.004707 -27.878125 
L 22.65004 -27.878125 
L 23.295372 -27.878125 
L 23.940705 -27.878125 
L 24.586038 -27.878125 
L 25.23137 -27.878125 
L 25.876703 -27.878125 
L 26.522035 -27.878125 
L 27.167368 -27.878125 
L 27.8127 -27.878125 
L 28.458033 -27.878125 
L 29.103365 -27.878125 
L 29.748698 -27.878125 
L 30.394031 -27.878125 
L 31.039363 -27.878125 
L 31.684696 -27.878125 
L 32.330028 -27.878125 
L 32.975361 -27.878125 
L 33.620693 -27.878125 
L 34.266026 -27.878125 
L 34.911358 -27.878125 
L 35.556691 -27.878125 
L 36.202024 -27.878125 
L 36.847356 -27.878125 
L 37.492689 -27.878125 
L 38.138021 -27.878125 
L 38.783354 -27.878125 
L 39.428686 -27.878125 
L 40.074019 -27.878125 
L 40.719351 -27.878125 
L 41.364684 -27.878125 
L 42.010017 -27.878125 
L 42.655349 -27.878125 
L 43.300682 -27.878125 
L 43.946014 -27.878125 
L 44.591347 -27.878125 
L 45.236679 -27.878125 
L 45.882012 -27.878125 
L 46.527344 -27.878125 
L 47.172677 -27.878125 
L 47.818009 -27.878125 
L 48.463342 -27.878125 
L 49.108675 -27.878125 
L 49.754007 -27.878125 
L 50.39934 -27.878125 
L 51.044672 -27.878125 
L 51.690005 -27.878125 
L 52.335337 -27.878125 
L 52.98067 -27.878125 
L 53.626002 -27.878125 
L 54.271335 -27.878125 
L 54.916668 -27.878125 
L 55.562 -27.878125 
L 56.207333 -27.878125 
L 56.852665 -27.878125 
L 57.497998 -27.878125 
L 58.14333 -27.878125 
L 58.788663 -27.878125 
L 59.433995 -27.878125 
L 60.079328 -27.878125 
L 60.724661 -27.878125 
L 61.369993 -27.878125 
L 62.015326 -27.878125 
L 62.660658 -27.878125 
L 63.305991 -27.878125 
L 63.951323 -27.878125 
L 64.596656 -27.878125 
L 65.241988 -27.878125 
L 65.887321 -27.878125 
L 66.532654 -27.878125 
L 67.177986 -27.878125 
L 67.823319 -27.878125 
L 68.468651 -27.878125 
L 69.113984 -27.878125 
L 69.759316 -27.878125 
L 70.404649 -27.878125 
L 71.049981 -27.878125 
L 71.695314 -27.878125 
L 72.340647 -27.878125 
L 72.985979 -27.878125 
L 73.631312 -27.878125 
L 74.276644 -27.878125 
L 74.921977 -27.878125 
L 75.567309 -27.878125 
L 76.212642 -27.878125 
L 76.857974 -27.878125 
L 77.503307 -27.878125 
L 78.14864 -27.878125 
L 78.793972 -27.878125 
L 79.439305 -27.878125 
L 80.084637 -27.878125 
L 80.72997 -27.878125 
L 81.375302 -27.878125 
L 82.020635 -27.878125 
L 82.665967 -27.878125 
L 83.3113 -27.878125 
L 83.956633 -27.878125 
L 84.601965 -27.878125 
L 85.247298 -27.878125 
L 85.89263 -27.878125 
L 86.537963 -27.878125 
L 87.183295 -27.878125 
L 87.828628 -27.878125 
L 88.47396 -27.878125 
L 89.119293 -27.878125 
L 89.764626 -27.878125 
L 90.409958 -27.878125 
L 91.055291 -27.878125 
L 91.700623 -27.878125 
L 92.345956 -27.878125 
L 92.991288 -27.878125 
L 93.636621 -27.878125 
L 94.281953 -27.878125 
L 94.927286 -27.878125 
L 95.572619 -27.878125 
L 96.217951 -27.878125 
L 96.863284 -27.878125 
L 97.508616 -27.878125 
L 98.153949 -27.878125 
L 98.799281 -27.878125 
L 99.444614 -27.878125 
L 100.089946 -27.878125 
L 100.735279 -27.878125 
L 101.380612 -27.878125 
L 102.025944 -27.878125 
L 102.671277 -27.878125 
L 103.316609 -27.878125 
L 103.961942 -27.878125 
L 104.607274 -27.878125 
L 105.252607 -27.878125 
L 105.897939 -27.878125 
L 106.543272 -27.878125 
L 107.188605 -27.878125 
L 107.833937 -27.878125 
L 108.47927 -27.878125 
L 109.124602 -27.878125 
L 109.769935 -27.878125 
L 110.415267 -27.878125 
L 111.0606 -27.878125 
L 111.705932 -27.878125 
L 112.351265 -27.878125 
L 112.996598 -27.878125 
L 113.64193 -27.878125 
L 114.287263 -27.878125 
L 114.932595 -27.878125 
L 115.577928 -27.878125 
L 116.22326 -27.878125 
L 116.868593 -27.878125 
L 117.513925 -27.878125 
L 118.159258 -27.878125 
L 118.804591 -27.878125 
L 119.449923 -27.878125 
L 120.095256 -27.878125 
L 120.740588 -27.878125 
L 121.385921 -27.878125 
L 121.385921 -27.878449 
L 121.385921 -27.878449 
L 120.740588 -27.878961 
L 120.095256 -27.880143 
L 119.449923 -27.882699 
L 118.804591 -27.887905 
L 118.159258 -27.897928 
L 117.513925 -27.916268 
L 116.868593 -27.948282 
L 116.22326 -28.001768 
L 115.577928 -28.087441 
L 114.932595 -28.219022 
L 114.287263 -28.412558 
L 113.64193 -28.684587 
L 112.996598 -29.049016 
L 112.351265 -29.513053 
L 111.705932 -30.073148 
L 111.0606 -30.712326 
L 110.415267 -31.40025 
L 109.769935 -32.096663 
L 109.124602 -32.757662 
L 108.47927 -33.343077 
L 107.833937 -33.822706 
L 107.188605 -34.179631 
L 106.543272 -34.410129 
L 105.897939 -34.52113 
L 105.252607 -34.526917 
L 104.607274 -34.446516 
L 103.961942 -34.302241 
L 103.316609 -34.118772 
L 102.671277 -33.921667 
L 102.025944 -33.734605 
L 101.380612 -33.575659 
L 100.735279 -33.453873 
L 100.089946 -33.367751 
L 99.444614 -33.306734 
L 98.799281 -33.255421 
L 98.153949 -33.199034 
L 97.508616 -33.128007 
L 96.863284 -33.040028 
L 96.217951 -32.939114 
L 95.572619 -32.832619 
L 94.927286 -32.727744 
L 94.281953 -32.628887 
L 93.636621 -32.536479 
L 92.991288 -32.447237 
L 92.345956 -32.355457 
L 91.700623 -32.254946 
L 91.055291 -32.141134 
L 90.409958 -32.012836 
L 89.764626 -31.87304 
L 89.119293 -31.728335 
L 88.47396 -31.58708 
L 87.828628 -31.456964 
L 87.183295 -31.342926 
L 86.537963 -31.246212 
L 85.89263 -31.164799 
L 85.247298 -31.094768 
L 84.601965 -31.031808 
L 83.956633 -30.972192 
L 83.3113 -30.913 
L 82.665967 -30.851929 
L 82.020635 -30.787145 
L 81.375302 -30.717396 
L 80.72997 -30.642224 
L 80.084637 -30.561938 
L 79.439305 -30.47725 
L 78.793972 -30.388747 
L 78.14864 -30.296591 
L 77.503307 -30.200607 
L 76.857974 -30.100658 
L 76.212642 -29.996978 
L 75.567309 -29.890211 
L 74.921977 -29.78117 
L 74.276644 -29.670569 
L 73.631312 -29.558986 
L 72.985979 -29.447158 
L 72.340647 -29.336402 
L 71.695314 -29.228877 
L 71.049981 -29.127409 
L 70.404649 -29.034881 
L 69.759316 -28.953407 
L 69.113984 -28.883675 
L 68.468651 -28.824747 
L 67.823319 -28.774369 
L 67.177986 -28.729603 
L 66.532654 -28.687519 
L 65.887321 -28.645735 
L 65.241988 -28.602791 
L 64.596656 -28.558404 
L 63.951323 -28.513571 
L 63.305991 -28.47041 
L 62.660658 -28.431621 
L 62.015326 -28.399615 
L 61.369993 -28.375611 
L 60.724661 -28.35912 
L 60.079328 -28.348085 
L 59.433995 -28.339594 
L 58.788663 -28.330804 
L 58.14333 -28.319653 
L 57.497998 -28.30509 
L 56.852665 -28.286921 
L 56.207333 -28.265509 
L 55.562 -28.241568 
L 54.916668 -28.216082 
L 54.271335 -28.190262 
L 53.626002 -28.165398 
L 52.98067 -28.142582 
L 52.335337 -28.122429 
L 51.690005 -28.104928 
L 51.044672 -28.089535 
L 50.39934 -28.07545 
L 49.754007 -28.061955 
L 49.108675 -28.048649 
L 48.463342 -28.035507 
L 47.818009 -28.022779 
L 47.172677 -28.0108 
L 46.527344 -27.999818 
L 45.882012 -27.989915 
L 45.236679 -27.981008 
L 44.591347 -27.97293 
L 43.946014 -27.965531 
L 43.300682 -27.958757 
L 42.655349 -27.952666 
L 42.010017 -27.947379 
L 41.364684 -27.942983 
L 40.719351 -27.939443 
L 40.074019 -27.936574 
L 39.428686 -27.934089 
L 38.783354 -27.931688 
L 38.138021 -27.92914 
L 37.492689 -27.926311 
L 36.847356 -27.923152 
L 36.202024 -27.919686 
L 35.556691 -27.916005 
L 34.911358 -27.912291 
L 34.266026 -27.908812 
L 33.620693 -27.905882 
L 32.975361 -27.903777 
L 32.330028 -27.902644 
L 31.684696 -27.902459 
L 31.039363 -27.903041 
L 30.394031 -27.904132 
L 29.748698 -27.905491 
L 29.103365 -27.906965 
L 28.458033 -27.908489 
L 27.8127 -27.910032 
L 27.167368 -27.9115 
L 26.522035 -27.912674 
L 25.876703 -27.913226 
L 25.23137 -27.912809 
L 24.586038 -27.911197 
L 23.940705 -27.908402 
L 23.295372 -27.904709 
L 22.65004 -27.900604 
L 22.004707 -27.896632 
L 21.359375 -27.893239 
L 20.714042 -27.890651 
L 20.06871 -27.888847 
L 19.423377 -27.887628 
L 18.778045 -27.886734 
L 18.132712 -27.88598 
L 17.487379 -27.885324 
L 16.842047 -27.884859 
L 16.196714 -27.884739 
L 15.551382 -27.885065 
L 14.906049 -27.885813 
L 14.260717 -27.886816 
L 13.615384 -27.887807 
L 12.970052 -27.888515 
L 12.324719 -27.888753 
L 11.679386 -27.888465 
L 11.034054 -27.887721 
L 10.388721 -27.886666 
L 9.743389 -27.885451 
L 9.098056 -27.884198 
L 8.452724 -27.882985 
L 7.807391 -27.881863 
L 7.162059 -27.880873 
L 6.516726 -27.880052 
L 5.871393 -27.879429 
L 5.226061 -27.879023 
L 4.580728 -27.878838 
L 3.935396 -27.878871 
L 3.290063 -27.879106 
L 2.644731 -27.879514 
L 1.999398 -27.880038 
L 1.354066 -27.880592 
L 0.708733 -27.881066 
L 0.0634 -27.881354 
L -0.581932 -27.881388 
L -1.227265 -27.881158 
L -1.872597 -27.880718 
L -2.51793 -27.880164 
L -3.163262 -27.8796 
L -3.808595 -27.879106 
L -4.453927 -27.878725 
L -5.09926 -27.878463 
L -5.744593 -27.8783 
L -6.389925 -27.878208 
L -7.035258 -27.878161 
z
" id="mc197329e34" style="stroke:#000000;stroke-width:0.5;"/>
    </defs>
    <g clip-path="url(#p68154e952e)">
     <use style="fill:#c4c4c4;fill-opacity:0.25;stroke:#000000;stroke-width:0.5;" x="0" xlink:href="#mc197329e34" y="143.798125"/>
    </g>
   </g>
   <g id="PolyCollection_2">
    <defs>
     <path d="M 108.111848 -27.878573 
L 108.111848 -27.878125 
L 108.164305 -27.878125 
L 108.216762 -27.878125 
L 108.269219 -27.878125 
L 108.321676 -27.878125 
L 108.374134 -27.878125 
L 108.426591 -27.878125 
L 108.479048 -27.878125 
L 108.531505 -27.878125 
L 108.583962 -27.878125 
L 108.636419 -27.878125 
L 108.688876 -27.878125 
L 108.741333 -27.878125 
L 108.79379 -27.878125 
L 108.846247 -27.878125 
L 108.898704 -27.878125 
L 108.951161 -27.878125 
L 109.003618 -27.878125 
L 109.056075 -27.878125 
L 109.108532 -27.878125 
L 109.160989 -27.878125 
L 109.213447 -27.878125 
L 109.265904 -27.878125 
L 109.318361 -27.878125 
L 109.370818 -27.878125 
L 109.423275 -27.878125 
L 109.475732 -27.878125 
L 109.528189 -27.878125 
L 109.580646 -27.878125 
L 109.633103 -27.878125 
L 109.68556 -27.878125 
L 109.738017 -27.878125 
L 109.790474 -27.878125 
L 109.842931 -27.878125 
L 109.895388 -27.878125 
L 109.947845 -27.878125 
L 110.000302 -27.878125 
L 110.05276 -27.878125 
L 110.105217 -27.878125 
L 110.157674 -27.878125 
L 110.210131 -27.878125 
L 110.262588 -27.878125 
L 110.315045 -27.878125 
L 110.367502 -27.878125 
L 110.419959 -27.878125 
L 110.472416 -27.878125 
L 110.524873 -27.878125 
L 110.57733 -27.878125 
L 110.629787 -27.878125 
L 110.682244 -27.878125 
L 110.734701 -27.878125 
L 110.787158 -27.878125 
L 110.839615 -27.878125 
L 110.892073 -27.878125 
L 110.94453 -27.878125 
L 110.996987 -27.878125 
L 111.049444 -27.878125 
L 111.101901 -27.878125 
L 111.154358 -27.878125 
L 111.206815 -27.878125 
L 111.259272 -27.878125 
L 111.311729 -27.878125 
L 111.364186 -27.878125 
L 111.416643 -27.878125 
L 111.4691 -27.878125 
L 111.521557 -27.878125 
L 111.574014 -27.878125 
L 111.626471 -27.878125 
L 111.678928 -27.878125 
L 111.731386 -27.878125 
L 111.783843 -27.878125 
L 111.8363 -27.878125 
L 111.888757 -27.878125 
L 111.941214 -27.878125 
L 111.993671 -27.878125 
L 112.046128 -27.878125 
L 112.098585 -27.878125 
L 112.151042 -27.878125 
L 112.203499 -27.878125 
L 112.255956 -27.878125 
L 112.308413 -27.878125 
L 112.36087 -27.878125 
L 112.413327 -27.878125 
L 112.465784 -27.878125 
L 112.518241 -27.878125 
L 112.570699 -27.878125 
L 112.623156 -27.878125 
L 112.675613 -27.878125 
L 112.72807 -27.878125 
L 112.780527 -27.878125 
L 112.832984 -27.878125 
L 112.885441 -27.878125 
L 112.937898 -27.878125 
L 112.990355 -27.878125 
L 113.042812 -27.878125 
L 113.095269 -27.878125 
L 113.147726 -27.878125 
L 113.200183 -27.878125 
L 113.25264 -27.878125 
L 113.305097 -27.878125 
L 113.357554 -27.878125 
L 113.410012 -27.878125 
L 113.462469 -27.878125 
L 113.514926 -27.878125 
L 113.567383 -27.878125 
L 113.61984 -27.878125 
L 113.672297 -27.878125 
L 113.724754 -27.878125 
L 113.777211 -27.878125 
L 113.829668 -27.878125 
L 113.882125 -27.878125 
L 113.934582 -27.878125 
L 113.987039 -27.878125 
L 114.039496 -27.878125 
L 114.091953 -27.878125 
L 114.14441 -27.878125 
L 114.196867 -27.878125 
L 114.249325 -27.878125 
L 114.301782 -27.878125 
L 114.354239 -27.878125 
L 114.406696 -27.878125 
L 114.459153 -27.878125 
L 114.51161 -27.878125 
L 114.564067 -27.878125 
L 114.616524 -27.878125 
L 114.668981 -27.878125 
L 114.721438 -27.878125 
L 114.773895 -27.878125 
L 114.826352 -27.878125 
L 114.878809 -27.878125 
L 114.931266 -27.878125 
L 114.983723 -27.878125 
L 115.03618 -27.878125 
L 115.088638 -27.878125 
L 115.141095 -27.878125 
L 115.193552 -27.878125 
L 115.246009 -27.878125 
L 115.298466 -27.878125 
L 115.350923 -27.878125 
L 115.40338 -27.878125 
L 115.455837 -27.878125 
L 115.508294 -27.878125 
L 115.560751 -27.878125 
L 115.613208 -27.878125 
L 115.665665 -27.878125 
L 115.718122 -27.878125 
L 115.770579 -27.878125 
L 115.823036 -27.878125 
L 115.875493 -27.878125 
L 115.927951 -27.878125 
L 115.980408 -27.878125 
L 116.032865 -27.878125 
L 116.085322 -27.878125 
L 116.137779 -27.878125 
L 116.190236 -27.878125 
L 116.242693 -27.878125 
L 116.29515 -27.878125 
L 116.347607 -27.878125 
L 116.400064 -27.878125 
L 116.452521 -27.878125 
L 116.504978 -27.878125 
L 116.557435 -27.878125 
L 116.609892 -27.878125 
L 116.662349 -27.878125 
L 116.714806 -27.878125 
L 116.767264 -27.878125 
L 116.819721 -27.878125 
L 116.872178 -27.878125 
L 116.924635 -27.878125 
L 116.977092 -27.878125 
L 117.029549 -27.878125 
L 117.082006 -27.878125 
L 117.134463 -27.878125 
L 117.18692 -27.878125 
L 117.239377 -27.878125 
L 117.291834 -27.878125 
L 117.344291 -27.878125 
L 117.396748 -27.878125 
L 117.449205 -27.878125 
L 117.501662 -27.878125 
L 117.554119 -27.878125 
L 117.606577 -27.878125 
L 117.659034 -27.878125 
L 117.711491 -27.878125 
L 117.763948 -27.878125 
L 117.816405 -27.878125 
L 117.868862 -27.878125 
L 117.921319 -27.878125 
L 117.973776 -27.878125 
L 118.026233 -27.878125 
L 118.07869 -27.878125 
L 118.131147 -27.878125 
L 118.183604 -27.878125 
L 118.236061 -27.878125 
L 118.288518 -27.878125 
L 118.340975 -27.878125 
L 118.393432 -27.878125 
L 118.44589 -27.878125 
L 118.498347 -27.878125 
L 118.550804 -27.878125 
L 118.550804 -28.00525 
L 118.550804 -28.00525 
L 118.498347 -28.195309 
L 118.44589 -28.611314 
L 118.393432 -29.449931 
L 118.340975 -31.007139 
L 118.288518 -33.671057 
L 118.236061 -37.870396 
L 118.183604 -43.97196 
L 118.131147 -52.146009 
L 118.07869 -62.245985 
L 118.026233 -73.760331 
L 117.973776 -85.874627 
L 117.921319 -97.636216 
L 117.868862 -108.165234 
L 117.816405 -116.834461 
L 117.763948 -123.358014 
L 117.711491 -127.772912 
L 117.659034 -130.340998 
L 117.606577 -131.420982 
L 117.554119 -131.357319 
L 117.501662 -130.413942 
L 117.449205 -128.758514 
L 117.396748 -126.485488 
L 117.344291 -123.657452 
L 117.291834 -120.34454 
L 117.239377 -116.648567 
L 117.18692 -112.707748 
L 117.134463 -108.685195 
L 117.082006 -104.748052 
L 117.029549 -101.044557 
L 116.977092 -97.68491 
L 116.924635 -94.729566 
L 116.872178 -92.186185 
L 116.819721 -90.014462 
L 116.767264 -88.136868 
L 116.714806 -86.452948 
L 116.662349 -84.854691 
L 116.609892 -83.240499 
L 116.557435 -81.525624 
L 116.504978 -79.64823 
L 116.452521 -77.572129 
L 116.400064 -75.288528 
L 116.347607 -72.81835 
L 116.29515 -70.213938 
L 116.242693 -67.556415 
L 116.190236 -64.945195 
L 116.137779 -62.479916 
L 116.085322 -60.239717 
L 116.032865 -58.26701 
L 115.980408 -56.561049 
L 115.927951 -55.082519 
L 115.875493 -53.766961 
L 115.823036 -52.543388 
L 115.770579 -51.354007 
L 115.718122 -50.170186 
L 115.665665 -48.999323 
L 115.613208 -47.879017 
L 115.560751 -46.859634 
L 115.508294 -45.982071 
L 115.455837 -45.260376 
L 115.40338 -44.676645 
L 115.350923 -44.189305 
L 115.298466 -43.749474 
L 115.246009 -43.317067 
L 115.193552 -42.869886 
L 115.141095 -42.403492 
L 115.088638 -41.924356 
L 115.03618 -41.441363 
L 114.983723 -40.960267 
L 114.931266 -40.482794 
L 114.878809 -40.008903 
L 114.826352 -39.539129 
L 114.773895 -39.074969 
L 114.721438 -38.617548 
L 114.668981 -38.166388 
L 114.616524 -37.719809 
L 114.564067 -37.276735 
L 114.51161 -36.838228 
L 114.459153 -36.407146 
L 114.406696 -35.985851 
L 114.354239 -35.57371 
L 114.301782 -35.166682 
L 114.249325 -34.759995 
L 114.196867 -34.352591 
L 114.14441 -33.950342 
L 114.091953 -33.565413 
L 114.039496 -33.211447 
L 113.987039 -32.897067 
L 113.934582 -32.62143 
L 113.882125 -32.37453 
L 113.829668 -32.142154 
L 113.777211 -31.912847 
L 113.724754 -31.68328 
L 113.672297 -31.459613 
L 113.61984 -31.254672 
L 113.567383 -31.082633 
L 113.514926 -30.953501 
L 113.462469 -30.869079 
L 113.410012 -30.821349 
L 113.357554 -30.793609 
L 113.305097 -30.764267 
L 113.25264 -30.712492 
L 113.200183 -30.623922 
L 113.147726 -30.494257 
L 113.095269 -30.329322 
L 113.042812 -30.141863 
L 112.990355 -29.946877 
L 112.937898 -29.757541 
L 112.885441 -29.583001 
L 112.832984 -29.428021 
L 112.780527 -29.293817 
L 112.72807 -29.179395 
L 112.675613 -29.082951 
L 112.623156 -29.003118 
L 112.570699 -28.939769 
L 112.518241 -28.894108 
L 112.465784 -28.86796 
L 112.413327 -28.862477 
L 112.36087 -28.876784 
L 112.308413 -28.907124 
L 112.255956 -28.946913 
L 112.203499 -28.987752 
L 112.151042 -29.021149 
L 112.098585 -29.040439 
L 112.046128 -29.042251 
L 111.993671 -29.026997 
L 111.941214 -28.998128 
L 111.888757 -28.960452 
L 111.8363 -28.918245 
L 111.783843 -28.873989 
L 111.731386 -28.828239 
L 111.678928 -28.78048 
L 111.626471 -28.730331 
L 111.574014 -28.678358 
L 111.521557 -28.626142 
L 111.4691 -28.575764 
L 111.416643 -28.529172 
L 111.364186 -28.487784 
L 111.311729 -28.45235 
L 111.259272 -28.422856 
L 111.206815 -28.398318 
L 111.154358 -28.376602 
L 111.101901 -28.354591 
L 111.049444 -28.328972 
L 110.996987 -28.297505 
L 110.94453 -28.260267 
L 110.892073 -28.220169 
L 110.839615 -28.182305 
L 110.787158 -28.152231 
L 110.734701 -28.133798 
L 110.682244 -28.12746 
L 110.629787 -28.129823 
L 110.57733 -28.134717 
L 110.524873 -28.13542 
L 110.472416 -28.12716 
L 110.419959 -28.108875 
L 110.367502 -28.083543 
L 110.315045 -28.057022 
L 110.262588 -28.035926 
L 110.210131 -28.025387 
L 110.157674 -28.02748 
L 110.105217 -28.040768 
L 110.05276 -28.06103 
L 110.000302 -28.082852 
L 109.947845 -28.101459 
L 109.895388 -28.114062 
L 109.842931 -28.120223 
L 109.790474 -28.121164 
L 109.738017 -28.118505 
L 109.68556 -28.113133 
L 109.633103 -28.104764 
L 109.580646 -28.092323 
L 109.528189 -28.074797 
L 109.475732 -28.052041 
L 109.423275 -28.025137 
L 109.370818 -27.996207 
L 109.318361 -27.96784 
L 109.265904 -27.942407 
L 109.213447 -27.921563 
L 109.160989 -27.906055 
L 109.108532 -27.895842 
L 109.056075 -27.890401 
L 109.003618 -27.889033 
L 108.951161 -27.891018 
L 108.898704 -27.895603 
L 108.846247 -27.901854 
L 108.79379 -27.908567 
L 108.741333 -27.914337 
L 108.688876 -27.917841 
L 108.636419 -27.918223 
L 108.583962 -27.915372 
L 108.531505 -27.909954 
L 108.479048 -27.903146 
L 108.426591 -27.896219 
L 108.374134 -27.890161 
L 108.321676 -27.88549 
L 108.269219 -27.882271 
L 108.216762 -27.880272 
L 108.164305 -27.879148 
L 108.111848 -27.878573 
z
" id="m8183f1d469" style="stroke:#8000ff;stroke-width:0.5;"/>
    </defs>
    <g clip-path="url(#p68154e952e)">
     <use style="fill:#8000ff;fill-opacity:0.25;stroke:#8000ff;stroke-width:0.5;" x="0" xlink:href="#m8183f1d469" y="143.798125"/>
    </g>
   </g>
   <g id="matplotlib.axis_1">
    <g id="xtick_1">
     <g id="line2d_1">
      <defs>
       <path d="M 0 0 
L 0 3.5 
" id="m76955984e9" style="stroke:#000000;stroke-width:0.8;"/>
      </defs>
      <g>
       <use style="stroke:#000000;stroke-width:0.8;" x="37.392188" xlink:href="#m76955984e9" y="115.92"/>
      </g>
     </g>
     <g id="text_1">
      <!-- −10000 -->
      <g transform="translate(27.344141 126.719219)scale(0.05 -0.05)">
       <defs>
        <path d="M 10.59375 35.5 
L 73.1875 35.5 
L 73.1875 27.203125 
L 10.59375 27.203125 
z
" id="DejaVuSans-8722"/>
        <path d="M 12.40625 8.296875 
L 28.515625 8.296875 
L 28.515625 63.921875 
L 10.984375 60.40625 
L 10.984375 69.390625 
L 28.421875 72.90625 
L 38.28125 72.90625 
L 38.28125 8.296875 
L 54.390625 8.296875 
L 54.390625 0 
L 12.40625 0 
z
" id="DejaVuSans-49"/>
        <path d="M 31.78125 66.40625 
Q 24.171875 66.40625 20.328125 58.90625 
Q 16.5 51.421875 16.5 36.375 
Q 16.5 21.390625 20.328125 13.890625 
Q 24.171875 6.390625 31.78125 6.390625 
Q 39.453125 6.390625 43.28125 13.890625 
Q 47.125 21.390625 47.125 36.375 
Q 47.125 51.421875 43.28125 58.90625 
Q 39.453125 66.40625 31.78125 66.40625 
z
M 31.78125 74.21875 
Q 44.046875 74.21875 50.515625 64.515625 
Q 56.984375 54.828125 56.984375 36.375 
Q 56.984375 17.96875 50.515625 8.265625 
Q 44.046875 -1.421875 31.78125 -1.421875 
Q 19.53125 -1.421875 13.0625 8.265625 
Q 6.59375 17.96875 6.59375 36.375 
Q 6.59375 54.828125 13.0625 64.515625 
Q 19.53125 74.21875 31.78125 74.21875 
z
" id="DejaVuSans-48"/>
       </defs>
       <use xlink:href="#DejaVuSans-8722"/>
       <use x="83.789062" xlink:href="#DejaVuSans-49"/>
       <use x="147.412109" xlink:href="#DejaVuSans-48"/>
       <use x="211.035156" xlink:href="#DejaVuSans-48"/>
       <use x="274.658203" xlink:href="#DejaVuSans-48"/>
       <use x="338.28125" xlink:href="#DejaVuSans-48"/>
      </g>
     </g>
    </g>
    <g id="xtick_2">
     <g id="line2d_2">
      <g>
       <use style="stroke:#000000;stroke-width:0.8;" x="59.712187" xlink:href="#m76955984e9" y="115.92"/>
      </g>
     </g>
     <g id="text_2">
      <!-- −8000 -->
      <g transform="translate(51.254766 126.719219)scale(0.05 -0.05)">
       <defs>
        <path d="M 31.78125 34.625 
Q 24.75 34.625 20.71875 30.859375 
Q 16.703125 27.09375 16.703125 20.515625 
Q 16.703125 13.921875 20.71875 10.15625 
Q 24.75 6.390625 31.78125 6.390625 
Q 38.8125 6.390625 42.859375 10.171875 
Q 46.921875 13.96875 46.921875 20.515625 
Q 46.921875 27.09375 42.890625 30.859375 
Q 38.875 34.625 31.78125 34.625 
z
M 21.921875 38.8125 
Q 15.578125 40.375 12.03125 44.71875 
Q 8.5 49.078125 8.5 55.328125 
Q 8.5 64.0625 14.71875 69.140625 
Q 20.953125 74.21875 31.78125 74.21875 
Q 42.671875 74.21875 48.875 69.140625 
Q 55.078125 64.0625 55.078125 55.328125 
Q 55.078125 49.078125 51.53125 44.71875 
Q 48 40.375 41.703125 38.8125 
Q 48.828125 37.15625 52.796875 32.3125 
Q 56.78125 27.484375 56.78125 20.515625 
Q 56.78125 9.90625 50.3125 4.234375 
Q 43.84375 -1.421875 31.78125 -1.421875 
Q 19.734375 -1.421875 13.25 4.234375 
Q 6.78125 9.90625 6.78125 20.515625 
Q 6.78125 27.484375 10.78125 32.3125 
Q 14.796875 37.15625 21.921875 38.8125 
z
M 18.3125 54.390625 
Q 18.3125 48.734375 21.84375 45.5625 
Q 25.390625 42.390625 31.78125 42.390625 
Q 38.140625 42.390625 41.71875 45.5625 
Q 45.3125 48.734375 45.3125 54.390625 
Q 45.3125 60.0625 41.71875 63.234375 
Q 38.140625 66.40625 31.78125 66.40625 
Q 25.390625 66.40625 21.84375 63.234375 
Q 18.3125 60.0625 18.3125 54.390625 
z
" id="DejaVuSans-56"/>
       </defs>
       <use xlink:href="#DejaVuSans-8722"/>
       <use x="83.789062" xlink:href="#DejaVuSans-56"/>
       <use x="147.412109" xlink:href="#DejaVuSans-48"/>
       <use x="211.035156" xlink:href="#DejaVuSans-48"/>
       <use x="274.658203" xlink:href="#DejaVuSans-48"/>
      </g>
     </g>
    </g>
    <g id="xtick_3">
     <g id="line2d_3">
      <g>
       <use style="stroke:#000000;stroke-width:0.8;" x="82.032188" xlink:href="#m76955984e9" y="115.92"/>
      </g>
     </g>
     <g id="text_3">
      <!-- −6000 -->
      <g transform="translate(73.574766 126.719219)scale(0.05 -0.05)">
       <defs>
        <path d="M 33.015625 40.375 
Q 26.375 40.375 22.484375 35.828125 
Q 18.609375 31.296875 18.609375 23.390625 
Q 18.609375 15.53125 22.484375 10.953125 
Q 26.375 6.390625 33.015625 6.390625 
Q 39.65625 6.390625 43.53125 10.953125 
Q 47.40625 15.53125 47.40625 23.390625 
Q 47.40625 31.296875 43.53125 35.828125 
Q 39.65625 40.375 33.015625 40.375 
z
M 52.59375 71.296875 
L 52.59375 62.3125 
Q 48.875 64.0625 45.09375 64.984375 
Q 41.3125 65.921875 37.59375 65.921875 
Q 27.828125 65.921875 22.671875 59.328125 
Q 17.53125 52.734375 16.796875 39.40625 
Q 19.671875 43.65625 24.015625 45.921875 
Q 28.375 48.1875 33.59375 48.1875 
Q 44.578125 48.1875 50.953125 41.515625 
Q 57.328125 34.859375 57.328125 23.390625 
Q 57.328125 12.15625 50.6875 5.359375 
Q 44.046875 -1.421875 33.015625 -1.421875 
Q 20.359375 -1.421875 13.671875 8.265625 
Q 6.984375 17.96875 6.984375 36.375 
Q 6.984375 53.65625 15.1875 63.9375 
Q 23.390625 74.21875 37.203125 74.21875 
Q 40.921875 74.21875 44.703125 73.484375 
Q 48.484375 72.75 52.59375 71.296875 
z
" id="DejaVuSans-54"/>
       </defs>
       <use xlink:href="#DejaVuSans-8722"/>
       <use x="83.789062" xlink:href="#DejaVuSans-54"/>
       <use x="147.412109" xlink:href="#DejaVuSans-48"/>
       <use x="211.035156" xlink:href="#DejaVuSans-48"/>
       <use x="274.658203" xlink:href="#DejaVuSans-48"/>
      </g>
     </g>
    </g>
    <g id="xtick_4">
     <g id="line2d_4">
      <g>
       <use style="stroke:#000000;stroke-width:0.8;" x="104.352187" xlink:href="#m76955984e9" y="115.92"/>
      </g>
     </g>
     <g id="text_4">
      <!-- −4000 -->
      <g transform="translate(95.894766 126.719219)scale(0.05 -0.05)">
       <defs>
        <path d="M 37.796875 64.3125 
L 12.890625 25.390625 
L 37.796875 25.390625 
z
M 35.203125 72.90625 
L 47.609375 72.90625 
L 47.609375 25.390625 
L 58.015625 25.390625 
L 58.015625 17.1875 
L 47.609375 17.1875 
L 47.609375 0 
L 37.796875 0 
L 37.796875 17.1875 
L 4.890625 17.1875 
L 4.890625 26.703125 
z
" id="DejaVuSans-52"/>
       </defs>
       <use xlink:href="#DejaVuSans-8722"/>
       <use x="83.789062" xlink:href="#DejaVuSans-52"/>
       <use x="147.412109" xlink:href="#DejaVuSans-48"/>
       <use x="211.035156" xlink:href="#DejaVuSans-48"/>
       <use x="274.658203" xlink:href="#DejaVuSans-48"/>
      </g>
     </g>
    </g>
    <g id="xtick_5">
     <g id="line2d_5">
      <g>
       <use style="stroke:#000000;stroke-width:0.8;" x="126.672188" xlink:href="#m76955984e9" y="115.92"/>
      </g>
     </g>
     <g id="text_5">
      <!-- −2000 -->
      <g transform="translate(118.214766 126.719219)scale(0.05 -0.05)">
       <defs>
        <path d="M 19.1875 8.296875 
L 53.609375 8.296875 
L 53.609375 0 
L 7.328125 0 
L 7.328125 8.296875 
Q 12.9375 14.109375 22.625 23.890625 
Q 32.328125 33.6875 34.8125 36.53125 
Q 39.546875 41.84375 41.421875 45.53125 
Q 43.3125 49.21875 43.3125 52.78125 
Q 43.3125 58.59375 39.234375 62.25 
Q 35.15625 65.921875 28.609375 65.921875 
Q 23.96875 65.921875 18.8125 64.3125 
Q 13.671875 62.703125 7.8125 59.421875 
L 7.8125 69.390625 
Q 13.765625 71.78125 18.9375 73 
Q 24.125 74.21875 28.421875 74.21875 
Q 39.75 74.21875 46.484375 68.546875 
Q 53.21875 62.890625 53.21875 53.421875 
Q 53.21875 48.921875 51.53125 44.890625 
Q 49.859375 40.875 45.40625 35.40625 
Q 44.1875 33.984375 37.640625 27.21875 
Q 31.109375 20.453125 19.1875 8.296875 
z
" id="DejaVuSans-50"/>
       </defs>
       <use xlink:href="#DejaVuSans-8722"/>
       <use x="83.789062" xlink:href="#DejaVuSans-50"/>
       <use x="147.412109" xlink:href="#DejaVuSans-48"/>
       <use x="211.035156" xlink:href="#DejaVuSans-48"/>
       <use x="274.658203" xlink:href="#DejaVuSans-48"/>
      </g>
     </g>
    </g>
    <g id="xtick_6">
     <g id="line2d_6">
      <g>
       <use style="stroke:#000000;stroke-width:0.8;" x="148.992188" xlink:href="#m76955984e9" y="115.92"/>
      </g>
     </g>
     <g id="text_6">
      <!-- 0 -->
      <g transform="translate(147.401563 126.719219)scale(0.05 -0.05)">
       <use xlink:href="#DejaVuSans-48"/>
      </g>
     </g>
    </g>
    <g id="text_7">
     <!-- Calendar Date -->
     <g transform="translate(73.105078 135.558281)scale(0.05 -0.05)">
      <defs>
       <path d="M 67 4 
Q 61.8125 1.3125 56.203125 -0.046875 
Q 50.59375 -1.421875 44.484375 -1.421875 
Q 26.265625 -1.421875 15.625 8.765625 
Q 4.984375 18.953125 4.984375 36.375 
Q 4.984375 53.859375 15.625 64.03125 
Q 26.265625 74.21875 44.484375 74.21875 
Q 50.59375 74.21875 56.203125 72.84375 
Q 61.8125 71.484375 67 68.796875 
L 67 53.71875 
Q 61.765625 57.28125 56.6875 58.9375 
Q 51.609375 60.59375 46 60.59375 
Q 35.9375 60.59375 30.171875 54.140625 
Q 24.421875 47.703125 24.421875 36.375 
Q 24.421875 25.09375 30.171875 18.640625 
Q 35.9375 12.203125 46 12.203125 
Q 51.609375 12.203125 56.6875 13.859375 
Q 61.765625 15.53125 67 19.09375 
z
" id="DejaVuSans-Bold-67"/>
       <path d="M 32.90625 24.609375 
Q 27.4375 24.609375 24.671875 22.75 
Q 21.921875 20.90625 21.921875 17.28125 
Q 21.921875 13.96875 24.140625 12.078125 
Q 26.375 10.203125 30.328125 10.203125 
Q 35.25 10.203125 38.625 13.734375 
Q 42 17.28125 42 22.609375 
L 42 24.609375 
z
M 59.625 31.203125 
L 59.625 0 
L 42 0 
L 42 8.109375 
Q 38.484375 3.125 34.078125 0.84375 
Q 29.6875 -1.421875 23.390625 -1.421875 
Q 14.890625 -1.421875 9.59375 3.53125 
Q 4.296875 8.5 4.296875 16.40625 
Q 4.296875 26.03125 10.90625 30.515625 
Q 17.53125 35.015625 31.6875 35.015625 
L 42 35.015625 
L 42 36.375 
Q 42 40.53125 38.71875 42.453125 
Q 35.453125 44.390625 28.515625 44.390625 
Q 22.90625 44.390625 18.0625 43.265625 
Q 13.234375 42.140625 9.078125 39.890625 
L 9.078125 53.21875 
Q 14.703125 54.59375 20.359375 55.296875 
Q 26.03125 56 31.6875 56 
Q 46.484375 56 53.046875 50.171875 
Q 59.625 44.34375 59.625 31.203125 
z
" id="DejaVuSans-Bold-97"/>
       <path d="M 8.40625 75.984375 
L 25.875 75.984375 
L 25.875 0 
L 8.40625 0 
z
" id="DejaVuSans-Bold-108"/>
       <path d="M 62.984375 27.484375 
L 62.984375 22.515625 
L 22.125 22.515625 
Q 22.75 16.359375 26.5625 13.28125 
Q 30.375 10.203125 37.203125 10.203125 
Q 42.71875 10.203125 48.5 11.84375 
Q 54.296875 13.484375 60.40625 16.796875 
L 60.40625 3.328125 
Q 54.203125 0.984375 48 -0.21875 
Q 41.796875 -1.421875 35.59375 -1.421875 
Q 20.75 -1.421875 12.515625 6.125 
Q 4.296875 13.671875 4.296875 27.296875 
Q 4.296875 40.671875 12.375 48.328125 
Q 20.453125 56 34.625 56 
Q 47.515625 56 55.25 48.234375 
Q 62.984375 40.484375 62.984375 27.484375 
z
M 45.015625 33.296875 
Q 45.015625 38.28125 42.109375 41.328125 
Q 39.203125 44.390625 34.515625 44.390625 
Q 29.4375 44.390625 26.265625 41.53125 
Q 23.09375 38.671875 22.3125 33.296875 
z
" id="DejaVuSans-Bold-101"/>
       <path d="M 63.375 33.296875 
L 63.375 0 
L 45.796875 0 
L 45.796875 5.421875 
L 45.796875 25.484375 
Q 45.796875 32.5625 45.484375 35.25 
Q 45.171875 37.9375 44.390625 39.203125 
Q 43.359375 40.921875 41.59375 41.875 
Q 39.84375 42.828125 37.59375 42.828125 
Q 32.125 42.828125 29 38.59375 
Q 25.875 34.375 25.875 26.90625 
L 25.875 0 
L 8.40625 0 
L 8.40625 54.6875 
L 25.875 54.6875 
L 25.875 46.6875 
Q 29.828125 51.46875 34.265625 53.734375 
Q 38.71875 56 44.09375 56 
Q 53.5625 56 58.46875 50.1875 
Q 63.375 44.390625 63.375 33.296875 
z
" id="DejaVuSans-Bold-110"/>
       <path d="M 45.609375 46.6875 
L 45.609375 75.984375 
L 63.1875 75.984375 
L 63.1875 0 
L 45.609375 0 
L 45.609375 7.90625 
Q 42 3.078125 37.640625 0.828125 
Q 33.296875 -1.421875 27.59375 -1.421875 
Q 17.484375 -1.421875 10.984375 6.609375 
Q 4.5 14.65625 4.5 27.296875 
Q 4.5 39.9375 10.984375 47.96875 
Q 17.484375 56 27.59375 56 
Q 33.25 56 37.625 53.734375 
Q 42 51.46875 45.609375 46.6875 
z
M 34.078125 11.28125 
Q 39.703125 11.28125 42.65625 15.375 
Q 45.609375 19.484375 45.609375 27.296875 
Q 45.609375 35.109375 42.65625 39.203125 
Q 39.703125 43.3125 34.078125 43.3125 
Q 28.515625 43.3125 25.5625 39.203125 
Q 22.609375 35.109375 22.609375 27.296875 
Q 22.609375 19.484375 25.5625 15.375 
Q 28.515625 11.28125 34.078125 11.28125 
z
" id="DejaVuSans-Bold-100"/>
       <path d="M 49.03125 39.796875 
Q 46.734375 40.875 44.453125 41.375 
Q 42.1875 41.890625 39.890625 41.890625 
Q 33.15625 41.890625 29.515625 37.5625 
Q 25.875 33.25 25.875 25.203125 
L 25.875 0 
L 8.40625 0 
L 8.40625 54.6875 
L 25.875 54.6875 
L 25.875 45.703125 
Q 29.25 51.078125 33.609375 53.53125 
Q 37.984375 56 44.09375 56 
Q 44.96875 56 45.984375 55.921875 
Q 47.015625 55.859375 48.96875 55.609375 
z
" id="DejaVuSans-Bold-114"/>
       <path id="DejaVuSans-Bold-32"/>
       <path d="M 27.984375 58.6875 
L 27.984375 14.203125 
L 34.71875 14.203125 
Q 46.234375 14.203125 52.3125 19.921875 
Q 58.40625 25.640625 58.40625 36.53125 
Q 58.40625 47.359375 52.34375 53.015625 
Q 46.296875 58.6875 34.71875 58.6875 
z
M 9.1875 72.90625 
L 29 72.90625 
Q 45.609375 72.90625 53.734375 70.53125 
Q 61.859375 68.171875 67.671875 62.5 
Q 72.796875 57.5625 75.28125 51.109375 
Q 77.78125 44.671875 77.78125 36.53125 
Q 77.78125 28.265625 75.28125 21.796875 
Q 72.796875 15.328125 67.671875 10.40625 
Q 61.8125 4.734375 53.609375 2.359375 
Q 45.40625 0 29 0 
L 9.1875 0 
z
" id="DejaVuSans-Bold-68"/>
       <path d="M 27.484375 70.21875 
L 27.484375 54.6875 
L 45.515625 54.6875 
L 45.515625 42.1875 
L 27.484375 42.1875 
L 27.484375 19 
Q 27.484375 15.1875 29 13.84375 
Q 30.515625 12.5 35.015625 12.5 
L 44 12.5 
L 44 0 
L 29 0 
Q 18.65625 0 14.328125 4.3125 
Q 10.015625 8.640625 10.015625 19 
L 10.015625 42.1875 
L 1.3125 42.1875 
L 1.3125 54.6875 
L 10.015625 54.6875 
L 10.015625 70.21875 
z
" id="DejaVuSans-Bold-116"/>
      </defs>
      <use xlink:href="#DejaVuSans-Bold-67"/>
      <use x="73.388672" xlink:href="#DejaVuSans-Bold-97"/>
      <use x="140.869141" xlink:href="#DejaVuSans-Bold-108"/>
      <use x="175.146484" xlink:href="#DejaVuSans-Bold-101"/>
      <use x="242.96875" xlink:href="#DejaVuSans-Bold-110"/>
      <use x="314.160156" xlink:href="#DejaVuSans-Bold-100"/>
      <use x="385.742188" xlink:href="#DejaVuSans-Bold-97"/>
      <use x="453.222656" xlink:href="#DejaVuSans-Bold-114"/>
      <use x="502.539062" xlink:href="#DejaVuSans-Bold-32"/>
      <use x="537.353516" xlink:href="#DejaVuSans-Bold-68"/>
      <use x="620.361328" xlink:href="#DejaVuSans-Bold-97"/>
      <use x="687.841797" xlink:href="#DejaVuSans-Bold-116"/>
      <use x="735.644531" xlink:href="#DejaVuSans-Bold-101"/>
     </g>
    </g>
   </g>
   <g id="matplotlib.axis_2">
    <g id="ytick_1">
     <g id="line2d_7">
      <defs>
       <path d="M 0 0 
L -3.5 0 
" id="m30bc7a5290" style="stroke:#000000;stroke-width:0.8;"/>
      </defs>
      <g>
       <use style="stroke:#000000;stroke-width:0.8;" x="37.392188" xlink:href="#m30bc7a5290" y="115.92"/>
      </g>
     </g>
     <g id="text_8">
      <!-- 0.000 -->
      <g transform="translate(16.078125 117.819609)scale(0.05 -0.05)">
       <defs>
        <path d="M 10.6875 12.40625 
L 21 12.40625 
L 21 0 
L 10.6875 0 
z
" id="DejaVuSans-46"/>
       </defs>
       <use xlink:href="#DejaVuSans-48"/>
       <use x="63.623047" xlink:href="#DejaVuSans-46"/>
       <use x="95.410156" xlink:href="#DejaVuSans-48"/>
       <use x="159.033203" xlink:href="#DejaVuSans-48"/>
       <use x="222.65625" xlink:href="#DejaVuSans-48"/>
      </g>
     </g>
    </g>
    <g id="ytick_2">
     <g id="line2d_8">
      <g>
       <use style="stroke:#000000;stroke-width:0.8;" x="37.392188" xlink:href="#m30bc7a5290" y="99.706921"/>
      </g>
     </g>
     <g id="text_9">
      <!-- 0.001 -->
      <g transform="translate(16.078125 101.60653)scale(0.05 -0.05)">
       <use xlink:href="#DejaVuSans-48"/>
       <use x="63.623047" xlink:href="#DejaVuSans-46"/>
       <use x="95.410156" xlink:href="#DejaVuSans-48"/>
       <use x="159.033203" xlink:href="#DejaVuSans-48"/>
       <use x="222.65625" xlink:href="#DejaVuSans-49"/>
      </g>
     </g>
    </g>
    <g id="ytick_3">
     <g id="line2d_9">
      <g>
       <use style="stroke:#000000;stroke-width:0.8;" x="37.392188" xlink:href="#m30bc7a5290" y="83.493842"/>
      </g>
     </g>
     <g id="text_10">
      <!-- 0.002 -->
      <g transform="translate(16.078125 85.393451)scale(0.05 -0.05)">
       <use xlink:href="#DejaVuSans-48"/>
       <use x="63.623047" xlink:href="#DejaVuSans-46"/>
       <use x="95.410156" xlink:href="#DejaVuSans-48"/>
       <use x="159.033203" xlink:href="#DejaVuSans-48"/>
       <use x="222.65625" xlink:href="#DejaVuSans-50"/>
      </g>
     </g>
    </g>
    <g id="ytick_4">
     <g id="line2d_10">
      <g>
       <use style="stroke:#000000;stroke-width:0.8;" x="37.392188" xlink:href="#m30bc7a5290" y="67.280762"/>
      </g>
     </g>
     <g id="text_11">
      <!-- 0.003 -->
      <g transform="translate(16.078125 69.180372)scale(0.05 -0.05)">
       <defs>
        <path d="M 40.578125 39.3125 
Q 47.65625 37.796875 51.625 33 
Q 55.609375 28.21875 55.609375 21.1875 
Q 55.609375 10.40625 48.1875 4.484375 
Q 40.765625 -1.421875 27.09375 -1.421875 
Q 22.515625 -1.421875 17.65625 -0.515625 
Q 12.796875 0.390625 7.625 2.203125 
L 7.625 11.71875 
Q 11.71875 9.328125 16.59375 8.109375 
Q 21.484375 6.890625 26.8125 6.890625 
Q 36.078125 6.890625 40.9375 10.546875 
Q 45.796875 14.203125 45.796875 21.1875 
Q 45.796875 27.640625 41.28125 31.265625 
Q 36.765625 34.90625 28.71875 34.90625 
L 20.21875 34.90625 
L 20.21875 43.015625 
L 29.109375 43.015625 
Q 36.375 43.015625 40.234375 45.921875 
Q 44.09375 48.828125 44.09375 54.296875 
Q 44.09375 59.90625 40.109375 62.90625 
Q 36.140625 65.921875 28.71875 65.921875 
Q 24.65625 65.921875 20.015625 65.03125 
Q 15.375 64.15625 9.8125 62.3125 
L 9.8125 71.09375 
Q 15.4375 72.65625 20.34375 73.4375 
Q 25.25 74.21875 29.59375 74.21875 
Q 40.828125 74.21875 47.359375 69.109375 
Q 53.90625 64.015625 53.90625 55.328125 
Q 53.90625 49.265625 50.4375 45.09375 
Q 46.96875 40.921875 40.578125 39.3125 
z
" id="DejaVuSans-51"/>
       </defs>
       <use xlink:href="#DejaVuSans-48"/>
       <use x="63.623047" xlink:href="#DejaVuSans-46"/>
       <use x="95.410156" xlink:href="#DejaVuSans-48"/>
       <use x="159.033203" xlink:href="#DejaVuSans-48"/>
       <use x="222.65625" xlink:href="#DejaVuSans-51"/>
      </g>
     </g>
    </g>
    <g id="ytick_5">
     <g id="line2d_11">
      <g>
       <use style="stroke:#000000;stroke-width:0.8;" x="37.392188" xlink:href="#m30bc7a5290" y="51.067683"/>
      </g>
     </g>
     <g id="text_12">
      <!-- 0.004 -->
      <g transform="translate(16.078125 52.967293)scale(0.05 -0.05)">
       <use xlink:href="#DejaVuSans-48"/>
       <use x="63.623047" xlink:href="#DejaVuSans-46"/>
       <use x="95.410156" xlink:href="#DejaVuSans-48"/>
       <use x="159.033203" xlink:href="#DejaVuSans-48"/>
       <use x="222.65625" xlink:href="#DejaVuSans-52"/>
      </g>
     </g>
    </g>
    <g id="ytick_6">
     <g id="line2d_12">
      <g>
       <use style="stroke:#000000;stroke-width:0.8;" x="37.392188" xlink:href="#m30bc7a5290" y="34.854604"/>
      </g>
     </g>
     <g id="text_13">
      <!-- 0.005 -->
      <g transform="translate(16.078125 36.754213)scale(0.05 -0.05)">
       <defs>
        <path d="M 10.796875 72.90625 
L 49.515625 72.90625 
L 49.515625 64.59375 
L 19.828125 64.59375 
L 19.828125 46.734375 
Q 21.96875 47.46875 24.109375 47.828125 
Q 26.265625 48.1875 28.421875 48.1875 
Q 40.625 48.1875 47.75 41.5 
Q 54.890625 34.8125 54.890625 23.390625 
Q 54.890625 11.625 47.5625 5.09375 
Q 40.234375 -1.421875 26.90625 -1.421875 
Q 22.3125 -1.421875 17.546875 -0.640625 
Q 12.796875 0.140625 7.71875 1.703125 
L 7.71875 11.625 
Q 12.109375 9.234375 16.796875 8.0625 
Q 21.484375 6.890625 26.703125 6.890625 
Q 35.15625 6.890625 40.078125 11.328125 
Q 45.015625 15.765625 45.015625 23.390625 
Q 45.015625 31 40.078125 35.4375 
Q 35.15625 39.890625 26.703125 39.890625 
Q 22.75 39.890625 18.8125 39.015625 
Q 14.890625 38.140625 10.796875 36.28125 
z
" id="DejaVuSans-53"/>
       </defs>
       <use xlink:href="#DejaVuSans-48"/>
       <use x="63.623047" xlink:href="#DejaVuSans-46"/>
       <use x="95.410156" xlink:href="#DejaVuSans-48"/>
       <use x="159.033203" xlink:href="#DejaVuSans-48"/>
       <use x="222.65625" xlink:href="#DejaVuSans-53"/>
      </g>
     </g>
    </g>
    <g id="ytick_7">
     <g id="line2d_13">
      <g>
       <use style="stroke:#000000;stroke-width:0.8;" x="37.392188" xlink:href="#m30bc7a5290" y="18.641525"/>
      </g>
     </g>
     <g id="text_14">
      <!-- 0.006 -->
      <g transform="translate(16.078125 20.541134)scale(0.05 -0.05)">
       <use xlink:href="#DejaVuSans-48"/>
       <use x="63.623047" xlink:href="#DejaVuSans-46"/>
       <use x="95.410156" xlink:href="#DejaVuSans-48"/>
       <use x="159.033203" xlink:href="#DejaVuSans-48"/>
       <use x="222.65625" xlink:href="#DejaVuSans-54"/>
      </g>
     </g>
    </g>
    <g id="text_15">
     <!-- Density -->
     <g transform="translate(10.999219 72.280312)rotate(-90)scale(0.05 -0.05)">
      <defs>
       <path d="M 51.125 52.984375 
L 51.125 39.703125 
Q 45.515625 42.046875 40.28125 43.21875 
Q 35.0625 44.390625 30.421875 44.390625 
Q 25.4375 44.390625 23.015625 43.140625 
Q 20.609375 41.890625 20.609375 39.3125 
Q 20.609375 37.203125 22.4375 36.078125 
Q 24.265625 34.96875 29 34.421875 
L 32.078125 33.984375 
Q 45.515625 32.28125 50.140625 28.375 
Q 54.78125 24.46875 54.78125 16.109375 
Q 54.78125 7.375 48.328125 2.96875 
Q 41.890625 -1.421875 29.109375 -1.421875 
Q 23.6875 -1.421875 17.890625 -0.5625 
Q 12.109375 0.296875 6 2 
L 6 15.28125 
Q 11.234375 12.75 16.71875 11.46875 
Q 22.21875 10.203125 27.875 10.203125 
Q 33.015625 10.203125 35.59375 11.609375 
Q 38.1875 13.03125 38.1875 15.828125 
Q 38.1875 18.171875 36.40625 19.3125 
Q 34.625 20.453125 29.296875 21.09375 
L 26.21875 21.484375 
Q 14.546875 22.953125 9.859375 26.90625 
Q 5.171875 30.859375 5.171875 38.921875 
Q 5.171875 47.609375 11.125 51.796875 
Q 17.09375 56 29.390625 56 
Q 34.234375 56 39.546875 55.265625 
Q 44.875 54.546875 51.125 52.984375 
z
" id="DejaVuSans-Bold-115"/>
       <path d="M 8.40625 54.6875 
L 25.875 54.6875 
L 25.875 0 
L 8.40625 0 
z
M 8.40625 75.984375 
L 25.875 75.984375 
L 25.875 61.71875 
L 8.40625 61.71875 
z
" id="DejaVuSans-Bold-105"/>
       <path d="M 1.21875 54.6875 
L 18.703125 54.6875 
L 33.40625 17.578125 
L 45.90625 54.6875 
L 63.375 54.6875 
L 40.375 -5.171875 
Q 36.921875 -14.3125 32.296875 -17.9375 
Q 27.6875 -21.578125 20.125 -21.578125 
L 10.015625 -21.578125 
L 10.015625 -10.109375 
L 15.484375 -10.109375 
Q 19.921875 -10.109375 21.9375 -8.6875 
Q 23.96875 -7.28125 25.09375 -3.609375 
L 25.59375 -2.09375 
z
" id="DejaVuSans-Bold-121"/>
      </defs>
      <use xlink:href="#DejaVuSans-Bold-68"/>
      <use x="83.007812" xlink:href="#DejaVuSans-Bold-101"/>
      <use x="150.830078" xlink:href="#DejaVuSans-Bold-110"/>
      <use x="222.021484" xlink:href="#DejaVuSans-Bold-115"/>
      <use x="281.542969" xlink:href="#DejaVuSans-Bold-105"/>
      <use x="315.820312" xlink:href="#DejaVuSans-Bold-116"/>
      <use x="363.623047" xlink:href="#DejaVuSans-Bold-121"/>
     </g>
    </g>
   </g>
   <g id="patch_3">
    <path d="M 37.392188 115.92 
L 37.392188 7.2 
" style="fill:none;stroke:#000000;stroke-linecap:square;stroke-linejoin:miter;stroke-width:0.5;"/>
   </g>
   <g id="patch_4">
    <path d="M 148.992188 115.92 
L 148.992188 7.2 
" style="fill:none;stroke:#000000;stroke-linecap:square;stroke-linejoin:miter;stroke-width:0.5;"/>
   </g>
   <g id="patch_5">
    <path d="M 37.392188 115.92 
L 148.992188 115.92 
" style="fill:none;stroke:#000000;stroke-linecap:square;stroke-linejoin:miter;stroke-width:0.5;"/>
   </g>
   <g id="patch_6">
    <path d="M 37.392188 7.2 
L 148.992188 7.2 
" style="fill:none;stroke:#000000;stroke-linecap:square;stroke-linejoin:miter;stroke-width:0.5;"/>
   </g>
   <g id="legend_1">
    <g id="patch_7">
     <path d="M 40.892188 25.878125 
L 71.310938 25.878125 
Q 72.310938 25.878125 72.310938 24.878125 
L 72.310938 10.7 
Q 72.310938 9.7 71.310938 9.7 
L 40.892188 9.7 
Q 39.892188 9.7 39.892188 10.7 
L 39.892188 24.878125 
Q 39.892188 25.878125 40.892188 25.878125 
z
" style="fill:#ffffff;opacity:0.8;stroke:#000000;stroke-linejoin:miter;stroke-width:0.5;"/>
    </g>
    <g id="patch_8">
     <path d="M 41.892188 15.499219 
L 51.892188 15.499219 
L 51.892188 11.999219 
L 41.892188 11.999219 
z
" style="fill:#c4c4c4;fill-opacity:0.25;stroke:#000000;stroke-linejoin:miter;stroke-width:0.5;"/>
    </g>
    <g id="text_16">
     <!-- All -->
     <g transform="translate(55.892188 15.499219)scale(0.05 -0.05)">
      <defs>
       <path d="M 34.1875 63.1875 
L 20.796875 26.90625 
L 47.609375 26.90625 
z
M 28.609375 72.90625 
L 39.796875 72.90625 
L 67.578125 0 
L 57.328125 0 
L 50.6875 18.703125 
L 17.828125 18.703125 
L 11.1875 0 
L 0.78125 0 
z
" id="DejaVuSans-65"/>
       <path d="M 9.421875 75.984375 
L 18.40625 75.984375 
L 18.40625 0 
L 9.421875 0 
z
" id="DejaVuSans-108"/>
      </defs>
      <use xlink:href="#DejaVuSans-65"/>
      <use x="68.408203" xlink:href="#DejaVuSans-108"/>
      <use x="96.191406" xlink:href="#DejaVuSans-108"/>
     </g>
    </g>
    <g id="patch_9">
     <path d="M 41.892188 22.838281 
L 51.892188 22.838281 
L 51.892188 19.338281 
L 41.892188 19.338281 
z
" style="fill:#8000ff;fill-opacity:0.25;stroke:#8000ff;stroke-linejoin:miter;stroke-width:0.5;"/>
    </g>
    <g id="text_17">
     <!-- 0.PRE -->
     <g transform="translate(55.892188 22.838281)scale(0.05 -0.05)">
      <defs>
       <path d="M 19.671875 64.796875 
L 19.671875 37.40625 
L 32.078125 37.40625 
Q 38.96875 37.40625 42.71875 40.96875 
Q 46.484375 44.53125 46.484375 51.125 
Q 46.484375 57.671875 42.71875 61.234375 
Q 38.96875 64.796875 32.078125 64.796875 
z
M 9.8125 72.90625 
L 32.078125 72.90625 
Q 44.34375 72.90625 50.609375 67.359375 
Q 56.890625 61.8125 56.890625 51.125 
Q 56.890625 40.328125 50.609375 34.8125 
Q 44.34375 29.296875 32.078125 29.296875 
L 19.671875 29.296875 
L 19.671875 0 
L 9.8125 0 
z
" id="DejaVuSans-80"/>
       <path d="M 44.390625 34.1875 
Q 47.5625 33.109375 50.5625 29.59375 
Q 53.5625 26.078125 56.59375 19.921875 
L 66.609375 0 
L 56 0 
L 46.6875 18.703125 
Q 43.0625 26.03125 39.671875 28.421875 
Q 36.28125 30.8125 30.421875 30.8125 
L 19.671875 30.8125 
L 19.671875 0 
L 9.8125 0 
L 9.8125 72.90625 
L 32.078125 72.90625 
Q 44.578125 72.90625 50.734375 67.671875 
Q 56.890625 62.453125 56.890625 51.90625 
Q 56.890625 45.015625 53.6875 40.46875 
Q 50.484375 35.9375 44.390625 34.1875 
z
M 19.671875 64.796875 
L 19.671875 38.921875 
L 32.078125 38.921875 
Q 39.203125 38.921875 42.84375 42.21875 
Q 46.484375 45.515625 46.484375 51.90625 
Q 46.484375 58.296875 42.84375 61.546875 
Q 39.203125 64.796875 32.078125 64.796875 
z
" id="DejaVuSans-82"/>
       <path d="M 9.8125 72.90625 
L 55.90625 72.90625 
L 55.90625 64.59375 
L 19.671875 64.59375 
L 19.671875 43.015625 
L 54.390625 43.015625 
L 54.390625 34.71875 
L 19.671875 34.71875 
L 19.671875 8.296875 
L 56.78125 8.296875 
L 56.78125 0 
L 9.8125 0 
z
" id="DejaVuSans-69"/>
      </defs>
      <use xlink:href="#DejaVuSans-48"/>
      <use x="63.623047" xlink:href="#DejaVuSans-46"/>
      <use x="95.410156" xlink:href="#DejaVuSans-80"/>
      <use x="155.712891" xlink:href="#DejaVuSans-82"/>
      <use x="225.195312" xlink:href="#DejaVuSans-69"/>
     </g>
    </g>
   </g>
  </g>
 </g>
 <defs>
  <clipPath id="p68154e952e">
   <rect height="108.72" width="111.6" x="37.392188" y="7.2"/>
  </clipPath>
 </defs>
</svg>
