<?xml version="1.0" encoding="utf-8" standalone="no"?>
<!DOCTYPE svg PUBLIC "-//W3C//DTD SVG 1.1//EN"
  "http://www.w3.org/Graphics/SVG/1.1/DTD/svg11.dtd">
<!-- Created with matplotlib (https://matplotlib.org/) -->
<svg height="143.798125pt" version="1.1" viewBox="0 0 157.782812 143.798125" width="157.782812pt" xmlns="http://www.w3.org/2000/svg" xmlns:xlink="http://www.w3.org/1999/xlink">
 <metadata>
  <rdf:RDF xmlns:cc="http://creativecommons.org/ns#" xmlns:dc="http://purl.org/dc/elements/1.1/" xmlns:rdf="http://www.w3.org/1999/02/22-rdf-syntax-ns#">
   <cc:Work>
    <dc:type rdf:resource="http://purl.org/dc/dcmitype/StillImage"/>
    <dc:date>2021-08-04T17:16:31.917374</dc:date>
    <dc:format>image/svg+xml</dc:format>
    <dc:creator>
     <cc:Agent>
      <dc:title>Matplotlib v3.3.2, https://matplotlib.org/</dc:title>
     </cc:Agent>
    </dc:creator>
   </cc:Work>
  </rdf:RDF>
 </metadata>
 <defs>
  <style type="text/css">*{stroke-linecap:butt;stroke-linejoin:round;}</style>
 </defs>
 <g id="figure_1">
  <g id="patch_1">
   <path d="M 0 143.798125 
L 157.782812 143.798125 
L 157.782812 0 
L 0 0 
z
" style="fill:none;"/>
  </g>
  <g id="axes_1">
   <g id="patch_2">
    <path d="M 37.392188 115.92 
L 148.992188 115.92 
L 148.992188 7.2 
L 37.392188 7.2 
z
" style="fill:#ffffff;"/>
   </g>
   <g id="PolyCollection_1">
    <defs>
     <path d="M -7.104722 -27.878166 
L -7.104722 -27.878125 
L -6.458691 -27.878125 
L -5.812661 -27.878125 
L -5.16663 -27.878125 
L -4.520599 -27.878125 
L -3.874569 -27.878125 
L -3.228538 -27.878125 
L -2.582507 -27.878125 
L -1.936477 -27.878125 
L -1.290446 -27.878125 
L -0.644415 -27.878125 
L 0.001616 -27.878125 
L 0.647646 -27.878125 
L 1.293677 -27.878125 
L 1.939708 -27.878125 
L 2.585738 -27.878125 
L 3.231769 -27.878125 
L 3.8778 -27.878125 
L 4.52383 -27.878125 
L 5.169861 -27.878125 
L 5.815892 -27.878125 
L 6.461922 -27.878125 
L 7.107953 -27.878125 
L 7.753984 -27.878125 
L 8.400015 -27.878125 
L 9.046045 -27.878125 
L 9.692076 -27.878125 
L 10.338107 -27.878125 
L 10.984137 -27.878125 
L 11.630168 -27.878125 
L 12.276199 -27.878125 
L 12.922229 -27.878125 
L 13.56826 -27.878125 
L 14.214291 -27.878125 
L 14.860321 -27.878125 
L 15.506352 -27.878125 
L 16.152383 -27.878125 
L 16.798413 -27.878125 
L 17.444444 -27.878125 
L 18.090475 -27.878125 
L 18.736506 -27.878125 
L 19.382536 -27.878125 
L 20.028567 -27.878125 
L 20.674598 -27.878125 
L 21.320628 -27.878125 
L 21.966659 -27.878125 
L 22.61269 -27.878125 
L 23.25872 -27.878125 
L 23.904751 -27.878125 
L 24.550782 -27.878125 
L 25.196812 -27.878125 
L 25.842843 -27.878125 
L 26.488874 -27.878125 
L 27.134905 -27.878125 
L 27.780935 -27.878125 
L 28.426966 -27.878125 
L 29.072997 -27.878125 
L 29.719027 -27.878125 
L 30.365058 -27.878125 
L 31.011089 -27.878125 
L 31.657119 -27.878125 
L 32.30315 -27.878125 
L 32.949181 -27.878125 
L 33.595211 -27.878125 
L 34.241242 -27.878125 
L 34.887273 -27.878125 
L 35.533303 -27.878125 
L 36.179334 -27.878125 
L 36.825365 -27.878125 
L 37.471396 -27.878125 
L 38.117426 -27.878125 
L 38.763457 -27.878125 
L 39.409488 -27.878125 
L 40.055518 -27.878125 
L 40.701549 -27.878125 
L 41.34758 -27.878125 
L 41.99361 -27.878125 
L 42.639641 -27.878125 
L 43.285672 -27.878125 
L 43.931702 -27.878125 
L 44.577733 -27.878125 
L 45.223764 -27.878125 
L 45.869794 -27.878125 
L 46.515825 -27.878125 
L 47.161856 -27.878125 
L 47.807887 -27.878125 
L 48.453917 -27.878125 
L 49.099948 -27.878125 
L 49.745979 -27.878125 
L 50.392009 -27.878125 
L 51.03804 -27.878125 
L 51.684071 -27.878125 
L 52.330101 -27.878125 
L 52.976132 -27.878125 
L 53.622163 -27.878125 
L 54.268193 -27.878125 
L 54.914224 -27.878125 
L 55.560255 -27.878125 
L 56.206286 -27.878125 
L 56.852316 -27.878125 
L 57.498347 -27.878125 
L 58.144378 -27.878125 
L 58.790408 -27.878125 
L 59.436439 -27.878125 
L 60.08247 -27.878125 
L 60.7285 -27.878125 
L 61.374531 -27.878125 
L 62.020562 -27.878125 
L 62.666592 -27.878125 
L 63.312623 -27.878125 
L 63.958654 -27.878125 
L 64.604684 -27.878125 
L 65.250715 -27.878125 
L 65.896746 -27.878125 
L 66.542777 -27.878125 
L 67.188807 -27.878125 
L 67.834838 -27.878125 
L 68.480869 -27.878125 
L 69.126899 -27.878125 
L 69.77293 -27.878125 
L 70.418961 -27.878125 
L 71.064991 -27.878125 
L 71.711022 -27.878125 
L 72.357053 -27.878125 
L 73.003083 -27.878125 
L 73.649114 -27.878125 
L 74.295145 -27.878125 
L 74.941175 -27.878125 
L 75.587206 -27.878125 
L 76.233237 -27.878125 
L 76.879268 -27.878125 
L 77.525298 -27.878125 
L 78.171329 -27.878125 
L 78.81736 -27.878125 
L 79.46339 -27.878125 
L 80.109421 -27.878125 
L 80.755452 -27.878125 
L 81.401482 -27.878125 
L 82.047513 -27.878125 
L 82.693544 -27.878125 
L 83.339574 -27.878125 
L 83.985605 -27.878125 
L 84.631636 -27.878125 
L 85.277667 -27.878125 
L 85.923697 -27.878125 
L 86.569728 -27.878125 
L 87.215759 -27.878125 
L 87.861789 -27.878125 
L 88.50782 -27.878125 
L 89.153851 -27.878125 
L 89.799881 -27.878125 
L 90.445912 -27.878125 
L 91.091943 -27.878125 
L 91.737973 -27.878125 
L 92.384004 -27.878125 
L 93.030035 -27.878125 
L 93.676065 -27.878125 
L 94.322096 -27.878125 
L 94.968127 -27.878125 
L 95.614158 -27.878125 
L 96.260188 -27.878125 
L 96.906219 -27.878125 
L 97.55225 -27.878125 
L 98.19828 -27.878125 
L 98.844311 -27.878125 
L 99.490342 -27.878125 
L 100.136372 -27.878125 
L 100.782403 -27.878125 
L 101.428434 -27.878125 
L 102.074464 -27.878125 
L 102.720495 -27.878125 
L 103.366526 -27.878125 
L 104.012556 -27.878125 
L 104.658587 -27.878125 
L 105.304618 -27.878125 
L 105.950649 -27.878125 
L 106.596679 -27.878125 
L 107.24271 -27.878125 
L 107.888741 -27.878125 
L 108.534771 -27.878125 
L 109.180802 -27.878125 
L 109.826833 -27.878125 
L 110.472863 -27.878125 
L 111.118894 -27.878125 
L 111.764925 -27.878125 
L 112.410955 -27.878125 
L 113.056986 -27.878125 
L 113.703017 -27.878125 
L 114.349048 -27.878125 
L 114.995078 -27.878125 
L 115.641109 -27.878125 
L 116.28714 -27.878125 
L 116.93317 -27.878125 
L 117.579201 -27.878125 
L 118.225232 -27.878125 
L 118.871262 -27.878125 
L 119.517293 -27.878125 
L 120.163324 -27.878125 
L 120.809354 -27.878125 
L 121.455385 -27.878125 
L 121.455385 -27.878497 
L 121.455385 -27.878497 
L 120.809354 -27.879077 
L 120.163324 -27.880409 
L 119.517293 -27.883278 
L 118.871262 -27.889102 
L 118.225232 -27.90029 
L 117.579201 -27.92072 
L 116.93317 -27.956315 
L 116.28714 -28.015658 
L 115.641109 -28.110469 
L 114.995078 -28.255638 
L 114.349048 -28.468408 
L 113.703017 -28.766318 
L 113.056986 -29.163836 
L 112.410955 -29.668059 
L 111.764925 -30.274564 
L 111.118894 -30.96481 
L 110.472863 -31.706435 
L 109.826833 -32.456993 
L 109.180802 -33.170487 
L 108.534771 -33.804877 
L 107.888741 -34.328324 
L 107.24271 -34.72245 
L 106.596679 -34.982223 
L 105.950649 -35.113493 
L 105.304618 -35.129862 
L 104.658587 -35.050314 
L 104.012556 -34.897928 
L 103.366526 -34.698959 
L 102.720495 -34.48112 
L 102.074464 -34.270391 
L 101.428434 -34.086765 
L 100.782403 -33.940394 
L 100.136372 -33.829929 
L 99.490342 -33.744156 
L 98.844311 -33.666661 
L 98.19828 -33.581827 
L 97.55225 -33.479841 
L 96.906219 -33.358915 
L 96.260188 -33.224229 
L 95.614158 -33.084571 
L 94.968127 -32.948349 
L 94.322096 -32.820522 
L 93.676065 -32.701252 
L 93.030035 -32.586326 
L 92.384004 -32.468886 
L 91.737973 -32.34188 
L 91.091943 -32.200537 
L 90.445912 -32.044228 
L 89.799881 -31.877107 
L 89.153851 -31.707282 
L 88.50782 -31.544698 
L 87.861789 -31.398414 
L 87.215759 -31.274229 
L 86.569728 -31.173476 
L 85.923697 -31.093338 
L 85.277667 -31.028365 
L 84.631636 -30.972399 
L 83.985605 -30.920084 
L 83.339574 -30.867522 
L 82.693544 -30.812181 
L 82.047513 -30.752499 
L 81.401482 -30.687526 
L 80.755452 -30.616732 
L 80.109421 -30.539871 
L 79.46339 -30.456836 
L 78.81736 -30.367568 
L 78.171329 -30.272115 
L 77.525298 -30.170836 
L 76.879268 -30.064559 
L 76.233237 -29.954525 
L 75.587206 -29.842098 
L 74.941175 -29.728442 
L 74.295145 -29.614417 
L 73.649114 -29.500818 
L 73.003083 -29.388772 
L 72.357053 -29.280035 
L 71.711022 -29.176935 
L 71.064991 -29.081945 
L 70.418961 -28.99708 
L 69.77293 -28.923362 
L 69.126899 -28.860552 
L 68.480869 -28.807224 
L 67.834838 -28.761094 
L 67.188807 -28.719489 
L 66.542777 -28.679795 
L 65.896746 -28.639837 
L 65.250715 -28.598178 
L 64.604684 -28.554405 
L 63.958654 -28.509311 
L 63.312623 -28.464855 
L 62.666592 -28.42373 
L 62.020562 -28.38856 
L 61.374531 -28.360971 
L 60.7285 -28.340978 
L 60.08247 -28.326973 
L 59.436439 -28.316346 
L 58.790408 -28.306392 
L 58.144378 -28.295058 
L 57.498347 -28.281234 
L 56.852316 -28.264632 
L 56.206286 -28.24547 
L 55.560255 -28.224244 
L 54.914224 -28.201638 
L 54.268193 -28.178503 
L 53.622163 -28.155769 
L 52.976132 -28.134246 
L 52.330101 -28.114438 
L 51.684071 -28.096467 
L 51.03804 -28.08018 
L 50.392009 -28.065348 
L 49.745979 -28.051824 
L 49.099948 -28.039587 
L 48.453917 -28.028649 
L 47.807887 -28.018937 
L 47.161856 -28.010227 
L 46.515825 -28.002176 
L 45.869794 -27.994417 
L 45.223764 -27.986669 
L 44.577733 -27.978805 
L 43.931702 -27.970873 
L 43.285672 -27.963073 
L 42.639641 -27.955706 
L 41.99361 -27.9491 
L 41.34758 -27.943513 
L 40.701549 -27.939045 
L 40.055518 -27.935602 
L 39.409488 -27.932912 
L 38.763457 -27.930608 
L 38.117426 -27.928332 
L 37.471396 -27.925816 
L 36.825365 -27.922922 
L 36.179334 -27.91964 
L 35.533303 -27.916078 
L 34.887273 -27.912436 
L 34.241242 -27.908984 
L 33.595211 -27.906015 
L 32.949181 -27.903793 
L 32.30315 -27.902491 
L 31.657119 -27.902157 
L 31.011089 -27.902712 
L 30.365058 -27.903988 
L 29.719027 -27.905791 
L 29.072997 -27.907942 
L 28.426966 -27.910293 
L 27.780935 -27.912691 
L 27.134905 -27.91492 
L 26.488874 -27.916667 
L 25.842843 -27.917545 
L 25.196812 -27.917195 
L 24.550782 -27.915413 
L 23.904751 -27.912268 
L 23.25872 -27.908112 
L 22.61269 -27.90351 
L 21.966659 -27.899069 
L 21.320628 -27.895277 
L 20.674598 -27.892375 
L 20.028567 -27.890334 
L 19.382536 -27.888937 
L 18.736506 -27.887905 
L 18.090475 -27.887046 
L 17.444444 -27.886322 
L 16.798413 -27.885834 
L 16.152383 -27.885743 
L 15.506352 -27.886146 
L 14.860321 -27.887004 
L 14.214291 -27.88812 
L 13.56826 -27.8892 
L 12.922229 -27.889949 
L 12.276199 -27.89017 
L 11.630168 -27.889808 
L 10.984137 -27.888947 
L 10.338107 -27.887743 
L 9.692076 -27.886365 
L 9.046045 -27.884945 
L 8.400015 -27.883573 
L 7.753984 -27.882309 
L 7.107953 -27.881198 
L 6.461922 -27.880282 
L 5.815892 -27.879594 
L 5.169861 -27.879152 
L 4.52383 -27.878963 
L 3.8778 -27.879019 
L 3.231769 -27.879303 
L 2.585738 -27.879776 
L 1.939708 -27.880369 
L 1.293677 -27.880983 
L 0.647646 -27.881494 
L 0.001616 -27.881789 
L -0.644415 -27.881797 
L -1.290446 -27.881516 
L -1.936477 -27.881009 
L -2.582507 -27.880385 
L -3.228538 -27.879756 
L -3.874569 -27.87921 
L -4.520599 -27.87879 
L -5.16663 -27.8785 
L -5.812661 -27.87832 
L -6.458691 -27.878218 
L -7.104722 -27.878166 
z
" id="m0fea58c9d6" style="stroke:#000000;stroke-width:0.5;"/>
    </defs>
    <g clip-path="url(#p817fac7c77)">
     <use style="fill:#c4c4c4;fill-opacity:0.25;stroke:#000000;stroke-width:0.5;" x="0" xlink:href="#m0fea58c9d6" y="143.798125"/>
    </g>
   </g>
   <g id="PolyCollection_2">
    <defs>
     <path d="M 108.09109 -27.878617 
L 108.09109 -27.878125 
L 108.143756 -27.878125 
L 108.196421 -27.878125 
L 108.249087 -27.878125 
L 108.301753 -27.878125 
L 108.354418 -27.878125 
L 108.407084 -27.878125 
L 108.45975 -27.878125 
L 108.512415 -27.878125 
L 108.565081 -27.878125 
L 108.617747 -27.878125 
L 108.670413 -27.878125 
L 108.723078 -27.878125 
L 108.775744 -27.878125 
L 108.82841 -27.878125 
L 108.881075 -27.878125 
L 108.933741 -27.878125 
L 108.986407 -27.878125 
L 109.039072 -27.878125 
L 109.091738 -27.878125 
L 109.144404 -27.878125 
L 109.197069 -27.878125 
L 109.249735 -27.878125 
L 109.302401 -27.878125 
L 109.355066 -27.878125 
L 109.407732 -27.878125 
L 109.460398 -27.878125 
L 109.513064 -27.878125 
L 109.565729 -27.878125 
L 109.618395 -27.878125 
L 109.671061 -27.878125 
L 109.723726 -27.878125 
L 109.776392 -27.878125 
L 109.829058 -27.878125 
L 109.881723 -27.878125 
L 109.934389 -27.878125 
L 109.987055 -27.878125 
L 110.03972 -27.878125 
L 110.092386 -27.878125 
L 110.145052 -27.878125 
L 110.197718 -27.878125 
L 110.250383 -27.878125 
L 110.303049 -27.878125 
L 110.355715 -27.878125 
L 110.40838 -27.878125 
L 110.461046 -27.878125 
L 110.513712 -27.878125 
L 110.566377 -27.878125 
L 110.619043 -27.878125 
L 110.671709 -27.878125 
L 110.724374 -27.878125 
L 110.77704 -27.878125 
L 110.829706 -27.878125 
L 110.882371 -27.878125 
L 110.935037 -27.878125 
L 110.987703 -27.878125 
L 111.040369 -27.878125 
L 111.093034 -27.878125 
L 111.1457 -27.878125 
L 111.198366 -27.878125 
L 111.251031 -27.878125 
L 111.303697 -27.878125 
L 111.356363 -27.878125 
L 111.409028 -27.878125 
L 111.461694 -27.878125 
L 111.51436 -27.878125 
L 111.567025 -27.878125 
L 111.619691 -27.878125 
L 111.672357 -27.878125 
L 111.725022 -27.878125 
L 111.777688 -27.878125 
L 111.830354 -27.878125 
L 111.88302 -27.878125 
L 111.935685 -27.878125 
L 111.988351 -27.878125 
L 112.041017 -27.878125 
L 112.093682 -27.878125 
L 112.146348 -27.878125 
L 112.199014 -27.878125 
L 112.251679 -27.878125 
L 112.304345 -27.878125 
L 112.357011 -27.878125 
L 112.409676 -27.878125 
L 112.462342 -27.878125 
L 112.515008 -27.878125 
L 112.567673 -27.878125 
L 112.620339 -27.878125 
L 112.673005 -27.878125 
L 112.725671 -27.878125 
L 112.778336 -27.878125 
L 112.831002 -27.878125 
L 112.883668 -27.878125 
L 112.936333 -27.878125 
L 112.988999 -27.878125 
L 113.041665 -27.878125 
L 113.09433 -27.878125 
L 113.146996 -27.878125 
L 113.199662 -27.878125 
L 113.252327 -27.878125 
L 113.304993 -27.878125 
L 113.357659 -27.878125 
L 113.410324 -27.878125 
L 113.46299 -27.878125 
L 113.515656 -27.878125 
L 113.568322 -27.878125 
L 113.620987 -27.878125 
L 113.673653 -27.878125 
L 113.726319 -27.878125 
L 113.778984 -27.878125 
L 113.83165 -27.878125 
L 113.884316 -27.878125 
L 113.936981 -27.878125 
L 113.989647 -27.878125 
L 114.042313 -27.878125 
L 114.094978 -27.878125 
L 114.147644 -27.878125 
L 114.20031 -27.878125 
L 114.252975 -27.878125 
L 114.305641 -27.878125 
L 114.358307 -27.878125 
L 114.410973 -27.878125 
L 114.463638 -27.878125 
L 114.516304 -27.878125 
L 114.56897 -27.878125 
L 114.621635 -27.878125 
L 114.674301 -27.878125 
L 114.726967 -27.878125 
L 114.779632 -27.878125 
L 114.832298 -27.878125 
L 114.884964 -27.878125 
L 114.937629 -27.878125 
L 114.990295 -27.878125 
L 115.042961 -27.878125 
L 115.095626 -27.878125 
L 115.148292 -27.878125 
L 115.200958 -27.878125 
L 115.253624 -27.878125 
L 115.306289 -27.878125 
L 115.358955 -27.878125 
L 115.411621 -27.878125 
L 115.464286 -27.878125 
L 115.516952 -27.878125 
L 115.569618 -27.878125 
L 115.622283 -27.878125 
L 115.674949 -27.878125 
L 115.727615 -27.878125 
L 115.78028 -27.878125 
L 115.832946 -27.878125 
L 115.885612 -27.878125 
L 115.938278 -27.878125 
L 115.990943 -27.878125 
L 116.043609 -27.878125 
L 116.096275 -27.878125 
L 116.14894 -27.878125 
L 116.201606 -27.878125 
L 116.254272 -27.878125 
L 116.306937 -27.878125 
L 116.359603 -27.878125 
L 116.412269 -27.878125 
L 116.464934 -27.878125 
L 116.5176 -27.878125 
L 116.570266 -27.878125 
L 116.622931 -27.878125 
L 116.675597 -27.878125 
L 116.728263 -27.878125 
L 116.780929 -27.878125 
L 116.833594 -27.878125 
L 116.88626 -27.878125 
L 116.938926 -27.878125 
L 116.991591 -27.878125 
L 117.044257 -27.878125 
L 117.096923 -27.878125 
L 117.149588 -27.878125 
L 117.202254 -27.878125 
L 117.25492 -27.878125 
L 117.307585 -27.878125 
L 117.360251 -27.878125 
L 117.412917 -27.878125 
L 117.465582 -27.878125 
L 117.518248 -27.878125 
L 117.570914 -27.878125 
L 117.62358 -27.878125 
L 117.676245 -27.878125 
L 117.728911 -27.878125 
L 117.781577 -27.878125 
L 117.834242 -27.878125 
L 117.886908 -27.878125 
L 117.939574 -27.878125 
L 117.992239 -27.878125 
L 118.044905 -27.878125 
L 118.097571 -27.878125 
L 118.150236 -27.878125 
L 118.202902 -27.878125 
L 118.255568 -27.878125 
L 118.308233 -27.878125 
L 118.360899 -27.878125 
L 118.413565 -27.878125 
L 118.466231 -27.878125 
L 118.518896 -27.878125 
L 118.571562 -27.878125 
L 118.571562 -27.995801 
L 118.571562 -27.995801 
L 118.518896 -28.163673 
L 118.466231 -28.523363 
L 118.413565 -29.23717 
L 118.360899 -30.549455 
L 118.308233 -32.784999 
L 118.255568 -36.31508 
L 118.202902 -41.484015 
L 118.150236 -48.505577 
L 118.097571 -57.359083 
L 118.044905 -67.727261 
L 117.992239 -79.011048 
L 117.939574 -90.42918 
L 117.886908 -101.174752 
L 117.834242 -110.576323 
L 117.781577 -118.210743 
L 117.728911 -123.937571 
L 117.676245 -127.857018 
L 117.62358 -130.218816 
L 117.570914 -131.319526 
L 117.518248 -131.420982 
L 117.465582 -130.708373 
L 117.412917 -129.289725 
L 117.360251 -127.224827 
L 117.307585 -124.564938 
L 117.25492 -121.385884 
L 117.202254 -117.804244 
L 117.149588 -113.97492 
L 117.096923 -110.074696 
L 117.044257 -106.279006 
L 116.991591 -102.738688 
L 116.938926 -99.561525 
L 116.88626 -96.801112 
L 116.833594 -94.453815 
L 116.780929 -92.463504 
L 116.728263 -90.733157 
L 116.675597 -89.141744 
L 116.622931 -87.563724 
L 116.570266 -85.887497 
L 116.5176 -84.029308 
L 116.464934 -81.940827 
L 116.412269 -79.611083 
L 116.359603 -77.0649 
L 116.306937 -74.359224 
L 116.254272 -71.576761 
L 116.201606 -68.815243 
L 116.14894 -66.171985 
L 116.096275 -63.726384 
L 116.043609 -61.525347 
L 115.990943 -59.576392 
L 115.938278 -57.850589 
L 115.885612 -56.294365 
L 115.832946 -54.846931 
L 115.78028 -53.458889 
L 115.727615 -52.106923 
L 115.674949 -50.799726 
L 115.622283 -49.572356 
L 115.569618 -48.470348 
L 115.516952 -47.529641 
L 115.464286 -46.760695 
L 115.411621 -46.143433 
L 115.358955 -45.634368 
L 115.306289 -45.181643 
L 115.253624 -44.740696 
L 115.200958 -44.284154 
L 115.148292 -43.803358 
L 115.095626 -43.303104 
L 115.042961 -42.793766 
L 114.990295 -42.284914 
L 114.937629 -41.782454 
L 114.884964 -41.288728 
L 114.832298 -40.803716 
L 114.779632 -40.325819 
L 114.726967 -39.852136 
L 114.674301 -39.379108 
L 114.621635 -38.904056 
L 114.56897 -38.42699 
L 114.516304 -37.951265 
L 114.463638 -37.482084 
L 114.410973 -37.023397 
L 114.358307 -36.575184 
L 114.305641 -36.133247 
L 114.252975 -35.692191 
L 114.20031 -35.250058 
L 114.147644 -34.811669 
L 114.094978 -34.388249 
L 114.042313 -33.993045 
L 113.989647 -33.635229 
L 113.936981 -33.315501 
L 113.884316 -33.025947 
L 113.83165 -32.754261 
L 113.778984 -32.490072 
L 113.726319 -32.230136 
L 113.673653 -31.980008 
L 113.620987 -31.751736 
L 113.568322 -31.5589 
L 113.515656 -31.41109 
L 113.46299 -31.309696 
L 113.410324 -31.246184 
L 113.357659 -31.203304 
L 113.304993 -31.159037 
L 113.252327 -31.092237 
L 113.199662 -30.988183 
L 113.146996 -30.842048 
L 113.09433 -30.65908 
L 113.041665 -30.451723 
L 112.988999 -30.235209 
L 112.936333 -30.023499 
L 112.883668 -29.826787 
L 112.831002 -29.650834 
L 112.778336 -29.497613 
L 112.725671 -29.366642 
L 112.673005 -29.256475 
L 112.620339 -29.165983 
L 112.567673 -29.095124 
L 112.515008 -29.044973 
L 112.462342 -29.016971 
L 112.409676 -29.011666 
L 112.357011 -29.027443 
L 112.304345 -29.059784 
L 112.251679 -29.101437 
L 112.199014 -29.14352 
L 112.146348 -29.177299 
L 112.093682 -29.196071 
L 112.041017 -29.19653 
L 111.988351 -29.179111 
L 111.935685 -29.147177 
L 111.88302 -29.105373 
L 111.830354 -29.057875 
L 111.777688 -29.007264 
L 111.725022 -28.954425 
L 111.672357 -28.899297 
L 111.619691 -28.841908 
L 111.567025 -28.783079 
L 111.51436 -28.724488 
L 111.461694 -28.66825 
L 111.409028 -28.616356 
L 111.356363 -28.570258 
L 111.303697 -28.530635 
L 111.251031 -28.497215 
L 111.198366 -28.46861 
L 111.1457 -28.442301 
L 111.093034 -28.415032 
L 111.040369 -28.383735 
L 110.987703 -28.346768 
L 110.935037 -28.304935 
L 110.882371 -28.261692 
L 110.829706 -28.222248 
L 110.77704 -28.191752 
L 110.724374 -28.173265 
L 110.671709 -28.166358 
L 110.619043 -28.167012 
L 110.566377 -28.168939 
L 110.513712 -28.165847 
L 110.461046 -28.153769 
L 110.40838 -28.132514 
L 110.355715 -28.105692 
L 110.303049 -28.079361 
L 110.250383 -28.059884 
L 110.197718 -28.051796 
L 110.145052 -28.056444 
L 110.092386 -28.071772 
L 110.03972 -28.093249 
L 109.987055 -28.115521 
L 109.934389 -28.134119 
L 109.881723 -28.146575 
L 109.829058 -28.152557 
L 109.776392 -28.153101 
L 109.723726 -28.149462 
L 109.671061 -28.142193 
L 109.618395 -28.130905 
L 109.565729 -28.11471 
L 109.513064 -28.092999 
L 109.460398 -28.066103 
L 109.407732 -28.035508 
L 109.355066 -28.003584 
L 109.302401 -27.972991 
L 109.249735 -27.946048 
L 109.197069 -27.924296 
L 109.144404 -27.908382 
L 109.091738 -27.898202 
L 109.039072 -27.89319 
L 108.986407 -27.892577 
L 108.933741 -27.8955 
L 108.881075 -27.900975 
L 108.82841 -27.907806 
L 108.775744 -27.91458 
L 108.723078 -27.919831 
L 108.670413 -27.922352 
L 108.617747 -27.921533 
L 108.565081 -27.917537 
L 108.512415 -27.911223 
L 108.45975 -27.903833 
L 108.407084 -27.896593 
L 108.354418 -27.890396 
L 108.301753 -27.885665 
L 108.249087 -27.882411 
L 108.196421 -27.880378 
L 108.143756 -27.87922 
L 108.09109 -27.878617 
z
" id="mcdeb7cc190" style="stroke:#8000ff;stroke-width:0.5;"/>
    </defs>
    <g clip-path="url(#p817fac7c77)">
     <use style="fill:#8000ff;fill-opacity:0.25;stroke:#8000ff;stroke-width:0.5;" x="0" xlink:href="#mcdeb7cc190" y="143.798125"/>
    </g>
   </g>
   <g id="matplotlib.axis_1">
    <g id="xtick_1">
     <g id="line2d_1">
      <defs>
       <path d="M 0 0 
L 0 3.5 
" id="mb0ef7e3ff6" style="stroke:#000000;stroke-width:0.8;"/>
      </defs>
      <g>
       <use style="stroke:#000000;stroke-width:0.8;" x="37.392188" xlink:href="#mb0ef7e3ff6" y="115.92"/>
      </g>
     </g>
     <g id="text_1">
      <!-- −10000 -->
      <g transform="translate(27.344141 126.719219)scale(0.05 -0.05)">
       <defs>
        <path d="M 10.59375 35.5 
L 73.1875 35.5 
L 73.1875 27.203125 
L 10.59375 27.203125 
z
" id="DejaVuSans-8722"/>
        <path d="M 12.40625 8.296875 
L 28.515625 8.296875 
L 28.515625 63.921875 
L 10.984375 60.40625 
L 10.984375 69.390625 
L 28.421875 72.90625 
L 38.28125 72.90625 
L 38.28125 8.296875 
L 54.390625 8.296875 
L 54.390625 0 
L 12.40625 0 
z
" id="DejaVuSans-49"/>
        <path d="M 31.78125 66.40625 
Q 24.171875 66.40625 20.328125 58.90625 
Q 16.5 51.421875 16.5 36.375 
Q 16.5 21.390625 20.328125 13.890625 
Q 24.171875 6.390625 31.78125 6.390625 
Q 39.453125 6.390625 43.28125 13.890625 
Q 47.125 21.390625 47.125 36.375 
Q 47.125 51.421875 43.28125 58.90625 
Q 39.453125 66.40625 31.78125 66.40625 
z
M 31.78125 74.21875 
Q 44.046875 74.21875 50.515625 64.515625 
Q 56.984375 54.828125 56.984375 36.375 
Q 56.984375 17.96875 50.515625 8.265625 
Q 44.046875 -1.421875 31.78125 -1.421875 
Q 19.53125 -1.421875 13.0625 8.265625 
Q 6.59375 17.96875 6.59375 36.375 
Q 6.59375 54.828125 13.0625 64.515625 
Q 19.53125 74.21875 31.78125 74.21875 
z
" id="DejaVuSans-48"/>
       </defs>
       <use xlink:href="#DejaVuSans-8722"/>
       <use x="83.789062" xlink:href="#DejaVuSans-49"/>
       <use x="147.412109" xlink:href="#DejaVuSans-48"/>
       <use x="211.035156" xlink:href="#DejaVuSans-48"/>
       <use x="274.658203" xlink:href="#DejaVuSans-48"/>
       <use x="338.28125" xlink:href="#DejaVuSans-48"/>
      </g>
     </g>
    </g>
    <g id="xtick_2">
     <g id="line2d_2">
      <g>
       <use style="stroke:#000000;stroke-width:0.8;" x="59.712187" xlink:href="#mb0ef7e3ff6" y="115.92"/>
      </g>
     </g>
     <g id="text_2">
      <!-- −8000 -->
      <g transform="translate(51.254766 126.719219)scale(0.05 -0.05)">
       <defs>
        <path d="M 31.78125 34.625 
Q 24.75 34.625 20.71875 30.859375 
Q 16.703125 27.09375 16.703125 20.515625 
Q 16.703125 13.921875 20.71875 10.15625 
Q 24.75 6.390625 31.78125 6.390625 
Q 38.8125 6.390625 42.859375 10.171875 
Q 46.921875 13.96875 46.921875 20.515625 
Q 46.921875 27.09375 42.890625 30.859375 
Q 38.875 34.625 31.78125 34.625 
z
M 21.921875 38.8125 
Q 15.578125 40.375 12.03125 44.71875 
Q 8.5 49.078125 8.5 55.328125 
Q 8.5 64.0625 14.71875 69.140625 
Q 20.953125 74.21875 31.78125 74.21875 
Q 42.671875 74.21875 48.875 69.140625 
Q 55.078125 64.0625 55.078125 55.328125 
Q 55.078125 49.078125 51.53125 44.71875 
Q 48 40.375 41.703125 38.8125 
Q 48.828125 37.15625 52.796875 32.3125 
Q 56.78125 27.484375 56.78125 20.515625 
Q 56.78125 9.90625 50.3125 4.234375 
Q 43.84375 -1.421875 31.78125 -1.421875 
Q 19.734375 -1.421875 13.25 4.234375 
Q 6.78125 9.90625 6.78125 20.515625 
Q 6.78125 27.484375 10.78125 32.3125 
Q 14.796875 37.15625 21.921875 38.8125 
z
M 18.3125 54.390625 
Q 18.3125 48.734375 21.84375 45.5625 
Q 25.390625 42.390625 31.78125 42.390625 
Q 38.140625 42.390625 41.71875 45.5625 
Q 45.3125 48.734375 45.3125 54.390625 
Q 45.3125 60.0625 41.71875 63.234375 
Q 38.140625 66.40625 31.78125 66.40625 
Q 25.390625 66.40625 21.84375 63.234375 
Q 18.3125 60.0625 18.3125 54.390625 
z
" id="DejaVuSans-56"/>
       </defs>
       <use xlink:href="#DejaVuSans-8722"/>
       <use x="83.789062" xlink:href="#DejaVuSans-56"/>
       <use x="147.412109" xlink:href="#DejaVuSans-48"/>
       <use x="211.035156" xlink:href="#DejaVuSans-48"/>
       <use x="274.658203" xlink:href="#DejaVuSans-48"/>
      </g>
     </g>
    </g>
    <g id="xtick_3">
     <g id="line2d_3">
      <g>
       <use style="stroke:#000000;stroke-width:0.8;" x="82.032188" xlink:href="#mb0ef7e3ff6" y="115.92"/>
      </g>
     </g>
     <g id="text_3">
      <!-- −6000 -->
      <g transform="translate(73.574766 126.719219)scale(0.05 -0.05)">
       <defs>
        <path d="M 33.015625 40.375 
Q 26.375 40.375 22.484375 35.828125 
Q 18.609375 31.296875 18.609375 23.390625 
Q 18.609375 15.53125 22.484375 10.953125 
Q 26.375 6.390625 33.015625 6.390625 
Q 39.65625 6.390625 43.53125 10.953125 
Q 47.40625 15.53125 47.40625 23.390625 
Q 47.40625 31.296875 43.53125 35.828125 
Q 39.65625 40.375 33.015625 40.375 
z
M 52.59375 71.296875 
L 52.59375 62.3125 
Q 48.875 64.0625 45.09375 64.984375 
Q 41.3125 65.921875 37.59375 65.921875 
Q 27.828125 65.921875 22.671875 59.328125 
Q 17.53125 52.734375 16.796875 39.40625 
Q 19.671875 43.65625 24.015625 45.921875 
Q 28.375 48.1875 33.59375 48.1875 
Q 44.578125 48.1875 50.953125 41.515625 
Q 57.328125 34.859375 57.328125 23.390625 
Q 57.328125 12.15625 50.6875 5.359375 
Q 44.046875 -1.421875 33.015625 -1.421875 
Q 20.359375 -1.421875 13.671875 8.265625 
Q 6.984375 17.96875 6.984375 36.375 
Q 6.984375 53.65625 15.1875 63.9375 
Q 23.390625 74.21875 37.203125 74.21875 
Q 40.921875 74.21875 44.703125 73.484375 
Q 48.484375 72.75 52.59375 71.296875 
z
" id="DejaVuSans-54"/>
       </defs>
       <use xlink:href="#DejaVuSans-8722"/>
       <use x="83.789062" xlink:href="#DejaVuSans-54"/>
       <use x="147.412109" xlink:href="#DejaVuSans-48"/>
       <use x="211.035156" xlink:href="#DejaVuSans-48"/>
       <use x="274.658203" xlink:href="#DejaVuSans-48"/>
      </g>
     </g>
    </g>
    <g id="xtick_4">
     <g id="line2d_4">
      <g>
       <use style="stroke:#000000;stroke-width:0.8;" x="104.352187" xlink:href="#mb0ef7e3ff6" y="115.92"/>
      </g>
     </g>
     <g id="text_4">
      <!-- −4000 -->
      <g transform="translate(95.894766 126.719219)scale(0.05 -0.05)">
       <defs>
        <path d="M 37.796875 64.3125 
L 12.890625 25.390625 
L 37.796875 25.390625 
z
M 35.203125 72.90625 
L 47.609375 72.90625 
L 47.609375 25.390625 
L 58.015625 25.390625 
L 58.015625 17.1875 
L 47.609375 17.1875 
L 47.609375 0 
L 37.796875 0 
L 37.796875 17.1875 
L 4.890625 17.1875 
L 4.890625 26.703125 
z
" id="DejaVuSans-52"/>
       </defs>
       <use xlink:href="#DejaVuSans-8722"/>
       <use x="83.789062" xlink:href="#DejaVuSans-52"/>
       <use x="147.412109" xlink:href="#DejaVuSans-48"/>
       <use x="211.035156" xlink:href="#DejaVuSans-48"/>
       <use x="274.658203" xlink:href="#DejaVuSans-48"/>
      </g>
     </g>
    </g>
    <g id="xtick_5">
     <g id="line2d_5">
      <g>
       <use style="stroke:#000000;stroke-width:0.8;" x="126.672188" xlink:href="#mb0ef7e3ff6" y="115.92"/>
      </g>
     </g>
     <g id="text_5">
      <!-- −2000 -->
      <g transform="translate(118.214766 126.719219)scale(0.05 -0.05)">
       <defs>
        <path d="M 19.1875 8.296875 
L 53.609375 8.296875 
L 53.609375 0 
L 7.328125 0 
L 7.328125 8.296875 
Q 12.9375 14.109375 22.625 23.890625 
Q 32.328125 33.6875 34.8125 36.53125 
Q 39.546875 41.84375 41.421875 45.53125 
Q 43.3125 49.21875 43.3125 52.78125 
Q 43.3125 58.59375 39.234375 62.25 
Q 35.15625 65.921875 28.609375 65.921875 
Q 23.96875 65.921875 18.8125 64.3125 
Q 13.671875 62.703125 7.8125 59.421875 
L 7.8125 69.390625 
Q 13.765625 71.78125 18.9375 73 
Q 24.125 74.21875 28.421875 74.21875 
Q 39.75 74.21875 46.484375 68.546875 
Q 53.21875 62.890625 53.21875 53.421875 
Q 53.21875 48.921875 51.53125 44.890625 
Q 49.859375 40.875 45.40625 35.40625 
Q 44.1875 33.984375 37.640625 27.21875 
Q 31.109375 20.453125 19.1875 8.296875 
z
" id="DejaVuSans-50"/>
       </defs>
       <use xlink:href="#DejaVuSans-8722"/>
       <use x="83.789062" xlink:href="#DejaVuSans-50"/>
       <use x="147.412109" xlink:href="#DejaVuSans-48"/>
       <use x="211.035156" xlink:href="#DejaVuSans-48"/>
       <use x="274.658203" xlink:href="#DejaVuSans-48"/>
      </g>
     </g>
    </g>
    <g id="xtick_6">
     <g id="line2d_6">
      <g>
       <use style="stroke:#000000;stroke-width:0.8;" x="148.992188" xlink:href="#mb0ef7e3ff6" y="115.92"/>
      </g>
     </g>
     <g id="text_6">
      <!-- 0 -->
      <g transform="translate(147.401563 126.719219)scale(0.05 -0.05)">
       <use xlink:href="#DejaVuSans-48"/>
      </g>
     </g>
    </g>
    <g id="text_7">
     <!-- Calendar Date -->
     <g transform="translate(73.105078 135.558281)scale(0.05 -0.05)">
      <defs>
       <path d="M 67 4 
Q 61.8125 1.3125 56.203125 -0.046875 
Q 50.59375 -1.421875 44.484375 -1.421875 
Q 26.265625 -1.421875 15.625 8.765625 
Q 4.984375 18.953125 4.984375 36.375 
Q 4.984375 53.859375 15.625 64.03125 
Q 26.265625 74.21875 44.484375 74.21875 
Q 50.59375 74.21875 56.203125 72.84375 
Q 61.8125 71.484375 67 68.796875 
L 67 53.71875 
Q 61.765625 57.28125 56.6875 58.9375 
Q 51.609375 60.59375 46 60.59375 
Q 35.9375 60.59375 30.171875 54.140625 
Q 24.421875 47.703125 24.421875 36.375 
Q 24.421875 25.09375 30.171875 18.640625 
Q 35.9375 12.203125 46 12.203125 
Q 51.609375 12.203125 56.6875 13.859375 
Q 61.765625 15.53125 67 19.09375 
z
" id="DejaVuSans-Bold-67"/>
       <path d="M 32.90625 24.609375 
Q 27.4375 24.609375 24.671875 22.75 
Q 21.921875 20.90625 21.921875 17.28125 
Q 21.921875 13.96875 24.140625 12.078125 
Q 26.375 10.203125 30.328125 10.203125 
Q 35.25 10.203125 38.625 13.734375 
Q 42 17.28125 42 22.609375 
L 42 24.609375 
z
M 59.625 31.203125 
L 59.625 0 
L 42 0 
L 42 8.109375 
Q 38.484375 3.125 34.078125 0.84375 
Q 29.6875 -1.421875 23.390625 -1.421875 
Q 14.890625 -1.421875 9.59375 3.53125 
Q 4.296875 8.5 4.296875 16.40625 
Q 4.296875 26.03125 10.90625 30.515625 
Q 17.53125 35.015625 31.6875 35.015625 
L 42 35.015625 
L 42 36.375 
Q 42 40.53125 38.71875 42.453125 
Q 35.453125 44.390625 28.515625 44.390625 
Q 22.90625 44.390625 18.0625 43.265625 
Q 13.234375 42.140625 9.078125 39.890625 
L 9.078125 53.21875 
Q 14.703125 54.59375 20.359375 55.296875 
Q 26.03125 56 31.6875 56 
Q 46.484375 56 53.046875 50.171875 
Q 59.625 44.34375 59.625 31.203125 
z
" id="DejaVuSans-Bold-97"/>
       <path d="M 8.40625 75.984375 
L 25.875 75.984375 
L 25.875 0 
L 8.40625 0 
z
" id="DejaVuSans-Bold-108"/>
       <path d="M 62.984375 27.484375 
L 62.984375 22.515625 
L 22.125 22.515625 
Q 22.75 16.359375 26.5625 13.28125 
Q 30.375 10.203125 37.203125 10.203125 
Q 42.71875 10.203125 48.5 11.84375 
Q 54.296875 13.484375 60.40625 16.796875 
L 60.40625 3.328125 
Q 54.203125 0.984375 48 -0.21875 
Q 41.796875 -1.421875 35.59375 -1.421875 
Q 20.75 -1.421875 12.515625 6.125 
Q 4.296875 13.671875 4.296875 27.296875 
Q 4.296875 40.671875 12.375 48.328125 
Q 20.453125 56 34.625 56 
Q 47.515625 56 55.25 48.234375 
Q 62.984375 40.484375 62.984375 27.484375 
z
M 45.015625 33.296875 
Q 45.015625 38.28125 42.109375 41.328125 
Q 39.203125 44.390625 34.515625 44.390625 
Q 29.4375 44.390625 26.265625 41.53125 
Q 23.09375 38.671875 22.3125 33.296875 
z
" id="DejaVuSans-Bold-101"/>
       <path d="M 63.375 33.296875 
L 63.375 0 
L 45.796875 0 
L 45.796875 5.421875 
L 45.796875 25.484375 
Q 45.796875 32.5625 45.484375 35.25 
Q 45.171875 37.9375 44.390625 39.203125 
Q 43.359375 40.921875 41.59375 41.875 
Q 39.84375 42.828125 37.59375 42.828125 
Q 32.125 42.828125 29 38.59375 
Q 25.875 34.375 25.875 26.90625 
L 25.875 0 
L 8.40625 0 
L 8.40625 54.6875 
L 25.875 54.6875 
L 25.875 46.6875 
Q 29.828125 51.46875 34.265625 53.734375 
Q 38.71875 56 44.09375 56 
Q 53.5625 56 58.46875 50.1875 
Q 63.375 44.390625 63.375 33.296875 
z
" id="DejaVuSans-Bold-110"/>
       <path d="M 45.609375 46.6875 
L 45.609375 75.984375 
L 63.1875 75.984375 
L 63.1875 0 
L 45.609375 0 
L 45.609375 7.90625 
Q 42 3.078125 37.640625 0.828125 
Q 33.296875 -1.421875 27.59375 -1.421875 
Q 17.484375 -1.421875 10.984375 6.609375 
Q 4.5 14.65625 4.5 27.296875 
Q 4.5 39.9375 10.984375 47.96875 
Q 17.484375 56 27.59375 56 
Q 33.25 56 37.625 53.734375 
Q 42 51.46875 45.609375 46.6875 
z
M 34.078125 11.28125 
Q 39.703125 11.28125 42.65625 15.375 
Q 45.609375 19.484375 45.609375 27.296875 
Q 45.609375 35.109375 42.65625 39.203125 
Q 39.703125 43.3125 34.078125 43.3125 
Q 28.515625 43.3125 25.5625 39.203125 
Q 22.609375 35.109375 22.609375 27.296875 
Q 22.609375 19.484375 25.5625 15.375 
Q 28.515625 11.28125 34.078125 11.28125 
z
" id="DejaVuSans-Bold-100"/>
       <path d="M 49.03125 39.796875 
Q 46.734375 40.875 44.453125 41.375 
Q 42.1875 41.890625 39.890625 41.890625 
Q 33.15625 41.890625 29.515625 37.5625 
Q 25.875 33.25 25.875 25.203125 
L 25.875 0 
L 8.40625 0 
L 8.40625 54.6875 
L 25.875 54.6875 
L 25.875 45.703125 
Q 29.25 51.078125 33.609375 53.53125 
Q 37.984375 56 44.09375 56 
Q 44.96875 56 45.984375 55.921875 
Q 47.015625 55.859375 48.96875 55.609375 
z
" id="DejaVuSans-Bold-114"/>
       <path id="DejaVuSans-Bold-32"/>
       <path d="M 27.984375 58.6875 
L 27.984375 14.203125 
L 34.71875 14.203125 
Q 46.234375 14.203125 52.3125 19.921875 
Q 58.40625 25.640625 58.40625 36.53125 
Q 58.40625 47.359375 52.34375 53.015625 
Q 46.296875 58.6875 34.71875 58.6875 
z
M 9.1875 72.90625 
L 29 72.90625 
Q 45.609375 72.90625 53.734375 70.53125 
Q 61.859375 68.171875 67.671875 62.5 
Q 72.796875 57.5625 75.28125 51.109375 
Q 77.78125 44.671875 77.78125 36.53125 
Q 77.78125 28.265625 75.28125 21.796875 
Q 72.796875 15.328125 67.671875 10.40625 
Q 61.8125 4.734375 53.609375 2.359375 
Q 45.40625 0 29 0 
L 9.1875 0 
z
" id="DejaVuSans-Bold-68"/>
       <path d="M 27.484375 70.21875 
L 27.484375 54.6875 
L 45.515625 54.6875 
L 45.515625 42.1875 
L 27.484375 42.1875 
L 27.484375 19 
Q 27.484375 15.1875 29 13.84375 
Q 30.515625 12.5 35.015625 12.5 
L 44 12.5 
L 44 0 
L 29 0 
Q 18.65625 0 14.328125 4.3125 
Q 10.015625 8.640625 10.015625 19 
L 10.015625 42.1875 
L 1.3125 42.1875 
L 1.3125 54.6875 
L 10.015625 54.6875 
L 10.015625 70.21875 
z
" id="DejaVuSans-Bold-116"/>
      </defs>
      <use xlink:href="#DejaVuSans-Bold-67"/>
      <use x="73.388672" xlink:href="#DejaVuSans-Bold-97"/>
      <use x="140.869141" xlink:href="#DejaVuSans-Bold-108"/>
      <use x="175.146484" xlink:href="#DejaVuSans-Bold-101"/>
      <use x="242.96875" xlink:href="#DejaVuSans-Bold-110"/>
      <use x="314.160156" xlink:href="#DejaVuSans-Bold-100"/>
      <use x="385.742188" xlink:href="#DejaVuSans-Bold-97"/>
      <use x="453.222656" xlink:href="#DejaVuSans-Bold-114"/>
      <use x="502.539062" xlink:href="#DejaVuSans-Bold-32"/>
      <use x="537.353516" xlink:href="#DejaVuSans-Bold-68"/>
      <use x="620.361328" xlink:href="#DejaVuSans-Bold-97"/>
      <use x="687.841797" xlink:href="#DejaVuSans-Bold-116"/>
      <use x="735.644531" xlink:href="#DejaVuSans-Bold-101"/>
     </g>
    </g>
   </g>
   <g id="matplotlib.axis_2">
    <g id="ytick_1">
     <g id="line2d_7">
      <defs>
       <path d="M 0 0 
L -3.5 0 
" id="m57dfeb9012" style="stroke:#000000;stroke-width:0.8;"/>
      </defs>
      <g>
       <use style="stroke:#000000;stroke-width:0.8;" x="37.392188" xlink:href="#m57dfeb9012" y="115.92"/>
      </g>
     </g>
     <g id="text_8">
      <!-- 0.000 -->
      <g transform="translate(16.078125 117.819609)scale(0.05 -0.05)">
       <defs>
        <path d="M 10.6875 12.40625 
L 21 12.40625 
L 21 0 
L 10.6875 0 
z
" id="DejaVuSans-46"/>
       </defs>
       <use xlink:href="#DejaVuSans-48"/>
       <use x="63.623047" xlink:href="#DejaVuSans-46"/>
       <use x="95.410156" xlink:href="#DejaVuSans-48"/>
       <use x="159.033203" xlink:href="#DejaVuSans-48"/>
       <use x="222.65625" xlink:href="#DejaVuSans-48"/>
      </g>
     </g>
    </g>
    <g id="ytick_2">
     <g id="line2d_8">
      <g>
       <use style="stroke:#000000;stroke-width:0.8;" x="37.392188" xlink:href="#m57dfeb9012" y="99.030817"/>
      </g>
     </g>
     <g id="text_9">
      <!-- 0.001 -->
      <g transform="translate(16.078125 100.930426)scale(0.05 -0.05)">
       <use xlink:href="#DejaVuSans-48"/>
       <use x="63.623047" xlink:href="#DejaVuSans-46"/>
       <use x="95.410156" xlink:href="#DejaVuSans-48"/>
       <use x="159.033203" xlink:href="#DejaVuSans-48"/>
       <use x="222.65625" xlink:href="#DejaVuSans-49"/>
      </g>
     </g>
    </g>
    <g id="ytick_3">
     <g id="line2d_9">
      <g>
       <use style="stroke:#000000;stroke-width:0.8;" x="37.392188" xlink:href="#m57dfeb9012" y="82.141633"/>
      </g>
     </g>
     <g id="text_10">
      <!-- 0.002 -->
      <g transform="translate(16.078125 84.041243)scale(0.05 -0.05)">
       <use xlink:href="#DejaVuSans-48"/>
       <use x="63.623047" xlink:href="#DejaVuSans-46"/>
       <use x="95.410156" xlink:href="#DejaVuSans-48"/>
       <use x="159.033203" xlink:href="#DejaVuSans-48"/>
       <use x="222.65625" xlink:href="#DejaVuSans-50"/>
      </g>
     </g>
    </g>
    <g id="ytick_4">
     <g id="line2d_10">
      <g>
       <use style="stroke:#000000;stroke-width:0.8;" x="37.392188" xlink:href="#m57dfeb9012" y="65.25245"/>
      </g>
     </g>
     <g id="text_11">
      <!-- 0.003 -->
      <g transform="translate(16.078125 67.152059)scale(0.05 -0.05)">
       <defs>
        <path d="M 40.578125 39.3125 
Q 47.65625 37.796875 51.625 33 
Q 55.609375 28.21875 55.609375 21.1875 
Q 55.609375 10.40625 48.1875 4.484375 
Q 40.765625 -1.421875 27.09375 -1.421875 
Q 22.515625 -1.421875 17.65625 -0.515625 
Q 12.796875 0.390625 7.625 2.203125 
L 7.625 11.71875 
Q 11.71875 9.328125 16.59375 8.109375 
Q 21.484375 6.890625 26.8125 6.890625 
Q 36.078125 6.890625 40.9375 10.546875 
Q 45.796875 14.203125 45.796875 21.1875 
Q 45.796875 27.640625 41.28125 31.265625 
Q 36.765625 34.90625 28.71875 34.90625 
L 20.21875 34.90625 
L 20.21875 43.015625 
L 29.109375 43.015625 
Q 36.375 43.015625 40.234375 45.921875 
Q 44.09375 48.828125 44.09375 54.296875 
Q 44.09375 59.90625 40.109375 62.90625 
Q 36.140625 65.921875 28.71875 65.921875 
Q 24.65625 65.921875 20.015625 65.03125 
Q 15.375 64.15625 9.8125 62.3125 
L 9.8125 71.09375 
Q 15.4375 72.65625 20.34375 73.4375 
Q 25.25 74.21875 29.59375 74.21875 
Q 40.828125 74.21875 47.359375 69.109375 
Q 53.90625 64.015625 53.90625 55.328125 
Q 53.90625 49.265625 50.4375 45.09375 
Q 46.96875 40.921875 40.578125 39.3125 
z
" id="DejaVuSans-51"/>
       </defs>
       <use xlink:href="#DejaVuSans-48"/>
       <use x="63.623047" xlink:href="#DejaVuSans-46"/>
       <use x="95.410156" xlink:href="#DejaVuSans-48"/>
       <use x="159.033203" xlink:href="#DejaVuSans-48"/>
       <use x="222.65625" xlink:href="#DejaVuSans-51"/>
      </g>
     </g>
    </g>
    <g id="ytick_5">
     <g id="line2d_11">
      <g>
       <use style="stroke:#000000;stroke-width:0.8;" x="37.392188" xlink:href="#m57dfeb9012" y="48.363267"/>
      </g>
     </g>
     <g id="text_12">
      <!-- 0.004 -->
      <g transform="translate(16.078125 50.262876)scale(0.05 -0.05)">
       <use xlink:href="#DejaVuSans-48"/>
       <use x="63.623047" xlink:href="#DejaVuSans-46"/>
       <use x="95.410156" xlink:href="#DejaVuSans-48"/>
       <use x="159.033203" xlink:href="#DejaVuSans-48"/>
       <use x="222.65625" xlink:href="#DejaVuSans-52"/>
      </g>
     </g>
    </g>
    <g id="ytick_6">
     <g id="line2d_12">
      <g>
       <use style="stroke:#000000;stroke-width:0.8;" x="37.392188" xlink:href="#m57dfeb9012" y="31.474083"/>
      </g>
     </g>
     <g id="text_13">
      <!-- 0.005 -->
      <g transform="translate(16.078125 33.373693)scale(0.05 -0.05)">
       <defs>
        <path d="M 10.796875 72.90625 
L 49.515625 72.90625 
L 49.515625 64.59375 
L 19.828125 64.59375 
L 19.828125 46.734375 
Q 21.96875 47.46875 24.109375 47.828125 
Q 26.265625 48.1875 28.421875 48.1875 
Q 40.625 48.1875 47.75 41.5 
Q 54.890625 34.8125 54.890625 23.390625 
Q 54.890625 11.625 47.5625 5.09375 
Q 40.234375 -1.421875 26.90625 -1.421875 
Q 22.3125 -1.421875 17.546875 -0.640625 
Q 12.796875 0.140625 7.71875 1.703125 
L 7.71875 11.625 
Q 12.109375 9.234375 16.796875 8.0625 
Q 21.484375 6.890625 26.703125 6.890625 
Q 35.15625 6.890625 40.078125 11.328125 
Q 45.015625 15.765625 45.015625 23.390625 
Q 45.015625 31 40.078125 35.4375 
Q 35.15625 39.890625 26.703125 39.890625 
Q 22.75 39.890625 18.8125 39.015625 
Q 14.890625 38.140625 10.796875 36.28125 
z
" id="DejaVuSans-53"/>
       </defs>
       <use xlink:href="#DejaVuSans-48"/>
       <use x="63.623047" xlink:href="#DejaVuSans-46"/>
       <use x="95.410156" xlink:href="#DejaVuSans-48"/>
       <use x="159.033203" xlink:href="#DejaVuSans-48"/>
       <use x="222.65625" xlink:href="#DejaVuSans-53"/>
      </g>
     </g>
    </g>
    <g id="ytick_7">
     <g id="line2d_13">
      <g>
       <use style="stroke:#000000;stroke-width:0.8;" x="37.392188" xlink:href="#m57dfeb9012" y="14.5849"/>
      </g>
     </g>
     <g id="text_14">
      <!-- 0.006 -->
      <g transform="translate(16.078125 16.484509)scale(0.05 -0.05)">
       <use xlink:href="#DejaVuSans-48"/>
       <use x="63.623047" xlink:href="#DejaVuSans-46"/>
       <use x="95.410156" xlink:href="#DejaVuSans-48"/>
       <use x="159.033203" xlink:href="#DejaVuSans-48"/>
       <use x="222.65625" xlink:href="#DejaVuSans-54"/>
      </g>
     </g>
    </g>
    <g id="text_15">
     <!-- Density -->
     <g transform="translate(10.999219 72.280312)rotate(-90)scale(0.05 -0.05)">
      <defs>
       <path d="M 51.125 52.984375 
L 51.125 39.703125 
Q 45.515625 42.046875 40.28125 43.21875 
Q 35.0625 44.390625 30.421875 44.390625 
Q 25.4375 44.390625 23.015625 43.140625 
Q 20.609375 41.890625 20.609375 39.3125 
Q 20.609375 37.203125 22.4375 36.078125 
Q 24.265625 34.96875 29 34.421875 
L 32.078125 33.984375 
Q 45.515625 32.28125 50.140625 28.375 
Q 54.78125 24.46875 54.78125 16.109375 
Q 54.78125 7.375 48.328125 2.96875 
Q 41.890625 -1.421875 29.109375 -1.421875 
Q 23.6875 -1.421875 17.890625 -0.5625 
Q 12.109375 0.296875 6 2 
L 6 15.28125 
Q 11.234375 12.75 16.71875 11.46875 
Q 22.21875 10.203125 27.875 10.203125 
Q 33.015625 10.203125 35.59375 11.609375 
Q 38.1875 13.03125 38.1875 15.828125 
Q 38.1875 18.171875 36.40625 19.3125 
Q 34.625 20.453125 29.296875 21.09375 
L 26.21875 21.484375 
Q 14.546875 22.953125 9.859375 26.90625 
Q 5.171875 30.859375 5.171875 38.921875 
Q 5.171875 47.609375 11.125 51.796875 
Q 17.09375 56 29.390625 56 
Q 34.234375 56 39.546875 55.265625 
Q 44.875 54.546875 51.125 52.984375 
z
" id="DejaVuSans-Bold-115"/>
       <path d="M 8.40625 54.6875 
L 25.875 54.6875 
L 25.875 0 
L 8.40625 0 
z
M 8.40625 75.984375 
L 25.875 75.984375 
L 25.875 61.71875 
L 8.40625 61.71875 
z
" id="DejaVuSans-Bold-105"/>
       <path d="M 1.21875 54.6875 
L 18.703125 54.6875 
L 33.40625 17.578125 
L 45.90625 54.6875 
L 63.375 54.6875 
L 40.375 -5.171875 
Q 36.921875 -14.3125 32.296875 -17.9375 
Q 27.6875 -21.578125 20.125 -21.578125 
L 10.015625 -21.578125 
L 10.015625 -10.109375 
L 15.484375 -10.109375 
Q 19.921875 -10.109375 21.9375 -8.6875 
Q 23.96875 -7.28125 25.09375 -3.609375 
L 25.59375 -2.09375 
z
" id="DejaVuSans-Bold-121"/>
      </defs>
      <use xlink:href="#DejaVuSans-Bold-68"/>
      <use x="83.007812" xlink:href="#DejaVuSans-Bold-101"/>
      <use x="150.830078" xlink:href="#DejaVuSans-Bold-110"/>
      <use x="222.021484" xlink:href="#DejaVuSans-Bold-115"/>
      <use x="281.542969" xlink:href="#DejaVuSans-Bold-105"/>
      <use x="315.820312" xlink:href="#DejaVuSans-Bold-116"/>
      <use x="363.623047" xlink:href="#DejaVuSans-Bold-121"/>
     </g>
    </g>
   </g>
   <g id="patch_3">
    <path d="M 37.392188 115.92 
L 37.392188 7.2 
" style="fill:none;stroke:#000000;stroke-linecap:square;stroke-linejoin:miter;stroke-width:0.5;"/>
   </g>
   <g id="patch_4">
    <path d="M 148.992188 115.92 
L 148.992188 7.2 
" style="fill:none;stroke:#000000;stroke-linecap:square;stroke-linejoin:miter;stroke-width:0.5;"/>
   </g>
   <g id="patch_5">
    <path d="M 37.392188 115.92 
L 148.992188 115.92 
" style="fill:none;stroke:#000000;stroke-linecap:square;stroke-linejoin:miter;stroke-width:0.5;"/>
   </g>
   <g id="patch_6">
    <path d="M 37.392188 7.2 
L 148.992188 7.2 
" style="fill:none;stroke:#000000;stroke-linecap:square;stroke-linejoin:miter;stroke-width:0.5;"/>
   </g>
   <g id="legend_1">
    <g id="patch_7">
     <path d="M 40.892188 25.878125 
L 71.310938 25.878125 
Q 72.310938 25.878125 72.310938 24.878125 
L 72.310938 10.7 
Q 72.310938 9.7 71.310938 9.7 
L 40.892188 9.7 
Q 39.892188 9.7 39.892188 10.7 
L 39.892188 24.878125 
Q 39.892188 25.878125 40.892188 25.878125 
z
" style="fill:#ffffff;opacity:0.8;stroke:#000000;stroke-linejoin:miter;stroke-width:0.5;"/>
    </g>
    <g id="patch_8">
     <path d="M 41.892188 15.499219 
L 51.892188 15.499219 
L 51.892188 11.999219 
L 41.892188 11.999219 
z
" style="fill:#c4c4c4;fill-opacity:0.25;stroke:#000000;stroke-linejoin:miter;stroke-width:0.5;"/>
    </g>
    <g id="text_16">
     <!-- All -->
     <g transform="translate(55.892188 15.499219)scale(0.05 -0.05)">
      <defs>
       <path d="M 34.1875 63.1875 
L 20.796875 26.90625 
L 47.609375 26.90625 
z
M 28.609375 72.90625 
L 39.796875 72.90625 
L 67.578125 0 
L 57.328125 0 
L 50.6875 18.703125 
L 17.828125 18.703125 
L 11.1875 0 
L 0.78125 0 
z
" id="DejaVuSans-65"/>
       <path d="M 9.421875 75.984375 
L 18.40625 75.984375 
L 18.40625 0 
L 9.421875 0 
z
" id="DejaVuSans-108"/>
      </defs>
      <use xlink:href="#DejaVuSans-65"/>
      <use x="68.408203" xlink:href="#DejaVuSans-108"/>
      <use x="96.191406" xlink:href="#DejaVuSans-108"/>
     </g>
    </g>
    <g id="patch_9">
     <path d="M 41.892188 22.838281 
L 51.892188 22.838281 
L 51.892188 19.338281 
L 41.892188 19.338281 
z
" style="fill:#8000ff;fill-opacity:0.25;stroke:#8000ff;stroke-linejoin:miter;stroke-width:0.5;"/>
    </g>
    <g id="text_17">
     <!-- 0.PRE -->
     <g transform="translate(55.892188 22.838281)scale(0.05 -0.05)">
      <defs>
       <path d="M 19.671875 64.796875 
L 19.671875 37.40625 
L 32.078125 37.40625 
Q 38.96875 37.40625 42.71875 40.96875 
Q 46.484375 44.53125 46.484375 51.125 
Q 46.484375 57.671875 42.71875 61.234375 
Q 38.96875 64.796875 32.078125 64.796875 
z
M 9.8125 72.90625 
L 32.078125 72.90625 
Q 44.34375 72.90625 50.609375 67.359375 
Q 56.890625 61.8125 56.890625 51.125 
Q 56.890625 40.328125 50.609375 34.8125 
Q 44.34375 29.296875 32.078125 29.296875 
L 19.671875 29.296875 
L 19.671875 0 
L 9.8125 0 
z
" id="DejaVuSans-80"/>
       <path d="M 44.390625 34.1875 
Q 47.5625 33.109375 50.5625 29.59375 
Q 53.5625 26.078125 56.59375 19.921875 
L 66.609375 0 
L 56 0 
L 46.6875 18.703125 
Q 43.0625 26.03125 39.671875 28.421875 
Q 36.28125 30.8125 30.421875 30.8125 
L 19.671875 30.8125 
L 19.671875 0 
L 9.8125 0 
L 9.8125 72.90625 
L 32.078125 72.90625 
Q 44.578125 72.90625 50.734375 67.671875 
Q 56.890625 62.453125 56.890625 51.90625 
Q 56.890625 45.015625 53.6875 40.46875 
Q 50.484375 35.9375 44.390625 34.1875 
z
M 19.671875 64.796875 
L 19.671875 38.921875 
L 32.078125 38.921875 
Q 39.203125 38.921875 42.84375 42.21875 
Q 46.484375 45.515625 46.484375 51.90625 
Q 46.484375 58.296875 42.84375 61.546875 
Q 39.203125 64.796875 32.078125 64.796875 
z
" id="DejaVuSans-82"/>
       <path d="M 9.8125 72.90625 
L 55.90625 72.90625 
L 55.90625 64.59375 
L 19.671875 64.59375 
L 19.671875 43.015625 
L 54.390625 43.015625 
L 54.390625 34.71875 
L 19.671875 34.71875 
L 19.671875 8.296875 
L 56.78125 8.296875 
L 56.78125 0 
L 9.8125 0 
z
" id="DejaVuSans-69"/>
      </defs>
      <use xlink:href="#DejaVuSans-48"/>
      <use x="63.623047" xlink:href="#DejaVuSans-46"/>
      <use x="95.410156" xlink:href="#DejaVuSans-80"/>
      <use x="155.712891" xlink:href="#DejaVuSans-82"/>
      <use x="225.195312" xlink:href="#DejaVuSans-69"/>
     </g>
    </g>
   </g>
  </g>
 </g>
 <defs>
  <clipPath id="p817fac7c77">
   <rect height="108.72" width="111.6" x="37.392188" y="7.2"/>
  </clipPath>
 </defs>
</svg>
