<?xml version="1.0" encoding="utf-8" standalone="no"?>
<!DOCTYPE svg PUBLIC "-//W3C//DTD SVG 1.1//EN"
  "http://www.w3.org/Graphics/SVG/1.1/DTD/svg11.dtd">
<!-- Created with matplotlib (https://matplotlib.org/) -->
<svg height="279.654063pt" version="1.1" viewBox="0 0 405.3 279.654063" width="405.3pt" xmlns="http://www.w3.org/2000/svg" xmlns:xlink="http://www.w3.org/1999/xlink">
 <metadata>
  <rdf:RDF xmlns:cc="http://creativecommons.org/ns#" xmlns:dc="http://purl.org/dc/elements/1.1/" xmlns:rdf="http://www.w3.org/1999/02/22-rdf-syntax-ns#">
   <cc:Work>
    <dc:type rdf:resource="http://purl.org/dc/dcmitype/StillImage"/>
    <dc:date>2021-09-17T16:41:44.365133</dc:date>
    <dc:format>image/svg+xml</dc:format>
    <dc:creator>
     <cc:Agent>
      <dc:title>Matplotlib v3.3.2, https://matplotlib.org/</dc:title>
     </cc:Agent>
    </dc:creator>
   </cc:Work>
  </rdf:RDF>
 </metadata>
 <defs>
  <style type="text/css">*{stroke-linecap:butt;stroke-linejoin:round;}</style>
 </defs>
 <g id="figure_1">
  <g id="patch_1">
   <path d="M 0 279.654063 
L 405.3 279.654063 
L 405.3 0 
L 0 0 
z
" style="fill:#ffffff;"/>
  </g>
  <g id="axes_1">
   <g id="patch_2">
    <path d="M 10.7 230.9 
L 333.533333 230.9 
L 333.533333 66.983333 
L 10.7 66.983333 
z
" style="fill:#ffffff;"/>
   </g>
   <g id="patch_3">
    <path clip-path="url(#p35d3c679e5)" d="M 18.573984 230.9 
L 18.573984 66.983333 
L 34.321951 66.983333 
L 34.321951 230.9 
z
" style="fill:#c4c4c4;opacity:0.25;"/>
   </g>
   <g id="matplotlib.axis_1">
    <g id="xtick_1">
     <g id="line2d_1">
      <defs>
       <path d="M 0 0 
L 0 3.5 
" id="m6fc78eccaa" style="stroke:#000000;stroke-width:0.8;"/>
      </defs>
      <g>
       <use style="stroke:#000000;stroke-width:0.8;" x="18.573984" xlink:href="#m6fc78eccaa" y="230.9"/>
      </g>
     </g>
     <g id="text_1">
      <text style="font-family:DejaVu Sans;font-size:10px;font-stretch:normal;font-style:normal;font-weight:normal;text-anchor:middle;" transform="rotate(-0, 18.573984, 245.498438)" x="18.573984" y="245.498438">0.00</text>
     </g>
    </g>
    <g id="xtick_2">
     <g id="line2d_2">
      <g>
       <use style="stroke:#000000;stroke-width:0.8;" x="57.943902" xlink:href="#m6fc78eccaa" y="230.9"/>
      </g>
     </g>
     <g id="text_2">
      <text style="font-family:DejaVu Sans;font-size:10px;font-stretch:normal;font-style:normal;font-weight:normal;text-anchor:middle;" transform="rotate(-0, 57.943902, 245.498438)" x="57.943902" y="245.498438">0.25</text>
     </g>
    </g>
    <g id="xtick_3">
     <g id="line2d_3">
      <g>
       <use style="stroke:#000000;stroke-width:0.8;" x="97.313821" xlink:href="#m6fc78eccaa" y="230.9"/>
      </g>
     </g>
     <g id="text_3">
      <text style="font-family:DejaVu Sans;font-size:10px;font-stretch:normal;font-style:normal;font-weight:normal;text-anchor:middle;" transform="rotate(-0, 97.313821, 245.498438)" x="97.313821" y="245.498438">0.50</text>
     </g>
    </g>
    <g id="xtick_4">
     <g id="line2d_4">
      <g>
       <use style="stroke:#000000;stroke-width:0.8;" x="136.68374" xlink:href="#m6fc78eccaa" y="230.9"/>
      </g>
     </g>
     <g id="text_4">
      <text style="font-family:DejaVu Sans;font-size:10px;font-stretch:normal;font-style:normal;font-weight:normal;text-anchor:middle;" transform="rotate(-0, 136.68374, 245.498438)" x="136.68374" y="245.498438">0.75</text>
     </g>
    </g>
    <g id="xtick_5">
     <g id="line2d_5">
      <g>
       <use style="stroke:#000000;stroke-width:0.8;" x="176.053659" xlink:href="#m6fc78eccaa" y="230.9"/>
      </g>
     </g>
     <g id="text_5">
      <text style="font-family:DejaVu Sans;font-size:10px;font-stretch:normal;font-style:normal;font-weight:normal;text-anchor:middle;" transform="rotate(-0, 176.053659, 245.498438)" x="176.053659" y="245.498438">1.00</text>
     </g>
    </g>
    <g id="xtick_6">
     <g id="line2d_6">
      <g>
       <use style="stroke:#000000;stroke-width:0.8;" x="215.423577" xlink:href="#m6fc78eccaa" y="230.9"/>
      </g>
     </g>
     <g id="text_6">
      <text style="font-family:DejaVu Sans;font-size:10px;font-stretch:normal;font-style:normal;font-weight:normal;text-anchor:middle;" transform="rotate(-0, 215.423577, 245.498438)" x="215.423577" y="245.498438">1.25</text>
     </g>
    </g>
    <g id="xtick_7">
     <g id="line2d_7">
      <g>
       <use style="stroke:#000000;stroke-width:0.8;" x="254.793496" xlink:href="#m6fc78eccaa" y="230.9"/>
      </g>
     </g>
     <g id="text_7">
      <text style="font-family:DejaVu Sans;font-size:10px;font-stretch:normal;font-style:normal;font-weight:normal;text-anchor:middle;" transform="rotate(-0, 254.793496, 245.498438)" x="254.793496" y="245.498438">1.50</text>
     </g>
    </g>
    <g id="xtick_8">
     <g id="line2d_8">
      <g>
       <use style="stroke:#000000;stroke-width:0.8;" x="294.163415" xlink:href="#m6fc78eccaa" y="230.9"/>
      </g>
     </g>
     <g id="text_8">
      <text style="font-family:DejaVu Sans;font-size:10px;font-stretch:normal;font-style:normal;font-weight:normal;text-anchor:middle;" transform="rotate(-0, 294.163415, 245.498438)" x="294.163415" y="245.498438">1.75</text>
     </g>
    </g>
    <g id="xtick_9">
     <g id="line2d_9">
      <g>
       <use style="stroke:#000000;stroke-width:0.8;" x="333.533333" xlink:href="#m6fc78eccaa" y="230.9"/>
      </g>
     </g>
     <g id="text_9">
      <text style="font-family:DejaVu Sans;font-size:10px;font-stretch:normal;font-style:normal;font-weight:normal;text-anchor:middle;" transform="rotate(-0, 333.533333, 245.498438)" x="333.533333" y="245.498438">2.00</text>
     </g>
    </g>
    <g id="text_10">
     <text style="font-family:DejaVu Sans;font-size:10px;font-stretch:normal;font-style:normal;font-weight:normal;" transform="translate(117.811979 259.176562)">Distance to the MRCA</text>
     <text style="font-family:DejaVu Sans;font-size:10px;font-stretch:normal;font-style:normal;font-weight:normal;" transform="translate(124.148698 270.374375)">(Substitutions/Site)</text>
    </g>
    <g id="text_11">
     <text style="font-family:DejaVu Sans;font-size:10px;font-stretch:normal;font-style:normal;font-weight:normal;text-anchor:end;" transform="rotate(-0, 333.533333, 258.176562)" x="333.533333" y="258.176562">1e−4</text>
    </g>
   </g>
   <g id="matplotlib.axis_2"/>
   <g id="LineCollection_1">
    <path clip-path="url(#p35d3c679e5)" d="M 18.573984 187.409271 
L 18.573984 187.409271 
" style="fill:none;stroke:#8000ff;"/>
   </g>
   <g id="LineCollection_2">
    <path clip-path="url(#p35d3c679e5)" d="M 18.573984 170.284983 
L 39.586654 170.284983 
" style="fill:none;stroke:#8000ff;"/>
   </g>
   <g id="LineCollection_3">
    <path clip-path="url(#p35d3c679e5)" d="M 39.586654 151.919804 
L 60.547829 151.919804 
" style="fill:none;stroke:#8000ff;"/>
   </g>
   <g id="LineCollection_4">
    <path clip-path="url(#p35d3c679e5)" d="M 60.547829 131.072844 
L 62.002154 131.072844 
" style="fill:none;stroke:#8000ff;"/>
   </g>
   <g id="LineCollection_5">
    <path clip-path="url(#p35d3c679e5)" d="M 62.002154 113.204021 
L 79.244761 113.204021 
" style="fill:none;stroke:#8000ff;"/>
   </g>
   <g id="LineCollection_6">
    <path clip-path="url(#p35d3c679e5)" d="M 79.244761 101.291473 
L 107.388741 101.291473 
" style="fill:none;stroke:#8000ff;"/>
   </g>
   <g id="LineCollection_7">
    <path clip-path="url(#p35d3c679e5)" d="M 107.388741 93.349774 
L 110.727467 93.349774 
" style="fill:none;stroke:#8000ff;"/>
   </g>
   <g id="LineCollection_8">
    <path clip-path="url(#p35d3c679e5)" d="M 107.388741 109.233172 
L 168.486288 109.233172 
" style="fill:none;stroke:#8000ff;"/>
   </g>
   <g id="LineCollection_9">
    <path clip-path="url(#p35d3c679e5)" d="M 79.244761 125.11657 
L 86.197488 125.11657 
" style="fill:none;stroke:#8000ff;"/>
   </g>
   <g id="LineCollection_10">
    <path clip-path="url(#p35d3c679e5)" d="M 62.002154 148.941667 
L 64.54608 148.941667 
" style="fill:none;stroke:#8000ff;"/>
   </g>
   <g id="LineCollection_11">
    <path clip-path="url(#p35d3c679e5)" d="M 64.54608 140.999968 
L 65.385447 140.999968 
" style="fill:none;stroke:#8000ff;"/>
   </g>
   <g id="LineCollection_12">
    <path clip-path="url(#p35d3c679e5)" d="M 64.54608 156.883366 
L 64.583246 156.883366 
" style="fill:none;stroke:#8000ff;"/>
   </g>
   <g id="LineCollection_13">
    <path clip-path="url(#p35d3c679e5)" d="M 60.547829 172.766764 
L 64.93915 172.766764 
" style="fill:none;stroke:#8000ff;"/>
   </g>
   <g id="LineCollection_14">
    <path clip-path="url(#p35d3c679e5)" d="M 39.586654 188.650161 
L 45.889306 188.650161 
" style="fill:none;stroke:#8000ff;"/>
   </g>
   <g id="LineCollection_15">
    <path clip-path="url(#p35d3c679e5)" d="M 18.573984 204.533559 
L 27.270326 204.533559 
" style="fill:none;stroke:#8000ff;"/>
   </g>
   <g id="LineCollection_16">
    <path clip-path="url(#p35d3c679e5)" d="M 18.573984 204.533559 
L 18.573984 170.284983 
" style="fill:none;stroke:#8000ff;"/>
   </g>
   <g id="LineCollection_17">
    <path clip-path="url(#p35d3c679e5)" d="M 39.586654 188.650161 
L 39.586654 151.919804 
" style="fill:none;stroke:#8000ff;"/>
   </g>
   <g id="LineCollection_18">
    <path clip-path="url(#p35d3c679e5)" d="M 60.547829 172.766764 
L 60.547829 131.072844 
" style="fill:none;stroke:#8000ff;"/>
   </g>
   <g id="LineCollection_19">
    <path clip-path="url(#p35d3c679e5)" d="M 62.002154 148.941667 
L 62.002154 113.204021 
" style="fill:none;stroke:#8000ff;"/>
   </g>
   <g id="LineCollection_20">
    <path clip-path="url(#p35d3c679e5)" d="M 79.244761 125.11657 
L 79.244761 101.291473 
" style="fill:none;stroke:#8000ff;"/>
   </g>
   <g id="LineCollection_21">
    <path clip-path="url(#p35d3c679e5)" d="M 107.388741 109.233172 
L 107.388741 93.349774 
" style="fill:none;stroke:#8000ff;"/>
   </g>
   <g id="LineCollection_22">
    <path clip-path="url(#p35d3c679e5)" d="M 64.54608 156.883366 
L 64.54608 140.999968 
" style="fill:none;stroke:#8000ff;"/>
   </g>
   <g id="PathCollection_1">
    <defs>
     <path d="M 0 1.581139 
C 0.419323 1.581139 0.821528 1.41454 1.118034 1.118034 
C 1.41454 0.821528 1.581139 0.419323 1.581139 0 
C 1.581139 -0.419323 1.41454 -0.821528 1.118034 -1.118034 
C 0.821528 -1.41454 0.419323 -1.581139 0 -1.581139 
C -0.419323 -1.581139 -0.821528 -1.41454 -1.118034 -1.118034 
C -1.41454 -0.821528 -1.581139 -0.419323 -1.581139 0 
C -1.581139 0.419323 -1.41454 0.821528 -1.118034 1.118034 
C -0.821528 1.41454 -0.419323 1.581139 0 1.581139 
z
" id="md094f7d219" style="stroke:#000000;stroke-width:0.252982;"/>
    </defs>
    <g clip-path="url(#p35d3c679e5)">
     <use style="fill:#8000ff;stroke:#000000;stroke-width:0.252982;" x="110.727467" xlink:href="#md094f7d219" y="93.349774"/>
     <use style="fill:#8000ff;stroke:#000000;stroke-width:0.252982;" x="168.486288" xlink:href="#md094f7d219" y="109.233172"/>
     <use style="fill:#8000ff;stroke:#000000;stroke-width:0.252982;" x="86.197488" xlink:href="#md094f7d219" y="125.11657"/>
     <use style="fill:#8000ff;stroke:#000000;stroke-width:0.252982;" x="65.385447" xlink:href="#md094f7d219" y="140.999968"/>
     <use style="fill:#8000ff;stroke:#000000;stroke-width:0.252982;" x="64.583246" xlink:href="#md094f7d219" y="156.883366"/>
     <use style="fill:#8000ff;stroke:#000000;stroke-width:0.252982;" x="64.93915" xlink:href="#md094f7d219" y="172.766764"/>
     <use style="fill:#8000ff;stroke:#000000;stroke-width:0.252982;" x="45.889306" xlink:href="#md094f7d219" y="188.650161"/>
     <use style="fill:#8000ff;stroke:#000000;stroke-width:0.252982;" x="27.270326" xlink:href="#md094f7d219" y="204.533559"/>
    </g>
   </g>
   <g id="line2d_10">
    <path clip-path="url(#p35d3c679e5)" d="M 18.573984 230.9 
L 18.573984 66.983333 
" style="fill:none;stroke:#000000;stroke-dasharray:1.85,0.8;stroke-dashoffset:0;stroke-width:0.5;"/>
   </g>
   <g id="line2d_11">
    <path clip-path="url(#p35d3c679e5)" d="M 34.321951 230.9 
L 34.321951 66.983333 
" style="fill:none;stroke:#000000;stroke-dasharray:1.85,0.8;stroke-dashoffset:0;stroke-width:0.5;"/>
   </g>
   <g id="patch_4">
    <path d="M 10.7 230.9 
L 10.7 66.983333 
" style="fill:none;stroke:#000000;stroke-linecap:square;stroke-linejoin:miter;stroke-width:0.8;"/>
   </g>
   <g id="patch_5">
    <path d="M 10.7 230.9 
L 333.533333 230.9 
" style="fill:none;stroke:#000000;stroke-linecap:square;stroke-linejoin:miter;stroke-width:0.8;"/>
   </g>
   <g id="text_12">
    <text style="font-family:DejaVu Sans;font-size:10px;font-stretch:normal;font-style:normal;font-weight:normal;text-anchor:start;" transform="rotate(-0, 18.573984, 190.168646)" x="18.573984" y="190.168646"> </text>
   </g>
   <g id="text_13">
    <text style="font-family:DejaVu Sans;font-size:10px;font-stretch:normal;font-style:normal;font-weight:normal;text-anchor:start;" transform="rotate(-0, 39.586654, 173.044358)" x="39.586654" y="173.044358"> </text>
   </g>
   <g id="text_14">
    <text style="font-family:DejaVu Sans;font-size:10px;font-stretch:normal;font-style:normal;font-weight:normal;text-anchor:start;" transform="rotate(-0, 60.547829, 154.679179)" x="60.547829" y="154.679179"> </text>
   </g>
   <g id="text_15">
    <text style="font-family:DejaVu Sans;font-size:10px;font-stretch:normal;font-style:normal;font-weight:normal;text-anchor:start;" transform="rotate(-0, 62.002154, 133.832219)" x="62.002154" y="133.832219"> </text>
   </g>
   <g id="text_16">
    <text style="font-family:DejaVu Sans;font-size:10px;font-stretch:normal;font-style:normal;font-weight:normal;text-anchor:start;" transform="rotate(-0, 79.244761, 115.963396)" x="79.244761" y="115.963396"> </text>
   </g>
   <g id="text_17">
    <text style="font-family:DejaVu Sans;font-size:10px;font-stretch:normal;font-style:normal;font-weight:normal;text-anchor:start;" transform="rotate(-0, 107.388741, 104.050848)" x="107.388741" y="104.050848"> </text>
   </g>
   <g id="text_18">
    <text style="font-family:DejaVu Sans;font-size:10px;font-stretch:normal;font-style:normal;font-weight:normal;text-anchor:start;" transform="rotate(-0, 110.727467, 96.109149)" x="110.727467" y="96.109149"> </text>
   </g>
   <g id="text_19">
    <text style="font-family:DejaVu Sans;font-size:10px;font-stretch:normal;font-style:normal;font-weight:normal;text-anchor:start;" transform="rotate(-0, 168.486288, 111.992547)" x="168.486288" y="111.992547"> </text>
   </g>
   <g id="text_20">
    <text style="font-family:DejaVu Sans;font-size:10px;font-stretch:normal;font-style:normal;font-weight:normal;text-anchor:start;" transform="rotate(-0, 86.197488, 127.875945)" x="86.197488" y="127.875945"> </text>
   </g>
   <g id="text_21">
    <text style="font-family:DejaVu Sans;font-size:10px;font-stretch:normal;font-style:normal;font-weight:normal;text-anchor:start;" transform="rotate(-0, 64.54608, 151.701042)" x="64.54608" y="151.701042"> </text>
   </g>
   <g id="text_22">
    <text style="font-family:DejaVu Sans;font-size:10px;font-stretch:normal;font-style:normal;font-weight:normal;text-anchor:start;" transform="rotate(-0, 65.385447, 143.759343)" x="65.385447" y="143.759343"> </text>
   </g>
   <g id="text_23">
    <text style="font-family:DejaVu Sans;font-size:10px;font-stretch:normal;font-style:normal;font-weight:normal;text-anchor:start;" transform="rotate(-0, 64.583246, 159.642741)" x="64.583246" y="159.642741"> </text>
   </g>
   <g id="text_24">
    <text style="font-family:DejaVu Sans;font-size:10px;font-stretch:normal;font-style:normal;font-weight:normal;text-anchor:start;" transform="rotate(-0, 64.93915, 175.526139)" x="64.93915" y="175.526139"> </text>
   </g>
   <g id="text_25">
    <text style="font-family:DejaVu Sans;font-size:10px;font-stretch:normal;font-style:normal;font-weight:normal;text-anchor:start;" transform="rotate(-0, 45.889306, 191.409536)" x="45.889306" y="191.409536"> </text>
   </g>
   <g id="text_26">
    <text style="font-family:DejaVu Sans;font-size:10px;font-stretch:normal;font-style:normal;font-weight:normal;text-anchor:start;" transform="rotate(-0, 27.270326, 207.292934)" x="27.270326" y="207.292934"> </text>
   </g>
   <g id="text_27">
    <text style="font-family:DejaVu Sans;font-size:12px;font-stretch:normal;font-style:normal;font-weight:normal;text-anchor:middle;" transform="rotate(-0, 172.116667, 60.983333)" x="172.116667" y="60.983333">NODE1</text>
   </g>
  </g>
  <g id="axes_2">
   <g id="patch_6">
    <path d="M 10.7 66.983333 
L 333.533333 66.983333 
L 333.533333 34.2 
L 10.7 34.2 
z
" style="fill:#ffffff;"/>
   </g>
   <g id="PolyCollection_1">
    <defs>
     <path d="M 18.573984 -221.651693 
L 18.573984 -212.670729 
L 19.327312 -212.670729 
L 20.08064 -212.670729 
L 20.833968 -212.670729 
L 21.587296 -212.670729 
L 22.340625 -212.670729 
L 23.093953 -212.670729 
L 23.847281 -212.670729 
L 24.600609 -212.670729 
L 25.353937 -212.670729 
L 26.107265 -212.670729 
L 26.860594 -212.670729 
L 27.613922 -212.670729 
L 28.36725 -212.670729 
L 29.120578 -212.670729 
L 29.873906 -212.670729 
L 30.627234 -212.670729 
L 31.380562 -212.670729 
L 32.133891 -212.670729 
L 32.887219 -212.670729 
L 33.640547 -212.670729 
L 34.393875 -212.670729 
L 35.147203 -212.670729 
L 35.900531 -212.670729 
L 36.65386 -212.670729 
L 37.407188 -212.670729 
L 38.160516 -212.670729 
L 38.913844 -212.670729 
L 39.667172 -212.670729 
L 40.4205 -212.670729 
L 41.173829 -212.670729 
L 41.927157 -212.670729 
L 42.680485 -212.670729 
L 43.433813 -212.670729 
L 44.187141 -212.670729 
L 44.940469 -212.670729 
L 45.693798 -212.670729 
L 46.447126 -212.670729 
L 47.200454 -212.670729 
L 47.953782 -212.670729 
L 48.70711 -212.670729 
L 49.460438 -212.670729 
L 50.213766 -212.670729 
L 50.967095 -212.670729 
L 51.720423 -212.670729 
L 52.473751 -212.670729 
L 53.227079 -212.670729 
L 53.980407 -212.670729 
L 54.733735 -212.670729 
L 55.487064 -212.670729 
L 56.240392 -212.670729 
L 56.99372 -212.670729 
L 57.747048 -212.670729 
L 58.500376 -212.670729 
L 59.253704 -212.670729 
L 60.007033 -212.670729 
L 60.760361 -212.670729 
L 61.513689 -212.670729 
L 62.267017 -212.670729 
L 63.020345 -212.670729 
L 63.773673 -212.670729 
L 64.527002 -212.670729 
L 65.28033 -212.670729 
L 66.033658 -212.670729 
L 66.786986 -212.670729 
L 67.540314 -212.670729 
L 68.293642 -212.670729 
L 69.046971 -212.670729 
L 69.800299 -212.670729 
L 70.553627 -212.670729 
L 71.306955 -212.670729 
L 72.060283 -212.670729 
L 72.813611 -212.670729 
L 73.566939 -212.670729 
L 74.320268 -212.670729 
L 75.073596 -212.670729 
L 75.826924 -212.670729 
L 76.580252 -212.670729 
L 77.33358 -212.670729 
L 78.086908 -212.670729 
L 78.840237 -212.670729 
L 79.593565 -212.670729 
L 80.346893 -212.670729 
L 81.100221 -212.670729 
L 81.853549 -212.670729 
L 82.606877 -212.670729 
L 83.360206 -212.670729 
L 84.113534 -212.670729 
L 84.866862 -212.670729 
L 85.62019 -212.670729 
L 86.373518 -212.670729 
L 87.126846 -212.670729 
L 87.880175 -212.670729 
L 88.633503 -212.670729 
L 89.386831 -212.670729 
L 90.140159 -212.670729 
L 90.893487 -212.670729 
L 91.646815 -212.670729 
L 92.400143 -212.670729 
L 93.153472 -212.670729 
L 93.9068 -212.670729 
L 94.660128 -212.670729 
L 95.413456 -212.670729 
L 96.166784 -212.670729 
L 96.920112 -212.670729 
L 97.673441 -212.670729 
L 98.426769 -212.670729 
L 99.180097 -212.670729 
L 99.933425 -212.670729 
L 100.686753 -212.670729 
L 101.440081 -212.670729 
L 102.19341 -212.670729 
L 102.946738 -212.670729 
L 103.700066 -212.670729 
L 104.453394 -212.670729 
L 105.206722 -212.670729 
L 105.96005 -212.670729 
L 106.713379 -212.670729 
L 107.466707 -212.670729 
L 108.220035 -212.670729 
L 108.973363 -212.670729 
L 109.726691 -212.670729 
L 110.480019 -212.670729 
L 111.233348 -212.670729 
L 111.986676 -212.670729 
L 112.740004 -212.670729 
L 113.493332 -212.670729 
L 114.24666 -212.670729 
L 114.999988 -212.670729 
L 115.753316 -212.670729 
L 116.506645 -212.670729 
L 117.259973 -212.670729 
L 118.013301 -212.670729 
L 118.766629 -212.670729 
L 119.519957 -212.670729 
L 120.273285 -212.670729 
L 121.026614 -212.670729 
L 121.779942 -212.670729 
L 122.53327 -212.670729 
L 123.286598 -212.670729 
L 124.039926 -212.670729 
L 124.793254 -212.670729 
L 125.546583 -212.670729 
L 126.299911 -212.670729 
L 127.053239 -212.670729 
L 127.806567 -212.670729 
L 128.559895 -212.670729 
L 129.313223 -212.670729 
L 130.066552 -212.670729 
L 130.81988 -212.670729 
L 131.573208 -212.670729 
L 132.326536 -212.670729 
L 133.079864 -212.670729 
L 133.833192 -212.670729 
L 134.58652 -212.670729 
L 135.339849 -212.670729 
L 136.093177 -212.670729 
L 136.846505 -212.670729 
L 137.599833 -212.670729 
L 138.353161 -212.670729 
L 139.106489 -212.670729 
L 139.859818 -212.670729 
L 140.613146 -212.670729 
L 141.366474 -212.670729 
L 142.119802 -212.670729 
L 142.87313 -212.670729 
L 143.626458 -212.670729 
L 144.379787 -212.670729 
L 145.133115 -212.670729 
L 145.886443 -212.670729 
L 146.639771 -212.670729 
L 147.393099 -212.670729 
L 148.146427 -212.670729 
L 148.899756 -212.670729 
L 149.653084 -212.670729 
L 150.406412 -212.670729 
L 151.15974 -212.670729 
L 151.913068 -212.670729 
L 152.666396 -212.670729 
L 153.419725 -212.670729 
L 154.173053 -212.670729 
L 154.926381 -212.670729 
L 155.679709 -212.670729 
L 156.433037 -212.670729 
L 157.186365 -212.670729 
L 157.939693 -212.670729 
L 158.693022 -212.670729 
L 159.44635 -212.670729 
L 160.199678 -212.670729 
L 160.953006 -212.670729 
L 161.706334 -212.670729 
L 162.459662 -212.670729 
L 163.212991 -212.670729 
L 163.966319 -212.670729 
L 164.719647 -212.670729 
L 165.472975 -212.670729 
L 166.226303 -212.670729 
L 166.979631 -212.670729 
L 167.73296 -212.670729 
L 168.486288 -212.670729 
L 168.486288 -216.298583 
L 168.486288 -216.298583 
L 167.73296 -216.31015 
L 166.979631 -216.318477 
L 166.226303 -216.323687 
L 165.472975 -216.325923 
L 164.719647 -216.325349 
L 163.966319 -216.322154 
L 163.212991 -216.316544 
L 162.459662 -216.308746 
L 161.706334 -216.299006 
L 160.953006 -216.28759 
L 160.199678 -216.274777 
L 159.44635 -216.260867 
L 158.693022 -216.24617 
L 157.939693 -216.231012 
L 157.186365 -216.21573 
L 156.433037 -216.200668 
L 155.679709 -216.186184 
L 154.926381 -216.172638 
L 154.173053 -216.160396 
L 153.419725 -216.149828 
L 152.666396 -216.141304 
L 151.913068 -216.135196 
L 151.15974 -216.131868 
L 150.406412 -216.131686 
L 149.653084 -216.135006 
L 148.899756 -216.142176 
L 148.146427 -216.153536 
L 147.393099 -216.169414 
L 146.639771 -216.190124 
L 145.886443 -216.215966 
L 145.133115 -216.247224 
L 144.379787 -216.284165 
L 143.626458 -216.327038 
L 142.87313 -216.37607 
L 142.119802 -216.431469 
L 141.366474 -216.493422 
L 140.613146 -216.562093 
L 139.859818 -216.637622 
L 139.106489 -216.720129 
L 138.353161 -216.809708 
L 137.599833 -216.90643 
L 136.846505 -217.010344 
L 136.093177 -217.121475 
L 135.339849 -217.239825 
L 134.58652 -217.365375 
L 133.833192 -217.498086 
L 133.079864 -217.637895 
L 132.326536 -217.784722 
L 131.573208 -217.938471 
L 130.81988 -218.099026 
L 130.066552 -218.266258 
L 129.313223 -218.440023 
L 128.559895 -218.620166 
L 127.806567 -218.806523 
L 127.053239 -218.99892 
L 126.299911 -219.197177 
L 125.546583 -219.401112 
L 124.793254 -219.610538 
L 124.039926 -219.825268 
L 123.286598 -220.045119 
L 122.53327 -220.26991 
L 121.779942 -220.499465 
L 121.026614 -220.733617 
L 120.273285 -220.972207 
L 119.519957 -221.215087 
L 118.766629 -221.462122 
L 118.013301 -221.713189 
L 117.259973 -221.968183 
L 116.506645 -222.227012 
L 115.753316 -222.489601 
L 114.999988 -222.755893 
L 114.24666 -223.025848 
L 113.493332 -223.299445 
L 112.740004 -223.57668 
L 111.986676 -223.857565 
L 111.233348 -224.142129 
L 110.480019 -224.430419 
L 109.726691 -224.722495 
L 108.973363 -225.018429 
L 108.220035 -225.318307 
L 107.466707 -225.622222 
L 106.713379 -225.930279 
L 105.96005 -226.242583 
L 105.206722 -226.559246 
L 104.453394 -226.880377 
L 103.700066 -227.206086 
L 102.946738 -227.536474 
L 102.19341 -227.871635 
L 101.440081 -228.211651 
L 100.686753 -228.556588 
L 99.933425 -228.906494 
L 99.180097 -229.261397 
L 98.426769 -229.621298 
L 97.673441 -229.986172 
L 96.920112 -230.355963 
L 96.166784 -230.730581 
L 95.413456 -231.109899 
L 94.660128 -231.493754 
L 93.9068 -231.881939 
L 93.153472 -232.274207 
L 92.400143 -232.670264 
L 91.646815 -233.069771 
L 90.893487 -233.472344 
L 90.140159 -233.87755 
L 89.386831 -234.284907 
L 88.633503 -234.693889 
L 87.880175 -235.103919 
L 87.126846 -235.514376 
L 86.373518 -235.924595 
L 85.62019 -236.333866 
L 84.866862 -236.741439 
L 84.113534 -237.146526 
L 83.360206 -237.548303 
L 82.606877 -237.945913 
L 81.853549 -238.338472 
L 81.100221 -238.725071 
L 80.346893 -239.104779 
L 79.593565 -239.47665 
L 78.840237 -239.839726 
L 78.086908 -240.193045 
L 77.33358 -240.535641 
L 76.580252 -240.866551 
L 75.826924 -241.184823 
L 75.073596 -241.489519 
L 74.320268 -241.77972 
L 73.566939 -242.054529 
L 72.813611 -242.313084 
L 72.060283 -242.554552 
L 71.306955 -242.778142 
L 70.553627 -242.983107 
L 69.800299 -243.168748 
L 69.046971 -243.334416 
L 68.293642 -243.479521 
L 67.540314 -243.60353 
L 66.786986 -243.705971 
L 66.033658 -243.78644 
L 65.28033 -243.844595 
L 64.527002 -243.880166 
L 63.773673 -243.892951 
L 63.020345 -243.882819 
L 62.267017 -243.849709 
L 61.513689 -243.79363 
L 60.760361 -243.714662 
L 60.007033 -243.612955 
L 59.253704 -243.488725 
L 58.500376 -243.342255 
L 57.747048 -243.17389 
L 56.99372 -242.984039 
L 56.240392 -242.773168 
L 55.487064 -242.541798 
L 54.733735 -242.290502 
L 53.980407 -242.019903 
L 53.227079 -241.730667 
L 52.473751 -241.423501 
L 51.720423 -241.099148 
L 50.967095 -240.758385 
L 50.213766 -240.402015 
L 49.460438 -240.030866 
L 48.70711 -239.645786 
L 47.953782 -239.247638 
L 47.200454 -238.837297 
L 46.447126 -238.415645 
L 45.693798 -237.983566 
L 44.940469 -237.541947 
L 44.187141 -237.09167 
L 43.433813 -236.633609 
L 42.680485 -236.168628 
L 41.927157 -235.697581 
L 41.173829 -235.221304 
L 40.4205 -234.740614 
L 39.667172 -234.256311 
L 38.913844 -233.76917 
L 38.160516 -233.279945 
L 37.407188 -232.789363 
L 36.65386 -232.298126 
L 35.900531 -231.806909 
L 35.147203 -231.316357 
L 34.393875 -230.827091 
L 33.640547 -230.339698 
L 32.887219 -229.854741 
L 32.133891 -229.372751 
L 31.380562 -228.894232 
L 30.627234 -228.41966 
L 29.873906 -227.949482 
L 29.120578 -227.48412 
L 28.36725 -227.023967 
L 27.613922 -226.569391 
L 26.860594 -226.120735 
L 26.107265 -225.678318 
L 25.353937 -225.242435 
L 24.600609 -224.81336 
L 23.847281 -224.391341 
L 23.093953 -223.97661 
L 22.340625 -223.569377 
L 21.587296 -223.16983 
L 20.833968 -222.778143 
L 20.08064 -222.394469 
L 19.327312 -222.018946 
L 18.573984 -221.651693 
z
" id="mb27e0932a7" style="stroke:#8000ff;"/>
    </defs>
    <g clip-path="url(#pac894a3bae)">
     <use style="fill:#8000ff;fill-opacity:0.25;stroke:#8000ff;" x="0" xlink:href="#mb27e0932a7" y="279.654063"/>
    </g>
   </g>
   <g id="patch_7">
    <path clip-path="url(#pac894a3bae)" d="M 18.573984 66.983333 
L 18.573984 34.2 
L 34.321951 34.2 
L 34.321951 66.983333 
z
" style="fill:#c4c4c4;opacity:0.25;"/>
   </g>
   <g id="matplotlib.axis_3">
    <g id="xtick_10">
     <g id="line2d_12">
      <g>
       <use style="stroke:#000000;stroke-width:0.8;" x="18.573984" xlink:href="#m6fc78eccaa" y="66.983333"/>
      </g>
     </g>
    </g>
    <g id="xtick_11">
     <g id="line2d_13">
      <g>
       <use style="stroke:#000000;stroke-width:0.8;" x="57.943902" xlink:href="#m6fc78eccaa" y="66.983333"/>
      </g>
     </g>
    </g>
    <g id="xtick_12">
     <g id="line2d_14">
      <g>
       <use style="stroke:#000000;stroke-width:0.8;" x="97.313821" xlink:href="#m6fc78eccaa" y="66.983333"/>
      </g>
     </g>
    </g>
    <g id="xtick_13">
     <g id="line2d_15">
      <g>
       <use style="stroke:#000000;stroke-width:0.8;" x="136.68374" xlink:href="#m6fc78eccaa" y="66.983333"/>
      </g>
     </g>
    </g>
    <g id="xtick_14">
     <g id="line2d_16">
      <g>
       <use style="stroke:#000000;stroke-width:0.8;" x="176.053659" xlink:href="#m6fc78eccaa" y="66.983333"/>
      </g>
     </g>
    </g>
    <g id="xtick_15">
     <g id="line2d_17">
      <g>
       <use style="stroke:#000000;stroke-width:0.8;" x="215.423577" xlink:href="#m6fc78eccaa" y="66.983333"/>
      </g>
     </g>
    </g>
    <g id="xtick_16">
     <g id="line2d_18">
      <g>
       <use style="stroke:#000000;stroke-width:0.8;" x="254.793496" xlink:href="#m6fc78eccaa" y="66.983333"/>
      </g>
     </g>
    </g>
    <g id="xtick_17">
     <g id="line2d_19">
      <g>
       <use style="stroke:#000000;stroke-width:0.8;" x="294.163415" xlink:href="#m6fc78eccaa" y="66.983333"/>
      </g>
     </g>
    </g>
    <g id="xtick_18">
     <g id="line2d_20">
      <g>
       <use style="stroke:#000000;stroke-width:0.8;" x="333.533333" xlink:href="#m6fc78eccaa" y="66.983333"/>
      </g>
     </g>
    </g>
    <g id="text_28">
     <text style="font-family:DejaVu Sans;font-size:10px;font-stretch:normal;font-style:normal;font-weight:normal;text-anchor:end;" transform="rotate(-0, 333.533333, 77.581771)" x="333.533333" y="77.581771">1e−4</text>
    </g>
   </g>
   <g id="matplotlib.axis_4">
    <g id="ytick_1"/>
    <g id="ytick_2"/>
   </g>
   <g id="line2d_21">
    <path clip-path="url(#pac894a3bae)" d="M 18.573984 66.983333 
L 18.573984 34.2 
" style="fill:none;stroke:#000000;stroke-dasharray:1.85,0.8;stroke-dashoffset:0;stroke-width:0.5;"/>
   </g>
   <g id="line2d_22">
    <path clip-path="url(#pac894a3bae)" d="M 34.321951 66.983333 
L 34.321951 34.2 
" style="fill:none;stroke:#000000;stroke-dasharray:1.85,0.8;stroke-dashoffset:0;stroke-width:0.5;"/>
   </g>
   <g id="patch_8">
    <path d="M 10.7 66.983333 
L 333.533333 66.983333 
" style="fill:none;stroke:#000000;stroke-linecap:square;stroke-linejoin:miter;stroke-width:0.8;"/>
   </g>
  </g>
  <g id="axes_3">
   <g id="patch_9">
    <path d="M 333.533333 230.9 
L 398.1 230.9 
L 398.1 66.983333 
L 333.533333 66.983333 
z
" style="fill:#ffffff;"/>
   </g>
   <g id="matplotlib.axis_5">
    <g id="xtick_19"/>
    <g id="xtick_20"/>
    <g id="xtick_21"/>
   </g>
   <g id="matplotlib.axis_6"/>
   <g id="patch_10">
    <path d="M 333.533333 230.9 
L 333.533333 66.983333 
" style="fill:none;stroke:#000000;stroke-linecap:square;stroke-linejoin:miter;stroke-width:0.8;"/>
   </g>
  </g>
  <g id="text_29">
   <text style="font-family:DejaVu Sans;font-size:12px;font-stretch:normal;font-style:normal;font-weight:bold;text-anchor:middle;" transform="rotate(-0, 171.3, 16.318125)" x="171.3" y="16.318125">0.PRE</text>
  </g>
 </g>
 <defs>
  <clipPath id="p35d3c679e5">
   <rect height="163.916667" width="322.833333" x="10.7" y="66.983333"/>
  </clipPath>
  <clipPath id="pac894a3bae">
   <rect height="32.783333" width="322.833333" x="10.7" y="34.2"/>
  </clipPath>
 </defs>
</svg>
