<?xml version="1.0" encoding="utf-8" standalone="no"?>
<!DOCTYPE svg PUBLIC "-//W3C//DTD SVG 1.1//EN"
  "http://www.w3.org/Graphics/SVG/1.1/DTD/svg11.dtd">
<!-- Created with matplotlib (https://matplotlib.org/) -->
<svg height="279.654063pt" version="1.1" viewBox="0 0 405.3 279.654063" width="405.3pt" xmlns="http://www.w3.org/2000/svg" xmlns:xlink="http://www.w3.org/1999/xlink">
 <metadata>
  <rdf:RDF xmlns:cc="http://creativecommons.org/ns#" xmlns:dc="http://purl.org/dc/elements/1.1/" xmlns:rdf="http://www.w3.org/1999/02/22-rdf-syntax-ns#">
   <cc:Work>
    <dc:type rdf:resource="http://purl.org/dc/dcmitype/StillImage"/>
    <dc:date>2021-09-17T16:41:16.883300</dc:date>
    <dc:format>image/svg+xml</dc:format>
    <dc:creator>
     <cc:Agent>
      <dc:title>Matplotlib v3.3.2, https://matplotlib.org/</dc:title>
     </cc:Agent>
    </dc:creator>
   </cc:Work>
  </rdf:RDF>
 </metadata>
 <defs>
  <style type="text/css">*{stroke-linecap:butt;stroke-linejoin:round;}</style>
 </defs>
 <g id="figure_1">
  <g id="patch_1">
   <path d="M 0 279.654063 
L 405.3 279.654063 
L 405.3 0 
L 0 0 
z
" style="fill:#ffffff;"/>
  </g>
  <g id="axes_1">
   <g id="patch_2">
    <path d="M 10.7 230.9 
L 333.533333 230.9 
L 333.533333 66.983333 
L 10.7 66.983333 
z
" style="fill:#ffffff;"/>
   </g>
   <g id="patch_3">
    <path clip-path="url(#pb28ed32b11)" d="M 32.222222 230.9 
L 32.222222 66.983333 
L 75.266667 66.983333 
L 75.266667 230.9 
z
" style="fill:#c4c4c4;opacity:0.25;"/>
   </g>
   <g id="matplotlib.axis_1">
    <g id="xtick_1">
     <g id="line2d_1">
      <defs>
       <path d="M 0 0 
L 0 3.5 
" id="m60a3c56ad5" style="stroke:#000000;stroke-width:0.8;"/>
      </defs>
      <g>
       <use style="stroke:#000000;stroke-width:0.8;" x="32.222222" xlink:href="#m60a3c56ad5" y="230.9"/>
      </g>
     </g>
     <g id="text_1">
      <text style="font-family:DejaVu Sans;font-size:10px;font-stretch:normal;font-style:normal;font-weight:normal;text-anchor:middle;" transform="rotate(-0, 32.222222, 245.498438)" x="32.222222" y="245.498438">0</text>
     </g>
    </g>
    <g id="xtick_2">
     <g id="line2d_2">
      <g>
       <use style="stroke:#000000;stroke-width:0.8;" x="75.266667" xlink:href="#m60a3c56ad5" y="230.9"/>
      </g>
     </g>
     <g id="text_2">
      <text style="font-family:DejaVu Sans;font-size:10px;font-stretch:normal;font-style:normal;font-weight:normal;text-anchor:middle;" transform="rotate(-0, 75.266667, 245.498438)" x="75.266667" y="245.498438">1</text>
     </g>
    </g>
    <g id="xtick_3">
     <g id="line2d_3">
      <g>
       <use style="stroke:#000000;stroke-width:0.8;" x="118.311111" xlink:href="#m60a3c56ad5" y="230.9"/>
      </g>
     </g>
     <g id="text_3">
      <text style="font-family:DejaVu Sans;font-size:10px;font-stretch:normal;font-style:normal;font-weight:normal;text-anchor:middle;" transform="rotate(-0, 118.311111, 245.498438)" x="118.311111" y="245.498438">2</text>
     </g>
    </g>
    <g id="xtick_4">
     <g id="line2d_4">
      <g>
       <use style="stroke:#000000;stroke-width:0.8;" x="161.355556" xlink:href="#m60a3c56ad5" y="230.9"/>
      </g>
     </g>
     <g id="text_4">
      <text style="font-family:DejaVu Sans;font-size:10px;font-stretch:normal;font-style:normal;font-weight:normal;text-anchor:middle;" transform="rotate(-0, 161.355556, 245.498438)" x="161.355556" y="245.498438">3</text>
     </g>
    </g>
    <g id="xtick_5">
     <g id="line2d_5">
      <g>
       <use style="stroke:#000000;stroke-width:0.8;" x="204.4" xlink:href="#m60a3c56ad5" y="230.9"/>
      </g>
     </g>
     <g id="text_5">
      <text style="font-family:DejaVu Sans;font-size:10px;font-stretch:normal;font-style:normal;font-weight:normal;text-anchor:middle;" transform="rotate(-0, 204.4, 245.498438)" x="204.4" y="245.498438">4</text>
     </g>
    </g>
    <g id="xtick_6">
     <g id="line2d_6">
      <g>
       <use style="stroke:#000000;stroke-width:0.8;" x="247.444444" xlink:href="#m60a3c56ad5" y="230.9"/>
      </g>
     </g>
     <g id="text_6">
      <text style="font-family:DejaVu Sans;font-size:10px;font-stretch:normal;font-style:normal;font-weight:normal;text-anchor:middle;" transform="rotate(-0, 247.444444, 245.498438)" x="247.444444" y="245.498438">5</text>
     </g>
    </g>
    <g id="xtick_7">
     <g id="line2d_7">
      <g>
       <use style="stroke:#000000;stroke-width:0.8;" x="290.488889" xlink:href="#m60a3c56ad5" y="230.9"/>
      </g>
     </g>
     <g id="text_7">
      <text style="font-family:DejaVu Sans;font-size:10px;font-stretch:normal;font-style:normal;font-weight:normal;text-anchor:middle;" transform="rotate(-0, 290.488889, 245.498438)" x="290.488889" y="245.498438">6</text>
     </g>
    </g>
    <g id="xtick_8">
     <g id="line2d_8">
      <g>
       <use style="stroke:#000000;stroke-width:0.8;" x="333.533333" xlink:href="#m60a3c56ad5" y="230.9"/>
      </g>
     </g>
     <g id="text_8">
      <text style="font-family:DejaVu Sans;font-size:10px;font-stretch:normal;font-style:normal;font-weight:normal;text-anchor:middle;" transform="rotate(-0, 333.533333, 245.498438)" x="333.533333" y="245.498438">7</text>
     </g>
    </g>
    <g id="text_9">
     <text style="font-family:DejaVu Sans;font-size:10px;font-stretch:normal;font-style:normal;font-weight:normal;" transform="translate(117.811979 259.176562)">Distance to the MRCA</text>
     <text style="font-family:DejaVu Sans;font-size:10px;font-stretch:normal;font-style:normal;font-weight:normal;" transform="translate(124.148698 270.374375)">(Substitutions/Site)</text>
    </g>
    <g id="text_10">
     <text style="font-family:DejaVu Sans;font-size:10px;font-stretch:normal;font-style:normal;font-weight:normal;text-anchor:end;" transform="rotate(-0, 333.533333, 258.176562)" x="333.533333" y="258.176562">1e−5</text>
    </g>
   </g>
   <g id="matplotlib.axis_2"/>
   <g id="LineCollection_1">
    <path clip-path="url(#pb28ed32b11)" d="M 32.222222 188.494558 
L 32.222222 188.494558 
" style="fill:none;stroke:#0cc1e8;"/>
   </g>
   <g id="LineCollection_2">
    <path clip-path="url(#pb28ed32b11)" d="M 32.222222 168.421677 
L 78.634464 168.421677 
" style="fill:none;stroke:#0cc1e8;"/>
   </g>
   <g id="LineCollection_3">
    <path clip-path="url(#pb28ed32b11)" d="M 78.634464 147.247753 
L 82.071993 147.247753 
" style="fill:none;stroke:#0cc1e8;"/>
   </g>
   <g id="LineCollection_4">
    <path clip-path="url(#pb28ed32b11)" d="M 82.071993 129.292265 
L 83.711987 129.292265 
" style="fill:none;stroke:#0cc1e8;"/>
   </g>
   <g id="LineCollection_5">
    <path clip-path="url(#pb28ed32b11)" d="M 83.711987 112.353125 
L 84.726114 112.353125 
" style="fill:none;stroke:#0cc1e8;"/>
   </g>
   <g id="LineCollection_6">
    <path clip-path="url(#pb28ed32b11)" d="M 84.726114 102.867207 
L 84.941766 102.867207 
" style="fill:none;stroke:#0cc1e8;"/>
   </g>
   <g id="LineCollection_7">
    <path clip-path="url(#pb28ed32b11)" d="M 84.941766 94.73642 
L 85.227151 94.73642 
" style="fill:none;stroke:#0cc1e8;"/>
   </g>
   <g id="LineCollection_8">
    <path clip-path="url(#pb28ed32b11)" d="M 85.227151 89.315895 
L 88.269102 89.315895 
" style="fill:none;stroke:#0cc1e8;"/>
   </g>
   <g id="LineCollection_9">
    <path clip-path="url(#pb28ed32b11)" d="M 85.227151 100.156944 
L 104.01519 100.156944 
" style="fill:none;stroke:#0cc1e8;"/>
   </g>
   <g id="LineCollection_10">
    <path clip-path="url(#pb28ed32b11)" d="M 84.941766 110.997994 
L 85.043351 110.997994 
" style="fill:none;stroke:#0cc1e8;"/>
   </g>
   <g id="LineCollection_11">
    <path clip-path="url(#pb28ed32b11)" d="M 84.726114 121.839043 
L 84.827699 121.839043 
" style="fill:none;stroke:#0cc1e8;"/>
   </g>
   <g id="LineCollection_12">
    <path clip-path="url(#pb28ed32b11)" d="M 83.711987 146.231404 
L 83.813572 146.231404 
" style="fill:none;stroke:#0cc1e8;"/>
   </g>
   <g id="LineCollection_13">
    <path clip-path="url(#pb28ed32b11)" d="M 83.813572 138.100617 
L 101.873729 138.100617 
" style="fill:none;stroke:#0cc1e8;"/>
   </g>
   <g id="LineCollection_14">
    <path clip-path="url(#pb28ed32b11)" d="M 101.873729 132.680093 
L 114.598958 132.680093 
" style="fill:none;stroke:#0cc1e8;"/>
   </g>
   <g id="LineCollection_15">
    <path clip-path="url(#pb28ed32b11)" d="M 101.873729 143.521142 
L 110.999582 143.521142 
" style="fill:none;stroke:#0cc1e8;"/>
   </g>
   <g id="LineCollection_16">
    <path clip-path="url(#pb28ed32b11)" d="M 83.813572 154.362191 
L 103.369093 154.362191 
" style="fill:none;stroke:#0cc1e8;"/>
   </g>
   <g id="LineCollection_17">
    <path clip-path="url(#pb28ed32b11)" d="M 82.071993 165.203241 
L 88.155895 165.203241 
" style="fill:none;stroke:#0cc1e8;"/>
   </g>
   <g id="LineCollection_18">
    <path clip-path="url(#pb28ed32b11)" d="M 78.634464 189.595602 
L 78.736049 189.595602 
" style="fill:none;stroke:#0cc1e8;"/>
   </g>
   <g id="LineCollection_19">
    <path clip-path="url(#pb28ed32b11)" d="M 78.736049 181.464815 
L 81.604531 181.464815 
" style="fill:none;stroke:#0cc1e8;"/>
   </g>
   <g id="LineCollection_20">
    <path clip-path="url(#pb28ed32b11)" d="M 81.604531 176.04429 
L 81.706116 176.04429 
" style="fill:none;stroke:#0cc1e8;"/>
   </g>
   <g id="LineCollection_21">
    <path clip-path="url(#pb28ed32b11)" d="M 81.604531 186.88534 
L 93.353081 186.88534 
" style="fill:none;stroke:#0cc1e8;"/>
   </g>
   <g id="LineCollection_22">
    <path clip-path="url(#pb28ed32b11)" d="M 78.736049 197.726389 
L 80.763873 197.726389 
" style="fill:none;stroke:#0cc1e8;"/>
   </g>
   <g id="LineCollection_23">
    <path clip-path="url(#pb28ed32b11)" d="M 32.222222 208.567438 
L 46.907265 208.567438 
" style="fill:none;stroke:#0cc1e8;"/>
   </g>
   <g id="LineCollection_24">
    <path clip-path="url(#pb28ed32b11)" d="M 32.222222 208.567438 
L 32.222222 168.421677 
" style="fill:none;stroke:#0cc1e8;"/>
   </g>
   <g id="LineCollection_25">
    <path clip-path="url(#pb28ed32b11)" d="M 78.634464 189.595602 
L 78.634464 147.247753 
" style="fill:none;stroke:#0cc1e8;"/>
   </g>
   <g id="LineCollection_26">
    <path clip-path="url(#pb28ed32b11)" d="M 82.071993 165.203241 
L 82.071993 129.292265 
" style="fill:none;stroke:#0cc1e8;"/>
   </g>
   <g id="LineCollection_27">
    <path clip-path="url(#pb28ed32b11)" d="M 83.711987 146.231404 
L 83.711987 112.353125 
" style="fill:none;stroke:#0cc1e8;"/>
   </g>
   <g id="LineCollection_28">
    <path clip-path="url(#pb28ed32b11)" d="M 84.726114 121.839043 
L 84.726114 102.867207 
" style="fill:none;stroke:#0cc1e8;"/>
   </g>
   <g id="LineCollection_29">
    <path clip-path="url(#pb28ed32b11)" d="M 84.941766 110.997994 
L 84.941766 94.73642 
" style="fill:none;stroke:#0cc1e8;"/>
   </g>
   <g id="LineCollection_30">
    <path clip-path="url(#pb28ed32b11)" d="M 85.227151 100.156944 
L 85.227151 89.315895 
" style="fill:none;stroke:#0cc1e8;"/>
   </g>
   <g id="LineCollection_31">
    <path clip-path="url(#pb28ed32b11)" d="M 83.813572 154.362191 
L 83.813572 138.100617 
" style="fill:none;stroke:#0cc1e8;"/>
   </g>
   <g id="LineCollection_32">
    <path clip-path="url(#pb28ed32b11)" d="M 101.873729 143.521142 
L 101.873729 132.680093 
" style="fill:none;stroke:#0cc1e8;"/>
   </g>
   <g id="LineCollection_33">
    <path clip-path="url(#pb28ed32b11)" d="M 78.736049 197.726389 
L 78.736049 181.464815 
" style="fill:none;stroke:#0cc1e8;"/>
   </g>
   <g id="LineCollection_34">
    <path clip-path="url(#pb28ed32b11)" d="M 81.604531 186.88534 
L 81.604531 176.04429 
" style="fill:none;stroke:#0cc1e8;"/>
   </g>
   <g id="PathCollection_1">
    <defs>
     <path d="M 0 1.581139 
C 0.419323 1.581139 0.821528 1.41454 1.118034 1.118034 
C 1.41454 0.821528 1.581139 0.419323 1.581139 0 
C 1.581139 -0.419323 1.41454 -0.821528 1.118034 -1.118034 
C 0.821528 -1.41454 0.419323 -1.581139 0 -1.581139 
C -0.419323 -1.581139 -0.821528 -1.41454 -1.118034 -1.118034 
C -1.41454 -0.821528 -1.581139 -0.419323 -1.581139 0 
C -1.581139 0.419323 -1.41454 0.821528 -1.118034 1.118034 
C -0.821528 1.41454 -0.419323 1.581139 0 1.581139 
z
" id="m3824916b16" style="stroke:#000000;stroke-width:0.252982;"/>
    </defs>
    <g clip-path="url(#pb28ed32b11)">
     <use style="fill:#0cc1e8;stroke:#000000;stroke-width:0.252982;" x="88.269102" xlink:href="#m3824916b16" y="89.315895"/>
     <use style="fill:#0cc1e8;stroke:#000000;stroke-width:0.252982;" x="104.01519" xlink:href="#m3824916b16" y="100.156944"/>
     <use style="fill:#0cc1e8;stroke:#000000;stroke-width:0.252982;" x="85.043351" xlink:href="#m3824916b16" y="110.997994"/>
     <use style="fill:#0cc1e8;stroke:#000000;stroke-width:0.252982;" x="84.827699" xlink:href="#m3824916b16" y="121.839043"/>
     <use style="fill:#0cc1e8;stroke:#000000;stroke-width:0.252982;" x="114.598958" xlink:href="#m3824916b16" y="132.680093"/>
     <use style="fill:#0cc1e8;stroke:#000000;stroke-width:0.252982;" x="110.999582" xlink:href="#m3824916b16" y="143.521142"/>
     <use style="fill:#0cc1e8;stroke:#000000;stroke-width:0.252982;" x="103.369093" xlink:href="#m3824916b16" y="154.362191"/>
     <use style="fill:#0cc1e8;stroke:#000000;stroke-width:0.252982;" x="88.155895" xlink:href="#m3824916b16" y="165.203241"/>
     <use style="fill:#0cc1e8;stroke:#000000;stroke-width:0.252982;" x="81.706116" xlink:href="#m3824916b16" y="176.04429"/>
     <use style="fill:#0cc1e8;stroke:#000000;stroke-width:0.252982;" x="93.353081" xlink:href="#m3824916b16" y="186.88534"/>
     <use style="fill:#0cc1e8;stroke:#000000;stroke-width:0.252982;" x="80.763873" xlink:href="#m3824916b16" y="197.726389"/>
     <use style="fill:#0cc1e8;stroke:#000000;stroke-width:0.252982;" x="46.907265" xlink:href="#m3824916b16" y="208.567438"/>
    </g>
   </g>
   <g id="line2d_9">
    <path clip-path="url(#pb28ed32b11)" d="M 32.222222 230.9 
L 32.222222 66.983333 
" style="fill:none;stroke:#000000;stroke-dasharray:1.85,0.8;stroke-dashoffset:0;stroke-width:0.5;"/>
   </g>
   <g id="line2d_10">
    <path clip-path="url(#pb28ed32b11)" d="M 75.266667 230.9 
L 75.266667 66.983333 
" style="fill:none;stroke:#000000;stroke-dasharray:1.85,0.8;stroke-dashoffset:0;stroke-width:0.5;"/>
   </g>
   <g id="patch_4">
    <path d="M 10.7 230.9 
L 10.7 66.983333 
" style="fill:none;stroke:#000000;stroke-linecap:square;stroke-linejoin:miter;stroke-width:0.8;"/>
   </g>
   <g id="patch_5">
    <path d="M 10.7 230.9 
L 333.533333 230.9 
" style="fill:none;stroke:#000000;stroke-linecap:square;stroke-linejoin:miter;stroke-width:0.8;"/>
   </g>
   <g id="text_11">
    <text style="font-family:DejaVu Sans;font-size:10px;font-stretch:normal;font-style:normal;font-weight:normal;text-anchor:start;" transform="rotate(-0, 32.222222, 191.253933)" x="32.222222" y="191.253933"> </text>
   </g>
   <g id="text_12">
    <text style="font-family:DejaVu Sans;font-size:10px;font-stretch:normal;font-style:normal;font-weight:normal;text-anchor:start;" transform="rotate(-0, 78.634464, 171.181052)" x="78.634464" y="171.181052"> </text>
   </g>
   <g id="text_13">
    <text style="font-family:DejaVu Sans;font-size:10px;font-stretch:normal;font-style:normal;font-weight:normal;text-anchor:start;" transform="rotate(-0, 82.071993, 150.007128)" x="82.071993" y="150.007128"> </text>
   </g>
   <g id="text_14">
    <text style="font-family:DejaVu Sans;font-size:10px;font-stretch:normal;font-style:normal;font-weight:normal;text-anchor:start;" transform="rotate(-0, 83.711987, 132.05164)" x="83.711987" y="132.05164"> </text>
   </g>
   <g id="text_15">
    <text style="font-family:DejaVu Sans;font-size:10px;font-stretch:normal;font-style:normal;font-weight:normal;text-anchor:start;" transform="rotate(-0, 84.726114, 115.1125)" x="84.726114" y="115.1125"> </text>
   </g>
   <g id="text_16">
    <text style="font-family:DejaVu Sans;font-size:10px;font-stretch:normal;font-style:normal;font-weight:normal;text-anchor:start;" transform="rotate(-0, 84.941766, 105.626582)" x="84.941766" y="105.626582"> </text>
   </g>
   <g id="text_17">
    <text style="font-family:DejaVu Sans;font-size:10px;font-stretch:normal;font-style:normal;font-weight:normal;text-anchor:start;" transform="rotate(-0, 85.227151, 97.495795)" x="85.227151" y="97.495795"> </text>
   </g>
   <g id="text_18">
    <text style="font-family:DejaVu Sans;font-size:10px;font-stretch:normal;font-style:normal;font-weight:normal;text-anchor:start;" transform="rotate(-0, 88.269102, 92.07527)" x="88.269102" y="92.07527"> </text>
   </g>
   <g id="text_19">
    <text style="font-family:DejaVu Sans;font-size:10px;font-stretch:normal;font-style:normal;font-weight:normal;text-anchor:start;" transform="rotate(-0, 104.01519, 102.916319)" x="104.01519" y="102.916319"> </text>
   </g>
   <g id="text_20">
    <text style="font-family:DejaVu Sans;font-size:10px;font-stretch:normal;font-style:normal;font-weight:normal;text-anchor:start;" transform="rotate(-0, 85.043351, 113.757369)" x="85.043351" y="113.757369"> </text>
   </g>
   <g id="text_21">
    <text style="font-family:DejaVu Sans;font-size:10px;font-stretch:normal;font-style:normal;font-weight:normal;text-anchor:start;" transform="rotate(-0, 84.827699, 124.598418)" x="84.827699" y="124.598418"> </text>
   </g>
   <g id="text_22">
    <text style="font-family:DejaVu Sans;font-size:10px;font-stretch:normal;font-style:normal;font-weight:normal;text-anchor:start;" transform="rotate(-0, 83.813572, 148.990779)" x="83.813572" y="148.990779"> </text>
   </g>
   <g id="text_23">
    <text style="font-family:DejaVu Sans;font-size:10px;font-stretch:normal;font-style:normal;font-weight:normal;text-anchor:start;" transform="rotate(-0, 101.873729, 140.859992)" x="101.873729" y="140.859992"> </text>
   </g>
   <g id="text_24">
    <text style="font-family:DejaVu Sans;font-size:10px;font-stretch:normal;font-style:normal;font-weight:normal;text-anchor:start;" transform="rotate(-0, 114.598958, 135.439468)" x="114.598958" y="135.439468"> </text>
   </g>
   <g id="text_25">
    <text style="font-family:DejaVu Sans;font-size:10px;font-stretch:normal;font-style:normal;font-weight:normal;text-anchor:start;" transform="rotate(-0, 110.999582, 146.280517)" x="110.999582" y="146.280517"> </text>
   </g>
   <g id="text_26">
    <text style="font-family:DejaVu Sans;font-size:10px;font-stretch:normal;font-style:normal;font-weight:normal;text-anchor:start;" transform="rotate(-0, 103.369093, 157.121566)" x="103.369093" y="157.121566"> </text>
   </g>
   <g id="text_27">
    <text style="font-family:DejaVu Sans;font-size:10px;font-stretch:normal;font-style:normal;font-weight:normal;text-anchor:start;" transform="rotate(-0, 88.155895, 167.962616)" x="88.155895" y="167.962616"> </text>
   </g>
   <g id="text_28">
    <text style="font-family:DejaVu Sans;font-size:10px;font-stretch:normal;font-style:normal;font-weight:normal;text-anchor:start;" transform="rotate(-0, 78.736049, 192.354977)" x="78.736049" y="192.354977"> </text>
   </g>
   <g id="text_29">
    <text style="font-family:DejaVu Sans;font-size:10px;font-stretch:normal;font-style:normal;font-weight:normal;text-anchor:start;" transform="rotate(-0, 81.604531, 184.22419)" x="81.604531" y="184.22419"> </text>
   </g>
   <g id="text_30">
    <text style="font-family:DejaVu Sans;font-size:10px;font-stretch:normal;font-style:normal;font-weight:normal;text-anchor:start;" transform="rotate(-0, 81.706116, 178.803665)" x="81.706116" y="178.803665"> </text>
   </g>
   <g id="text_31">
    <text style="font-family:DejaVu Sans;font-size:10px;font-stretch:normal;font-style:normal;font-weight:normal;text-anchor:start;" transform="rotate(-0, 93.353081, 189.644715)" x="93.353081" y="189.644715"> </text>
   </g>
   <g id="text_32">
    <text style="font-family:DejaVu Sans;font-size:10px;font-stretch:normal;font-style:normal;font-weight:normal;text-anchor:start;" transform="rotate(-0, 80.763873, 200.485764)" x="80.763873" y="200.485764"> </text>
   </g>
   <g id="text_33">
    <text style="font-family:DejaVu Sans;font-size:10px;font-stretch:normal;font-style:normal;font-weight:normal;text-anchor:start;" transform="rotate(-0, 46.907265, 211.326813)" x="46.907265" y="211.326813"> </text>
   </g>
   <g id="text_34">
    <text style="font-family:DejaVu Sans;font-size:12px;font-stretch:normal;font-style:normal;font-weight:normal;text-anchor:middle;" transform="rotate(-0, 172.116667, 60.983333)" x="172.116667" y="60.983333">NODE181</text>
   </g>
  </g>
  <g id="axes_2">
   <g id="patch_6">
    <path d="M 10.7 66.983333 
L 333.533333 66.983333 
L 333.533333 34.2 
L 10.7 34.2 
z
" style="fill:#ffffff;"/>
   </g>
   <g id="PolyCollection_1">
    <defs>
     <path d="M 32.222222 -212.984412 
L 32.222222 -212.670729 
L 32.636176 -212.670729 
L 33.050129 -212.670729 
L 33.464083 -212.670729 
L 33.878036 -212.670729 
L 34.291989 -212.670729 
L 34.705943 -212.670729 
L 35.119896 -212.670729 
L 35.53385 -212.670729 
L 35.947803 -212.670729 
L 36.361757 -212.670729 
L 36.77571 -212.670729 
L 37.189664 -212.670729 
L 37.603617 -212.670729 
L 38.01757 -212.670729 
L 38.431524 -212.670729 
L 38.845477 -212.670729 
L 39.259431 -212.670729 
L 39.673384 -212.670729 
L 40.087338 -212.670729 
L 40.501291 -212.670729 
L 40.915245 -212.670729 
L 41.329198 -212.670729 
L 41.743152 -212.670729 
L 42.157105 -212.670729 
L 42.571058 -212.670729 
L 42.985012 -212.670729 
L 43.398965 -212.670729 
L 43.812919 -212.670729 
L 44.226872 -212.670729 
L 44.640826 -212.670729 
L 45.054779 -212.670729 
L 45.468733 -212.670729 
L 45.882686 -212.670729 
L 46.296639 -212.670729 
L 46.710593 -212.670729 
L 47.124546 -212.670729 
L 47.5385 -212.670729 
L 47.952453 -212.670729 
L 48.366407 -212.670729 
L 48.78036 -212.670729 
L 49.194314 -212.670729 
L 49.608267 -212.670729 
L 50.02222 -212.670729 
L 50.436174 -212.670729 
L 50.850127 -212.670729 
L 51.264081 -212.670729 
L 51.678034 -212.670729 
L 52.091988 -212.670729 
L 52.505941 -212.670729 
L 52.919895 -212.670729 
L 53.333848 -212.670729 
L 53.747801 -212.670729 
L 54.161755 -212.670729 
L 54.575708 -212.670729 
L 54.989662 -212.670729 
L 55.403615 -212.670729 
L 55.817569 -212.670729 
L 56.231522 -212.670729 
L 56.645476 -212.670729 
L 57.059429 -212.670729 
L 57.473383 -212.670729 
L 57.887336 -212.670729 
L 58.301289 -212.670729 
L 58.715243 -212.670729 
L 59.129196 -212.670729 
L 59.54315 -212.670729 
L 59.957103 -212.670729 
L 60.371057 -212.670729 
L 60.78501 -212.670729 
L 61.198964 -212.670729 
L 61.612917 -212.670729 
L 62.02687 -212.670729 
L 62.440824 -212.670729 
L 62.854777 -212.670729 
L 63.268731 -212.670729 
L 63.682684 -212.670729 
L 64.096638 -212.670729 
L 64.510591 -212.670729 
L 64.924545 -212.670729 
L 65.338498 -212.670729 
L 65.752451 -212.670729 
L 66.166405 -212.670729 
L 66.580358 -212.670729 
L 66.994312 -212.670729 
L 67.408265 -212.670729 
L 67.822219 -212.670729 
L 68.236172 -212.670729 
L 68.650126 -212.670729 
L 69.064079 -212.670729 
L 69.478032 -212.670729 
L 69.891986 -212.670729 
L 70.305939 -212.670729 
L 70.719893 -212.670729 
L 71.133846 -212.670729 
L 71.5478 -212.670729 
L 71.961753 -212.670729 
L 72.375707 -212.670729 
L 72.78966 -212.670729 
L 73.203613 -212.670729 
L 73.617567 -212.670729 
L 74.03152 -212.670729 
L 74.445474 -212.670729 
L 74.859427 -212.670729 
L 75.273381 -212.670729 
L 75.687334 -212.670729 
L 76.101288 -212.670729 
L 76.515241 -212.670729 
L 76.929195 -212.670729 
L 77.343148 -212.670729 
L 77.757101 -212.670729 
L 78.171055 -212.670729 
L 78.585008 -212.670729 
L 78.998962 -212.670729 
L 79.412915 -212.670729 
L 79.826869 -212.670729 
L 80.240822 -212.670729 
L 80.654776 -212.670729 
L 81.068729 -212.670729 
L 81.482682 -212.670729 
L 81.896636 -212.670729 
L 82.310589 -212.670729 
L 82.724543 -212.670729 
L 83.138496 -212.670729 
L 83.55245 -212.670729 
L 83.966403 -212.670729 
L 84.380357 -212.670729 
L 84.79431 -212.670729 
L 85.208263 -212.670729 
L 85.622217 -212.670729 
L 86.03617 -212.670729 
L 86.450124 -212.670729 
L 86.864077 -212.670729 
L 87.278031 -212.670729 
L 87.691984 -212.670729 
L 88.105938 -212.670729 
L 88.519891 -212.670729 
L 88.933844 -212.670729 
L 89.347798 -212.670729 
L 89.761751 -212.670729 
L 90.175705 -212.670729 
L 90.589658 -212.670729 
L 91.003612 -212.670729 
L 91.417565 -212.670729 
L 91.831519 -212.670729 
L 92.245472 -212.670729 
L 92.659426 -212.670729 
L 93.073379 -212.670729 
L 93.487332 -212.670729 
L 93.901286 -212.670729 
L 94.315239 -212.670729 
L 94.729193 -212.670729 
L 95.143146 -212.670729 
L 95.5571 -212.670729 
L 95.971053 -212.670729 
L 96.385007 -212.670729 
L 96.79896 -212.670729 
L 97.212913 -212.670729 
L 97.626867 -212.670729 
L 98.04082 -212.670729 
L 98.454774 -212.670729 
L 98.868727 -212.670729 
L 99.282681 -212.670729 
L 99.696634 -212.670729 
L 100.110588 -212.670729 
L 100.524541 -212.670729 
L 100.938494 -212.670729 
L 101.352448 -212.670729 
L 101.766401 -212.670729 
L 102.180355 -212.670729 
L 102.594308 -212.670729 
L 103.008262 -212.670729 
L 103.422215 -212.670729 
L 103.836169 -212.670729 
L 104.250122 -212.670729 
L 104.664075 -212.670729 
L 105.078029 -212.670729 
L 105.491982 -212.670729 
L 105.905936 -212.670729 
L 106.319889 -212.670729 
L 106.733843 -212.670729 
L 107.147796 -212.670729 
L 107.56175 -212.670729 
L 107.975703 -212.670729 
L 108.389657 -212.670729 
L 108.80361 -212.670729 
L 109.217563 -212.670729 
L 109.631517 -212.670729 
L 110.04547 -212.670729 
L 110.459424 -212.670729 
L 110.873377 -212.670729 
L 111.287331 -212.670729 
L 111.701284 -212.670729 
L 112.115238 -212.670729 
L 112.529191 -212.670729 
L 112.943144 -212.670729 
L 113.357098 -212.670729 
L 113.771051 -212.670729 
L 114.185005 -212.670729 
L 114.598958 -212.670729 
L 114.598958 -218.763677 
L 114.598958 -218.763677 
L 114.185005 -218.98911 
L 113.771051 -219.212318 
L 113.357098 -219.43275 
L 112.943144 -219.649878 
L 112.529191 -219.863193 
L 112.115238 -220.072217 
L 111.701284 -220.276506 
L 111.287331 -220.475652 
L 110.873377 -220.66929 
L 110.459424 -220.857105 
L 110.04547 -221.038836 
L 109.631517 -221.214285 
L 109.217563 -221.383322 
L 108.80361 -221.545894 
L 108.389657 -221.702033 
L 107.975703 -221.851863 
L 107.56175 -221.995607 
L 107.147796 -222.133597 
L 106.733843 -222.266281 
L 106.319889 -222.394231 
L 105.905936 -222.518146 
L 105.491982 -222.638859 
L 105.078029 -222.757341 
L 104.664075 -222.874703 
L 104.250122 -222.992193 
L 103.836169 -223.1112 
L 103.422215 -223.233243 
L 103.008262 -223.359967 
L 102.594308 -223.493133 
L 102.180355 -223.634604 
L 101.766401 -223.786328 
L 101.352448 -223.950323 
L 100.938494 -224.128651 
L 100.524541 -224.323395 
L 100.110588 -224.536631 
L 99.696634 -224.7704 
L 99.282681 -225.026672 
L 98.868727 -225.30732 
L 98.454774 -225.614075 
L 98.04082 -225.948502 
L 97.626867 -226.311956 
L 97.212913 -226.70555 
L 96.79896 -227.130122 
L 96.385007 -227.5862 
L 95.971053 -228.073978 
L 95.5571 -228.59328 
L 95.143146 -229.143547 
L 94.729193 -229.723809 
L 94.315239 -230.332678 
L 93.901286 -230.968334 
L 93.487332 -231.628524 
L 93.073379 -232.310566 
L 92.659426 -233.011354 
L 92.245472 -233.727378 
L 91.831519 -234.454745 
L 91.417565 -235.189202 
L 91.003612 -235.926178 
L 90.589658 -236.660822 
L 90.175705 -237.388044 
L 89.761751 -238.102574 
L 89.347798 -238.799011 
L 88.933844 -239.471883 
L 88.519891 -240.115711 
L 88.105938 -240.725069 
L 87.691984 -241.294649 
L 87.278031 -241.819328 
L 86.864077 -242.294227 
L 86.450124 -242.714775 
L 86.03617 -243.076765 
L 85.622217 -243.376408 
L 85.208263 -243.610383 
L 84.79431 -243.775879 
L 84.380357 -243.870631 
L 83.966403 -243.892951 
L 83.55245 -243.84175 
L 83.138496 -243.716549 
L 82.724543 -243.517487 
L 82.310589 -243.245318 
L 81.896636 -242.901398 
L 81.482682 -242.487671 
L 81.068729 -242.006639 
L 80.654776 -241.461326 
L 80.240822 -240.855245 
L 79.826869 -240.192347 
L 79.412915 -239.476972 
L 78.998962 -238.713795 
L 78.585008 -237.907766 
L 78.171055 -237.064054 
L 77.757101 -236.187983 
L 77.343148 -235.284972 
L 76.929195 -234.360476 
L 76.515241 -233.419925 
L 76.101288 -232.468672 
L 75.687334 -231.511935 
L 75.273381 -230.554756 
L 74.859427 -229.601949 
L 74.445474 -228.658068 
L 74.03152 -227.72737 
L 73.617567 -226.813789 
L 73.203613 -225.920911 
L 72.78966 -225.051962 
L 72.375707 -224.209796 
L 71.961753 -223.396888 
L 71.5478 -222.615337 
L 71.133846 -221.866869 
L 70.719893 -221.15285 
L 70.305939 -220.474294 
L 69.891986 -219.831887 
L 69.478032 -219.226 
L 69.064079 -218.656719 
L 68.650126 -218.123862 
L 68.236172 -217.627011 
L 67.822219 -217.165533 
L 67.408265 -216.738613 
L 66.994312 -216.345275 
L 66.580358 -215.984412 
L 66.166405 -215.654809 
L 65.752451 -215.355169 
L 65.338498 -215.084133 
L 64.924545 -214.840303 
L 64.510591 -214.62226 
L 64.096638 -214.428581 
L 63.682684 -214.257853 
L 63.268731 -214.108685 
L 62.854777 -213.979722 
L 62.440824 -213.869647 
L 62.02687 -213.777193 
L 61.612917 -213.701145 
L 61.198964 -213.640341 
L 60.78501 -213.593678 
L 60.371057 -213.560104 
L 59.957103 -213.538625 
L 59.54315 -213.528296 
L 59.129196 -213.52822 
L 58.715243 -213.537543 
L 58.301289 -213.555451 
L 57.887336 -213.581163 
L 57.473383 -213.613928 
L 57.059429 -213.653018 
L 56.645476 -213.697727 
L 56.231522 -213.747364 
L 55.817569 -213.80125 
L 55.403615 -213.858715 
L 54.989662 -213.919095 
L 54.575708 -213.981733 
L 54.161755 -214.045977 
L 53.747801 -214.111178 
L 53.333848 -214.176692 
L 52.919895 -214.241886 
L 52.505941 -214.306133 
L 52.091988 -214.368819 
L 51.678034 -214.429348 
L 51.264081 -214.487143 
L 50.850127 -214.541652 
L 50.436174 -214.592352 
L 50.02222 -214.638755 
L 49.608267 -214.680411 
L 49.194314 -214.716914 
L 48.78036 -214.747905 
L 48.366407 -214.773078 
L 47.952453 -214.792181 
L 47.5385 -214.80502 
L 47.124546 -214.811461 
L 46.710593 -214.81143 
L 46.296639 -214.804918 
L 45.882686 -214.791973 
L 45.468733 -214.772707 
L 45.054779 -214.747288 
L 44.640826 -214.71594 
L 44.226872 -214.678937 
L 43.812919 -214.636604 
L 43.398965 -214.589306 
L 42.985012 -214.537444 
L 42.571058 -214.481453 
L 42.157105 -214.421793 
L 41.743152 -214.358939 
L 41.329198 -214.293383 
L 40.915245 -214.225622 
L 40.501291 -214.15615 
L 40.087338 -214.085459 
L 39.673384 -214.014026 
L 39.259431 -213.942313 
L 38.845477 -213.870761 
L 38.431524 -213.799784 
L 38.01757 -213.729768 
L 37.603617 -213.661066 
L 37.189664 -213.594 
L 36.77571 -213.528852 
L 36.361757 -213.46587 
L 35.947803 -213.405266 
L 35.53385 -213.347213 
L 35.119896 -213.29185 
L 34.705943 -213.239279 
L 34.291989 -213.189572 
L 33.878036 -213.142768 
L 33.464083 -213.098878 
L 33.050129 -213.057884 
L 32.636176 -213.019749 
L 32.222222 -212.984412 
z
" id="m32e178047a" style="stroke:#0cc1e8;"/>
    </defs>
    <g clip-path="url(#pf22f6c4387)">
     <use style="fill:#0cc1e8;fill-opacity:0.25;stroke:#0cc1e8;" x="0" xlink:href="#m32e178047a" y="279.654063"/>
    </g>
   </g>
   <g id="patch_7">
    <path clip-path="url(#pf22f6c4387)" d="M 32.222222 66.983333 
L 32.222222 34.2 
L 75.266667 34.2 
L 75.266667 66.983333 
z
" style="fill:#c4c4c4;opacity:0.25;"/>
   </g>
   <g id="matplotlib.axis_3">
    <g id="xtick_9">
     <g id="line2d_11">
      <g>
       <use style="stroke:#000000;stroke-width:0.8;" x="32.222222" xlink:href="#m60a3c56ad5" y="66.983333"/>
      </g>
     </g>
    </g>
    <g id="xtick_10">
     <g id="line2d_12">
      <g>
       <use style="stroke:#000000;stroke-width:0.8;" x="75.266667" xlink:href="#m60a3c56ad5" y="66.983333"/>
      </g>
     </g>
    </g>
    <g id="xtick_11">
     <g id="line2d_13">
      <g>
       <use style="stroke:#000000;stroke-width:0.8;" x="118.311111" xlink:href="#m60a3c56ad5" y="66.983333"/>
      </g>
     </g>
    </g>
    <g id="xtick_12">
     <g id="line2d_14">
      <g>
       <use style="stroke:#000000;stroke-width:0.8;" x="161.355556" xlink:href="#m60a3c56ad5" y="66.983333"/>
      </g>
     </g>
    </g>
    <g id="xtick_13">
     <g id="line2d_15">
      <g>
       <use style="stroke:#000000;stroke-width:0.8;" x="204.4" xlink:href="#m60a3c56ad5" y="66.983333"/>
      </g>
     </g>
    </g>
    <g id="xtick_14">
     <g id="line2d_16">
      <g>
       <use style="stroke:#000000;stroke-width:0.8;" x="247.444444" xlink:href="#m60a3c56ad5" y="66.983333"/>
      </g>
     </g>
    </g>
    <g id="xtick_15">
     <g id="line2d_17">
      <g>
       <use style="stroke:#000000;stroke-width:0.8;" x="290.488889" xlink:href="#m60a3c56ad5" y="66.983333"/>
      </g>
     </g>
    </g>
    <g id="xtick_16">
     <g id="line2d_18">
      <g>
       <use style="stroke:#000000;stroke-width:0.8;" x="333.533333" xlink:href="#m60a3c56ad5" y="66.983333"/>
      </g>
     </g>
    </g>
    <g id="text_35">
     <text style="font-family:DejaVu Sans;font-size:10px;font-stretch:normal;font-style:normal;font-weight:normal;text-anchor:end;" transform="rotate(-0, 333.533333, 77.581771)" x="333.533333" y="77.581771">1e−5</text>
    </g>
   </g>
   <g id="matplotlib.axis_4">
    <g id="ytick_1"/>
    <g id="ytick_2"/>
   </g>
   <g id="line2d_19">
    <path clip-path="url(#pf22f6c4387)" d="M 32.222222 66.983333 
L 32.222222 34.2 
" style="fill:none;stroke:#000000;stroke-dasharray:1.85,0.8;stroke-dashoffset:0;stroke-width:0.5;"/>
   </g>
   <g id="line2d_20">
    <path clip-path="url(#pf22f6c4387)" d="M 75.266667 66.983333 
L 75.266667 34.2 
" style="fill:none;stroke:#000000;stroke-dasharray:1.85,0.8;stroke-dashoffset:0;stroke-width:0.5;"/>
   </g>
   <g id="patch_8">
    <path d="M 10.7 66.983333 
L 333.533333 66.983333 
" style="fill:none;stroke:#000000;stroke-linecap:square;stroke-linejoin:miter;stroke-width:0.8;"/>
   </g>
  </g>
  <g id="axes_3">
   <g id="patch_9">
    <path d="M 333.533333 230.9 
L 398.1 230.9 
L 398.1 66.983333 
L 333.533333 66.983333 
z
" style="fill:#ffffff;"/>
   </g>
   <g id="matplotlib.axis_5">
    <g id="xtick_17"/>
    <g id="xtick_18"/>
    <g id="xtick_19"/>
   </g>
   <g id="matplotlib.axis_6"/>
   <g id="patch_10">
    <path d="M 333.533333 230.9 
L 333.533333 66.983333 
" style="fill:none;stroke:#000000;stroke-linecap:square;stroke-linejoin:miter;stroke-width:0.8;"/>
   </g>
  </g>
  <g id="text_36">
   <text style="font-family:DejaVu Sans;font-size:12px;font-stretch:normal;font-style:normal;font-weight:bold;text-anchor:middle;" transform="rotate(-0, 171.3, 16.318125)" x="171.3" y="16.318125">0.ANT4</text>
  </g>
 </g>
 <defs>
  <clipPath id="pb28ed32b11">
   <rect height="163.916667" width="322.833333" x="10.7" y="66.983333"/>
  </clipPath>
  <clipPath id="pf22f6c4387">
   <rect height="32.783333" width="322.833333" x="10.7" y="34.2"/>
  </clipPath>
 </defs>
</svg>
