<?xml version="1.0" encoding="utf-8" standalone="no"?>
<!DOCTYPE svg PUBLIC "-//W3C//DTD SVG 1.1//EN"
  "http://www.w3.org/Graphics/SVG/1.1/DTD/svg11.dtd">
<!-- Created with matplotlib (https://matplotlib.org/) -->
<svg height="397.232187pt" version="1.1" viewBox="0 0 408.053125 397.232187" width="408.053125pt" xmlns="http://www.w3.org/2000/svg" xmlns:xlink="http://www.w3.org/1999/xlink">
 <metadata>
  <rdf:RDF xmlns:cc="http://creativecommons.org/ns#" xmlns:dc="http://purl.org/dc/elements/1.1/" xmlns:rdf="http://www.w3.org/1999/02/22-rdf-syntax-ns#">
   <cc:Work>
    <dc:type rdf:resource="http://purl.org/dc/dcmitype/StillImage"/>
    <dc:date>2021-09-17T15:06:08.488837</dc:date>
    <dc:format>image/svg+xml</dc:format>
    <dc:creator>
     <cc:Agent>
      <dc:title>Matplotlib v3.3.2, https://matplotlib.org/</dc:title>
     </cc:Agent>
    </dc:creator>
   </cc:Work>
  </rdf:RDF>
 </metadata>
 <defs>
  <style type="text/css">*{stroke-linecap:butt;stroke-linejoin:round;}</style>
 </defs>
 <g id="figure_1">
  <g id="patch_1">
   <path d="M 0 397.232187 
L 408.053125 397.232187 
L 408.053125 0 
L 0 0 
z
" style="fill:#ffffff;"/>
  </g>
  <g id="axes_1">
   <g id="patch_2">
    <path d="M 66.053125 170.57267 
L 400.853125 170.57267 
L 400.853125 22.318125 
L 66.053125 22.318125 
z
" style="fill:#ffffff;"/>
   </g>
   <g id="PolyCollection_1">
    <defs>
     <path d="M 92.253896 -247.143828 
L 92.253896 -226.659517 
L 93.494496 -226.659517 
L 94.735096 -226.659517 
L 95.975696 -226.659517 
L 97.216296 -226.659517 
L 98.456895 -226.659517 
L 99.697495 -226.659517 
L 100.938095 -226.659517 
L 102.178695 -226.659517 
L 103.419295 -226.659517 
L 104.659895 -226.659517 
L 105.900495 -226.659517 
L 107.141095 -226.659517 
L 108.381695 -226.659517 
L 109.622295 -226.659517 
L 110.862895 -226.659517 
L 112.103495 -226.659517 
L 113.344094 -226.659517 
L 114.584694 -226.659517 
L 115.825294 -226.659517 
L 117.065894 -226.659517 
L 118.306494 -226.659517 
L 119.547094 -226.659517 
L 120.787694 -226.659517 
L 122.028294 -226.659517 
L 123.268894 -226.659517 
L 124.509494 -226.659517 
L 125.750094 -226.659517 
L 126.990693 -226.659517 
L 128.231293 -226.659517 
L 129.471893 -226.659517 
L 130.712493 -226.659517 
L 131.953093 -226.659517 
L 133.193693 -226.659517 
L 134.434293 -226.659517 
L 135.674893 -226.659517 
L 136.915493 -226.659517 
L 138.156093 -226.659517 
L 139.396693 -226.659517 
L 140.637293 -226.659517 
L 141.877892 -226.659517 
L 143.118492 -226.659517 
L 144.359092 -226.659517 
L 145.599692 -226.659517 
L 146.840292 -226.659517 
L 148.080892 -226.659517 
L 149.321492 -226.659517 
L 150.562092 -226.659517 
L 151.802692 -226.659517 
L 153.043292 -226.659517 
L 154.283892 -226.659517 
L 155.524492 -226.659517 
L 156.765091 -226.659517 
L 158.005691 -226.659517 
L 159.246291 -226.659517 
L 160.486891 -226.659517 
L 161.727491 -226.659517 
L 162.968091 -226.659517 
L 164.208691 -226.659517 
L 165.449291 -226.659517 
L 166.689891 -226.659517 
L 167.930491 -226.659517 
L 169.171091 -226.659517 
L 170.411691 -226.659517 
L 171.65229 -226.659517 
L 172.89289 -226.659517 
L 174.13349 -226.659517 
L 175.37409 -226.659517 
L 176.61469 -226.659517 
L 177.85529 -226.659517 
L 179.09589 -226.659517 
L 180.33649 -226.659517 
L 181.57709 -226.659517 
L 182.81769 -226.659517 
L 184.05829 -226.659517 
L 185.29889 -226.659517 
L 186.539489 -226.659517 
L 187.780089 -226.659517 
L 189.020689 -226.659517 
L 190.261289 -226.659517 
L 191.501889 -226.659517 
L 192.742489 -226.659517 
L 193.983089 -226.659517 
L 195.223689 -226.659517 
L 196.464289 -226.659517 
L 197.704889 -226.659517 
L 198.945489 -226.659517 
L 200.186089 -226.659517 
L 201.426688 -226.659517 
L 202.667288 -226.659517 
L 203.907888 -226.659517 
L 205.148488 -226.659517 
L 206.389088 -226.659517 
L 207.629688 -226.659517 
L 208.870288 -226.659517 
L 210.110888 -226.659517 
L 211.351488 -226.659517 
L 212.592088 -226.659517 
L 213.832688 -226.659517 
L 215.073288 -226.659517 
L 216.313887 -226.659517 
L 217.554487 -226.659517 
L 218.795087 -226.659517 
L 220.035687 -226.659517 
L 221.276287 -226.659517 
L 222.516887 -226.659517 
L 223.757487 -226.659517 
L 224.998087 -226.659517 
L 226.238687 -226.659517 
L 227.479287 -226.659517 
L 228.719887 -226.659517 
L 229.960487 -226.659517 
L 231.201086 -226.659517 
L 232.441686 -226.659517 
L 233.682286 -226.659517 
L 234.922886 -226.659517 
L 236.163486 -226.659517 
L 237.404086 -226.659517 
L 238.644686 -226.659517 
L 239.885286 -226.659517 
L 241.125886 -226.659517 
L 242.366486 -226.659517 
L 243.607086 -226.659517 
L 244.847686 -226.659517 
L 246.088285 -226.659517 
L 247.328885 -226.659517 
L 248.569485 -226.659517 
L 249.810085 -226.659517 
L 251.050685 -226.659517 
L 252.291285 -226.659517 
L 253.531885 -226.659517 
L 254.772485 -226.659517 
L 256.013085 -226.659517 
L 257.253685 -226.659517 
L 258.494285 -226.659517 
L 259.734885 -226.659517 
L 260.975484 -226.659517 
L 262.216084 -226.659517 
L 263.456684 -226.659517 
L 264.697284 -226.659517 
L 265.937884 -226.659517 
L 267.178484 -226.659517 
L 268.419084 -226.659517 
L 269.659684 -226.659517 
L 270.900284 -226.659517 
L 272.140884 -226.659517 
L 273.381484 -226.659517 
L 274.622084 -226.659517 
L 275.862683 -226.659517 
L 277.103283 -226.659517 
L 278.343883 -226.659517 
L 279.584483 -226.659517 
L 280.825083 -226.659517 
L 282.065683 -226.659517 
L 283.306283 -226.659517 
L 284.546883 -226.659517 
L 285.787483 -226.659517 
L 287.028083 -226.659517 
L 288.268683 -226.659517 
L 289.509283 -226.659517 
L 290.749882 -226.659517 
L 291.990482 -226.659517 
L 293.231082 -226.659517 
L 294.471682 -226.659517 
L 295.712282 -226.659517 
L 296.952882 -226.659517 
L 298.193482 -226.659517 
L 299.434082 -226.659517 
L 300.674682 -226.659517 
L 301.915282 -226.659517 
L 303.155882 -226.659517 
L 304.396482 -226.659517 
L 305.637081 -226.659517 
L 306.877681 -226.659517 
L 308.118281 -226.659517 
L 309.358881 -226.659517 
L 310.599481 -226.659517 
L 311.840081 -226.659517 
L 313.080681 -226.659517 
L 314.321281 -226.659517 
L 315.561881 -226.659517 
L 316.802481 -226.659517 
L 318.043081 -226.659517 
L 319.283681 -226.659517 
L 320.52428 -226.659517 
L 321.76488 -226.659517 
L 323.00548 -226.659517 
L 324.24608 -226.659517 
L 325.48668 -226.659517 
L 326.72728 -226.659517 
L 327.96788 -226.659517 
L 329.20848 -226.659517 
L 330.44908 -226.659517 
L 331.68968 -226.659517 
L 332.93028 -226.659517 
L 334.17088 -226.659517 
L 335.411479 -226.659517 
L 336.652079 -226.659517 
L 337.892679 -226.659517 
L 339.133279 -226.659517 
L 339.133279 -289.917142 
L 339.133279 -289.917142 
L 337.892679 -291.449552 
L 336.652079 -292.97678 
L 335.411479 -294.497822 
L 334.17088 -296.011741 
L 332.93028 -297.517668 
L 331.68968 -299.014803 
L 330.44908 -300.502418 
L 329.20848 -301.979852 
L 327.96788 -303.446514 
L 326.72728 -304.901879 
L 325.48668 -306.345485 
L 324.24608 -307.77693 
L 323.00548 -309.195871 
L 321.76488 -310.602017 
L 320.52428 -311.995125 
L 319.283681 -313.374995 
L 318.043081 -314.741465 
L 316.802481 -316.094407 
L 315.561881 -317.433718 
L 314.321281 -318.759316 
L 313.080681 -320.071132 
L 311.840081 -321.369108 
L 310.599481 -322.653187 
L 309.358881 -323.92331 
L 308.118281 -325.17941 
L 306.877681 -326.421406 
L 305.637081 -327.649198 
L 304.396482 -328.862667 
L 303.155882 -330.061663 
L 301.915282 -331.246012 
L 300.674682 -332.415506 
L 299.434082 -333.569904 
L 298.193482 -334.708931 
L 296.952882 -335.832276 
L 295.712282 -336.939595 
L 294.471682 -338.030511 
L 293.231082 -339.104613 
L 291.990482 -340.161462 
L 290.749882 -341.200594 
L 289.509283 -342.221523 
L 288.268683 -343.223742 
L 287.028083 -344.206735 
L 285.787483 -345.169976 
L 284.546883 -346.112939 
L 283.306283 -347.035101 
L 282.065683 -347.935953 
L 280.825083 -348.815 
L 279.584483 -349.671773 
L 278.343883 -350.505835 
L 277.103283 -351.316785 
L 275.862683 -352.104267 
L 274.622084 -352.867974 
L 273.381484 -353.607656 
L 272.140884 -354.323123 
L 270.900284 -355.01425 
L 269.659684 -355.680983 
L 268.419084 -356.323339 
L 267.178484 -356.94141 
L 265.937884 -357.535366 
L 264.697284 -358.105453 
L 263.456684 -358.651996 
L 262.216084 -359.175392 
L 260.975484 -359.676116 
L 259.734885 -360.154711 
L 258.494285 -360.611785 
L 257.253685 -361.04801 
L 256.013085 -361.464111 
L 254.772485 -361.860861 
L 253.531885 -362.239072 
L 252.291285 -362.599591 
L 251.050685 -362.943284 
L 249.810085 -363.271029 
L 248.569485 -363.583707 
L 247.328885 -363.882189 
L 246.088285 -364.167328 
L 244.847686 -364.439941 
L 243.607086 -364.700804 
L 242.366486 -364.95064 
L 241.125886 -365.190102 
L 239.885286 -365.419769 
L 238.644686 -365.640132 
L 237.404086 -365.851582 
L 236.163486 -366.054405 
L 234.922886 -366.248772 
L 233.682286 -366.434727 
L 232.441686 -366.612187 
L 231.201086 -366.780929 
L 229.960487 -366.940593 
L 228.719887 -367.090671 
L 227.479287 -367.230511 
L 226.238687 -367.359311 
L 224.998087 -367.476122 
L 223.757487 -367.579852 
L 222.516887 -367.669264 
L 221.276287 -367.742984 
L 220.035687 -367.799507 
L 218.795087 -367.837202 
L 217.554487 -367.854322 
L 216.313887 -367.849015 
L 215.073288 -367.81933 
L 213.832688 -367.763236 
L 212.592088 -367.678629 
L 211.351488 -367.563349 
L 210.110888 -367.415193 
L 208.870288 -367.231932 
L 207.629688 -367.011324 
L 206.389088 -366.751134 
L 205.148488 -366.449149 
L 203.907888 -366.103192 
L 202.667288 -365.711145 
L 201.426688 -365.270959 
L 200.186089 -364.780676 
L 198.945489 -364.238442 
L 197.704889 -363.642523 
L 196.464289 -362.991321 
L 195.223689 -362.283389 
L 193.983089 -361.517442 
L 192.742489 -360.692371 
L 191.501889 -359.807257 
L 190.261289 -358.861377 
L 189.020689 -357.854215 
L 187.780089 -356.785471 
L 186.539489 -355.655067 
L 185.29889 -354.463151 
L 184.05829 -353.210102 
L 182.81769 -351.896531 
L 181.57709 -350.523285 
L 180.33649 -349.091442 
L 179.09589 -347.60231 
L 177.85529 -346.057425 
L 176.61469 -344.458547 
L 175.37409 -342.807647 
L 174.13349 -341.106908 
L 172.89289 -339.358708 
L 171.65229 -337.565615 
L 170.411691 -335.730372 
L 169.171091 -333.855885 
L 167.930491 -331.945213 
L 166.689891 -330.001545 
L 165.449291 -328.028195 
L 164.208691 -326.028578 
L 162.968091 -324.006195 
L 161.727491 -321.964619 
L 160.486891 -319.907474 
L 159.246291 -317.838418 
L 158.005691 -315.761126 
L 156.765091 -313.679271 
L 155.524492 -311.596507 
L 154.283892 -309.516451 
L 153.043292 -307.442666 
L 151.802692 -305.378644 
L 150.562092 -303.327789 
L 149.321492 -301.293404 
L 148.080892 -299.278672 
L 146.840292 -297.286648 
L 145.599692 -295.32024 
L 144.359092 -293.3822 
L 143.118492 -291.475115 
L 141.877892 -289.601393 
L 140.637293 -287.763258 
L 139.396693 -285.96274 
L 138.156093 -284.201674 
L 136.915493 -282.481687 
L 135.674893 -280.804205 
L 134.434293 -279.170442 
L 133.193693 -277.581405 
L 131.953093 -276.037892 
L 130.712493 -274.540495 
L 129.471893 -273.089603 
L 128.231293 -271.685405 
L 126.990693 -270.3279 
L 125.750094 -269.016896 
L 124.509494 -267.752025 
L 123.268894 -266.532749 
L 122.028294 -265.358367 
L 120.787694 -264.228029 
L 119.547094 -263.140745 
L 118.306494 -262.095396 
L 117.065894 -261.090747 
L 115.825294 -260.12546 
L 114.584694 -259.198103 
L 113.344094 -258.30717 
L 112.103495 -257.451084 
L 110.862895 -256.628221 
L 109.622295 -255.836913 
L 108.381695 -255.075466 
L 107.141095 -254.342173 
L 105.900495 -253.635321 
L 104.659895 -252.953207 
L 103.419295 -252.294148 
L 102.178695 -251.656488 
L 100.938095 -251.038614 
L 99.697495 -250.438958 
L 98.456895 -249.85601 
L 97.216296 -249.288323 
L 95.975696 -248.734521 
L 94.735096 -248.193303 
L 93.494496 -247.663451 
L 92.253896 -247.143828 
z
" id="mfa66b8ecea" style="stroke:#3ae8d7;"/>
    </defs>
    <g clip-path="url(#pbaf9e9eaa8)">
     <use style="fill:#3ae8d7;fill-opacity:0.25;stroke:#3ae8d7;" x="0" xlink:href="#mfa66b8ecea" y="397.232187"/>
    </g>
   </g>
   <g id="matplotlib.axis_1">
    <g id="xtick_1">
     <g id="line2d_1">
      <defs>
       <path d="M 0 0 
L 0 3.5 
" id="m624a8b6365" style="stroke:#000000;stroke-width:0.8;"/>
      </defs>
      <g>
       <use style="stroke:#000000;stroke-width:0.8;" x="92.253896" xlink:href="#m624a8b6365" y="170.57267"/>
      </g>
     </g>
    </g>
    <g id="xtick_2">
     <g id="line2d_2">
      <g>
       <use style="stroke:#000000;stroke-width:0.8;" x="144.655438" xlink:href="#m624a8b6365" y="170.57267"/>
      </g>
     </g>
    </g>
    <g id="xtick_3">
     <g id="line2d_3">
      <g>
       <use style="stroke:#000000;stroke-width:0.8;" x="197.056979" xlink:href="#m624a8b6365" y="170.57267"/>
      </g>
     </g>
    </g>
    <g id="xtick_4">
     <g id="line2d_4">
      <g>
       <use style="stroke:#000000;stroke-width:0.8;" x="249.458521" xlink:href="#m624a8b6365" y="170.57267"/>
      </g>
     </g>
    </g>
    <g id="xtick_5">
     <g id="line2d_5">
      <g>
       <use style="stroke:#000000;stroke-width:0.8;" x="301.860063" xlink:href="#m624a8b6365" y="170.57267"/>
      </g>
     </g>
    </g>
    <g id="xtick_6">
     <g id="line2d_6">
      <g>
       <use style="stroke:#000000;stroke-width:0.8;" x="354.261604" xlink:href="#m624a8b6365" y="170.57267"/>
      </g>
     </g>
    </g>
   </g>
   <g id="matplotlib.axis_2">
    <g id="ytick_1">
     <g id="line2d_7">
      <defs>
       <path d="M 0 0 
L -3.5 0 
" id="m23d1ecdaac" style="stroke:#000000;stroke-width:0.8;"/>
      </defs>
      <g>
       <use style="stroke:#000000;stroke-width:0.8;" x="66.053125" xlink:href="#m23d1ecdaac" y="170.57267"/>
      </g>
     </g>
     <g id="text_1">
      <text style="font-family:DejaVu Sans;font-size:10px;font-stretch:normal;font-style:normal;font-weight:normal;text-anchor:end;" transform="rotate(-0, 59.053125, 174.371889)" x="59.053125" y="174.371889">0</text>
     </g>
    </g>
    <g id="ytick_2">
     <g id="line2d_8">
      <g>
       <use style="stroke:#000000;stroke-width:0.8;" x="66.053125" xlink:href="#m23d1ecdaac" y="144.632581"/>
      </g>
     </g>
     <g id="text_2">
      <text style="font-family:DejaVu Sans;font-size:10px;font-stretch:normal;font-style:normal;font-weight:normal;text-anchor:end;" transform="rotate(-0, 59.053125, 148.4318)" x="59.053125" y="148.4318">25000</text>
     </g>
    </g>
    <g id="ytick_3">
     <g id="line2d_9">
      <g>
       <use style="stroke:#000000;stroke-width:0.8;" x="66.053125" xlink:href="#m23d1ecdaac" y="118.692492"/>
      </g>
     </g>
     <g id="text_3">
      <text style="font-family:DejaVu Sans;font-size:10px;font-stretch:normal;font-style:normal;font-weight:normal;text-anchor:end;" transform="rotate(-0, 59.053125, 122.49171)" x="59.053125" y="122.49171">50000</text>
     </g>
    </g>
    <g id="ytick_4">
     <g id="line2d_10">
      <g>
       <use style="stroke:#000000;stroke-width:0.8;" x="66.053125" xlink:href="#m23d1ecdaac" y="92.752402"/>
      </g>
     </g>
     <g id="text_4">
      <text style="font-family:DejaVu Sans;font-size:10px;font-stretch:normal;font-style:normal;font-weight:normal;text-anchor:end;" transform="rotate(-0, 59.053125, 96.551621)" x="59.053125" y="96.551621">75000</text>
     </g>
    </g>
    <g id="ytick_5">
     <g id="line2d_11">
      <g>
       <use style="stroke:#000000;stroke-width:0.8;" x="66.053125" xlink:href="#m23d1ecdaac" y="66.812313"/>
      </g>
     </g>
     <g id="text_5">
      <text style="font-family:DejaVu Sans;font-size:10px;font-stretch:normal;font-style:normal;font-weight:normal;text-anchor:end;" transform="rotate(-0, 59.053125, 70.611532)" x="59.053125" y="70.611532">100000</text>
     </g>
    </g>
    <g id="ytick_6">
     <g id="line2d_12">
      <g>
       <use style="stroke:#000000;stroke-width:0.8;" x="66.053125" xlink:href="#m23d1ecdaac" y="40.872224"/>
      </g>
     </g>
     <g id="text_6">
      <text style="font-family:DejaVu Sans;font-size:10px;font-stretch:normal;font-style:normal;font-weight:normal;text-anchor:end;" transform="rotate(-0, 59.053125, 44.671442)" x="59.053125" y="44.671442">125000</text>
     </g>
    </g>
    <g id="text_7">
     <text style="font-family:DejaVu Sans;font-size:10px;font-stretch:normal;font-style:normal;font-weight:normal;text-anchor:middle;" transform="rotate(-90, 14.798438, 96.445398)" x="14.798438" y="96.445398">Density</text>
    </g>
   </g>
   <g id="patch_3">
    <path d="M 66.053125 170.57267 
L 66.053125 22.318125 
" style="fill:none;stroke:#000000;stroke-linecap:square;stroke-linejoin:miter;stroke-width:0.8;"/>
   </g>
   <g id="patch_4">
    <path d="M 400.853125 170.57267 
L 400.853125 22.318125 
" style="fill:none;stroke:#000000;stroke-linecap:square;stroke-linejoin:miter;stroke-width:0.8;"/>
   </g>
   <g id="patch_5">
    <path d="M 66.053125 170.57267 
L 400.853125 170.57267 
" style="fill:none;stroke:#000000;stroke-linecap:square;stroke-linejoin:miter;stroke-width:0.8;"/>
   </g>
   <g id="patch_6">
    <path d="M 66.053125 22.318125 
L 400.853125 22.318125 
" style="fill:none;stroke:#000000;stroke-linecap:square;stroke-linejoin:miter;stroke-width:0.8;"/>
   </g>
   <g id="text_8">
    <text style="font-family:DejaVu Sans;font-size:12px;font-stretch:normal;font-style:normal;font-weight:normal;text-anchor:middle;" transform="rotate(-0, 233.453125, 16.318125)" x="233.453125" y="16.318125">3.ANT</text>
   </g>
  </g>
  <g id="axes_2">
   <g id="patch_7">
    <path d="M 66.053125 348.478125 
L 400.853125 348.478125 
L 400.853125 200.22358 
L 66.053125 200.22358 
z
" style="fill:#ffffff;"/>
   </g>
   <g id="matplotlib.axis_3">
    <g id="xtick_7">
     <g id="line2d_13">
      <g>
       <use style="stroke:#000000;stroke-width:0.8;" x="92.253896" xlink:href="#m624a8b6365" y="348.478125"/>
      </g>
     </g>
     <g id="text_9">
      <text style="font-family:DejaVu Sans;font-size:10px;font-stretch:normal;font-style:normal;font-weight:normal;text-anchor:middle;" transform="rotate(-0, 92.253896, 363.076562)" x="92.253896" y="363.076562">0.0</text>
     </g>
    </g>
    <g id="xtick_8">
     <g id="line2d_14">
      <g>
       <use style="stroke:#000000;stroke-width:0.8;" x="144.655438" xlink:href="#m624a8b6365" y="348.478125"/>
      </g>
     </g>
     <g id="text_10">
      <text style="font-family:DejaVu Sans;font-size:10px;font-stretch:normal;font-style:normal;font-weight:normal;text-anchor:middle;" transform="rotate(-0, 144.655438, 363.076562)" x="144.655438" y="363.076562">0.2</text>
     </g>
    </g>
    <g id="xtick_9">
     <g id="line2d_15">
      <g>
       <use style="stroke:#000000;stroke-width:0.8;" x="197.056979" xlink:href="#m624a8b6365" y="348.478125"/>
      </g>
     </g>
     <g id="text_11">
      <text style="font-family:DejaVu Sans;font-size:10px;font-stretch:normal;font-style:normal;font-weight:normal;text-anchor:middle;" transform="rotate(-0, 197.056979, 363.076562)" x="197.056979" y="363.076562">0.4</text>
     </g>
    </g>
    <g id="xtick_10">
     <g id="line2d_16">
      <g>
       <use style="stroke:#000000;stroke-width:0.8;" x="249.458521" xlink:href="#m624a8b6365" y="348.478125"/>
      </g>
     </g>
     <g id="text_12">
      <text style="font-family:DejaVu Sans;font-size:10px;font-stretch:normal;font-style:normal;font-weight:normal;text-anchor:middle;" transform="rotate(-0, 249.458521, 363.076562)" x="249.458521" y="363.076562">0.6</text>
     </g>
    </g>
    <g id="xtick_11">
     <g id="line2d_17">
      <g>
       <use style="stroke:#000000;stroke-width:0.8;" x="301.860063" xlink:href="#m624a8b6365" y="348.478125"/>
      </g>
     </g>
     <g id="text_13">
      <text style="font-family:DejaVu Sans;font-size:10px;font-stretch:normal;font-style:normal;font-weight:normal;text-anchor:middle;" transform="rotate(-0, 301.860063, 363.076562)" x="301.860063" y="363.076562">0.8</text>
     </g>
    </g>
    <g id="xtick_12">
     <g id="line2d_18">
      <g>
       <use style="stroke:#000000;stroke-width:0.8;" x="354.261604" xlink:href="#m624a8b6365" y="348.478125"/>
      </g>
     </g>
     <g id="text_14">
      <text style="font-family:DejaVu Sans;font-size:10px;font-stretch:normal;font-style:normal;font-weight:normal;text-anchor:middle;" transform="rotate(-0, 354.261604, 363.076562)" x="354.261604" y="363.076562">1.0</text>
     </g>
    </g>
    <g id="text_15">
     <text style="font-family:DejaVu Sans;font-size:10px;font-stretch:normal;font-style:normal;font-weight:normal;" transform="translate(192.064844 376.754687)">Distance to Root</text>
     <text style="font-family:DejaVu Sans;font-size:10px;font-stretch:normal;font-style:normal;font-weight:normal;" transform="translate(185.485156 387.9525)">(Substitutions/Site)</text>
    </g>
    <g id="text_16">
     <text style="font-family:DejaVu Sans;font-size:10px;font-stretch:normal;font-style:normal;font-weight:normal;text-anchor:end;" transform="rotate(-0, 400.853125, 375.754687)" x="400.853125" y="375.754687">1e−5</text>
    </g>
   </g>
   <g id="matplotlib.axis_4">
    <g id="text_17">
     <text style="font-family:DejaVu Sans;font-size:10px;font-stretch:normal;font-style:normal;font-weight:normal;text-anchor:middle;" transform="rotate(-90, 59.973438, 274.350852)" x="59.973438" y="274.350852">Taxa</text>
    </g>
   </g>
   <g id="LineCollection_1">
    <path clip-path="url(#p0ec411cd80)" d="M 92.253896 295.485379 
L 92.253896 295.485379 
" style="fill:none;stroke:#3ae8d7;"/>
   </g>
   <g id="LineCollection_2">
    <path clip-path="url(#p0ec411cd80)" d="M 92.253896 272.686716 
L 197.177503 272.686716 
" style="fill:none;stroke:#3ae8d7;"/>
   </g>
   <g id="LineCollection_3">
    <path clip-path="url(#p0ec411cd80)" d="M 197.177503 260.37211 
L 215.693588 260.37211 
" style="fill:none;stroke:#3ae8d7;"/>
   </g>
   <g id="LineCollection_4">
    <path clip-path="url(#p0ec411cd80)" d="M 215.693588 246.393368 
L 234.209672 246.393368 
" style="fill:none;stroke:#3ae8d7;"/>
   </g>
   <g id="LineCollection_5">
    <path clip-path="url(#p0ec411cd80)" d="M 234.209672 234.411589 
L 240.382574 234.411589 
" style="fill:none;stroke:#3ae8d7;"/>
   </g>
   <g id="LineCollection_6">
    <path clip-path="url(#p0ec411cd80)" d="M 240.382574 226.423736 
L 252.725757 226.423736 
" style="fill:none;stroke:#3ae8d7;"/>
   </g>
   <g id="LineCollection_7">
    <path clip-path="url(#p0ec411cd80)" d="M 252.725757 221.098501 
L 265.06894 221.098501 
" style="fill:none;stroke:#3ae8d7;"/>
   </g>
   <g id="LineCollection_8">
    <path clip-path="url(#p0ec411cd80)" d="M 252.725757 231.748971 
L 283.585025 231.748971 
" style="fill:none;stroke:#3ae8d7;"/>
   </g>
   <g id="LineCollection_9">
    <path clip-path="url(#p0ec411cd80)" d="M 240.382574 242.399442 
L 339.133279 242.399442 
" style="fill:none;stroke:#3ae8d7;"/>
   </g>
   <g id="LineCollection_10">
    <path clip-path="url(#p0ec411cd80)" d="M 234.209672 258.375147 
L 308.274011 258.375147 
" style="fill:none;stroke:#3ae8d7;"/>
   </g>
   <g id="LineCollection_11">
    <path clip-path="url(#p0ec411cd80)" d="M 308.274011 253.049912 
L 332.962998 253.049912 
" style="fill:none;stroke:#3ae8d7;"/>
   </g>
   <g id="LineCollection_12">
    <path clip-path="url(#p0ec411cd80)" d="M 308.274011 263.700382 
L 308.892349 263.700382 
" style="fill:none;stroke:#3ae8d7;"/>
   </g>
   <g id="LineCollection_13">
    <path clip-path="url(#p0ec411cd80)" d="M 215.693588 274.350852 
L 271.241842 274.350852 
" style="fill:none;stroke:#3ae8d7;"/>
   </g>
   <g id="LineCollection_14">
    <path clip-path="url(#p0ec411cd80)" d="M 197.177503 285.001322 
L 265.06894 285.001322 
" style="fill:none;stroke:#3ae8d7;"/>
   </g>
   <g id="LineCollection_15">
    <path clip-path="url(#p0ec411cd80)" d="M 92.253896 318.284042 
L 98.426797 318.284042 
" style="fill:none;stroke:#3ae8d7;"/>
   </g>
   <g id="LineCollection_16">
    <path clip-path="url(#p0ec411cd80)" d="M 98.426797 308.96488 
L 165.610814 308.96488 
" style="fill:none;stroke:#3ae8d7;"/>
   </g>
   <g id="LineCollection_17">
    <path clip-path="url(#p0ec411cd80)" d="M 165.610814 300.977028 
L 171.783716 300.977028 
" style="fill:none;stroke:#3ae8d7;"/>
   </g>
   <g id="LineCollection_18">
    <path clip-path="url(#p0ec411cd80)" d="M 171.783716 295.651793 
L 196.472702 295.651793 
" style="fill:none;stroke:#3ae8d7;"/>
   </g>
   <g id="LineCollection_19">
    <path clip-path="url(#p0ec411cd80)" d="M 171.783716 306.302263 
L 196.472702 306.302263 
" style="fill:none;stroke:#3ae8d7;"/>
   </g>
   <g id="LineCollection_20">
    <path clip-path="url(#p0ec411cd80)" d="M 165.610814 316.952733 
L 196.470082 316.952733 
" style="fill:none;stroke:#3ae8d7;"/>
   </g>
   <g id="LineCollection_21">
    <path clip-path="url(#p0ec411cd80)" d="M 98.426797 327.603203 
L 166.318235 327.603203 
" style="fill:none;stroke:#3ae8d7;"/>
   </g>
   <g id="LineCollection_22">
    <path clip-path="url(#p0ec411cd80)" d="M 92.253896 318.284042 
L 92.253896 272.686716 
" style="fill:none;stroke:#3ae8d7;"/>
   </g>
   <g id="LineCollection_23">
    <path clip-path="url(#p0ec411cd80)" d="M 197.177503 285.001322 
L 197.177503 260.37211 
" style="fill:none;stroke:#3ae8d7;"/>
   </g>
   <g id="LineCollection_24">
    <path clip-path="url(#p0ec411cd80)" d="M 215.693588 274.350852 
L 215.693588 246.393368 
" style="fill:none;stroke:#3ae8d7;"/>
   </g>
   <g id="LineCollection_25">
    <path clip-path="url(#p0ec411cd80)" d="M 234.209672 258.375147 
L 234.209672 234.411589 
" style="fill:none;stroke:#3ae8d7;"/>
   </g>
   <g id="LineCollection_26">
    <path clip-path="url(#p0ec411cd80)" d="M 240.382574 242.399442 
L 240.382574 226.423736 
" style="fill:none;stroke:#3ae8d7;"/>
   </g>
   <g id="LineCollection_27">
    <path clip-path="url(#p0ec411cd80)" d="M 252.725757 231.748971 
L 252.725757 221.098501 
" style="fill:none;stroke:#3ae8d7;"/>
   </g>
   <g id="LineCollection_28">
    <path clip-path="url(#p0ec411cd80)" d="M 308.274011 263.700382 
L 308.274011 253.049912 
" style="fill:none;stroke:#3ae8d7;"/>
   </g>
   <g id="LineCollection_29">
    <path clip-path="url(#p0ec411cd80)" d="M 98.426797 327.603203 
L 98.426797 308.96488 
" style="fill:none;stroke:#3ae8d7;"/>
   </g>
   <g id="LineCollection_30">
    <path clip-path="url(#p0ec411cd80)" d="M 165.610814 316.952733 
L 165.610814 300.977028 
" style="fill:none;stroke:#3ae8d7;"/>
   </g>
   <g id="LineCollection_31">
    <path clip-path="url(#p0ec411cd80)" d="M 171.783716 306.302263 
L 171.783716 295.651793 
" style="fill:none;stroke:#3ae8d7;"/>
   </g>
   <g id="PathCollection_1">
    <defs>
     <path d="M 0 1.581139 
C 0.419323 1.581139 0.821528 1.41454 1.118034 1.118034 
C 1.41454 0.821528 1.581139 0.419323 1.581139 0 
C 1.581139 -0.419323 1.41454 -0.821528 1.118034 -1.118034 
C 0.821528 -1.41454 0.419323 -1.581139 0 -1.581139 
C -0.419323 -1.581139 -0.821528 -1.41454 -1.118034 -1.118034 
C -1.41454 -0.821528 -1.581139 -0.419323 -1.581139 0 
C -1.581139 0.419323 -1.41454 0.821528 -1.118034 1.118034 
C -0.821528 1.41454 -0.419323 1.581139 0 1.581139 
z
" id="m13a9506e58" style="stroke:#000000;stroke-width:0.252982;"/>
    </defs>
    <g clip-path="url(#p0ec411cd80)">
     <use style="fill:#3ae8d7;stroke:#000000;stroke-width:0.252982;" x="265.06894" xlink:href="#m13a9506e58" y="221.098501"/>
     <use style="fill:#3ae8d7;stroke:#000000;stroke-width:0.252982;" x="283.585025" xlink:href="#m13a9506e58" y="231.748971"/>
     <use style="fill:#3ae8d7;stroke:#000000;stroke-width:0.252982;" x="339.133279" xlink:href="#m13a9506e58" y="242.399442"/>
     <use style="fill:#3ae8d7;stroke:#000000;stroke-width:0.252982;" x="332.962998" xlink:href="#m13a9506e58" y="253.049912"/>
     <use style="fill:#3ae8d7;stroke:#000000;stroke-width:0.252982;" x="308.892349" xlink:href="#m13a9506e58" y="263.700382"/>
     <use style="fill:#3ae8d7;stroke:#000000;stroke-width:0.252982;" x="271.241842" xlink:href="#m13a9506e58" y="274.350852"/>
     <use style="fill:#3ae8d7;stroke:#000000;stroke-width:0.252982;" x="265.06894" xlink:href="#m13a9506e58" y="285.001322"/>
     <use style="fill:#3ae8d7;stroke:#000000;stroke-width:0.252982;" x="196.472702" xlink:href="#m13a9506e58" y="295.651793"/>
     <use style="fill:#3ae8d7;stroke:#000000;stroke-width:0.252982;" x="196.472702" xlink:href="#m13a9506e58" y="306.302263"/>
     <use style="fill:#3ae8d7;stroke:#000000;stroke-width:0.252982;" x="196.470082" xlink:href="#m13a9506e58" y="316.952733"/>
     <use style="fill:#3ae8d7;stroke:#000000;stroke-width:0.252982;" x="166.318235" xlink:href="#m13a9506e58" y="327.603203"/>
    </g>
   </g>
   <g id="patch_8">
    <path d="M 66.053125 348.478125 
L 66.053125 200.22358 
" style="fill:none;stroke:#000000;stroke-linecap:square;stroke-linejoin:miter;stroke-width:0.8;"/>
   </g>
   <g id="patch_9">
    <path d="M 400.853125 348.478125 
L 400.853125 200.22358 
" style="fill:none;stroke:#000000;stroke-linecap:square;stroke-linejoin:miter;stroke-width:0.8;"/>
   </g>
   <g id="patch_10">
    <path d="M 66.053125 348.478125 
L 400.853125 348.478125 
" style="fill:none;stroke:#000000;stroke-linecap:square;stroke-linejoin:miter;stroke-width:0.8;"/>
   </g>
   <g id="patch_11">
    <path d="M 66.053125 200.22358 
L 400.853125 200.22358 
" style="fill:none;stroke:#000000;stroke-linecap:square;stroke-linejoin:miter;stroke-width:0.8;"/>
   </g>
   <g id="text_18">
    <text style="font-family:DejaVu Sans;font-size:10px;font-stretch:normal;font-style:normal;font-weight:normal;text-anchor:start;" transform="rotate(-0, 92.253896, 298.244754)" x="92.253896" y="298.244754"> </text>
   </g>
   <g id="text_19">
    <text style="font-family:DejaVu Sans;font-size:10px;font-stretch:normal;font-style:normal;font-weight:normal;text-anchor:start;" transform="rotate(-0, 197.177503, 275.446091)" x="197.177503" y="275.446091"> </text>
   </g>
   <g id="text_20">
    <text style="font-family:DejaVu Sans;font-size:10px;font-stretch:normal;font-style:normal;font-weight:normal;text-anchor:start;" transform="rotate(-0, 215.693588, 263.131485)" x="215.693588" y="263.131485"> </text>
   </g>
   <g id="text_21">
    <text style="font-family:DejaVu Sans;font-size:10px;font-stretch:normal;font-style:normal;font-weight:normal;text-anchor:start;" transform="rotate(-0, 234.209672, 249.152743)" x="234.209672" y="249.152743"> </text>
   </g>
   <g id="text_22">
    <text style="font-family:DejaVu Sans;font-size:10px;font-stretch:normal;font-style:normal;font-weight:normal;text-anchor:start;" transform="rotate(-0, 240.382574, 237.170964)" x="240.382574" y="237.170964"> </text>
   </g>
   <g id="text_23">
    <text style="font-family:DejaVu Sans;font-size:10px;font-stretch:normal;font-style:normal;font-weight:normal;text-anchor:start;" transform="rotate(-0, 252.725757, 229.183111)" x="252.725757" y="229.183111"> </text>
   </g>
   <g id="text_24">
    <text style="font-family:DejaVu Sans;font-size:10px;font-stretch:normal;font-style:normal;font-weight:normal;text-anchor:start;" transform="rotate(-0, 265.06894, 223.857876)" x="265.06894" y="223.857876"> </text>
   </g>
   <g id="text_25">
    <text style="font-family:DejaVu Sans;font-size:10px;font-stretch:normal;font-style:normal;font-weight:normal;text-anchor:start;" transform="rotate(-0, 283.585025, 234.508346)" x="283.585025" y="234.508346"> </text>
   </g>
   <g id="text_26">
    <text style="font-family:DejaVu Sans;font-size:10px;font-stretch:normal;font-style:normal;font-weight:normal;text-anchor:start;" transform="rotate(-0, 339.133279, 245.158817)" x="339.133279" y="245.158817"> </text>
   </g>
   <g id="text_27">
    <text style="font-family:DejaVu Sans;font-size:10px;font-stretch:normal;font-style:normal;font-weight:normal;text-anchor:start;" transform="rotate(-0, 308.274011, 261.134522)" x="308.274011" y="261.134522"> </text>
   </g>
   <g id="text_28">
    <text style="font-family:DejaVu Sans;font-size:10px;font-stretch:normal;font-style:normal;font-weight:normal;text-anchor:start;" transform="rotate(-0, 332.962998, 255.809287)" x="332.962998" y="255.809287"> </text>
   </g>
   <g id="text_29">
    <text style="font-family:DejaVu Sans;font-size:10px;font-stretch:normal;font-style:normal;font-weight:normal;text-anchor:start;" transform="rotate(-0, 308.892349, 266.459757)" x="308.892349" y="266.459757"> </text>
   </g>
   <g id="text_30">
    <text style="font-family:DejaVu Sans;font-size:10px;font-stretch:normal;font-style:normal;font-weight:normal;text-anchor:start;" transform="rotate(-0, 271.241842, 277.110227)" x="271.241842" y="277.110227"> </text>
   </g>
   <g id="text_31">
    <text style="font-family:DejaVu Sans;font-size:10px;font-stretch:normal;font-style:normal;font-weight:normal;text-anchor:start;" transform="rotate(-0, 265.06894, 287.760697)" x="265.06894" y="287.760697"> </text>
   </g>
   <g id="text_32">
    <text style="font-family:DejaVu Sans;font-size:10px;font-stretch:normal;font-style:normal;font-weight:normal;text-anchor:start;" transform="rotate(-0, 98.426797, 321.043417)" x="98.426797" y="321.043417"> </text>
   </g>
   <g id="text_33">
    <text style="font-family:DejaVu Sans;font-size:10px;font-stretch:normal;font-style:normal;font-weight:normal;text-anchor:start;" transform="rotate(-0, 165.610814, 311.724255)" x="165.610814" y="311.724255"> </text>
   </g>
   <g id="text_34">
    <text style="font-family:DejaVu Sans;font-size:10px;font-stretch:normal;font-style:normal;font-weight:normal;text-anchor:start;" transform="rotate(-0, 171.783716, 303.736403)" x="171.783716" y="303.736403"> </text>
   </g>
   <g id="text_35">
    <text style="font-family:DejaVu Sans;font-size:10px;font-stretch:normal;font-style:normal;font-weight:normal;text-anchor:start;" transform="rotate(-0, 196.472702, 298.411168)" x="196.472702" y="298.411168"> </text>
   </g>
   <g id="text_36">
    <text style="font-family:DejaVu Sans;font-size:10px;font-stretch:normal;font-style:normal;font-weight:normal;text-anchor:start;" transform="rotate(-0, 196.472702, 309.061638)" x="196.472702" y="309.061638"> </text>
   </g>
   <g id="text_37">
    <text style="font-family:DejaVu Sans;font-size:10px;font-stretch:normal;font-style:normal;font-weight:normal;text-anchor:start;" transform="rotate(-0, 196.470082, 319.712108)" x="196.470082" y="319.712108"> </text>
   </g>
   <g id="text_38">
    <text style="font-family:DejaVu Sans;font-size:10px;font-stretch:normal;font-style:normal;font-weight:normal;text-anchor:start;" transform="rotate(-0, 166.318235, 330.362578)" x="166.318235" y="330.362578"> </text>
   </g>
  </g>
 </g>
 <defs>
  <clipPath id="pbaf9e9eaa8">
   <rect height="148.254545" width="334.8" x="66.053125" y="22.318125"/>
  </clipPath>
  <clipPath id="p0ec411cd80">
   <rect height="148.254545" width="334.8" x="66.053125" y="200.22358"/>
  </clipPath>
 </defs>
</svg>
