<?xml version="1.0" encoding="utf-8" standalone="no"?>
<!DOCTYPE svg PUBLIC "-//W3C//DTD SVG 1.1//EN"
  "http://www.w3.org/Graphics/SVG/1.1/DTD/svg11.dtd">
<!-- Created with matplotlib (https://matplotlib.org/) -->
<svg height="279.654063pt" version="1.1" viewBox="0 0 405.3 279.654063" width="405.3pt" xmlns="http://www.w3.org/2000/svg" xmlns:xlink="http://www.w3.org/1999/xlink">
 <metadata>
  <rdf:RDF xmlns:cc="http://creativecommons.org/ns#" xmlns:dc="http://purl.org/dc/elements/1.1/" xmlns:rdf="http://www.w3.org/1999/02/22-rdf-syntax-ns#">
   <cc:Work>
    <dc:type rdf:resource="http://purl.org/dc/dcmitype/StillImage"/>
    <dc:date>2021-09-17T16:41:12.871361</dc:date>
    <dc:format>image/svg+xml</dc:format>
    <dc:creator>
     <cc:Agent>
      <dc:title>Matplotlib v3.3.2, https://matplotlib.org/</dc:title>
     </cc:Agent>
    </dc:creator>
   </cc:Work>
  </rdf:RDF>
 </metadata>
 <defs>
  <style type="text/css">*{stroke-linecap:butt;stroke-linejoin:round;}</style>
 </defs>
 <g id="figure_1">
  <g id="patch_1">
   <path d="M 0 279.654063 
L 405.3 279.654063 
L 405.3 0 
L 0 0 
z
" style="fill:#ffffff;"/>
  </g>
  <g id="axes_1">
   <g id="patch_2">
    <path d="M 10.7 230.9 
L 333.533333 230.9 
L 333.533333 66.983333 
L 10.7 66.983333 
z
" style="fill:#ffffff;"/>
   </g>
   <g id="patch_3">
    <path clip-path="url(#p4475f55ad9)" d="M 32.222222 230.9 
L 32.222222 66.983333 
L 75.266667 66.983333 
L 75.266667 230.9 
z
" style="fill:#c4c4c4;opacity:0.25;"/>
   </g>
   <g id="matplotlib.axis_1">
    <g id="xtick_1">
     <g id="line2d_1">
      <defs>
       <path d="M 0 0 
L 0 3.5 
" id="mff3a8b8e2a" style="stroke:#000000;stroke-width:0.8;"/>
      </defs>
      <g>
       <use style="stroke:#000000;stroke-width:0.8;" x="32.222222" xlink:href="#mff3a8b8e2a" y="230.9"/>
      </g>
     </g>
     <g id="text_1">
      <text style="font-family:DejaVu Sans;font-size:10px;font-stretch:normal;font-style:normal;font-weight:normal;text-anchor:middle;" transform="rotate(-0, 32.222222, 245.498438)" x="32.222222" y="245.498438">0</text>
     </g>
    </g>
    <g id="xtick_2">
     <g id="line2d_2">
      <g>
       <use style="stroke:#000000;stroke-width:0.8;" x="75.266667" xlink:href="#mff3a8b8e2a" y="230.9"/>
      </g>
     </g>
     <g id="text_2">
      <text style="font-family:DejaVu Sans;font-size:10px;font-stretch:normal;font-style:normal;font-weight:normal;text-anchor:middle;" transform="rotate(-0, 75.266667, 245.498438)" x="75.266667" y="245.498438">1</text>
     </g>
    </g>
    <g id="xtick_3">
     <g id="line2d_3">
      <g>
       <use style="stroke:#000000;stroke-width:0.8;" x="118.311111" xlink:href="#mff3a8b8e2a" y="230.9"/>
      </g>
     </g>
     <g id="text_3">
      <text style="font-family:DejaVu Sans;font-size:10px;font-stretch:normal;font-style:normal;font-weight:normal;text-anchor:middle;" transform="rotate(-0, 118.311111, 245.498438)" x="118.311111" y="245.498438">2</text>
     </g>
    </g>
    <g id="xtick_4">
     <g id="line2d_4">
      <g>
       <use style="stroke:#000000;stroke-width:0.8;" x="161.355556" xlink:href="#mff3a8b8e2a" y="230.9"/>
      </g>
     </g>
     <g id="text_4">
      <text style="font-family:DejaVu Sans;font-size:10px;font-stretch:normal;font-style:normal;font-weight:normal;text-anchor:middle;" transform="rotate(-0, 161.355556, 245.498438)" x="161.355556" y="245.498438">3</text>
     </g>
    </g>
    <g id="xtick_5">
     <g id="line2d_5">
      <g>
       <use style="stroke:#000000;stroke-width:0.8;" x="204.4" xlink:href="#mff3a8b8e2a" y="230.9"/>
      </g>
     </g>
     <g id="text_5">
      <text style="font-family:DejaVu Sans;font-size:10px;font-stretch:normal;font-style:normal;font-weight:normal;text-anchor:middle;" transform="rotate(-0, 204.4, 245.498438)" x="204.4" y="245.498438">4</text>
     </g>
    </g>
    <g id="xtick_6">
     <g id="line2d_6">
      <g>
       <use style="stroke:#000000;stroke-width:0.8;" x="247.444444" xlink:href="#mff3a8b8e2a" y="230.9"/>
      </g>
     </g>
     <g id="text_6">
      <text style="font-family:DejaVu Sans;font-size:10px;font-stretch:normal;font-style:normal;font-weight:normal;text-anchor:middle;" transform="rotate(-0, 247.444444, 245.498438)" x="247.444444" y="245.498438">5</text>
     </g>
    </g>
    <g id="xtick_7">
     <g id="line2d_7">
      <g>
       <use style="stroke:#000000;stroke-width:0.8;" x="290.488889" xlink:href="#mff3a8b8e2a" y="230.9"/>
      </g>
     </g>
     <g id="text_7">
      <text style="font-family:DejaVu Sans;font-size:10px;font-stretch:normal;font-style:normal;font-weight:normal;text-anchor:middle;" transform="rotate(-0, 290.488889, 245.498438)" x="290.488889" y="245.498438">6</text>
     </g>
    </g>
    <g id="xtick_8">
     <g id="line2d_8">
      <g>
       <use style="stroke:#000000;stroke-width:0.8;" x="333.533333" xlink:href="#mff3a8b8e2a" y="230.9"/>
      </g>
     </g>
     <g id="text_8">
      <text style="font-family:DejaVu Sans;font-size:10px;font-stretch:normal;font-style:normal;font-weight:normal;text-anchor:middle;" transform="rotate(-0, 333.533333, 245.498438)" x="333.533333" y="245.498438">7</text>
     </g>
    </g>
    <g id="text_9">
     <text style="font-family:DejaVu Sans;font-size:10px;font-stretch:normal;font-style:normal;font-weight:normal;" transform="translate(117.811979 259.176562)">Distance to the MRCA</text>
     <text style="font-family:DejaVu Sans;font-size:10px;font-stretch:normal;font-style:normal;font-weight:normal;" transform="translate(124.148698 270.374375)">(Substitutions/Site)</text>
    </g>
    <g id="text_10">
     <text style="font-family:DejaVu Sans;font-size:10px;font-stretch:normal;font-style:normal;font-weight:normal;text-anchor:end;" transform="rotate(-0, 333.533333, 258.176562)" x="333.533333" y="258.176562">1e−5</text>
    </g>
   </g>
   <g id="matplotlib.axis_2"/>
   <g id="LineCollection_1">
    <path clip-path="url(#p4475f55ad9)" d="M 32.222222 185.050509 
L 32.222222 185.050509 
" style="fill:none;stroke:#68fcc1;"/>
   </g>
   <g id="LineCollection_2">
    <path clip-path="url(#p4475f55ad9)" d="M 32.222222 168.16905 
L 41.801763 168.16905 
" style="fill:none;stroke:#68fcc1;"/>
   </g>
   <g id="LineCollection_3">
    <path clip-path="url(#p4475f55ad9)" d="M 41.801763 152.069566 
L 47.885665 152.069566 
" style="fill:none;stroke:#68fcc1;"/>
   </g>
   <g id="LineCollection_4">
    <path clip-path="url(#p4475f55ad9)" d="M 47.885665 137.534032 
L 52.436324 137.534032 
" style="fill:none;stroke:#68fcc1;"/>
   </g>
   <g id="LineCollection_5">
    <path clip-path="url(#p4475f55ad9)" d="M 52.436324 126.126398 
L 54.464148 126.126398 
" style="fill:none;stroke:#68fcc1;"/>
   </g>
   <g id="LineCollection_6">
    <path clip-path="url(#p4475f55ad9)" d="M 54.464148 115.086752 
L 54.565732 115.086752 
" style="fill:none;stroke:#68fcc1;"/>
   </g>
   <g id="LineCollection_7">
    <path clip-path="url(#p4475f55ad9)" d="M 54.565732 104.783082 
L 54.667317 104.783082 
" style="fill:none;stroke:#68fcc1;"/>
   </g>
   <g id="LineCollection_8">
    <path clip-path="url(#p4475f55ad9)" d="M 54.667317 95.951365 
L 54.768902 95.951365 
" style="fill:none;stroke:#68fcc1;"/>
   </g>
   <g id="LineCollection_9">
    <path clip-path="url(#p4475f55ad9)" d="M 54.768902 90.063554 
L 54.870487 90.063554 
" style="fill:none;stroke:#68fcc1;"/>
   </g>
   <g id="LineCollection_10">
    <path clip-path="url(#p4475f55ad9)" d="M 54.768902 101.839176 
L 54.870487 101.839176 
" style="fill:none;stroke:#68fcc1;"/>
   </g>
   <g id="LineCollection_11">
    <path clip-path="url(#p4475f55ad9)" d="M 54.667317 113.614799 
L 54.768902 113.614799 
" style="fill:none;stroke:#68fcc1;"/>
   </g>
   <g id="LineCollection_12">
    <path clip-path="url(#p4475f55ad9)" d="M 54.565732 125.390421 
L 56.593556 125.390421 
" style="fill:none;stroke:#68fcc1;"/>
   </g>
   <g id="LineCollection_13">
    <path clip-path="url(#p4475f55ad9)" d="M 54.464148 137.166044 
L 54.565732 137.166044 
" style="fill:none;stroke:#68fcc1;"/>
   </g>
   <g id="LineCollection_14">
    <path clip-path="url(#p4475f55ad9)" d="M 52.436324 148.941667 
L 78.799755 148.941667 
" style="fill:none;stroke:#68fcc1;"/>
   </g>
   <g id="LineCollection_15">
    <path clip-path="url(#p4475f55ad9)" d="M 47.885665 166.605101 
L 55.141237 166.605101 
" style="fill:none;stroke:#68fcc1;"/>
   </g>
   <g id="LineCollection_16">
    <path clip-path="url(#p4475f55ad9)" d="M 55.141237 160.717289 
L 60.211011 160.717289 
" style="fill:none;stroke:#68fcc1;"/>
   </g>
   <g id="LineCollection_17">
    <path clip-path="url(#p4475f55ad9)" d="M 55.141237 172.492912 
L 57.380409 172.492912 
" style="fill:none;stroke:#68fcc1;"/>
   </g>
   <g id="LineCollection_18">
    <path clip-path="url(#p4475f55ad9)" d="M 41.801763 184.268534 
L 59.626037 184.268534 
" style="fill:none;stroke:#68fcc1;"/>
   </g>
   <g id="LineCollection_19">
    <path clip-path="url(#p4475f55ad9)" d="M 32.222222 201.931968 
L 44.390026 201.931968 
" style="fill:none;stroke:#68fcc1;"/>
   </g>
   <g id="LineCollection_20">
    <path clip-path="url(#p4475f55ad9)" d="M 44.390026 196.044157 
L 46.41785 196.044157 
" style="fill:none;stroke:#68fcc1;"/>
   </g>
   <g id="LineCollection_21">
    <path clip-path="url(#p4475f55ad9)" d="M 44.390026 207.81978 
L 47.431977 207.81978 
" style="fill:none;stroke:#68fcc1;"/>
   </g>
   <g id="LineCollection_22">
    <path clip-path="url(#p4475f55ad9)" d="M 32.222222 201.931968 
L 32.222222 168.16905 
" style="fill:none;stroke:#68fcc1;"/>
   </g>
   <g id="LineCollection_23">
    <path clip-path="url(#p4475f55ad9)" d="M 41.801763 184.268534 
L 41.801763 152.069566 
" style="fill:none;stroke:#68fcc1;"/>
   </g>
   <g id="LineCollection_24">
    <path clip-path="url(#p4475f55ad9)" d="M 47.885665 166.605101 
L 47.885665 137.534032 
" style="fill:none;stroke:#68fcc1;"/>
   </g>
   <g id="LineCollection_25">
    <path clip-path="url(#p4475f55ad9)" d="M 52.436324 148.941667 
L 52.436324 126.126398 
" style="fill:none;stroke:#68fcc1;"/>
   </g>
   <g id="LineCollection_26">
    <path clip-path="url(#p4475f55ad9)" d="M 54.464148 137.166044 
L 54.464148 115.086752 
" style="fill:none;stroke:#68fcc1;"/>
   </g>
   <g id="LineCollection_27">
    <path clip-path="url(#p4475f55ad9)" d="M 54.565732 125.390421 
L 54.565732 104.783082 
" style="fill:none;stroke:#68fcc1;"/>
   </g>
   <g id="LineCollection_28">
    <path clip-path="url(#p4475f55ad9)" d="M 54.667317 113.614799 
L 54.667317 95.951365 
" style="fill:none;stroke:#68fcc1;"/>
   </g>
   <g id="LineCollection_29">
    <path clip-path="url(#p4475f55ad9)" d="M 54.768902 101.839176 
L 54.768902 90.063554 
" style="fill:none;stroke:#68fcc1;"/>
   </g>
   <g id="LineCollection_30">
    <path clip-path="url(#p4475f55ad9)" d="M 55.141237 172.492912 
L 55.141237 160.717289 
" style="fill:none;stroke:#68fcc1;"/>
   </g>
   <g id="LineCollection_31">
    <path clip-path="url(#p4475f55ad9)" d="M 44.390026 207.81978 
L 44.390026 196.044157 
" style="fill:none;stroke:#68fcc1;"/>
   </g>
   <g id="PathCollection_1">
    <defs>
     <path d="M 0 1.581139 
C 0.419323 1.581139 0.821528 1.41454 1.118034 1.118034 
C 1.41454 0.821528 1.581139 0.419323 1.581139 0 
C 1.581139 -0.419323 1.41454 -0.821528 1.118034 -1.118034 
C 0.821528 -1.41454 0.419323 -1.581139 0 -1.581139 
C -0.419323 -1.581139 -0.821528 -1.41454 -1.118034 -1.118034 
C -1.41454 -0.821528 -1.581139 -0.419323 -1.581139 0 
C -1.581139 0.419323 -1.41454 0.821528 -1.118034 1.118034 
C -0.821528 1.41454 -0.419323 1.581139 0 1.581139 
z
" id="mab9db51bab" style="stroke:#000000;stroke-width:0.252982;"/>
    </defs>
    <g clip-path="url(#p4475f55ad9)">
     <use style="fill:#68fcc1;stroke:#000000;stroke-width:0.252982;" x="54.870487" xlink:href="#mab9db51bab" y="90.063554"/>
     <use style="fill:#68fcc1;stroke:#000000;stroke-width:0.252982;" x="54.870487" xlink:href="#mab9db51bab" y="101.839176"/>
     <use style="fill:#68fcc1;stroke:#000000;stroke-width:0.252982;" x="54.768902" xlink:href="#mab9db51bab" y="113.614799"/>
     <use style="fill:#68fcc1;stroke:#000000;stroke-width:0.252982;" x="56.593556" xlink:href="#mab9db51bab" y="125.390421"/>
     <use style="fill:#68fcc1;stroke:#000000;stroke-width:0.252982;" x="54.565732" xlink:href="#mab9db51bab" y="137.166044"/>
     <use style="fill:#68fcc1;stroke:#000000;stroke-width:0.252982;" x="78.799755" xlink:href="#mab9db51bab" y="148.941667"/>
     <use style="fill:#68fcc1;stroke:#000000;stroke-width:0.252982;" x="60.211011" xlink:href="#mab9db51bab" y="160.717289"/>
     <use style="fill:#68fcc1;stroke:#000000;stroke-width:0.252982;" x="57.380409" xlink:href="#mab9db51bab" y="172.492912"/>
     <use style="fill:#68fcc1;stroke:#000000;stroke-width:0.252982;" x="59.626037" xlink:href="#mab9db51bab" y="184.268534"/>
     <use style="fill:#68fcc1;stroke:#000000;stroke-width:0.252982;" x="46.41785" xlink:href="#mab9db51bab" y="196.044157"/>
     <use style="fill:#68fcc1;stroke:#000000;stroke-width:0.252982;" x="47.431977" xlink:href="#mab9db51bab" y="207.81978"/>
    </g>
   </g>
   <g id="line2d_9">
    <path clip-path="url(#p4475f55ad9)" d="M 32.222222 230.9 
L 32.222222 66.983333 
" style="fill:none;stroke:#000000;stroke-dasharray:1.85,0.8;stroke-dashoffset:0;stroke-width:0.5;"/>
   </g>
   <g id="line2d_10">
    <path clip-path="url(#p4475f55ad9)" d="M 75.266667 230.9 
L 75.266667 66.983333 
" style="fill:none;stroke:#000000;stroke-dasharray:1.85,0.8;stroke-dashoffset:0;stroke-width:0.5;"/>
   </g>
   <g id="patch_4">
    <path d="M 10.7 230.9 
L 10.7 66.983333 
" style="fill:none;stroke:#000000;stroke-linecap:square;stroke-linejoin:miter;stroke-width:0.8;"/>
   </g>
   <g id="patch_5">
    <path d="M 10.7 230.9 
L 333.533333 230.9 
" style="fill:none;stroke:#000000;stroke-linecap:square;stroke-linejoin:miter;stroke-width:0.8;"/>
   </g>
   <g id="text_11">
    <text style="font-family:DejaVu Sans;font-size:10px;font-stretch:normal;font-style:normal;font-weight:normal;text-anchor:start;" transform="rotate(-0, 32.222222, 187.809884)" x="32.222222" y="187.809884"> </text>
   </g>
   <g id="text_12">
    <text style="font-family:DejaVu Sans;font-size:10px;font-stretch:normal;font-style:normal;font-weight:normal;text-anchor:start;" transform="rotate(-0, 41.801763, 170.928425)" x="41.801763" y="170.928425"> </text>
   </g>
   <g id="text_13">
    <text style="font-family:DejaVu Sans;font-size:10px;font-stretch:normal;font-style:normal;font-weight:normal;text-anchor:start;" transform="rotate(-0, 47.885665, 154.828941)" x="47.885665" y="154.828941"> </text>
   </g>
   <g id="text_14">
    <text style="font-family:DejaVu Sans;font-size:10px;font-stretch:normal;font-style:normal;font-weight:normal;text-anchor:start;" transform="rotate(-0, 52.436324, 140.293407)" x="52.436324" y="140.293407"> </text>
   </g>
   <g id="text_15">
    <text style="font-family:DejaVu Sans;font-size:10px;font-stretch:normal;font-style:normal;font-weight:normal;text-anchor:start;" transform="rotate(-0, 54.464148, 128.885773)" x="54.464148" y="128.885773"> </text>
   </g>
   <g id="text_16">
    <text style="font-family:DejaVu Sans;font-size:10px;font-stretch:normal;font-style:normal;font-weight:normal;text-anchor:start;" transform="rotate(-0, 54.565732, 117.846127)" x="54.565732" y="117.846127"> </text>
   </g>
   <g id="text_17">
    <text style="font-family:DejaVu Sans;font-size:10px;font-stretch:normal;font-style:normal;font-weight:normal;text-anchor:start;" transform="rotate(-0, 54.667317, 107.542457)" x="54.667317" y="107.542457"> </text>
   </g>
   <g id="text_18">
    <text style="font-family:DejaVu Sans;font-size:10px;font-stretch:normal;font-style:normal;font-weight:normal;text-anchor:start;" transform="rotate(-0, 54.768902, 98.71074)" x="54.768902" y="98.71074"> </text>
   </g>
   <g id="text_19">
    <text style="font-family:DejaVu Sans;font-size:10px;font-stretch:normal;font-style:normal;font-weight:normal;text-anchor:start;" transform="rotate(-0, 54.870487, 92.822929)" x="54.870487" y="92.822929"> </text>
   </g>
   <g id="text_20">
    <text style="font-family:DejaVu Sans;font-size:10px;font-stretch:normal;font-style:normal;font-weight:normal;text-anchor:start;" transform="rotate(-0, 54.870487, 104.598551)" x="54.870487" y="104.598551"> </text>
   </g>
   <g id="text_21">
    <text style="font-family:DejaVu Sans;font-size:10px;font-stretch:normal;font-style:normal;font-weight:normal;text-anchor:start;" transform="rotate(-0, 54.768902, 116.374174)" x="54.768902" y="116.374174"> </text>
   </g>
   <g id="text_22">
    <text style="font-family:DejaVu Sans;font-size:10px;font-stretch:normal;font-style:normal;font-weight:normal;text-anchor:start;" transform="rotate(-0, 56.593556, 128.149796)" x="56.593556" y="128.149796"> </text>
   </g>
   <g id="text_23">
    <text style="font-family:DejaVu Sans;font-size:10px;font-stretch:normal;font-style:normal;font-weight:normal;text-anchor:start;" transform="rotate(-0, 54.565732, 139.925419)" x="54.565732" y="139.925419"> </text>
   </g>
   <g id="text_24">
    <text style="font-family:DejaVu Sans;font-size:10px;font-stretch:normal;font-style:normal;font-weight:normal;text-anchor:start;" transform="rotate(-0, 78.799755, 151.701042)" x="78.799755" y="151.701042"> </text>
   </g>
   <g id="text_25">
    <text style="font-family:DejaVu Sans;font-size:10px;font-stretch:normal;font-style:normal;font-weight:normal;text-anchor:start;" transform="rotate(-0, 55.141237, 169.364476)" x="55.141237" y="169.364476"> </text>
   </g>
   <g id="text_26">
    <text style="font-family:DejaVu Sans;font-size:10px;font-stretch:normal;font-style:normal;font-weight:normal;text-anchor:start;" transform="rotate(-0, 60.211011, 163.476664)" x="60.211011" y="163.476664"> </text>
   </g>
   <g id="text_27">
    <text style="font-family:DejaVu Sans;font-size:10px;font-stretch:normal;font-style:normal;font-weight:normal;text-anchor:start;" transform="rotate(-0, 57.380409, 175.252287)" x="57.380409" y="175.252287"> </text>
   </g>
   <g id="text_28">
    <text style="font-family:DejaVu Sans;font-size:10px;font-stretch:normal;font-style:normal;font-weight:normal;text-anchor:start;" transform="rotate(-0, 59.626037, 187.027909)" x="59.626037" y="187.027909"> </text>
   </g>
   <g id="text_29">
    <text style="font-family:DejaVu Sans;font-size:10px;font-stretch:normal;font-style:normal;font-weight:normal;text-anchor:start;" transform="rotate(-0, 44.390026, 204.691343)" x="44.390026" y="204.691343"> </text>
   </g>
   <g id="text_30">
    <text style="font-family:DejaVu Sans;font-size:10px;font-stretch:normal;font-style:normal;font-weight:normal;text-anchor:start;" transform="rotate(-0, 46.41785, 198.803532)" x="46.41785" y="198.803532"> </text>
   </g>
   <g id="text_31">
    <text style="font-family:DejaVu Sans;font-size:10px;font-stretch:normal;font-style:normal;font-weight:normal;text-anchor:start;" transform="rotate(-0, 47.431977, 210.579155)" x="47.431977" y="210.579155"> </text>
   </g>
   <g id="text_32">
    <text style="font-family:DejaVu Sans;font-size:12px;font-stretch:normal;font-style:normal;font-weight:normal;text-anchor:middle;" transform="rotate(-0, 172.116667, 60.983333)" x="172.116667" y="60.983333">NODE221</text>
   </g>
  </g>
  <g id="axes_2">
   <g id="patch_6">
    <path d="M 10.7 66.983333 
L 333.533333 66.983333 
L 333.533333 34.2 
L 10.7 34.2 
z
" style="fill:#ffffff;"/>
   </g>
   <g id="PolyCollection_1">
    <defs>
     <path d="M 32.222222 -212.882375 
L 32.222222 -212.670729 
L 32.45628 -212.670729 
L 32.690338 -212.670729 
L 32.924396 -212.670729 
L 33.158454 -212.670729 
L 33.392512 -212.670729 
L 33.62657 -212.670729 
L 33.860628 -212.670729 
L 34.094686 -212.670729 
L 34.328744 -212.670729 
L 34.562802 -212.670729 
L 34.79686 -212.670729 
L 35.030918 -212.670729 
L 35.264976 -212.670729 
L 35.499034 -212.670729 
L 35.733092 -212.670729 
L 35.967149 -212.670729 
L 36.201207 -212.670729 
L 36.435265 -212.670729 
L 36.669323 -212.670729 
L 36.903381 -212.670729 
L 37.137439 -212.670729 
L 37.371497 -212.670729 
L 37.605555 -212.670729 
L 37.839613 -212.670729 
L 38.073671 -212.670729 
L 38.307729 -212.670729 
L 38.541787 -212.670729 
L 38.775845 -212.670729 
L 39.009903 -212.670729 
L 39.243961 -212.670729 
L 39.478019 -212.670729 
L 39.712077 -212.670729 
L 39.946135 -212.670729 
L 40.180193 -212.670729 
L 40.414251 -212.670729 
L 40.648308 -212.670729 
L 40.882366 -212.670729 
L 41.116424 -212.670729 
L 41.350482 -212.670729 
L 41.58454 -212.670729 
L 41.818598 -212.670729 
L 42.052656 -212.670729 
L 42.286714 -212.670729 
L 42.520772 -212.670729 
L 42.75483 -212.670729 
L 42.988888 -212.670729 
L 43.222946 -212.670729 
L 43.457004 -212.670729 
L 43.691062 -212.670729 
L 43.92512 -212.670729 
L 44.159178 -212.670729 
L 44.393236 -212.670729 
L 44.627294 -212.670729 
L 44.861352 -212.670729 
L 45.09541 -212.670729 
L 45.329468 -212.670729 
L 45.563525 -212.670729 
L 45.797583 -212.670729 
L 46.031641 -212.670729 
L 46.265699 -212.670729 
L 46.499757 -212.670729 
L 46.733815 -212.670729 
L 46.967873 -212.670729 
L 47.201931 -212.670729 
L 47.435989 -212.670729 
L 47.670047 -212.670729 
L 47.904105 -212.670729 
L 48.138163 -212.670729 
L 48.372221 -212.670729 
L 48.606279 -212.670729 
L 48.840337 -212.670729 
L 49.074395 -212.670729 
L 49.308453 -212.670729 
L 49.542511 -212.670729 
L 49.776569 -212.670729 
L 50.010627 -212.670729 
L 50.244685 -212.670729 
L 50.478742 -212.670729 
L 50.7128 -212.670729 
L 50.946858 -212.670729 
L 51.180916 -212.670729 
L 51.414974 -212.670729 
L 51.649032 -212.670729 
L 51.88309 -212.670729 
L 52.117148 -212.670729 
L 52.351206 -212.670729 
L 52.585264 -212.670729 
L 52.819322 -212.670729 
L 53.05338 -212.670729 
L 53.287438 -212.670729 
L 53.521496 -212.670729 
L 53.755554 -212.670729 
L 53.989612 -212.670729 
L 54.22367 -212.670729 
L 54.457728 -212.670729 
L 54.691786 -212.670729 
L 54.925844 -212.670729 
L 55.159902 -212.670729 
L 55.393959 -212.670729 
L 55.628017 -212.670729 
L 55.862075 -212.670729 
L 56.096133 -212.670729 
L 56.330191 -212.670729 
L 56.564249 -212.670729 
L 56.798307 -212.670729 
L 57.032365 -212.670729 
L 57.266423 -212.670729 
L 57.500481 -212.670729 
L 57.734539 -212.670729 
L 57.968597 -212.670729 
L 58.202655 -212.670729 
L 58.436713 -212.670729 
L 58.670771 -212.670729 
L 58.904829 -212.670729 
L 59.138887 -212.670729 
L 59.372945 -212.670729 
L 59.607003 -212.670729 
L 59.841061 -212.670729 
L 60.075119 -212.670729 
L 60.309176 -212.670729 
L 60.543234 -212.670729 
L 60.777292 -212.670729 
L 61.01135 -212.670729 
L 61.245408 -212.670729 
L 61.479466 -212.670729 
L 61.713524 -212.670729 
L 61.947582 -212.670729 
L 62.18164 -212.670729 
L 62.415698 -212.670729 
L 62.649756 -212.670729 
L 62.883814 -212.670729 
L 63.117872 -212.670729 
L 63.35193 -212.670729 
L 63.585988 -212.670729 
L 63.820046 -212.670729 
L 64.054104 -212.670729 
L 64.288162 -212.670729 
L 64.52222 -212.670729 
L 64.756278 -212.670729 
L 64.990335 -212.670729 
L 65.224393 -212.670729 
L 65.458451 -212.670729 
L 65.692509 -212.670729 
L 65.926567 -212.670729 
L 66.160625 -212.670729 
L 66.394683 -212.670729 
L 66.628741 -212.670729 
L 66.862799 -212.670729 
L 67.096857 -212.670729 
L 67.330915 -212.670729 
L 67.564973 -212.670729 
L 67.799031 -212.670729 
L 68.033089 -212.670729 
L 68.267147 -212.670729 
L 68.501205 -212.670729 
L 68.735263 -212.670729 
L 68.969321 -212.670729 
L 69.203379 -212.670729 
L 69.437437 -212.670729 
L 69.671495 -212.670729 
L 69.905552 -212.670729 
L 70.13961 -212.670729 
L 70.373668 -212.670729 
L 70.607726 -212.670729 
L 70.841784 -212.670729 
L 71.075842 -212.670729 
L 71.3099 -212.670729 
L 71.543958 -212.670729 
L 71.778016 -212.670729 
L 72.012074 -212.670729 
L 72.246132 -212.670729 
L 72.48019 -212.670729 
L 72.714248 -212.670729 
L 72.948306 -212.670729 
L 73.182364 -212.670729 
L 73.416422 -212.670729 
L 73.65048 -212.670729 
L 73.884538 -212.670729 
L 74.118596 -212.670729 
L 74.352654 -212.670729 
L 74.586712 -212.670729 
L 74.820769 -212.670729 
L 75.054827 -212.670729 
L 75.288885 -212.670729 
L 75.522943 -212.670729 
L 75.757001 -212.670729 
L 75.991059 -212.670729 
L 76.225117 -212.670729 
L 76.459175 -212.670729 
L 76.693233 -212.670729 
L 76.927291 -212.670729 
L 77.161349 -212.670729 
L 77.395407 -212.670729 
L 77.629465 -212.670729 
L 77.863523 -212.670729 
L 78.097581 -212.670729 
L 78.331639 -212.670729 
L 78.565697 -212.670729 
L 78.799755 -212.670729 
L 78.799755 -215.043433 
L 78.799755 -215.043433 
L 78.565697 -215.039727 
L 78.331639 -215.028558 
L 78.097581 -215.010036 
L 77.863523 -214.984341 
L 77.629465 -214.951719 
L 77.395407 -214.912481 
L 77.161349 -214.866997 
L 76.927291 -214.81569 
L 76.693233 -214.759033 
L 76.459175 -214.697539 
L 76.225117 -214.631756 
L 75.991059 -214.562259 
L 75.757001 -214.489645 
L 75.522943 -214.414524 
L 75.288885 -214.337511 
L 75.054827 -214.259222 
L 74.820769 -214.180269 
L 74.586712 -214.10125 
L 74.352654 -214.022749 
L 74.118596 -213.94533 
L 73.884538 -213.869533 
L 73.65048 -213.795876 
L 73.416422 -213.724848 
L 73.182364 -213.656914 
L 72.948306 -213.592513 
L 72.714248 -213.532061 
L 72.48019 -213.475949 
L 72.246132 -213.424553 
L 72.012074 -213.378233 
L 71.778016 -213.337336 
L 71.543958 -213.302206 
L 71.3099 -213.273183 
L 71.075842 -213.250614 
L 70.841784 -213.234853 
L 70.607726 -213.226271 
L 70.373668 -213.225257 
L 70.13961 -213.232228 
L 69.905552 -213.24763 
L 69.671495 -213.271941 
L 69.437437 -213.305683 
L 69.203379 -213.349415 
L 68.969321 -213.403742 
L 68.735263 -213.469318 
L 68.501205 -213.546841 
L 68.267147 -213.637061 
L 68.033089 -213.740774 
L 67.799031 -213.858824 
L 67.564973 -213.992097 
L 67.330915 -214.141524 
L 67.096857 -214.30807 
L 66.862799 -214.492734 
L 66.628741 -214.696542 
L 66.394683 -214.920536 
L 66.160625 -215.16577 
L 65.926567 -215.433301 
L 65.692509 -215.724177 
L 65.458451 -216.039424 
L 65.224393 -216.380038 
L 64.990335 -216.746971 
L 64.756278 -217.141114 
L 64.52222 -217.563285 
L 64.288162 -218.01421 
L 64.054104 -218.494512 
L 63.820046 -219.004689 
L 63.585988 -219.545097 
L 63.35193 -220.115934 
L 63.117872 -220.71722 
L 62.883814 -221.34878 
L 62.649756 -222.010226 
L 62.415698 -222.70094 
L 62.18164 -223.420057 
L 61.947582 -224.166453 
L 61.713524 -224.938727 
L 61.479466 -225.735194 
L 61.245408 -226.553876 
L 61.01135 -227.392495 
L 60.777292 -228.248471 
L 60.543234 -229.118926 
L 60.309176 -230.000687 
L 60.075119 -230.890297 
L 59.841061 -231.784031 
L 59.607003 -232.677914 
L 59.372945 -233.56775 
L 59.138887 -234.449147 
L 58.904829 -235.317556 
L 58.670771 -236.16831 
L 58.436713 -236.996666 
L 58.202655 -237.797857 
L 57.968597 -238.567141 
L 57.734539 -239.299856 
L 57.500481 -239.991478 
L 57.266423 -240.637673 
L 57.032365 -241.234359 
L 56.798307 -241.777761 
L 56.564249 -242.264461 
L 56.330191 -242.691452 
L 56.096133 -243.056183 
L 55.862075 -243.356595 
L 55.628017 -243.591163 
L 55.393959 -243.758913 
L 55.159902 -243.859447 
L 54.925844 -243.892951 
L 54.691786 -243.860195 
L 54.457728 -243.762523 
L 54.22367 -243.60184 
L 53.989612 -243.380583 
L 53.755554 -243.101685 
L 53.521496 -242.768532 
L 53.287438 -242.384915 
L 53.05338 -241.954973 
L 52.819322 -241.48313 
L 52.585264 -240.974031 
L 52.351206 -240.432474 
L 52.117148 -239.863341 
L 51.88309 -239.27153 
L 51.649032 -238.661886 
L 51.414974 -238.039139 
L 51.180916 -237.407841 
L 50.946858 -236.772311 
L 50.7128 -236.136587 
L 50.478742 -235.504383 
L 50.244685 -234.879054 
L 50.010627 -234.263568 
L 49.776569 -233.660487 
L 49.542511 -233.071957 
L 49.308453 -232.499704 
L 49.074395 -231.945039 
L 48.840337 -231.408869 
L 48.606279 -230.891716 
L 48.372221 -230.393741 
L 48.138163 -229.914774 
L 47.904105 -229.454345 
L 47.670047 -229.01172 
L 47.435989 -228.585945 
L 47.201931 -228.175877 
L 46.967873 -227.780233 
L 46.733815 -227.397622 
L 46.499757 -227.02659 
L 46.265699 -226.665652 
L 46.031641 -226.313327 
L 45.797583 -225.968171 
L 45.563525 -225.628803 
L 45.329468 -225.293927 
L 45.09541 -224.962358 
L 44.861352 -224.63303 
L 44.627294 -224.305018 
L 44.393236 -223.977536 
L 44.159178 -223.649953 
L 43.92512 -223.321785 
L 43.691062 -222.992701 
L 43.457004 -222.662514 
L 43.222946 -222.331177 
L 42.988888 -221.998773 
L 42.75483 -221.665507 
L 42.520772 -221.331693 
L 42.286714 -220.997739 
L 42.052656 -220.66414 
L 41.818598 -220.331459 
L 41.58454 -220.000315 
L 41.350482 -219.671372 
L 41.116424 -219.345319 
L 40.882366 -219.022869 
L 40.648308 -218.704733 
L 40.414251 -218.391622 
L 40.180193 -218.084228 
L 39.946135 -217.783219 
L 39.712077 -217.489229 
L 39.478019 -217.202851 
L 39.243961 -216.924633 
L 39.009903 -216.655071 
L 38.775845 -216.394604 
L 38.541787 -216.143614 
L 38.307729 -215.902422 
L 38.073671 -215.671286 
L 37.839613 -215.450404 
L 37.605555 -215.239909 
L 37.371497 -215.039876 
L 37.137439 -214.850321 
L 36.903381 -214.671204 
L 36.669323 -214.502431 
L 36.435265 -214.343858 
L 36.201207 -214.195296 
L 35.967149 -214.056514 
L 35.733092 -213.927243 
L 35.499034 -213.80718 
L 35.264976 -213.695995 
L 35.030918 -213.593333 
L 34.79686 -213.498819 
L 34.562802 -213.412063 
L 34.328744 -213.332665 
L 34.094686 -213.260216 
L 33.860628 -213.194306 
L 33.62657 -213.134525 
L 33.392512 -213.080467 
L 33.158454 -213.03173 
L 32.924396 -212.987925 
L 32.690338 -212.948672 
L 32.45628 -212.913606 
L 32.222222 -212.882375 
z
" id="mf8d8259339" style="stroke:#68fcc1;"/>
    </defs>
    <g clip-path="url(#p14e1532763)">
     <use style="fill:#68fcc1;fill-opacity:0.25;stroke:#68fcc1;" x="0" xlink:href="#mf8d8259339" y="279.654063"/>
    </g>
   </g>
   <g id="patch_7">
    <path clip-path="url(#p14e1532763)" d="M 32.222222 66.983333 
L 32.222222 34.2 
L 75.266667 34.2 
L 75.266667 66.983333 
z
" style="fill:#c4c4c4;opacity:0.25;"/>
   </g>
   <g id="matplotlib.axis_3">
    <g id="xtick_9">
     <g id="line2d_11">
      <g>
       <use style="stroke:#000000;stroke-width:0.8;" x="32.222222" xlink:href="#mff3a8b8e2a" y="66.983333"/>
      </g>
     </g>
    </g>
    <g id="xtick_10">
     <g id="line2d_12">
      <g>
       <use style="stroke:#000000;stroke-width:0.8;" x="75.266667" xlink:href="#mff3a8b8e2a" y="66.983333"/>
      </g>
     </g>
    </g>
    <g id="xtick_11">
     <g id="line2d_13">
      <g>
       <use style="stroke:#000000;stroke-width:0.8;" x="118.311111" xlink:href="#mff3a8b8e2a" y="66.983333"/>
      </g>
     </g>
    </g>
    <g id="xtick_12">
     <g id="line2d_14">
      <g>
       <use style="stroke:#000000;stroke-width:0.8;" x="161.355556" xlink:href="#mff3a8b8e2a" y="66.983333"/>
      </g>
     </g>
    </g>
    <g id="xtick_13">
     <g id="line2d_15">
      <g>
       <use style="stroke:#000000;stroke-width:0.8;" x="204.4" xlink:href="#mff3a8b8e2a" y="66.983333"/>
      </g>
     </g>
    </g>
    <g id="xtick_14">
     <g id="line2d_16">
      <g>
       <use style="stroke:#000000;stroke-width:0.8;" x="247.444444" xlink:href="#mff3a8b8e2a" y="66.983333"/>
      </g>
     </g>
    </g>
    <g id="xtick_15">
     <g id="line2d_17">
      <g>
       <use style="stroke:#000000;stroke-width:0.8;" x="290.488889" xlink:href="#mff3a8b8e2a" y="66.983333"/>
      </g>
     </g>
    </g>
    <g id="xtick_16">
     <g id="line2d_18">
      <g>
       <use style="stroke:#000000;stroke-width:0.8;" x="333.533333" xlink:href="#mff3a8b8e2a" y="66.983333"/>
      </g>
     </g>
    </g>
    <g id="text_33">
     <text style="font-family:DejaVu Sans;font-size:10px;font-stretch:normal;font-style:normal;font-weight:normal;text-anchor:end;" transform="rotate(-0, 333.533333, 77.581771)" x="333.533333" y="77.581771">1e−5</text>
    </g>
   </g>
   <g id="matplotlib.axis_4">
    <g id="ytick_1"/>
    <g id="ytick_2"/>
   </g>
   <g id="line2d_19">
    <path clip-path="url(#p14e1532763)" d="M 32.222222 66.983333 
L 32.222222 34.2 
" style="fill:none;stroke:#000000;stroke-dasharray:1.85,0.8;stroke-dashoffset:0;stroke-width:0.5;"/>
   </g>
   <g id="line2d_20">
    <path clip-path="url(#p14e1532763)" d="M 75.266667 66.983333 
L 75.266667 34.2 
" style="fill:none;stroke:#000000;stroke-dasharray:1.85,0.8;stroke-dashoffset:0;stroke-width:0.5;"/>
   </g>
   <g id="patch_8">
    <path d="M 10.7 66.983333 
L 333.533333 66.983333 
" style="fill:none;stroke:#000000;stroke-linecap:square;stroke-linejoin:miter;stroke-width:0.8;"/>
   </g>
  </g>
  <g id="axes_3">
   <g id="patch_9">
    <path d="M 333.533333 230.9 
L 398.1 230.9 
L 398.1 66.983333 
L 333.533333 66.983333 
z
" style="fill:#ffffff;"/>
   </g>
   <g id="matplotlib.axis_5">
    <g id="xtick_17"/>
    <g id="xtick_18"/>
    <g id="xtick_19"/>
   </g>
   <g id="matplotlib.axis_6"/>
   <g id="patch_10">
    <path d="M 333.533333 230.9 
L 333.533333 66.983333 
" style="fill:none;stroke:#000000;stroke-linecap:square;stroke-linejoin:miter;stroke-width:0.8;"/>
   </g>
  </g>
  <g id="text_34">
   <text style="font-family:DejaVu Sans;font-size:12px;font-stretch:normal;font-style:normal;font-weight:bold;text-anchor:middle;" transform="rotate(-0, 171.3, 16.318125)" x="171.3" y="16.318125">4.ANT</text>
  </g>
 </g>
 <defs>
  <clipPath id="p4475f55ad9">
   <rect height="163.916667" width="322.833333" x="10.7" y="66.983333"/>
  </clipPath>
  <clipPath id="p14e1532763">
   <rect height="32.783333" width="322.833333" x="10.7" y="34.2"/>
  </clipPath>
 </defs>
</svg>
