<?xml version="1.0" encoding="utf-8" standalone="no"?>
<!DOCTYPE svg PUBLIC "-//W3C//DTD SVG 1.1//EN"
  "http://www.w3.org/Graphics/SVG/1.1/DTD/svg11.dtd">
<!-- Created with matplotlib (https://matplotlib.org/) -->
<svg height="397.232187pt" version="1.1" viewBox="0 0 408.053125 397.232187" width="408.053125pt" xmlns="http://www.w3.org/2000/svg" xmlns:xlink="http://www.w3.org/1999/xlink">
 <metadata>
  <rdf:RDF xmlns:cc="http://creativecommons.org/ns#" xmlns:dc="http://purl.org/dc/elements/1.1/" xmlns:rdf="http://www.w3.org/1999/02/22-rdf-syntax-ns#">
   <cc:Work>
    <dc:type rdf:resource="http://purl.org/dc/dcmitype/StillImage"/>
    <dc:date>2021-09-17T15:06:06.729035</dc:date>
    <dc:format>image/svg+xml</dc:format>
    <dc:creator>
     <cc:Agent>
      <dc:title>Matplotlib v3.3.2, https://matplotlib.org/</dc:title>
     </cc:Agent>
    </dc:creator>
   </cc:Work>
  </rdf:RDF>
 </metadata>
 <defs>
  <style type="text/css">*{stroke-linecap:butt;stroke-linejoin:round;}</style>
 </defs>
 <g id="figure_1">
  <g id="patch_1">
   <path d="M 0 397.232187 
L 408.053125 397.232187 
L 408.053125 0 
L 0 0 
z
" style="fill:#ffffff;"/>
  </g>
  <g id="axes_1">
   <g id="patch_2">
    <path d="M 66.053125 170.57267 
L 400.853125 170.57267 
L 400.853125 22.318125 
L 66.053125 22.318125 
z
" style="fill:#ffffff;"/>
   </g>
   <g id="PolyCollection_1">
    <defs>
     <path d="M 89.101452 -227.616635 
L 89.101452 -226.659517 
L 90.354725 -226.659517 
L 91.607998 -226.659517 
L 92.861271 -226.659517 
L 94.114544 -226.659517 
L 95.367817 -226.659517 
L 96.62109 -226.659517 
L 97.874364 -226.659517 
L 99.127637 -226.659517 
L 100.38091 -226.659517 
L 101.634183 -226.659517 
L 102.887456 -226.659517 
L 104.140729 -226.659517 
L 105.394002 -226.659517 
L 106.647275 -226.659517 
L 107.900548 -226.659517 
L 109.153821 -226.659517 
L 110.407094 -226.659517 
L 111.660367 -226.659517 
L 112.91364 -226.659517 
L 114.166913 -226.659517 
L 115.420186 -226.659517 
L 116.673459 -226.659517 
L 117.926732 -226.659517 
L 119.180005 -226.659517 
L 120.433279 -226.659517 
L 121.686552 -226.659517 
L 122.939825 -226.659517 
L 124.193098 -226.659517 
L 125.446371 -226.659517 
L 126.699644 -226.659517 
L 127.952917 -226.659517 
L 129.20619 -226.659517 
L 130.459463 -226.659517 
L 131.712736 -226.659517 
L 132.966009 -226.659517 
L 134.219282 -226.659517 
L 135.472555 -226.659517 
L 136.725828 -226.659517 
L 137.979101 -226.659517 
L 139.232374 -226.659517 
L 140.485647 -226.659517 
L 141.738921 -226.659517 
L 142.992194 -226.659517 
L 144.245467 -226.659517 
L 145.49874 -226.659517 
L 146.752013 -226.659517 
L 148.005286 -226.659517 
L 149.258559 -226.659517 
L 150.511832 -226.659517 
L 151.765105 -226.659517 
L 153.018378 -226.659517 
L 154.271651 -226.659517 
L 155.524924 -226.659517 
L 156.778197 -226.659517 
L 158.03147 -226.659517 
L 159.284743 -226.659517 
L 160.538016 -226.659517 
L 161.791289 -226.659517 
L 163.044562 -226.659517 
L 164.297836 -226.659517 
L 165.551109 -226.659517 
L 166.804382 -226.659517 
L 168.057655 -226.659517 
L 169.310928 -226.659517 
L 170.564201 -226.659517 
L 171.817474 -226.659517 
L 173.070747 -226.659517 
L 174.32402 -226.659517 
L 175.577293 -226.659517 
L 176.830566 -226.659517 
L 178.083839 -226.659517 
L 179.337112 -226.659517 
L 180.590385 -226.659517 
L 181.843658 -226.659517 
L 183.096931 -226.659517 
L 184.350204 -226.659517 
L 185.603478 -226.659517 
L 186.856751 -226.659517 
L 188.110024 -226.659517 
L 189.363297 -226.659517 
L 190.61657 -226.659517 
L 191.869843 -226.659517 
L 193.123116 -226.659517 
L 194.376389 -226.659517 
L 195.629662 -226.659517 
L 196.882935 -226.659517 
L 198.136208 -226.659517 
L 199.389481 -226.659517 
L 200.642754 -226.659517 
L 201.896027 -226.659517 
L 203.1493 -226.659517 
L 204.402573 -226.659517 
L 205.655846 -226.659517 
L 206.909119 -226.659517 
L 208.162393 -226.659517 
L 209.415666 -226.659517 
L 210.668939 -226.659517 
L 211.922212 -226.659517 
L 213.175485 -226.659517 
L 214.428758 -226.659517 
L 215.682031 -226.659517 
L 216.935304 -226.659517 
L 218.188577 -226.659517 
L 219.44185 -226.659517 
L 220.695123 -226.659517 
L 221.948396 -226.659517 
L 223.201669 -226.659517 
L 224.454942 -226.659517 
L 225.708215 -226.659517 
L 226.961488 -226.659517 
L 228.214761 -226.659517 
L 229.468034 -226.659517 
L 230.721308 -226.659517 
L 231.974581 -226.659517 
L 233.227854 -226.659517 
L 234.481127 -226.659517 
L 235.7344 -226.659517 
L 236.987673 -226.659517 
L 238.240946 -226.659517 
L 239.494219 -226.659517 
L 240.747492 -226.659517 
L 242.000765 -226.659517 
L 243.254038 -226.659517 
L 244.507311 -226.659517 
L 245.760584 -226.659517 
L 247.013857 -226.659517 
L 248.26713 -226.659517 
L 249.520403 -226.659517 
L 250.773676 -226.659517 
L 252.02695 -226.659517 
L 253.280223 -226.659517 
L 254.533496 -226.659517 
L 255.786769 -226.659517 
L 257.040042 -226.659517 
L 258.293315 -226.659517 
L 259.546588 -226.659517 
L 260.799861 -226.659517 
L 262.053134 -226.659517 
L 263.306407 -226.659517 
L 264.55968 -226.659517 
L 265.812953 -226.659517 
L 267.066226 -226.659517 
L 268.319499 -226.659517 
L 269.572772 -226.659517 
L 270.826045 -226.659517 
L 272.079318 -226.659517 
L 273.332591 -226.659517 
L 274.585865 -226.659517 
L 275.839138 -226.659517 
L 277.092411 -226.659517 
L 278.345684 -226.659517 
L 279.598957 -226.659517 
L 280.85223 -226.659517 
L 282.105503 -226.659517 
L 283.358776 -226.659517 
L 284.612049 -226.659517 
L 285.865322 -226.659517 
L 287.118595 -226.659517 
L 288.371868 -226.659517 
L 289.625141 -226.659517 
L 290.878414 -226.659517 
L 292.131687 -226.659517 
L 293.38496 -226.659517 
L 294.638233 -226.659517 
L 295.891506 -226.659517 
L 297.14478 -226.659517 
L 298.398053 -226.659517 
L 299.651326 -226.659517 
L 300.904599 -226.659517 
L 302.157872 -226.659517 
L 303.411145 -226.659517 
L 304.664418 -226.659517 
L 305.917691 -226.659517 
L 307.170964 -226.659517 
L 308.424237 -226.659517 
L 309.67751 -226.659517 
L 310.930783 -226.659517 
L 312.184056 -226.659517 
L 313.437329 -226.659517 
L 314.690602 -226.659517 
L 315.943875 -226.659517 
L 317.197148 -226.659517 
L 318.450422 -226.659517 
L 319.703695 -226.659517 
L 320.956968 -226.659517 
L 322.210241 -226.659517 
L 323.463514 -226.659517 
L 324.716787 -226.659517 
L 325.97006 -226.659517 
L 327.223333 -226.659517 
L 328.476606 -226.659517 
L 329.729879 -226.659517 
L 330.983152 -226.659517 
L 332.236425 -226.659517 
L 333.489698 -226.659517 
L 334.742971 -226.659517 
L 335.996244 -226.659517 
L 337.249517 -226.659517 
L 338.50279 -226.659517 
L 338.50279 -237.389487 
L 338.50279 -237.389487 
L 337.249517 -237.372727 
L 335.996244 -237.322218 
L 334.742971 -237.238456 
L 333.489698 -237.122255 
L 332.236425 -236.97473 
L 330.983152 -236.797286 
L 329.729879 -236.591595 
L 328.476606 -236.359575 
L 327.223333 -236.103358 
L 325.97006 -235.825266 
L 324.716787 -235.527777 
L 323.463514 -235.213496 
L 322.210241 -234.885117 
L 320.956968 -234.545398 
L 319.703695 -234.197125 
L 318.450422 -233.843085 
L 317.197148 -233.486039 
L 315.943875 -233.128696 
L 314.690602 -232.773694 
L 313.437329 -232.423584 
L 312.184056 -232.080812 
L 310.930783 -231.747714 
L 309.67751 -231.426509 
L 308.424237 -231.119295 
L 307.170964 -230.828059 
L 305.917691 -230.554677 
L 304.664418 -230.300927 
L 303.411145 -230.068502 
L 302.157872 -229.859028 
L 300.904599 -229.674083 
L 299.651326 -229.515214 
L 298.398053 -229.383967 
L 297.14478 -229.281903 
L 295.891506 -229.210629 
L 294.638233 -229.171818 
L 293.38496 -229.167235 
L 292.131687 -229.198759 
L 290.878414 -229.268407 
L 289.625141 -229.378351 
L 288.371868 -229.530938 
L 287.118595 -229.728704 
L 285.865322 -229.974388 
L 284.612049 -230.270937 
L 283.358776 -230.621518 
L 282.105503 -231.029516 
L 280.85223 -231.498533 
L 279.598957 -232.032382 
L 278.345684 -232.635078 
L 277.092411 -233.310823 
L 275.839138 -234.063987 
L 274.585865 -234.899087 
L 273.332591 -235.820756 
L 272.079318 -236.833712 
L 270.826045 -237.942725 
L 269.572772 -239.152569 
L 268.319499 -240.467981 
L 267.066226 -241.893608 
L 265.812953 -243.433954 
L 264.55968 -245.093318 
L 263.306407 -246.875732 
L 262.053134 -248.784893 
L 260.799861 -250.824093 
L 259.546588 -252.996142 
L 258.293315 -255.30329 
L 257.040042 -257.747152 
L 255.786769 -260.32862 
L 254.533496 -263.047787 
L 253.280223 -265.903861 
L 252.02695 -268.895088 
L 250.773676 -272.018672 
L 249.520403 -275.270704 
L 248.26713 -278.646094 
L 247.013857 -282.138513 
L 245.760584 -285.74034 
L 244.507311 -289.442627 
L 243.254038 -293.235074 
L 242.000765 -297.106017 
L 240.747492 -301.042435 
L 239.494219 -305.029981 
L 238.240946 -309.053022 
L 236.987673 -313.094712 
L 235.7344 -317.13708 
L 234.481127 -321.161143 
L 233.227854 -325.147044 
L 231.974581 -329.07421 
L 230.721308 -332.921533 
L 229.468034 -336.66757 
L 228.214761 -340.290759 
L 226.961488 -343.769656 
L 225.708215 -347.083182 
L 224.454942 -350.210869 
L 223.201669 -353.133126 
L 221.948396 -355.831493 
L 220.695123 -358.288893 
L 219.44185 -360.489875 
L 218.188577 -362.420838 
L 216.935304 -364.070241 
L 215.682031 -365.428784 
L 214.428758 -366.489558 
L 213.175485 -367.248167 
L 211.922212 -367.702809 
L 210.668939 -367.854322 
L 209.415666 -367.706188 
L 208.162393 -367.264491 
L 206.909119 -366.537844 
L 205.655846 -365.537263 
L 204.402573 -364.276014 
L 203.1493 -362.769412 
L 201.896027 -361.034601 
L 200.642754 -359.090294 
L 199.389481 -356.9565 
L 198.136208 -354.654224 
L 196.882935 -352.205165 
L 195.629662 -349.631402 
L 194.376389 -346.955083 
L 193.123116 -344.19812 
L 191.869843 -341.3819 
L 190.61657 -338.527008 
L 189.363297 -335.652979 
L 188.110024 -332.778074 
L 186.856751 -329.919089 
L 185.603478 -327.091193 
L 184.350204 -324.307809 
L 183.096931 -321.580524 
L 181.843658 -318.919043 
L 180.590385 -316.33117 
L 179.337112 -313.822833 
L 178.083839 -311.398136 
L 176.830566 -309.059439 
L 175.577293 -306.807472 
L 174.32402 -304.641461 
L 173.070747 -302.559281 
L 171.817474 -300.557622 
L 170.564201 -298.632157 
L 169.310928 -296.777728 
L 168.057655 -294.988524 
L 166.804382 -293.258262 
L 165.551109 -291.580361 
L 164.297836 -289.948107 
L 163.044562 -288.354805 
L 161.791289 -286.793923 
L 160.538016 -285.259212 
L 159.284743 -283.74482 
L 158.03147 -282.245378 
L 156.778197 -280.756076 
L 155.524924 -279.272719 
L 154.271651 -277.791766 
L 153.018378 -276.310351 
L 151.765105 -274.826294 
L 150.511832 -273.338093 
L 149.258559 -271.844903 
L 148.005286 -270.346512 
L 146.752013 -268.843297 
L 145.49874 -267.336184 
L 144.245467 -265.82659 
L 142.992194 -264.316367 
L 141.738921 -262.807748 
L 140.485647 -261.30328 
L 139.232374 -259.805764 
L 137.979101 -258.318197 
L 136.725828 -256.843707 
L 135.472555 -255.385502 
L 134.219282 -253.946813 
L 132.966009 -252.530846 
L 131.712736 -251.140732 
L 130.459463 -249.779492 
L 129.20619 -248.449993 
L 127.952917 -247.15492 
L 126.699644 -245.896749 
L 125.446371 -244.67772 
L 124.193098 -243.499824 
L 122.939825 -242.364785 
L 121.686552 -241.274053 
L 120.433279 -240.228798 
L 119.180005 -239.22991 
L 117.926732 -238.277998 
L 116.673459 -237.373399 
L 115.420186 -236.516184 
L 114.166913 -235.706171 
L 112.91364 -234.942935 
L 111.660367 -234.225829 
L 110.407094 -233.553995 
L 109.153821 -232.926388 
L 107.900548 -232.341791 
L 106.647275 -231.798838 
L 105.394002 -231.296031 
L 104.140729 -230.831766 
L 102.887456 -230.404349 
L 101.634183 -230.012016 
L 100.38091 -229.652956 
L 99.127637 -229.325325 
L 97.874364 -229.027266 
L 96.62109 -228.756921 
L 95.367817 -228.512454 
L 94.114544 -228.292054 
L 92.861271 -228.093956 
L 91.607998 -227.916444 
L 90.354725 -227.757866 
L 89.101452 -227.616635 
z
" id="med7b23408d" style="stroke:#68fcc1;"/>
    </defs>
    <g clip-path="url(#p2e9c351860)">
     <use style="fill:#68fcc1;fill-opacity:0.25;stroke:#68fcc1;" x="0" xlink:href="#med7b23408d" y="397.232187"/>
    </g>
   </g>
   <g id="matplotlib.axis_1">
    <g id="xtick_1">
     <g id="line2d_1">
      <defs>
       <path d="M 0 0 
L 0 3.5 
" id="mdc5f954363" style="stroke:#000000;stroke-width:0.8;"/>
      </defs>
      <g>
       <use style="stroke:#000000;stroke-width:0.8;" x="89.101452" xlink:href="#mdc5f954363" y="170.57267"/>
      </g>
     </g>
    </g>
    <g id="xtick_2">
     <g id="line2d_2">
      <g>
       <use style="stroke:#000000;stroke-width:0.8;" x="135.198106" xlink:href="#mdc5f954363" y="170.57267"/>
      </g>
     </g>
    </g>
    <g id="xtick_3">
     <g id="line2d_3">
      <g>
       <use style="stroke:#000000;stroke-width:0.8;" x="181.294761" xlink:href="#mdc5f954363" y="170.57267"/>
      </g>
     </g>
    </g>
    <g id="xtick_4">
     <g id="line2d_4">
      <g>
       <use style="stroke:#000000;stroke-width:0.8;" x="227.391415" xlink:href="#mdc5f954363" y="170.57267"/>
      </g>
     </g>
    </g>
    <g id="xtick_5">
     <g id="line2d_5">
      <g>
       <use style="stroke:#000000;stroke-width:0.8;" x="273.488069" xlink:href="#mdc5f954363" y="170.57267"/>
      </g>
     </g>
    </g>
    <g id="xtick_6">
     <g id="line2d_6">
      <g>
       <use style="stroke:#000000;stroke-width:0.8;" x="319.584724" xlink:href="#mdc5f954363" y="170.57267"/>
      </g>
     </g>
    </g>
    <g id="xtick_7">
     <g id="line2d_7">
      <g>
       <use style="stroke:#000000;stroke-width:0.8;" x="365.681378" xlink:href="#mdc5f954363" y="170.57267"/>
      </g>
     </g>
    </g>
   </g>
   <g id="matplotlib.axis_2">
    <g id="ytick_1">
     <g id="line2d_8">
      <defs>
       <path d="M 0 0 
L -3.5 0 
" id="m1652502c1b" style="stroke:#000000;stroke-width:0.8;"/>
      </defs>
      <g>
       <use style="stroke:#000000;stroke-width:0.8;" x="66.053125" xlink:href="#m1652502c1b" y="170.57267"/>
      </g>
     </g>
     <g id="text_1">
      <text style="font-family:DejaVu Sans;font-size:10px;font-stretch:normal;font-style:normal;font-weight:normal;text-anchor:end;" transform="rotate(-0, 59.053125, 174.371889)" x="59.053125" y="174.371889">0</text>
     </g>
    </g>
    <g id="ytick_2">
     <g id="line2d_9">
      <g>
       <use style="stroke:#000000;stroke-width:0.8;" x="66.053125" xlink:href="#m1652502c1b" y="144.594134"/>
      </g>
     </g>
     <g id="text_2">
      <text style="font-family:DejaVu Sans;font-size:10px;font-stretch:normal;font-style:normal;font-weight:normal;text-anchor:end;" transform="rotate(-0, 59.053125, 148.393353)" x="59.053125" y="148.393353">50000</text>
     </g>
    </g>
    <g id="ytick_3">
     <g id="line2d_10">
      <g>
       <use style="stroke:#000000;stroke-width:0.8;" x="66.053125" xlink:href="#m1652502c1b" y="118.615598"/>
      </g>
     </g>
     <g id="text_3">
      <text style="font-family:DejaVu Sans;font-size:10px;font-stretch:normal;font-style:normal;font-weight:normal;text-anchor:end;" transform="rotate(-0, 59.053125, 122.414817)" x="59.053125" y="122.414817">100000</text>
     </g>
    </g>
    <g id="ytick_4">
     <g id="line2d_11">
      <g>
       <use style="stroke:#000000;stroke-width:0.8;" x="66.053125" xlink:href="#m1652502c1b" y="92.637061"/>
      </g>
     </g>
     <g id="text_4">
      <text style="font-family:DejaVu Sans;font-size:10px;font-stretch:normal;font-style:normal;font-weight:normal;text-anchor:end;" transform="rotate(-0, 59.053125, 96.43628)" x="59.053125" y="96.43628">150000</text>
     </g>
    </g>
    <g id="ytick_5">
     <g id="line2d_12">
      <g>
       <use style="stroke:#000000;stroke-width:0.8;" x="66.053125" xlink:href="#m1652502c1b" y="66.658525"/>
      </g>
     </g>
     <g id="text_5">
      <text style="font-family:DejaVu Sans;font-size:10px;font-stretch:normal;font-style:normal;font-weight:normal;text-anchor:end;" transform="rotate(-0, 59.053125, 70.457744)" x="59.053125" y="70.457744">200000</text>
     </g>
    </g>
    <g id="ytick_6">
     <g id="line2d_13">
      <g>
       <use style="stroke:#000000;stroke-width:0.8;" x="66.053125" xlink:href="#m1652502c1b" y="40.679989"/>
      </g>
     </g>
     <g id="text_6">
      <text style="font-family:DejaVu Sans;font-size:10px;font-stretch:normal;font-style:normal;font-weight:normal;text-anchor:end;" transform="rotate(-0, 59.053125, 44.479207)" x="59.053125" y="44.479207">250000</text>
     </g>
    </g>
    <g id="text_7">
     <text style="font-family:DejaVu Sans;font-size:10px;font-stretch:normal;font-style:normal;font-weight:normal;text-anchor:middle;" transform="rotate(-90, 14.798438, 96.445398)" x="14.798438" y="96.445398">Density</text>
    </g>
   </g>
   <g id="patch_3">
    <path d="M 66.053125 170.57267 
L 66.053125 22.318125 
" style="fill:none;stroke:#000000;stroke-linecap:square;stroke-linejoin:miter;stroke-width:0.8;"/>
   </g>
   <g id="patch_4">
    <path d="M 400.853125 170.57267 
L 400.853125 22.318125 
" style="fill:none;stroke:#000000;stroke-linecap:square;stroke-linejoin:miter;stroke-width:0.8;"/>
   </g>
   <g id="patch_5">
    <path d="M 66.053125 170.57267 
L 400.853125 170.57267 
" style="fill:none;stroke:#000000;stroke-linecap:square;stroke-linejoin:miter;stroke-width:0.8;"/>
   </g>
   <g id="patch_6">
    <path d="M 66.053125 22.318125 
L 400.853125 22.318125 
" style="fill:none;stroke:#000000;stroke-linecap:square;stroke-linejoin:miter;stroke-width:0.8;"/>
   </g>
   <g id="text_8">
    <text style="font-family:DejaVu Sans;font-size:12px;font-stretch:normal;font-style:normal;font-weight:normal;text-anchor:middle;" transform="rotate(-0, 233.453125, 16.318125)" x="233.453125" y="16.318125">4.ANT</text>
   </g>
  </g>
  <g id="axes_2">
   <g id="patch_7">
    <path d="M 66.053125 348.478125 
L 400.853125 348.478125 
L 400.853125 200.22358 
L 66.053125 200.22358 
z
" style="fill:#ffffff;"/>
   </g>
   <g id="matplotlib.axis_3">
    <g id="xtick_8">
     <g id="line2d_14">
      <g>
       <use style="stroke:#000000;stroke-width:0.8;" x="89.101452" xlink:href="#mdc5f954363" y="348.478125"/>
      </g>
     </g>
     <g id="text_9">
      <text style="font-family:DejaVu Sans;font-size:10px;font-stretch:normal;font-style:normal;font-weight:normal;text-anchor:middle;" transform="rotate(-0, 89.101452, 363.076562)" x="89.101452" y="363.076562">0.0</text>
     </g>
    </g>
    <g id="xtick_9">
     <g id="line2d_15">
      <g>
       <use style="stroke:#000000;stroke-width:0.8;" x="135.198106" xlink:href="#mdc5f954363" y="348.478125"/>
      </g>
     </g>
     <g id="text_10">
      <text style="font-family:DejaVu Sans;font-size:10px;font-stretch:normal;font-style:normal;font-weight:normal;text-anchor:middle;" transform="rotate(-0, 135.198106, 363.076562)" x="135.198106" y="363.076562">0.2</text>
     </g>
    </g>
    <g id="xtick_10">
     <g id="line2d_16">
      <g>
       <use style="stroke:#000000;stroke-width:0.8;" x="181.294761" xlink:href="#mdc5f954363" y="348.478125"/>
      </g>
     </g>
     <g id="text_11">
      <text style="font-family:DejaVu Sans;font-size:10px;font-stretch:normal;font-style:normal;font-weight:normal;text-anchor:middle;" transform="rotate(-0, 181.294761, 363.076562)" x="181.294761" y="363.076562">0.4</text>
     </g>
    </g>
    <g id="xtick_11">
     <g id="line2d_17">
      <g>
       <use style="stroke:#000000;stroke-width:0.8;" x="227.391415" xlink:href="#mdc5f954363" y="348.478125"/>
      </g>
     </g>
     <g id="text_12">
      <text style="font-family:DejaVu Sans;font-size:10px;font-stretch:normal;font-style:normal;font-weight:normal;text-anchor:middle;" transform="rotate(-0, 227.391415, 363.076562)" x="227.391415" y="363.076562">0.6</text>
     </g>
    </g>
    <g id="xtick_12">
     <g id="line2d_18">
      <g>
       <use style="stroke:#000000;stroke-width:0.8;" x="273.488069" xlink:href="#mdc5f954363" y="348.478125"/>
      </g>
     </g>
     <g id="text_13">
      <text style="font-family:DejaVu Sans;font-size:10px;font-stretch:normal;font-style:normal;font-weight:normal;text-anchor:middle;" transform="rotate(-0, 273.488069, 363.076562)" x="273.488069" y="363.076562">0.8</text>
     </g>
    </g>
    <g id="xtick_13">
     <g id="line2d_19">
      <g>
       <use style="stroke:#000000;stroke-width:0.8;" x="319.584724" xlink:href="#mdc5f954363" y="348.478125"/>
      </g>
     </g>
     <g id="text_14">
      <text style="font-family:DejaVu Sans;font-size:10px;font-stretch:normal;font-style:normal;font-weight:normal;text-anchor:middle;" transform="rotate(-0, 319.584724, 363.076562)" x="319.584724" y="363.076562">1.0</text>
     </g>
    </g>
    <g id="xtick_14">
     <g id="line2d_20">
      <g>
       <use style="stroke:#000000;stroke-width:0.8;" x="365.681378" xlink:href="#mdc5f954363" y="348.478125"/>
      </g>
     </g>
     <g id="text_15">
      <text style="font-family:DejaVu Sans;font-size:10px;font-stretch:normal;font-style:normal;font-weight:normal;text-anchor:middle;" transform="rotate(-0, 365.681378, 363.076562)" x="365.681378" y="363.076562">1.2</text>
     </g>
    </g>
    <g id="text_16">
     <text style="font-family:DejaVu Sans;font-size:10px;font-stretch:normal;font-style:normal;font-weight:normal;" transform="translate(192.064844 376.754687)">Distance to Root</text>
     <text style="font-family:DejaVu Sans;font-size:10px;font-stretch:normal;font-style:normal;font-weight:normal;" transform="translate(185.485156 387.9525)">(Substitutions/Site)</text>
    </g>
    <g id="text_17">
     <text style="font-family:DejaVu Sans;font-size:10px;font-stretch:normal;font-style:normal;font-weight:normal;text-anchor:end;" transform="rotate(-0, 400.853125, 375.754687)" x="400.853125" y="375.754687">1e−5</text>
    </g>
   </g>
   <g id="matplotlib.axis_4">
    <g id="text_18">
     <text style="font-family:DejaVu Sans;font-size:10px;font-stretch:normal;font-style:normal;font-weight:normal;text-anchor:middle;" transform="rotate(-90, 59.973438, 274.350852)" x="59.973438" y="274.350852">Taxa</text>
    </g>
   </g>
   <g id="LineCollection_1">
    <path clip-path="url(#p903a2e5afe)" d="M 89.101452 307.009521 
L 89.101452 307.009521 
" style="fill:none;stroke:#68fcc1;"/>
   </g>
   <g id="LineCollection_2">
    <path clip-path="url(#p903a2e5afe)" d="M 89.101452 291.741073 
L 140.395504 291.741073 
" style="fill:none;stroke:#68fcc1;"/>
   </g>
   <g id="LineCollection_3">
    <path clip-path="url(#p903a2e5afe)" d="M 140.395504 277.179883 
L 172.97201 277.179883 
" style="fill:none;stroke:#68fcc1;"/>
   </g>
   <g id="LineCollection_4">
    <path clip-path="url(#p903a2e5afe)" d="M 172.97201 264.033209 
L 197.338701 264.033209 
" style="fill:none;stroke:#68fcc1;"/>
   </g>
   <g id="LineCollection_5">
    <path clip-path="url(#p903a2e5afe)" d="M 197.338701 253.715566 
L 208.196768 253.715566 
" style="fill:none;stroke:#68fcc1;"/>
   </g>
   <g id="LineCollection_6">
    <path clip-path="url(#p903a2e5afe)" d="M 208.196768 243.73075 
L 208.740709 243.73075 
" style="fill:none;stroke:#68fcc1;"/>
   </g>
   <g id="LineCollection_7">
    <path clip-path="url(#p903a2e5afe)" d="M 208.740709 234.411589 
L 209.284649 234.411589 
" style="fill:none;stroke:#68fcc1;"/>
   </g>
   <g id="LineCollection_8">
    <path clip-path="url(#p903a2e5afe)" d="M 209.284649 226.423736 
L 209.82859 226.423736 
" style="fill:none;stroke:#68fcc1;"/>
   </g>
   <g id="LineCollection_9">
    <path clip-path="url(#p903a2e5afe)" d="M 209.82859 221.098501 
L 210.37253 221.098501 
" style="fill:none;stroke:#68fcc1;"/>
   </g>
   <g id="LineCollection_10">
    <path clip-path="url(#p903a2e5afe)" d="M 209.82859 231.748971 
L 210.37253 231.748971 
" style="fill:none;stroke:#68fcc1;"/>
   </g>
   <g id="LineCollection_11">
    <path clip-path="url(#p903a2e5afe)" d="M 209.284649 242.399442 
L 209.82859 242.399442 
" style="fill:none;stroke:#68fcc1;"/>
   </g>
   <g id="LineCollection_12">
    <path clip-path="url(#p903a2e5afe)" d="M 208.740709 253.049912 
L 219.598776 253.049912 
" style="fill:none;stroke:#68fcc1;"/>
   </g>
   <g id="LineCollection_13">
    <path clip-path="url(#p903a2e5afe)" d="M 208.196768 263.700382 
L 208.740709 263.700382 
" style="fill:none;stroke:#68fcc1;"/>
   </g>
   <g id="LineCollection_14">
    <path clip-path="url(#p903a2e5afe)" d="M 197.338701 274.350852 
L 338.50279 274.350852 
" style="fill:none;stroke:#68fcc1;"/>
   </g>
   <g id="LineCollection_15">
    <path clip-path="url(#p903a2e5afe)" d="M 172.97201 290.326558 
L 211.82227 290.326558 
" style="fill:none;stroke:#68fcc1;"/>
   </g>
   <g id="LineCollection_16">
    <path clip-path="url(#p903a2e5afe)" d="M 211.82227 285.001322 
L 238.96859 285.001322 
" style="fill:none;stroke:#68fcc1;"/>
   </g>
   <g id="LineCollection_17">
    <path clip-path="url(#p903a2e5afe)" d="M 211.82227 295.651793 
L 223.81201 295.651793 
" style="fill:none;stroke:#68fcc1;"/>
   </g>
   <g id="LineCollection_18">
    <path clip-path="url(#p903a2e5afe)" d="M 140.395504 306.302263 
L 235.836322 306.302263 
" style="fill:none;stroke:#68fcc1;"/>
   </g>
   <g id="LineCollection_19">
    <path clip-path="url(#p903a2e5afe)" d="M 89.101452 322.277968 
L 154.254463 322.277968 
" style="fill:none;stroke:#68fcc1;"/>
   </g>
   <g id="LineCollection_20">
    <path clip-path="url(#p903a2e5afe)" d="M 154.254463 316.952733 
L 165.11253 316.952733 
" style="fill:none;stroke:#68fcc1;"/>
   </g>
   <g id="LineCollection_21">
    <path clip-path="url(#p903a2e5afe)" d="M 154.254463 327.603203 
L 170.542716 327.603203 
" style="fill:none;stroke:#68fcc1;"/>
   </g>
   <g id="LineCollection_22">
    <path clip-path="url(#p903a2e5afe)" d="M 89.101452 322.277968 
L 89.101452 291.741073 
" style="fill:none;stroke:#68fcc1;"/>
   </g>
   <g id="LineCollection_23">
    <path clip-path="url(#p903a2e5afe)" d="M 140.395504 306.302263 
L 140.395504 277.179883 
" style="fill:none;stroke:#68fcc1;"/>
   </g>
   <g id="LineCollection_24">
    <path clip-path="url(#p903a2e5afe)" d="M 172.97201 290.326558 
L 172.97201 264.033209 
" style="fill:none;stroke:#68fcc1;"/>
   </g>
   <g id="LineCollection_25">
    <path clip-path="url(#p903a2e5afe)" d="M 197.338701 274.350852 
L 197.338701 253.715566 
" style="fill:none;stroke:#68fcc1;"/>
   </g>
   <g id="LineCollection_26">
    <path clip-path="url(#p903a2e5afe)" d="M 208.196768 263.700382 
L 208.196768 243.73075 
" style="fill:none;stroke:#68fcc1;"/>
   </g>
   <g id="LineCollection_27">
    <path clip-path="url(#p903a2e5afe)" d="M 208.740709 253.049912 
L 208.740709 234.411589 
" style="fill:none;stroke:#68fcc1;"/>
   </g>
   <g id="LineCollection_28">
    <path clip-path="url(#p903a2e5afe)" d="M 209.284649 242.399442 
L 209.284649 226.423736 
" style="fill:none;stroke:#68fcc1;"/>
   </g>
   <g id="LineCollection_29">
    <path clip-path="url(#p903a2e5afe)" d="M 209.82859 231.748971 
L 209.82859 221.098501 
" style="fill:none;stroke:#68fcc1;"/>
   </g>
   <g id="LineCollection_30">
    <path clip-path="url(#p903a2e5afe)" d="M 211.82227 295.651793 
L 211.82227 285.001322 
" style="fill:none;stroke:#68fcc1;"/>
   </g>
   <g id="LineCollection_31">
    <path clip-path="url(#p903a2e5afe)" d="M 154.254463 327.603203 
L 154.254463 316.952733 
" style="fill:none;stroke:#68fcc1;"/>
   </g>
   <g id="PathCollection_1">
    <defs>
     <path d="M 0 1.581139 
C 0.419323 1.581139 0.821528 1.41454 1.118034 1.118034 
C 1.41454 0.821528 1.581139 0.419323 1.581139 0 
C 1.581139 -0.419323 1.41454 -0.821528 1.118034 -1.118034 
C 0.821528 -1.41454 0.419323 -1.581139 0 -1.581139 
C -0.419323 -1.581139 -0.821528 -1.41454 -1.118034 -1.118034 
C -1.41454 -0.821528 -1.581139 -0.419323 -1.581139 0 
C -1.581139 0.419323 -1.41454 0.821528 -1.118034 1.118034 
C -0.821528 1.41454 -0.419323 1.581139 0 1.581139 
z
" id="m5d003f3d11" style="stroke:#000000;stroke-width:0.252982;"/>
    </defs>
    <g clip-path="url(#p903a2e5afe)">
     <use style="fill:#68fcc1;stroke:#000000;stroke-width:0.252982;" x="210.37253" xlink:href="#m5d003f3d11" y="221.098501"/>
     <use style="fill:#68fcc1;stroke:#000000;stroke-width:0.252982;" x="210.37253" xlink:href="#m5d003f3d11" y="231.748971"/>
     <use style="fill:#68fcc1;stroke:#000000;stroke-width:0.252982;" x="209.82859" xlink:href="#m5d003f3d11" y="242.399442"/>
     <use style="fill:#68fcc1;stroke:#000000;stroke-width:0.252982;" x="219.598776" xlink:href="#m5d003f3d11" y="253.049912"/>
     <use style="fill:#68fcc1;stroke:#000000;stroke-width:0.252982;" x="208.740709" xlink:href="#m5d003f3d11" y="263.700382"/>
     <use style="fill:#68fcc1;stroke:#000000;stroke-width:0.252982;" x="338.50279" xlink:href="#m5d003f3d11" y="274.350852"/>
     <use style="fill:#68fcc1;stroke:#000000;stroke-width:0.252982;" x="238.96859" xlink:href="#m5d003f3d11" y="285.001322"/>
     <use style="fill:#68fcc1;stroke:#000000;stroke-width:0.252982;" x="223.81201" xlink:href="#m5d003f3d11" y="295.651793"/>
     <use style="fill:#68fcc1;stroke:#000000;stroke-width:0.252982;" x="235.836322" xlink:href="#m5d003f3d11" y="306.302263"/>
     <use style="fill:#68fcc1;stroke:#000000;stroke-width:0.252982;" x="165.11253" xlink:href="#m5d003f3d11" y="316.952733"/>
     <use style="fill:#68fcc1;stroke:#000000;stroke-width:0.252982;" x="170.542716" xlink:href="#m5d003f3d11" y="327.603203"/>
    </g>
   </g>
   <g id="patch_8">
    <path d="M 66.053125 348.478125 
L 66.053125 200.22358 
" style="fill:none;stroke:#000000;stroke-linecap:square;stroke-linejoin:miter;stroke-width:0.8;"/>
   </g>
   <g id="patch_9">
    <path d="M 400.853125 348.478125 
L 400.853125 200.22358 
" style="fill:none;stroke:#000000;stroke-linecap:square;stroke-linejoin:miter;stroke-width:0.8;"/>
   </g>
   <g id="patch_10">
    <path d="M 66.053125 348.478125 
L 400.853125 348.478125 
" style="fill:none;stroke:#000000;stroke-linecap:square;stroke-linejoin:miter;stroke-width:0.8;"/>
   </g>
   <g id="patch_11">
    <path d="M 66.053125 200.22358 
L 400.853125 200.22358 
" style="fill:none;stroke:#000000;stroke-linecap:square;stroke-linejoin:miter;stroke-width:0.8;"/>
   </g>
   <g id="text_19">
    <text style="font-family:DejaVu Sans;font-size:10px;font-stretch:normal;font-style:normal;font-weight:normal;text-anchor:start;" transform="rotate(-0, 89.101452, 309.768896)" x="89.101452" y="309.768896"> </text>
   </g>
   <g id="text_20">
    <text style="font-family:DejaVu Sans;font-size:10px;font-stretch:normal;font-style:normal;font-weight:normal;text-anchor:start;" transform="rotate(-0, 140.395504, 294.500448)" x="140.395504" y="294.500448"> </text>
   </g>
   <g id="text_21">
    <text style="font-family:DejaVu Sans;font-size:10px;font-stretch:normal;font-style:normal;font-weight:normal;text-anchor:start;" transform="rotate(-0, 172.97201, 279.939258)" x="172.97201" y="279.939258"> </text>
   </g>
   <g id="text_22">
    <text style="font-family:DejaVu Sans;font-size:10px;font-stretch:normal;font-style:normal;font-weight:normal;text-anchor:start;" transform="rotate(-0, 197.338701, 266.792584)" x="197.338701" y="266.792584"> </text>
   </g>
   <g id="text_23">
    <text style="font-family:DejaVu Sans;font-size:10px;font-stretch:normal;font-style:normal;font-weight:normal;text-anchor:start;" transform="rotate(-0, 208.196768, 256.474941)" x="208.196768" y="256.474941"> </text>
   </g>
   <g id="text_24">
    <text style="font-family:DejaVu Sans;font-size:10px;font-stretch:normal;font-style:normal;font-weight:normal;text-anchor:start;" transform="rotate(-0, 208.740709, 246.490125)" x="208.740709" y="246.490125"> </text>
   </g>
   <g id="text_25">
    <text style="font-family:DejaVu Sans;font-size:10px;font-stretch:normal;font-style:normal;font-weight:normal;text-anchor:start;" transform="rotate(-0, 209.284649, 237.170964)" x="209.284649" y="237.170964"> </text>
   </g>
   <g id="text_26">
    <text style="font-family:DejaVu Sans;font-size:10px;font-stretch:normal;font-style:normal;font-weight:normal;text-anchor:start;" transform="rotate(-0, 209.82859, 229.183111)" x="209.82859" y="229.183111"> </text>
   </g>
   <g id="text_27">
    <text style="font-family:DejaVu Sans;font-size:10px;font-stretch:normal;font-style:normal;font-weight:normal;text-anchor:start;" transform="rotate(-0, 210.37253, 223.857876)" x="210.37253" y="223.857876"> </text>
   </g>
   <g id="text_28">
    <text style="font-family:DejaVu Sans;font-size:10px;font-stretch:normal;font-style:normal;font-weight:normal;text-anchor:start;" transform="rotate(-0, 210.37253, 234.508346)" x="210.37253" y="234.508346"> </text>
   </g>
   <g id="text_29">
    <text style="font-family:DejaVu Sans;font-size:10px;font-stretch:normal;font-style:normal;font-weight:normal;text-anchor:start;" transform="rotate(-0, 209.82859, 245.158817)" x="209.82859" y="245.158817"> </text>
   </g>
   <g id="text_30">
    <text style="font-family:DejaVu Sans;font-size:10px;font-stretch:normal;font-style:normal;font-weight:normal;text-anchor:start;" transform="rotate(-0, 219.598776, 255.809287)" x="219.598776" y="255.809287"> </text>
   </g>
   <g id="text_31">
    <text style="font-family:DejaVu Sans;font-size:10px;font-stretch:normal;font-style:normal;font-weight:normal;text-anchor:start;" transform="rotate(-0, 208.740709, 266.459757)" x="208.740709" y="266.459757"> </text>
   </g>
   <g id="text_32">
    <text style="font-family:DejaVu Sans;font-size:10px;font-stretch:normal;font-style:normal;font-weight:normal;text-anchor:start;" transform="rotate(-0, 338.50279, 277.110227)" x="338.50279" y="277.110227"> </text>
   </g>
   <g id="text_33">
    <text style="font-family:DejaVu Sans;font-size:10px;font-stretch:normal;font-style:normal;font-weight:normal;text-anchor:start;" transform="rotate(-0, 211.82227, 293.085933)" x="211.82227" y="293.085933"> </text>
   </g>
   <g id="text_34">
    <text style="font-family:DejaVu Sans;font-size:10px;font-stretch:normal;font-style:normal;font-weight:normal;text-anchor:start;" transform="rotate(-0, 238.96859, 287.760697)" x="238.96859" y="287.760697"> </text>
   </g>
   <g id="text_35">
    <text style="font-family:DejaVu Sans;font-size:10px;font-stretch:normal;font-style:normal;font-weight:normal;text-anchor:start;" transform="rotate(-0, 223.81201, 298.411168)" x="223.81201" y="298.411168"> </text>
   </g>
   <g id="text_36">
    <text style="font-family:DejaVu Sans;font-size:10px;font-stretch:normal;font-style:normal;font-weight:normal;text-anchor:start;" transform="rotate(-0, 235.836322, 309.061638)" x="235.836322" y="309.061638"> </text>
   </g>
   <g id="text_37">
    <text style="font-family:DejaVu Sans;font-size:10px;font-stretch:normal;font-style:normal;font-weight:normal;text-anchor:start;" transform="rotate(-0, 154.254463, 325.037343)" x="154.254463" y="325.037343"> </text>
   </g>
   <g id="text_38">
    <text style="font-family:DejaVu Sans;font-size:10px;font-stretch:normal;font-style:normal;font-weight:normal;text-anchor:start;" transform="rotate(-0, 165.11253, 319.712108)" x="165.11253" y="319.712108"> </text>
   </g>
   <g id="text_39">
    <text style="font-family:DejaVu Sans;font-size:10px;font-stretch:normal;font-style:normal;font-weight:normal;text-anchor:start;" transform="rotate(-0, 170.542716, 330.362578)" x="170.542716" y="330.362578"> </text>
   </g>
  </g>
 </g>
 <defs>
  <clipPath id="p2e9c351860">
   <rect height="148.254545" width="334.8" x="66.053125" y="22.318125"/>
  </clipPath>
  <clipPath id="p903a2e5afe">
   <rect height="148.254545" width="334.8" x="66.053125" y="200.22358"/>
  </clipPath>
 </defs>
</svg>
