<?xml version="1.0" encoding="utf-8" standalone="no"?>
<!DOCTYPE svg PUBLIC "-//W3C//DTD SVG 1.1//EN"
  "http://www.w3.org/Graphics/SVG/1.1/DTD/svg11.dtd">
<!-- Created with matplotlib (https://matplotlib.org/) -->
<svg height="397.232187pt" version="1.1" viewBox="0 0 416.004687 397.232187" width="416.004687pt" xmlns="http://www.w3.org/2000/svg" xmlns:xlink="http://www.w3.org/1999/xlink">
 <metadata>
  <rdf:RDF xmlns:cc="http://creativecommons.org/ns#" xmlns:dc="http://purl.org/dc/elements/1.1/" xmlns:rdf="http://www.w3.org/1999/02/22-rdf-syntax-ns#">
   <cc:Work>
    <dc:type rdf:resource="http://purl.org/dc/dcmitype/StillImage"/>
    <dc:date>2021-09-17T15:05:48.005202</dc:date>
    <dc:format>image/svg+xml</dc:format>
    <dc:creator>
     <cc:Agent>
      <dc:title>Matplotlib v3.3.2, https://matplotlib.org/</dc:title>
     </cc:Agent>
    </dc:creator>
   </cc:Work>
  </rdf:RDF>
 </metadata>
 <defs>
  <style type="text/css">*{stroke-linecap:butt;stroke-linejoin:round;}</style>
 </defs>
 <g id="figure_1">
  <g id="patch_1">
   <path d="M 0 397.232187 
L 416.004687 397.232187 
L 416.004687 0 
L 0 0 
z
" style="fill:#ffffff;"/>
  </g>
  <g id="axes_1">
   <g id="patch_2">
    <path d="M 66.053125 170.57267 
L 400.853125 170.57267 
L 400.853125 22.318125 
L 66.053125 22.318125 
z
" style="fill:#ffffff;"/>
   </g>
   <g id="PolyCollection_1">
    <defs>
     <path d="M 186.639621 -227.821685 
L 186.639621 -226.659517 
L 187.097597 -226.659517 
L 187.555573 -226.659517 
L 188.013548 -226.659517 
L 188.471524 -226.659517 
L 188.9295 -226.659517 
L 189.387475 -226.659517 
L 189.845451 -226.659517 
L 190.303427 -226.659517 
L 190.761402 -226.659517 
L 191.219378 -226.659517 
L 191.677354 -226.659517 
L 192.13533 -226.659517 
L 192.593305 -226.659517 
L 193.051281 -226.659517 
L 193.509257 -226.659517 
L 193.967232 -226.659517 
L 194.425208 -226.659517 
L 194.883184 -226.659517 
L 195.341159 -226.659517 
L 195.799135 -226.659517 
L 196.257111 -226.659517 
L 196.715086 -226.659517 
L 197.173062 -226.659517 
L 197.631038 -226.659517 
L 198.089013 -226.659517 
L 198.546989 -226.659517 
L 199.004965 -226.659517 
L 199.46294 -226.659517 
L 199.920916 -226.659517 
L 200.378892 -226.659517 
L 200.836867 -226.659517 
L 201.294843 -226.659517 
L 201.752819 -226.659517 
L 202.210795 -226.659517 
L 202.66877 -226.659517 
L 203.126746 -226.659517 
L 203.584722 -226.659517 
L 204.042697 -226.659517 
L 204.500673 -226.659517 
L 204.958649 -226.659517 
L 205.416624 -226.659517 
L 205.8746 -226.659517 
L 206.332576 -226.659517 
L 206.790551 -226.659517 
L 207.248527 -226.659517 
L 207.706503 -226.659517 
L 208.164478 -226.659517 
L 208.622454 -226.659517 
L 209.08043 -226.659517 
L 209.538405 -226.659517 
L 209.996381 -226.659517 
L 210.454357 -226.659517 
L 210.912332 -226.659517 
L 211.370308 -226.659517 
L 211.828284 -226.659517 
L 212.28626 -226.659517 
L 212.744235 -226.659517 
L 213.202211 -226.659517 
L 213.660187 -226.659517 
L 214.118162 -226.659517 
L 214.576138 -226.659517 
L 215.034114 -226.659517 
L 215.492089 -226.659517 
L 215.950065 -226.659517 
L 216.408041 -226.659517 
L 216.866016 -226.659517 
L 217.323992 -226.659517 
L 217.781968 -226.659517 
L 218.239943 -226.659517 
L 218.697919 -226.659517 
L 219.155895 -226.659517 
L 219.61387 -226.659517 
L 220.071846 -226.659517 
L 220.529822 -226.659517 
L 220.987797 -226.659517 
L 221.445773 -226.659517 
L 221.903749 -226.659517 
L 222.361725 -226.659517 
L 222.8197 -226.659517 
L 223.277676 -226.659517 
L 223.735652 -226.659517 
L 224.193627 -226.659517 
L 224.651603 -226.659517 
L 225.109579 -226.659517 
L 225.567554 -226.659517 
L 226.02553 -226.659517 
L 226.483506 -226.659517 
L 226.941481 -226.659517 
L 227.399457 -226.659517 
L 227.857433 -226.659517 
L 228.315408 -226.659517 
L 228.773384 -226.659517 
L 229.23136 -226.659517 
L 229.689335 -226.659517 
L 230.147311 -226.659517 
L 230.605287 -226.659517 
L 231.063262 -226.659517 
L 231.521238 -226.659517 
L 231.979214 -226.659517 
L 232.437189 -226.659517 
L 232.895165 -226.659517 
L 233.353141 -226.659517 
L 233.811117 -226.659517 
L 234.269092 -226.659517 
L 234.727068 -226.659517 
L 235.185044 -226.659517 
L 235.643019 -226.659517 
L 236.100995 -226.659517 
L 236.558971 -226.659517 
L 237.016946 -226.659517 
L 237.474922 -226.659517 
L 237.932898 -226.659517 
L 238.390873 -226.659517 
L 238.848849 -226.659517 
L 239.306825 -226.659517 
L 239.7648 -226.659517 
L 240.222776 -226.659517 
L 240.680752 -226.659517 
L 241.138727 -226.659517 
L 241.596703 -226.659517 
L 242.054679 -226.659517 
L 242.512654 -226.659517 
L 242.97063 -226.659517 
L 243.428606 -226.659517 
L 243.886582 -226.659517 
L 244.344557 -226.659517 
L 244.802533 -226.659517 
L 245.260509 -226.659517 
L 245.718484 -226.659517 
L 246.17646 -226.659517 
L 246.634436 -226.659517 
L 247.092411 -226.659517 
L 247.550387 -226.659517 
L 248.008363 -226.659517 
L 248.466338 -226.659517 
L 248.924314 -226.659517 
L 249.38229 -226.659517 
L 249.840265 -226.659517 
L 250.298241 -226.659517 
L 250.756217 -226.659517 
L 251.214192 -226.659517 
L 251.672168 -226.659517 
L 252.130144 -226.659517 
L 252.588119 -226.659517 
L 253.046095 -226.659517 
L 253.504071 -226.659517 
L 253.962047 -226.659517 
L 254.420022 -226.659517 
L 254.877998 -226.659517 
L 255.335974 -226.659517 
L 255.793949 -226.659517 
L 256.251925 -226.659517 
L 256.709901 -226.659517 
L 257.167876 -226.659517 
L 257.625852 -226.659517 
L 258.083828 -226.659517 
L 258.541803 -226.659517 
L 258.999779 -226.659517 
L 259.457755 -226.659517 
L 259.91573 -226.659517 
L 260.373706 -226.659517 
L 260.831682 -226.659517 
L 261.289657 -226.659517 
L 261.747633 -226.659517 
L 262.205609 -226.659517 
L 262.663584 -226.659517 
L 263.12156 -226.659517 
L 263.579536 -226.659517 
L 264.037511 -226.659517 
L 264.495487 -226.659517 
L 264.953463 -226.659517 
L 265.411439 -226.659517 
L 265.869414 -226.659517 
L 266.32739 -226.659517 
L 266.785366 -226.659517 
L 267.243341 -226.659517 
L 267.701317 -226.659517 
L 268.159293 -226.659517 
L 268.617268 -226.659517 
L 269.075244 -226.659517 
L 269.53322 -226.659517 
L 269.991195 -226.659517 
L 270.449171 -226.659517 
L 270.907147 -226.659517 
L 271.365122 -226.659517 
L 271.823098 -226.659517 
L 272.281074 -226.659517 
L 272.739049 -226.659517 
L 273.197025 -226.659517 
L 273.655001 -226.659517 
L 274.112976 -226.659517 
L 274.570952 -226.659517 
L 275.028928 -226.659517 
L 275.486904 -226.659517 
L 275.944879 -226.659517 
L 276.402855 -226.659517 
L 276.860831 -226.659517 
L 277.318806 -226.659517 
L 277.776782 -226.659517 
L 277.776782 -286.349248 
L 277.776782 -286.349248 
L 277.318806 -287.21505 
L 276.860831 -288.057423 
L 276.402855 -288.875912 
L 275.944879 -289.670167 
L 275.486904 -290.439945 
L 275.028928 -291.185117 
L 274.570952 -291.905662 
L 274.112976 -292.601679 
L 273.655001 -293.273383 
L 273.197025 -293.921105 
L 272.739049 -294.545297 
L 272.281074 -295.14653 
L 271.823098 -295.725496 
L 271.365122 -296.283001 
L 270.907147 -296.819972 
L 270.449171 -297.337451 
L 269.991195 -297.836592 
L 269.53322 -298.318661 
L 269.075244 -298.785029 
L 268.617268 -299.237172 
L 268.159293 -299.676665 
L 267.701317 -300.105176 
L 267.243341 -300.524462 
L 266.785366 -300.936361 
L 266.32739 -301.34279 
L 265.869414 -301.74573 
L 265.411439 -302.147228 
L 264.953463 -302.549381 
L 264.495487 -302.954331 
L 264.037511 -303.364257 
L 263.579536 -303.781361 
L 263.12156 -304.207864 
L 262.663584 -304.645992 
L 262.205609 -305.097966 
L 261.747633 -305.565991 
L 261.289657 -306.052245 
L 260.831682 -306.558869 
L 260.373706 -307.087952 
L 259.91573 -307.641524 
L 259.457755 -308.22154 
L 258.999779 -308.829867 
L 258.541803 -309.468279 
L 258.083828 -310.138438 
L 257.625852 -310.841885 
L 257.167876 -311.580029 
L 256.709901 -312.354136 
L 256.251925 -313.165315 
L 255.793949 -314.014512 
L 255.335974 -314.902497 
L 254.877998 -315.829853 
L 254.420022 -316.796972 
L 253.962047 -317.804042 
L 253.504071 -318.851041 
L 253.046095 -319.937731 
L 252.588119 -321.063651 
L 252.130144 -322.228112 
L 251.672168 -323.430192 
L 251.214192 -324.668737 
L 250.756217 -325.942353 
L 250.298241 -327.249409 
L 249.840265 -328.588036 
L 249.38229 -329.95613 
L 248.924314 -331.351351 
L 248.466338 -332.771132 
L 248.008363 -334.212677 
L 247.550387 -335.672976 
L 247.092411 -337.148805 
L 246.634436 -338.636738 
L 246.17646 -340.133158 
L 245.718484 -341.634267 
L 245.260509 -343.136097 
L 244.802533 -344.634527 
L 244.344557 -346.125292 
L 243.886582 -347.604005 
L 243.428606 -349.066171 
L 242.97063 -350.507201 
L 242.512654 -351.922436 
L 242.054679 -353.307162 
L 241.596703 -354.65663 
L 241.138727 -355.966078 
L 240.680752 -357.230749 
L 240.222776 -358.445915 
L 239.7648 -359.606894 
L 239.306825 -360.709075 
L 238.848849 -361.747937 
L 238.390873 -362.719068 
L 237.932898 -363.618192 
L 237.474922 -364.441181 
L 237.016946 -365.184082 
L 236.558971 -365.843132 
L 236.100995 -366.414776 
L 235.643019 -366.895689 
L 235.185044 -367.282786 
L 234.727068 -367.573244 
L 234.269092 -367.764511 
L 233.811117 -367.854322 
L 233.353141 -367.840711 
L 232.895165 -367.722019 
L 232.437189 -367.496903 
L 231.979214 -367.164348 
L 231.521238 -366.723664 
L 231.063262 -366.1745 
L 230.605287 -365.516838 
L 230.147311 -364.750997 
L 229.689335 -363.877635 
L 229.23136 -362.897741 
L 228.773384 -361.812634 
L 228.315408 -360.623957 
L 227.857433 -359.333669 
L 227.399457 -357.944034 
L 226.941481 -356.457616 
L 226.483506 -354.87726 
L 226.02553 -353.206086 
L 225.567554 -351.447469 
L 225.109579 -349.605025 
L 224.651603 -347.682597 
L 224.193627 -345.684235 
L 223.735652 -343.614177 
L 223.277676 -341.476831 
L 222.8197 -339.276757 
L 222.361725 -337.018644 
L 221.903749 -334.707291 
L 221.445773 -332.347587 
L 220.987797 -329.944488 
L 220.529822 -327.502999 
L 220.071846 -325.028151 
L 219.61387 -322.524982 
L 219.155895 -319.998519 
L 218.697919 -317.453752 
L 218.239943 -314.895624 
L 217.781968 -312.329006 
L 217.323992 -309.758681 
L 216.866016 -307.189332 
L 216.408041 -304.625519 
L 215.950065 -302.071671 
L 215.492089 -299.532068 
L 215.034114 -297.01083 
L 214.576138 -294.511907 
L 214.118162 -292.039067 
L 213.660187 -289.59589 
L 213.202211 -287.185754 
L 212.744235 -284.811836 
L 212.28626 -282.477102 
L 211.828284 -280.184305 
L 211.370308 -277.935981 
L 210.912332 -275.734448 
L 210.454357 -273.581803 
L 209.996381 -271.479928 
L 209.538405 -269.430486 
L 209.08043 -267.434924 
L 208.622454 -265.494482 
L 208.164478 -263.61019 
L 207.706503 -261.782876 
L 207.248527 -260.013175 
L 206.790551 -258.301531 
L 206.332576 -256.648206 
L 205.8746 -255.053287 
L 205.416624 -253.516695 
L 204.958649 -252.038195 
L 204.500673 -250.617401 
L 204.042697 -249.253787 
L 203.584722 -247.946698 
L 203.126746 -246.695358 
L 202.66877 -245.498877 
L 202.210795 -244.356267 
L 201.752819 -243.266445 
L 201.294843 -242.228245 
L 200.836867 -241.240427 
L 200.378892 -240.301688 
L 199.920916 -239.410666 
L 199.46294 -238.565954 
L 199.004965 -237.766106 
L 198.546989 -237.009642 
L 198.089013 -236.295062 
L 197.631038 -235.620845 
L 197.173062 -234.985463 
L 196.715086 -234.387386 
L 196.257111 -233.825083 
L 195.799135 -233.297033 
L 195.341159 -232.801728 
L 194.883184 -232.337679 
L 194.425208 -231.903417 
L 193.967232 -231.4975 
L 193.509257 -231.118517 
L 193.051281 -230.765087 
L 192.593305 -230.435866 
L 192.13533 -230.129547 
L 191.677354 -229.844863 
L 191.219378 -229.580588 
L 190.761402 -229.335537 
L 190.303427 -229.108571 
L 189.845451 -228.898593 
L 189.387475 -228.704552 
L 188.9295 -228.525439 
L 188.471524 -228.360294 
L 188.013548 -228.208198 
L 187.555573 -228.068278 
L 187.097597 -227.939703 
L 186.639621 -227.821685 
z
" id="m9fa495ea3a" style="stroke:#ff8a48;"/>
    </defs>
    <g clip-path="url(#p802f2c2507)">
     <use style="fill:#ff8a48;fill-opacity:0.25;stroke:#ff8a48;" x="0" xlink:href="#m9fa495ea3a" y="397.232187"/>
    </g>
   </g>
   <g id="matplotlib.axis_1">
    <g id="xtick_1">
     <g id="line2d_1">
      <defs>
       <path d="M 0 0 
L 0 3.5 
" id="m1e87e872a9" style="stroke:#000000;stroke-width:0.8;"/>
      </defs>
      <g>
       <use style="stroke:#000000;stroke-width:0.8;" x="78.930048" xlink:href="#m1e87e872a9" y="170.57267"/>
      </g>
     </g>
    </g>
    <g id="xtick_2">
     <g id="line2d_2">
      <g>
       <use style="stroke:#000000;stroke-width:0.8;" x="143.314663" xlink:href="#m1e87e872a9" y="170.57267"/>
      </g>
     </g>
    </g>
    <g id="xtick_3">
     <g id="line2d_3">
      <g>
       <use style="stroke:#000000;stroke-width:0.8;" x="207.699279" xlink:href="#m1e87e872a9" y="170.57267"/>
      </g>
     </g>
    </g>
    <g id="xtick_4">
     <g id="line2d_4">
      <g>
       <use style="stroke:#000000;stroke-width:0.8;" x="272.083894" xlink:href="#m1e87e872a9" y="170.57267"/>
      </g>
     </g>
    </g>
    <g id="xtick_5">
     <g id="line2d_5">
      <g>
       <use style="stroke:#000000;stroke-width:0.8;" x="336.46851" xlink:href="#m1e87e872a9" y="170.57267"/>
      </g>
     </g>
    </g>
    <g id="xtick_6">
     <g id="line2d_6">
      <g>
       <use style="stroke:#000000;stroke-width:0.8;" x="400.853125" xlink:href="#m1e87e872a9" y="170.57267"/>
      </g>
     </g>
    </g>
   </g>
   <g id="matplotlib.axis_2">
    <g id="ytick_1">
     <g id="line2d_7">
      <defs>
       <path d="M 0 0 
L -3.5 0 
" id="md59d55dc47" style="stroke:#000000;stroke-width:0.8;"/>
      </defs>
      <g>
       <use style="stroke:#000000;stroke-width:0.8;" x="66.053125" xlink:href="#md59d55dc47" y="170.57267"/>
      </g>
     </g>
     <g id="text_1">
      <text style="font-family:DejaVu Sans;font-size:10px;font-stretch:normal;font-style:normal;font-weight:normal;text-anchor:end;" transform="rotate(-0, 59.053125, 174.371889)" x="59.053125" y="174.371889">0</text>
     </g>
    </g>
    <g id="ytick_2">
     <g id="line2d_8">
      <g>
       <use style="stroke:#000000;stroke-width:0.8;" x="66.053125" xlink:href="#md59d55dc47" y="140.114968"/>
      </g>
     </g>
     <g id="text_2">
      <text style="font-family:DejaVu Sans;font-size:10px;font-stretch:normal;font-style:normal;font-weight:normal;text-anchor:end;" transform="rotate(-0, 59.053125, 143.914187)" x="59.053125" y="143.914187">50000</text>
     </g>
    </g>
    <g id="ytick_3">
     <g id="line2d_9">
      <g>
       <use style="stroke:#000000;stroke-width:0.8;" x="66.053125" xlink:href="#md59d55dc47" y="109.657265"/>
      </g>
     </g>
     <g id="text_3">
      <text style="font-family:DejaVu Sans;font-size:10px;font-stretch:normal;font-style:normal;font-weight:normal;text-anchor:end;" transform="rotate(-0, 59.053125, 113.456484)" x="59.053125" y="113.456484">100000</text>
     </g>
    </g>
    <g id="ytick_4">
     <g id="line2d_10">
      <g>
       <use style="stroke:#000000;stroke-width:0.8;" x="66.053125" xlink:href="#md59d55dc47" y="79.199563"/>
      </g>
     </g>
     <g id="text_4">
      <text style="font-family:DejaVu Sans;font-size:10px;font-stretch:normal;font-style:normal;font-weight:normal;text-anchor:end;" transform="rotate(-0, 59.053125, 82.998782)" x="59.053125" y="82.998782">150000</text>
     </g>
    </g>
    <g id="ytick_5">
     <g id="line2d_11">
      <g>
       <use style="stroke:#000000;stroke-width:0.8;" x="66.053125" xlink:href="#md59d55dc47" y="48.74186"/>
      </g>
     </g>
     <g id="text_5">
      <text style="font-family:DejaVu Sans;font-size:10px;font-stretch:normal;font-style:normal;font-weight:normal;text-anchor:end;" transform="rotate(-0, 59.053125, 52.541079)" x="59.053125" y="52.541079">200000</text>
     </g>
    </g>
    <g id="text_6">
     <text style="font-family:DejaVu Sans;font-size:10px;font-stretch:normal;font-style:normal;font-weight:normal;text-anchor:middle;" transform="rotate(-90, 14.798438, 96.445398)" x="14.798438" y="96.445398">Density</text>
    </g>
   </g>
   <g id="patch_3">
    <path d="M 66.053125 170.57267 
L 66.053125 22.318125 
" style="fill:none;stroke:#000000;stroke-linecap:square;stroke-linejoin:miter;stroke-width:0.8;"/>
   </g>
   <g id="patch_4">
    <path d="M 400.853125 170.57267 
L 400.853125 22.318125 
" style="fill:none;stroke:#000000;stroke-linecap:square;stroke-linejoin:miter;stroke-width:0.8;"/>
   </g>
   <g id="patch_5">
    <path d="M 66.053125 170.57267 
L 400.853125 170.57267 
" style="fill:none;stroke:#000000;stroke-linecap:square;stroke-linejoin:miter;stroke-width:0.8;"/>
   </g>
   <g id="patch_6">
    <path d="M 66.053125 22.318125 
L 400.853125 22.318125 
" style="fill:none;stroke:#000000;stroke-linecap:square;stroke-linejoin:miter;stroke-width:0.8;"/>
   </g>
   <g id="text_7">
    <text style="font-family:DejaVu Sans;font-size:12px;font-stretch:normal;font-style:normal;font-weight:normal;text-anchor:middle;" transform="rotate(-0, 233.453125, 16.318125)" x="233.453125" y="16.318125">1.ANT</text>
   </g>
  </g>
  <g id="axes_2">
   <g id="patch_7">
    <path d="M 66.053125 348.478125 
L 400.853125 348.478125 
L 400.853125 200.22358 
L 66.053125 200.22358 
z
" style="fill:#ffffff;"/>
   </g>
   <g id="matplotlib.axis_3">
    <g id="xtick_7">
     <g id="line2d_12">
      <g>
       <use style="stroke:#000000;stroke-width:0.8;" x="78.930048" xlink:href="#m1e87e872a9" y="348.478125"/>
      </g>
     </g>
     <g id="text_8">
      <text style="font-family:DejaVu Sans;font-size:10px;font-stretch:normal;font-style:normal;font-weight:normal;text-anchor:middle;" transform="rotate(-0, 78.930048, 363.076562)" x="78.930048" y="363.076562">0.0</text>
     </g>
    </g>
    <g id="xtick_8">
     <g id="line2d_13">
      <g>
       <use style="stroke:#000000;stroke-width:0.8;" x="143.314663" xlink:href="#m1e87e872a9" y="348.478125"/>
      </g>
     </g>
     <g id="text_9">
      <text style="font-family:DejaVu Sans;font-size:10px;font-stretch:normal;font-style:normal;font-weight:normal;text-anchor:middle;" transform="rotate(-0, 143.314663, 363.076562)" x="143.314663" y="363.076562">0.5</text>
     </g>
    </g>
    <g id="xtick_9">
     <g id="line2d_14">
      <g>
       <use style="stroke:#000000;stroke-width:0.8;" x="207.699279" xlink:href="#m1e87e872a9" y="348.478125"/>
      </g>
     </g>
     <g id="text_10">
      <text style="font-family:DejaVu Sans;font-size:10px;font-stretch:normal;font-style:normal;font-weight:normal;text-anchor:middle;" transform="rotate(-0, 207.699279, 363.076562)" x="207.699279" y="363.076562">1.0</text>
     </g>
    </g>
    <g id="xtick_10">
     <g id="line2d_15">
      <g>
       <use style="stroke:#000000;stroke-width:0.8;" x="272.083894" xlink:href="#m1e87e872a9" y="348.478125"/>
      </g>
     </g>
     <g id="text_11">
      <text style="font-family:DejaVu Sans;font-size:10px;font-stretch:normal;font-style:normal;font-weight:normal;text-anchor:middle;" transform="rotate(-0, 272.083894, 363.076562)" x="272.083894" y="363.076562">1.5</text>
     </g>
    </g>
    <g id="xtick_11">
     <g id="line2d_16">
      <g>
       <use style="stroke:#000000;stroke-width:0.8;" x="336.46851" xlink:href="#m1e87e872a9" y="348.478125"/>
      </g>
     </g>
     <g id="text_12">
      <text style="font-family:DejaVu Sans;font-size:10px;font-stretch:normal;font-style:normal;font-weight:normal;text-anchor:middle;" transform="rotate(-0, 336.46851, 363.076562)" x="336.46851" y="363.076562">2.0</text>
     </g>
    </g>
    <g id="xtick_12">
     <g id="line2d_17">
      <g>
       <use style="stroke:#000000;stroke-width:0.8;" x="400.853125" xlink:href="#m1e87e872a9" y="348.478125"/>
      </g>
     </g>
     <g id="text_13">
      <text style="font-family:DejaVu Sans;font-size:10px;font-stretch:normal;font-style:normal;font-weight:normal;text-anchor:middle;" transform="rotate(-0, 400.853125, 363.076562)" x="400.853125" y="363.076562">2.5</text>
     </g>
    </g>
    <g id="text_14">
     <text style="font-family:DejaVu Sans;font-size:10px;font-stretch:normal;font-style:normal;font-weight:normal;" transform="translate(192.064844 376.754687)">Distance to Root</text>
     <text style="font-family:DejaVu Sans;font-size:10px;font-stretch:normal;font-style:normal;font-weight:normal;" transform="translate(185.485156 387.9525)">(Substitutions/Site)</text>
    </g>
    <g id="text_15">
     <text style="font-family:DejaVu Sans;font-size:10px;font-stretch:normal;font-style:normal;font-weight:normal;text-anchor:end;" transform="rotate(-0, 400.853125, 375.754687)" x="400.853125" y="375.754687">1e−5</text>
    </g>
   </g>
   <g id="matplotlib.axis_4">
    <g id="text_16">
     <text style="font-family:DejaVu Sans;font-size:10px;font-stretch:normal;font-style:normal;font-weight:normal;text-anchor:middle;" transform="rotate(-90, 59.973438, 274.350852)" x="59.973438" y="274.350852">Taxa</text>
    </g>
   </g>
   <g id="LineCollection_1">
    <path clip-path="url(#p8d0d398f57)" d="M 78.930048 291.136919 
L 78.930048 291.136919 
" style="fill:none;stroke:#ff8a48;"/>
   </g>
   <g id="LineCollection_2">
    <path clip-path="url(#p8d0d398f57)" d="M 78.930048 267.636425 
L 229.53339 267.636425 
" style="fill:none;stroke:#ff8a48;"/>
   </g>
   <g id="LineCollection_3">
    <path clip-path="url(#p8d0d398f57)" d="M 229.53339 247.493145 
L 229.837285 247.493145 
" style="fill:none;stroke:#ff8a48;"/>
   </g>
   <g id="LineCollection_4">
    <path clip-path="url(#p8d0d398f57)" d="M 229.837285 234.064291 
L 241.97121 234.064291 
" style="fill:none;stroke:#ff8a48;"/>
   </g>
   <g id="LineCollection_5">
    <path clip-path="url(#p8d0d398f57)" d="M 229.837285 260.921999 
L 230.14118 260.921999 
" style="fill:none;stroke:#ff8a48;"/>
   </g>
   <g id="LineCollection_6">
    <path clip-path="url(#p8d0d398f57)" d="M 229.53339 287.779706 
L 262.900073 287.779706 
" style="fill:none;stroke:#ff8a48;"/>
   </g>
   <g id="LineCollection_7">
    <path clip-path="url(#p8d0d398f57)" d="M 78.930048 314.637414 
L 277.776782 314.637414 
" style="fill:none;stroke:#ff8a48;"/>
   </g>
   <g id="LineCollection_8">
    <path clip-path="url(#p8d0d398f57)" d="M 78.930048 314.637414 
L 78.930048 267.636425 
" style="fill:none;stroke:#ff8a48;"/>
   </g>
   <g id="LineCollection_9">
    <path clip-path="url(#p8d0d398f57)" d="M 229.53339 287.779706 
L 229.53339 247.493145 
" style="fill:none;stroke:#ff8a48;"/>
   </g>
   <g id="LineCollection_10">
    <path clip-path="url(#p8d0d398f57)" d="M 229.837285 260.921999 
L 229.837285 234.064291 
" style="fill:none;stroke:#ff8a48;"/>
   </g>
   <g id="PathCollection_1">
    <defs>
     <path d="M 0 1.581139 
C 0.419323 1.581139 0.821528 1.41454 1.118034 1.118034 
C 1.41454 0.821528 1.581139 0.419323 1.581139 0 
C 1.581139 -0.419323 1.41454 -0.821528 1.118034 -1.118034 
C 0.821528 -1.41454 0.419323 -1.581139 0 -1.581139 
C -0.419323 -1.581139 -0.821528 -1.41454 -1.118034 -1.118034 
C -1.41454 -0.821528 -1.581139 -0.419323 -1.581139 0 
C -1.581139 0.419323 -1.41454 0.821528 -1.118034 1.118034 
C -0.821528 1.41454 -0.419323 1.581139 0 1.581139 
z
" id="mae20981193" style="stroke:#000000;stroke-width:0.252982;"/>
    </defs>
    <g clip-path="url(#p8d0d398f57)">
     <use style="fill:#ff8a48;stroke:#000000;stroke-width:0.252982;" x="241.97121" xlink:href="#mae20981193" y="234.064291"/>
     <use style="fill:#ff8a48;stroke:#000000;stroke-width:0.252982;" x="230.14118" xlink:href="#mae20981193" y="260.921999"/>
     <use style="fill:#ff8a48;stroke:#000000;stroke-width:0.252982;" x="262.900073" xlink:href="#mae20981193" y="287.779706"/>
     <use style="fill:#ff8a48;stroke:#000000;stroke-width:0.252982;" x="277.776782" xlink:href="#mae20981193" y="314.637414"/>
    </g>
   </g>
   <g id="patch_8">
    <path d="M 66.053125 348.478125 
L 66.053125 200.22358 
" style="fill:none;stroke:#000000;stroke-linecap:square;stroke-linejoin:miter;stroke-width:0.8;"/>
   </g>
   <g id="patch_9">
    <path d="M 400.853125 348.478125 
L 400.853125 200.22358 
" style="fill:none;stroke:#000000;stroke-linecap:square;stroke-linejoin:miter;stroke-width:0.8;"/>
   </g>
   <g id="patch_10">
    <path d="M 66.053125 348.478125 
L 400.853125 348.478125 
" style="fill:none;stroke:#000000;stroke-linecap:square;stroke-linejoin:miter;stroke-width:0.8;"/>
   </g>
   <g id="patch_11">
    <path d="M 66.053125 200.22358 
L 400.853125 200.22358 
" style="fill:none;stroke:#000000;stroke-linecap:square;stroke-linejoin:miter;stroke-width:0.8;"/>
   </g>
   <g id="text_17">
    <text style="font-family:DejaVu Sans;font-size:10px;font-stretch:normal;font-style:normal;font-weight:normal;text-anchor:start;" transform="rotate(-0, 78.930048, 293.896294)" x="78.930048" y="293.896294"> </text>
   </g>
   <g id="text_18">
    <text style="font-family:DejaVu Sans;font-size:10px;font-stretch:normal;font-style:normal;font-weight:normal;text-anchor:start;" transform="rotate(-0, 229.53339, 270.3958)" x="229.53339" y="270.3958"> </text>
   </g>
   <g id="text_19">
    <text style="font-family:DejaVu Sans;font-size:10px;font-stretch:normal;font-style:normal;font-weight:normal;text-anchor:start;" transform="rotate(-0, 229.837285, 250.25252)" x="229.837285" y="250.25252"> </text>
   </g>
   <g id="text_20">
    <text style="font-family:DejaVu Sans;font-size:10px;font-stretch:normal;font-style:normal;font-weight:normal;text-anchor:start;" transform="rotate(-0, 241.97121, 236.823666)" x="241.97121" y="236.823666"> </text>
   </g>
   <g id="text_21">
    <text style="font-family:DejaVu Sans;font-size:10px;font-stretch:normal;font-style:normal;font-weight:normal;text-anchor:start;" transform="rotate(-0, 230.14118, 263.681374)" x="230.14118" y="263.681374"> </text>
   </g>
   <g id="text_22">
    <text style="font-family:DejaVu Sans;font-size:10px;font-stretch:normal;font-style:normal;font-weight:normal;text-anchor:start;" transform="rotate(-0, 262.900073, 290.539081)" x="262.900073" y="290.539081"> </text>
   </g>
   <g id="text_23">
    <text style="font-family:DejaVu Sans;font-size:10px;font-stretch:normal;font-style:normal;font-weight:normal;text-anchor:start;" transform="rotate(-0, 277.776782, 317.396789)" x="277.776782" y="317.396789"> </text>
   </g>
  </g>
 </g>
 <defs>
  <clipPath id="p802f2c2507">
   <rect height="148.254545" width="334.8" x="66.053125" y="22.318125"/>
  </clipPath>
  <clipPath id="p8d0d398f57">
   <rect height="148.254545" width="334.8" x="66.053125" y="200.22358"/>
  </clipPath>
 </defs>
</svg>
