<?xml version="1.0" encoding="utf-8" standalone="no"?>
<!DOCTYPE svg PUBLIC "-//W3C//DTD SVG 1.1//EN"
  "http://www.w3.org/Graphics/SVG/1.1/DTD/svg11.dtd">
<!-- Created with matplotlib (https://matplotlib.org/) -->
<svg height="397.232187pt" version="1.1" viewBox="0 0 401.690625 397.232187" width="401.690625pt" xmlns="http://www.w3.org/2000/svg" xmlns:xlink="http://www.w3.org/1999/xlink">
 <metadata>
  <rdf:RDF xmlns:cc="http://creativecommons.org/ns#" xmlns:dc="http://purl.org/dc/elements/1.1/" xmlns:rdf="http://www.w3.org/1999/02/22-rdf-syntax-ns#">
   <cc:Work>
    <dc:type rdf:resource="http://purl.org/dc/dcmitype/StillImage"/>
    <dc:date>2021-09-17T15:06:42.611739</dc:date>
    <dc:format>image/svg+xml</dc:format>
    <dc:creator>
     <cc:Agent>
      <dc:title>Matplotlib v3.3.2, https://matplotlib.org/</dc:title>
     </cc:Agent>
    </dc:creator>
   </cc:Work>
  </rdf:RDF>
 </metadata>
 <defs>
  <style type="text/css">*{stroke-linecap:butt;stroke-linejoin:round;}</style>
 </defs>
 <g id="figure_1">
  <g id="patch_1">
   <path d="M 0 397.232187 
L 401.690625 397.232187 
L 401.690625 0 
L 0 0 
z
" style="fill:#ffffff;"/>
  </g>
  <g id="axes_1">
   <g id="patch_2">
    <path d="M 59.690625 170.57267 
L 394.490625 170.57267 
L 394.490625 22.318125 
L 59.690625 22.318125 
z
" style="fill:#ffffff;"/>
   </g>
   <g id="PolyCollection_1">
    <defs>
     <path d="M 62.480779 -267.273711 
L 62.480779 -226.659517 
L 63.815492 -226.659517 
L 65.150205 -226.659517 
L 66.484918 -226.659517 
L 67.819631 -226.659517 
L 69.154344 -226.659517 
L 70.489057 -226.659517 
L 71.82377 -226.659517 
L 73.158483 -226.659517 
L 74.493196 -226.659517 
L 75.827909 -226.659517 
L 77.162621 -226.659517 
L 78.497334 -226.659517 
L 79.832047 -226.659517 
L 81.16676 -226.659517 
L 82.501473 -226.659517 
L 83.836186 -226.659517 
L 85.170899 -226.659517 
L 86.505612 -226.659517 
L 87.840325 -226.659517 
L 89.175038 -226.659517 
L 90.509751 -226.659517 
L 91.844464 -226.659517 
L 93.179177 -226.659517 
L 94.51389 -226.659517 
L 95.848603 -226.659517 
L 97.183316 -226.659517 
L 98.518029 -226.659517 
L 99.852742 -226.659517 
L 101.187455 -226.659517 
L 102.522167 -226.659517 
L 103.85688 -226.659517 
L 105.191593 -226.659517 
L 106.526306 -226.659517 
L 107.861019 -226.659517 
L 109.195732 -226.659517 
L 110.530445 -226.659517 
L 111.865158 -226.659517 
L 113.199871 -226.659517 
L 114.534584 -226.659517 
L 115.869297 -226.659517 
L 117.20401 -226.659517 
L 118.538723 -226.659517 
L 119.873436 -226.659517 
L 121.208149 -226.659517 
L 122.542862 -226.659517 
L 123.877575 -226.659517 
L 125.212288 -226.659517 
L 126.547001 -226.659517 
L 127.881714 -226.659517 
L 129.216426 -226.659517 
L 130.551139 -226.659517 
L 131.885852 -226.659517 
L 133.220565 -226.659517 
L 134.555278 -226.659517 
L 135.889991 -226.659517 
L 137.224704 -226.659517 
L 138.559417 -226.659517 
L 139.89413 -226.659517 
L 141.228843 -226.659517 
L 142.563556 -226.659517 
L 143.898269 -226.659517 
L 145.232982 -226.659517 
L 146.567695 -226.659517 
L 147.902408 -226.659517 
L 149.237121 -226.659517 
L 150.571834 -226.659517 
L 151.906547 -226.659517 
L 153.24126 -226.659517 
L 154.575972 -226.659517 
L 155.910685 -226.659517 
L 157.245398 -226.659517 
L 158.580111 -226.659517 
L 159.914824 -226.659517 
L 161.249537 -226.659517 
L 162.58425 -226.659517 
L 163.918963 -226.659517 
L 165.253676 -226.659517 
L 166.588389 -226.659517 
L 167.923102 -226.659517 
L 169.257815 -226.659517 
L 170.592528 -226.659517 
L 171.927241 -226.659517 
L 173.261954 -226.659517 
L 174.596667 -226.659517 
L 175.93138 -226.659517 
L 177.266093 -226.659517 
L 178.600806 -226.659517 
L 179.935519 -226.659517 
L 181.270231 -226.659517 
L 182.604944 -226.659517 
L 183.939657 -226.659517 
L 185.27437 -226.659517 
L 186.609083 -226.659517 
L 187.943796 -226.659517 
L 189.278509 -226.659517 
L 190.613222 -226.659517 
L 191.947935 -226.659517 
L 193.282648 -226.659517 
L 194.617361 -226.659517 
L 195.952074 -226.659517 
L 197.286787 -226.659517 
L 198.6215 -226.659517 
L 199.956213 -226.659517 
L 201.290926 -226.659517 
L 202.625639 -226.659517 
L 203.960352 -226.659517 
L 205.295065 -226.659517 
L 206.629777 -226.659517 
L 207.96449 -226.659517 
L 209.299203 -226.659517 
L 210.633916 -226.659517 
L 211.968629 -226.659517 
L 213.303342 -226.659517 
L 214.638055 -226.659517 
L 215.972768 -226.659517 
L 217.307481 -226.659517 
L 218.642194 -226.659517 
L 219.976907 -226.659517 
L 221.31162 -226.659517 
L 222.646333 -226.659517 
L 223.981046 -226.659517 
L 225.315759 -226.659517 
L 226.650472 -226.659517 
L 227.985185 -226.659517 
L 229.319898 -226.659517 
L 230.654611 -226.659517 
L 231.989324 -226.659517 
L 233.324036 -226.659517 
L 234.658749 -226.659517 
L 235.993462 -226.659517 
L 237.328175 -226.659517 
L 238.662888 -226.659517 
L 239.997601 -226.659517 
L 241.332314 -226.659517 
L 242.667027 -226.659517 
L 244.00174 -226.659517 
L 245.336453 -226.659517 
L 246.671166 -226.659517 
L 248.005879 -226.659517 
L 249.340592 -226.659517 
L 250.675305 -226.659517 
L 252.010018 -226.659517 
L 253.344731 -226.659517 
L 254.679444 -226.659517 
L 256.014157 -226.659517 
L 257.34887 -226.659517 
L 258.683582 -226.659517 
L 260.018295 -226.659517 
L 261.353008 -226.659517 
L 262.687721 -226.659517 
L 264.022434 -226.659517 
L 265.357147 -226.659517 
L 266.69186 -226.659517 
L 268.026573 -226.659517 
L 269.361286 -226.659517 
L 270.695999 -226.659517 
L 272.030712 -226.659517 
L 273.365425 -226.659517 
L 274.700138 -226.659517 
L 276.034851 -226.659517 
L 277.369564 -226.659517 
L 278.704277 -226.659517 
L 280.03899 -226.659517 
L 281.373703 -226.659517 
L 282.708416 -226.659517 
L 284.043129 -226.659517 
L 285.377841 -226.659517 
L 286.712554 -226.659517 
L 288.047267 -226.659517 
L 289.38198 -226.659517 
L 290.716693 -226.659517 
L 292.051406 -226.659517 
L 293.386119 -226.659517 
L 294.720832 -226.659517 
L 296.055545 -226.659517 
L 297.390258 -226.659517 
L 298.724971 -226.659517 
L 300.059684 -226.659517 
L 301.394397 -226.659517 
L 302.72911 -226.659517 
L 304.063823 -226.659517 
L 305.398536 -226.659517 
L 306.733249 -226.659517 
L 308.067962 -226.659517 
L 309.402675 -226.659517 
L 310.737387 -226.659517 
L 312.0721 -226.659517 
L 313.406813 -226.659517 
L 314.741526 -226.659517 
L 316.076239 -226.659517 
L 317.410952 -226.659517 
L 318.745665 -226.659517 
L 320.080378 -226.659517 
L 321.415091 -226.659517 
L 322.749804 -226.659517 
L 324.084517 -226.659517 
L 325.41923 -226.659517 
L 326.753943 -226.659517 
L 328.088656 -226.659517 
L 328.088656 -243.065591 
L 328.088656 -243.065591 
L 326.753943 -243.117899 
L 325.41923 -243.155558 
L 324.084517 -243.179118 
L 322.749804 -243.189228 
L 321.415091 -243.186636 
L 320.080378 -243.172186 
L 318.745665 -243.146815 
L 317.410952 -243.11155 
L 316.076239 -243.067505 
L 314.741526 -243.015877 
L 313.406813 -242.957937 
L 312.0721 -242.895031 
L 310.737387 -242.828569 
L 309.402675 -242.760021 
L 308.067962 -242.690908 
L 306.733249 -242.622797 
L 305.398536 -242.557295 
L 304.063823 -242.496035 
L 302.72911 -242.440674 
L 301.394397 -242.392883 
L 300.059684 -242.354338 
L 298.724971 -242.326712 
L 297.390258 -242.311667 
L 296.055545 -242.310843 
L 294.720832 -242.325855 
L 293.386119 -242.358281 
L 292.051406 -242.409655 
L 290.716693 -242.481457 
L 289.38198 -242.575112 
L 288.047267 -242.691976 
L 286.712554 -242.833333 
L 285.377841 -243.000391 
L 284.043129 -243.194271 
L 282.708416 -243.416007 
L 281.373703 -243.666536 
L 280.03899 -243.946703 
L 278.704277 -244.257249 
L 277.369564 -244.598813 
L 276.034851 -244.971929 
L 274.700138 -245.377027 
L 273.365425 -245.814429 
L 272.030712 -246.284354 
L 270.695999 -246.786916 
L 269.361286 -247.322127 
L 268.026573 -247.889898 
L 266.69186 -248.490047 
L 265.357147 -249.122298 
L 264.022434 -249.786291 
L 262.687721 -250.481581 
L 261.353008 -251.207651 
L 260.018295 -251.963915 
L 258.683582 -252.749724 
L 257.34887 -253.564379 
L 256.014157 -254.407131 
L 254.679444 -255.277199 
L 253.344731 -256.17377 
L 252.010018 -257.096015 
L 250.675305 -258.043091 
L 249.340592 -259.014158 
L 248.005879 -260.00838 
L 246.671166 -261.02494 
L 245.336453 -262.063046 
L 244.00174 -263.12194 
L 242.667027 -264.200903 
L 241.332314 -265.299268 
L 239.997601 -266.416423 
L 238.662888 -267.551815 
L 237.328175 -268.704961 
L 235.993462 -269.875449 
L 234.658749 -271.062943 
L 233.324036 -272.267183 
L 231.989324 -273.487991 
L 230.654611 -274.725266 
L 229.319898 -275.978991 
L 227.985185 -277.249223 
L 226.650472 -278.536097 
L 225.315759 -279.839818 
L 223.981046 -281.160658 
L 222.646333 -282.498947 
L 221.31162 -283.855069 
L 219.976907 -285.229454 
L 218.642194 -286.622562 
L 217.307481 -288.034881 
L 215.972768 -289.46691 
L 214.638055 -290.919149 
L 213.303342 -292.392087 
L 211.968629 -293.886186 
L 210.633916 -295.401869 
L 209.299203 -296.939506 
L 207.96449 -298.499397 
L 206.629777 -300.081762 
L 205.295065 -301.686722 
L 203.960352 -303.314286 
L 202.625639 -304.96434 
L 201.290926 -306.636628 
L 199.956213 -308.330744 
L 198.6215 -310.046119 
L 197.286787 -311.782008 
L 195.952074 -313.53748 
L 194.617361 -315.311413 
L 193.282648 -317.102483 
L 191.947935 -318.909158 
L 190.613222 -320.729695 
L 189.278509 -322.562137 
L 187.943796 -324.404311 
L 186.609083 -326.253829 
L 185.27437 -328.108089 
L 183.939657 -329.964281 
L 182.604944 -331.819395 
L 181.270231 -333.670222 
L 179.935519 -335.513371 
L 178.600806 -337.345277 
L 177.266093 -339.162213 
L 175.93138 -340.960308 
L 174.596667 -342.73556 
L 173.261954 -344.483856 
L 171.927241 -346.200991 
L 170.592528 -347.882686 
L 169.257815 -349.524611 
L 167.923102 -351.122408 
L 166.588389 -352.671712 
L 165.253676 -354.168172 
L 163.918963 -355.607481 
L 162.58425 -356.985394 
L 161.249537 -358.297753 
L 159.914824 -359.540512 
L 158.580111 -360.70976 
L 157.245398 -361.801739 
L 155.910685 -362.812871 
L 154.575972 -363.739775 
L 153.24126 -364.579289 
L 151.906547 -365.328485 
L 150.571834 -365.984686 
L 149.237121 -366.545484 
L 147.902408 -367.008751 
L 146.567695 -367.372649 
L 145.232982 -367.635642 
L 143.898269 -367.796504 
L 142.563556 -367.854322 
L 141.228843 -367.808502 
L 139.89413 -367.658768 
L 138.559417 -367.405165 
L 137.224704 -367.048054 
L 135.889991 -366.588109 
L 134.555278 -366.026309 
L 133.220565 -365.363932 
L 131.885852 -364.602545 
L 130.551139 -363.743991 
L 129.216426 -362.790377 
L 127.881714 -361.744063 
L 126.547001 -360.607641 
L 125.212288 -359.383924 
L 123.877575 -358.075926 
L 122.542862 -356.686842 
L 121.208149 -355.220037 
L 119.873436 -353.679018 
L 118.538723 -352.067422 
L 117.20401 -350.388993 
L 115.869297 -348.647565 
L 114.534584 -346.84704 
L 113.199871 -344.991373 
L 111.865158 -343.084553 
L 110.530445 -341.130584 
L 109.195732 -339.133472 
L 107.861019 -337.097203 
L 106.526306 -335.025733 
L 105.191593 -332.922975 
L 103.85688 -330.792781 
L 102.522167 -328.638933 
L 101.187455 -326.465132 
L 99.852742 -324.274989 
L 98.518029 -322.072015 
L 97.183316 -319.859615 
L 95.848603 -317.64108 
L 94.51389 -315.419582 
L 93.179177 -313.198172 
L 91.844464 -310.979775 
L 90.509751 -308.767187 
L 89.175038 -306.563074 
L 87.840325 -304.369974 
L 86.505612 -302.190293 
L 85.170899 -300.02631 
L 83.836186 -297.880175 
L 82.501473 -295.753913 
L 81.16676 -293.649427 
L 79.832047 -291.568497 
L 78.497334 -289.512788 
L 77.162621 -287.483853 
L 75.827909 -285.483132 
L 74.493196 -283.51196 
L 73.158483 -281.57157 
L 71.82377 -279.663097 
L 70.489057 -277.787578 
L 69.154344 -275.945964 
L 67.819631 -274.139114 
L 66.484918 -272.367805 
L 65.150205 -270.632735 
L 63.815492 -268.934522 
L 62.480779 -267.273711 
z
" id="m598d093aa3" style="stroke:#8000ff;"/>
    </defs>
    <g clip-path="url(#p527a150ea0)">
     <use style="fill:#8000ff;fill-opacity:0.25;stroke:#8000ff;" x="0" xlink:href="#m598d093aa3" y="397.232187"/>
    </g>
   </g>
   <g id="matplotlib.axis_1">
    <g id="xtick_1">
     <g id="line2d_1">
      <defs>
       <path d="M 0 0 
L 0 3.5 
" id="m1648d22cf6" style="stroke:#000000;stroke-width:0.8;"/>
      </defs>
      <g>
       <use style="stroke:#000000;stroke-width:0.8;" x="62.480779" xlink:href="#m1648d22cf6" y="170.57267"/>
      </g>
     </g>
    </g>
    <g id="xtick_2">
     <g id="line2d_2">
      <g>
       <use style="stroke:#000000;stroke-width:0.8;" x="118.28386" xlink:href="#m1648d22cf6" y="170.57267"/>
      </g>
     </g>
    </g>
    <g id="xtick_3">
     <g id="line2d_3">
      <g>
       <use style="stroke:#000000;stroke-width:0.8;" x="174.086941" xlink:href="#m1648d22cf6" y="170.57267"/>
      </g>
     </g>
    </g>
    <g id="xtick_4">
     <g id="line2d_4">
      <g>
       <use style="stroke:#000000;stroke-width:0.8;" x="229.890021" xlink:href="#m1648d22cf6" y="170.57267"/>
      </g>
     </g>
    </g>
    <g id="xtick_5">
     <g id="line2d_5">
      <g>
       <use style="stroke:#000000;stroke-width:0.8;" x="285.693102" xlink:href="#m1648d22cf6" y="170.57267"/>
      </g>
     </g>
    </g>
    <g id="xtick_6">
     <g id="line2d_6">
      <g>
       <use style="stroke:#000000;stroke-width:0.8;" x="341.496183" xlink:href="#m1648d22cf6" y="170.57267"/>
      </g>
     </g>
    </g>
   </g>
   <g id="matplotlib.axis_2">
    <g id="ytick_1">
     <g id="line2d_7">
      <defs>
       <path d="M 0 0 
L -3.5 0 
" id="me2f6af3593" style="stroke:#000000;stroke-width:0.8;"/>
      </defs>
      <g>
       <use style="stroke:#000000;stroke-width:0.8;" x="59.690625" xlink:href="#me2f6af3593" y="170.57267"/>
      </g>
     </g>
     <g id="text_1">
      <text style="font-family:DejaVu Sans;font-size:10px;font-stretch:normal;font-style:normal;font-weight:normal;text-anchor:end;" transform="rotate(-0, 52.690625, 174.371889)" x="52.690625" y="174.371889">0</text>
     </g>
    </g>
    <g id="ytick_2">
     <g id="line2d_8">
      <g>
       <use style="stroke:#000000;stroke-width:0.8;" x="59.690625" xlink:href="#me2f6af3593" y="133.665482"/>
      </g>
     </g>
     <g id="text_2">
      <text style="font-family:DejaVu Sans;font-size:10px;font-stretch:normal;font-style:normal;font-weight:normal;text-anchor:end;" transform="rotate(-0, 52.690625, 137.464701)" x="52.690625" y="137.464701">5000</text>
     </g>
    </g>
    <g id="ytick_3">
     <g id="line2d_9">
      <g>
       <use style="stroke:#000000;stroke-width:0.8;" x="59.690625" xlink:href="#me2f6af3593" y="96.758294"/>
      </g>
     </g>
     <g id="text_3">
      <text style="font-family:DejaVu Sans;font-size:10px;font-stretch:normal;font-style:normal;font-weight:normal;text-anchor:end;" transform="rotate(-0, 52.690625, 100.557512)" x="52.690625" y="100.557512">10000</text>
     </g>
    </g>
    <g id="ytick_4">
     <g id="line2d_10">
      <g>
       <use style="stroke:#000000;stroke-width:0.8;" x="59.690625" xlink:href="#me2f6af3593" y="59.851105"/>
      </g>
     </g>
     <g id="text_4">
      <text style="font-family:DejaVu Sans;font-size:10px;font-stretch:normal;font-style:normal;font-weight:normal;text-anchor:end;" transform="rotate(-0, 52.690625, 63.650324)" x="52.690625" y="63.650324">15000</text>
     </g>
    </g>
    <g id="ytick_5">
     <g id="line2d_11">
      <g>
       <use style="stroke:#000000;stroke-width:0.8;" x="59.690625" xlink:href="#me2f6af3593" y="22.943917"/>
      </g>
     </g>
     <g id="text_5">
      <text style="font-family:DejaVu Sans;font-size:10px;font-stretch:normal;font-style:normal;font-weight:normal;text-anchor:end;" transform="rotate(-0, 52.690625, 26.743136)" x="52.690625" y="26.743136">20000</text>
     </g>
    </g>
    <g id="text_6">
     <text style="font-family:DejaVu Sans;font-size:10px;font-stretch:normal;font-style:normal;font-weight:normal;text-anchor:middle;" transform="rotate(-90, 14.798438, 96.445398)" x="14.798438" y="96.445398">Density</text>
    </g>
   </g>
   <g id="patch_3">
    <path d="M 59.690625 170.57267 
L 59.690625 22.318125 
" style="fill:none;stroke:#000000;stroke-linecap:square;stroke-linejoin:miter;stroke-width:0.8;"/>
   </g>
   <g id="patch_4">
    <path d="M 394.490625 170.57267 
L 394.490625 22.318125 
" style="fill:none;stroke:#000000;stroke-linecap:square;stroke-linejoin:miter;stroke-width:0.8;"/>
   </g>
   <g id="patch_5">
    <path d="M 59.690625 170.57267 
L 394.490625 170.57267 
" style="fill:none;stroke:#000000;stroke-linecap:square;stroke-linejoin:miter;stroke-width:0.8;"/>
   </g>
   <g id="patch_6">
    <path d="M 59.690625 22.318125 
L 394.490625 22.318125 
" style="fill:none;stroke:#000000;stroke-linecap:square;stroke-linejoin:miter;stroke-width:0.8;"/>
   </g>
   <g id="text_7">
    <text style="font-family:DejaVu Sans;font-size:12px;font-stretch:normal;font-style:normal;font-weight:normal;text-anchor:middle;" transform="rotate(-0, 227.090625, 16.318125)" x="227.090625" y="16.318125">0.PRE</text>
   </g>
  </g>
  <g id="axes_2">
   <g id="patch_7">
    <path d="M 59.690625 348.478125 
L 394.490625 348.478125 
L 394.490625 200.22358 
L 59.690625 200.22358 
z
" style="fill:#ffffff;"/>
   </g>
   <g id="matplotlib.axis_3">
    <g id="xtick_7">
     <g id="line2d_12">
      <g>
       <use style="stroke:#000000;stroke-width:0.8;" x="62.480779" xlink:href="#m1648d22cf6" y="348.478125"/>
      </g>
     </g>
     <g id="text_8">
      <text style="font-family:DejaVu Sans;font-size:10px;font-stretch:normal;font-style:normal;font-weight:normal;text-anchor:middle;" transform="rotate(-0, 62.480779, 363.076562)" x="62.480779" y="363.076562">0.0</text>
     </g>
    </g>
    <g id="xtick_8">
     <g id="line2d_13">
      <g>
       <use style="stroke:#000000;stroke-width:0.8;" x="118.28386" xlink:href="#m1648d22cf6" y="348.478125"/>
      </g>
     </g>
     <g id="text_9">
      <text style="font-family:DejaVu Sans;font-size:10px;font-stretch:normal;font-style:normal;font-weight:normal;text-anchor:middle;" transform="rotate(-0, 118.28386, 363.076562)" x="118.28386" y="363.076562">0.2</text>
     </g>
    </g>
    <g id="xtick_9">
     <g id="line2d_14">
      <g>
       <use style="stroke:#000000;stroke-width:0.8;" x="174.086941" xlink:href="#m1648d22cf6" y="348.478125"/>
      </g>
     </g>
     <g id="text_10">
      <text style="font-family:DejaVu Sans;font-size:10px;font-stretch:normal;font-style:normal;font-weight:normal;text-anchor:middle;" transform="rotate(-0, 174.086941, 363.076562)" x="174.086941" y="363.076562">0.4</text>
     </g>
    </g>
    <g id="xtick_10">
     <g id="line2d_15">
      <g>
       <use style="stroke:#000000;stroke-width:0.8;" x="229.890021" xlink:href="#m1648d22cf6" y="348.478125"/>
      </g>
     </g>
     <g id="text_11">
      <text style="font-family:DejaVu Sans;font-size:10px;font-stretch:normal;font-style:normal;font-weight:normal;text-anchor:middle;" transform="rotate(-0, 229.890021, 363.076562)" x="229.890021" y="363.076562">0.6</text>
     </g>
    </g>
    <g id="xtick_11">
     <g id="line2d_16">
      <g>
       <use style="stroke:#000000;stroke-width:0.8;" x="285.693102" xlink:href="#m1648d22cf6" y="348.478125"/>
      </g>
     </g>
     <g id="text_12">
      <text style="font-family:DejaVu Sans;font-size:10px;font-stretch:normal;font-style:normal;font-weight:normal;text-anchor:middle;" transform="rotate(-0, 285.693102, 363.076562)" x="285.693102" y="363.076562">0.8</text>
     </g>
    </g>
    <g id="xtick_12">
     <g id="line2d_17">
      <g>
       <use style="stroke:#000000;stroke-width:0.8;" x="341.496183" xlink:href="#m1648d22cf6" y="348.478125"/>
      </g>
     </g>
     <g id="text_13">
      <text style="font-family:DejaVu Sans;font-size:10px;font-stretch:normal;font-style:normal;font-weight:normal;text-anchor:middle;" transform="rotate(-0, 341.496183, 363.076562)" x="341.496183" y="363.076562">1.0</text>
     </g>
    </g>
    <g id="text_14">
     <text style="font-family:DejaVu Sans;font-size:10px;font-stretch:normal;font-style:normal;font-weight:normal;" transform="translate(185.702344 376.754687)">Distance to Root</text>
     <text style="font-family:DejaVu Sans;font-size:10px;font-stretch:normal;font-style:normal;font-weight:normal;" transform="translate(179.122656 387.9525)">(Substitutions/Site)</text>
    </g>
    <g id="text_15">
     <text style="font-family:DejaVu Sans;font-size:10px;font-stretch:normal;font-style:normal;font-weight:normal;text-anchor:end;" transform="rotate(-0, 394.490625, 375.754687)" x="394.490625" y="375.754687">1e−4</text>
    </g>
   </g>
   <g id="matplotlib.axis_4">
    <g id="text_16">
     <text style="font-family:DejaVu Sans;font-size:10px;font-stretch:normal;font-style:normal;font-weight:normal;text-anchor:middle;" transform="rotate(-90, 53.610938, 274.350852)" x="53.610938" y="274.350852">Taxa</text>
    </g>
   </g>
   <g id="LineCollection_1">
    <path clip-path="url(#p5e5f487f81)" d="M 62.480779 309.142904 
L 62.480779 309.142904 
" style="fill:none;stroke:#8000ff;"/>
   </g>
   <g id="LineCollection_2">
    <path clip-path="url(#p5e5f487f81)" d="M 62.480779 293.65483 
L 99.710083 293.65483 
" style="fill:none;stroke:#8000ff;"/>
   </g>
   <g id="LineCollection_3">
    <path clip-path="url(#p5e5f487f81)" d="M 99.710083 277.04443 
L 136.84815 277.04443 
" style="fill:none;stroke:#8000ff;"/>
   </g>
   <g id="LineCollection_4">
    <path clip-path="url(#p5e5f487f81)" d="M 136.84815 258.189383 
L 139.424857 258.189383 
" style="fill:none;stroke:#8000ff;"/>
   </g>
   <g id="LineCollection_5">
    <path clip-path="url(#p5e5f487f81)" d="M 139.424857 242.027914 
L 169.974533 242.027914 
" style="fill:none;stroke:#8000ff;"/>
   </g>
   <g id="LineCollection_6">
    <path clip-path="url(#p5e5f487f81)" d="M 169.974533 231.253601 
L 219.838771 231.253601 
" style="fill:none;stroke:#8000ff;"/>
   </g>
   <g id="LineCollection_7">
    <path clip-path="url(#p5e5f487f81)" d="M 219.838771 224.070725 
L 225.754176 224.070725 
" style="fill:none;stroke:#8000ff;"/>
   </g>
   <g id="LineCollection_8">
    <path clip-path="url(#p5e5f487f81)" d="M 219.838771 238.436476 
L 328.088656 238.436476 
" style="fill:none;stroke:#8000ff;"/>
   </g>
   <g id="LineCollection_9">
    <path clip-path="url(#p5e5f487f81)" d="M 169.974533 252.802226 
L 182.293063 252.802226 
" style="fill:none;stroke:#8000ff;"/>
   </g>
   <g id="LineCollection_10">
    <path clip-path="url(#p5e5f487f81)" d="M 139.424857 274.350852 
L 143.932072 274.350852 
" style="fill:none;stroke:#8000ff;"/>
   </g>
   <g id="LineCollection_11">
    <path clip-path="url(#p5e5f487f81)" d="M 143.932072 267.167977 
L 145.419224 267.167977 
" style="fill:none;stroke:#8000ff;"/>
   </g>
   <g id="LineCollection_12">
    <path clip-path="url(#p5e5f487f81)" d="M 143.932072 281.533728 
L 143.997919 281.533728 
" style="fill:none;stroke:#8000ff;"/>
   </g>
   <g id="LineCollection_13">
    <path clip-path="url(#p5e5f487f81)" d="M 136.84815 295.899478 
L 144.628494 295.899478 
" style="fill:none;stroke:#8000ff;"/>
   </g>
   <g id="LineCollection_14">
    <path clip-path="url(#p5e5f487f81)" d="M 99.710083 310.265229 
L 110.876838 310.265229 
" style="fill:none;stroke:#8000ff;"/>
   </g>
   <g id="LineCollection_15">
    <path clip-path="url(#p5e5f487f81)" d="M 62.480779 324.630979 
L 77.888568 324.630979 
" style="fill:none;stroke:#8000ff;"/>
   </g>
   <g id="LineCollection_16">
    <path clip-path="url(#p5e5f487f81)" d="M 62.480779 324.630979 
L 62.480779 293.65483 
" style="fill:none;stroke:#8000ff;"/>
   </g>
   <g id="LineCollection_17">
    <path clip-path="url(#p5e5f487f81)" d="M 99.710083 310.265229 
L 99.710083 277.04443 
" style="fill:none;stroke:#8000ff;"/>
   </g>
   <g id="LineCollection_18">
    <path clip-path="url(#p5e5f487f81)" d="M 136.84815 295.899478 
L 136.84815 258.189383 
" style="fill:none;stroke:#8000ff;"/>
   </g>
   <g id="LineCollection_19">
    <path clip-path="url(#p5e5f487f81)" d="M 139.424857 274.350852 
L 139.424857 242.027914 
" style="fill:none;stroke:#8000ff;"/>
   </g>
   <g id="LineCollection_20">
    <path clip-path="url(#p5e5f487f81)" d="M 169.974533 252.802226 
L 169.974533 231.253601 
" style="fill:none;stroke:#8000ff;"/>
   </g>
   <g id="LineCollection_21">
    <path clip-path="url(#p5e5f487f81)" d="M 219.838771 238.436476 
L 219.838771 224.070725 
" style="fill:none;stroke:#8000ff;"/>
   </g>
   <g id="LineCollection_22">
    <path clip-path="url(#p5e5f487f81)" d="M 143.932072 281.533728 
L 143.932072 267.167977 
" style="fill:none;stroke:#8000ff;"/>
   </g>
   <g id="PathCollection_1">
    <defs>
     <path d="M 0 1.581139 
C 0.419323 1.581139 0.821528 1.41454 1.118034 1.118034 
C 1.41454 0.821528 1.581139 0.419323 1.581139 0 
C 1.581139 -0.419323 1.41454 -0.821528 1.118034 -1.118034 
C 0.821528 -1.41454 0.419323 -1.581139 0 -1.581139 
C -0.419323 -1.581139 -0.821528 -1.41454 -1.118034 -1.118034 
C -1.41454 -0.821528 -1.581139 -0.419323 -1.581139 0 
C -1.581139 0.419323 -1.41454 0.821528 -1.118034 1.118034 
C -0.821528 1.41454 -0.419323 1.581139 0 1.581139 
z
" id="m85e59a0bac" style="stroke:#000000;stroke-width:0.252982;"/>
    </defs>
    <g clip-path="url(#p5e5f487f81)">
     <use style="fill:#8000ff;stroke:#000000;stroke-width:0.252982;" x="225.754176" xlink:href="#m85e59a0bac" y="224.070725"/>
     <use style="fill:#8000ff;stroke:#000000;stroke-width:0.252982;" x="328.088656" xlink:href="#m85e59a0bac" y="238.436476"/>
     <use style="fill:#8000ff;stroke:#000000;stroke-width:0.252982;" x="182.293063" xlink:href="#m85e59a0bac" y="252.802226"/>
     <use style="fill:#8000ff;stroke:#000000;stroke-width:0.252982;" x="145.419224" xlink:href="#m85e59a0bac" y="267.167977"/>
     <use style="fill:#8000ff;stroke:#000000;stroke-width:0.252982;" x="143.997919" xlink:href="#m85e59a0bac" y="281.533728"/>
     <use style="fill:#8000ff;stroke:#000000;stroke-width:0.252982;" x="144.628494" xlink:href="#m85e59a0bac" y="295.899478"/>
     <use style="fill:#8000ff;stroke:#000000;stroke-width:0.252982;" x="110.876838" xlink:href="#m85e59a0bac" y="310.265229"/>
     <use style="fill:#8000ff;stroke:#000000;stroke-width:0.252982;" x="77.888568" xlink:href="#m85e59a0bac" y="324.630979"/>
    </g>
   </g>
   <g id="patch_8">
    <path d="M 59.690625 348.478125 
L 59.690625 200.22358 
" style="fill:none;stroke:#000000;stroke-linecap:square;stroke-linejoin:miter;stroke-width:0.8;"/>
   </g>
   <g id="patch_9">
    <path d="M 394.490625 348.478125 
L 394.490625 200.22358 
" style="fill:none;stroke:#000000;stroke-linecap:square;stroke-linejoin:miter;stroke-width:0.8;"/>
   </g>
   <g id="patch_10">
    <path d="M 59.690625 348.478125 
L 394.490625 348.478125 
" style="fill:none;stroke:#000000;stroke-linecap:square;stroke-linejoin:miter;stroke-width:0.8;"/>
   </g>
   <g id="patch_11">
    <path d="M 59.690625 200.22358 
L 394.490625 200.22358 
" style="fill:none;stroke:#000000;stroke-linecap:square;stroke-linejoin:miter;stroke-width:0.8;"/>
   </g>
   <g id="text_17">
    <text style="font-family:DejaVu Sans;font-size:10px;font-stretch:normal;font-style:normal;font-weight:normal;text-anchor:start;" transform="rotate(-0, 62.480779, 311.902279)" x="62.480779" y="311.902279"> </text>
   </g>
   <g id="text_18">
    <text style="font-family:DejaVu Sans;font-size:10px;font-stretch:normal;font-style:normal;font-weight:normal;text-anchor:start;" transform="rotate(-0, 99.710083, 296.414205)" x="99.710083" y="296.414205"> </text>
   </g>
   <g id="text_19">
    <text style="font-family:DejaVu Sans;font-size:10px;font-stretch:normal;font-style:normal;font-weight:normal;text-anchor:start;" transform="rotate(-0, 136.84815, 279.803805)" x="136.84815" y="279.803805"> </text>
   </g>
   <g id="text_20">
    <text style="font-family:DejaVu Sans;font-size:10px;font-stretch:normal;font-style:normal;font-weight:normal;text-anchor:start;" transform="rotate(-0, 139.424857, 260.948758)" x="139.424857" y="260.948758"> </text>
   </g>
   <g id="text_21">
    <text style="font-family:DejaVu Sans;font-size:10px;font-stretch:normal;font-style:normal;font-weight:normal;text-anchor:start;" transform="rotate(-0, 169.974533, 244.787289)" x="169.974533" y="244.787289"> </text>
   </g>
   <g id="text_22">
    <text style="font-family:DejaVu Sans;font-size:10px;font-stretch:normal;font-style:normal;font-weight:normal;text-anchor:start;" transform="rotate(-0, 219.838771, 234.012976)" x="219.838771" y="234.012976"> </text>
   </g>
   <g id="text_23">
    <text style="font-family:DejaVu Sans;font-size:10px;font-stretch:normal;font-style:normal;font-weight:normal;text-anchor:start;" transform="rotate(-0, 225.754176, 226.8301)" x="225.754176" y="226.8301"> </text>
   </g>
   <g id="text_24">
    <text style="font-family:DejaVu Sans;font-size:10px;font-stretch:normal;font-style:normal;font-weight:normal;text-anchor:start;" transform="rotate(-0, 328.088656, 241.195851)" x="328.088656" y="241.195851"> </text>
   </g>
   <g id="text_25">
    <text style="font-family:DejaVu Sans;font-size:10px;font-stretch:normal;font-style:normal;font-weight:normal;text-anchor:start;" transform="rotate(-0, 182.293063, 255.561601)" x="182.293063" y="255.561601"> </text>
   </g>
   <g id="text_26">
    <text style="font-family:DejaVu Sans;font-size:10px;font-stretch:normal;font-style:normal;font-weight:normal;text-anchor:start;" transform="rotate(-0, 143.932072, 277.110227)" x="143.932072" y="277.110227"> </text>
   </g>
   <g id="text_27">
    <text style="font-family:DejaVu Sans;font-size:10px;font-stretch:normal;font-style:normal;font-weight:normal;text-anchor:start;" transform="rotate(-0, 145.419224, 269.927352)" x="145.419224" y="269.927352"> </text>
   </g>
   <g id="text_28">
    <text style="font-family:DejaVu Sans;font-size:10px;font-stretch:normal;font-style:normal;font-weight:normal;text-anchor:start;" transform="rotate(-0, 143.997919, 284.293103)" x="143.997919" y="284.293103"> </text>
   </g>
   <g id="text_29">
    <text style="font-family:DejaVu Sans;font-size:10px;font-stretch:normal;font-style:normal;font-weight:normal;text-anchor:start;" transform="rotate(-0, 144.628494, 298.658853)" x="144.628494" y="298.658853"> </text>
   </g>
   <g id="text_30">
    <text style="font-family:DejaVu Sans;font-size:10px;font-stretch:normal;font-style:normal;font-weight:normal;text-anchor:start;" transform="rotate(-0, 110.876838, 313.024604)" x="110.876838" y="313.024604"> </text>
   </g>
   <g id="text_31">
    <text style="font-family:DejaVu Sans;font-size:10px;font-stretch:normal;font-style:normal;font-weight:normal;text-anchor:start;" transform="rotate(-0, 77.888568, 327.390354)" x="77.888568" y="327.390354"> </text>
   </g>
  </g>
 </g>
 <defs>
  <clipPath id="p527a150ea0">
   <rect height="148.254545" width="334.8" x="59.690625" y="22.318125"/>
  </clipPath>
  <clipPath id="p5e5f487f81">
   <rect height="148.254545" width="334.8" x="59.690625" y="200.22358"/>
  </clipPath>
 </defs>
</svg>
