<?xml version="1.0" encoding="utf-8" standalone="no"?>
<!DOCTYPE svg PUBLIC "-//W3C//DTD SVG 1.1//EN"
  "http://www.w3.org/Graphics/SVG/1.1/DTD/svg11.dtd">
<!-- Created with matplotlib (https://matplotlib.org/) -->
<svg height="279.654063pt" version="1.1" viewBox="0 0 405.3 279.654063" width="405.3pt" xmlns="http://www.w3.org/2000/svg" xmlns:xlink="http://www.w3.org/1999/xlink">
 <metadata>
  <rdf:RDF xmlns:cc="http://creativecommons.org/ns#" xmlns:dc="http://purl.org/dc/elements/1.1/" xmlns:rdf="http://www.w3.org/1999/02/22-rdf-syntax-ns#">
   <cc:Work>
    <dc:type rdf:resource="http://purl.org/dc/dcmitype/StillImage"/>
    <dc:date>2021-09-17T16:40:52.369968</dc:date>
    <dc:format>image/svg+xml</dc:format>
    <dc:creator>
     <cc:Agent>
      <dc:title>Matplotlib v3.3.2, https://matplotlib.org/</dc:title>
     </cc:Agent>
    </dc:creator>
   </cc:Work>
  </rdf:RDF>
 </metadata>
 <defs>
  <style type="text/css">*{stroke-linecap:butt;stroke-linejoin:round;}</style>
 </defs>
 <g id="figure_1">
  <g id="patch_1">
   <path d="M 0 279.654063 
L 405.3 279.654063 
L 405.3 0 
L 0 0 
z
" style="fill:#ffffff;"/>
  </g>
  <g id="axes_1">
   <g id="patch_2">
    <path d="M 10.7 230.9 
L 333.533333 230.9 
L 333.533333 66.983333 
L 10.7 66.983333 
z
" style="fill:#ffffff;"/>
   </g>
   <g id="patch_3">
    <path clip-path="url(#pe33799350e)" d="M 32.222222 230.9 
L 32.222222 66.983333 
L 75.266667 66.983333 
L 75.266667 230.9 
z
" style="fill:#c4c4c4;opacity:0.25;"/>
   </g>
   <g id="matplotlib.axis_1">
    <g id="xtick_1">
     <g id="line2d_1">
      <defs>
       <path d="M 0 0 
L 0 3.5 
" id="mfe2889dbbd" style="stroke:#000000;stroke-width:0.8;"/>
      </defs>
      <g>
       <use style="stroke:#000000;stroke-width:0.8;" x="32.222222" xlink:href="#mfe2889dbbd" y="230.9"/>
      </g>
     </g>
     <g id="text_1">
      <text style="font-family:DejaVu Sans;font-size:10px;font-stretch:normal;font-style:normal;font-weight:normal;text-anchor:middle;" transform="rotate(-0, 32.222222, 245.498438)" x="32.222222" y="245.498438">0</text>
     </g>
    </g>
    <g id="xtick_2">
     <g id="line2d_2">
      <g>
       <use style="stroke:#000000;stroke-width:0.8;" x="75.266667" xlink:href="#mfe2889dbbd" y="230.9"/>
      </g>
     </g>
     <g id="text_2">
      <text style="font-family:DejaVu Sans;font-size:10px;font-stretch:normal;font-style:normal;font-weight:normal;text-anchor:middle;" transform="rotate(-0, 75.266667, 245.498438)" x="75.266667" y="245.498438">1</text>
     </g>
    </g>
    <g id="xtick_3">
     <g id="line2d_3">
      <g>
       <use style="stroke:#000000;stroke-width:0.8;" x="118.311111" xlink:href="#mfe2889dbbd" y="230.9"/>
      </g>
     </g>
     <g id="text_3">
      <text style="font-family:DejaVu Sans;font-size:10px;font-stretch:normal;font-style:normal;font-weight:normal;text-anchor:middle;" transform="rotate(-0, 118.311111, 245.498438)" x="118.311111" y="245.498438">2</text>
     </g>
    </g>
    <g id="xtick_4">
     <g id="line2d_4">
      <g>
       <use style="stroke:#000000;stroke-width:0.8;" x="161.355556" xlink:href="#mfe2889dbbd" y="230.9"/>
      </g>
     </g>
     <g id="text_4">
      <text style="font-family:DejaVu Sans;font-size:10px;font-stretch:normal;font-style:normal;font-weight:normal;text-anchor:middle;" transform="rotate(-0, 161.355556, 245.498438)" x="161.355556" y="245.498438">3</text>
     </g>
    </g>
    <g id="xtick_5">
     <g id="line2d_5">
      <g>
       <use style="stroke:#000000;stroke-width:0.8;" x="204.4" xlink:href="#mfe2889dbbd" y="230.9"/>
      </g>
     </g>
     <g id="text_5">
      <text style="font-family:DejaVu Sans;font-size:10px;font-stretch:normal;font-style:normal;font-weight:normal;text-anchor:middle;" transform="rotate(-0, 204.4, 245.498438)" x="204.4" y="245.498438">4</text>
     </g>
    </g>
    <g id="xtick_6">
     <g id="line2d_6">
      <g>
       <use style="stroke:#000000;stroke-width:0.8;" x="247.444444" xlink:href="#mfe2889dbbd" y="230.9"/>
      </g>
     </g>
     <g id="text_6">
      <text style="font-family:DejaVu Sans;font-size:10px;font-stretch:normal;font-style:normal;font-weight:normal;text-anchor:middle;" transform="rotate(-0, 247.444444, 245.498438)" x="247.444444" y="245.498438">5</text>
     </g>
    </g>
    <g id="xtick_7">
     <g id="line2d_7">
      <g>
       <use style="stroke:#000000;stroke-width:0.8;" x="290.488889" xlink:href="#mfe2889dbbd" y="230.9"/>
      </g>
     </g>
     <g id="text_7">
      <text style="font-family:DejaVu Sans;font-size:10px;font-stretch:normal;font-style:normal;font-weight:normal;text-anchor:middle;" transform="rotate(-0, 290.488889, 245.498438)" x="290.488889" y="245.498438">6</text>
     </g>
    </g>
    <g id="xtick_8">
     <g id="line2d_8">
      <g>
       <use style="stroke:#000000;stroke-width:0.8;" x="333.533333" xlink:href="#mfe2889dbbd" y="230.9"/>
      </g>
     </g>
     <g id="text_8">
      <text style="font-family:DejaVu Sans;font-size:10px;font-stretch:normal;font-style:normal;font-weight:normal;text-anchor:middle;" transform="rotate(-0, 333.533333, 245.498438)" x="333.533333" y="245.498438">7</text>
     </g>
    </g>
    <g id="text_9">
     <text style="font-family:DejaVu Sans;font-size:10px;font-stretch:normal;font-style:normal;font-weight:normal;" transform="translate(117.811979 259.176562)">Distance to the MRCA</text>
     <text style="font-family:DejaVu Sans;font-size:10px;font-stretch:normal;font-style:normal;font-weight:normal;" transform="translate(124.148698 270.374375)">(Substitutions/Site)</text>
    </g>
    <g id="text_10">
     <text style="font-family:DejaVu Sans;font-size:10px;font-stretch:normal;font-style:normal;font-weight:normal;text-anchor:end;" transform="rotate(-0, 333.533333, 258.176562)" x="333.533333" y="258.176562">1e−5</text>
    </g>
   </g>
   <g id="matplotlib.axis_2"/>
   <g id="LineCollection_1">
    <path clip-path="url(#pe33799350e)" d="M 32.222222 167.501072 
L 32.222222 167.501072 
" style="fill:none;stroke:#ff8a48;"/>
   </g>
   <g id="LineCollection_2">
    <path clip-path="url(#pe33799350e)" d="M 32.222222 141.517905 
L 82.565283 141.517905 
" style="fill:none;stroke:#ff8a48;"/>
   </g>
   <g id="LineCollection_3">
    <path clip-path="url(#pe33799350e)" d="M 82.565283 119.246618 
L 82.666868 119.246618 
" style="fill:none;stroke:#ff8a48;"/>
   </g>
   <g id="LineCollection_4">
    <path clip-path="url(#pe33799350e)" d="M 82.666868 104.399094 
L 86.722946 104.399094 
" style="fill:none;stroke:#ff8a48;"/>
   </g>
   <g id="LineCollection_5">
    <path clip-path="url(#pe33799350e)" d="M 82.666868 134.094143 
L 82.768452 134.094143 
" style="fill:none;stroke:#ff8a48;"/>
   </g>
   <g id="LineCollection_6">
    <path clip-path="url(#pe33799350e)" d="M 82.565283 163.789191 
L 93.718959 163.789191 
" style="fill:none;stroke:#ff8a48;"/>
   </g>
   <g id="LineCollection_7">
    <path clip-path="url(#pe33799350e)" d="M 32.222222 193.484239 
L 98.691884 193.484239 
" style="fill:none;stroke:#ff8a48;"/>
   </g>
   <g id="LineCollection_8">
    <path clip-path="url(#pe33799350e)" d="M 32.222222 193.484239 
L 32.222222 141.517905 
" style="fill:none;stroke:#ff8a48;"/>
   </g>
   <g id="LineCollection_9">
    <path clip-path="url(#pe33799350e)" d="M 82.565283 163.789191 
L 82.565283 119.246618 
" style="fill:none;stroke:#ff8a48;"/>
   </g>
   <g id="LineCollection_10">
    <path clip-path="url(#pe33799350e)" d="M 82.666868 134.094143 
L 82.666868 104.399094 
" style="fill:none;stroke:#ff8a48;"/>
   </g>
   <g id="PathCollection_1">
    <defs>
     <path d="M 0 1.581139 
C 0.419323 1.581139 0.821528 1.41454 1.118034 1.118034 
C 1.41454 0.821528 1.581139 0.419323 1.581139 0 
C 1.581139 -0.419323 1.41454 -0.821528 1.118034 -1.118034 
C 0.821528 -1.41454 0.419323 -1.581139 0 -1.581139 
C -0.419323 -1.581139 -0.821528 -1.41454 -1.118034 -1.118034 
C -1.41454 -0.821528 -1.581139 -0.419323 -1.581139 0 
C -1.581139 0.419323 -1.41454 0.821528 -1.118034 1.118034 
C -0.821528 1.41454 -0.419323 1.581139 0 1.581139 
z
" id="m6c25f9fc75" style="stroke:#000000;stroke-width:0.252982;"/>
    </defs>
    <g clip-path="url(#pe33799350e)">
     <use style="fill:#ff8a48;stroke:#000000;stroke-width:0.252982;" x="86.722946" xlink:href="#m6c25f9fc75" y="104.399094"/>
     <use style="fill:#ff8a48;stroke:#000000;stroke-width:0.252982;" x="82.768452" xlink:href="#m6c25f9fc75" y="134.094143"/>
     <use style="fill:#ff8a48;stroke:#000000;stroke-width:0.252982;" x="93.718959" xlink:href="#m6c25f9fc75" y="163.789191"/>
     <use style="fill:#ff8a48;stroke:#000000;stroke-width:0.252982;" x="98.691884" xlink:href="#m6c25f9fc75" y="193.484239"/>
    </g>
   </g>
   <g id="line2d_9">
    <path clip-path="url(#pe33799350e)" d="M 32.222222 230.9 
L 32.222222 66.983333 
" style="fill:none;stroke:#000000;stroke-dasharray:1.85,0.8;stroke-dashoffset:0;stroke-width:0.5;"/>
   </g>
   <g id="line2d_10">
    <path clip-path="url(#pe33799350e)" d="M 75.266667 230.9 
L 75.266667 66.983333 
" style="fill:none;stroke:#000000;stroke-dasharray:1.85,0.8;stroke-dashoffset:0;stroke-width:0.5;"/>
   </g>
   <g id="patch_4">
    <path d="M 10.7 230.9 
L 10.7 66.983333 
" style="fill:none;stroke:#000000;stroke-linecap:square;stroke-linejoin:miter;stroke-width:0.8;"/>
   </g>
   <g id="patch_5">
    <path d="M 10.7 230.9 
L 333.533333 230.9 
" style="fill:none;stroke:#000000;stroke-linecap:square;stroke-linejoin:miter;stroke-width:0.8;"/>
   </g>
   <g id="text_11">
    <text style="font-family:DejaVu Sans;font-size:10px;font-stretch:normal;font-style:normal;font-weight:normal;text-anchor:start;" transform="rotate(-0, 32.222222, 170.260447)" x="32.222222" y="170.260447"> </text>
   </g>
   <g id="text_12">
    <text style="font-family:DejaVu Sans;font-size:10px;font-stretch:normal;font-style:normal;font-weight:normal;text-anchor:start;" transform="rotate(-0, 82.565283, 144.27728)" x="82.565283" y="144.27728"> </text>
   </g>
   <g id="text_13">
    <text style="font-family:DejaVu Sans;font-size:10px;font-stretch:normal;font-style:normal;font-weight:normal;text-anchor:start;" transform="rotate(-0, 82.666868, 122.005993)" x="82.666868" y="122.005993"> </text>
   </g>
   <g id="text_14">
    <text style="font-family:DejaVu Sans;font-size:10px;font-stretch:normal;font-style:normal;font-weight:normal;text-anchor:start;" transform="rotate(-0, 86.722946, 107.158469)" x="86.722946" y="107.158469"> </text>
   </g>
   <g id="text_15">
    <text style="font-family:DejaVu Sans;font-size:10px;font-stretch:normal;font-style:normal;font-weight:normal;text-anchor:start;" transform="rotate(-0, 82.768452, 136.853518)" x="82.768452" y="136.853518"> </text>
   </g>
   <g id="text_16">
    <text style="font-family:DejaVu Sans;font-size:10px;font-stretch:normal;font-style:normal;font-weight:normal;text-anchor:start;" transform="rotate(-0, 93.718959, 166.548566)" x="93.718959" y="166.548566"> </text>
   </g>
   <g id="text_17">
    <text style="font-family:DejaVu Sans;font-size:10px;font-stretch:normal;font-style:normal;font-weight:normal;text-anchor:start;" transform="rotate(-0, 98.691884, 196.243614)" x="98.691884" y="196.243614"> </text>
   </g>
   <g id="text_18">
    <text style="font-family:DejaVu Sans;font-size:12px;font-stretch:normal;font-style:normal;font-weight:normal;text-anchor:middle;" transform="rotate(-0, 172.116667, 60.983333)" x="172.116667" y="60.983333">NODE442</text>
   </g>
  </g>
  <g id="axes_2">
   <g id="patch_6">
    <path d="M 10.7 66.983333 
L 333.533333 66.983333 
L 333.533333 34.2 
L 10.7 34.2 
z
" style="fill:#ffffff;"/>
   </g>
   <g id="PolyCollection_1">
    <defs>
     <path d="M 68.226932 -212.927718 
L 68.226932 -212.670729 
L 68.380022 -212.670729 
L 68.533112 -212.670729 
L 68.686202 -212.670729 
L 68.839293 -212.670729 
L 68.992383 -212.670729 
L 69.145473 -212.670729 
L 69.298563 -212.670729 
L 69.451653 -212.670729 
L 69.604744 -212.670729 
L 69.757834 -212.670729 
L 69.910924 -212.670729 
L 70.064014 -212.670729 
L 70.217104 -212.670729 
L 70.370195 -212.670729 
L 70.523285 -212.670729 
L 70.676375 -212.670729 
L 70.829465 -212.670729 
L 70.982556 -212.670729 
L 71.135646 -212.670729 
L 71.288736 -212.670729 
L 71.441826 -212.670729 
L 71.594916 -212.670729 
L 71.748007 -212.670729 
L 71.901097 -212.670729 
L 72.054187 -212.670729 
L 72.207277 -212.670729 
L 72.360367 -212.670729 
L 72.513458 -212.670729 
L 72.666548 -212.670729 
L 72.819638 -212.670729 
L 72.972728 -212.670729 
L 73.125818 -212.670729 
L 73.278909 -212.670729 
L 73.431999 -212.670729 
L 73.585089 -212.670729 
L 73.738179 -212.670729 
L 73.89127 -212.670729 
L 74.04436 -212.670729 
L 74.19745 -212.670729 
L 74.35054 -212.670729 
L 74.50363 -212.670729 
L 74.656721 -212.670729 
L 74.809811 -212.670729 
L 74.962901 -212.670729 
L 75.115991 -212.670729 
L 75.269081 -212.670729 
L 75.422172 -212.670729 
L 75.575262 -212.670729 
L 75.728352 -212.670729 
L 75.881442 -212.670729 
L 76.034532 -212.670729 
L 76.187623 -212.670729 
L 76.340713 -212.670729 
L 76.493803 -212.670729 
L 76.646893 -212.670729 
L 76.799984 -212.670729 
L 76.953074 -212.670729 
L 77.106164 -212.670729 
L 77.259254 -212.670729 
L 77.412344 -212.670729 
L 77.565435 -212.670729 
L 77.718525 -212.670729 
L 77.871615 -212.670729 
L 78.024705 -212.670729 
L 78.177795 -212.670729 
L 78.330886 -212.670729 
L 78.483976 -212.670729 
L 78.637066 -212.670729 
L 78.790156 -212.670729 
L 78.943247 -212.670729 
L 79.096337 -212.670729 
L 79.249427 -212.670729 
L 79.402517 -212.670729 
L 79.555607 -212.670729 
L 79.708698 -212.670729 
L 79.861788 -212.670729 
L 80.014878 -212.670729 
L 80.167968 -212.670729 
L 80.321058 -212.670729 
L 80.474149 -212.670729 
L 80.627239 -212.670729 
L 80.780329 -212.670729 
L 80.933419 -212.670729 
L 81.086509 -212.670729 
L 81.2396 -212.670729 
L 81.39269 -212.670729 
L 81.54578 -212.670729 
L 81.69887 -212.670729 
L 81.851961 -212.670729 
L 82.005051 -212.670729 
L 82.158141 -212.670729 
L 82.311231 -212.670729 
L 82.464321 -212.670729 
L 82.617412 -212.670729 
L 82.770502 -212.670729 
L 82.923592 -212.670729 
L 83.076682 -212.670729 
L 83.229772 -212.670729 
L 83.382863 -212.670729 
L 83.535953 -212.670729 
L 83.689043 -212.670729 
L 83.842133 -212.670729 
L 83.995223 -212.670729 
L 84.148314 -212.670729 
L 84.301404 -212.670729 
L 84.454494 -212.670729 
L 84.607584 -212.670729 
L 84.760675 -212.670729 
L 84.913765 -212.670729 
L 85.066855 -212.670729 
L 85.219945 -212.670729 
L 85.373035 -212.670729 
L 85.526126 -212.670729 
L 85.679216 -212.670729 
L 85.832306 -212.670729 
L 85.985396 -212.670729 
L 86.138486 -212.670729 
L 86.291577 -212.670729 
L 86.444667 -212.670729 
L 86.597757 -212.670729 
L 86.750847 -212.670729 
L 86.903937 -212.670729 
L 87.057028 -212.670729 
L 87.210118 -212.670729 
L 87.363208 -212.670729 
L 87.516298 -212.670729 
L 87.669389 -212.670729 
L 87.822479 -212.670729 
L 87.975569 -212.670729 
L 88.128659 -212.670729 
L 88.281749 -212.670729 
L 88.43484 -212.670729 
L 88.58793 -212.670729 
L 88.74102 -212.670729 
L 88.89411 -212.670729 
L 89.0472 -212.670729 
L 89.200291 -212.670729 
L 89.353381 -212.670729 
L 89.506471 -212.670729 
L 89.659561 -212.670729 
L 89.812652 -212.670729 
L 89.965742 -212.670729 
L 90.118832 -212.670729 
L 90.271922 -212.670729 
L 90.425012 -212.670729 
L 90.578103 -212.670729 
L 90.731193 -212.670729 
L 90.884283 -212.670729 
L 91.037373 -212.670729 
L 91.190463 -212.670729 
L 91.343554 -212.670729 
L 91.496644 -212.670729 
L 91.649734 -212.670729 
L 91.802824 -212.670729 
L 91.955914 -212.670729 
L 92.109005 -212.670729 
L 92.262095 -212.670729 
L 92.415185 -212.670729 
L 92.568275 -212.670729 
L 92.721366 -212.670729 
L 92.874456 -212.670729 
L 93.027546 -212.670729 
L 93.180636 -212.670729 
L 93.333726 -212.670729 
L 93.486817 -212.670729 
L 93.639907 -212.670729 
L 93.792997 -212.670729 
L 93.946087 -212.670729 
L 94.099177 -212.670729 
L 94.252268 -212.670729 
L 94.405358 -212.670729 
L 94.558448 -212.670729 
L 94.711538 -212.670729 
L 94.864628 -212.670729 
L 95.017719 -212.670729 
L 95.170809 -212.670729 
L 95.323899 -212.670729 
L 95.476989 -212.670729 
L 95.63008 -212.670729 
L 95.78317 -212.670729 
L 95.93626 -212.670729 
L 96.08935 -212.670729 
L 96.24244 -212.670729 
L 96.395531 -212.670729 
L 96.548621 -212.670729 
L 96.701711 -212.670729 
L 96.854801 -212.670729 
L 97.007891 -212.670729 
L 97.160982 -212.670729 
L 97.314072 -212.670729 
L 97.467162 -212.670729 
L 97.620252 -212.670729 
L 97.773343 -212.670729 
L 97.926433 -212.670729 
L 98.079523 -212.670729 
L 98.232613 -212.670729 
L 98.385703 -212.670729 
L 98.538794 -212.670729 
L 98.691884 -212.670729 
L 98.691884 -225.869841 
L 98.691884 -225.869841 
L 98.538794 -226.061295 
L 98.385703 -226.247568 
L 98.232613 -226.428559 
L 98.079523 -226.604192 
L 97.926433 -226.774412 
L 97.773343 -226.93919 
L 97.620252 -227.098524 
L 97.467162 -227.252433 
L 97.314072 -227.400966 
L 97.160982 -227.544196 
L 97.007891 -227.682223 
L 96.854801 -227.815173 
L 96.701711 -227.943198 
L 96.548621 -228.066479 
L 96.395531 -228.185219 
L 96.24244 -228.299648 
L 96.08935 -228.410023 
L 95.93626 -228.516622 
L 95.78317 -228.619749 
L 95.63008 -228.719731 
L 95.476989 -228.816915 
L 95.323899 -228.911672 
L 95.170809 -229.004388 
L 95.017719 -229.09547 
L 94.864628 -229.185343 
L 94.711538 -229.274445 
L 94.558448 -229.363228 
L 94.405358 -229.452155 
L 94.252268 -229.541701 
L 94.099177 -229.632348 
L 93.946087 -229.724581 
L 93.792997 -229.818894 
L 93.639907 -229.915776 
L 93.486817 -230.015721 
L 93.333726 -230.119214 
L 93.180636 -230.226739 
L 93.027546 -230.338768 
L 92.874456 -230.455764 
L 92.721366 -230.578174 
L 92.568275 -230.706432 
L 92.415185 -230.840951 
L 92.262095 -230.982122 
L 92.109005 -231.130314 
L 91.955914 -231.285866 
L 91.802824 -231.449091 
L 91.649734 -231.620268 
L 91.496644 -231.799643 
L 91.343554 -231.987425 
L 91.190463 -232.183784 
L 91.037373 -232.388849 
L 90.884283 -232.602706 
L 90.731193 -232.825399 
L 90.578103 -233.05692 
L 90.425012 -233.297218 
L 90.271922 -233.546192 
L 90.118832 -233.803687 
L 89.965742 -234.069502 
L 89.812652 -234.34338 
L 89.659561 -234.625013 
L 89.506471 -234.91404 
L 89.353381 -235.210049 
L 89.200291 -235.512574 
L 89.0472 -235.821097 
L 88.89411 -236.135051 
L 88.74102 -236.453819 
L 88.58793 -236.776732 
L 88.43484 -237.103081 
L 88.281749 -237.432105 
L 88.128659 -237.763007 
L 87.975569 -238.094945 
L 87.822479 -238.427043 
L 87.669389 -238.758388 
L 87.516298 -239.088039 
L 87.363208 -239.415025 
L 87.210118 -239.738352 
L 87.057028 -240.057005 
L 86.903937 -240.369954 
L 86.750847 -240.676157 
L 86.597757 -240.974563 
L 86.444667 -241.264119 
L 86.291577 -241.543775 
L 86.138486 -241.812483 
L 85.985396 -242.069208 
L 85.832306 -242.312932 
L 85.679216 -242.542654 
L 85.526126 -242.757399 
L 85.373035 -242.956221 
L 85.219945 -243.138208 
L 85.066855 -243.302485 
L 84.913765 -243.448219 
L 84.760675 -243.574626 
L 84.607584 -243.68097 
L 84.454494 -243.766568 
L 84.301404 -243.830797 
L 84.148314 -243.873092 
L 83.995223 -243.892951 
L 83.842133 -243.889942 
L 83.689043 -243.863695 
L 83.535953 -243.813916 
L 83.382863 -243.740378 
L 83.229772 -243.64293 
L 83.076682 -243.521494 
L 82.923592 -243.376066 
L 82.770502 -243.206717 
L 82.617412 -243.013592 
L 82.464321 -242.796909 
L 82.311231 -242.556961 
L 82.158141 -242.29411 
L 82.005051 -242.00879 
L 81.851961 -241.701502 
L 81.69887 -241.372813 
L 81.54578 -241.023351 
L 81.39269 -240.653806 
L 81.2396 -240.264925 
L 81.086509 -239.857508 
L 80.933419 -239.432404 
L 80.780329 -238.990509 
L 80.627239 -238.53276 
L 80.474149 -238.060131 
L 80.321058 -237.573632 
L 80.167968 -237.074298 
L 80.014878 -236.563192 
L 79.861788 -236.041394 
L 79.708698 -235.509999 
L 79.555607 -234.970116 
L 79.402517 -234.422856 
L 79.249427 -233.869334 
L 79.096337 -233.31066 
L 78.943247 -232.747939 
L 78.790156 -232.182264 
L 78.637066 -231.614711 
L 78.483976 -231.046338 
L 78.330886 -230.478182 
L 78.177795 -229.911249 
L 78.024705 -229.34652 
L 77.871615 -228.784941 
L 77.718525 -228.227423 
L 77.565435 -227.674839 
L 77.412344 -227.128023 
L 77.259254 -226.587767 
L 77.106164 -226.054817 
L 76.953074 -225.529875 
L 76.799984 -225.013599 
L 76.646893 -224.506595 
L 76.493803 -224.009426 
L 76.340713 -223.522604 
L 76.187623 -223.046593 
L 76.034532 -222.581808 
L 75.881442 -222.128617 
L 75.728352 -221.687342 
L 75.575262 -221.258254 
L 75.422172 -220.841583 
L 75.269081 -220.437512 
L 75.115991 -220.04618 
L 74.962901 -219.667686 
L 74.809811 -219.302089 
L 74.656721 -218.949406 
L 74.50363 -218.609622 
L 74.35054 -218.282683 
L 74.19745 -217.968505 
L 74.04436 -217.66697 
L 73.89127 -217.377936 
L 73.738179 -217.101228 
L 73.585089 -216.836652 
L 73.431999 -216.583988 
L 73.278909 -216.342997 
L 73.125818 -216.113422 
L 72.972728 -215.894987 
L 72.819638 -215.687404 
L 72.666548 -215.490374 
L 72.513458 -215.303584 
L 72.360367 -215.126715 
L 72.207277 -214.959439 
L 72.054187 -214.801425 
L 71.901097 -214.652336 
L 71.748007 -214.511835 
L 71.594916 -214.379583 
L 71.441826 -214.255241 
L 71.288736 -214.138474 
L 71.135646 -214.028948 
L 70.982556 -213.926334 
L 70.829465 -213.830306 
L 70.676375 -213.740546 
L 70.523285 -213.656742 
L 70.370195 -213.578588 
L 70.217104 -213.505788 
L 70.064014 -213.438052 
L 69.910924 -213.375101 
L 69.757834 -213.316662 
L 69.604744 -213.262474 
L 69.451653 -213.212285 
L 69.298563 -213.165853 
L 69.145473 -213.122945 
L 68.992383 -213.083338 
L 68.839293 -213.04682 
L 68.686202 -213.013187 
L 68.533112 -212.982247 
L 68.380022 -212.953815 
L 68.226932 -212.927718 
z
" id="mbeed4febcd" style="stroke:#ff8a48;"/>
    </defs>
    <g clip-path="url(#p9e7a3ee6f1)">
     <use style="fill:#ff8a48;fill-opacity:0.25;stroke:#ff8a48;" x="0" xlink:href="#mbeed4febcd" y="279.654063"/>
    </g>
   </g>
   <g id="patch_7">
    <path clip-path="url(#p9e7a3ee6f1)" d="M 32.222222 66.983333 
L 32.222222 34.2 
L 75.266667 34.2 
L 75.266667 66.983333 
z
" style="fill:#c4c4c4;opacity:0.25;"/>
   </g>
   <g id="matplotlib.axis_3">
    <g id="xtick_9">
     <g id="line2d_11">
      <g>
       <use style="stroke:#000000;stroke-width:0.8;" x="32.222222" xlink:href="#mfe2889dbbd" y="66.983333"/>
      </g>
     </g>
    </g>
    <g id="xtick_10">
     <g id="line2d_12">
      <g>
       <use style="stroke:#000000;stroke-width:0.8;" x="75.266667" xlink:href="#mfe2889dbbd" y="66.983333"/>
      </g>
     </g>
    </g>
    <g id="xtick_11">
     <g id="line2d_13">
      <g>
       <use style="stroke:#000000;stroke-width:0.8;" x="118.311111" xlink:href="#mfe2889dbbd" y="66.983333"/>
      </g>
     </g>
    </g>
    <g id="xtick_12">
     <g id="line2d_14">
      <g>
       <use style="stroke:#000000;stroke-width:0.8;" x="161.355556" xlink:href="#mfe2889dbbd" y="66.983333"/>
      </g>
     </g>
    </g>
    <g id="xtick_13">
     <g id="line2d_15">
      <g>
       <use style="stroke:#000000;stroke-width:0.8;" x="204.4" xlink:href="#mfe2889dbbd" y="66.983333"/>
      </g>
     </g>
    </g>
    <g id="xtick_14">
     <g id="line2d_16">
      <g>
       <use style="stroke:#000000;stroke-width:0.8;" x="247.444444" xlink:href="#mfe2889dbbd" y="66.983333"/>
      </g>
     </g>
    </g>
    <g id="xtick_15">
     <g id="line2d_17">
      <g>
       <use style="stroke:#000000;stroke-width:0.8;" x="290.488889" xlink:href="#mfe2889dbbd" y="66.983333"/>
      </g>
     </g>
    </g>
    <g id="xtick_16">
     <g id="line2d_18">
      <g>
       <use style="stroke:#000000;stroke-width:0.8;" x="333.533333" xlink:href="#mfe2889dbbd" y="66.983333"/>
      </g>
     </g>
    </g>
    <g id="text_19">
     <text style="font-family:DejaVu Sans;font-size:10px;font-stretch:normal;font-style:normal;font-weight:normal;text-anchor:end;" transform="rotate(-0, 333.533333, 77.581771)" x="333.533333" y="77.581771">1e−5</text>
    </g>
   </g>
   <g id="matplotlib.axis_4">
    <g id="ytick_1"/>
    <g id="ytick_2"/>
   </g>
   <g id="line2d_19">
    <path clip-path="url(#p9e7a3ee6f1)" d="M 32.222222 66.983333 
L 32.222222 34.2 
" style="fill:none;stroke:#000000;stroke-dasharray:1.85,0.8;stroke-dashoffset:0;stroke-width:0.5;"/>
   </g>
   <g id="line2d_20">
    <path clip-path="url(#p9e7a3ee6f1)" d="M 75.266667 66.983333 
L 75.266667 34.2 
" style="fill:none;stroke:#000000;stroke-dasharray:1.85,0.8;stroke-dashoffset:0;stroke-width:0.5;"/>
   </g>
   <g id="patch_8">
    <path d="M 10.7 66.983333 
L 333.533333 66.983333 
" style="fill:none;stroke:#000000;stroke-linecap:square;stroke-linejoin:miter;stroke-width:0.8;"/>
   </g>
  </g>
  <g id="axes_3">
   <g id="patch_9">
    <path d="M 333.533333 230.9 
L 398.1 230.9 
L 398.1 66.983333 
L 333.533333 66.983333 
z
" style="fill:#ffffff;"/>
   </g>
   <g id="matplotlib.axis_5">
    <g id="xtick_17"/>
    <g id="xtick_18"/>
    <g id="xtick_19"/>
   </g>
   <g id="matplotlib.axis_6"/>
   <g id="patch_10">
    <path d="M 333.533333 230.9 
L 333.533333 66.983333 
" style="fill:none;stroke:#000000;stroke-linecap:square;stroke-linejoin:miter;stroke-width:0.8;"/>
   </g>
  </g>
  <g id="text_20">
   <text style="font-family:DejaVu Sans;font-size:12px;font-stretch:normal;font-style:normal;font-weight:bold;text-anchor:middle;" transform="rotate(-0, 171.3, 16.318125)" x="171.3" y="16.318125">1.ANT</text>
  </g>
 </g>
 <defs>
  <clipPath id="pe33799350e">
   <rect height="163.916667" width="322.833333" x="10.7" y="66.983333"/>
  </clipPath>
  <clipPath id="p9e7a3ee6f1">
   <rect height="32.783333" width="322.833333" x="10.7" y="34.2"/>
  </clipPath>
 </defs>
</svg>
