<?xml version="1.0" encoding="utf-8" standalone="no"?>
<!DOCTYPE svg PUBLIC "-//W3C//DTD SVG 1.1//EN"
  "http://www.w3.org/Graphics/SVG/1.1/DTD/svg11.dtd">
<!-- Created with matplotlib (https://matplotlib.org/) -->
<svg height="397.232187pt" version="1.1" viewBox="0 0 416.004687 397.232187" width="416.004687pt" xmlns="http://www.w3.org/2000/svg" xmlns:xlink="http://www.w3.org/1999/xlink">
 <metadata>
  <rdf:RDF xmlns:cc="http://creativecommons.org/ns#" xmlns:dc="http://purl.org/dc/elements/1.1/" xmlns:rdf="http://www.w3.org/1999/02/22-rdf-syntax-ns#">
   <cc:Work>
    <dc:type rdf:resource="http://purl.org/dc/dcmitype/StillImage"/>
    <dc:date>2021-09-17T15:06:10.376965</dc:date>
    <dc:format>image/svg+xml</dc:format>
    <dc:creator>
     <cc:Agent>
      <dc:title>Matplotlib v3.3.2, https://matplotlib.org/</dc:title>
     </cc:Agent>
    </dc:creator>
   </cc:Work>
  </rdf:RDF>
 </metadata>
 <defs>
  <style type="text/css">*{stroke-linecap:butt;stroke-linejoin:round;}</style>
 </defs>
 <g id="figure_1">
  <g id="patch_1">
   <path d="M 0 397.232187 
L 416.004687 397.232187 
L 416.004687 0 
L 0 0 
z
" style="fill:#ffffff;"/>
  </g>
  <g id="axes_1">
   <g id="patch_2">
    <path d="M 66.053125 170.57267 
L 400.853125 170.57267 
L 400.853125 22.318125 
L 66.053125 22.318125 
z
" style="fill:#ffffff;"/>
   </g>
   <g id="PolyCollection_1">
    <defs>
     <path d="M 78.930048 -228.078068 
L 78.930048 -226.659517 
L 80.168407 -226.659517 
L 81.406766 -226.659517 
L 82.645125 -226.659517 
L 83.883483 -226.659517 
L 85.121842 -226.659517 
L 86.360201 -226.659517 
L 87.59856 -226.659517 
L 88.836919 -226.659517 
L 90.075277 -226.659517 
L 91.313636 -226.659517 
L 92.551995 -226.659517 
L 93.790354 -226.659517 
L 95.028713 -226.659517 
L 96.267071 -226.659517 
L 97.50543 -226.659517 
L 98.743789 -226.659517 
L 99.982148 -226.659517 
L 101.220507 -226.659517 
L 102.458865 -226.659517 
L 103.697224 -226.659517 
L 104.935583 -226.659517 
L 106.173942 -226.659517 
L 107.412301 -226.659517 
L 108.65066 -226.659517 
L 109.889018 -226.659517 
L 111.127377 -226.659517 
L 112.365736 -226.659517 
L 113.604095 -226.659517 
L 114.842454 -226.659517 
L 116.080812 -226.659517 
L 117.319171 -226.659517 
L 118.55753 -226.659517 
L 119.795889 -226.659517 
L 121.034248 -226.659517 
L 122.272606 -226.659517 
L 123.510965 -226.659517 
L 124.749324 -226.659517 
L 125.987683 -226.659517 
L 127.226042 -226.659517 
L 128.4644 -226.659517 
L 129.702759 -226.659517 
L 130.941118 -226.659517 
L 132.179477 -226.659517 
L 133.417836 -226.659517 
L 134.656195 -226.659517 
L 135.894553 -226.659517 
L 137.132912 -226.659517 
L 138.371271 -226.659517 
L 139.60963 -226.659517 
L 140.847989 -226.659517 
L 142.086347 -226.659517 
L 143.324706 -226.659517 
L 144.563065 -226.659517 
L 145.801424 -226.659517 
L 147.039783 -226.659517 
L 148.278141 -226.659517 
L 149.5165 -226.659517 
L 150.754859 -226.659517 
L 151.993218 -226.659517 
L 153.231577 -226.659517 
L 154.469935 -226.659517 
L 155.708294 -226.659517 
L 156.946653 -226.659517 
L 158.185012 -226.659517 
L 159.423371 -226.659517 
L 160.661729 -226.659517 
L 161.900088 -226.659517 
L 163.138447 -226.659517 
L 164.376806 -226.659517 
L 165.615165 -226.659517 
L 166.853524 -226.659517 
L 168.091882 -226.659517 
L 169.330241 -226.659517 
L 170.5686 -226.659517 
L 171.806959 -226.659517 
L 173.045318 -226.659517 
L 174.283676 -226.659517 
L 175.522035 -226.659517 
L 176.760394 -226.659517 
L 177.998753 -226.659517 
L 179.237112 -226.659517 
L 180.47547 -226.659517 
L 181.713829 -226.659517 
L 182.952188 -226.659517 
L 184.190547 -226.659517 
L 185.428906 -226.659517 
L 186.667264 -226.659517 
L 187.905623 -226.659517 
L 189.143982 -226.659517 
L 190.382341 -226.659517 
L 191.6207 -226.659517 
L 192.859059 -226.659517 
L 194.097417 -226.659517 
L 195.335776 -226.659517 
L 196.574135 -226.659517 
L 197.812494 -226.659517 
L 199.050853 -226.659517 
L 200.289211 -226.659517 
L 201.52757 -226.659517 
L 202.765929 -226.659517 
L 204.004288 -226.659517 
L 205.242647 -226.659517 
L 206.481005 -226.659517 
L 207.719364 -226.659517 
L 208.957723 -226.659517 
L 210.196082 -226.659517 
L 211.434441 -226.659517 
L 212.672799 -226.659517 
L 213.911158 -226.659517 
L 215.149517 -226.659517 
L 216.387876 -226.659517 
L 217.626235 -226.659517 
L 218.864594 -226.659517 
L 220.102952 -226.659517 
L 221.341311 -226.659517 
L 222.57967 -226.659517 
L 223.818029 -226.659517 
L 225.056388 -226.659517 
L 226.294746 -226.659517 
L 227.533105 -226.659517 
L 228.771464 -226.659517 
L 230.009823 -226.659517 
L 231.248182 -226.659517 
L 232.48654 -226.659517 
L 233.724899 -226.659517 
L 234.963258 -226.659517 
L 236.201617 -226.659517 
L 237.439976 -226.659517 
L 238.678334 -226.659517 
L 239.916693 -226.659517 
L 241.155052 -226.659517 
L 242.393411 -226.659517 
L 243.63177 -226.659517 
L 244.870129 -226.659517 
L 246.108487 -226.659517 
L 247.346846 -226.659517 
L 248.585205 -226.659517 
L 249.823564 -226.659517 
L 251.061923 -226.659517 
L 252.300281 -226.659517 
L 253.53864 -226.659517 
L 254.776999 -226.659517 
L 256.015358 -226.659517 
L 257.253717 -226.659517 
L 258.492075 -226.659517 
L 259.730434 -226.659517 
L 260.968793 -226.659517 
L 262.207152 -226.659517 
L 263.445511 -226.659517 
L 264.683869 -226.659517 
L 265.922228 -226.659517 
L 267.160587 -226.659517 
L 268.398946 -226.659517 
L 269.637305 -226.659517 
L 270.875664 -226.659517 
L 272.114022 -226.659517 
L 273.352381 -226.659517 
L 274.59074 -226.659517 
L 275.829099 -226.659517 
L 277.067458 -226.659517 
L 278.305816 -226.659517 
L 279.544175 -226.659517 
L 280.782534 -226.659517 
L 282.020893 -226.659517 
L 283.259252 -226.659517 
L 284.49761 -226.659517 
L 285.735969 -226.659517 
L 286.974328 -226.659517 
L 288.212687 -226.659517 
L 289.451046 -226.659517 
L 290.689404 -226.659517 
L 291.927763 -226.659517 
L 293.166122 -226.659517 
L 294.404481 -226.659517 
L 295.64284 -226.659517 
L 296.881199 -226.659517 
L 298.119557 -226.659517 
L 299.357916 -226.659517 
L 300.596275 -226.659517 
L 301.834634 -226.659517 
L 303.072993 -226.659517 
L 304.311351 -226.659517 
L 305.54971 -226.659517 
L 306.788069 -226.659517 
L 308.026428 -226.659517 
L 309.264787 -226.659517 
L 310.503145 -226.659517 
L 311.741504 -226.659517 
L 312.979863 -226.659517 
L 314.218222 -226.659517 
L 315.456581 -226.659517 
L 316.694939 -226.659517 
L 317.933298 -226.659517 
L 319.171657 -226.659517 
L 320.410016 -226.659517 
L 321.648375 -226.659517 
L 322.886734 -226.659517 
L 324.125092 -226.659517 
L 325.363451 -226.659517 
L 325.363451 -254.213374 
L 325.363451 -254.213374 
L 324.125092 -255.232837 
L 322.886734 -256.242239 
L 321.648375 -257.239092 
L 320.410016 -258.220995 
L 319.171657 -259.18566 
L 317.933298 -260.130923 
L 316.694939 -261.05477 
L 315.456581 -261.955358 
L 314.218222 -262.831038 
L 312.979863 -263.680383 
L 311.741504 -264.502217 
L 310.503145 -265.295641 
L 309.264787 -266.06007 
L 308.026428 -266.795264 
L 306.788069 -267.501365 
L 305.54971 -268.178931 
L 304.311351 -268.828977 
L 303.072993 -269.453004 
L 301.834634 -270.053038 
L 300.596275 -270.63166 
L 299.357916 -271.192034 
L 298.119557 -271.737928 
L 296.881199 -272.273734 
L 295.64284 -272.804472 
L 294.404481 -273.335795 
L 293.166122 -273.873975 
L 291.927763 -274.425884 
L 290.689404 -274.998962 
L 289.451046 -275.601172 
L 288.212687 -276.240937 
L 286.974328 -276.927073 
L 285.735969 -277.668701 
L 284.49761 -278.475145 
L 283.259252 -279.355826 
L 282.020893 -280.320134 
L 280.782534 -281.377294 
L 279.544175 -282.536224 
L 278.305816 -283.805383 
L 277.067458 -285.192611 
L 275.829099 -286.704975 
L 274.59074 -288.348604 
L 273.352381 -290.128536 
L 272.114022 -292.048556 
L 270.875664 -294.11106 
L 269.637305 -296.316912 
L 268.398946 -298.66533 
L 267.160587 -301.153775 
L 265.922228 -303.777868 
L 264.683869 -306.531327 
L 263.445511 -309.405924 
L 262.207152 -312.391472 
L 260.968793 -315.475837 
L 259.730434 -318.644979 
L 258.492075 -321.883024 
L 257.253717 -325.172358 
L 256.015358 -328.493759 
L 254.776999 -331.826554 
L 253.53864 -335.148798 
L 252.300281 -338.437483 
L 251.061923 -341.668769 
L 249.823564 -344.818232 
L 248.585205 -347.861131 
L 247.346846 -350.772684 
L 246.108487 -353.528353 
L 244.870129 -356.10414 
L 243.63177 -358.476872 
L 242.393411 -360.624487 
L 241.155052 -362.526312 
L 239.916693 -364.163321 
L 238.678334 -365.518383 
L 237.439976 -366.576476 
L 236.201617 -367.324889 
L 234.963258 -367.753383 
L 233.724899 -367.854322 
L 232.48654 -367.622778 
L 231.248182 -367.056587 
L 230.009823 -366.156378 
L 228.771464 -364.925558 
L 227.533105 -363.370267 
L 226.294746 -361.49929 
L 225.056388 -359.323938 
L 223.818029 -356.857896 
L 222.57967 -354.117044 
L 221.341311 -351.119252 
L 220.102952 -347.884145 
L 218.864594 -344.432863 
L 217.626235 -340.787797 
L 216.387876 -336.972317 
L 215.149517 -333.010502 
L 213.911158 -328.926858 
L 212.672799 -324.746052 
L 211.434441 -320.492644 
L 210.196082 -316.190834 
L 208.957723 -311.864228 
L 207.719364 -307.535619 
L 206.481005 -303.226785 
L 205.242647 -298.958317 
L 204.004288 -294.749465 
L 202.765929 -290.618017 
L 201.52757 -286.580197 
L 200.289211 -282.650591 
L 199.050853 -278.842102 
L 197.812494 -275.165926 
L 196.574135 -271.631554 
L 195.335776 -268.246794 
L 194.097417 -265.017816 
L 192.859059 -261.949216 
L 191.6207 -259.044087 
L 190.382341 -256.304115 
L 189.143982 -253.72968 
L 187.905623 -251.319967 
L 186.667264 -249.073079 
L 185.428906 -246.986161 
L 184.190547 -245.05552 
L 182.952188 -243.276747 
L 181.713829 -241.644832 
L 180.47547 -240.154284 
L 179.237112 -238.799234 
L 177.998753 -237.573539 
L 176.760394 -236.470878 
L 175.522035 -235.484833 
L 174.283676 -234.608968 
L 173.045318 -233.836892 
L 171.806959 -233.162319 
L 170.5686 -232.579114 
L 169.330241 -232.081328 
L 168.091882 -231.663228 
L 166.853524 -231.319318 
L 165.615165 -231.044349 
L 164.376806 -230.833324 
L 163.138447 -230.681497 
L 161.900088 -230.584364 
L 160.661729 -230.537654 
L 159.423371 -230.537309 
L 158.185012 -230.579471 
L 156.946653 -230.660454 
L 155.708294 -230.77673 
L 154.469935 -230.924899 
L 153.231577 -231.101677 
L 151.993218 -231.303864 
L 150.754859 -231.528335 
L 149.5165 -231.772019 
L 148.278141 -232.031888 
L 147.039783 -232.304943 
L 145.801424 -232.58821 
L 144.563065 -232.878736 
L 143.324706 -233.17359 
L 142.086347 -233.469865 
L 140.847989 -233.764687 
L 139.60963 -234.055227 
L 138.371271 -234.33871 
L 137.132912 -234.612438 
L 135.894553 -234.873801 
L 134.656195 -235.120304 
L 133.417836 -235.349583 
L 132.179477 -235.559429 
L 130.941118 -235.747808 
L 129.702759 -235.912884 
L 128.4644 -236.053035 
L 127.226042 -236.166873 
L 125.987683 -236.253261 
L 124.749324 -236.311321 
L 123.510965 -236.340448 
L 122.272606 -236.34031 
L 121.034248 -236.310859 
L 119.795889 -236.252321 
L 118.55753 -236.165195 
L 117.319171 -236.050243 
L 116.080812 -235.908478 
L 114.842454 -235.741144 
L 113.604095 -235.549703 
L 112.365736 -235.335806 
L 111.127377 -235.101275 
L 109.889018 -234.848071 
L 108.65066 -234.578269 
L 107.412301 -234.294031 
L 106.173942 -233.997571 
L 104.935583 -233.691135 
L 103.697224 -233.376967 
L 102.458865 -233.057282 
L 101.220507 -232.734244 
L 99.982148 -232.409942 
L 98.743789 -232.086365 
L 97.50543 -231.765389 
L 96.267071 -231.448758 
L 95.028713 -231.138074 
L 93.790354 -230.834781 
L 92.551995 -230.540166 
L 91.313636 -230.255347 
L 90.075277 -229.98128 
L 88.836919 -229.718749 
L 87.59856 -229.468382 
L 86.360201 -229.230645 
L 85.121842 -229.005858 
L 83.883483 -228.794198 
L 82.645125 -228.595713 
L 81.406766 -228.410331 
L 80.168407 -228.237874 
L 78.930048 -228.078068 
z
" id="m67e02dd90e" style="stroke:#0cc1e8;"/>
    </defs>
    <g clip-path="url(#p967978a261)">
     <use style="fill:#0cc1e8;fill-opacity:0.25;stroke:#0cc1e8;" x="0" xlink:href="#m67e02dd90e" y="397.232187"/>
    </g>
   </g>
   <g id="matplotlib.axis_1">
    <g id="xtick_1">
     <g id="line2d_1">
      <defs>
       <path d="M 0 0 
L 0 3.5 
" id="mf6b8c5d88f" style="stroke:#000000;stroke-width:0.8;"/>
      </defs>
      <g>
       <use style="stroke:#000000;stroke-width:0.8;" x="78.930048" xlink:href="#mf6b8c5d88f" y="170.57267"/>
      </g>
     </g>
    </g>
    <g id="xtick_2">
     <g id="line2d_2">
      <g>
       <use style="stroke:#000000;stroke-width:0.8;" x="143.314663" xlink:href="#mf6b8c5d88f" y="170.57267"/>
      </g>
     </g>
    </g>
    <g id="xtick_3">
     <g id="line2d_3">
      <g>
       <use style="stroke:#000000;stroke-width:0.8;" x="207.699279" xlink:href="#mf6b8c5d88f" y="170.57267"/>
      </g>
     </g>
    </g>
    <g id="xtick_4">
     <g id="line2d_4">
      <g>
       <use style="stroke:#000000;stroke-width:0.8;" x="272.083894" xlink:href="#mf6b8c5d88f" y="170.57267"/>
      </g>
     </g>
    </g>
    <g id="xtick_5">
     <g id="line2d_5">
      <g>
       <use style="stroke:#000000;stroke-width:0.8;" x="336.46851" xlink:href="#mf6b8c5d88f" y="170.57267"/>
      </g>
     </g>
    </g>
    <g id="xtick_6">
     <g id="line2d_6">
      <g>
       <use style="stroke:#000000;stroke-width:0.8;" x="400.853125" xlink:href="#mf6b8c5d88f" y="170.57267"/>
      </g>
     </g>
    </g>
   </g>
   <g id="matplotlib.axis_2">
    <g id="ytick_1">
     <g id="line2d_7">
      <defs>
       <path d="M 0 0 
L -3.5 0 
" id="me169324baf" style="stroke:#000000;stroke-width:0.8;"/>
      </defs>
      <g>
       <use style="stroke:#000000;stroke-width:0.8;" x="66.053125" xlink:href="#me169324baf" y="170.57267"/>
      </g>
     </g>
     <g id="text_1">
      <text style="font-family:DejaVu Sans;font-size:10px;font-stretch:normal;font-style:normal;font-weight:normal;text-anchor:end;" transform="rotate(-0, 59.053125, 174.371889)" x="59.053125" y="174.371889">0</text>
     </g>
    </g>
    <g id="ytick_2">
     <g id="line2d_8">
      <g>
       <use style="stroke:#000000;stroke-width:0.8;" x="66.053125" xlink:href="#me169324baf" y="147.339758"/>
      </g>
     </g>
     <g id="text_2">
      <text style="font-family:DejaVu Sans;font-size:10px;font-stretch:normal;font-style:normal;font-weight:normal;text-anchor:end;" transform="rotate(-0, 59.053125, 151.138977)" x="59.053125" y="151.138977">25000</text>
     </g>
    </g>
    <g id="ytick_3">
     <g id="line2d_9">
      <g>
       <use style="stroke:#000000;stroke-width:0.8;" x="66.053125" xlink:href="#me169324baf" y="124.106845"/>
      </g>
     </g>
     <g id="text_3">
      <text style="font-family:DejaVu Sans;font-size:10px;font-stretch:normal;font-style:normal;font-weight:normal;text-anchor:end;" transform="rotate(-0, 59.053125, 127.906064)" x="59.053125" y="127.906064">50000</text>
     </g>
    </g>
    <g id="ytick_4">
     <g id="line2d_10">
      <g>
       <use style="stroke:#000000;stroke-width:0.8;" x="66.053125" xlink:href="#me169324baf" y="100.873933"/>
      </g>
     </g>
     <g id="text_4">
      <text style="font-family:DejaVu Sans;font-size:10px;font-stretch:normal;font-style:normal;font-weight:normal;text-anchor:end;" transform="rotate(-0, 59.053125, 104.673151)" x="59.053125" y="104.673151">75000</text>
     </g>
    </g>
    <g id="ytick_5">
     <g id="line2d_11">
      <g>
       <use style="stroke:#000000;stroke-width:0.8;" x="66.053125" xlink:href="#me169324baf" y="77.64102"/>
      </g>
     </g>
     <g id="text_5">
      <text style="font-family:DejaVu Sans;font-size:10px;font-stretch:normal;font-style:normal;font-weight:normal;text-anchor:end;" transform="rotate(-0, 59.053125, 81.440239)" x="59.053125" y="81.440239">100000</text>
     </g>
    </g>
    <g id="ytick_6">
     <g id="line2d_12">
      <g>
       <use style="stroke:#000000;stroke-width:0.8;" x="66.053125" xlink:href="#me169324baf" y="54.408107"/>
      </g>
     </g>
     <g id="text_6">
      <text style="font-family:DejaVu Sans;font-size:10px;font-stretch:normal;font-style:normal;font-weight:normal;text-anchor:end;" transform="rotate(-0, 59.053125, 58.207326)" x="59.053125" y="58.207326">125000</text>
     </g>
    </g>
    <g id="ytick_7">
     <g id="line2d_13">
      <g>
       <use style="stroke:#000000;stroke-width:0.8;" x="66.053125" xlink:href="#me169324baf" y="31.175195"/>
      </g>
     </g>
     <g id="text_7">
      <text style="font-family:DejaVu Sans;font-size:10px;font-stretch:normal;font-style:normal;font-weight:normal;text-anchor:end;" transform="rotate(-0, 59.053125, 34.974413)" x="59.053125" y="34.974413">150000</text>
     </g>
    </g>
    <g id="text_8">
     <text style="font-family:DejaVu Sans;font-size:10px;font-stretch:normal;font-style:normal;font-weight:normal;text-anchor:middle;" transform="rotate(-90, 14.798438, 96.445398)" x="14.798438" y="96.445398">Density</text>
    </g>
   </g>
   <g id="patch_3">
    <path d="M 66.053125 170.57267 
L 66.053125 22.318125 
" style="fill:none;stroke:#000000;stroke-linecap:square;stroke-linejoin:miter;stroke-width:0.8;"/>
   </g>
   <g id="patch_4">
    <path d="M 400.853125 170.57267 
L 400.853125 22.318125 
" style="fill:none;stroke:#000000;stroke-linecap:square;stroke-linejoin:miter;stroke-width:0.8;"/>
   </g>
   <g id="patch_5">
    <path d="M 66.053125 170.57267 
L 400.853125 170.57267 
" style="fill:none;stroke:#000000;stroke-linecap:square;stroke-linejoin:miter;stroke-width:0.8;"/>
   </g>
   <g id="patch_6">
    <path d="M 66.053125 22.318125 
L 400.853125 22.318125 
" style="fill:none;stroke:#000000;stroke-linecap:square;stroke-linejoin:miter;stroke-width:0.8;"/>
   </g>
   <g id="text_9">
    <text style="font-family:DejaVu Sans;font-size:12px;font-stretch:normal;font-style:normal;font-weight:normal;text-anchor:middle;" transform="rotate(-0, 233.453125, 16.318125)" x="233.453125" y="16.318125">0.ANT4</text>
   </g>
  </g>
  <g id="axes_2">
   <g id="patch_7">
    <path d="M 66.053125 348.478125 
L 400.853125 348.478125 
L 400.853125 200.22358 
L 66.053125 200.22358 
z
" style="fill:#ffffff;"/>
   </g>
   <g id="matplotlib.axis_3">
    <g id="xtick_7">
     <g id="line2d_14">
      <g>
       <use style="stroke:#000000;stroke-width:0.8;" x="78.930048" xlink:href="#mf6b8c5d88f" y="348.478125"/>
      </g>
     </g>
     <g id="text_10">
      <text style="font-family:DejaVu Sans;font-size:10px;font-stretch:normal;font-style:normal;font-weight:normal;text-anchor:middle;" transform="rotate(-0, 78.930048, 363.076562)" x="78.930048" y="363.076562">0.0</text>
     </g>
    </g>
    <g id="xtick_8">
     <g id="line2d_15">
      <g>
       <use style="stroke:#000000;stroke-width:0.8;" x="143.314663" xlink:href="#mf6b8c5d88f" y="348.478125"/>
      </g>
     </g>
     <g id="text_11">
      <text style="font-family:DejaVu Sans;font-size:10px;font-stretch:normal;font-style:normal;font-weight:normal;text-anchor:middle;" transform="rotate(-0, 143.314663, 363.076562)" x="143.314663" y="363.076562">0.5</text>
     </g>
    </g>
    <g id="xtick_9">
     <g id="line2d_16">
      <g>
       <use style="stroke:#000000;stroke-width:0.8;" x="207.699279" xlink:href="#mf6b8c5d88f" y="348.478125"/>
      </g>
     </g>
     <g id="text_12">
      <text style="font-family:DejaVu Sans;font-size:10px;font-stretch:normal;font-style:normal;font-weight:normal;text-anchor:middle;" transform="rotate(-0, 207.699279, 363.076562)" x="207.699279" y="363.076562">1.0</text>
     </g>
    </g>
    <g id="xtick_10">
     <g id="line2d_17">
      <g>
       <use style="stroke:#000000;stroke-width:0.8;" x="272.083894" xlink:href="#mf6b8c5d88f" y="348.478125"/>
      </g>
     </g>
     <g id="text_13">
      <text style="font-family:DejaVu Sans;font-size:10px;font-stretch:normal;font-style:normal;font-weight:normal;text-anchor:middle;" transform="rotate(-0, 272.083894, 363.076562)" x="272.083894" y="363.076562">1.5</text>
     </g>
    </g>
    <g id="xtick_11">
     <g id="line2d_18">
      <g>
       <use style="stroke:#000000;stroke-width:0.8;" x="336.46851" xlink:href="#mf6b8c5d88f" y="348.478125"/>
      </g>
     </g>
     <g id="text_14">
      <text style="font-family:DejaVu Sans;font-size:10px;font-stretch:normal;font-style:normal;font-weight:normal;text-anchor:middle;" transform="rotate(-0, 336.46851, 363.076562)" x="336.46851" y="363.076562">2.0</text>
     </g>
    </g>
    <g id="xtick_12">
     <g id="line2d_19">
      <g>
       <use style="stroke:#000000;stroke-width:0.8;" x="400.853125" xlink:href="#mf6b8c5d88f" y="348.478125"/>
      </g>
     </g>
     <g id="text_15">
      <text style="font-family:DejaVu Sans;font-size:10px;font-stretch:normal;font-style:normal;font-weight:normal;text-anchor:middle;" transform="rotate(-0, 400.853125, 363.076562)" x="400.853125" y="363.076562">2.5</text>
     </g>
    </g>
    <g id="text_16">
     <text style="font-family:DejaVu Sans;font-size:10px;font-stretch:normal;font-style:normal;font-weight:normal;" transform="translate(192.064844 376.754687)">Distance to Root</text>
     <text style="font-family:DejaVu Sans;font-size:10px;font-stretch:normal;font-style:normal;font-weight:normal;" transform="translate(185.485156 387.9525)">(Substitutions/Site)</text>
    </g>
    <g id="text_17">
     <text style="font-family:DejaVu Sans;font-size:10px;font-stretch:normal;font-style:normal;font-weight:normal;text-anchor:end;" transform="rotate(-0, 400.853125, 375.754687)" x="400.853125" y="375.754687">1e−5</text>
    </g>
   </g>
   <g id="matplotlib.axis_4">
    <g id="text_18">
     <text style="font-family:DejaVu Sans;font-size:10px;font-stretch:normal;font-style:normal;font-weight:normal;text-anchor:middle;" transform="rotate(-90, 59.973438, 274.350852)" x="59.973438" y="274.350852">Taxa</text>
    </g>
   </g>
   <g id="LineCollection_1">
    <path clip-path="url(#p419a0e6d83)" d="M 78.930048 310.124493 
L 78.930048 310.124493 
" style="fill:none;stroke:#0cc1e8;"/>
   </g>
   <g id="LineCollection_2">
    <path clip-path="url(#p419a0e6d83)" d="M 78.930048 291.969562 
L 217.774183 291.969562 
" style="fill:none;stroke:#0cc1e8;"/>
   </g>
   <g id="LineCollection_3">
    <path clip-path="url(#p419a0e6d83)" d="M 217.774183 272.818791 
L 228.057694 272.818791 
" style="fill:none;stroke:#0cc1e8;"/>
   </g>
   <g id="LineCollection_4">
    <path clip-path="url(#p419a0e6d83)" d="M 228.057694 256.578937 
L 232.963802 256.578937 
" style="fill:none;stroke:#0cc1e8;"/>
   </g>
   <g id="LineCollection_5">
    <path clip-path="url(#p419a0e6d83)" d="M 232.963802 241.25832 
L 235.997605 241.25832 
" style="fill:none;stroke:#0cc1e8;"/>
   </g>
   <g id="LineCollection_6">
    <path clip-path="url(#p419a0e6d83)" d="M 235.997605 232.678774 
L 236.642739 232.678774 
" style="fill:none;stroke:#0cc1e8;"/>
   </g>
   <g id="LineCollection_7">
    <path clip-path="url(#p419a0e6d83)" d="M 236.642739 225.324878 
L 237.496479 225.324878 
" style="fill:none;stroke:#0cc1e8;"/>
   </g>
   <g id="LineCollection_8">
    <path clip-path="url(#p419a0e6d83)" d="M 237.496479 220.422281 
L 246.5966 220.422281 
" style="fill:none;stroke:#0cc1e8;"/>
   </g>
   <g id="LineCollection_9">
    <path clip-path="url(#p419a0e6d83)" d="M 237.496479 230.227476 
L 293.701673 230.227476 
" style="fill:none;stroke:#0cc1e8;"/>
   </g>
   <g id="LineCollection_10">
    <path clip-path="url(#p419a0e6d83)" d="M 236.642739 240.03267 
L 236.946634 240.03267 
" style="fill:none;stroke:#0cc1e8;"/>
   </g>
   <g id="LineCollection_11">
    <path clip-path="url(#p419a0e6d83)" d="M 235.997605 249.837865 
L 236.3015 249.837865 
" style="fill:none;stroke:#0cc1e8;"/>
   </g>
   <g id="LineCollection_12">
    <path clip-path="url(#p419a0e6d83)" d="M 232.963802 271.899554 
L 233.267697 271.899554 
" style="fill:none;stroke:#0cc1e8;"/>
   </g>
   <g id="LineCollection_13">
    <path clip-path="url(#p419a0e6d83)" d="M 233.267697 264.545657 
L 287.295403 264.545657 
" style="fill:none;stroke:#0cc1e8;"/>
   </g>
   <g id="LineCollection_14">
    <path clip-path="url(#p419a0e6d83)" d="M 287.295403 259.64306 
L 325.363451 259.64306 
" style="fill:none;stroke:#0cc1e8;"/>
   </g>
   <g id="LineCollection_15">
    <path clip-path="url(#p419a0e6d83)" d="M 287.295403 269.448255 
L 314.595768 269.448255 
" style="fill:none;stroke:#0cc1e8;"/>
   </g>
   <g id="LineCollection_16">
    <path clip-path="url(#p419a0e6d83)" d="M 233.267697 279.25345 
L 291.768847 279.25345 
" style="fill:none;stroke:#0cc1e8;"/>
   </g>
   <g id="LineCollection_17">
    <path clip-path="url(#p419a0e6d83)" d="M 228.057694 289.058644 
L 246.257937 289.058644 
" style="fill:none;stroke:#0cc1e8;"/>
   </g>
   <g id="LineCollection_18">
    <path clip-path="url(#p419a0e6d83)" d="M 217.774183 311.120333 
L 218.078079 311.120333 
" style="fill:none;stroke:#0cc1e8;"/>
   </g>
   <g id="LineCollection_19">
    <path clip-path="url(#p419a0e6d83)" d="M 218.078079 303.766437 
L 226.65926 303.766437 
" style="fill:none;stroke:#0cc1e8;"/>
   </g>
   <g id="LineCollection_20">
    <path clip-path="url(#p419a0e6d83)" d="M 226.65926 298.863839 
L 226.963156 298.863839 
" style="fill:none;stroke:#0cc1e8;"/>
   </g>
   <g id="LineCollection_21">
    <path clip-path="url(#p419a0e6d83)" d="M 226.65926 308.669034 
L 261.805534 308.669034 
" style="fill:none;stroke:#0cc1e8;"/>
   </g>
   <g id="LineCollection_22">
    <path clip-path="url(#p419a0e6d83)" d="M 218.078079 318.474229 
L 224.144397 318.474229 
" style="fill:none;stroke:#0cc1e8;"/>
   </g>
   <g id="LineCollection_23">
    <path clip-path="url(#p419a0e6d83)" d="M 78.930048 328.279424 
L 122.860959 328.279424 
" style="fill:none;stroke:#0cc1e8;"/>
   </g>
   <g id="LineCollection_24">
    <path clip-path="url(#p419a0e6d83)" d="M 78.930048 328.279424 
L 78.930048 291.969562 
" style="fill:none;stroke:#0cc1e8;"/>
   </g>
   <g id="LineCollection_25">
    <path clip-path="url(#p419a0e6d83)" d="M 217.774183 311.120333 
L 217.774183 272.818791 
" style="fill:none;stroke:#0cc1e8;"/>
   </g>
   <g id="LineCollection_26">
    <path clip-path="url(#p419a0e6d83)" d="M 228.057694 289.058644 
L 228.057694 256.578937 
" style="fill:none;stroke:#0cc1e8;"/>
   </g>
   <g id="LineCollection_27">
    <path clip-path="url(#p419a0e6d83)" d="M 232.963802 271.899554 
L 232.963802 241.25832 
" style="fill:none;stroke:#0cc1e8;"/>
   </g>
   <g id="LineCollection_28">
    <path clip-path="url(#p419a0e6d83)" d="M 235.997605 249.837865 
L 235.997605 232.678774 
" style="fill:none;stroke:#0cc1e8;"/>
   </g>
   <g id="LineCollection_29">
    <path clip-path="url(#p419a0e6d83)" d="M 236.642739 240.03267 
L 236.642739 225.324878 
" style="fill:none;stroke:#0cc1e8;"/>
   </g>
   <g id="LineCollection_30">
    <path clip-path="url(#p419a0e6d83)" d="M 237.496479 230.227476 
L 237.496479 220.422281 
" style="fill:none;stroke:#0cc1e8;"/>
   </g>
   <g id="LineCollection_31">
    <path clip-path="url(#p419a0e6d83)" d="M 233.267697 279.25345 
L 233.267697 264.545657 
" style="fill:none;stroke:#0cc1e8;"/>
   </g>
   <g id="LineCollection_32">
    <path clip-path="url(#p419a0e6d83)" d="M 287.295403 269.448255 
L 287.295403 259.64306 
" style="fill:none;stroke:#0cc1e8;"/>
   </g>
   <g id="LineCollection_33">
    <path clip-path="url(#p419a0e6d83)" d="M 218.078079 318.474229 
L 218.078079 303.766437 
" style="fill:none;stroke:#0cc1e8;"/>
   </g>
   <g id="LineCollection_34">
    <path clip-path="url(#p419a0e6d83)" d="M 226.65926 308.669034 
L 226.65926 298.863839 
" style="fill:none;stroke:#0cc1e8;"/>
   </g>
   <g id="PathCollection_1">
    <defs>
     <path d="M 0 1.581139 
C 0.419323 1.581139 0.821528 1.41454 1.118034 1.118034 
C 1.41454 0.821528 1.581139 0.419323 1.581139 0 
C 1.581139 -0.419323 1.41454 -0.821528 1.118034 -1.118034 
C 0.821528 -1.41454 0.419323 -1.581139 0 -1.581139 
C -0.419323 -1.581139 -0.821528 -1.41454 -1.118034 -1.118034 
C -1.41454 -0.821528 -1.581139 -0.419323 -1.581139 0 
C -1.581139 0.419323 -1.41454 0.821528 -1.118034 1.118034 
C -0.821528 1.41454 -0.419323 1.581139 0 1.581139 
z
" id="m89da57034b" style="stroke:#000000;stroke-width:0.252982;"/>
    </defs>
    <g clip-path="url(#p419a0e6d83)">
     <use style="fill:#0cc1e8;stroke:#000000;stroke-width:0.252982;" x="246.5966" xlink:href="#m89da57034b" y="220.422281"/>
     <use style="fill:#0cc1e8;stroke:#000000;stroke-width:0.252982;" x="293.701673" xlink:href="#m89da57034b" y="230.227476"/>
     <use style="fill:#0cc1e8;stroke:#000000;stroke-width:0.252982;" x="236.946634" xlink:href="#m89da57034b" y="240.03267"/>
     <use style="fill:#0cc1e8;stroke:#000000;stroke-width:0.252982;" x="236.3015" xlink:href="#m89da57034b" y="249.837865"/>
     <use style="fill:#0cc1e8;stroke:#000000;stroke-width:0.252982;" x="325.363451" xlink:href="#m89da57034b" y="259.64306"/>
     <use style="fill:#0cc1e8;stroke:#000000;stroke-width:0.252982;" x="314.595768" xlink:href="#m89da57034b" y="269.448255"/>
     <use style="fill:#0cc1e8;stroke:#000000;stroke-width:0.252982;" x="291.768847" xlink:href="#m89da57034b" y="279.25345"/>
     <use style="fill:#0cc1e8;stroke:#000000;stroke-width:0.252982;" x="246.257937" xlink:href="#m89da57034b" y="289.058644"/>
     <use style="fill:#0cc1e8;stroke:#000000;stroke-width:0.252982;" x="226.963156" xlink:href="#m89da57034b" y="298.863839"/>
     <use style="fill:#0cc1e8;stroke:#000000;stroke-width:0.252982;" x="261.805534" xlink:href="#m89da57034b" y="308.669034"/>
     <use style="fill:#0cc1e8;stroke:#000000;stroke-width:0.252982;" x="224.144397" xlink:href="#m89da57034b" y="318.474229"/>
     <use style="fill:#0cc1e8;stroke:#000000;stroke-width:0.252982;" x="122.860959" xlink:href="#m89da57034b" y="328.279424"/>
    </g>
   </g>
   <g id="patch_8">
    <path d="M 66.053125 348.478125 
L 66.053125 200.22358 
" style="fill:none;stroke:#000000;stroke-linecap:square;stroke-linejoin:miter;stroke-width:0.8;"/>
   </g>
   <g id="patch_9">
    <path d="M 400.853125 348.478125 
L 400.853125 200.22358 
" style="fill:none;stroke:#000000;stroke-linecap:square;stroke-linejoin:miter;stroke-width:0.8;"/>
   </g>
   <g id="patch_10">
    <path d="M 66.053125 348.478125 
L 400.853125 348.478125 
" style="fill:none;stroke:#000000;stroke-linecap:square;stroke-linejoin:miter;stroke-width:0.8;"/>
   </g>
   <g id="patch_11">
    <path d="M 66.053125 200.22358 
L 400.853125 200.22358 
" style="fill:none;stroke:#000000;stroke-linecap:square;stroke-linejoin:miter;stroke-width:0.8;"/>
   </g>
   <g id="text_19">
    <text style="font-family:DejaVu Sans;font-size:10px;font-stretch:normal;font-style:normal;font-weight:normal;text-anchor:start;" transform="rotate(-0, 78.930048, 312.883868)" x="78.930048" y="312.883868"> </text>
   </g>
   <g id="text_20">
    <text style="font-family:DejaVu Sans;font-size:10px;font-stretch:normal;font-style:normal;font-weight:normal;text-anchor:start;" transform="rotate(-0, 217.774183, 294.728937)" x="217.774183" y="294.728937"> </text>
   </g>
   <g id="text_21">
    <text style="font-family:DejaVu Sans;font-size:10px;font-stretch:normal;font-style:normal;font-weight:normal;text-anchor:start;" transform="rotate(-0, 228.057694, 275.578166)" x="228.057694" y="275.578166"> </text>
   </g>
   <g id="text_22">
    <text style="font-family:DejaVu Sans;font-size:10px;font-stretch:normal;font-style:normal;font-weight:normal;text-anchor:start;" transform="rotate(-0, 232.963802, 259.338312)" x="232.963802" y="259.338312"> </text>
   </g>
   <g id="text_23">
    <text style="font-family:DejaVu Sans;font-size:10px;font-stretch:normal;font-style:normal;font-weight:normal;text-anchor:start;" transform="rotate(-0, 235.997605, 244.017695)" x="235.997605" y="244.017695"> </text>
   </g>
   <g id="text_24">
    <text style="font-family:DejaVu Sans;font-size:10px;font-stretch:normal;font-style:normal;font-weight:normal;text-anchor:start;" transform="rotate(-0, 236.642739, 235.438149)" x="236.642739" y="235.438149"> </text>
   </g>
   <g id="text_25">
    <text style="font-family:DejaVu Sans;font-size:10px;font-stretch:normal;font-style:normal;font-weight:normal;text-anchor:start;" transform="rotate(-0, 237.496479, 228.084253)" x="237.496479" y="228.084253"> </text>
   </g>
   <g id="text_26">
    <text style="font-family:DejaVu Sans;font-size:10px;font-stretch:normal;font-style:normal;font-weight:normal;text-anchor:start;" transform="rotate(-0, 246.5966, 223.181656)" x="246.5966" y="223.181656"> </text>
   </g>
   <g id="text_27">
    <text style="font-family:DejaVu Sans;font-size:10px;font-stretch:normal;font-style:normal;font-weight:normal;text-anchor:start;" transform="rotate(-0, 293.701673, 232.986851)" x="293.701673" y="232.986851"> </text>
   </g>
   <g id="text_28">
    <text style="font-family:DejaVu Sans;font-size:10px;font-stretch:normal;font-style:normal;font-weight:normal;text-anchor:start;" transform="rotate(-0, 236.946634, 242.792045)" x="236.946634" y="242.792045"> </text>
   </g>
   <g id="text_29">
    <text style="font-family:DejaVu Sans;font-size:10px;font-stretch:normal;font-style:normal;font-weight:normal;text-anchor:start;" transform="rotate(-0, 236.3015, 252.59724)" x="236.3015" y="252.59724"> </text>
   </g>
   <g id="text_30">
    <text style="font-family:DejaVu Sans;font-size:10px;font-stretch:normal;font-style:normal;font-weight:normal;text-anchor:start;" transform="rotate(-0, 233.267697, 274.658929)" x="233.267697" y="274.658929"> </text>
   </g>
   <g id="text_31">
    <text style="font-family:DejaVu Sans;font-size:10px;font-stretch:normal;font-style:normal;font-weight:normal;text-anchor:start;" transform="rotate(-0, 287.295403, 267.305032)" x="287.295403" y="267.305032"> </text>
   </g>
   <g id="text_32">
    <text style="font-family:DejaVu Sans;font-size:10px;font-stretch:normal;font-style:normal;font-weight:normal;text-anchor:start;" transform="rotate(-0, 325.363451, 262.402435)" x="325.363451" y="262.402435"> </text>
   </g>
   <g id="text_33">
    <text style="font-family:DejaVu Sans;font-size:10px;font-stretch:normal;font-style:normal;font-weight:normal;text-anchor:start;" transform="rotate(-0, 314.595768, 272.20763)" x="314.595768" y="272.20763"> </text>
   </g>
   <g id="text_34">
    <text style="font-family:DejaVu Sans;font-size:10px;font-stretch:normal;font-style:normal;font-weight:normal;text-anchor:start;" transform="rotate(-0, 291.768847, 282.012825)" x="291.768847" y="282.012825"> </text>
   </g>
   <g id="text_35">
    <text style="font-family:DejaVu Sans;font-size:10px;font-stretch:normal;font-style:normal;font-weight:normal;text-anchor:start;" transform="rotate(-0, 246.257937, 291.818019)" x="246.257937" y="291.818019"> </text>
   </g>
   <g id="text_36">
    <text style="font-family:DejaVu Sans;font-size:10px;font-stretch:normal;font-style:normal;font-weight:normal;text-anchor:start;" transform="rotate(-0, 218.078079, 313.879708)" x="218.078079" y="313.879708"> </text>
   </g>
   <g id="text_37">
    <text style="font-family:DejaVu Sans;font-size:10px;font-stretch:normal;font-style:normal;font-weight:normal;text-anchor:start;" transform="rotate(-0, 226.65926, 306.525812)" x="226.65926" y="306.525812"> </text>
   </g>
   <g id="text_38">
    <text style="font-family:DejaVu Sans;font-size:10px;font-stretch:normal;font-style:normal;font-weight:normal;text-anchor:start;" transform="rotate(-0, 226.963156, 301.623214)" x="226.963156" y="301.623214"> </text>
   </g>
   <g id="text_39">
    <text style="font-family:DejaVu Sans;font-size:10px;font-stretch:normal;font-style:normal;font-weight:normal;text-anchor:start;" transform="rotate(-0, 261.805534, 311.428409)" x="261.805534" y="311.428409"> </text>
   </g>
   <g id="text_40">
    <text style="font-family:DejaVu Sans;font-size:10px;font-stretch:normal;font-style:normal;font-weight:normal;text-anchor:start;" transform="rotate(-0, 224.144397, 321.233604)" x="224.144397" y="321.233604"> </text>
   </g>
   <g id="text_41">
    <text style="font-family:DejaVu Sans;font-size:10px;font-stretch:normal;font-style:normal;font-weight:normal;text-anchor:start;" transform="rotate(-0, 122.860959, 331.038799)" x="122.860959" y="331.038799"> </text>
   </g>
  </g>
 </g>
 <defs>
  <clipPath id="p967978a261">
   <rect height="148.254545" width="334.8" x="66.053125" y="22.318125"/>
  </clipPath>
  <clipPath id="p419a0e6d83">
   <rect height="148.254545" width="334.8" x="66.053125" y="200.22358"/>
  </clipPath>
 </defs>
</svg>
