<?xml version="1.0" encoding="utf-8" standalone="no"?>
<!DOCTYPE svg PUBLIC "-//W3C//DTD SVG 1.1//EN"
  "http://www.w3.org/Graphics/SVG/1.1/DTD/svg11.dtd">
<!-- Created with matplotlib (https://matplotlib.org/) -->
<svg height="279.654063pt" version="1.1" viewBox="0 0 405.3 279.654063" width="405.3pt" xmlns="http://www.w3.org/2000/svg" xmlns:xlink="http://www.w3.org/1999/xlink">
 <metadata>
  <rdf:RDF xmlns:cc="http://creativecommons.org/ns#" xmlns:dc="http://purl.org/dc/elements/1.1/" xmlns:rdf="http://www.w3.org/1999/02/22-rdf-syntax-ns#">
   <cc:Work>
    <dc:type rdf:resource="http://purl.org/dc/dcmitype/StillImage"/>
    <dc:date>2021-09-17T16:41:14.869298</dc:date>
    <dc:format>image/svg+xml</dc:format>
    <dc:creator>
     <cc:Agent>
      <dc:title>Matplotlib v3.3.2, https://matplotlib.org/</dc:title>
     </cc:Agent>
    </dc:creator>
   </cc:Work>
  </rdf:RDF>
 </metadata>
 <defs>
  <style type="text/css">*{stroke-linecap:butt;stroke-linejoin:round;}</style>
 </defs>
 <g id="figure_1">
  <g id="patch_1">
   <path d="M 0 279.654063 
L 405.3 279.654063 
L 405.3 0 
L 0 0 
z
" style="fill:#ffffff;"/>
  </g>
  <g id="axes_1">
   <g id="patch_2">
    <path d="M 10.7 230.9 
L 333.533333 230.9 
L 333.533333 66.983333 
L 10.7 66.983333 
z
" style="fill:#ffffff;"/>
   </g>
   <g id="patch_3">
    <path clip-path="url(#pf7b0215cc9)" d="M 32.222222 230.9 
L 32.222222 66.983333 
L 75.266667 66.983333 
L 75.266667 230.9 
z
" style="fill:#c4c4c4;opacity:0.25;"/>
   </g>
   <g id="matplotlib.axis_1">
    <g id="xtick_1">
     <g id="line2d_1">
      <defs>
       <path d="M 0 0 
L 0 3.5 
" id="maf6a24670c" style="stroke:#000000;stroke-width:0.8;"/>
      </defs>
      <g>
       <use style="stroke:#000000;stroke-width:0.8;" x="32.222222" xlink:href="#maf6a24670c" y="230.9"/>
      </g>
     </g>
     <g id="text_1">
      <text style="font-family:DejaVu Sans;font-size:10px;font-stretch:normal;font-style:normal;font-weight:normal;text-anchor:middle;" transform="rotate(-0, 32.222222, 245.498438)" x="32.222222" y="245.498438">0</text>
     </g>
    </g>
    <g id="xtick_2">
     <g id="line2d_2">
      <g>
       <use style="stroke:#000000;stroke-width:0.8;" x="75.266667" xlink:href="#maf6a24670c" y="230.9"/>
      </g>
     </g>
     <g id="text_2">
      <text style="font-family:DejaVu Sans;font-size:10px;font-stretch:normal;font-style:normal;font-weight:normal;text-anchor:middle;" transform="rotate(-0, 75.266667, 245.498438)" x="75.266667" y="245.498438">1</text>
     </g>
    </g>
    <g id="xtick_3">
     <g id="line2d_3">
      <g>
       <use style="stroke:#000000;stroke-width:0.8;" x="118.311111" xlink:href="#maf6a24670c" y="230.9"/>
      </g>
     </g>
     <g id="text_3">
      <text style="font-family:DejaVu Sans;font-size:10px;font-stretch:normal;font-style:normal;font-weight:normal;text-anchor:middle;" transform="rotate(-0, 118.311111, 245.498438)" x="118.311111" y="245.498438">2</text>
     </g>
    </g>
    <g id="xtick_4">
     <g id="line2d_4">
      <g>
       <use style="stroke:#000000;stroke-width:0.8;" x="161.355556" xlink:href="#maf6a24670c" y="230.9"/>
      </g>
     </g>
     <g id="text_4">
      <text style="font-family:DejaVu Sans;font-size:10px;font-stretch:normal;font-style:normal;font-weight:normal;text-anchor:middle;" transform="rotate(-0, 161.355556, 245.498438)" x="161.355556" y="245.498438">3</text>
     </g>
    </g>
    <g id="xtick_5">
     <g id="line2d_5">
      <g>
       <use style="stroke:#000000;stroke-width:0.8;" x="204.4" xlink:href="#maf6a24670c" y="230.9"/>
      </g>
     </g>
     <g id="text_5">
      <text style="font-family:DejaVu Sans;font-size:10px;font-stretch:normal;font-style:normal;font-weight:normal;text-anchor:middle;" transform="rotate(-0, 204.4, 245.498438)" x="204.4" y="245.498438">4</text>
     </g>
    </g>
    <g id="xtick_6">
     <g id="line2d_6">
      <g>
       <use style="stroke:#000000;stroke-width:0.8;" x="247.444444" xlink:href="#maf6a24670c" y="230.9"/>
      </g>
     </g>
     <g id="text_6">
      <text style="font-family:DejaVu Sans;font-size:10px;font-stretch:normal;font-style:normal;font-weight:normal;text-anchor:middle;" transform="rotate(-0, 247.444444, 245.498438)" x="247.444444" y="245.498438">5</text>
     </g>
    </g>
    <g id="xtick_7">
     <g id="line2d_7">
      <g>
       <use style="stroke:#000000;stroke-width:0.8;" x="290.488889" xlink:href="#maf6a24670c" y="230.9"/>
      </g>
     </g>
     <g id="text_7">
      <text style="font-family:DejaVu Sans;font-size:10px;font-stretch:normal;font-style:normal;font-weight:normal;text-anchor:middle;" transform="rotate(-0, 290.488889, 245.498438)" x="290.488889" y="245.498438">6</text>
     </g>
    </g>
    <g id="xtick_8">
     <g id="line2d_8">
      <g>
       <use style="stroke:#000000;stroke-width:0.8;" x="333.533333" xlink:href="#maf6a24670c" y="230.9"/>
      </g>
     </g>
     <g id="text_8">
      <text style="font-family:DejaVu Sans;font-size:10px;font-stretch:normal;font-style:normal;font-weight:normal;text-anchor:middle;" transform="rotate(-0, 333.533333, 245.498438)" x="333.533333" y="245.498438">7</text>
     </g>
    </g>
    <g id="text_9">
     <text style="font-family:DejaVu Sans;font-size:10px;font-stretch:normal;font-style:normal;font-weight:normal;" transform="translate(117.811979 259.176562)">Distance to the MRCA</text>
     <text style="font-family:DejaVu Sans;font-size:10px;font-stretch:normal;font-style:normal;font-weight:normal;" transform="translate(124.148698 270.374375)">(Substitutions/Site)</text>
    </g>
    <g id="text_10">
     <text style="font-family:DejaVu Sans;font-size:10px;font-stretch:normal;font-style:normal;font-weight:normal;text-anchor:end;" transform="rotate(-0, 333.533333, 258.176562)" x="333.533333" y="258.176562">1e−5</text>
    </g>
   </g>
   <g id="matplotlib.axis_2"/>
   <g id="LineCollection_1">
    <path clip-path="url(#pf7b0215cc9)" d="M 32.222222 172.308918 
L 32.222222 172.308918 
" style="fill:none;stroke:#3ae8d7;"/>
   </g>
   <g id="LineCollection_2">
    <path clip-path="url(#pf7b0215cc9)" d="M 32.222222 147.101726 
L 49.4598 147.101726 
" style="fill:none;stroke:#3ae8d7;"/>
   </g>
   <g id="LineCollection_3">
    <path clip-path="url(#pf7b0215cc9)" d="M 49.4598 133.486162 
L 52.501751 133.486162 
" style="fill:none;stroke:#3ae8d7;"/>
   </g>
   <g id="LineCollection_4">
    <path clip-path="url(#pf7b0215cc9)" d="M 52.501751 118.030657 
L 55.543702 118.030657 
" style="fill:none;stroke:#3ae8d7;"/>
   </g>
   <g id="LineCollection_5">
    <path clip-path="url(#pf7b0215cc9)" d="M 55.543702 104.783082 
L 56.557829 104.783082 
" style="fill:none;stroke:#3ae8d7;"/>
   </g>
   <g id="LineCollection_6">
    <path clip-path="url(#pf7b0215cc9)" d="M 56.557829 95.951365 
L 58.585653 95.951365 
" style="fill:none;stroke:#3ae8d7;"/>
   </g>
   <g id="LineCollection_7">
    <path clip-path="url(#pf7b0215cc9)" d="M 58.585653 90.063554 
L 60.613477 90.063554 
" style="fill:none;stroke:#3ae8d7;"/>
   </g>
   <g id="LineCollection_8">
    <path clip-path="url(#pf7b0215cc9)" d="M 58.585653 101.839176 
L 63.655428 101.839176 
" style="fill:none;stroke:#3ae8d7;"/>
   </g>
   <g id="LineCollection_9">
    <path clip-path="url(#pf7b0215cc9)" d="M 56.557829 113.614799 
L 72.78128 113.614799 
" style="fill:none;stroke:#3ae8d7;"/>
   </g>
   <g id="LineCollection_10">
    <path clip-path="url(#pf7b0215cc9)" d="M 55.543702 131.278233 
L 67.711506 131.278233 
" style="fill:none;stroke:#3ae8d7;"/>
   </g>
   <g id="LineCollection_11">
    <path clip-path="url(#pf7b0215cc9)" d="M 67.711506 125.390421 
L 71.767584 125.390421 
" style="fill:none;stroke:#3ae8d7;"/>
   </g>
   <g id="LineCollection_12">
    <path clip-path="url(#pf7b0215cc9)" d="M 67.711506 137.166044 
L 67.813091 137.166044 
" style="fill:none;stroke:#3ae8d7;"/>
   </g>
   <g id="LineCollection_13">
    <path clip-path="url(#pf7b0215cc9)" d="M 52.501751 148.941667 
L 61.627604 148.941667 
" style="fill:none;stroke:#3ae8d7;"/>
   </g>
   <g id="LineCollection_14">
    <path clip-path="url(#pf7b0215cc9)" d="M 49.4598 160.717289 
L 60.613477 160.717289 
" style="fill:none;stroke:#3ae8d7;"/>
   </g>
   <g id="LineCollection_15">
    <path clip-path="url(#pf7b0215cc9)" d="M 32.222222 197.51611 
L 33.236349 197.51611 
" style="fill:none;stroke:#3ae8d7;"/>
   </g>
   <g id="LineCollection_16">
    <path clip-path="url(#pf7b0215cc9)" d="M 33.236349 187.21244 
L 44.273806 187.21244 
" style="fill:none;stroke:#3ae8d7;"/>
   </g>
   <g id="LineCollection_17">
    <path clip-path="url(#pf7b0215cc9)" d="M 44.273806 178.380723 
L 45.287933 178.380723 
" style="fill:none;stroke:#3ae8d7;"/>
   </g>
   <g id="LineCollection_18">
    <path clip-path="url(#pf7b0215cc9)" d="M 45.287933 172.492912 
L 49.344011 172.492912 
" style="fill:none;stroke:#3ae8d7;"/>
   </g>
   <g id="LineCollection_19">
    <path clip-path="url(#pf7b0215cc9)" d="M 45.287933 184.268534 
L 49.344011 184.268534 
" style="fill:none;stroke:#3ae8d7;"/>
   </g>
   <g id="LineCollection_20">
    <path clip-path="url(#pf7b0215cc9)" d="M 44.273806 196.044157 
L 49.34358 196.044157 
" style="fill:none;stroke:#3ae8d7;"/>
   </g>
   <g id="LineCollection_21">
    <path clip-path="url(#pf7b0215cc9)" d="M 33.236349 207.81978 
L 44.390026 207.81978 
" style="fill:none;stroke:#3ae8d7;"/>
   </g>
   <g id="LineCollection_22">
    <path clip-path="url(#pf7b0215cc9)" d="M 32.222222 197.51611 
L 32.222222 147.101726 
" style="fill:none;stroke:#3ae8d7;"/>
   </g>
   <g id="LineCollection_23">
    <path clip-path="url(#pf7b0215cc9)" d="M 49.4598 160.717289 
L 49.4598 133.486162 
" style="fill:none;stroke:#3ae8d7;"/>
   </g>
   <g id="LineCollection_24">
    <path clip-path="url(#pf7b0215cc9)" d="M 52.501751 148.941667 
L 52.501751 118.030657 
" style="fill:none;stroke:#3ae8d7;"/>
   </g>
   <g id="LineCollection_25">
    <path clip-path="url(#pf7b0215cc9)" d="M 55.543702 131.278233 
L 55.543702 104.783082 
" style="fill:none;stroke:#3ae8d7;"/>
   </g>
   <g id="LineCollection_26">
    <path clip-path="url(#pf7b0215cc9)" d="M 56.557829 113.614799 
L 56.557829 95.951365 
" style="fill:none;stroke:#3ae8d7;"/>
   </g>
   <g id="LineCollection_27">
    <path clip-path="url(#pf7b0215cc9)" d="M 58.585653 101.839176 
L 58.585653 90.063554 
" style="fill:none;stroke:#3ae8d7;"/>
   </g>
   <g id="LineCollection_28">
    <path clip-path="url(#pf7b0215cc9)" d="M 67.711506 137.166044 
L 67.711506 125.390421 
" style="fill:none;stroke:#3ae8d7;"/>
   </g>
   <g id="LineCollection_29">
    <path clip-path="url(#pf7b0215cc9)" d="M 33.236349 207.81978 
L 33.236349 187.21244 
" style="fill:none;stroke:#3ae8d7;"/>
   </g>
   <g id="LineCollection_30">
    <path clip-path="url(#pf7b0215cc9)" d="M 44.273806 196.044157 
L 44.273806 178.380723 
" style="fill:none;stroke:#3ae8d7;"/>
   </g>
   <g id="LineCollection_31">
    <path clip-path="url(#pf7b0215cc9)" d="M 45.287933 184.268534 
L 45.287933 172.492912 
" style="fill:none;stroke:#3ae8d7;"/>
   </g>
   <g id="PathCollection_1">
    <defs>
     <path d="M 0 1.581139 
C 0.419323 1.581139 0.821528 1.41454 1.118034 1.118034 
C 1.41454 0.821528 1.581139 0.419323 1.581139 0 
C 1.581139 -0.419323 1.41454 -0.821528 1.118034 -1.118034 
C 0.821528 -1.41454 0.419323 -1.581139 0 -1.581139 
C -0.419323 -1.581139 -0.821528 -1.41454 -1.118034 -1.118034 
C -1.41454 -0.821528 -1.581139 -0.419323 -1.581139 0 
C -1.581139 0.419323 -1.41454 0.821528 -1.118034 1.118034 
C -0.821528 1.41454 -0.419323 1.581139 0 1.581139 
z
" id="mc4b20525cd" style="stroke:#000000;stroke-width:0.252982;"/>
    </defs>
    <g clip-path="url(#pf7b0215cc9)">
     <use style="fill:#3ae8d7;stroke:#000000;stroke-width:0.252982;" x="60.613477" xlink:href="#mc4b20525cd" y="90.063554"/>
     <use style="fill:#3ae8d7;stroke:#000000;stroke-width:0.252982;" x="63.655428" xlink:href="#mc4b20525cd" y="101.839176"/>
     <use style="fill:#3ae8d7;stroke:#000000;stroke-width:0.252982;" x="72.78128" xlink:href="#mc4b20525cd" y="113.614799"/>
     <use style="fill:#3ae8d7;stroke:#000000;stroke-width:0.252982;" x="71.767584" xlink:href="#mc4b20525cd" y="125.390421"/>
     <use style="fill:#3ae8d7;stroke:#000000;stroke-width:0.252982;" x="67.813091" xlink:href="#mc4b20525cd" y="137.166044"/>
     <use style="fill:#3ae8d7;stroke:#000000;stroke-width:0.252982;" x="61.627604" xlink:href="#mc4b20525cd" y="148.941667"/>
     <use style="fill:#3ae8d7;stroke:#000000;stroke-width:0.252982;" x="60.613477" xlink:href="#mc4b20525cd" y="160.717289"/>
     <use style="fill:#3ae8d7;stroke:#000000;stroke-width:0.252982;" x="49.344011" xlink:href="#mc4b20525cd" y="172.492912"/>
     <use style="fill:#3ae8d7;stroke:#000000;stroke-width:0.252982;" x="49.344011" xlink:href="#mc4b20525cd" y="184.268534"/>
     <use style="fill:#3ae8d7;stroke:#000000;stroke-width:0.252982;" x="49.34358" xlink:href="#mc4b20525cd" y="196.044157"/>
     <use style="fill:#3ae8d7;stroke:#000000;stroke-width:0.252982;" x="44.390026" xlink:href="#mc4b20525cd" y="207.81978"/>
    </g>
   </g>
   <g id="line2d_9">
    <path clip-path="url(#pf7b0215cc9)" d="M 32.222222 230.9 
L 32.222222 66.983333 
" style="fill:none;stroke:#000000;stroke-dasharray:1.85,0.8;stroke-dashoffset:0;stroke-width:0.5;"/>
   </g>
   <g id="line2d_10">
    <path clip-path="url(#pf7b0215cc9)" d="M 75.266667 230.9 
L 75.266667 66.983333 
" style="fill:none;stroke:#000000;stroke-dasharray:1.85,0.8;stroke-dashoffset:0;stroke-width:0.5;"/>
   </g>
   <g id="patch_4">
    <path d="M 10.7 230.9 
L 10.7 66.983333 
" style="fill:none;stroke:#000000;stroke-linecap:square;stroke-linejoin:miter;stroke-width:0.8;"/>
   </g>
   <g id="patch_5">
    <path d="M 10.7 230.9 
L 333.533333 230.9 
" style="fill:none;stroke:#000000;stroke-linecap:square;stroke-linejoin:miter;stroke-width:0.8;"/>
   </g>
   <g id="text_11">
    <text style="font-family:DejaVu Sans;font-size:10px;font-stretch:normal;font-style:normal;font-weight:normal;text-anchor:start;" transform="rotate(-0, 32.222222, 175.068293)" x="32.222222" y="175.068293"> </text>
   </g>
   <g id="text_12">
    <text style="font-family:DejaVu Sans;font-size:10px;font-stretch:normal;font-style:normal;font-weight:normal;text-anchor:start;" transform="rotate(-0, 49.4598, 149.861101)" x="49.4598" y="149.861101"> </text>
   </g>
   <g id="text_13">
    <text style="font-family:DejaVu Sans;font-size:10px;font-stretch:normal;font-style:normal;font-weight:normal;text-anchor:start;" transform="rotate(-0, 52.501751, 136.245537)" x="52.501751" y="136.245537"> </text>
   </g>
   <g id="text_14">
    <text style="font-family:DejaVu Sans;font-size:10px;font-stretch:normal;font-style:normal;font-weight:normal;text-anchor:start;" transform="rotate(-0, 55.543702, 120.790032)" x="55.543702" y="120.790032"> </text>
   </g>
   <g id="text_15">
    <text style="font-family:DejaVu Sans;font-size:10px;font-stretch:normal;font-style:normal;font-weight:normal;text-anchor:start;" transform="rotate(-0, 56.557829, 107.542457)" x="56.557829" y="107.542457"> </text>
   </g>
   <g id="text_16">
    <text style="font-family:DejaVu Sans;font-size:10px;font-stretch:normal;font-style:normal;font-weight:normal;text-anchor:start;" transform="rotate(-0, 58.585653, 98.71074)" x="58.585653" y="98.71074"> </text>
   </g>
   <g id="text_17">
    <text style="font-family:DejaVu Sans;font-size:10px;font-stretch:normal;font-style:normal;font-weight:normal;text-anchor:start;" transform="rotate(-0, 60.613477, 92.822929)" x="60.613477" y="92.822929"> </text>
   </g>
   <g id="text_18">
    <text style="font-family:DejaVu Sans;font-size:10px;font-stretch:normal;font-style:normal;font-weight:normal;text-anchor:start;" transform="rotate(-0, 63.655428, 104.598551)" x="63.655428" y="104.598551"> </text>
   </g>
   <g id="text_19">
    <text style="font-family:DejaVu Sans;font-size:10px;font-stretch:normal;font-style:normal;font-weight:normal;text-anchor:start;" transform="rotate(-0, 72.78128, 116.374174)" x="72.78128" y="116.374174"> </text>
   </g>
   <g id="text_20">
    <text style="font-family:DejaVu Sans;font-size:10px;font-stretch:normal;font-style:normal;font-weight:normal;text-anchor:start;" transform="rotate(-0, 67.711506, 134.037608)" x="67.711506" y="134.037608"> </text>
   </g>
   <g id="text_21">
    <text style="font-family:DejaVu Sans;font-size:10px;font-stretch:normal;font-style:normal;font-weight:normal;text-anchor:start;" transform="rotate(-0, 71.767584, 128.149796)" x="71.767584" y="128.149796"> </text>
   </g>
   <g id="text_22">
    <text style="font-family:DejaVu Sans;font-size:10px;font-stretch:normal;font-style:normal;font-weight:normal;text-anchor:start;" transform="rotate(-0, 67.813091, 139.925419)" x="67.813091" y="139.925419"> </text>
   </g>
   <g id="text_23">
    <text style="font-family:DejaVu Sans;font-size:10px;font-stretch:normal;font-style:normal;font-weight:normal;text-anchor:start;" transform="rotate(-0, 61.627604, 151.701042)" x="61.627604" y="151.701042"> </text>
   </g>
   <g id="text_24">
    <text style="font-family:DejaVu Sans;font-size:10px;font-stretch:normal;font-style:normal;font-weight:normal;text-anchor:start;" transform="rotate(-0, 60.613477, 163.476664)" x="60.613477" y="163.476664"> </text>
   </g>
   <g id="text_25">
    <text style="font-family:DejaVu Sans;font-size:10px;font-stretch:normal;font-style:normal;font-weight:normal;text-anchor:start;" transform="rotate(-0, 33.236349, 200.275485)" x="33.236349" y="200.275485"> </text>
   </g>
   <g id="text_26">
    <text style="font-family:DejaVu Sans;font-size:10px;font-stretch:normal;font-style:normal;font-weight:normal;text-anchor:start;" transform="rotate(-0, 44.273806, 189.971815)" x="44.273806" y="189.971815"> </text>
   </g>
   <g id="text_27">
    <text style="font-family:DejaVu Sans;font-size:10px;font-stretch:normal;font-style:normal;font-weight:normal;text-anchor:start;" transform="rotate(-0, 45.287933, 181.140098)" x="45.287933" y="181.140098"> </text>
   </g>
   <g id="text_28">
    <text style="font-family:DejaVu Sans;font-size:10px;font-stretch:normal;font-style:normal;font-weight:normal;text-anchor:start;" transform="rotate(-0, 49.344011, 175.252287)" x="49.344011" y="175.252287"> </text>
   </g>
   <g id="text_29">
    <text style="font-family:DejaVu Sans;font-size:10px;font-stretch:normal;font-style:normal;font-weight:normal;text-anchor:start;" transform="rotate(-0, 49.344011, 187.027909)" x="49.344011" y="187.027909"> </text>
   </g>
   <g id="text_30">
    <text style="font-family:DejaVu Sans;font-size:10px;font-stretch:normal;font-style:normal;font-weight:normal;text-anchor:start;" transform="rotate(-0, 49.34358, 198.803532)" x="49.34358" y="198.803532"> </text>
   </g>
   <g id="text_31">
    <text style="font-family:DejaVu Sans;font-size:10px;font-stretch:normal;font-style:normal;font-weight:normal;text-anchor:start;" transform="rotate(-0, 44.390026, 210.579155)" x="44.390026" y="210.579155"> </text>
   </g>
   <g id="text_32">
    <text style="font-family:DejaVu Sans;font-size:12px;font-stretch:normal;font-style:normal;font-weight:normal;text-anchor:middle;" transform="rotate(-0, 172.116667, 60.983333)" x="172.116667" y="60.983333">NODE211</text>
   </g>
  </g>
  <g id="axes_2">
   <g id="patch_6">
    <path d="M 10.7 66.983333 
L 333.533333 66.983333 
L 333.533333 34.2 
L 10.7 34.2 
z
" style="fill:#ffffff;"/>
   </g>
   <g id="PolyCollection_1">
    <defs>
     <path d="M 32.222222 -217.200398 
L 32.222222 -212.670729 
L 32.426037 -212.670729 
L 32.629851 -212.670729 
L 32.833665 -212.670729 
L 33.03748 -212.670729 
L 33.241294 -212.670729 
L 33.445108 -212.670729 
L 33.648923 -212.670729 
L 33.852737 -212.670729 
L 34.056551 -212.670729 
L 34.260366 -212.670729 
L 34.46418 -212.670729 
L 34.667995 -212.670729 
L 34.871809 -212.670729 
L 35.075623 -212.670729 
L 35.279438 -212.670729 
L 35.483252 -212.670729 
L 35.687066 -212.670729 
L 35.890881 -212.670729 
L 36.094695 -212.670729 
L 36.298509 -212.670729 
L 36.502324 -212.670729 
L 36.706138 -212.670729 
L 36.909953 -212.670729 
L 37.113767 -212.670729 
L 37.317581 -212.670729 
L 37.521396 -212.670729 
L 37.72521 -212.670729 
L 37.929024 -212.670729 
L 38.132839 -212.670729 
L 38.336653 -212.670729 
L 38.540467 -212.670729 
L 38.744282 -212.670729 
L 38.948096 -212.670729 
L 39.151911 -212.670729 
L 39.355725 -212.670729 
L 39.559539 -212.670729 
L 39.763354 -212.670729 
L 39.967168 -212.670729 
L 40.170982 -212.670729 
L 40.374797 -212.670729 
L 40.578611 -212.670729 
L 40.782425 -212.670729 
L 40.98624 -212.670729 
L 41.190054 -212.670729 
L 41.393869 -212.670729 
L 41.597683 -212.670729 
L 41.801497 -212.670729 
L 42.005312 -212.670729 
L 42.209126 -212.670729 
L 42.41294 -212.670729 
L 42.616755 -212.670729 
L 42.820569 -212.670729 
L 43.024383 -212.670729 
L 43.228198 -212.670729 
L 43.432012 -212.670729 
L 43.635827 -212.670729 
L 43.839641 -212.670729 
L 44.043455 -212.670729 
L 44.24727 -212.670729 
L 44.451084 -212.670729 
L 44.654898 -212.670729 
L 44.858713 -212.670729 
L 45.062527 -212.670729 
L 45.266341 -212.670729 
L 45.470156 -212.670729 
L 45.67397 -212.670729 
L 45.877785 -212.670729 
L 46.081599 -212.670729 
L 46.285413 -212.670729 
L 46.489228 -212.670729 
L 46.693042 -212.670729 
L 46.896856 -212.670729 
L 47.100671 -212.670729 
L 47.304485 -212.670729 
L 47.508299 -212.670729 
L 47.712114 -212.670729 
L 47.915928 -212.670729 
L 48.119743 -212.670729 
L 48.323557 -212.670729 
L 48.527371 -212.670729 
L 48.731186 -212.670729 
L 48.935 -212.670729 
L 49.138814 -212.670729 
L 49.342629 -212.670729 
L 49.546443 -212.670729 
L 49.750257 -212.670729 
L 49.954072 -212.670729 
L 50.157886 -212.670729 
L 50.361701 -212.670729 
L 50.565515 -212.670729 
L 50.769329 -212.670729 
L 50.973144 -212.670729 
L 51.176958 -212.670729 
L 51.380772 -212.670729 
L 51.584587 -212.670729 
L 51.788401 -212.670729 
L 51.992215 -212.670729 
L 52.19603 -212.670729 
L 52.399844 -212.670729 
L 52.603659 -212.670729 
L 52.807473 -212.670729 
L 53.011287 -212.670729 
L 53.215102 -212.670729 
L 53.418916 -212.670729 
L 53.62273 -212.670729 
L 53.826545 -212.670729 
L 54.030359 -212.670729 
L 54.234173 -212.670729 
L 54.437988 -212.670729 
L 54.641802 -212.670729 
L 54.845617 -212.670729 
L 55.049431 -212.670729 
L 55.253245 -212.670729 
L 55.45706 -212.670729 
L 55.660874 -212.670729 
L 55.864688 -212.670729 
L 56.068503 -212.670729 
L 56.272317 -212.670729 
L 56.476131 -212.670729 
L 56.679946 -212.670729 
L 56.88376 -212.670729 
L 57.087574 -212.670729 
L 57.291389 -212.670729 
L 57.495203 -212.670729 
L 57.699018 -212.670729 
L 57.902832 -212.670729 
L 58.106646 -212.670729 
L 58.310461 -212.670729 
L 58.514275 -212.670729 
L 58.718089 -212.670729 
L 58.921904 -212.670729 
L 59.125718 -212.670729 
L 59.329532 -212.670729 
L 59.533347 -212.670729 
L 59.737161 -212.670729 
L 59.940976 -212.670729 
L 60.14479 -212.670729 
L 60.348604 -212.670729 
L 60.552419 -212.670729 
L 60.756233 -212.670729 
L 60.960047 -212.670729 
L 61.163862 -212.670729 
L 61.367676 -212.670729 
L 61.57149 -212.670729 
L 61.775305 -212.670729 
L 61.979119 -212.670729 
L 62.182934 -212.670729 
L 62.386748 -212.670729 
L 62.590562 -212.670729 
L 62.794377 -212.670729 
L 62.998191 -212.670729 
L 63.202005 -212.670729 
L 63.40582 -212.670729 
L 63.609634 -212.670729 
L 63.813448 -212.670729 
L 64.017263 -212.670729 
L 64.221077 -212.670729 
L 64.424892 -212.670729 
L 64.628706 -212.670729 
L 64.83252 -212.670729 
L 65.036335 -212.670729 
L 65.240149 -212.670729 
L 65.443963 -212.670729 
L 65.647778 -212.670729 
L 65.851592 -212.670729 
L 66.055406 -212.670729 
L 66.259221 -212.670729 
L 66.463035 -212.670729 
L 66.66685 -212.670729 
L 66.870664 -212.670729 
L 67.074478 -212.670729 
L 67.278293 -212.670729 
L 67.482107 -212.670729 
L 67.685921 -212.670729 
L 67.889736 -212.670729 
L 68.09355 -212.670729 
L 68.297364 -212.670729 
L 68.501179 -212.670729 
L 68.704993 -212.670729 
L 68.908808 -212.670729 
L 69.112622 -212.670729 
L 69.316436 -212.670729 
L 69.520251 -212.670729 
L 69.724065 -212.670729 
L 69.927879 -212.670729 
L 70.131694 -212.670729 
L 70.335508 -212.670729 
L 70.539322 -212.670729 
L 70.743137 -212.670729 
L 70.946951 -212.670729 
L 71.150766 -212.670729 
L 71.35458 -212.670729 
L 71.558394 -212.670729 
L 71.762209 -212.670729 
L 71.966023 -212.670729 
L 72.169837 -212.670729 
L 72.373652 -212.670729 
L 72.577466 -212.670729 
L 72.78128 -212.670729 
L 72.78128 -226.658805 
L 72.78128 -226.658805 
L 72.577466 -226.997665 
L 72.373652 -227.335379 
L 72.169837 -227.671725 
L 71.966023 -228.006496 
L 71.762209 -228.339499 
L 71.558394 -228.670559 
L 71.35458 -228.999513 
L 71.150766 -229.326216 
L 70.946951 -229.650537 
L 70.743137 -229.97236 
L 70.539322 -230.291583 
L 70.335508 -230.608116 
L 70.131694 -230.921885 
L 69.927879 -231.232824 
L 69.724065 -231.54088 
L 69.520251 -231.846009 
L 69.316436 -232.148175 
L 69.112622 -232.447349 
L 68.908808 -232.743509 
L 68.704993 -233.036637 
L 68.501179 -233.326717 
L 68.297364 -233.613737 
L 68.09355 -233.897684 
L 67.889736 -234.178544 
L 67.685921 -234.456304 
L 67.482107 -234.730945 
L 67.278293 -235.002445 
L 67.074478 -235.270778 
L 66.870664 -235.53591 
L 66.66685 -235.797804 
L 66.463035 -236.056412 
L 66.259221 -236.311683 
L 66.055406 -236.563554 
L 65.851592 -236.811958 
L 65.647778 -237.056818 
L 65.443963 -237.298051 
L 65.240149 -237.535566 
L 65.036335 -237.769265 
L 64.83252 -237.999047 
L 64.628706 -238.224804 
L 64.424892 -238.446423 
L 64.221077 -238.663791 
L 64.017263 -238.876792 
L 63.813448 -239.085308 
L 63.609634 -239.289224 
L 63.40582 -239.488428 
L 63.202005 -239.682811 
L 62.998191 -239.872268 
L 62.794377 -240.056703 
L 62.590562 -240.236027 
L 62.386748 -240.410162 
L 62.182934 -240.57904 
L 61.979119 -240.742605 
L 61.775305 -240.900815 
L 61.57149 -241.053643 
L 61.367676 -241.201077 
L 61.163862 -241.34312 
L 60.960047 -241.479793 
L 60.756233 -241.611134 
L 60.552419 -241.737197 
L 60.348604 -241.858053 
L 60.14479 -241.973791 
L 59.940976 -242.084515 
L 59.737161 -242.190346 
L 59.533347 -242.291419 
L 59.329532 -242.387881 
L 59.125718 -242.479892 
L 58.921904 -242.567625 
L 58.718089 -242.651259 
L 58.514275 -242.73098 
L 58.310461 -242.80698 
L 58.106646 -242.879454 
L 57.902832 -242.948596 
L 57.699018 -243.014599 
L 57.495203 -243.077651 
L 57.291389 -243.137934 
L 57.087574 -243.195618 
L 56.88376 -243.250864 
L 56.679946 -243.303816 
L 56.476131 -243.354602 
L 56.272317 -243.40333 
L 56.068503 -243.450088 
L 55.864688 -243.494938 
L 55.660874 -243.537918 
L 55.45706 -243.579038 
L 55.253245 -243.61828 
L 55.049431 -243.655593 
L 54.845617 -243.6909 
L 54.641802 -243.724086 
L 54.437988 -243.755009 
L 54.234173 -243.78349 
L 54.030359 -243.809321 
L 53.826545 -243.832258 
L 53.62273 -243.85203 
L 53.418916 -243.868331 
L 53.215102 -243.88083 
L 53.011287 -243.889166 
L 52.807473 -243.892951 
L 52.603659 -243.891778 
L 52.399844 -243.885214 
L 52.19603 -243.87281 
L 51.992215 -243.854101 
L 51.788401 -243.828609 
L 51.584587 -243.795847 
L 51.380772 -243.755323 
L 51.176958 -243.70654 
L 50.973144 -243.649005 
L 50.769329 -243.582227 
L 50.565515 -243.505726 
L 50.361701 -243.419033 
L 50.157886 -243.321696 
L 49.954072 -243.21328 
L 49.750257 -243.093377 
L 49.546443 -242.961602 
L 49.342629 -242.817602 
L 49.138814 -242.661058 
L 48.935 -242.491685 
L 48.731186 -242.309239 
L 48.527371 -242.113514 
L 48.323557 -241.904353 
L 48.119743 -241.681641 
L 47.915928 -241.445311 
L 47.712114 -241.195346 
L 47.508299 -240.931779 
L 47.304485 -240.654694 
L 47.100671 -240.364226 
L 46.896856 -240.060562 
L 46.693042 -239.74394 
L 46.489228 -239.41465 
L 46.285413 -239.073032 
L 46.081599 -238.719474 
L 45.877785 -238.354413 
L 45.67397 -237.978331 
L 45.470156 -237.591754 
L 45.266341 -237.195249 
L 45.062527 -236.789424 
L 44.858713 -236.374922 
L 44.654898 -235.952417 
L 44.451084 -235.522616 
L 44.24727 -235.086252 
L 44.043455 -234.644079 
L 43.839641 -234.196873 
L 43.635827 -233.745422 
L 43.432012 -233.290528 
L 43.228198 -232.833 
L 43.024383 -232.373651 
L 42.820569 -231.913293 
L 42.616755 -231.452734 
L 42.41294 -230.992774 
L 42.209126 -230.534201 
L 42.005312 -230.077786 
L 41.801497 -229.624284 
L 41.597683 -229.174423 
L 41.393869 -228.728908 
L 41.190054 -228.288414 
L 40.98624 -227.853585 
L 40.782425 -227.425029 
L 40.578611 -227.003317 
L 40.374797 -226.588984 
L 40.170982 -226.182519 
L 39.967168 -225.784373 
L 39.763354 -225.394951 
L 39.559539 -225.014613 
L 39.355725 -224.643673 
L 39.151911 -224.282401 
L 38.948096 -223.93102 
L 38.744282 -223.589705 
L 38.540467 -223.258587 
L 38.336653 -222.937753 
L 38.132839 -222.627245 
L 37.929024 -222.327061 
L 37.72521 -222.037161 
L 37.521396 -221.757462 
L 37.317581 -221.487845 
L 37.113767 -221.228155 
L 36.909953 -220.978205 
L 36.706138 -220.737775 
L 36.502324 -220.506619 
L 36.298509 -220.284462 
L 36.094695 -220.071009 
L 35.890881 -219.865944 
L 35.687066 -219.668933 
L 35.483252 -219.479628 
L 35.279438 -219.297669 
L 35.075623 -219.122688 
L 34.871809 -218.954311 
L 34.667995 -218.792159 
L 34.46418 -218.635853 
L 34.260366 -218.485018 
L 34.056551 -218.339281 
L 33.852737 -218.198277 
L 33.648923 -218.061647 
L 33.445108 -217.929046 
L 33.241294 -217.800139 
L 33.03748 -217.674607 
L 32.833665 -217.552146 
L 32.629851 -217.432467 
L 32.426037 -217.315301 
L 32.222222 -217.200398 
z
" id="mcf9581e313" style="stroke:#3ae8d7;"/>
    </defs>
    <g clip-path="url(#pa5c7037f4b)">
     <use style="fill:#3ae8d7;fill-opacity:0.25;stroke:#3ae8d7;" x="0" xlink:href="#mcf9581e313" y="279.654063"/>
    </g>
   </g>
   <g id="patch_7">
    <path clip-path="url(#pa5c7037f4b)" d="M 32.222222 66.983333 
L 32.222222 34.2 
L 75.266667 34.2 
L 75.266667 66.983333 
z
" style="fill:#c4c4c4;opacity:0.25;"/>
   </g>
   <g id="matplotlib.axis_3">
    <g id="xtick_9">
     <g id="line2d_11">
      <g>
       <use style="stroke:#000000;stroke-width:0.8;" x="32.222222" xlink:href="#maf6a24670c" y="66.983333"/>
      </g>
     </g>
    </g>
    <g id="xtick_10">
     <g id="line2d_12">
      <g>
       <use style="stroke:#000000;stroke-width:0.8;" x="75.266667" xlink:href="#maf6a24670c" y="66.983333"/>
      </g>
     </g>
    </g>
    <g id="xtick_11">
     <g id="line2d_13">
      <g>
       <use style="stroke:#000000;stroke-width:0.8;" x="118.311111" xlink:href="#maf6a24670c" y="66.983333"/>
      </g>
     </g>
    </g>
    <g id="xtick_12">
     <g id="line2d_14">
      <g>
       <use style="stroke:#000000;stroke-width:0.8;" x="161.355556" xlink:href="#maf6a24670c" y="66.983333"/>
      </g>
     </g>
    </g>
    <g id="xtick_13">
     <g id="line2d_15">
      <g>
       <use style="stroke:#000000;stroke-width:0.8;" x="204.4" xlink:href="#maf6a24670c" y="66.983333"/>
      </g>
     </g>
    </g>
    <g id="xtick_14">
     <g id="line2d_16">
      <g>
       <use style="stroke:#000000;stroke-width:0.8;" x="247.444444" xlink:href="#maf6a24670c" y="66.983333"/>
      </g>
     </g>
    </g>
    <g id="xtick_15">
     <g id="line2d_17">
      <g>
       <use style="stroke:#000000;stroke-width:0.8;" x="290.488889" xlink:href="#maf6a24670c" y="66.983333"/>
      </g>
     </g>
    </g>
    <g id="xtick_16">
     <g id="line2d_18">
      <g>
       <use style="stroke:#000000;stroke-width:0.8;" x="333.533333" xlink:href="#maf6a24670c" y="66.983333"/>
      </g>
     </g>
    </g>
    <g id="text_33">
     <text style="font-family:DejaVu Sans;font-size:10px;font-stretch:normal;font-style:normal;font-weight:normal;text-anchor:end;" transform="rotate(-0, 333.533333, 77.581771)" x="333.533333" y="77.581771">1e−5</text>
    </g>
   </g>
   <g id="matplotlib.axis_4">
    <g id="ytick_1"/>
    <g id="ytick_2"/>
   </g>
   <g id="line2d_19">
    <path clip-path="url(#pa5c7037f4b)" d="M 32.222222 66.983333 
L 32.222222 34.2 
" style="fill:none;stroke:#000000;stroke-dasharray:1.85,0.8;stroke-dashoffset:0;stroke-width:0.5;"/>
   </g>
   <g id="line2d_20">
    <path clip-path="url(#pa5c7037f4b)" d="M 75.266667 66.983333 
L 75.266667 34.2 
" style="fill:none;stroke:#000000;stroke-dasharray:1.85,0.8;stroke-dashoffset:0;stroke-width:0.5;"/>
   </g>
   <g id="patch_8">
    <path d="M 10.7 66.983333 
L 333.533333 66.983333 
" style="fill:none;stroke:#000000;stroke-linecap:square;stroke-linejoin:miter;stroke-width:0.8;"/>
   </g>
  </g>
  <g id="axes_3">
   <g id="patch_9">
    <path d="M 333.533333 230.9 
L 398.1 230.9 
L 398.1 66.983333 
L 333.533333 66.983333 
z
" style="fill:#ffffff;"/>
   </g>
   <g id="matplotlib.axis_5">
    <g id="xtick_17"/>
    <g id="xtick_18"/>
    <g id="xtick_19"/>
   </g>
   <g id="matplotlib.axis_6"/>
   <g id="patch_10">
    <path d="M 333.533333 230.9 
L 333.533333 66.983333 
" style="fill:none;stroke:#000000;stroke-linecap:square;stroke-linejoin:miter;stroke-width:0.8;"/>
   </g>
  </g>
  <g id="text_34">
   <text style="font-family:DejaVu Sans;font-size:12px;font-stretch:normal;font-style:normal;font-weight:bold;text-anchor:middle;" transform="rotate(-0, 171.3, 16.318125)" x="171.3" y="16.318125">3.ANT</text>
  </g>
 </g>
 <defs>
  <clipPath id="pf7b0215cc9">
   <rect height="163.916667" width="322.833333" x="10.7" y="66.983333"/>
  </clipPath>
  <clipPath id="pa5c7037f4b">
   <rect height="32.783333" width="322.833333" x="10.7" y="34.2"/>
  </clipPath>
 </defs>
</svg>
