<?xml version="1.0" encoding="utf-8" standalone="no"?>
<!DOCTYPE svg PUBLIC "-//W3C//DTD SVG 1.1//EN"
  "http://www.w3.org/Graphics/SVG/1.1/DTD/svg11.dtd">
<!-- Created with matplotlib (https://matplotlib.org/) -->
<svg height="704.81875pt" version="1.1" viewBox="0 0 1884.6175 704.81875" width="1884.6175pt" xmlns="http://www.w3.org/2000/svg" xmlns:xlink="http://www.w3.org/1999/xlink">
 <metadata>
  <rdf:RDF xmlns:cc="http://creativecommons.org/ns#" xmlns:dc="http://purl.org/dc/elements/1.1/" xmlns:rdf="http://www.w3.org/1999/02/22-rdf-syntax-ns#">
   <cc:Work>
    <dc:type rdf:resource="http://purl.org/dc/dcmitype/StillImage"/>
    <dc:date>2021-08-05T21:31:02.776261</dc:date>
    <dc:format>image/svg+xml</dc:format>
    <dc:creator>
     <cc:Agent>
      <dc:title>Matplotlib v3.3.2, https://matplotlib.org/</dc:title>
     </cc:Agent>
    </dc:creator>
   </cc:Work>
  </rdf:RDF>
 </metadata>
 <defs>
  <style type="text/css">*{stroke-linecap:butt;stroke-linejoin:round;}</style>
 </defs>
 <g id="figure_1">
  <g id="patch_1">
   <path d="M 0 704.81875 
L 1884.6175 704.81875 
L 1884.6175 0 
L 0 0 
z
" style="fill:none;"/>
  </g>
  <g id="axes_1">
   <g id="patch_2">
    <path d="M 91.8175 659.52 
L 1877.4175 659.52 
L 1877.4175 7.2 
L 91.8175 7.2 
z
" style="fill:#ffffff;"/>
   </g>
   <g id="PolyCollection_1">
    <defs>
     <path d="M 1746.530547 -673.453351 
L 1746.530547 -673.464149 
L 1746.972395 -673.471887 
L 1747.414243 -673.484553 
L 1747.856091 -673.500579 
L 1748.29794 -673.516681 
L 1748.739788 -673.530189 
L 1749.181636 -673.539505 
L 1749.623484 -673.542218 
L 1750.065332 -673.535343 
L 1750.507181 -673.518994 
L 1750.949029 -673.498274 
L 1751.390877 -673.480017 
L 1751.832725 -673.468171 
L 1752.274574 -673.462794 
L 1752.716422 -673.462486 
L 1753.15827 -673.466673 
L 1753.600118 -673.47534 
L 1754.041966 -673.486767 
L 1754.483815 -673.496506 
L 1754.925663 -673.500372 
L 1755.367511 -673.49895 
L 1755.809359 -673.497247 
L 1756.251208 -673.498596 
L 1756.693056 -673.500403 
L 1757.134904 -673.497468 
L 1757.576752 -673.488379 
L 1758.0186 -673.476851 
L 1758.460449 -673.467488 
L 1758.902297 -673.462074 
L 1759.344145 -673.45977 
L 1759.785993 -673.459143 
L 1760.227842 -673.45953 
L 1760.66969 -673.461454 
L 1761.111538 -673.466659 
L 1761.553386 -673.477496 
L 1761.995234 -673.49518 
L 1762.437083 -673.517771 
L 1762.878931 -673.539786 
L 1763.320779 -673.554082 
L 1763.762627 -673.555263 
L 1764.204476 -673.543744 
L 1764.646324 -673.527972 
L 1765.088172 -673.520962 
L 1765.53002 -673.531433 
L 1765.971869 -673.556543 
L 1766.413717 -673.583652 
L 1766.855565 -673.600615 
L 1767.297413 -673.604663 
L 1767.739261 -673.601483 
L 1768.18111 -673.598657 
L 1768.622958 -673.60212 
L 1769.064806 -673.614888 
L 1769.506654 -673.634029 
L 1769.948503 -673.649739 
L 1770.390351 -673.651536 
L 1770.832199 -673.637997 
L 1771.274047 -673.622053 
L 1771.715895 -673.627681 
L 1772.157744 -673.678836 
L 1772.599592 -673.784483 
L 1773.04144 -673.928245 
L 1773.483288 -674.073742 
L 1773.925137 -674.185085 
L 1774.366985 -674.24569 
L 1774.808833 -674.265457 
L 1775.250681 -674.281046 
L 1775.692529 -674.344255 
L 1776.134378 -674.490609 
L 1776.576226 -674.709962 
L 1777.018074 -674.951571 
L 1777.459922 -675.162179 
L 1777.901771 -675.327503 
L 1778.343619 -675.490219 
L 1778.785467 -675.731341 
L 1779.227315 -676.124866 
L 1779.669163 -676.700913 
L 1780.111012 -677.446214 
L 1780.55286 -678.334437 
L 1780.994708 -679.358231 
L 1781.436556 -680.545624 
L 1781.878405 -681.951351 
L 1782.320253 -683.607689 
L 1782.762101 -685.452877 
L 1783.203949 -687.323115 
L 1783.645798 -689.054846 
L 1784.087646 -690.577988 
L 1784.529494 -691.849029 
L 1784.971342 -692.693702 
L 1785.41319 -692.78675 
L 1785.855039 -691.83394 
L 1786.296887 -689.777334 
L 1786.738735 -686.851179 
L 1787.180583 -683.498619 
L 1787.622432 -680.239338 
L 1788.06428 -677.522989 
L 1788.506128 -675.591861 
L 1788.947976 -674.429398 
L 1789.389824 -673.839387 
L 1789.831673 -673.586926 
L 1790.273521 -673.495675 
L 1790.273521 -673.421825 
L 1790.273521 -673.421825 
L 1789.831673 -673.330574 
L 1789.389824 -673.078113 
L 1788.947976 -672.488102 
L 1788.506128 -671.325639 
L 1788.06428 -669.394511 
L 1787.622432 -666.678162 
L 1787.180583 -663.418881 
L 1786.738735 -660.066321 
L 1786.296887 -657.140166 
L 1785.855039 -655.08356 
L 1785.41319 -654.13075 
L 1784.971342 -654.223798 
L 1784.529494 -655.068471 
L 1784.087646 -656.339512 
L 1783.645798 -657.862654 
L 1783.203949 -659.594385 
L 1782.762101 -661.464623 
L 1782.320253 -663.309811 
L 1781.878405 -664.966149 
L 1781.436556 -666.371876 
L 1780.994708 -667.559269 
L 1780.55286 -668.583063 
L 1780.111012 -669.471286 
L 1779.669163 -670.216587 
L 1779.227315 -670.792634 
L 1778.785467 -671.186159 
L 1778.343619 -671.427281 
L 1777.901771 -671.589997 
L 1777.459922 -671.755321 
L 1777.018074 -671.965929 
L 1776.576226 -672.207538 
L 1776.134378 -672.426891 
L 1775.692529 -672.573245 
L 1775.250681 -672.636454 
L 1774.808833 -672.652043 
L 1774.366985 -672.67181 
L 1773.925137 -672.732415 
L 1773.483288 -672.843758 
L 1773.04144 -672.989255 
L 1772.599592 -673.133017 
L 1772.157744 -673.238664 
L 1771.715895 -673.289819 
L 1771.274047 -673.295447 
L 1770.832199 -673.279503 
L 1770.390351 -673.265964 
L 1769.948503 -673.267761 
L 1769.506654 -673.283471 
L 1769.064806 -673.302612 
L 1768.622958 -673.31538 
L 1768.18111 -673.318843 
L 1767.739261 -673.316017 
L 1767.297413 -673.312837 
L 1766.855565 -673.316885 
L 1766.413717 -673.333848 
L 1765.971869 -673.360957 
L 1765.53002 -673.386067 
L 1765.088172 -673.396538 
L 1764.646324 -673.389528 
L 1764.204476 -673.373756 
L 1763.762627 -673.362237 
L 1763.320779 -673.363418 
L 1762.878931 -673.377714 
L 1762.437083 -673.399729 
L 1761.995234 -673.42232 
L 1761.553386 -673.440004 
L 1761.111538 -673.450841 
L 1760.66969 -673.456046 
L 1760.227842 -673.45797 
L 1759.785993 -673.458357 
L 1759.344145 -673.45773 
L 1758.902297 -673.455426 
L 1758.460449 -673.450012 
L 1758.0186 -673.440649 
L 1757.576752 -673.429121 
L 1757.134904 -673.420032 
L 1756.693056 -673.417097 
L 1756.251208 -673.418904 
L 1755.809359 -673.420253 
L 1755.367511 -673.41855 
L 1754.925663 -673.417128 
L 1754.483815 -673.420994 
L 1754.041966 -673.430733 
L 1753.600118 -673.44216 
L 1753.15827 -673.450827 
L 1752.716422 -673.455014 
L 1752.274574 -673.454706 
L 1751.832725 -673.449329 
L 1751.390877 -673.437483 
L 1750.949029 -673.419226 
L 1750.507181 -673.398506 
L 1750.065332 -673.382157 
L 1749.623484 -673.375282 
L 1749.181636 -673.377995 
L 1748.739788 -673.387311 
L 1748.29794 -673.400819 
L 1747.856091 -673.416921 
L 1747.414243 -673.432947 
L 1746.972395 -673.445613 
L 1746.530547 -673.453351 
z
" id="meaefdc4cc5" style="stroke:#454545;stroke-width:2;"/>
    </defs>
    <g clip-path="url(#p682bca3c04)">
     <use style="fill:#ff0000;stroke:#454545;stroke-width:2;" x="0" xlink:href="#meaefdc4cc5" y="704.81875"/>
    </g>
   </g>
   <g id="PolyCollection_2">
    <defs>
     <path d="M 1656.558869 -625.137655 
L 1656.558869 -625.139845 
L 1657.952087 -625.143328 
L 1659.345304 -625.14677 
L 1660.738521 -625.144639 
L 1662.131739 -625.140563 
L 1663.524956 -625.138984 
L 1664.918173 -625.138763 
L 1666.31139 -625.13875 
L 1667.704608 -625.13875 
L 1669.097825 -625.13875 
L 1670.491042 -625.13875 
L 1671.884259 -625.13875 
L 1673.277477 -625.13875 
L 1674.670694 -625.13875 
L 1676.063911 -625.13875 
L 1677.457128 -625.13875 
L 1678.850346 -625.13875 
L 1680.243563 -625.13876 
L 1681.63678 -625.138946 
L 1683.029998 -625.140367 
L 1684.423215 -625.14433 
L 1685.816432 -625.146823 
L 1687.209649 -625.143652 
L 1688.602867 -625.140129 
L 1689.996084 -625.140157 
L 1691.389301 -625.144073 
L 1692.782518 -625.150044 
L 1694.175736 -625.155324 
L 1695.568953 -625.156972 
L 1696.96217 -625.1523 
L 1698.355388 -625.148932 
L 1699.748605 -625.146082 
L 1701.141822 -625.142188 
L 1702.535039 -625.142838 
L 1703.928257 -625.147005 
L 1705.321474 -625.148759 
L 1706.714691 -625.148673 
L 1708.107908 -625.146293 
L 1709.501126 -625.142075 
L 1710.894343 -625.141884 
L 1712.28756 -625.145693 
L 1713.680777 -625.14631 
L 1715.073995 -625.142237 
L 1716.467212 -625.139754 
L 1717.860429 -625.141122 
L 1719.253647 -625.145792 
L 1720.646864 -625.15077 
L 1722.040081 -625.159152 
L 1723.433298 -625.172365 
L 1724.826516 -625.175581 
L 1726.219733 -625.174556 
L 1727.61295 -625.190284 
L 1729.006167 -625.204877 
L 1730.399385 -625.204162 
L 1731.792602 -625.202704 
L 1733.185819 -625.205551 
L 1734.579036 -625.208261 
L 1735.972254 -625.218048 
L 1737.365471 -625.236202 
L 1738.758688 -625.247835 
L 1740.151906 -625.258996 
L 1741.545123 -625.273082 
L 1742.93834 -625.296461 
L 1744.331557 -625.346058 
L 1745.724775 -625.415152 
L 1747.117992 -625.495569 
L 1748.511209 -625.584178 
L 1749.904426 -625.647 
L 1751.297644 -625.653402 
L 1752.690861 -625.654994 
L 1754.084078 -625.755757 
L 1755.477295 -625.906094 
L 1756.870513 -626.024575 
L 1758.26373 -626.176625 
L 1759.656947 -626.393415 
L 1761.050165 -626.621073 
L 1762.443382 -626.817663 
L 1763.836599 -627.010612 
L 1765.229816 -627.280948 
L 1766.623034 -627.617684 
L 1768.016251 -628.093357 
L 1769.409468 -628.793046 
L 1770.802685 -629.580108 
L 1772.195903 -630.357449 
L 1773.58912 -631.317027 
L 1774.982337 -632.606618 
L 1776.375554 -634.052849 
L 1777.768772 -635.690015 
L 1779.161989 -637.372369 
L 1780.555206 -638.998639 
L 1781.948424 -640.996044 
L 1783.341641 -643.18378 
L 1784.734858 -644.46675 
L 1786.128075 -643.780754 
L 1787.521293 -640.309845 
L 1788.91451 -634.603626 
L 1790.307727 -629.22056 
L 1791.700944 -626.241487 
L 1793.094162 -625.31068 
L 1794.487379 -625.153355 
L 1794.487379 -625.124145 
L 1794.487379 -625.124145 
L 1793.094162 -624.96682 
L 1791.700944 -624.036013 
L 1790.307727 -621.05694 
L 1788.91451 -615.673874 
L 1787.521293 -609.967655 
L 1786.128075 -606.496746 
L 1784.734858 -605.81075 
L 1783.341641 -607.09372 
L 1781.948424 -609.281456 
L 1780.555206 -611.278861 
L 1779.161989 -612.905131 
L 1777.768772 -614.587485 
L 1776.375554 -616.224651 
L 1774.982337 -617.670882 
L 1773.58912 -618.960473 
L 1772.195903 -619.920051 
L 1770.802685 -620.697392 
L 1769.409468 -621.484454 
L 1768.016251 -622.184143 
L 1766.623034 -622.659816 
L 1765.229816 -622.996552 
L 1763.836599 -623.266888 
L 1762.443382 -623.459837 
L 1761.050165 -623.656427 
L 1759.656947 -623.884085 
L 1758.26373 -624.100875 
L 1756.870513 -624.252925 
L 1755.477295 -624.371406 
L 1754.084078 -624.521743 
L 1752.690861 -624.622506 
L 1751.297644 -624.624098 
L 1749.904426 -624.6305 
L 1748.511209 -624.693322 
L 1747.117992 -624.781931 
L 1745.724775 -624.862348 
L 1744.331557 -624.931442 
L 1742.93834 -624.981039 
L 1741.545123 -625.004418 
L 1740.151906 -625.018504 
L 1738.758688 -625.029665 
L 1737.365471 -625.041298 
L 1735.972254 -625.059452 
L 1734.579036 -625.069239 
L 1733.185819 -625.071949 
L 1731.792602 -625.074796 
L 1730.399385 -625.073338 
L 1729.006167 -625.072623 
L 1727.61295 -625.087216 
L 1726.219733 -625.102944 
L 1724.826516 -625.101919 
L 1723.433298 -625.105135 
L 1722.040081 -625.118348 
L 1720.646864 -625.12673 
L 1719.253647 -625.131708 
L 1717.860429 -625.136378 
L 1716.467212 -625.137746 
L 1715.073995 -625.135263 
L 1713.680777 -625.13119 
L 1712.28756 -625.131807 
L 1710.894343 -625.135616 
L 1709.501126 -625.135425 
L 1708.107908 -625.131207 
L 1706.714691 -625.128827 
L 1705.321474 -625.128741 
L 1703.928257 -625.130495 
L 1702.535039 -625.134662 
L 1701.141822 -625.135312 
L 1699.748605 -625.131418 
L 1698.355388 -625.128568 
L 1696.96217 -625.1252 
L 1695.568953 -625.120528 
L 1694.175736 -625.122176 
L 1692.782518 -625.127456 
L 1691.389301 -625.133427 
L 1689.996084 -625.137343 
L 1688.602867 -625.137371 
L 1687.209649 -625.133848 
L 1685.816432 -625.130677 
L 1684.423215 -625.13317 
L 1683.029998 -625.137133 
L 1681.63678 -625.138554 
L 1680.243563 -625.13874 
L 1678.850346 -625.13875 
L 1677.457128 -625.13875 
L 1676.063911 -625.13875 
L 1674.670694 -625.13875 
L 1673.277477 -625.13875 
L 1671.884259 -625.13875 
L 1670.491042 -625.13875 
L 1669.097825 -625.13875 
L 1667.704608 -625.13875 
L 1666.31139 -625.13875 
L 1664.918173 -625.138737 
L 1663.524956 -625.138516 
L 1662.131739 -625.136937 
L 1660.738521 -625.132861 
L 1659.345304 -625.13073 
L 1657.952087 -625.134172 
L 1656.558869 -625.137655 
z
" id="m5caabad96d" style="stroke:#454545;stroke-width:2;"/>
    </defs>
    <g clip-path="url(#p682bca3c04)">
     <use style="fill:#ff4f28;stroke:#454545;stroke-width:2;" x="0" xlink:href="#m5caabad96d" y="704.81875"/>
    </g>
   </g>
   <g id="PolyCollection_3">
    <defs>
     <path d="M 1732.088445 -576.81711 
L 1732.088445 -576.82039 
L 1732.650811 -576.823283 
L 1733.213178 -576.827516 
L 1733.775545 -576.830611 
L 1734.337912 -576.829986 
L 1734.900279 -576.826248 
L 1735.462645 -576.822553 
L 1736.025012 -576.821324 
L 1736.587379 -576.823172 
L 1737.149746 -576.827138 
L 1737.712113 -576.830455 
L 1738.274479 -576.830251 
L 1738.836846 -576.826845 
L 1739.399213 -576.823696 
L 1739.96158 -576.824349 
L 1740.523947 -576.830761 
L 1741.086314 -576.842348 
L 1741.64868 -576.854676 
L 1742.211047 -576.861328 
L 1742.773414 -576.85945 
L 1743.335781 -576.853081 
L 1743.898148 -576.84952 
L 1744.460514 -576.852246 
L 1745.022881 -576.858517 
L 1745.585248 -576.863467 
L 1746.147615 -576.865812 
L 1746.709982 -576.869129 
L 1747.272348 -576.876993 
L 1747.834715 -576.891162 
L 1748.397082 -576.915768 
L 1748.959449 -576.955195 
L 1749.521816 -577.006515 
L 1750.084183 -577.058085 
L 1750.646549 -577.095633 
L 1751.208916 -577.115716 
L 1751.771283 -577.135609 
L 1752.33365 -577.179254 
L 1752.896017 -577.251804 
L 1753.458383 -577.335321 
L 1754.02075 -577.40966 
L 1754.583117 -577.472184 
L 1755.145484 -577.532593 
L 1755.707851 -577.599723 
L 1756.270217 -577.685084 
L 1756.832584 -577.804393 
L 1757.394951 -577.960552 
L 1757.957318 -578.13576 
L 1758.519685 -578.313423 
L 1759.082051 -578.496221 
L 1759.644418 -578.694942 
L 1760.206785 -578.922866 
L 1760.769152 -579.203913 
L 1761.331519 -579.553736 
L 1761.893886 -579.949692 
L 1762.456252 -580.351617 
L 1763.018619 -580.759656 
L 1763.580986 -581.22067 
L 1764.143353 -581.769547 
L 1764.70572 -582.401546 
L 1765.268086 -583.09981 
L 1765.830453 -583.850147 
L 1766.39282 -584.645719 
L 1766.955187 -585.482902 
L 1767.517554 -586.327078 
L 1768.07992 -587.128635 
L 1768.642287 -587.887624 
L 1769.204654 -588.662358 
L 1769.767021 -589.538621 
L 1770.329388 -590.581489 
L 1770.891755 -591.762112 
L 1771.454121 -592.951272 
L 1772.016488 -594.010687 
L 1772.578855 -594.871133 
L 1773.141222 -595.517956 
L 1773.703589 -595.937766 
L 1774.265955 -596.129107 
L 1774.828322 -596.14675 
L 1775.390689 -596.043892 
L 1775.953056 -595.770797 
L 1776.515423 -595.224515 
L 1777.077789 -594.375173 
L 1777.640156 -593.253657 
L 1778.202523 -591.86201 
L 1778.76489 -590.196127 
L 1779.327257 -588.33878 
L 1779.889624 -586.450289 
L 1780.45199 -584.642522 
L 1781.014357 -582.927981 
L 1781.576724 -581.333347 
L 1782.139091 -579.969513 
L 1782.701458 -578.93305 
L 1783.263824 -578.212524 
L 1783.826191 -577.721367 
L 1784.388558 -577.375666 
L 1784.950925 -577.132018 
L 1785.513292 -576.975382 
L 1786.075658 -576.889056 
L 1786.638025 -576.847507 
L 1787.200392 -576.829117 
L 1787.762759 -576.821803 
L 1787.762759 -576.815697 
L 1787.762759 -576.815697 
L 1787.200392 -576.808383 
L 1786.638025 -576.789993 
L 1786.075658 -576.748444 
L 1785.513292 -576.662118 
L 1784.950925 -576.505482 
L 1784.388558 -576.261834 
L 1783.826191 -575.916133 
L 1783.263824 -575.424976 
L 1782.701458 -574.70445 
L 1782.139091 -573.667987 
L 1781.576724 -572.304153 
L 1781.014357 -570.709519 
L 1780.45199 -568.994978 
L 1779.889624 -567.187211 
L 1779.327257 -565.29872 
L 1778.76489 -563.441373 
L 1778.202523 -561.77549 
L 1777.640156 -560.383843 
L 1777.077789 -559.262327 
L 1776.515423 -558.412985 
L 1775.953056 -557.866703 
L 1775.390689 -557.593608 
L 1774.828322 -557.49075 
L 1774.265955 -557.508393 
L 1773.703589 -557.699734 
L 1773.141222 -558.119544 
L 1772.578855 -558.766367 
L 1772.016488 -559.626813 
L 1771.454121 -560.686228 
L 1770.891755 -561.875388 
L 1770.329388 -563.056011 
L 1769.767021 -564.098879 
L 1769.204654 -564.975142 
L 1768.642287 -565.749876 
L 1768.07992 -566.508865 
L 1767.517554 -567.310422 
L 1766.955187 -568.154598 
L 1766.39282 -568.991781 
L 1765.830453 -569.787353 
L 1765.268086 -570.53769 
L 1764.70572 -571.235954 
L 1764.143353 -571.867953 
L 1763.580986 -572.41683 
L 1763.018619 -572.877844 
L 1762.456252 -573.285883 
L 1761.893886 -573.687808 
L 1761.331519 -574.083764 
L 1760.769152 -574.433587 
L 1760.206785 -574.714634 
L 1759.644418 -574.942558 
L 1759.082051 -575.141279 
L 1758.519685 -575.324077 
L 1757.957318 -575.50174 
L 1757.394951 -575.676948 
L 1756.832584 -575.833107 
L 1756.270217 -575.952416 
L 1755.707851 -576.037777 
L 1755.145484 -576.104907 
L 1754.583117 -576.165316 
L 1754.02075 -576.22784 
L 1753.458383 -576.302179 
L 1752.896017 -576.385696 
L 1752.33365 -576.458246 
L 1751.771283 -576.501891 
L 1751.208916 -576.521784 
L 1750.646549 -576.541867 
L 1750.084183 -576.579415 
L 1749.521816 -576.630985 
L 1748.959449 -576.682305 
L 1748.397082 -576.721732 
L 1747.834715 -576.746338 
L 1747.272348 -576.760507 
L 1746.709982 -576.768371 
L 1746.147615 -576.771688 
L 1745.585248 -576.774033 
L 1745.022881 -576.778983 
L 1744.460514 -576.785254 
L 1743.898148 -576.78798 
L 1743.335781 -576.784419 
L 1742.773414 -576.77805 
L 1742.211047 -576.776172 
L 1741.64868 -576.782824 
L 1741.086314 -576.795152 
L 1740.523947 -576.806739 
L 1739.96158 -576.813151 
L 1739.399213 -576.813804 
L 1738.836846 -576.810655 
L 1738.274479 -576.807249 
L 1737.712113 -576.807045 
L 1737.149746 -576.810362 
L 1736.587379 -576.814328 
L 1736.025012 -576.816176 
L 1735.462645 -576.814947 
L 1734.900279 -576.811252 
L 1734.337912 -576.807514 
L 1733.775545 -576.806889 
L 1733.213178 -576.809984 
L 1732.650811 -576.814217 
L 1732.088445 -576.81711 
z
" id="m4af3898d40" style="stroke:#454545;stroke-width:2;"/>
    </defs>
    <g clip-path="url(#p682bca3c04)">
     <use style="fill:#ff964f;stroke:#454545;stroke-width:2;" x="0" xlink:href="#m4af3898d40" y="704.81875"/>
    </g>
   </g>
   <g id="PolyCollection_4">
    <defs>
     <path d="M 1692.570639 -528.496218 
L 1692.570639 -528.501282 
L 1692.944153 -528.505496 
L 1693.317667 -528.511714 
L 1693.691182 -528.516715 
L 1694.064696 -528.516703 
L 1694.438211 -528.511688 
L 1694.811725 -528.505474 
L 1695.185239 -528.50127 
L 1695.558754 -528.499431 
L 1695.932268 -528.498883 
L 1696.305783 -528.498769 
L 1696.679297 -528.498752 
L 1697.052811 -528.49875 
L 1697.426326 -528.49875 
L 1697.79984 -528.49875 
L 1698.173355 -528.49875 
L 1698.546869 -528.49875 
L 1698.920383 -528.498751 
L 1699.293898 -528.498758 
L 1699.667412 -528.498812 
L 1700.040927 -528.499113 
L 1700.414441 -528.500285 
L 1700.787955 -528.503432 
L 1701.16147 -528.50906 
L 1701.534984 -528.515187 
L 1701.908498 -528.518002 
L 1702.282013 -528.516433 
L 1702.655527 -528.514676 
L 1703.029042 -528.518141 
L 1703.402556 -528.528508 
L 1703.77607 -528.543966 
L 1704.149585 -528.560851 
L 1704.523099 -528.572958 
L 1704.896614 -528.574829 
L 1705.270128 -528.570275 
L 1705.643642 -528.571843 
L 1706.017157 -528.586098 
L 1706.390671 -528.60359 
L 1706.764186 -528.608618 
L 1707.1377 -528.596165 
L 1707.511214 -528.57499 
L 1707.884729 -528.556982 
L 1708.258243 -528.549133 
L 1708.631758 -528.555256 
L 1709.005272 -528.579017 
L 1709.378786 -528.6211 
L 1709.752301 -528.674236 
L 1710.125815 -528.726145 
L 1710.499329 -528.775214 
L 1710.872844 -528.839084 
L 1711.246358 -528.931531 
L 1711.619873 -529.034849 
L 1711.993387 -529.118147 
L 1712.366901 -529.179434 
L 1712.740416 -529.243286 
L 1713.11393 -529.320511 
L 1713.487445 -529.393948 
L 1713.860959 -529.440755 
L 1714.234473 -529.460532 
L 1714.607988 -529.494238 
L 1714.981502 -529.605293 
L 1715.355017 -529.816715 
L 1715.728531 -530.084351 
L 1716.102045 -530.348461 
L 1716.47556 -530.578495 
L 1716.849074 -530.763836 
L 1717.222588 -530.913425 
L 1717.596103 -531.075306 
L 1717.969617 -531.315009 
L 1718.343132 -531.659616 
L 1718.716646 -532.084235 
L 1719.09016 -532.559079 
L 1719.463675 -533.083211 
L 1719.837189 -533.674209 
L 1720.210704 -534.364083 
L 1720.584218 -535.193616 
L 1720.957732 -536.160578 
L 1721.331247 -537.190029 
L 1721.704761 -538.213617 
L 1722.078276 -539.259104 
L 1722.45179 -540.395476 
L 1722.825304 -541.613659 
L 1723.198819 -542.8335 
L 1723.572333 -544.008666 
L 1723.945848 -545.160572 
L 1724.319362 -546.292055 
L 1724.692876 -547.275532 
L 1725.066391 -547.82675 
L 1725.439905 -547.603388 
L 1725.813419 -546.395351 
L 1726.186934 -544.256576 
L 1726.560448 -541.431856 
L 1726.933963 -538.233152 
L 1727.307477 -535.057055 
L 1727.680991 -532.360018 
L 1728.054506 -530.44996 
L 1728.42802 -529.333685 
L 1728.801535 -528.797134 
L 1729.175049 -528.586287 
L 1729.548563 -528.519411 
L 1729.548563 -528.478089 
L 1729.548563 -528.478089 
L 1729.175049 -528.411213 
L 1728.801535 -528.200366 
L 1728.42802 -527.663815 
L 1728.054506 -526.54754 
L 1727.680991 -524.637482 
L 1727.307477 -521.940445 
L 1726.933963 -518.764348 
L 1726.560448 -515.565644 
L 1726.186934 -512.740924 
L 1725.813419 -510.602149 
L 1725.439905 -509.394112 
L 1725.066391 -509.17075 
L 1724.692876 -509.721968 
L 1724.319362 -510.705445 
L 1723.945848 -511.836928 
L 1723.572333 -512.988834 
L 1723.198819 -514.164 
L 1722.825304 -515.383841 
L 1722.45179 -516.602024 
L 1722.078276 -517.738396 
L 1721.704761 -518.783883 
L 1721.331247 -519.807471 
L 1720.957732 -520.836922 
L 1720.584218 -521.803884 
L 1720.210704 -522.633417 
L 1719.837189 -523.323291 
L 1719.463675 -523.914289 
L 1719.09016 -524.438421 
L 1718.716646 -524.913265 
L 1718.343132 -525.337884 
L 1717.969617 -525.682491 
L 1717.596103 -525.922194 
L 1717.222588 -526.084075 
L 1716.849074 -526.233664 
L 1716.47556 -526.419005 
L 1716.102045 -526.649039 
L 1715.728531 -526.913149 
L 1715.355017 -527.180785 
L 1714.981502 -527.392207 
L 1714.607988 -527.503262 
L 1714.234473 -527.536968 
L 1713.860959 -527.556745 
L 1713.487445 -527.603552 
L 1713.11393 -527.676989 
L 1712.740416 -527.754214 
L 1712.366901 -527.818066 
L 1711.993387 -527.879353 
L 1711.619873 -527.962651 
L 1711.246358 -528.065969 
L 1710.872844 -528.158416 
L 1710.499329 -528.222286 
L 1710.125815 -528.271355 
L 1709.752301 -528.323264 
L 1709.378786 -528.3764 
L 1709.005272 -528.418483 
L 1708.631758 -528.442244 
L 1708.258243 -528.448367 
L 1707.884729 -528.440518 
L 1707.511214 -528.42251 
L 1707.1377 -528.401335 
L 1706.764186 -528.388882 
L 1706.390671 -528.39391 
L 1706.017157 -528.411402 
L 1705.643642 -528.425657 
L 1705.270128 -528.427225 
L 1704.896614 -528.422671 
L 1704.523099 -528.424542 
L 1704.149585 -528.436649 
L 1703.77607 -528.453534 
L 1703.402556 -528.468992 
L 1703.029042 -528.479359 
L 1702.655527 -528.482824 
L 1702.282013 -528.481067 
L 1701.908498 -528.479498 
L 1701.534984 -528.482313 
L 1701.16147 -528.48844 
L 1700.787955 -528.494068 
L 1700.414441 -528.497215 
L 1700.040927 -528.498387 
L 1699.667412 -528.498688 
L 1699.293898 -528.498742 
L 1698.920383 -528.498749 
L 1698.546869 -528.49875 
L 1698.173355 -528.49875 
L 1697.79984 -528.49875 
L 1697.426326 -528.49875 
L 1697.052811 -528.49875 
L 1696.679297 -528.498748 
L 1696.305783 -528.498731 
L 1695.932268 -528.498617 
L 1695.558754 -528.498069 
L 1695.185239 -528.49623 
L 1694.811725 -528.492026 
L 1694.438211 -528.485812 
L 1694.064696 -528.480797 
L 1693.691182 -528.480785 
L 1693.317667 -528.485786 
L 1692.944153 -528.492004 
L 1692.570639 -528.496218 
z
" id="m822f35351e" style="stroke:#454545;stroke-width:2;"/>
    </defs>
    <g clip-path="url(#p682bca3c04)">
     <use style="fill:#e6ce74;stroke:#454545;stroke-width:2;" x="0" xlink:href="#m822f35351e" y="704.81875"/>
    </g>
   </g>
   <g id="PolyCollection_5">
    <defs>
     <path d="M 1632.880122 -480.176168 
L 1632.880122 -480.181332 
L 1634.459807 -480.187889 
L 1636.039492 -480.196168 
L 1637.619178 -480.196627 
L 1639.198863 -480.188629 
L 1640.778548 -480.18169 
L 1642.358233 -480.179221 
L 1643.937918 -480.178791 
L 1645.517604 -480.178752 
L 1647.097289 -480.17875 
L 1648.676974 -480.17875 
L 1650.256659 -480.17875 
L 1651.836344 -480.17875 
L 1653.416029 -480.178758 
L 1654.995715 -480.178885 
L 1656.5754 -480.179929 
L 1658.155085 -480.184287 
L 1659.73477 -480.192756 
L 1661.314455 -480.197826 
L 1662.894141 -480.19274 
L 1664.473826 -480.184275 
L 1666.053511 -480.179925 
L 1667.633196 -480.178885 
L 1669.212881 -480.178758 
L 1670.792567 -480.17875 
L 1672.372252 -480.17875 
L 1673.951937 -480.17875 
L 1675.531622 -480.17875 
L 1677.111307 -480.17875 
L 1678.690992 -480.17875 
L 1680.270678 -480.17875 
L 1681.850363 -480.17875 
L 1683.430048 -480.17875 
L 1685.009733 -480.17875 
L 1686.589418 -480.178751 
L 1688.169104 -480.178782 
L 1689.748789 -480.179137 
L 1691.328474 -480.181306 
L 1692.908159 -480.187834 
L 1694.487844 -480.196153 
L 1696.06753 -480.196949 
L 1697.647215 -480.190762 
L 1699.2269 -480.18971 
L 1700.806585 -480.19585 
L 1702.38627 -480.197982 
L 1703.965956 -480.19381 
L 1705.545641 -480.194085 
L 1707.125326 -480.198366 
L 1708.705011 -480.197358 
L 1710.284696 -480.197707 
L 1711.864381 -480.209779 
L 1713.444067 -480.222098 
L 1715.023752 -480.227344 
L 1716.603437 -480.243218 
L 1718.183122 -480.267905 
L 1719.762807 -480.278257 
L 1721.342493 -480.275719 
L 1722.922178 -480.276166 
L 1724.501863 -480.287285 
L 1726.081548 -480.304114 
L 1727.661233 -480.308707 
L 1729.240919 -480.303824 
L 1730.820604 -480.325075 
L 1732.400289 -480.388205 
L 1733.979974 -480.464037 
L 1735.559659 -480.52972 
L 1737.139344 -480.590046 
L 1738.71903 -480.647096 
L 1740.298715 -480.697367 
L 1741.8784 -480.742544 
L 1743.458085 -480.809812 
L 1745.03777 -480.952279 
L 1746.617456 -481.158018 
L 1748.197141 -481.319222 
L 1749.776826 -481.402245 
L 1751.356511 -481.499194 
L 1752.936196 -481.718296 
L 1754.515882 -482.137785 
L 1756.095567 -482.695351 
L 1757.675252 -483.272028 
L 1759.254937 -483.871047 
L 1760.834622 -484.514333 
L 1762.414307 -485.267723 
L 1763.993993 -486.316978 
L 1765.573678 -487.74997 
L 1767.153363 -489.446172 
L 1768.733048 -491.235905 
L 1770.312733 -493.157997 
L 1771.892419 -495.311998 
L 1773.472104 -497.484748 
L 1775.051789 -499.131465 
L 1776.631474 -499.50675 
L 1778.211159 -498.096846 
L 1779.790845 -494.938219 
L 1781.37053 -490.585466 
L 1782.950215 -486.124628 
L 1784.5299 -482.7822 
L 1786.109585 -481.015021 
L 1787.68927 -480.368575 
L 1789.268956 -480.207907 
L 1789.268956 -480.149593 
L 1789.268956 -480.149593 
L 1787.68927 -479.988925 
L 1786.109585 -479.342479 
L 1784.5299 -477.5753 
L 1782.950215 -474.232872 
L 1781.37053 -469.772034 
L 1779.790845 -465.419281 
L 1778.211159 -462.260654 
L 1776.631474 -460.85075 
L 1775.051789 -461.226035 
L 1773.472104 -462.872752 
L 1771.892419 -465.045502 
L 1770.312733 -467.199503 
L 1768.733048 -469.121595 
L 1767.153363 -470.911328 
L 1765.573678 -472.60753 
L 1763.993993 -474.040522 
L 1762.414307 -475.089777 
L 1760.834622 -475.843167 
L 1759.254937 -476.486453 
L 1757.675252 -477.085472 
L 1756.095567 -477.662149 
L 1754.515882 -478.219715 
L 1752.936196 -478.639204 
L 1751.356511 -478.858306 
L 1749.776826 -478.955255 
L 1748.197141 -479.038278 
L 1746.617456 -479.199482 
L 1745.03777 -479.405221 
L 1743.458085 -479.547688 
L 1741.8784 -479.614956 
L 1740.298715 -479.660133 
L 1738.71903 -479.710404 
L 1737.139344 -479.767454 
L 1735.559659 -479.82778 
L 1733.979974 -479.893463 
L 1732.400289 -479.969295 
L 1730.820604 -480.032425 
L 1729.240919 -480.053676 
L 1727.661233 -480.048793 
L 1726.081548 -480.053386 
L 1724.501863 -480.070215 
L 1722.922178 -480.081334 
L 1721.342493 -480.081781 
L 1719.762807 -480.079243 
L 1718.183122 -480.089595 
L 1716.603437 -480.114282 
L 1715.023752 -480.130156 
L 1713.444067 -480.135402 
L 1711.864381 -480.147721 
L 1710.284696 -480.159793 
L 1708.705011 -480.160142 
L 1707.125326 -480.159134 
L 1705.545641 -480.163415 
L 1703.965956 -480.16369 
L 1702.38627 -480.159518 
L 1700.806585 -480.16165 
L 1699.2269 -480.16779 
L 1697.647215 -480.166738 
L 1696.06753 -480.160551 
L 1694.487844 -480.161347 
L 1692.908159 -480.169666 
L 1691.328474 -480.176194 
L 1689.748789 -480.178363 
L 1688.169104 -480.178718 
L 1686.589418 -480.178749 
L 1685.009733 -480.17875 
L 1683.430048 -480.17875 
L 1681.850363 -480.17875 
L 1680.270678 -480.17875 
L 1678.690992 -480.17875 
L 1677.111307 -480.17875 
L 1675.531622 -480.17875 
L 1673.951937 -480.17875 
L 1672.372252 -480.17875 
L 1670.792567 -480.17875 
L 1669.212881 -480.178742 
L 1667.633196 -480.178615 
L 1666.053511 -480.177575 
L 1664.473826 -480.173225 
L 1662.894141 -480.16476 
L 1661.314455 -480.159674 
L 1659.73477 -480.164744 
L 1658.155085 -480.173213 
L 1656.5754 -480.177571 
L 1654.995715 -480.178615 
L 1653.416029 -480.178742 
L 1651.836344 -480.17875 
L 1650.256659 -480.17875 
L 1648.676974 -480.17875 
L 1647.097289 -480.17875 
L 1645.517604 -480.178748 
L 1643.937918 -480.178709 
L 1642.358233 -480.178279 
L 1640.778548 -480.17581 
L 1639.198863 -480.168871 
L 1637.619178 -480.160873 
L 1636.039492 -480.161332 
L 1634.459807 -480.169611 
L 1632.880122 -480.176168 
z
" id="ma10f2c3496" style="stroke:#454545;stroke-width:2;"/>
    </defs>
    <g clip-path="url(#p682bca3c04)">
     <use style="fill:#b3f396;stroke:#454545;stroke-width:2;" x="0" xlink:href="#ma10f2c3496" y="704.81875"/>
    </g>
   </g>
   <g id="PolyCollection_6">
    <defs>
     <path d="M 1666.000131 -431.857141 
L 1666.000131 -431.860359 
L 1667.269347 -431.86413 
L 1668.538562 -431.87053 
L 1669.807777 -431.875686 
L 1671.076992 -431.874834 
L 1672.346207 -431.869264 
L 1673.615422 -431.865052 
L 1674.884637 -431.865326 
L 1676.153853 -431.867515 
L 1677.423068 -431.867585 
L 1678.692283 -431.865686 
L 1679.961498 -431.865313 
L 1681.230713 -431.867136 
L 1682.499928 -431.867815 
L 1683.769144 -431.865746 
L 1685.038359 -431.863832 
L 1686.307574 -431.864935 
L 1687.576789 -431.8679 
L 1688.846004 -431.870337 
L 1690.115219 -431.873898 
L 1691.384434 -431.881267 
L 1692.65365 -431.888293 
L 1693.922865 -431.88817 
L 1695.19208 -431.881539 
L 1696.461295 -431.874686 
L 1697.73051 -431.872309 
L 1698.999725 -431.874502 
L 1700.268941 -431.877817 
L 1701.538156 -431.879952 
L 1702.807371 -431.881912 
L 1704.076586 -431.885358 
L 1705.345801 -431.891649 
L 1706.615016 -431.903749 
L 1707.884231 -431.925332 
L 1709.153447 -431.953967 
L 1710.422662 -431.976989 
L 1711.691877 -431.98375 
L 1712.961092 -431.982258 
L 1714.230307 -431.991693 
L 1715.499522 -432.015166 
L 1716.768738 -432.034319 
L 1718.037953 -432.036073 
L 1719.307168 -432.028422 
L 1720.576383 -432.027483 
L 1721.845598 -432.039382 
L 1723.114813 -432.058436 
L 1724.384028 -432.078462 
L 1725.653244 -432.097551 
L 1726.922459 -432.119328 
L 1728.191674 -432.157207 
L 1729.460889 -432.224445 
L 1730.730104 -432.309032 
L 1731.999319 -432.379127 
L 1733.268535 -432.420407 
L 1734.53775 -432.444109 
L 1735.806965 -432.468844 
L 1737.07618 -432.512274 
L 1738.345395 -432.587413 
L 1739.61461 -432.69567 
L 1740.883825 -432.82816 
L 1742.153041 -432.975659 
L 1743.422256 -433.126345 
L 1744.691471 -433.269909 
L 1745.960686 -433.413747 
L 1747.229901 -433.575339 
L 1748.499116 -433.764083 
L 1749.768331 -433.982408 
L 1751.037547 -434.247337 
L 1752.306762 -434.589028 
L 1753.575977 -434.997901 
L 1754.845192 -435.426186 
L 1756.114407 -435.858134 
L 1757.383622 -436.300367 
L 1758.652838 -436.773048 
L 1759.922053 -437.333815 
L 1761.191268 -438.004209 
L 1762.460483 -438.744839 
L 1763.729698 -439.562978 
L 1764.998913 -440.560238 
L 1766.268128 -441.822192 
L 1767.537344 -443.299111 
L 1768.806559 -444.873138 
L 1770.075774 -446.476348 
L 1771.344989 -448.013899 
L 1772.614204 -449.319593 
L 1773.883419 -450.304393 
L 1775.152635 -450.967288 
L 1776.42185 -451.18675 
L 1777.691065 -450.678001 
L 1778.96028 -449.256914 
L 1780.229495 -446.979727 
L 1781.49871 -443.988172 
L 1782.767925 -440.555302 
L 1784.037141 -437.262109 
L 1785.306356 -434.714549 
L 1786.575571 -433.127667 
L 1787.844786 -432.327571 
L 1789.114001 -432.001504 
L 1790.383216 -431.894109 
L 1791.652432 -431.865652 
L 1791.652432 -431.851848 
L 1791.652432 -431.851848 
L 1790.383216 -431.823391 
L 1789.114001 -431.715996 
L 1787.844786 -431.389929 
L 1786.575571 -430.589833 
L 1785.306356 -429.002951 
L 1784.037141 -426.455391 
L 1782.767925 -423.162198 
L 1781.49871 -419.729328 
L 1780.229495 -416.737773 
L 1778.96028 -414.460586 
L 1777.691065 -413.039499 
L 1776.42185 -412.53075 
L 1775.152635 -412.750212 
L 1773.883419 -413.413107 
L 1772.614204 -414.397907 
L 1771.344989 -415.703601 
L 1770.075774 -417.241152 
L 1768.806559 -418.844362 
L 1767.537344 -420.418389 
L 1766.268128 -421.895308 
L 1764.998913 -423.157262 
L 1763.729698 -424.154522 
L 1762.460483 -424.972661 
L 1761.191268 -425.713291 
L 1759.922053 -426.383685 
L 1758.652838 -426.944452 
L 1757.383622 -427.417133 
L 1756.114407 -427.859366 
L 1754.845192 -428.291314 
L 1753.575977 -428.719599 
L 1752.306762 -429.128472 
L 1751.037547 -429.470163 
L 1749.768331 -429.735092 
L 1748.499116 -429.953417 
L 1747.229901 -430.142161 
L 1745.960686 -430.303753 
L 1744.691471 -430.447591 
L 1743.422256 -430.591155 
L 1742.153041 -430.741841 
L 1740.883825 -430.88934 
L 1739.61461 -431.02183 
L 1738.345395 -431.130087 
L 1737.07618 -431.205226 
L 1735.806965 -431.248656 
L 1734.53775 -431.273391 
L 1733.268535 -431.297093 
L 1731.999319 -431.338373 
L 1730.730104 -431.408468 
L 1729.460889 -431.493055 
L 1728.191674 -431.560293 
L 1726.922459 -431.598172 
L 1725.653244 -431.619949 
L 1724.384028 -431.639038 
L 1723.114813 -431.659064 
L 1721.845598 -431.678118 
L 1720.576383 -431.690017 
L 1719.307168 -431.689078 
L 1718.037953 -431.681427 
L 1716.768738 -431.683181 
L 1715.499522 -431.702334 
L 1714.230307 -431.725807 
L 1712.961092 -431.735242 
L 1711.691877 -431.73375 
L 1710.422662 -431.740511 
L 1709.153447 -431.763533 
L 1707.884231 -431.792168 
L 1706.615016 -431.813751 
L 1705.345801 -431.825851 
L 1704.076586 -431.832142 
L 1702.807371 -431.835588 
L 1701.538156 -431.837548 
L 1700.268941 -431.839683 
L 1698.999725 -431.842998 
L 1697.73051 -431.845191 
L 1696.461295 -431.842814 
L 1695.19208 -431.835961 
L 1693.922865 -431.82933 
L 1692.65365 -431.829207 
L 1691.384434 -431.836233 
L 1690.115219 -431.843602 
L 1688.846004 -431.847163 
L 1687.576789 -431.8496 
L 1686.307574 -431.852565 
L 1685.038359 -431.853668 
L 1683.769144 -431.851754 
L 1682.499928 -431.849685 
L 1681.230713 -431.850364 
L 1679.961498 -431.852187 
L 1678.692283 -431.851814 
L 1677.423068 -431.849915 
L 1676.153853 -431.849985 
L 1674.884637 -431.852174 
L 1673.615422 -431.852448 
L 1672.346207 -431.848236 
L 1671.076992 -431.842666 
L 1669.807777 -431.841814 
L 1668.538562 -431.84697 
L 1667.269347 -431.85337 
L 1666.000131 -431.857141 
z
" id="mc9be03caf7" style="stroke:#454545;stroke-width:2;"/>
    </defs>
    <g clip-path="url(#p682bca3c04)">
     <use style="fill:#80ffb4;stroke:#454545;stroke-width:2;" x="0" xlink:href="#mc9be03caf7" y="704.81875"/>
    </g>
   </g>
   <g id="PolyCollection_7">
    <defs>
     <path d="M 1746.127684 -383.537652 
L 1746.127684 -383.539848 
L 1746.634009 -383.542424 
L 1747.140334 -383.545848 
L 1747.646659 -383.546665 
L 1748.152984 -383.543846 
L 1748.659309 -383.540645 
L 1749.165634 -383.539157 
L 1749.671959 -383.5388 
L 1750.178284 -383.538754 
L 1750.684609 -383.538755 
L 1751.190934 -383.538815 
L 1751.697259 -383.539247 
L 1752.203584 -383.540926 
L 1752.70991 -383.544253 
L 1753.216235 -383.546791 
L 1753.72256 -383.545597 
L 1754.228885 -383.542664 
L 1754.73521 -383.54277 
L 1755.241535 -383.548221 
L 1755.74786 -383.55645 
L 1756.254185 -383.562142 
L 1756.76051 -383.563408 
L 1757.266835 -383.561587 
L 1757.77316 -383.55999 
L 1758.279485 -383.560941 
L 1758.78581 -383.562037 
L 1759.292135 -383.562059 
L 1759.79846 -383.562911 
L 1760.304785 -383.566092 
L 1760.81111 -383.569348 
L 1761.317435 -383.57051 
L 1761.82376 -383.572343 
L 1762.330085 -383.571998 
L 1762.83641 -383.563752 
L 1763.342736 -383.554862 
L 1763.849061 -383.557108 
L 1764.355386 -383.567812 
L 1764.861711 -383.572912 
L 1765.368036 -383.57086 
L 1765.874361 -383.572645 
L 1766.380686 -383.576239 
L 1766.887011 -383.575005 
L 1767.393336 -383.575246 
L 1767.899661 -383.579533 
L 1768.405986 -383.584924 
L 1768.912311 -383.597408 
L 1769.418636 -383.618831 
L 1769.924961 -383.637716 
L 1770.431286 -383.650334 
L 1770.937611 -383.66722 
L 1771.443936 -383.692617 
L 1771.950261 -383.717292 
L 1772.456586 -383.726308 
L 1772.962911 -383.722262 
L 1773.469236 -383.735993 
L 1773.975562 -383.774635 
L 1774.481887 -383.80553 
L 1774.988212 -383.827792 
L 1775.494537 -383.87625 
L 1776.000862 -383.951742 
L 1776.507187 -384.018877 
L 1777.013512 -384.062113 
L 1777.519837 -384.106876 
L 1778.026162 -384.183776 
L 1778.532487 -384.292524 
L 1779.038812 -384.401663 
L 1779.545137 -384.482441 
L 1780.051462 -384.537782 
L 1780.557787 -384.600854 
L 1781.064112 -384.718049 
L 1781.570437 -384.907599 
L 1782.076762 -385.127617 
L 1782.583087 -385.329231 
L 1783.089412 -385.531816 
L 1783.595737 -385.788208 
L 1784.102062 -386.107931 
L 1784.608388 -386.452872 
L 1785.114713 -386.805349 
L 1785.621038 -387.23847 
L 1786.127363 -387.857441 
L 1786.633688 -388.689444 
L 1787.140013 -389.664231 
L 1787.646338 -390.689421 
L 1788.152663 -391.763361 
L 1788.658988 -392.959863 
L 1789.165313 -394.298971 
L 1789.671638 -395.711033 
L 1790.177963 -397.171043 
L 1790.684288 -398.753253 
L 1791.190613 -400.426318 
L 1791.696938 -401.930414 
L 1792.203263 -402.86675 
L 1792.709588 -402.757172 
L 1793.215913 -401.080413 
L 1793.722238 -397.570224 
L 1794.228563 -392.801779 
L 1794.734888 -388.269398 
L 1795.241214 -385.297318 
L 1795.747539 -383.990196 
L 1796.253864 -383.615424 
L 1796.253864 -383.462076 
L 1796.253864 -383.462076 
L 1795.747539 -383.087304 
L 1795.241214 -381.780182 
L 1794.734888 -378.808102 
L 1794.228563 -374.275721 
L 1793.722238 -369.507276 
L 1793.215913 -365.997087 
L 1792.709588 -364.320328 
L 1792.203263 -364.21075 
L 1791.696938 -365.147086 
L 1791.190613 -366.651182 
L 1790.684288 -368.324247 
L 1790.177963 -369.906457 
L 1789.671638 -371.366467 
L 1789.165313 -372.778529 
L 1788.658988 -374.117637 
L 1788.152663 -375.314139 
L 1787.646338 -376.388079 
L 1787.140013 -377.413269 
L 1786.633688 -378.388056 
L 1786.127363 -379.220059 
L 1785.621038 -379.83903 
L 1785.114713 -380.272151 
L 1784.608388 -380.624628 
L 1784.102062 -380.969569 
L 1783.595737 -381.289292 
L 1783.089412 -381.545684 
L 1782.583087 -381.748269 
L 1782.076762 -381.949883 
L 1781.570437 -382.169901 
L 1781.064112 -382.359451 
L 1780.557787 -382.476646 
L 1780.051462 -382.539718 
L 1779.545137 -382.595059 
L 1779.038812 -382.675837 
L 1778.532487 -382.784976 
L 1778.026162 -382.893724 
L 1777.519837 -382.970624 
L 1777.013512 -383.015387 
L 1776.507187 -383.058623 
L 1776.000862 -383.125758 
L 1775.494537 -383.20125 
L 1774.988212 -383.249708 
L 1774.481887 -383.27197 
L 1773.975562 -383.302865 
L 1773.469236 -383.341507 
L 1772.962911 -383.355238 
L 1772.456586 -383.351192 
L 1771.950261 -383.360208 
L 1771.443936 -383.384883 
L 1770.937611 -383.41028 
L 1770.431286 -383.427166 
L 1769.924961 -383.439784 
L 1769.418636 -383.458669 
L 1768.912311 -383.480092 
L 1768.405986 -383.492576 
L 1767.899661 -383.497967 
L 1767.393336 -383.502254 
L 1766.887011 -383.502495 
L 1766.380686 -383.501261 
L 1765.874361 -383.504855 
L 1765.368036 -383.50664 
L 1764.861711 -383.504588 
L 1764.355386 -383.509688 
L 1763.849061 -383.520392 
L 1763.342736 -383.522638 
L 1762.83641 -383.513748 
L 1762.330085 -383.505502 
L 1761.82376 -383.505157 
L 1761.317435 -383.50699 
L 1760.81111 -383.508152 
L 1760.304785 -383.511408 
L 1759.79846 -383.514589 
L 1759.292135 -383.515441 
L 1758.78581 -383.515463 
L 1758.279485 -383.516559 
L 1757.77316 -383.51751 
L 1757.266835 -383.515913 
L 1756.76051 -383.514092 
L 1756.254185 -383.515358 
L 1755.74786 -383.52105 
L 1755.241535 -383.529279 
L 1754.73521 -383.53473 
L 1754.228885 -383.534836 
L 1753.72256 -383.531903 
L 1753.216235 -383.530709 
L 1752.70991 -383.533247 
L 1752.203584 -383.536574 
L 1751.697259 -383.538253 
L 1751.190934 -383.538685 
L 1750.684609 -383.538745 
L 1750.178284 -383.538746 
L 1749.671959 -383.5387 
L 1749.165634 -383.538343 
L 1748.659309 -383.536855 
L 1748.152984 -383.533654 
L 1747.646659 -383.530835 
L 1747.140334 -383.531652 
L 1746.634009 -383.535076 
L 1746.127684 -383.537652 
z
" id="m728485423b" style="stroke:#454545;stroke-width:2;"/>
    </defs>
    <g clip-path="url(#p682bca3c04)">
     <use style="fill:#4df3ce;stroke:#454545;stroke-width:2;" x="0" xlink:href="#m728485423b" y="704.81875"/>
    </g>
   </g>
   <g id="PolyCollection_8">
    <defs>
     <path d="M 1707.181213 -335.217626 
L 1707.181213 -335.219874 
L 1708.071415 -335.223102 
L 1708.961618 -335.22675 
L 1709.85182 -335.225731 
L 1710.742023 -335.221642 
L 1711.632225 -335.219319 
L 1712.522428 -335.218803 
L 1713.41263 -335.218752 
L 1714.302832 -335.218752 
L 1715.193035 -335.218795 
L 1716.083237 -335.219256 
L 1716.97344 -335.221438 
L 1717.863642 -335.225563 
L 1718.753845 -335.227418 
L 1719.644047 -335.227034 
L 1720.53425 -335.231338 
L 1721.424452 -335.235513 
L 1722.314654 -335.2303 
L 1723.204857 -335.22256 
L 1724.095059 -335.219347 
L 1724.985262 -335.218794 
L 1725.875464 -335.218752 
L 1726.765667 -335.21875 
L 1727.655869 -335.21875 
L 1728.546072 -335.218759 
L 1729.436274 -335.218906 
L 1730.326476 -335.219974 
L 1731.216679 -335.223317 
L 1732.106881 -335.226838 
L 1732.997084 -335.225549 
L 1733.887286 -335.221464 
L 1734.777489 -335.21927 
L 1735.667691 -335.21891 
L 1736.557894 -335.219736 
L 1737.448096 -335.222783 
L 1738.338298 -335.226616 
L 1739.228501 -335.226393 
L 1740.118703 -335.225171 
L 1741.008906 -335.232127 
L 1741.899108 -335.243663 
L 1742.789311 -335.245871 
L 1743.679513 -335.243514 
L 1744.569716 -335.250589 
L 1745.459918 -335.264422 
L 1746.35012 -335.272467 
L 1747.240323 -335.274035 
L 1748.130525 -335.276053 
L 1749.020728 -335.280702 
L 1749.91093 -335.282429 
L 1750.801133 -335.275851 
L 1751.691335 -335.273511 
L 1752.581538 -335.277291 
L 1753.47174 -335.276808 
L 1754.361942 -335.283351 
L 1755.252145 -335.2969 
L 1756.142347 -335.311302 
L 1757.03255 -335.336427 
L 1757.922752 -335.362669 
L 1758.812955 -335.375686 
L 1759.703157 -335.384046 
L 1760.59336 -335.3941 
L 1761.483562 -335.416504 
L 1762.373764 -335.467856 
L 1763.263967 -335.526711 
L 1764.154169 -335.569318 
L 1765.044372 -335.613615 
L 1765.934574 -335.666769 
L 1766.824777 -335.739769 
L 1767.714979 -335.848369 
L 1768.605182 -335.959909 
L 1769.495384 -336.021045 
L 1770.385586 -336.08239 
L 1771.275789 -336.244876 
L 1772.165991 -336.47409 
L 1773.056194 -336.712309 
L 1773.946396 -336.983468 
L 1774.836599 -337.262133 
L 1775.726801 -337.545362 
L 1776.617004 -337.929526 
L 1777.507206 -338.387787 
L 1778.397408 -338.834402 
L 1779.287611 -339.330212 
L 1780.177813 -339.934447 
L 1781.068016 -340.733334 
L 1781.958218 -341.81441 
L 1782.848421 -343.136993 
L 1783.738623 -344.696102 
L 1784.628826 -346.475256 
L 1785.519028 -348.411649 
L 1786.40923 -350.367301 
L 1787.299433 -352.112811 
L 1788.189635 -353.599997 
L 1789.079838 -354.54675 
L 1789.97004 -354.187534 
L 1790.860243 -351.857261 
L 1791.750445 -347.419591 
L 1792.640648 -341.982328 
L 1793.53085 -337.777251 
L 1794.421052 -335.824907 
L 1795.311255 -335.302528 
L 1795.311255 -335.134972 
L 1795.311255 -335.134972 
L 1794.421052 -334.612593 
L 1793.53085 -332.660249 
L 1792.640648 -328.455172 
L 1791.750445 -323.017909 
L 1790.860243 -318.580239 
L 1789.97004 -316.249966 
L 1789.079838 -315.89075 
L 1788.189635 -316.837503 
L 1787.299433 -318.324689 
L 1786.40923 -320.070199 
L 1785.519028 -322.025851 
L 1784.628826 -323.962244 
L 1783.738623 -325.741398 
L 1782.848421 -327.300507 
L 1781.958218 -328.62309 
L 1781.068016 -329.704166 
L 1780.177813 -330.503053 
L 1779.287611 -331.107288 
L 1778.397408 -331.603098 
L 1777.507206 -332.049713 
L 1776.617004 -332.507974 
L 1775.726801 -332.892138 
L 1774.836599 -333.175367 
L 1773.946396 -333.454032 
L 1773.056194 -333.725191 
L 1772.165991 -333.96341 
L 1771.275789 -334.192624 
L 1770.385586 -334.35511 
L 1769.495384 -334.416455 
L 1768.605182 -334.477591 
L 1767.714979 -334.589131 
L 1766.824777 -334.697731 
L 1765.934574 -334.770731 
L 1765.044372 -334.823885 
L 1764.154169 -334.868182 
L 1763.263967 -334.910789 
L 1762.373764 -334.969644 
L 1761.483562 -335.020996 
L 1760.59336 -335.0434 
L 1759.703157 -335.053454 
L 1758.812955 -335.061814 
L 1757.922752 -335.074831 
L 1757.03255 -335.101073 
L 1756.142347 -335.126198 
L 1755.252145 -335.1406 
L 1754.361942 -335.154149 
L 1753.47174 -335.160692 
L 1752.581538 -335.160209 
L 1751.691335 -335.163989 
L 1750.801133 -335.161649 
L 1749.91093 -335.155071 
L 1749.020728 -335.156798 
L 1748.130525 -335.161447 
L 1747.240323 -335.163465 
L 1746.35012 -335.165033 
L 1745.459918 -335.173078 
L 1744.569716 -335.186911 
L 1743.679513 -335.193986 
L 1742.789311 -335.191629 
L 1741.899108 -335.193837 
L 1741.008906 -335.205373 
L 1740.118703 -335.212329 
L 1739.228501 -335.211107 
L 1738.338298 -335.210884 
L 1737.448096 -335.214717 
L 1736.557894 -335.217764 
L 1735.667691 -335.21859 
L 1734.777489 -335.21823 
L 1733.887286 -335.216036 
L 1732.997084 -335.211951 
L 1732.106881 -335.210662 
L 1731.216679 -335.214183 
L 1730.326476 -335.217526 
L 1729.436274 -335.218594 
L 1728.546072 -335.218741 
L 1727.655869 -335.21875 
L 1726.765667 -335.21875 
L 1725.875464 -335.218748 
L 1724.985262 -335.218706 
L 1724.095059 -335.218153 
L 1723.204857 -335.21494 
L 1722.314654 -335.2072 
L 1721.424452 -335.201987 
L 1720.53425 -335.206162 
L 1719.644047 -335.210466 
L 1718.753845 -335.210082 
L 1717.863642 -335.211937 
L 1716.97344 -335.216062 
L 1716.083237 -335.218244 
L 1715.193035 -335.218705 
L 1714.302832 -335.218748 
L 1713.41263 -335.218748 
L 1712.522428 -335.218697 
L 1711.632225 -335.218181 
L 1710.742023 -335.215858 
L 1709.85182 -335.211769 
L 1708.961618 -335.21075 
L 1708.071415 -335.214398 
L 1707.181213 -335.217626 
z
" id="m3e17f07ece" style="stroke:#454545;stroke-width:2;"/>
    </defs>
    <g clip-path="url(#p682bca3c04)">
     <use style="fill:#1acee3;stroke:#454545;stroke-width:2;" x="0" xlink:href="#m3e17f07ece" y="704.81875"/>
    </g>
   </g>
   <g id="PolyCollection_9">
    <defs>
     <path d="M 1550.82815 -286.897811 
L 1550.82815 -286.899689 
L 1551.508187 -286.901373 
L 1552.188224 -286.903831 
L 1552.868262 -286.905574 
L 1553.548299 -286.905107 
L 1554.228336 -286.902861 
L 1554.908373 -286.900626 
L 1555.58841 -286.899535 
L 1556.268447 -286.899751 
L 1556.948484 -286.901274 
L 1557.628521 -286.903737 
L 1558.308559 -286.905801 
L 1558.988596 -286.906446 
L 1559.668633 -286.90703 
L 1560.34867 -286.909883 
L 1561.028707 -286.914467 
L 1561.708744 -286.917358 
L 1562.388781 -286.916644 
L 1563.068818 -286.914121 
L 1563.748856 -286.912707 
L 1564.428893 -286.913466 
L 1565.10893 -286.915763 
L 1565.788967 -286.919236 
L 1566.469004 -286.924036 
L 1567.149041 -286.929273 
L 1567.829078 -286.933221 
L 1568.509115 -286.935441 
L 1569.189153 -286.936764 
L 1569.86919 -286.937678 
L 1570.549227 -286.939311 
L 1571.229264 -286.944351 
L 1571.909301 -286.954171 
L 1572.589338 -286.967004 
L 1573.269375 -286.980677 
L 1573.949412 -286.993722 
L 1574.62945 -287.002125 
L 1575.309487 -287.00013 
L 1575.989524 -286.98815 
L 1576.669561 -286.977398 
L 1577.349598 -286.982923 
L 1578.029635 -287.010183 
L 1578.709672 -287.050297 
L 1579.389709 -287.090383 
L 1580.069747 -287.122931 
L 1580.749784 -287.141659 
L 1581.429821 -287.140093 
L 1582.109858 -287.123331 
L 1582.789895 -287.111259 
L 1583.469932 -287.12181 
L 1584.149969 -287.155035 
L 1584.830006 -287.195812 
L 1585.510044 -287.228094 
L 1586.190081 -287.244495 
L 1586.870118 -287.248728 
L 1587.550155 -287.255403 
L 1588.230192 -287.283018 
L 1588.910229 -287.338965 
L 1589.590266 -287.411196 
L 1590.270304 -287.480165 
L 1590.950341 -287.540036 
L 1591.630378 -287.605424 
L 1592.310415 -287.693566 
L 1592.990452 -287.795287 
L 1593.670489 -287.875745 
L 1594.350526 -287.920947 
L 1595.030563 -287.964884 
L 1595.710601 -288.049088 
L 1596.390638 -288.180652 
L 1597.070675 -288.343879 
L 1597.750712 -288.523388 
L 1598.430749 -288.713027 
L 1599.110786 -288.922814 
L 1599.790823 -289.170647 
L 1600.47086 -289.458389 
L 1601.150898 -289.768903 
L 1601.830935 -290.089597 
L 1602.510972 -290.42462 
L 1603.191009 -290.785782 
L 1603.871046 -291.184473 
L 1604.551083 -291.636921 
L 1605.23112 -292.167937 
L 1605.911157 -292.785876 
L 1606.591195 -293.458791 
L 1607.271232 -294.141162 
L 1607.951269 -294.820014 
L 1608.631306 -295.538176 
L 1609.311343 -296.384199 
L 1609.99138 -297.450498 
L 1610.671417 -298.792379 
L 1611.351454 -300.396649 
L 1612.031492 -302.153392 
L 1612.711529 -303.885043 
L 1613.391566 -305.388548 
L 1614.071603 -306.22675 
L 1614.75164 -305.456766 
L 1615.431677 -302.239676 
L 1616.111714 -297.156746 
L 1616.791751 -292.191609 
L 1617.471789 -288.939762 
L 1618.151826 -287.474647 
L 1618.151826 -286.322853 
L 1618.151826 -286.322853 
L 1617.471789 -284.857738 
L 1616.791751 -281.605891 
L 1616.111714 -276.640754 
L 1615.431677 -271.557824 
L 1614.75164 -268.340734 
L 1614.071603 -267.57075 
L 1613.391566 -268.408952 
L 1612.711529 -269.912457 
L 1612.031492 -271.644108 
L 1611.351454 -273.400851 
L 1610.671417 -275.005121 
L 1609.99138 -276.347002 
L 1609.311343 -277.413301 
L 1608.631306 -278.259324 
L 1607.951269 -278.977486 
L 1607.271232 -279.656338 
L 1606.591195 -280.338709 
L 1605.911157 -281.011624 
L 1605.23112 -281.629563 
L 1604.551083 -282.160579 
L 1603.871046 -282.613027 
L 1603.191009 -283.011718 
L 1602.510972 -283.37288 
L 1601.830935 -283.707903 
L 1601.150898 -284.028597 
L 1600.47086 -284.339111 
L 1599.790823 -284.626853 
L 1599.110786 -284.874686 
L 1598.430749 -285.084473 
L 1597.750712 -285.274112 
L 1597.070675 -285.453621 
L 1596.390638 -285.616848 
L 1595.710601 -285.748412 
L 1595.030563 -285.832616 
L 1594.350526 -285.876553 
L 1593.670489 -285.921755 
L 1592.990452 -286.002213 
L 1592.310415 -286.103934 
L 1591.630378 -286.192076 
L 1590.950341 -286.257464 
L 1590.270304 -286.317335 
L 1589.590266 -286.386304 
L 1588.910229 -286.458535 
L 1588.230192 -286.514482 
L 1587.550155 -286.542097 
L 1586.870118 -286.548772 
L 1586.190081 -286.553005 
L 1585.510044 -286.569406 
L 1584.830006 -286.601688 
L 1584.149969 -286.642465 
L 1583.469932 -286.67569 
L 1582.789895 -286.686241 
L 1582.109858 -286.674169 
L 1581.429821 -286.657407 
L 1580.749784 -286.655841 
L 1580.069747 -286.674569 
L 1579.389709 -286.707117 
L 1578.709672 -286.747203 
L 1578.029635 -286.787317 
L 1577.349598 -286.814577 
L 1576.669561 -286.820102 
L 1575.989524 -286.80935 
L 1575.309487 -286.79737 
L 1574.62945 -286.795375 
L 1573.949412 -286.803778 
L 1573.269375 -286.816823 
L 1572.589338 -286.830496 
L 1571.909301 -286.843329 
L 1571.229264 -286.853149 
L 1570.549227 -286.858189 
L 1569.86919 -286.859822 
L 1569.189153 -286.860736 
L 1568.509115 -286.862059 
L 1567.829078 -286.864279 
L 1567.149041 -286.868227 
L 1566.469004 -286.873464 
L 1565.788967 -286.878264 
L 1565.10893 -286.881737 
L 1564.428893 -286.884034 
L 1563.748856 -286.884793 
L 1563.068818 -286.883379 
L 1562.388781 -286.880856 
L 1561.708744 -286.880142 
L 1561.028707 -286.883033 
L 1560.34867 -286.887617 
L 1559.668633 -286.89047 
L 1558.988596 -286.891054 
L 1558.308559 -286.891699 
L 1557.628521 -286.893763 
L 1556.948484 -286.896226 
L 1556.268447 -286.897749 
L 1555.58841 -286.897965 
L 1554.908373 -286.896874 
L 1554.228336 -286.894639 
L 1553.548299 -286.892393 
L 1552.868262 -286.891926 
L 1552.188224 -286.893669 
L 1551.508187 -286.896127 
L 1550.82815 -286.897811 
z
" id="m1aaf75c1e2" style="stroke:#454545;stroke-width:2;"/>
    </defs>
    <g clip-path="url(#p682bca3c04)">
     <use style="fill:#1996f3;stroke:#454545;stroke-width:2;" x="0" xlink:href="#m1aaf75c1e2" y="704.81875"/>
    </g>
   </g>
   <g id="PolyCollection_10">
    <defs>
     <path d="M 1642.128764 -238.57733 
L 1642.128764 -238.58017 
L 1643.633227 -238.582894 
L 1645.13769 -238.586935 
L 1646.642153 -238.590103 
L 1648.146616 -238.591341 
L 1649.65108 -238.593209 
L 1651.155543 -238.597237 
L 1652.660006 -238.599502 
L 1654.164469 -238.595959 
L 1655.668932 -238.588767 
L 1657.173396 -238.583051 
L 1658.677859 -238.581278 
L 1660.182322 -238.583322 
L 1661.686785 -238.588018 
L 1663.191248 -238.592972 
L 1664.695712 -238.595517 
L 1666.200175 -238.594448 
L 1667.704638 -238.590442 
L 1669.209101 -238.586362 
L 1670.713565 -238.586357 
L 1672.218028 -238.593044 
L 1673.722491 -238.605222 
L 1675.226954 -238.618343 
L 1676.731417 -238.62801 
L 1678.235881 -238.633541 
L 1679.740344 -238.637625 
L 1681.244807 -238.641542 
L 1682.74927 -238.643821 
L 1684.253733 -238.643535 
L 1685.758197 -238.640557 
L 1687.26266 -238.637326 
L 1688.767123 -238.640114 
L 1690.271586 -238.653196 
L 1691.776049 -238.674185 
L 1693.280513 -238.695513 
L 1694.784976 -238.708657 
L 1696.289439 -238.711515 
L 1697.793902 -238.718192 
L 1699.298365 -238.750732 
L 1700.802829 -238.811274 
L 1702.307292 -238.876001 
L 1703.811755 -238.920633 
L 1705.316218 -238.941519 
L 1706.820681 -238.954334 
L 1708.325145 -238.976165 
L 1709.829608 -239.013115 
L 1711.334071 -239.067223 
L 1712.838534 -239.133553 
L 1714.342998 -239.189662 
L 1715.847461 -239.223242 
L 1717.351924 -239.264835 
L 1718.856387 -239.356683 
L 1720.36085 -239.503598 
L 1721.865314 -239.67476 
L 1723.369777 -239.836745 
L 1724.87424 -239.98183 
L 1726.378703 -240.129477 
L 1727.883166 -240.302129 
L 1729.38763 -240.514955 
L 1730.892093 -240.787461 
L 1732.396556 -241.121821 
L 1733.901019 -241.461581 
L 1735.405482 -241.738288 
L 1736.909946 -241.974915 
L 1738.414409 -242.274579 
L 1739.918872 -242.703454 
L 1741.423335 -243.241898 
L 1742.927798 -243.834032 
L 1744.432262 -244.454603 
L 1745.936725 -245.130371 
L 1747.441188 -245.890329 
L 1748.945651 -246.760459 
L 1750.450115 -247.804156 
L 1751.954578 -249.017816 
L 1753.459041 -250.251212 
L 1754.963504 -251.383314 
L 1756.467967 -252.474878 
L 1757.972431 -253.638329 
L 1759.476894 -254.850536 
L 1760.981357 -255.981709 
L 1762.48582 -256.914205 
L 1763.990283 -257.572287 
L 1765.494747 -257.90675 
L 1766.99921 -257.887612 
L 1768.503673 -257.50829 
L 1770.008136 -256.762396 
L 1771.512599 -255.573823 
L 1773.017063 -253.825706 
L 1774.521526 -251.529802 
L 1776.025989 -248.901672 
L 1777.530452 -246.255324 
L 1779.034915 -243.869756 
L 1780.539379 -241.921768 
L 1782.043842 -240.478439 
L 1783.548305 -239.522299 
L 1785.052768 -238.975784 
L 1786.557231 -238.717779 
L 1788.061695 -238.619686 
L 1789.566158 -238.589185 
L 1791.070621 -238.581053 
L 1791.070621 -238.576447 
L 1791.070621 -238.576447 
L 1789.566158 -238.568315 
L 1788.061695 -238.537814 
L 1786.557231 -238.439721 
L 1785.052768 -238.181716 
L 1783.548305 -237.635201 
L 1782.043842 -236.679061 
L 1780.539379 -235.235732 
L 1779.034915 -233.287744 
L 1777.530452 -230.902176 
L 1776.025989 -228.255828 
L 1774.521526 -225.627698 
L 1773.017063 -223.331794 
L 1771.512599 -221.583677 
L 1770.008136 -220.395104 
L 1768.503673 -219.64921 
L 1766.99921 -219.269888 
L 1765.494747 -219.25075 
L 1763.990283 -219.585213 
L 1762.48582 -220.243295 
L 1760.981357 -221.175791 
L 1759.476894 -222.306964 
L 1757.972431 -223.519171 
L 1756.467967 -224.682622 
L 1754.963504 -225.774186 
L 1753.459041 -226.906288 
L 1751.954578 -228.139684 
L 1750.450115 -229.353344 
L 1748.945651 -230.397041 
L 1747.441188 -231.267171 
L 1745.936725 -232.027129 
L 1744.432262 -232.702897 
L 1742.927798 -233.323468 
L 1741.423335 -233.915602 
L 1739.918872 -234.454046 
L 1738.414409 -234.882921 
L 1736.909946 -235.182585 
L 1735.405482 -235.419212 
L 1733.901019 -235.695919 
L 1732.396556 -236.035679 
L 1730.892093 -236.370039 
L 1729.38763 -236.642545 
L 1727.883166 -236.855371 
L 1726.378703 -237.028023 
L 1724.87424 -237.17567 
L 1723.369777 -237.320755 
L 1721.865314 -237.48274 
L 1720.36085 -237.653902 
L 1718.856387 -237.800817 
L 1717.351924 -237.892665 
L 1715.847461 -237.934258 
L 1714.342998 -237.967838 
L 1712.838534 -238.023947 
L 1711.334071 -238.090277 
L 1709.829608 -238.144385 
L 1708.325145 -238.181335 
L 1706.820681 -238.203166 
L 1705.316218 -238.215981 
L 1703.811755 -238.236867 
L 1702.307292 -238.281499 
L 1700.802829 -238.346226 
L 1699.298365 -238.406768 
L 1697.793902 -238.439308 
L 1696.289439 -238.445985 
L 1694.784976 -238.448843 
L 1693.280513 -238.461987 
L 1691.776049 -238.483315 
L 1690.271586 -238.504304 
L 1688.767123 -238.517386 
L 1687.26266 -238.520174 
L 1685.758197 -238.516943 
L 1684.253733 -238.513965 
L 1682.74927 -238.513679 
L 1681.244807 -238.515958 
L 1679.740344 -238.519875 
L 1678.235881 -238.523959 
L 1676.731417 -238.52949 
L 1675.226954 -238.539157 
L 1673.722491 -238.552278 
L 1672.218028 -238.564456 
L 1670.713565 -238.571143 
L 1669.209101 -238.571138 
L 1667.704638 -238.567058 
L 1666.200175 -238.563052 
L 1664.695712 -238.561983 
L 1663.191248 -238.564528 
L 1661.686785 -238.569482 
L 1660.182322 -238.574178 
L 1658.677859 -238.576222 
L 1657.173396 -238.574449 
L 1655.668932 -238.568733 
L 1654.164469 -238.561541 
L 1652.660006 -238.557998 
L 1651.155543 -238.560263 
L 1649.65108 -238.564291 
L 1648.146616 -238.566159 
L 1646.642153 -238.567397 
L 1645.13769 -238.570565 
L 1643.633227 -238.574606 
L 1642.128764 -238.57733 
z
" id="m613b09b700" style="stroke:#454545;stroke-width:2;"/>
    </defs>
    <g clip-path="url(#p682bca3c04)">
     <use style="fill:#1996f3;stroke:#454545;stroke-width:2;" x="0" xlink:href="#m613b09b700" y="704.81875"/>
    </g>
   </g>
   <g id="PolyCollection_11">
    <defs>
     <path d="M 1642.062849 -190.256303 
L 1642.062849 -190.261197 
L 1643.583558 -190.267038 
L 1645.104266 -190.274722 
L 1646.624975 -190.276262 
L 1648.145684 -190.269674 
L 1649.666393 -190.262627 
L 1651.187101 -190.259533 
L 1652.70781 -190.25884 
L 1654.228519 -190.258756 
L 1655.749227 -190.25875 
L 1657.269936 -190.25875 
L 1658.790645 -190.25875 
L 1660.311354 -190.25875 
L 1661.832062 -190.25875 
L 1663.352771 -190.25875 
L 1664.87348 -190.25875 
L 1666.394189 -190.25875 
L 1667.914897 -190.25875 
L 1669.435606 -190.25875 
L 1670.956315 -190.25875 
L 1672.477023 -190.25875 
L 1673.997732 -190.25875 
L 1675.518441 -190.25875 
L 1677.03915 -190.25875 
L 1678.559858 -190.25875 
L 1680.080567 -190.25875 
L 1681.601276 -190.258751 
L 1683.121984 -190.258772 
L 1684.642693 -190.259007 
L 1686.163402 -190.260484 
L 1687.684111 -190.2654 
L 1689.204819 -190.27326 
L 1690.725528 -190.276785 
L 1692.246237 -190.271743 
L 1693.766946 -190.265715 
L 1695.287654 -190.267352 
L 1696.808363 -190.277003 
L 1698.329072 -190.287041 
L 1699.84978 -190.288987 
L 1701.370489 -190.283463 
L 1702.891198 -190.283299 
L 1704.411907 -190.299803 
L 1705.932615 -190.320142 
L 1707.453324 -190.320078 
L 1708.974033 -190.30112 
L 1710.494741 -190.286731 
L 1712.01545 -190.291804 
L 1713.536159 -190.311282 
L 1715.056868 -190.33158 
L 1716.577576 -190.3408 
L 1718.098285 -190.333968 
L 1719.618994 -190.322506 
L 1721.139703 -190.318559 
L 1722.660411 -190.320225 
L 1724.18112 -190.328522 
L 1725.701829 -190.343307 
L 1727.222537 -190.354496 
L 1728.743246 -190.374869 
L 1730.263955 -190.436117 
L 1731.784664 -190.518906 
L 1733.305372 -190.56297 
L 1734.826081 -190.55989 
L 1736.34679 -190.5544 
L 1737.867499 -190.586648 
L 1739.388207 -190.66648 
L 1740.908916 -190.774498 
L 1742.429625 -190.880925 
L 1743.950333 -190.980258 
L 1745.471042 -191.104725 
L 1746.991751 -191.253287 
L 1748.51246 -191.392297 
L 1750.033168 -191.562566 
L 1751.553877 -191.822046 
L 1753.074586 -192.14162 
L 1754.595294 -192.499297 
L 1756.116003 -192.949546 
L 1757.636712 -193.47961 
L 1759.157421 -193.990306 
L 1760.678129 -194.534302 
L 1762.198838 -195.259504 
L 1763.719547 -196.109599 
L 1765.240256 -197.056179 
L 1766.760964 -198.220992 
L 1768.281673 -199.499473 
L 1769.802382 -200.830761 
L 1771.32309 -202.539786 
L 1772.843799 -204.750085 
L 1774.364508 -206.995042 
L 1775.885217 -208.70268 
L 1777.405925 -209.58675 
L 1778.926634 -209.521143 
L 1780.447343 -208.519328 
L 1781.968051 -206.590772 
L 1783.48876 -203.537177 
L 1785.009469 -199.517452 
L 1786.530178 -195.516703 
L 1788.050886 -192.59646 
L 1789.571595 -191.039045 
L 1791.092304 -190.444456 
L 1792.613013 -190.288642 
L 1792.613013 -190.228858 
L 1792.613013 -190.228858 
L 1791.092304 -190.073044 
L 1789.571595 -189.478455 
L 1788.050886 -187.92104 
L 1786.530178 -185.000797 
L 1785.009469 -181.000048 
L 1783.48876 -176.980323 
L 1781.968051 -173.926728 
L 1780.447343 -171.998172 
L 1778.926634 -170.996357 
L 1777.405925 -170.93075 
L 1775.885217 -171.81482 
L 1774.364508 -173.522458 
L 1772.843799 -175.767415 
L 1771.32309 -177.977714 
L 1769.802382 -179.686739 
L 1768.281673 -181.018027 
L 1766.760964 -182.296508 
L 1765.240256 -183.461321 
L 1763.719547 -184.407901 
L 1762.198838 -185.257996 
L 1760.678129 -185.983198 
L 1759.157421 -186.527194 
L 1757.636712 -187.03789 
L 1756.116003 -187.567954 
L 1754.595294 -188.018203 
L 1753.074586 -188.37588 
L 1751.553877 -188.695454 
L 1750.033168 -188.954934 
L 1748.51246 -189.125203 
L 1746.991751 -189.264213 
L 1745.471042 -189.412775 
L 1743.950333 -189.537242 
L 1742.429625 -189.636575 
L 1740.908916 -189.743002 
L 1739.388207 -189.85102 
L 1737.867499 -189.930852 
L 1736.34679 -189.9631 
L 1734.826081 -189.95761 
L 1733.305372 -189.95453 
L 1731.784664 -189.998594 
L 1730.263955 -190.081383 
L 1728.743246 -190.142631 
L 1727.222537 -190.163004 
L 1725.701829 -190.174193 
L 1724.18112 -190.188978 
L 1722.660411 -190.197275 
L 1721.139703 -190.198941 
L 1719.618994 -190.194994 
L 1718.098285 -190.183532 
L 1716.577576 -190.1767 
L 1715.056868 -190.18592 
L 1713.536159 -190.206218 
L 1712.01545 -190.225696 
L 1710.494741 -190.230769 
L 1708.974033 -190.21638 
L 1707.453324 -190.197422 
L 1705.932615 -190.197358 
L 1704.411907 -190.217697 
L 1702.891198 -190.234201 
L 1701.370489 -190.234037 
L 1699.84978 -190.228513 
L 1698.329072 -190.230459 
L 1696.808363 -190.240497 
L 1695.287654 -190.250148 
L 1693.766946 -190.251785 
L 1692.246237 -190.245757 
L 1690.725528 -190.240715 
L 1689.204819 -190.24424 
L 1687.684111 -190.2521 
L 1686.163402 -190.257016 
L 1684.642693 -190.258493 
L 1683.121984 -190.258728 
L 1681.601276 -190.258749 
L 1680.080567 -190.25875 
L 1678.559858 -190.25875 
L 1677.03915 -190.25875 
L 1675.518441 -190.25875 
L 1673.997732 -190.25875 
L 1672.477023 -190.25875 
L 1670.956315 -190.25875 
L 1669.435606 -190.25875 
L 1667.914897 -190.25875 
L 1666.394189 -190.25875 
L 1664.87348 -190.25875 
L 1663.352771 -190.25875 
L 1661.832062 -190.25875 
L 1660.311354 -190.25875 
L 1658.790645 -190.25875 
L 1657.269936 -190.25875 
L 1655.749227 -190.25875 
L 1654.228519 -190.258744 
L 1652.70781 -190.25866 
L 1651.187101 -190.257967 
L 1649.666393 -190.254873 
L 1648.145684 -190.247826 
L 1646.624975 -190.241238 
L 1645.104266 -190.242778 
L 1643.583558 -190.250462 
L 1642.062849 -190.256303 
z
" id="m438cda2605" style="stroke:#454545;stroke-width:2;"/>
    </defs>
    <g clip-path="url(#p682bca3c04)">
     <use style="fill:#4c4ffc;stroke:#454545;stroke-width:2;" x="0" xlink:href="#m438cda2605" y="704.81875"/>
    </g>
   </g>
   <g id="PolyCollection_12">
    <defs>
     <path d="M 1216.079669 -141.93763 
L 1216.079669 -141.93987 
L 1217.020665 -141.941608 
L 1217.961662 -141.944188 
L 1218.902658 -141.946466 
L 1219.843654 -141.946921 
L 1220.78465 -141.945237 
L 1221.725647 -141.942779 
L 1222.666643 -141.941421 
L 1223.607639 -141.942616 
L 1224.548635 -141.94744 
L 1225.489631 -141.956233 
L 1226.430628 -141.967518 
L 1227.371624 -141.978102 
L 1228.31262 -141.985354 
L 1229.253616 -141.989102 
L 1230.194613 -141.990145 
L 1231.135609 -141.987683 
L 1232.076605 -141.980961 
L 1233.017601 -141.973403 
L 1233.958597 -141.971501 
L 1234.899594 -141.977894 
L 1235.84059 -141.987487 
L 1236.781586 -141.992734 
L 1237.722582 -141.992643 
L 1238.663578 -141.99408 
L 1239.604575 -142.003181 
L 1240.545571 -142.018155 
L 1241.486567 -142.032539 
L 1242.427563 -142.043322 
L 1243.36856 -142.053112 
L 1244.309556 -142.065771 
L 1245.250552 -142.082828 
L 1246.191548 -142.103239 
L 1247.132544 -142.124446 
L 1248.073541 -142.144404 
L 1249.014537 -142.162749 
L 1249.955533 -142.178052 
L 1250.896529 -142.185319 
L 1251.837526 -142.180246 
L 1252.778522 -142.165994 
L 1253.719518 -142.153 
L 1254.660514 -142.151547 
L 1255.60151 -142.165674 
L 1256.542507 -142.194413 
L 1257.483503 -142.237093 
L 1258.424499 -142.295118 
L 1259.365495 -142.367638 
L 1260.306492 -142.445188 
L 1261.247488 -142.509456 
L 1262.188484 -142.546416 
L 1263.12948 -142.563332 
L 1264.070476 -142.586393 
L 1265.011473 -142.637744 
L 1265.952469 -142.71776 
L 1266.893465 -142.810938 
L 1267.834461 -142.908485 
L 1268.775457 -143.020104 
L 1269.716454 -143.15725 
L 1270.65745 -143.313269 
L 1271.598446 -143.473111 
L 1272.539442 -143.633919 
L 1273.480439 -143.80115 
L 1274.421435 -143.973405 
L 1275.362431 -144.145193 
L 1276.303427 -144.31691 
L 1277.244423 -144.492713 
L 1278.18542 -144.67449 
L 1279.126416 -144.85851 
L 1280.067412 -145.033257 
L 1281.008408 -145.194336 
L 1281.949405 -145.374074 
L 1282.890401 -145.635544 
L 1283.831397 -146.012819 
L 1284.772393 -146.473643 
L 1285.713389 -146.969566 
L 1286.654386 -147.510768 
L 1287.595382 -148.166352 
L 1288.536378 -148.991523 
L 1289.477374 -149.958792 
L 1290.41837 -150.959059 
L 1291.359367 -151.868829 
L 1292.300363 -152.618976 
L 1293.241359 -153.228648 
L 1294.182355 -153.808523 
L 1295.123352 -154.520335 
L 1296.064348 -155.492899 
L 1297.005344 -156.741714 
L 1297.94634 -158.141224 
L 1298.887336 -159.470236 
L 1299.828333 -160.513214 
L 1300.769329 -161.140901 
L 1301.710325 -161.26675 
L 1302.651321 -160.691819 
L 1303.592318 -159.059079 
L 1304.533314 -156.127105 
L 1305.47431 -152.196901 
L 1306.415306 -148.175295 
L 1307.356302 -145.031577 
L 1308.297299 -143.161021 
L 1309.238295 -142.317141 
L 1309.238295 -141.560359 
L 1309.238295 -141.560359 
L 1308.297299 -140.716479 
L 1307.356302 -138.845923 
L 1306.415306 -135.702205 
L 1305.47431 -131.680599 
L 1304.533314 -127.750395 
L 1303.592318 -124.818421 
L 1302.651321 -123.185681 
L 1301.710325 -122.61075 
L 1300.769329 -122.736599 
L 1299.828333 -123.364286 
L 1298.887336 -124.407264 
L 1297.94634 -125.736276 
L 1297.005344 -127.135786 
L 1296.064348 -128.384601 
L 1295.123352 -129.357165 
L 1294.182355 -130.068977 
L 1293.241359 -130.648852 
L 1292.300363 -131.258524 
L 1291.359367 -132.008671 
L 1290.41837 -132.918441 
L 1289.477374 -133.918708 
L 1288.536378 -134.885977 
L 1287.595382 -135.711148 
L 1286.654386 -136.366732 
L 1285.713389 -136.907934 
L 1284.772393 -137.403857 
L 1283.831397 -137.864681 
L 1282.890401 -138.241956 
L 1281.949405 -138.503426 
L 1281.008408 -138.683164 
L 1280.067412 -138.844243 
L 1279.126416 -139.01899 
L 1278.18542 -139.20301 
L 1277.244423 -139.384787 
L 1276.303427 -139.56059 
L 1275.362431 -139.732307 
L 1274.421435 -139.904095 
L 1273.480439 -140.07635 
L 1272.539442 -140.243581 
L 1271.598446 -140.404389 
L 1270.65745 -140.564231 
L 1269.716454 -140.72025 
L 1268.775457 -140.857396 
L 1267.834461 -140.969015 
L 1266.893465 -141.066562 
L 1265.952469 -141.15974 
L 1265.011473 -141.239756 
L 1264.070476 -141.291107 
L 1263.12948 -141.314168 
L 1262.188484 -141.331084 
L 1261.247488 -141.368044 
L 1260.306492 -141.432312 
L 1259.365495 -141.509862 
L 1258.424499 -141.582382 
L 1257.483503 -141.640407 
L 1256.542507 -141.683087 
L 1255.60151 -141.711826 
L 1254.660514 -141.725953 
L 1253.719518 -141.7245 
L 1252.778522 -141.711506 
L 1251.837526 -141.697254 
L 1250.896529 -141.692181 
L 1249.955533 -141.699448 
L 1249.014537 -141.714751 
L 1248.073541 -141.733096 
L 1247.132544 -141.753054 
L 1246.191548 -141.774261 
L 1245.250552 -141.794672 
L 1244.309556 -141.811729 
L 1243.36856 -141.824388 
L 1242.427563 -141.834178 
L 1241.486567 -141.844961 
L 1240.545571 -141.859345 
L 1239.604575 -141.874319 
L 1238.663578 -141.88342 
L 1237.722582 -141.884857 
L 1236.781586 -141.884766 
L 1235.84059 -141.890013 
L 1234.899594 -141.899606 
L 1233.958597 -141.905999 
L 1233.017601 -141.904097 
L 1232.076605 -141.896539 
L 1231.135609 -141.889817 
L 1230.194613 -141.887355 
L 1229.253616 -141.888398 
L 1228.31262 -141.892146 
L 1227.371624 -141.899398 
L 1226.430628 -141.909982 
L 1225.489631 -141.921267 
L 1224.548635 -141.93006 
L 1223.607639 -141.934884 
L 1222.666643 -141.936079 
L 1221.725647 -141.934721 
L 1220.78465 -141.932263 
L 1219.843654 -141.930579 
L 1218.902658 -141.931034 
L 1217.961662 -141.933312 
L 1217.020665 -141.935892 
L 1216.079669 -141.93763 
z
" id="mfc8c4d2b60" style="stroke:#454545;stroke-width:2;"/>
    </defs>
    <g clip-path="url(#p682bca3c04)">
     <use style="fill:#8000ff;stroke:#454545;stroke-width:2;" x="0" xlink:href="#mfc8c4d2b60" y="704.81875"/>
    </g>
   </g>
   <g id="PolyCollection_13">
    <defs>
     <path d="M 172.981136 -93.617414 
L 172.981136 -93.620086 
L 184.53463 -93.622228 
L 196.088123 -93.625401 
L 207.641617 -93.628088 
L 219.19511 -93.62838 
L 230.748603 -93.626066 
L 242.302097 -93.622964 
L 253.85559 -93.621102 
L 265.409084 -93.621492 
L 276.962577 -93.624382 
L 288.516071 -93.629533 
L 300.069564 -93.636265 
L 311.623057 -93.643533 
L 323.176551 -93.649314 
L 334.730044 -93.650631 
L 346.283538 -93.64663 
L 357.837031 -93.641077 
L 369.390525 -93.638998 
L 380.944018 -93.641306 
L 392.497511 -93.645671 
L 404.051005 -93.652599 
L 415.604498 -93.666481 
L 427.157992 -93.688351 
L 438.711485 -93.710679 
L 450.264978 -93.722925 
L 461.818472 -93.721483 
L 473.371965 -93.711323 
L 484.925459 -93.69903 
L 496.478952 -93.68851 
L 508.032446 -93.682935 
L 519.585939 -93.685722 
L 531.139432 -93.697727 
L 542.692926 -93.715531 
L 554.246419 -93.733788 
L 565.799913 -93.748814 
L 577.353406 -93.760793 
L 588.9069 -93.774481 
L 600.460393 -93.79643 
L 612.013886 -93.829081 
L 623.56738 -93.868623 
L 635.120873 -93.909399 
L 646.674367 -93.949452 
L 658.22786 -93.992672 
L 669.781353 -94.045524 
L 681.334847 -94.111152 
L 692.88834 -94.190052 
L 704.441834 -94.285223 
L 715.995327 -94.397457 
L 727.548821 -94.516342 
L 739.102314 -94.625048 
L 750.655807 -94.71068 
L 762.209301 -94.770519 
L 773.762794 -94.825906 
L 785.316288 -94.923896 
L 796.869781 -95.095841 
L 808.423275 -95.320178 
L 819.976768 -95.548865 
L 831.530261 -95.759011 
L 843.083755 -95.969061 
L 854.637248 -96.224242 
L 866.190742 -96.571075 
L 877.744235 -97.027104 
L 889.297728 -97.567553 
L 900.851222 -98.147825 
L 912.404715 -98.736421 
L 923.958209 -99.315654 
L 935.511702 -99.863197 
L 947.065196 -100.356963 
L 958.618689 -100.788783 
L 970.172182 -101.15922 
L 981.725676 -101.473422 
L 993.279169 -101.7491 
L 1004.832663 -102.032251 
L 1016.386156 -102.415613 
L 1027.939649 -103.002624 
L 1039.493143 -103.800027 
L 1051.046636 -104.671703 
L 1062.60013 -105.450461 
L 1074.153623 -106.091429 
L 1085.707117 -106.691674 
L 1097.26061 -107.360411 
L 1108.814103 -108.076014 
L 1120.367597 -108.691714 
L 1131.92109 -109.135481 
L 1143.474584 -109.584126 
L 1155.028077 -110.319329 
L 1166.581571 -111.378638 
L 1178.135064 -112.42576 
L 1189.688557 -112.94675 
L 1201.242051 -112.48004 
L 1212.795544 -110.733143 
L 1224.349038 -107.727734 
L 1235.902531 -103.950757 
L 1247.456024 -100.225541 
L 1259.009518 -97.274047 
L 1270.563011 -95.365254 
L 1282.116505 -94.340667 
L 1293.669998 -93.876541 
L 1305.223492 -93.697375 
L 1316.776985 -93.638771 
L 1316.776985 -93.598729 
L 1316.776985 -93.598729 
L 1305.223492 -93.540125 
L 1293.669998 -93.360959 
L 1282.116505 -92.896833 
L 1270.563011 -91.872246 
L 1259.009518 -89.963453 
L 1247.456024 -87.011959 
L 1235.902531 -83.286743 
L 1224.349038 -79.509766 
L 1212.795544 -76.504357 
L 1201.242051 -74.75746 
L 1189.688557 -74.29075 
L 1178.135064 -74.81174 
L 1166.581571 -75.858862 
L 1155.028077 -76.918171 
L 1143.474584 -77.653374 
L 1131.92109 -78.102019 
L 1120.367597 -78.545786 
L 1108.814103 -79.161486 
L 1097.26061 -79.877089 
L 1085.707117 -80.545826 
L 1074.153623 -81.146071 
L 1062.60013 -81.787039 
L 1051.046636 -82.565797 
L 1039.493143 -83.437473 
L 1027.939649 -84.234876 
L 1016.386156 -84.821887 
L 1004.832663 -85.205249 
L 993.279169 -85.4884 
L 981.725676 -85.764078 
L 970.172182 -86.07828 
L 958.618689 -86.448717 
L 947.065196 -86.880537 
L 935.511702 -87.374303 
L 923.958209 -87.921846 
L 912.404715 -88.501079 
L 900.851222 -89.089675 
L 889.297728 -89.669947 
L 877.744235 -90.210396 
L 866.190742 -90.666425 
L 854.637248 -91.013258 
L 843.083755 -91.268439 
L 831.530261 -91.478489 
L 819.976768 -91.688635 
L 808.423275 -91.917322 
L 796.869781 -92.141659 
L 785.316288 -92.313604 
L 773.762794 -92.411594 
L 762.209301 -92.466981 
L 750.655807 -92.52682 
L 739.102314 -92.612452 
L 727.548821 -92.721158 
L 715.995327 -92.840043 
L 704.441834 -92.952277 
L 692.88834 -93.047448 
L 681.334847 -93.126348 
L 669.781353 -93.191976 
L 658.22786 -93.244828 
L 646.674367 -93.288048 
L 635.120873 -93.328101 
L 623.56738 -93.368877 
L 612.013886 -93.408419 
L 600.460393 -93.44107 
L 588.9069 -93.463019 
L 577.353406 -93.476707 
L 565.799913 -93.488686 
L 554.246419 -93.503712 
L 542.692926 -93.521969 
L 531.139432 -93.539773 
L 519.585939 -93.551778 
L 508.032446 -93.554565 
L 496.478952 -93.54899 
L 484.925459 -93.53847 
L 473.371965 -93.526177 
L 461.818472 -93.516017 
L 450.264978 -93.514575 
L 438.711485 -93.526821 
L 427.157992 -93.549149 
L 415.604498 -93.571019 
L 404.051005 -93.584901 
L 392.497511 -93.591829 
L 380.944018 -93.596194 
L 369.390525 -93.598502 
L 357.837031 -93.596423 
L 346.283538 -93.59087 
L 334.730044 -93.586869 
L 323.176551 -93.588186 
L 311.623057 -93.593967 
L 300.069564 -93.601235 
L 288.516071 -93.607967 
L 276.962577 -93.613118 
L 265.409084 -93.616008 
L 253.85559 -93.616398 
L 242.302097 -93.614536 
L 230.748603 -93.611434 
L 219.19511 -93.60912 
L 207.641617 -93.609412 
L 196.088123 -93.612099 
L 184.53463 -93.615272 
L 172.981136 -93.617414 
z
" id="m749e57f19d" style="stroke:#454545;stroke-width:2;"/>
    </defs>
    <g clip-path="url(#p682bca3c04)">
     <use style="fill:#c4c4c4;stroke:#454545;stroke-width:2;" x="0" xlink:href="#m749e57f19d" y="704.81875"/>
    </g>
   </g>
   <g id="matplotlib.axis_1">
    <g id="xtick_1">
     <g id="line2d_1">
      <defs>
       <path d="M 0 0 
L 0 3.5 
" id="m8aafd37771" style="stroke:#000000;stroke-width:2;"/>
      </defs>
      <g>
       <use style="stroke:#000000;stroke-width:2;" x="150.872832" xlink:href="#m8aafd37771" y="659.52"/>
      </g>
     </g>
     <g id="text_1">
      <text style="font-family:DejaVu Sans;font-size:12px;font-stretch:normal;font-style:normal;font-weight:normal;text-anchor:middle;" transform="rotate(-0, 150.872832, 675.638125)" x="150.872832" y="675.638125">14000</text>
     </g>
    </g>
    <g id="xtick_2">
     <g id="line2d_2">
      <g>
       <use style="stroke:#000000;stroke-width:2;" x="253.772335" xlink:href="#m8aafd37771" y="659.52"/>
      </g>
     </g>
     <g id="text_2">
      <text style="font-family:DejaVu Sans;font-size:12px;font-stretch:normal;font-style:normal;font-weight:normal;text-anchor:middle;" transform="rotate(-0, 253.772335, 675.638125)" x="253.772335" y="675.638125">13000</text>
     </g>
    </g>
    <g id="xtick_3">
     <g id="line2d_3">
      <g>
       <use style="stroke:#000000;stroke-width:2;" x="356.671838" xlink:href="#m8aafd37771" y="659.52"/>
      </g>
     </g>
     <g id="text_3">
      <text style="font-family:DejaVu Sans;font-size:12px;font-stretch:normal;font-style:normal;font-weight:normal;text-anchor:middle;" transform="rotate(-0, 356.671838, 675.638125)" x="356.671838" y="675.638125">12000</text>
     </g>
    </g>
    <g id="xtick_4">
     <g id="line2d_4">
      <g>
       <use style="stroke:#000000;stroke-width:2;" x="459.571341" xlink:href="#m8aafd37771" y="659.52"/>
      </g>
     </g>
     <g id="text_4">
      <text style="font-family:DejaVu Sans;font-size:12px;font-stretch:normal;font-style:normal;font-weight:normal;text-anchor:middle;" transform="rotate(-0, 459.571341, 675.638125)" x="459.571341" y="675.638125">11000</text>
     </g>
    </g>
    <g id="xtick_5">
     <g id="line2d_5">
      <g>
       <use style="stroke:#000000;stroke-width:2;" x="562.470845" xlink:href="#m8aafd37771" y="659.52"/>
      </g>
     </g>
     <g id="text_5">
      <text style="font-family:DejaVu Sans;font-size:12px;font-stretch:normal;font-style:normal;font-weight:normal;text-anchor:middle;" transform="rotate(-0, 562.470845, 675.638125)" x="562.470845" y="675.638125">10000</text>
     </g>
    </g>
    <g id="xtick_6">
     <g id="line2d_6">
      <g>
       <use style="stroke:#000000;stroke-width:2;" x="665.370348" xlink:href="#m8aafd37771" y="659.52"/>
      </g>
     </g>
     <g id="text_6">
      <text style="font-family:DejaVu Sans;font-size:12px;font-stretch:normal;font-style:normal;font-weight:normal;text-anchor:middle;" transform="rotate(-0, 665.370348, 675.638125)" x="665.370348" y="675.638125">9000</text>
     </g>
    </g>
    <g id="xtick_7">
     <g id="line2d_7">
      <g>
       <use style="stroke:#000000;stroke-width:2;" x="768.269851" xlink:href="#m8aafd37771" y="659.52"/>
      </g>
     </g>
     <g id="text_7">
      <text style="font-family:DejaVu Sans;font-size:12px;font-stretch:normal;font-style:normal;font-weight:normal;text-anchor:middle;" transform="rotate(-0, 768.269851, 675.638125)" x="768.269851" y="675.638125">8000</text>
     </g>
    </g>
    <g id="xtick_8">
     <g id="line2d_8">
      <g>
       <use style="stroke:#000000;stroke-width:2;" x="871.169354" xlink:href="#m8aafd37771" y="659.52"/>
      </g>
     </g>
     <g id="text_8">
      <text style="font-family:DejaVu Sans;font-size:12px;font-stretch:normal;font-style:normal;font-weight:normal;text-anchor:middle;" transform="rotate(-0, 871.169354, 675.638125)" x="871.169354" y="675.638125">7000</text>
     </g>
    </g>
    <g id="xtick_9">
     <g id="line2d_9">
      <g>
       <use style="stroke:#000000;stroke-width:2;" x="974.068857" xlink:href="#m8aafd37771" y="659.52"/>
      </g>
     </g>
     <g id="text_9">
      <text style="font-family:DejaVu Sans;font-size:12px;font-stretch:normal;font-style:normal;font-weight:normal;text-anchor:middle;" transform="rotate(-0, 974.068857, 675.638125)" x="974.068857" y="675.638125">6000</text>
     </g>
    </g>
    <g id="xtick_10">
     <g id="line2d_10">
      <g>
       <use style="stroke:#000000;stroke-width:2;" x="1076.96836" xlink:href="#m8aafd37771" y="659.52"/>
      </g>
     </g>
     <g id="text_10">
      <text style="font-family:DejaVu Sans;font-size:12px;font-stretch:normal;font-style:normal;font-weight:normal;text-anchor:middle;" transform="rotate(-0, 1076.96836, 675.638125)" x="1076.96836" y="675.638125">5000</text>
     </g>
    </g>
    <g id="xtick_11">
     <g id="line2d_11">
      <g>
       <use style="stroke:#000000;stroke-width:2;" x="1179.867863" xlink:href="#m8aafd37771" y="659.52"/>
      </g>
     </g>
     <g id="text_11">
      <text style="font-family:DejaVu Sans;font-size:12px;font-stretch:normal;font-style:normal;font-weight:normal;text-anchor:middle;" transform="rotate(-0, 1179.867863, 675.638125)" x="1179.867863" y="675.638125">4000</text>
     </g>
    </g>
    <g id="xtick_12">
     <g id="line2d_12">
      <g>
       <use style="stroke:#000000;stroke-width:2;" x="1282.767367" xlink:href="#m8aafd37771" y="659.52"/>
      </g>
     </g>
     <g id="text_12">
      <text style="font-family:DejaVu Sans;font-size:12px;font-stretch:normal;font-style:normal;font-weight:normal;text-anchor:middle;" transform="rotate(-0, 1282.767367, 675.638125)" x="1282.767367" y="675.638125">3000</text>
     </g>
    </g>
    <g id="xtick_13">
     <g id="line2d_13">
      <g>
       <use style="stroke:#000000;stroke-width:2;" x="1385.66687" xlink:href="#m8aafd37771" y="659.52"/>
      </g>
     </g>
     <g id="text_13">
      <text style="font-family:DejaVu Sans;font-size:12px;font-stretch:normal;font-style:normal;font-weight:normal;text-anchor:middle;" transform="rotate(-0, 1385.66687, 675.638125)" x="1385.66687" y="675.638125">2000</text>
     </g>
    </g>
    <g id="xtick_14">
     <g id="line2d_14">
      <g>
       <use style="stroke:#000000;stroke-width:2;" x="1488.566373" xlink:href="#m8aafd37771" y="659.52"/>
      </g>
     </g>
     <g id="text_14">
      <text style="font-family:DejaVu Sans;font-size:12px;font-stretch:normal;font-style:normal;font-weight:normal;text-anchor:middle;" transform="rotate(-0, 1488.566373, 675.638125)" x="1488.566373" y="675.638125">1000</text>
     </g>
    </g>
    <g id="xtick_15">
     <g id="line2d_15">
      <g>
       <use style="stroke:#000000;stroke-width:2;" x="1591.465876" xlink:href="#m8aafd37771" y="659.52"/>
      </g>
     </g>
     <g id="text_15">
      <text style="font-family:DejaVu Sans;font-size:12px;font-stretch:normal;font-style:normal;font-weight:normal;text-anchor:middle;" transform="rotate(-0, 1591.465876, 675.638125)" x="1591.465876" y="675.638125">0</text>
     </g>
    </g>
    <g id="xtick_16">
     <g id="line2d_16">
      <g>
       <use style="stroke:#000000;stroke-width:2;" x="1694.365379" xlink:href="#m8aafd37771" y="659.52"/>
      </g>
     </g>
     <g id="text_16">
      <text style="font-family:DejaVu Sans;font-size:12px;font-stretch:normal;font-style:normal;font-weight:normal;text-anchor:middle;" transform="rotate(-0, 1694.365379, 675.638125)" x="1694.365379" y="675.638125">1000</text>
     </g>
    </g>
    <g id="xtick_17">
     <g id="line2d_17">
      <g>
       <use style="stroke:#000000;stroke-width:2;" x="1797.264882" xlink:href="#m8aafd37771" y="659.52"/>
      </g>
     </g>
     <g id="text_17">
      <text style="font-family:DejaVu Sans;font-size:12px;font-stretch:normal;font-style:normal;font-weight:normal;text-anchor:middle;" transform="rotate(-0, 1797.264882, 675.638125)" x="1797.264882" y="675.638125">2000</text>
     </g>
    </g>
    <g id="xtick_18">
     <g id="line2d_18">
      <defs>
       <path d="M 0 0 
L 0 2 
" id="mc2c368a894" style="stroke:#000000;stroke-width:0.6;"/>
      </defs>
      <g>
       <use style="stroke:#000000;stroke-width:0.6;" x="99.42308" xlink:href="#mc2c368a894" y="659.52"/>
      </g>
     </g>
    </g>
    <g id="xtick_19">
     <g id="line2d_19">
      <g>
       <use style="stroke:#000000;stroke-width:0.6;" x="202.322584" xlink:href="#mc2c368a894" y="659.52"/>
      </g>
     </g>
    </g>
    <g id="xtick_20">
     <g id="line2d_20">
      <g>
       <use style="stroke:#000000;stroke-width:0.6;" x="305.222087" xlink:href="#mc2c368a894" y="659.52"/>
      </g>
     </g>
    </g>
    <g id="xtick_21">
     <g id="line2d_21">
      <g>
       <use style="stroke:#000000;stroke-width:0.6;" x="408.12159" xlink:href="#mc2c368a894" y="659.52"/>
      </g>
     </g>
    </g>
    <g id="xtick_22">
     <g id="line2d_22">
      <g>
       <use style="stroke:#000000;stroke-width:0.6;" x="511.021093" xlink:href="#mc2c368a894" y="659.52"/>
      </g>
     </g>
    </g>
    <g id="xtick_23">
     <g id="line2d_23">
      <g>
       <use style="stroke:#000000;stroke-width:0.6;" x="613.920596" xlink:href="#mc2c368a894" y="659.52"/>
      </g>
     </g>
    </g>
    <g id="xtick_24">
     <g id="line2d_24">
      <g>
       <use style="stroke:#000000;stroke-width:0.6;" x="716.820099" xlink:href="#mc2c368a894" y="659.52"/>
      </g>
     </g>
    </g>
    <g id="xtick_25">
     <g id="line2d_25">
      <g>
       <use style="stroke:#000000;stroke-width:0.6;" x="819.719602" xlink:href="#mc2c368a894" y="659.52"/>
      </g>
     </g>
    </g>
    <g id="xtick_26">
     <g id="line2d_26">
      <g>
       <use style="stroke:#000000;stroke-width:0.6;" x="922.619106" xlink:href="#mc2c368a894" y="659.52"/>
      </g>
     </g>
    </g>
    <g id="xtick_27">
     <g id="line2d_27">
      <g>
       <use style="stroke:#000000;stroke-width:0.6;" x="1025.518609" xlink:href="#mc2c368a894" y="659.52"/>
      </g>
     </g>
    </g>
    <g id="xtick_28">
     <g id="line2d_28">
      <g>
       <use style="stroke:#000000;stroke-width:0.6;" x="1128.418112" xlink:href="#mc2c368a894" y="659.52"/>
      </g>
     </g>
    </g>
    <g id="xtick_29">
     <g id="line2d_29">
      <g>
       <use style="stroke:#000000;stroke-width:0.6;" x="1231.317615" xlink:href="#mc2c368a894" y="659.52"/>
      </g>
     </g>
    </g>
    <g id="xtick_30">
     <g id="line2d_30">
      <g>
       <use style="stroke:#000000;stroke-width:0.6;" x="1334.217118" xlink:href="#mc2c368a894" y="659.52"/>
      </g>
     </g>
    </g>
    <g id="xtick_31">
     <g id="line2d_31">
      <g>
       <use style="stroke:#000000;stroke-width:0.6;" x="1437.116621" xlink:href="#mc2c368a894" y="659.52"/>
      </g>
     </g>
    </g>
    <g id="xtick_32">
     <g id="line2d_32">
      <g>
       <use style="stroke:#000000;stroke-width:0.6;" x="1540.016124" xlink:href="#mc2c368a894" y="659.52"/>
      </g>
     </g>
    </g>
    <g id="xtick_33">
     <g id="line2d_33">
      <g>
       <use style="stroke:#000000;stroke-width:0.6;" x="1642.915628" xlink:href="#mc2c368a894" y="659.52"/>
      </g>
     </g>
    </g>
    <g id="xtick_34">
     <g id="line2d_34">
      <g>
       <use style="stroke:#000000;stroke-width:0.6;" x="1745.815131" xlink:href="#mc2c368a894" y="659.52"/>
      </g>
     </g>
    </g>
    <g id="xtick_35">
     <g id="line2d_35">
      <g>
       <use style="stroke:#000000;stroke-width:0.6;" x="1848.714634" xlink:href="#mc2c368a894" y="659.52"/>
      </g>
     </g>
    </g>
    <g id="text_18">
     <text style="font-family:DejaVu Sans;font-size:16px;font-stretch:normal;font-style:normal;font-weight:bold;text-anchor:middle;" transform="rotate(-0, 984.6175, 694.29125)" x="984.6175" y="694.29125">tMRCA Calendar Date</text>
    </g>
   </g>
   <g id="matplotlib.axis_2">
    <g id="ytick_1">
     <g id="line2d_36">
      <defs>
       <path d="M 0 0 
L -3.5 0 
" id="ma29bf184d7" style="stroke:#000000;stroke-width:2;"/>
      </defs>
      <g>
       <use style="stroke:#000000;stroke-width:2;" x="91.8175" xlink:href="#ma29bf184d7" y="31.36"/>
      </g>
     </g>
     <g id="text_19">
      <text style="font-family:DejaVu Sans;font-size:16px;font-stretch:normal;font-style:normal;font-weight:normal;text-anchor:end;" transform="rotate(-0, 84.8175, 37.43875)" x="84.8175" y="37.43875">1.ORI</text>
     </g>
    </g>
    <g id="ytick_2">
     <g id="line2d_37">
      <g>
       <use style="stroke:#000000;stroke-width:2;" x="91.8175" xlink:href="#ma29bf184d7" y="79.68"/>
      </g>
     </g>
     <g id="text_20">
      <text style="font-family:DejaVu Sans;font-size:16px;font-stretch:normal;font-style:normal;font-weight:normal;text-anchor:end;" transform="rotate(-0, 84.8175, 85.75875)" x="84.8175" y="85.75875">1.IN</text>
     </g>
    </g>
    <g id="ytick_3">
     <g id="line2d_38">
      <g>
       <use style="stroke:#000000;stroke-width:2;" x="91.8175" xlink:href="#ma29bf184d7" y="128"/>
      </g>
     </g>
     <g id="text_21">
      <text style="font-family:DejaVu Sans;font-size:16px;font-stretch:normal;font-style:normal;font-weight:normal;text-anchor:end;" transform="rotate(-0, 84.8175, 134.07875)" x="84.8175" y="134.07875">1.ANT</text>
     </g>
    </g>
    <g id="ytick_4">
     <g id="line2d_39">
      <g>
       <use style="stroke:#000000;stroke-width:2;" x="91.8175" xlink:href="#ma29bf184d7" y="176.32"/>
      </g>
     </g>
     <g id="text_22">
      <text style="font-family:DejaVu Sans;font-size:16px;font-stretch:normal;font-style:normal;font-weight:normal;text-anchor:end;" transform="rotate(-0, 84.8175, 182.39875)" x="84.8175" y="182.39875">1.PRE</text>
     </g>
    </g>
    <g id="ytick_5">
     <g id="line2d_40">
      <g>
       <use style="stroke:#000000;stroke-width:2;" x="91.8175" xlink:href="#ma29bf184d7" y="224.64"/>
      </g>
     </g>
     <g id="text_23">
      <text style="font-family:DejaVu Sans;font-size:16px;font-stretch:normal;font-style:normal;font-weight:normal;text-anchor:end;" transform="rotate(-0, 84.8175, 230.71875)" x="84.8175" y="230.71875">2.MED</text>
     </g>
    </g>
    <g id="ytick_6">
     <g id="line2d_41">
      <g>
       <use style="stroke:#000000;stroke-width:2;" x="91.8175" xlink:href="#ma29bf184d7" y="272.96"/>
      </g>
     </g>
     <g id="text_24">
      <text style="font-family:DejaVu Sans;font-size:16px;font-stretch:normal;font-style:normal;font-weight:normal;text-anchor:end;" transform="rotate(-0, 84.8175, 279.03875)" x="84.8175" y="279.03875">2.ANT</text>
     </g>
    </g>
    <g id="ytick_7">
     <g id="line2d_42">
      <g>
       <use style="stroke:#000000;stroke-width:2;" x="91.8175" xlink:href="#ma29bf184d7" y="321.28"/>
      </g>
     </g>
     <g id="text_25">
      <text style="font-family:DejaVu Sans;font-size:16px;font-stretch:normal;font-style:normal;font-weight:normal;text-anchor:end;" transform="rotate(-0, 84.8175, 327.35875)" x="84.8175" y="327.35875">4.ANT</text>
     </g>
    </g>
    <g id="ytick_8">
     <g id="line2d_43">
      <g>
       <use style="stroke:#000000;stroke-width:2;" x="91.8175" xlink:href="#ma29bf184d7" y="369.6"/>
      </g>
     </g>
     <g id="text_26">
      <text style="font-family:DejaVu Sans;font-size:16px;font-stretch:normal;font-style:normal;font-weight:normal;text-anchor:end;" transform="rotate(-0, 84.8175, 375.67875)" x="84.8175" y="375.67875">3.ANT</text>
     </g>
    </g>
    <g id="ytick_9">
     <g id="line2d_44">
      <g>
       <use style="stroke:#000000;stroke-width:2;" x="91.8175" xlink:href="#ma29bf184d7" y="417.92"/>
      </g>
     </g>
     <g id="text_27">
      <text style="font-family:DejaVu Sans;font-size:16px;font-stretch:normal;font-style:normal;font-weight:normal;text-anchor:end;" transform="rotate(-0, 84.8175, 423.99875)" x="84.8175" y="423.99875">0.ANT4</text>
     </g>
    </g>
    <g id="ytick_10">
     <g id="line2d_45">
      <g>
       <use style="stroke:#000000;stroke-width:2;" x="91.8175" xlink:href="#ma29bf184d7" y="466.24"/>
      </g>
     </g>
     <g id="text_28">
      <text style="font-family:DejaVu Sans;font-size:16px;font-stretch:normal;font-style:normal;font-weight:normal;text-anchor:end;" transform="rotate(-0, 84.8175, 472.31875)" x="84.8175" y="472.31875">0.ANT</text>
     </g>
    </g>
    <g id="ytick_11">
     <g id="line2d_46">
      <g>
       <use style="stroke:#000000;stroke-width:2;" x="91.8175" xlink:href="#ma29bf184d7" y="514.56"/>
      </g>
     </g>
     <g id="text_29">
      <text style="font-family:DejaVu Sans;font-size:16px;font-stretch:normal;font-style:normal;font-weight:normal;text-anchor:end;" transform="rotate(-0, 84.8175, 520.63875)" x="84.8175" y="520.63875">0.PE</text>
     </g>
    </g>
    <g id="ytick_12">
     <g id="line2d_47">
      <g>
       <use style="stroke:#000000;stroke-width:2;" x="91.8175" xlink:href="#ma29bf184d7" y="562.88"/>
      </g>
     </g>
     <g id="text_30">
      <text style="font-family:DejaVu Sans;font-size:16px;font-stretch:normal;font-style:normal;font-weight:normal;text-anchor:end;" transform="rotate(-0, 84.8175, 568.95875)" x="84.8175" y="568.95875">0.PRE</text>
     </g>
    </g>
    <g id="ytick_13">
     <g id="line2d_48">
      <g>
       <use style="stroke:#000000;stroke-width:2;" x="91.8175" xlink:href="#ma29bf184d7" y="611.2"/>
      </g>
     </g>
     <g id="text_31">
      <text style="font-family:DejaVu Sans;font-size:16px;font-stretch:normal;font-style:normal;font-weight:normal;text-anchor:end;" transform="rotate(-0, 84.8175, 617.27875)" x="84.8175" y="617.27875">All</text>
     </g>
    </g>
    <g id="text_32">
     <text style="font-family:DejaVu Sans;font-size:16px;font-stretch:normal;font-style:normal;font-weight:bold;text-anchor:middle;" transform="rotate(-90, 19.3575, 333.36)" x="19.3575" y="333.36">Branch.Biovar</text>
    </g>
   </g>
   <g id="patch_3">
    <path d="M 91.8175 659.52 
L 91.8175 7.2 
" style="fill:none;stroke:#000000;stroke-linecap:square;stroke-linejoin:miter;stroke-width:2;"/>
   </g>
   <g id="patch_4">
    <path d="M 1877.4175 659.52 
L 1877.4175 7.2 
" style="fill:none;stroke:#000000;stroke-linecap:square;stroke-linejoin:miter;stroke-width:2;"/>
   </g>
   <g id="patch_5">
    <path d="M 91.8175 659.52 
L 1877.4175 659.52 
" style="fill:none;stroke:#000000;stroke-linecap:square;stroke-linejoin:miter;stroke-width:2;"/>
   </g>
   <g id="patch_6">
    <path d="M 91.8175 7.2 
L 1877.4175 7.2 
" style="fill:none;stroke:#000000;stroke-linecap:square;stroke-linejoin:miter;stroke-width:2;"/>
   </g>
  </g>
 </g>
 <defs>
  <clipPath id="p682bca3c04">
   <rect height="652.32" width="1785.6" x="91.8175" y="7.2"/>
  </clipPath>
 </defs>
</svg>
