<?xml version="1.0" encoding="utf-8" standalone="no"?>
<!DOCTYPE svg PUBLIC "-//W3C//DTD SVG 1.1//EN"
  "http://www.w3.org/Graphics/SVG/1.1/DTD/svg11.dtd">
<!-- Created with matplotlib (https://matplotlib.org/) -->
<svg height="378.65875pt" version="1.1" viewBox="0 0 759.415312 378.65875" width="759.415312pt" xmlns="http://www.w3.org/2000/svg" xmlns:xlink="http://www.w3.org/1999/xlink">
 <metadata>
  <rdf:RDF xmlns:cc="http://creativecommons.org/ns#" xmlns:dc="http://purl.org/dc/elements/1.1/" xmlns:rdf="http://www.w3.org/1999/02/22-rdf-syntax-ns#">
   <cc:Work>
    <dc:type rdf:resource="http://purl.org/dc/dcmitype/StillImage"/>
    <dc:date>2021-10-22T16:16:09.308246</dc:date>
    <dc:format>image/svg+xml</dc:format>
    <dc:creator>
     <cc:Agent>
      <dc:title>Matplotlib v3.3.2, https://matplotlib.org/</dc:title>
     </cc:Agent>
    </dc:creator>
   </cc:Work>
  </rdf:RDF>
 </metadata>
 <defs>
  <style type="text/css">*{stroke-linecap:butt;stroke-linejoin:round;}</style>
 </defs>
 <g id="figure_1">
  <g id="patch_1">
   <path d="M 0 378.65875 
L 759.415312 378.65875 
L 759.415312 0 
L 0 0 
z
" style="fill:#ffffff;"/>
  </g>
  <g id="axes_1">
   <g id="patch_2">
    <path d="M 82.615313 333.36 
L 752.215312 333.36 
L 752.215312 7.2 
L 82.615313 7.2 
z
" style="fill:#ffffff;"/>
   </g>
   <g id="PolyCollection_1">
    <defs>
     <path d="M 703.132705 -348.159004 
L 703.132705 -348.16421 
L 703.298398 -348.167941 
L 703.464091 -348.174048 
L 703.629784 -348.181775 
L 703.795477 -348.189538 
L 703.96117 -348.196051 
L 704.126863 -348.200543 
L 704.292557 -348.201851 
L 704.45825 -348.198536 
L 704.623943 -348.190653 
L 704.789636 -348.180663 
L 704.955329 -348.171861 
L 705.121022 -348.166149 
L 705.286715 -348.163557 
L 705.452408 -348.163408 
L 705.618101 -348.165427 
L 705.783794 -348.169606 
L 705.949487 -348.175115 
L 706.11518 -348.179811 
L 706.280874 -348.181675 
L 706.446567 -348.18099 
L 706.61226 -348.180168 
L 706.777953 -348.180818 
L 706.943646 -348.18169 
L 707.109339 -348.180275 
L 707.275032 -348.175892 
L 707.440725 -348.170334 
L 707.606418 -348.16582 
L 707.772111 -348.16321 
L 707.937804 -348.162099 
L 708.103498 -348.161797 
L 708.269191 -348.161983 
L 708.434884 -348.162911 
L 708.600577 -348.16542 
L 708.76627 -348.170646 
L 708.931963 -348.179171 
L 709.097656 -348.190064 
L 709.263349 -348.200678 
L 709.429042 -348.207571 
L 709.594735 -348.20814 
L 709.760428 -348.202586 
L 709.926121 -348.194982 
L 710.091815 -348.191602 
L 710.257508 -348.196651 
L 710.423201 -348.208757 
L 710.588894 -348.221828 
L 710.754587 -348.230006 
L 710.92028 -348.231958 
L 711.085973 -348.230425 
L 711.251666 -348.229062 
L 711.417359 -348.230732 
L 711.583052 -348.236888 
L 711.748745 -348.246116 
L 711.914438 -348.253691 
L 712.080132 -348.254557 
L 712.245825 -348.24803 
L 712.411518 -348.240342 
L 712.577211 -348.243056 
L 712.742904 -348.26772 
L 712.908597 -348.318657 
L 713.07429 -348.387971 
L 713.239983 -348.458121 
L 713.405676 -348.511805 
L 713.571369 -348.541025 
L 713.737062 -348.550555 
L 713.902755 -348.558071 
L 714.068449 -348.588547 
L 714.234142 -348.65911 
L 714.399835 -348.76487 
L 714.565528 -348.88136 
L 714.731221 -348.982903 
L 714.896914 -349.062613 
L 715.062607 -349.141065 
L 715.2283 -349.257321 
L 715.393993 -349.447056 
L 715.559686 -349.724793 
L 715.725379 -350.084134 
L 715.891072 -350.512385 
L 716.056766 -351.006 
L 716.222459 -351.578493 
L 716.388152 -352.256254 
L 716.553845 -353.054846 
L 716.719538 -353.94449 
L 716.885231 -354.846212 
L 717.050924 -355.681153 
L 717.216617 -356.415526 
L 717.38231 -357.028349 
L 717.548003 -357.435602 
L 717.713696 -357.480464 
L 717.879389 -357.021074 
L 718.045083 -356.029496 
L 718.210776 -354.618671 
L 718.376469 -353.002258 
L 718.542162 -351.430819 
L 718.707855 -350.121151 
L 718.873548 -349.190072 
L 719.039241 -348.629598 
L 719.204934 -348.345129 
L 719.370627 -348.223406 
L 719.53632 -348.17941 
L 719.53632 -348.143804 
L 719.53632 -348.143804 
L 719.370627 -348.099808 
L 719.204934 -347.978086 
L 719.039241 -347.693616 
L 718.873548 -347.133143 
L 718.707855 -346.202063 
L 718.542162 -344.892395 
L 718.376469 -343.320956 
L 718.210776 -341.704543 
L 718.045083 -340.293718 
L 717.879389 -339.30214 
L 717.713696 -338.84275 
L 717.548003 -338.887612 
L 717.38231 -339.294865 
L 717.216617 -339.907689 
L 717.050924 -340.642061 
L 716.885231 -341.477003 
L 716.719538 -342.378725 
L 716.553845 -343.268368 
L 716.388152 -344.06696 
L 716.222459 -344.744721 
L 716.056766 -345.317215 
L 715.891072 -345.810829 
L 715.725379 -346.23908 
L 715.559686 -346.598421 
L 715.393993 -346.876158 
L 715.2283 -347.065894 
L 715.062607 -347.182149 
L 714.896914 -347.260601 
L 714.731221 -347.340311 
L 714.565528 -347.441854 
L 714.399835 -347.558344 
L 714.234142 -347.664104 
L 714.068449 -347.734667 
L 713.902755 -347.765143 
L 713.737062 -347.772659 
L 713.571369 -347.78219 
L 713.405676 -347.81141 
L 713.239983 -347.865093 
L 713.07429 -347.935243 
L 712.908597 -348.004557 
L 712.742904 -348.055494 
L 712.577211 -348.080158 
L 712.411518 -348.082872 
L 712.245825 -348.075184 
L 712.080132 -348.068657 
L 711.914438 -348.069523 
L 711.748745 -348.077098 
L 711.583052 -348.086326 
L 711.417359 -348.092482 
L 711.251666 -348.094152 
L 711.085973 -348.09279 
L 710.92028 -348.091256 
L 710.754587 -348.093208 
L 710.588894 -348.101386 
L 710.423201 -348.114457 
L 710.257508 -348.126564 
L 710.091815 -348.131612 
L 709.926121 -348.128232 
L 709.760428 -348.120628 
L 709.594735 -348.115074 
L 709.429042 -348.115644 
L 709.263349 -348.122536 
L 709.097656 -348.133151 
L 708.931963 -348.144043 
L 708.76627 -348.152569 
L 708.600577 -348.157794 
L 708.434884 -348.160304 
L 708.269191 -348.161231 
L 708.103498 -348.161418 
L 707.937804 -348.161115 
L 707.772111 -348.160004 
L 707.606418 -348.157394 
L 707.440725 -348.15288 
L 707.275032 -348.147322 
L 707.109339 -348.14294 
L 706.943646 -348.141524 
L 706.777953 -348.142396 
L 706.61226 -348.143046 
L 706.446567 -348.142225 
L 706.280874 -348.141539 
L 706.11518 -348.143404 
L 705.949487 -348.148099 
L 705.783794 -348.153609 
L 705.618101 -348.157787 
L 705.452408 -348.159806 
L 705.286715 -348.159657 
L 705.121022 -348.157065 
L 704.955329 -348.151353 
L 704.789636 -348.142551 
L 704.623943 -348.132561 
L 704.45825 -348.124678 
L 704.292557 -348.121363 
L 704.126863 -348.122672 
L 703.96117 -348.127163 
L 703.795477 -348.133676 
L 703.629784 -348.141439 
L 703.464091 -348.149166 
L 703.298398 -348.155273 
L 703.132705 -348.159004 
z
" id="m8cfafcf7d3" style="stroke:#494949;stroke-width:1.5;"/>
    </defs>
    <g clip-path="url(#pec7c1b6cd3)">
     <use style="fill:#df2020;stroke:#494949;stroke-width:1.5;" x="0" xlink:href="#m8cfafcf7d3" y="378.65875"/>
    </g>
   </g>
   <g id="PolyCollection_2">
    <defs>
     <path d="M 669.393326 -324.863936 
L 669.393326 -324.864992 
L 669.915783 -324.866671 
L 670.438239 -324.868331 
L 670.960695 -324.867304 
L 671.483152 -324.865338 
L 672.005608 -324.864577 
L 672.528065 -324.86447 
L 673.050521 -324.864464 
L 673.572978 -324.864464 
L 674.095434 -324.864464 
L 674.617891 -324.864464 
L 675.140347 -324.864464 
L 675.662804 -324.864464 
L 676.18526 -324.864464 
L 676.707717 -324.864464 
L 677.230173 -324.864464 
L 677.75263 -324.864464 
L 678.275086 -324.864469 
L 678.797543 -324.864559 
L 679.319999 -324.865244 
L 679.842456 -324.867155 
L 680.364912 -324.868357 
L 680.887369 -324.866828 
L 681.409825 -324.865129 
L 681.932281 -324.865143 
L 682.454738 -324.867031 
L 682.977194 -324.86991 
L 683.499651 -324.872455 
L 684.022107 -324.87325 
L 684.544564 -324.870997 
L 685.06702 -324.869373 
L 685.589477 -324.867999 
L 686.111933 -324.866122 
L 686.63439 -324.866435 
L 687.156846 -324.868444 
L 687.679303 -324.86929 
L 688.201759 -324.869249 
L 688.724216 -324.868101 
L 689.246672 -324.866067 
L 689.769129 -324.865975 
L 690.291585 -324.867812 
L 690.814042 -324.868109 
L 691.336498 -324.866145 
L 691.858954 -324.864948 
L 692.381411 -324.865608 
L 692.903867 -324.86786 
L 693.426324 -324.87026 
L 693.94878 -324.874301 
L 694.471237 -324.880671 
L 694.993693 -324.882222 
L 695.51615 -324.881728 
L 696.038606 -324.889311 
L 696.561063 -324.896347 
L 697.083519 -324.896002 
L 697.605976 -324.895299 
L 698.128432 -324.896672 
L 698.650889 -324.897979 
L 699.173345 -324.902697 
L 699.695802 -324.91145 
L 700.218258 -324.917059 
L 700.740715 -324.92244 
L 701.263171 -324.929232 
L 701.785628 -324.940503 
L 702.308084 -324.964416 
L 702.83054 -324.997729 
L 703.352997 -325.036502 
L 703.875453 -325.079224 
L 704.39791 -325.109513 
L 704.920366 -325.1126 
L 705.442823 -325.113368 
L 705.965279 -325.16195 
L 706.487736 -325.234434 
L 707.010192 -325.291559 
L 707.532649 -325.364868 
L 708.055105 -325.469392 
L 708.577562 -325.579156 
L 709.100018 -325.67394 
L 709.622475 -325.766969 
L 710.144931 -325.89731 
L 710.667388 -326.059665 
L 711.189844 -326.289007 
L 711.712301 -326.626357 
L 712.234757 -327.005833 
L 712.757214 -327.380623 
L 713.27967 -327.843276 
L 713.802126 -328.465043 
L 714.324583 -329.162333 
L 714.847039 -329.951681 
L 715.369496 -330.762816 
L 715.891952 -331.546911 
L 716.414409 -332.509945 
L 716.936865 -333.564747 
L 717.459322 -334.183321 
L 717.981778 -333.852574 
L 718.504235 -332.1791 
L 719.026691 -329.427887 
L 719.549148 -326.83248 
L 720.071604 -325.396141 
L 720.594061 -324.947359 
L 721.116517 -324.871506 
L 721.116517 -324.857422 
L 721.116517 -324.857422 
L 720.594061 -324.781569 
L 720.071604 -324.332788 
L 719.549148 -322.896449 
L 719.026691 -320.301042 
L 718.504235 -317.549829 
L 717.981778 -315.876355 
L 717.459322 -315.545607 
L 716.936865 -316.164182 
L 716.414409 -317.218983 
L 715.891952 -318.182018 
L 715.369496 -318.966112 
L 714.847039 -319.777247 
L 714.324583 -320.566595 
L 713.802126 -321.263885 
L 713.27967 -321.885652 
L 712.757214 -322.348306 
L 712.234757 -322.723095 
L 711.712301 -323.102572 
L 711.189844 -323.439922 
L 710.667388 -323.669264 
L 710.144931 -323.831619 
L 709.622475 -323.961959 
L 709.100018 -324.054988 
L 708.577562 -324.149773 
L 708.055105 -324.259536 
L 707.532649 -324.36406 
L 707.010192 -324.43737 
L 706.487736 -324.494495 
L 705.965279 -324.566979 
L 705.442823 -324.615561 
L 704.920366 -324.616328 
L 704.39791 -324.619415 
L 703.875453 -324.649704 
L 703.352997 -324.692427 
L 702.83054 -324.731199 
L 702.308084 -324.764512 
L 701.785628 -324.788425 
L 701.263171 -324.799697 
L 700.740715 -324.806489 
L 700.218258 -324.81187 
L 699.695802 -324.817478 
L 699.173345 -324.826232 
L 698.650889 -324.83095 
L 698.128432 -324.832257 
L 697.605976 -324.833629 
L 697.083519 -324.832926 
L 696.561063 -324.832582 
L 696.038606 -324.839618 
L 695.51615 -324.847201 
L 694.993693 -324.846706 
L 694.471237 -324.848257 
L 693.94878 -324.854627 
L 693.426324 -324.858669 
L 692.903867 -324.861069 
L 692.381411 -324.863321 
L 691.858954 -324.86398 
L 691.336498 -324.862783 
L 690.814042 -324.860819 
L 690.291585 -324.861117 
L 689.769129 -324.862953 
L 689.246672 -324.862861 
L 688.724216 -324.860828 
L 688.201759 -324.85968 
L 687.679303 -324.859639 
L 687.156846 -324.860484 
L 686.63439 -324.862493 
L 686.111933 -324.862807 
L 685.589477 -324.860929 
L 685.06702 -324.859555 
L 684.544564 -324.857931 
L 684.022107 -324.855679 
L 683.499651 -324.856473 
L 682.977194 -324.859019 
L 682.454738 -324.861898 
L 681.932281 -324.863786 
L 681.409825 -324.863799 
L 680.887369 -324.862101 
L 680.364912 -324.860572 
L 679.842456 -324.861774 
L 679.319999 -324.863685 
L 678.797543 -324.86437 
L 678.275086 -324.864459 
L 677.75263 -324.864464 
L 677.230173 -324.864464 
L 676.707717 -324.864464 
L 676.18526 -324.864464 
L 675.662804 -324.864464 
L 675.140347 -324.864464 
L 674.617891 -324.864464 
L 674.095434 -324.864464 
L 673.572978 -324.864464 
L 673.050521 -324.864464 
L 672.528065 -324.864458 
L 672.005608 -324.864352 
L 671.483152 -324.86359 
L 670.960695 -324.861625 
L 670.438239 -324.860598 
L 669.915783 -324.862257 
L 669.393326 -324.863936 
z
" id="m01441808f9" style="stroke:#494949;stroke-width:1.5;"/>
    </defs>
    <g clip-path="url(#pec7c1b6cd3)">
     <use style="fill:#e45a3f;stroke:#494949;stroke-width:1.5;" x="0" xlink:href="#m01441808f9" y="378.65875"/>
    </g>
   </g>
   <g id="PolyCollection_3">
    <defs>
     <path d="M 697.716917 -301.566531 
L 697.716917 -301.568112 
L 697.927804 -301.569507 
L 698.138692 -301.571548 
L 698.349579 -301.57304 
L 698.560467 -301.572739 
L 698.771354 -301.570937 
L 698.982242 -301.569155 
L 699.19313 -301.568562 
L 699.404017 -301.569453 
L 699.614905 -301.571366 
L 699.825792 -301.572965 
L 700.03668 -301.572866 
L 700.247567 -301.571224 
L 700.458455 -301.569706 
L 700.669342 -301.570021 
L 700.88023 -301.573112 
L 701.091118 -301.578699 
L 701.302005 -301.584643 
L 701.512893 -301.58785 
L 701.72378 -301.586945 
L 701.934668 -301.583874 
L 702.145555 -301.582157 
L 702.356443 -301.583471 
L 702.56733 -301.586495 
L 702.778218 -301.588881 
L 702.989106 -301.590012 
L 703.199993 -301.591611 
L 703.410881 -301.595403 
L 703.621768 -301.602235 
L 703.832656 -301.614098 
L 704.043543 -301.633107 
L 704.254431 -301.657851 
L 704.465318 -301.682715 
L 704.676206 -301.700819 
L 704.887094 -301.710502 
L 705.097981 -301.720093 
L 705.308869 -301.741136 
L 705.519756 -301.776115 
L 705.730644 -301.816382 
L 705.941531 -301.852225 
L 706.152419 -301.88237 
L 706.363306 -301.911496 
L 706.574194 -301.943862 
L 706.785082 -301.985018 
L 706.995969 -302.042542 
L 707.206857 -302.117833 
L 707.417744 -302.202308 
L 707.628632 -302.287968 
L 707.839519 -302.376102 
L 708.050407 -302.471914 
L 708.261294 -302.581806 
L 708.472182 -302.71731 
L 708.68307 -302.885975 
L 708.893957 -303.076883 
L 709.104845 -303.270668 
L 709.315732 -303.467401 
L 709.52662 -303.689676 
L 709.737507 -303.954313 
L 709.948395 -304.259027 
L 710.159282 -304.595689 
L 710.37017 -304.957459 
L 710.581058 -305.341038 
L 710.791945 -305.74468 
L 711.002833 -306.151694 
L 711.21372 -306.538159 
L 711.424608 -306.9041 
L 711.635495 -307.277632 
L 711.846383 -307.700117 
L 712.05727 -308.202928 
L 712.268158 -308.772157 
L 712.479046 -309.345502 
L 712.689933 -309.856291 
L 712.900821 -310.271149 
L 713.111708 -310.58301 
L 713.322596 -310.785418 
L 713.533483 -310.877672 
L 713.744371 -310.886179 
L 713.955258 -310.836586 
L 714.166146 -310.704916 
L 714.377033 -310.441529 
L 714.587921 -310.032025 
L 714.798809 -309.491294 
L 715.009696 -308.820322 
L 715.220584 -308.017128 
L 715.431471 -307.121621 
L 715.642359 -306.211099 
L 715.853246 -305.339497 
L 716.064134 -304.512843 
L 716.275021 -303.744002 
L 716.485909 -303.086439 
L 716.696797 -302.586716 
L 716.907684 -302.23932 
L 717.118572 -302.002512 
L 717.329459 -301.835834 
L 717.540347 -301.718361 
L 717.751234 -301.64284 
L 717.962122 -301.601219 
L 718.173009 -301.581186 
L 718.383897 -301.57232 
L 718.594785 -301.568793 
L 718.594785 -301.56585 
L 718.594785 -301.56585 
L 718.383897 -301.562323 
L 718.173009 -301.553456 
L 717.962122 -301.533424 
L 717.751234 -301.491803 
L 717.540347 -301.416282 
L 717.329459 -301.298808 
L 717.118572 -301.132131 
L 716.907684 -300.895323 
L 716.696797 -300.547927 
L 716.485909 -300.048204 
L 716.275021 -299.390641 
L 716.064134 -298.6218 
L 715.853246 -297.795146 
L 715.642359 -296.923544 
L 715.431471 -296.013021 
L 715.220584 -295.117515 
L 715.009696 -294.314321 
L 714.798809 -293.643348 
L 714.587921 -293.102617 
L 714.377033 -292.693113 
L 714.166146 -292.429727 
L 713.955258 -292.298056 
L 713.744371 -292.248464 
L 713.533483 -292.256971 
L 713.322596 -292.349224 
L 713.111708 -292.551633 
L 712.900821 -292.863494 
L 712.689933 -293.278352 
L 712.479046 -293.789141 
L 712.268158 -294.362486 
L 712.05727 -294.931715 
L 711.846383 -295.434526 
L 711.635495 -295.85701 
L 711.424608 -296.230543 
L 711.21372 -296.596484 
L 711.002833 -296.982949 
L 710.791945 -297.389963 
L 710.581058 -297.793604 
L 710.37017 -298.177184 
L 710.159282 -298.538953 
L 709.948395 -298.875616 
L 709.737507 -299.18033 
L 709.52662 -299.444967 
L 709.315732 -299.667242 
L 709.104845 -299.863975 
L 708.893957 -300.05776 
L 708.68307 -300.248668 
L 708.472182 -300.417332 
L 708.261294 -300.552837 
L 708.050407 -300.662729 
L 707.839519 -300.758541 
L 707.628632 -300.846675 
L 707.417744 -300.932335 
L 707.206857 -301.01681 
L 706.995969 -301.0921 
L 706.785082 -301.149625 
L 706.574194 -301.190781 
L 706.363306 -301.223147 
L 706.152419 -301.252273 
L 705.941531 -301.282418 
L 705.730644 -301.31826 
L 705.519756 -301.358528 
L 705.308869 -301.393507 
L 705.097981 -301.41455 
L 704.887094 -301.424141 
L 704.676206 -301.433824 
L 704.465318 -301.451928 
L 704.254431 -301.476792 
L 704.043543 -301.501535 
L 703.832656 -301.520545 
L 703.621768 -301.532408 
L 703.410881 -301.53924 
L 703.199993 -301.543032 
L 702.989106 -301.544631 
L 702.778218 -301.545762 
L 702.56733 -301.548148 
L 702.356443 -301.551171 
L 702.145555 -301.552486 
L 701.934668 -301.550769 
L 701.72378 -301.547698 
L 701.512893 -301.546793 
L 701.302005 -301.55 
L 701.091118 -301.555944 
L 700.88023 -301.56153 
L 700.669342 -301.564622 
L 700.458455 -301.564937 
L 700.247567 -301.563418 
L 700.03668 -301.561777 
L 699.825792 -301.561678 
L 699.614905 -301.563277 
L 699.404017 -301.56519 
L 699.19313 -301.56608 
L 698.982242 -301.565488 
L 698.771354 -301.563706 
L 698.560467 -301.561904 
L 698.349579 -301.561603 
L 698.138692 -301.563095 
L 697.927804 -301.565136 
L 697.716917 -301.566531 
z
" id="m3f2478a9a8" style="stroke:#494949;stroke-width:1.5;"/>
    </defs>
    <g clip-path="url(#pec7c1b6cd3)">
     <use style="fill:#e8905f;stroke:#494949;stroke-width:1.5;" x="0" xlink:href="#m3f2478a9a8" y="378.65875"/>
    </g>
   </g>
   <g id="PolyCollection_4">
    <defs>
     <path d="M 682.89774 -278.268958 
L 682.89774 -278.271399 
L 683.037807 -278.273431 
L 683.177875 -278.276429 
L 683.317943 -278.27884 
L 683.458011 -278.278835 
L 683.598079 -278.276417 
L 683.738147 -278.273421 
L 683.878215 -278.271394 
L 684.018283 -278.270507 
L 684.158351 -278.270243 
L 684.298418 -278.270188 
L 684.438486 -278.270179 
L 684.578554 -278.270179 
L 684.718622 -278.270179 
L 684.85869 -278.270179 
L 684.998758 -278.270179 
L 685.138826 -278.270179 
L 685.278894 -278.270179 
L 685.418962 -278.270182 
L 685.55903 -278.270208 
L 685.699097 -278.270354 
L 685.839165 -278.270919 
L 685.979233 -278.272436 
L 686.119301 -278.27515 
L 686.259369 -278.278104 
L 686.399437 -278.279461 
L 686.539505 -278.278704 
L 686.679573 -278.277857 
L 686.819641 -278.279528 
L 686.959709 -278.284526 
L 687.099776 -278.291979 
L 687.239844 -278.30012 
L 687.379912 -278.305957 
L 687.51998 -278.306859 
L 687.660048 -278.304664 
L 687.800116 -278.30542 
L 687.940184 -278.312293 
L 688.080252 -278.320726 
L 688.22032 -278.323151 
L 688.360387 -278.317147 
L 688.500455 -278.306937 
L 688.640523 -278.298255 
L 688.780591 -278.29447 
L 688.920659 -278.297423 
L 689.060727 -278.308879 
L 689.200795 -278.329169 
L 689.340863 -278.354788 
L 689.480931 -278.379815 
L 689.620999 -278.403474 
L 689.761066 -278.434268 
L 689.901134 -278.478841 
L 690.041202 -278.528655 
L 690.18127 -278.568817 
L 690.321338 -278.598365 
L 690.461406 -278.629151 
L 690.601474 -278.666385 
L 690.741542 -278.701792 
L 690.88161 -278.72436 
L 691.021678 -278.733895 
L 691.161745 -278.750146 
L 691.301813 -278.80369 
L 691.441881 -278.905626 
L 691.581949 -279.034665 
L 691.722017 -279.162003 
L 691.862085 -279.272913 
L 692.002153 -279.362273 
L 692.142221 -279.434397 
L 692.282289 -279.512446 
L 692.422356 -279.628018 
L 692.562424 -279.794168 
L 692.702492 -279.998895 
L 692.84256 -280.227837 
L 692.982628 -280.480544 
L 693.122696 -280.765489 
L 693.262764 -281.098107 
L 693.402832 -281.49806 
L 693.5429 -281.964274 
L 693.682968 -282.460617 
L 693.823035 -282.954132 
L 693.963103 -283.458206 
L 694.103171 -284.0061 
L 694.243239 -284.593438 
L 694.383307 -285.181576 
L 694.523375 -285.748174 
L 694.663443 -286.303557 
L 694.803511 -286.849094 
L 694.943579 -287.32327 
L 695.083647 -287.589036 
L 695.223714 -287.481343 
L 695.363782 -286.898897 
L 695.50385 -285.867702 
L 695.643918 -284.505783 
L 695.783986 -282.963551 
L 695.924054 -281.432218 
L 696.064122 -280.131861 
L 696.20419 -279.21094 
L 696.344258 -278.672737 
L 696.484325 -278.414042 
L 696.624393 -278.312384 
L 696.764461 -278.28014 
L 696.764461 -278.260217 
L 696.764461 -278.260217 
L 696.624393 -278.227973 
L 696.484325 -278.126315 
L 696.344258 -277.86762 
L 696.20419 -277.329417 
L 696.064122 -276.408496 
L 695.924054 -275.108139 
L 695.783986 -273.576806 
L 695.643918 -272.034574 
L 695.50385 -270.672655 
L 695.363782 -269.64146 
L 695.223714 -269.059014 
L 695.083647 -268.951321 
L 694.943579 -269.217087 
L 694.803511 -269.691264 
L 694.663443 -270.2368 
L 694.523375 -270.792183 
L 694.383307 -271.358781 
L 694.243239 -271.946919 
L 694.103171 -272.534257 
L 693.963103 -273.082151 
L 693.823035 -273.586225 
L 693.682968 -274.07974 
L 693.5429 -274.576083 
L 693.402832 -275.042297 
L 693.262764 -275.44225 
L 693.122696 -275.774868 
L 692.982628 -276.059814 
L 692.84256 -276.31252 
L 692.702492 -276.541463 
L 692.562424 -276.746189 
L 692.422356 -276.91234 
L 692.282289 -277.027911 
L 692.142221 -277.10596 
L 692.002153 -277.178084 
L 691.862085 -277.267444 
L 691.722017 -277.378354 
L 691.581949 -277.505692 
L 691.441881 -277.634731 
L 691.301813 -277.736667 
L 691.161745 -277.790211 
L 691.021678 -277.806462 
L 690.88161 -277.815998 
L 690.741542 -277.838565 
L 690.601474 -277.873972 
L 690.461406 -277.911206 
L 690.321338 -277.941992 
L 690.18127 -277.971541 
L 690.041202 -278.011702 
L 689.901134 -278.061516 
L 689.761066 -278.106089 
L 689.620999 -278.136883 
L 689.480931 -278.160542 
L 689.340863 -278.185569 
L 689.200795 -278.211188 
L 689.060727 -278.231478 
L 688.920659 -278.242935 
L 688.780591 -278.245887 
L 688.640523 -278.242102 
L 688.500455 -278.23342 
L 688.360387 -278.223211 
L 688.22032 -278.217206 
L 688.080252 -278.219631 
L 687.940184 -278.228064 
L 687.800116 -278.234937 
L 687.660048 -278.235693 
L 687.51998 -278.233498 
L 687.379912 -278.2344 
L 687.239844 -278.240237 
L 687.099776 -278.248378 
L 686.959709 -278.255831 
L 686.819641 -278.26083 
L 686.679573 -278.2625 
L 686.539505 -278.261653 
L 686.399437 -278.260896 
L 686.259369 -278.262253 
L 686.119301 -278.265207 
L 685.979233 -278.267921 
L 685.839165 -278.269439 
L 685.699097 -278.270004 
L 685.55903 -278.270149 
L 685.418962 -278.270175 
L 685.278894 -278.270178 
L 685.138826 -278.270179 
L 684.998758 -278.270179 
L 684.85869 -278.270179 
L 684.718622 -278.270179 
L 684.578554 -278.270179 
L 684.438486 -278.270178 
L 684.298418 -278.27017 
L 684.158351 -278.270115 
L 684.018283 -278.26985 
L 683.878215 -278.268963 
L 683.738147 -278.266936 
L 683.598079 -278.26394 
L 683.458011 -278.261523 
L 683.317943 -278.261517 
L 683.177875 -278.263928 
L 683.037807 -278.266926 
L 682.89774 -278.268958 
z
" id="mee2e213ca6" style="stroke:#494949;stroke-width:1.5;"/>
    </defs>
    <g clip-path="url(#pec7c1b6cd3)">
     <use style="fill:#e2bc7b;stroke:#494949;stroke-width:1.5;" x="0" xlink:href="#mee2e213ca6" y="378.65875"/>
    </g>
   </g>
   <g id="PolyCollection_5">
    <defs>
     <path d="M 660.513796 -254.971791 
L 660.513796 -254.97428 
L 661.106178 -254.977442 
L 661.69856 -254.981434 
L 662.290942 -254.981655 
L 662.883324 -254.977799 
L 663.475705 -254.974453 
L 664.068087 -254.973263 
L 664.660469 -254.973055 
L 665.252851 -254.973037 
L 665.845233 -254.973036 
L 666.437615 -254.973036 
L 667.029997 -254.973036 
L 667.622379 -254.973036 
L 668.214761 -254.97304 
L 668.807143 -254.973101 
L 669.399525 -254.973604 
L 669.991907 -254.975706 
L 670.584289 -254.979789 
L 671.176671 -254.982233 
L 671.769053 -254.979781 
L 672.361435 -254.975699 
L 672.953817 -254.973602 
L 673.546199 -254.973101 
L 674.138581 -254.97304 
L 674.730962 -254.973036 
L 675.323344 -254.973036 
L 675.915726 -254.973036 
L 676.508108 -254.973036 
L 677.10049 -254.973036 
L 677.692872 -254.973036 
L 678.285254 -254.973036 
L 678.877636 -254.973036 
L 679.470018 -254.973036 
L 680.0624 -254.973036 
L 680.654782 -254.973036 
L 681.247164 -254.973051 
L 681.839546 -254.973222 
L 682.431928 -254.974268 
L 683.02431 -254.977415 
L 683.616692 -254.981426 
L 684.209074 -254.98181 
L 684.801456 -254.978827 
L 685.393837 -254.97832 
L 685.986219 -254.981281 
L 686.578601 -254.982308 
L 687.170983 -254.980297 
L 687.763365 -254.980429 
L 688.355747 -254.982493 
L 688.948129 -254.982008 
L 689.540511 -254.982176 
L 690.132893 -254.987996 
L 690.725275 -254.993936 
L 691.317657 -254.996465 
L 691.910039 -255.004119 
L 692.502421 -255.016021 
L 693.094803 -255.021012 
L 693.687185 -255.019789 
L 694.279567 -255.020004 
L 694.871949 -255.025365 
L 695.464331 -255.033479 
L 696.056712 -255.035693 
L 696.649094 -255.033339 
L 697.241476 -255.043585 
L 697.833858 -255.074023 
L 698.42624 -255.110585 
L 699.018622 -255.142254 
L 699.611004 -255.171339 
L 700.203386 -255.198845 
L 700.795768 -255.223083 
L 701.38815 -255.244865 
L 701.980532 -255.277298 
L 702.572914 -255.345987 
L 703.165296 -255.445183 
L 703.757678 -255.522906 
L 704.35006 -255.562935 
L 704.942442 -255.609678 
L 705.534824 -255.715317 
L 706.127206 -255.91757 
L 706.719588 -256.186397 
L 707.311969 -256.464438 
L 707.904351 -256.75325 
L 708.496733 -257.063406 
L 709.089115 -257.426648 
L 709.681497 -257.932539 
L 710.273879 -258.623446 
L 710.866261 -259.441257 
L 711.458643 -260.304164 
L 712.051025 -261.230887 
L 712.643407 -262.269423 
L 713.235789 -263.316999 
L 713.828171 -264.110952 
L 714.420553 -264.291893 
L 715.012935 -263.612118 
L 715.605317 -262.089208 
L 716.197699 -259.990559 
L 716.790081 -257.839798 
L 717.382463 -256.228271 
L 717.974844 -255.376238 
L 718.567226 -255.064559 
L 719.159608 -254.987094 
L 719.159608 -254.958978 
L 719.159608 -254.958978 
L 718.567226 -254.881513 
L 717.974844 -254.569834 
L 717.382463 -253.717801 
L 716.790081 -252.106273 
L 716.197699 -249.955512 
L 715.605317 -247.856863 
L 715.012935 -246.333954 
L 714.420553 -245.654179 
L 713.828171 -245.83512 
L 713.235789 -246.629073 
L 712.643407 -247.676648 
L 712.051025 -248.715185 
L 711.458643 -249.641907 
L 710.866261 -250.504814 
L 710.273879 -251.322626 
L 709.681497 -252.013533 
L 709.089115 -252.519424 
L 708.496733 -252.882665 
L 707.904351 -253.192821 
L 707.311969 -253.481634 
L 706.719588 -253.759675 
L 706.127206 -254.028501 
L 705.534824 -254.230755 
L 704.942442 -254.336393 
L 704.35006 -254.383136 
L 703.757678 -254.423165 
L 703.165296 -254.500889 
L 702.572914 -254.600084 
L 701.980532 -254.668774 
L 701.38815 -254.701206 
L 700.795768 -254.722988 
L 700.203386 -254.747226 
L 699.611004 -254.774732 
L 699.018622 -254.803818 
L 698.42624 -254.835486 
L 697.833858 -254.872048 
L 697.241476 -254.902486 
L 696.649094 -254.912732 
L 696.056712 -254.910378 
L 695.464331 -254.912592 
L 694.871949 -254.920706 
L 694.279567 -254.926067 
L 693.687185 -254.926283 
L 693.094803 -254.925059 
L 692.502421 -254.93005 
L 691.910039 -254.941953 
L 691.317657 -254.949606 
L 690.725275 -254.952136 
L 690.132893 -254.958075 
L 689.540511 -254.963896 
L 688.948129 -254.964064 
L 688.355747 -254.963578 
L 687.763365 -254.965642 
L 687.170983 -254.965775 
L 686.578601 -254.963763 
L 685.986219 -254.964791 
L 685.393837 -254.967752 
L 684.801456 -254.967244 
L 684.209074 -254.964261 
L 683.616692 -254.964645 
L 683.02431 -254.968656 
L 682.431928 -254.971803 
L 681.839546 -254.972849 
L 681.247164 -254.97302 
L 680.654782 -254.973035 
L 680.0624 -254.973036 
L 679.470018 -254.973036 
L 678.877636 -254.973036 
L 678.285254 -254.973036 
L 677.692872 -254.973036 
L 677.10049 -254.973036 
L 676.508108 -254.973036 
L 675.915726 -254.973036 
L 675.323344 -254.973036 
L 674.730962 -254.973036 
L 674.138581 -254.973032 
L 673.546199 -254.972971 
L 672.953817 -254.972469 
L 672.361435 -254.970372 
L 671.769053 -254.966291 
L 671.176671 -254.963838 
L 670.584289 -254.966283 
L 669.991907 -254.970366 
L 669.399525 -254.972467 
L 668.807143 -254.972971 
L 668.214761 -254.973032 
L 667.622379 -254.973036 
L 667.029997 -254.973036 
L 666.437615 -254.973036 
L 665.845233 -254.973036 
L 665.252851 -254.973035 
L 664.660469 -254.973016 
L 664.068087 -254.972809 
L 663.475705 -254.971618 
L 662.883324 -254.968272 
L 662.290942 -254.964417 
L 661.69856 -254.964638 
L 661.106178 -254.96863 
L 660.513796 -254.971791 
z
" id="me286dd53df" style="stroke:#494949;stroke-width:1.5;"/>
    </defs>
    <g clip-path="url(#pec7c1b6cd3)">
     <use style="fill:#c2dc96;stroke:#494949;stroke-width:1.5;" x="0" xlink:href="#me286dd53df" y="378.65875"/>
    </g>
   </g>
   <g id="PolyCollection_6">
    <defs>
     <path d="M 672.933799 -231.675117 
L 672.933799 -231.676669 
L 673.409755 -231.678487 
L 673.885711 -231.681572 
L 674.361666 -231.684058 
L 674.837622 -231.683647 
L 675.313578 -231.680962 
L 675.789533 -231.678931 
L 676.265489 -231.679063 
L 676.741445 -231.680119 
L 677.2174 -231.680153 
L 677.693356 -231.679237 
L 678.169312 -231.679057 
L 678.645267 -231.679936 
L 679.121223 -231.680264 
L 679.597179 -231.679266 
L 680.073135 -231.678343 
L 680.54909 -231.678875 
L 681.025046 -231.680305 
L 681.501002 -231.681479 
L 681.976957 -231.683196 
L 682.452913 -231.686749 
L 682.928869 -231.690137 
L 683.404824 -231.690077 
L 683.88078 -231.68688 
L 684.356736 -231.683576 
L 684.832691 -231.68243 
L 685.308647 -231.683488 
L 685.784603 -231.685086 
L 686.260558 -231.686115 
L 686.736514 -231.68706 
L 687.21247 -231.688722 
L 687.688425 -231.691755 
L 688.164381 -231.697589 
L 688.640337 -231.707995 
L 689.116292 -231.721801 
L 689.592248 -231.732901 
L 690.068204 -231.736161 
L 690.54416 -231.735441 
L 691.020115 -231.73999 
L 691.496071 -231.751308 
L 691.972027 -231.760542 
L 692.447982 -231.761388 
L 692.923938 -231.757699 
L 693.399894 -231.757246 
L 693.875849 -231.762983 
L 694.351805 -231.77217 
L 694.827761 -231.781826 
L 695.303716 -231.791029 
L 695.779672 -231.801529 
L 696.255628 -231.819792 
L 696.731583 -231.85221 
L 697.207539 -231.892993 
L 697.683495 -231.926789 
L 698.15945 -231.946692 
L 698.635406 -231.95812 
L 699.111362 -231.970045 
L 699.587317 -231.990985 
L 700.063273 -232.027213 
L 700.539229 -232.079408 
L 701.015185 -232.143287 
L 701.49114 -232.214402 
L 701.967096 -232.287055 
L 702.443052 -232.356273 
L 702.919007 -232.425624 
L 703.394963 -232.503534 
L 703.870919 -232.594535 
L 704.346874 -232.699799 
L 704.82283 -232.827533 
L 705.298786 -232.992277 
L 705.774741 -233.189412 
L 706.250697 -233.395907 
L 706.726653 -233.604167 
L 707.202608 -233.817387 
L 707.678564 -234.045287 
L 708.15452 -234.315656 
L 708.630475 -234.638882 
L 709.106431 -234.995972 
L 709.582387 -235.390431 
L 710.058342 -235.871253 
L 710.534298 -236.479695 
L 711.010254 -237.191781 
L 711.48621 -237.950687 
L 711.962165 -238.723663 
L 712.438121 -239.464982 
L 712.914077 -240.094514 
L 713.390032 -240.569328 
L 713.865988 -240.888938 
L 714.341944 -240.99475 
L 714.817899 -240.74946 
L 715.293855 -240.064293 
L 715.769811 -238.966364 
L 716.245766 -237.524007 
L 716.721722 -235.868873 
L 717.197678 -234.281084 
L 717.673633 -233.052796 
L 718.149589 -232.287692 
L 718.625545 -231.901932 
L 719.1015 -231.744721 
L 719.577456 -231.692941 
L 720.053412 -231.679221 
L 720.053412 -231.672565 
L 720.053412 -231.672565 
L 719.577456 -231.658845 
L 719.1015 -231.607065 
L 718.625545 -231.449854 
L 718.149589 -231.064094 
L 717.673633 -230.29899 
L 717.197678 -229.070702 
L 716.721722 -227.482913 
L 716.245766 -225.827779 
L 715.769811 -224.385422 
L 715.293855 -223.287492 
L 714.817899 -222.602325 
L 714.341944 -222.357036 
L 713.865988 -222.462848 
L 713.390032 -222.782458 
L 712.914077 -223.257272 
L 712.438121 -223.886803 
L 711.962165 -224.628123 
L 711.48621 -225.401099 
L 711.010254 -226.160004 
L 710.534298 -226.87209 
L 710.058342 -227.480533 
L 709.582387 -227.961355 
L 709.106431 -228.355814 
L 708.630475 -228.712904 
L 708.15452 -229.03613 
L 707.678564 -229.306499 
L 707.202608 -229.534399 
L 706.726653 -229.747619 
L 706.250697 -229.955879 
L 705.774741 -230.162374 
L 705.298786 -230.359509 
L 704.82283 -230.524253 
L 704.346874 -230.651986 
L 703.870919 -230.75725 
L 703.394963 -230.848252 
L 702.919007 -230.926162 
L 702.443052 -230.995513 
L 701.967096 -231.064731 
L 701.49114 -231.137383 
L 701.015185 -231.208499 
L 700.539229 -231.272378 
L 700.063273 -231.324573 
L 699.587317 -231.360801 
L 699.111362 -231.38174 
L 698.635406 -231.393666 
L 698.15945 -231.405094 
L 697.683495 -231.424997 
L 697.207539 -231.458793 
L 696.731583 -231.499576 
L 696.255628 -231.531994 
L 695.779672 -231.550257 
L 695.303716 -231.560757 
L 694.827761 -231.56996 
L 694.351805 -231.579616 
L 693.875849 -231.588802 
L 693.399894 -231.59454 
L 692.923938 -231.594087 
L 692.447982 -231.590398 
L 691.972027 -231.591243 
L 691.496071 -231.600478 
L 691.020115 -231.611795 
L 690.54416 -231.616344 
L 690.068204 -231.615625 
L 689.592248 -231.618885 
L 689.116292 -231.629985 
L 688.640337 -231.643791 
L 688.164381 -231.654197 
L 687.688425 -231.660031 
L 687.21247 -231.663064 
L 686.736514 -231.664725 
L 686.260558 -231.66567 
L 685.784603 -231.6667 
L 685.308647 -231.668298 
L 684.832691 -231.669355 
L 684.356736 -231.668209 
L 683.88078 -231.664905 
L 683.404824 -231.661708 
L 682.928869 -231.661649 
L 682.452913 -231.665037 
L 681.976957 -231.668589 
L 681.501002 -231.670306 
L 681.025046 -231.671481 
L 680.54909 -231.672911 
L 680.073135 -231.673442 
L 679.597179 -231.67252 
L 679.121223 -231.671522 
L 678.645267 -231.67185 
L 678.169312 -231.672728 
L 677.693356 -231.672549 
L 677.2174 -231.671633 
L 676.741445 -231.671667 
L 676.265489 -231.672722 
L 675.789533 -231.672854 
L 675.313578 -231.670824 
L 674.837622 -231.668138 
L 674.361666 -231.667727 
L 673.885711 -231.670213 
L 673.409755 -231.673299 
L 672.933799 -231.675117 
z
" id="m01f5138114" style="stroke:#494949;stroke-width:1.5;"/>
    </defs>
    <g clip-path="url(#pec7c1b6cd3)">
     <use style="fill:#a4efb0;stroke:#494949;stroke-width:1.5;" x="0" xlink:href="#m01f5138114" y="378.65875"/>
    </g>
   </g>
   <g id="PolyCollection_7">
    <defs>
     <path d="M 702.981631 -208.37822 
L 702.981631 -208.37928 
L 703.171503 -208.380522 
L 703.361375 -208.382172 
L 703.551247 -208.382566 
L 703.741119 -208.381207 
L 703.930991 -208.379663 
L 704.120863 -208.378946 
L 704.310735 -208.378774 
L 704.500607 -208.378752 
L 704.690478 -208.378752 
L 704.88035 -208.378782 
L 705.070222 -208.378989 
L 705.260094 -208.379799 
L 705.449966 -208.381403 
L 705.639838 -208.382627 
L 705.82971 -208.382051 
L 706.019582 -208.380637 
L 706.209454 -208.380688 
L 706.399326 -208.383317 
L 706.589197 -208.387284 
L 706.779069 -208.390028 
L 706.968941 -208.390639 
L 707.158813 -208.389761 
L 707.348685 -208.388991 
L 707.538557 -208.389449 
L 707.728429 -208.389978 
L 707.918301 -208.389988 
L 708.108173 -208.390399 
L 708.298044 -208.391933 
L 708.487916 -208.393503 
L 708.677788 -208.394063 
L 708.86766 -208.394947 
L 709.057532 -208.39478 
L 709.247404 -208.390804 
L 709.437276 -208.386518 
L 709.627148 -208.387601 
L 709.81702 -208.392762 
L 710.006891 -208.395221 
L 710.196763 -208.394232 
L 710.386635 -208.395092 
L 710.576507 -208.396825 
L 710.766379 -208.39623 
L 710.956251 -208.396346 
L 711.146123 -208.398413 
L 711.335995 -208.401012 
L 711.525867 -208.407032 
L 711.715739 -208.41736 
L 711.90561 -208.426466 
L 712.095482 -208.432549 
L 712.285354 -208.440691 
L 712.475226 -208.452936 
L 712.665098 -208.464833 
L 712.85497 -208.46918 
L 713.044842 -208.467229 
L 713.234714 -208.473849 
L 713.424586 -208.49248 
L 713.614457 -208.507376 
L 713.804329 -208.518109 
L 713.994201 -208.541473 
L 714.184073 -208.577871 
L 714.373945 -208.61024 
L 714.563817 -208.631086 
L 714.753689 -208.652668 
L 714.943561 -208.689745 
L 715.133433 -208.742177 
L 715.323305 -208.794798 
L 715.513176 -208.833744 
L 715.703048 -208.860426 
L 715.89292 -208.890836 
L 716.082792 -208.947341 
L 716.272664 -209.038731 
L 716.462536 -209.144811 
L 716.652408 -209.242018 
L 716.84228 -209.339692 
L 717.032152 -209.46331 
L 717.222023 -209.617462 
L 717.411895 -209.783773 
L 717.601767 -209.953717 
L 717.791639 -210.162544 
L 717.981511 -210.460976 
L 718.171383 -210.862121 
L 718.361255 -211.332107 
L 718.551127 -211.826395 
L 718.740999 -212.344188 
L 718.93087 -212.921072 
L 719.120742 -213.566714 
L 719.310614 -214.247529 
L 719.500486 -214.951463 
L 719.690358 -215.714314 
L 719.88023 -216.52097 
L 720.070102 -217.246159 
L 720.259974 -217.697607 
L 720.449846 -217.644775 
L 720.639718 -216.836337 
L 720.829589 -215.143925 
L 721.019461 -212.844853 
L 721.209333 -210.659598 
L 721.399205 -209.226631 
L 721.589077 -208.596411 
L 721.778949 -208.415718 
L 721.778949 -208.341782 
L 721.778949 -208.341782 
L 721.589077 -208.161089 
L 721.399205 -207.530869 
L 721.209333 -206.097902 
L 721.019461 -203.912647 
L 720.829589 -201.613575 
L 720.639718 -199.921163 
L 720.449846 -199.112725 
L 720.259974 -199.059893 
L 720.070102 -199.511341 
L 719.88023 -200.23653 
L 719.690358 -201.043186 
L 719.500486 -201.806037 
L 719.310614 -202.509971 
L 719.120742 -203.190786 
L 718.93087 -203.836428 
L 718.740999 -204.413312 
L 718.551127 -204.931105 
L 718.361255 -205.425393 
L 718.171383 -205.895379 
L 717.981511 -206.296524 
L 717.791639 -206.594956 
L 717.601767 -206.803783 
L 717.411895 -206.973727 
L 717.222023 -207.140038 
L 717.032152 -207.29419 
L 716.84228 -207.417808 
L 716.652408 -207.515482 
L 716.462536 -207.612689 
L 716.272664 -207.718769 
L 716.082792 -207.810159 
L 715.89292 -207.866664 
L 715.703048 -207.897074 
L 715.513176 -207.923756 
L 715.323305 -207.962702 
L 715.133433 -208.015323 
L 714.943561 -208.067755 
L 714.753689 -208.104832 
L 714.563817 -208.126414 
L 714.373945 -208.14726 
L 714.184073 -208.179629 
L 713.994201 -208.216027 
L 713.804329 -208.239391 
L 713.614457 -208.250124 
L 713.424586 -208.26502 
L 713.234714 -208.283651 
L 713.044842 -208.290271 
L 712.85497 -208.28832 
L 712.665098 -208.292667 
L 712.475226 -208.304564 
L 712.285354 -208.316809 
L 712.095482 -208.324951 
L 711.90561 -208.331034 
L 711.715739 -208.34014 
L 711.525867 -208.350468 
L 711.335995 -208.356488 
L 711.146123 -208.359087 
L 710.956251 -208.361154 
L 710.766379 -208.36127 
L 710.576507 -208.360675 
L 710.386635 -208.362408 
L 710.196763 -208.363268 
L 710.006891 -208.362279 
L 709.81702 -208.364738 
L 709.627148 -208.369899 
L 709.437276 -208.370982 
L 709.247404 -208.366696 
L 709.057532 -208.36272 
L 708.86766 -208.362553 
L 708.677788 -208.363437 
L 708.487916 -208.363997 
L 708.298044 -208.365567 
L 708.108173 -208.367101 
L 707.918301 -208.367512 
L 707.728429 -208.367522 
L 707.538557 -208.368051 
L 707.348685 -208.368509 
L 707.158813 -208.367739 
L 706.968941 -208.366861 
L 706.779069 -208.367472 
L 706.589197 -208.370216 
L 706.399326 -208.374183 
L 706.209454 -208.376812 
L 706.019582 -208.376863 
L 705.82971 -208.375449 
L 705.639838 -208.374873 
L 705.449966 -208.376097 
L 705.260094 -208.377701 
L 705.070222 -208.378511 
L 704.88035 -208.378718 
L 704.690478 -208.378748 
L 704.500607 -208.378748 
L 704.310735 -208.378726 
L 704.120863 -208.378554 
L 703.930991 -208.377837 
L 703.741119 -208.376293 
L 703.551247 -208.374934 
L 703.361375 -208.375328 
L 703.171503 -208.376978 
L 702.981631 -208.37822 
z
" id="m19eef6c91f" style="stroke:#494949;stroke-width:1.5;"/>
    </defs>
    <g clip-path="url(#pec7c1b6cd3)">
     <use style="fill:#7be9bd;stroke:#494949;stroke-width:1.5;" x="0" xlink:href="#m19eef6c91f" y="378.65875"/>
    </g>
   </g>
   <g id="PolyCollection_8">
    <defs>
     <path d="M 688.376705 -185.081065 
L 688.376705 -185.082149 
L 688.710531 -185.083706 
L 689.044357 -185.085464 
L 689.378183 -185.084973 
L 689.712009 -185.083001 
L 690.045834 -185.081881 
L 690.37966 -185.081633 
L 690.713486 -185.081608 
L 691.047312 -185.081608 
L 691.381138 -185.081629 
L 691.714964 -185.081851 
L 692.04879 -185.082903 
L 692.382616 -185.084892 
L 692.716442 -185.085786 
L 693.050268 -185.085601 
L 693.384094 -185.087676 
L 693.717919 -185.089689 
L 694.051745 -185.087176 
L 694.385571 -185.083444 
L 694.719397 -185.081895 
L 695.053223 -185.081629 
L 695.387049 -185.081608 
L 695.720875 -185.081607 
L 696.054701 -185.081607 
L 696.388527 -185.081612 
L 696.722353 -185.081682 
L 697.056179 -185.082197 
L 697.390005 -185.083809 
L 697.72383 -185.085507 
L 698.057656 -185.084885 
L 698.391482 -185.082915 
L 698.725308 -185.081858 
L 699.059134 -185.081684 
L 699.39296 -185.082083 
L 699.726786 -185.083552 
L 700.060612 -185.0854 
L 700.394438 -185.085292 
L 700.728264 -185.084703 
L 701.06209 -185.088057 
L 701.395916 -185.093619 
L 701.729741 -185.094683 
L 702.063567 -185.093547 
L 702.397393 -185.096958 
L 702.731219 -185.103628 
L 703.065045 -185.107506 
L 703.398871 -185.108262 
L 703.732697 -185.109235 
L 704.066523 -185.111477 
L 704.400349 -185.112309 
L 704.734175 -185.109138 
L 705.068001 -185.10801 
L 705.401827 -185.109832 
L 705.735652 -185.109599 
L 706.069478 -185.112754 
L 706.403304 -185.119287 
L 706.73713 -185.126231 
L 707.070956 -185.138344 
L 707.404782 -185.150996 
L 707.738608 -185.157273 
L 708.072434 -185.161303 
L 708.40626 -185.166151 
L 708.740086 -185.176953 
L 709.073912 -185.201712 
L 709.407738 -185.230088 
L 709.741563 -185.250631 
L 710.075389 -185.271989 
L 710.409215 -185.297616 
L 710.743041 -185.332813 
L 711.076867 -185.385174 
L 711.410693 -185.438951 
L 711.744519 -185.468428 
L 712.078345 -185.498005 
L 712.412171 -185.576346 
L 712.745997 -185.68686 
L 713.079823 -185.801716 
L 713.413649 -185.932453 
L 713.747474 -186.06681 
L 714.0813 -186.203366 
L 714.415126 -186.388589 
L 714.748952 -186.609536 
L 715.082778 -186.824868 
L 715.416604 -187.063919 
L 715.75043 -187.355247 
L 716.084256 -187.740425 
L 716.418082 -188.261658 
L 716.751908 -188.899331 
L 717.085734 -189.651045 
L 717.41956 -190.508851 
L 717.753385 -191.442469 
L 718.087211 -192.385373 
L 718.421037 -193.226958 
L 718.754863 -193.943994 
L 719.088689 -194.400464 
L 719.422515 -194.227271 
L 719.756341 -193.103747 
L 720.090167 -190.964156 
L 720.423993 -188.342618 
L 720.757819 -186.31517 
L 721.091645 -185.373861 
L 721.425471 -185.122 
L 721.425471 -185.041214 
L 721.425471 -185.041214 
L 721.091645 -184.789353 
L 720.757819 -183.848044 
L 720.423993 -181.820596 
L 720.090167 -179.199059 
L 719.756341 -177.059468 
L 719.422515 -175.935943 
L 719.088689 -175.76275 
L 718.754863 -176.21922 
L 718.421037 -176.936256 
L 718.087211 -177.777841 
L 717.753385 -178.720745 
L 717.41956 -179.654363 
L 717.085734 -180.51217 
L 716.751908 -181.263883 
L 716.418082 -181.901557 
L 716.084256 -182.42279 
L 715.75043 -182.807968 
L 715.416604 -183.099295 
L 715.082778 -183.338346 
L 714.748952 -183.553679 
L 714.415126 -183.774626 
L 714.0813 -183.959848 
L 713.747474 -184.096404 
L 713.413649 -184.230761 
L 713.079823 -184.361498 
L 712.745997 -184.476354 
L 712.412171 -184.586868 
L 712.078345 -184.665209 
L 711.744519 -184.694786 
L 711.410693 -184.724263 
L 711.076867 -184.778041 
L 710.743041 -184.830402 
L 710.409215 -184.865598 
L 710.075389 -184.891226 
L 709.741563 -184.912583 
L 709.407738 -184.933126 
L 709.073912 -184.961502 
L 708.740086 -184.986261 
L 708.40626 -184.997063 
L 708.072434 -185.001911 
L 707.738608 -185.005942 
L 707.404782 -185.012218 
L 707.070956 -185.02487 
L 706.73713 -185.036984 
L 706.403304 -185.043928 
L 706.069478 -185.05046 
L 705.735652 -185.053615 
L 705.401827 -185.053382 
L 705.068001 -185.055204 
L 704.734175 -185.054077 
L 704.400349 -185.050905 
L 704.066523 -185.051737 
L 703.732697 -185.053979 
L 703.398871 -185.054952 
L 703.065045 -185.055708 
L 702.731219 -185.059587 
L 702.397393 -185.066256 
L 702.063567 -185.069668 
L 701.729741 -185.068531 
L 701.395916 -185.069595 
L 701.06209 -185.075157 
L 700.728264 -185.078511 
L 700.394438 -185.077922 
L 700.060612 -185.077815 
L 699.726786 -185.079663 
L 699.39296 -185.081132 
L 699.059134 -185.08153 
L 698.725308 -185.081356 
L 698.391482 -185.080299 
L 698.057656 -185.078329 
L 697.72383 -185.077708 
L 697.390005 -185.079405 
L 697.056179 -185.081017 
L 696.722353 -185.081532 
L 696.388527 -185.081603 
L 696.054701 -185.081607 
L 695.720875 -185.081607 
L 695.387049 -185.081606 
L 695.053223 -185.081586 
L 694.719397 -185.081319 
L 694.385571 -185.07977 
L 694.051745 -185.076039 
L 693.717919 -185.073525 
L 693.384094 -185.075538 
L 693.050268 -185.077613 
L 692.716442 -185.077428 
L 692.382616 -185.078323 
L 692.04879 -185.080311 
L 691.714964 -185.081363 
L 691.381138 -185.081585 
L 691.047312 -185.081606 
L 690.713486 -185.081606 
L 690.37966 -185.081582 
L 690.045834 -185.081333 
L 689.712009 -185.080213 
L 689.378183 -185.078241 
L 689.044357 -185.07775 
L 688.710531 -185.079509 
L 688.376705 -185.081065 
z
" id="m1e9cdbf282" style="stroke:#494949;stroke-width:1.5;"/>
    </defs>
    <g clip-path="url(#pec7c1b6cd3)">
     <use style="fill:#50d2c5;stroke:#494949;stroke-width:1.5;" x="0" xlink:href="#m1e9cdbf282" y="378.65875"/>
    </g>
   </g>
   <g id="PolyCollection_9">
    <defs>
     <path d="M 629.744306 -161.784011 
L 629.744306 -161.784917 
L 629.99932 -161.785729 
L 630.254334 -161.786914 
L 630.509348 -161.787754 
L 630.764362 -161.787529 
L 631.019376 -161.786446 
L 631.27439 -161.785369 
L 631.529404 -161.784843 
L 631.784418 -161.784947 
L 632.039432 -161.785681 
L 632.294446 -161.786869 
L 632.549459 -161.787864 
L 632.804473 -161.788175 
L 633.059487 -161.788457 
L 633.314501 -161.789832 
L 633.569515 -161.792042 
L 633.824529 -161.793436 
L 634.079543 -161.793092 
L 634.334557 -161.791875 
L 634.589571 -161.791194 
L 634.844585 -161.79156 
L 635.099599 -161.792667 
L 635.354613 -161.794342 
L 635.609627 -161.796656 
L 635.86464 -161.799181 
L 636.119654 -161.801084 
L 636.374668 -161.802155 
L 636.629682 -161.802792 
L 636.884696 -161.803233 
L 637.13971 -161.80402 
L 637.394724 -161.80645 
L 637.649738 -161.811185 
L 637.904752 -161.817373 
L 638.159766 -161.823965 
L 638.41478 -161.830254 
L 638.669794 -161.834306 
L 638.924808 -161.833344 
L 639.179821 -161.827568 
L 639.434835 -161.822384 
L 639.689849 -161.825048 
L 639.944863 -161.838191 
L 640.199877 -161.857531 
L 640.454891 -161.876859 
L 640.709905 -161.892551 
L 640.964919 -161.901581 
L 641.219933 -161.900826 
L 641.474947 -161.892745 
L 641.729961 -161.886924 
L 641.984975 -161.892011 
L 642.239989 -161.90803 
L 642.495002 -161.927691 
L 642.750016 -161.943255 
L 643.00503 -161.951163 
L 643.260044 -161.953204 
L 643.515058 -161.956422 
L 643.770072 -161.969736 
L 644.025086 -161.996711 
L 644.2801 -162.031536 
L 644.535114 -162.064789 
L 644.790128 -162.093656 
L 645.045142 -162.125182 
L 645.300156 -162.167679 
L 645.55517 -162.216723 
L 645.810183 -162.255515 
L 646.065197 -162.277309 
L 646.320211 -162.298493 
L 646.575225 -162.339091 
L 646.830239 -162.402524 
L 647.085253 -162.481223 
L 647.340267 -162.567772 
L 647.595281 -162.659205 
L 647.850295 -162.760352 
L 648.105309 -162.879843 
L 648.360323 -163.018576 
L 648.615337 -163.168288 
L 648.87035 -163.322908 
L 649.125364 -163.484437 
L 649.380378 -163.658569 
L 649.635392 -163.850795 
L 649.890406 -164.06894 
L 650.14542 -164.324965 
L 650.400434 -164.6229 
L 650.655448 -164.947341 
L 650.910462 -165.276342 
L 651.165476 -165.603645 
L 651.42049 -165.949902 
L 651.675504 -166.357806 
L 651.930518 -166.871914 
L 652.185531 -167.518893 
L 652.440545 -168.29238 
L 652.695559 -169.139381 
L 652.950573 -169.974284 
L 653.205587 -170.699188 
L 653.460601 -171.103321 
L 653.715615 -170.732079 
L 653.970629 -169.180982 
L 654.225643 -166.730284 
L 654.480657 -164.336379 
L 654.735671 -162.768523 
L 654.990685 -162.062129 
L 654.990685 -161.5068 
L 654.990685 -161.5068 
L 654.735671 -160.800405 
L 654.480657 -159.23255 
L 654.225643 -156.838645 
L 653.970629 -154.387946 
L 653.715615 -152.83685 
L 653.460601 -152.465607 
L 653.205587 -152.86974 
L 652.950573 -153.594645 
L 652.695559 -154.429548 
L 652.440545 -155.276549 
L 652.185531 -156.050036 
L 651.930518 -156.697014 
L 651.675504 -157.211123 
L 651.42049 -157.619027 
L 651.165476 -157.965283 
L 650.910462 -158.292587 
L 650.655448 -158.621587 
L 650.400434 -158.946028 
L 650.14542 -159.243963 
L 649.890406 -159.499989 
L 649.635392 -159.718134 
L 649.380378 -159.91036 
L 649.125364 -160.084491 
L 648.87035 -160.24602 
L 648.615337 -160.40064 
L 648.360323 -160.550353 
L 648.105309 -160.689085 
L 647.850295 -160.808576 
L 647.595281 -160.909724 
L 647.340267 -161.001157 
L 647.085253 -161.087706 
L 646.830239 -161.166404 
L 646.575225 -161.229837 
L 646.320211 -161.270435 
L 646.065197 -161.291619 
L 645.810183 -161.313413 
L 645.55517 -161.352206 
L 645.300156 -161.401249 
L 645.045142 -161.443747 
L 644.790128 -161.475273 
L 644.535114 -161.504139 
L 644.2801 -161.537392 
L 644.025086 -161.572218 
L 643.770072 -161.599192 
L 643.515058 -161.612507 
L 643.260044 -161.615725 
L 643.00503 -161.617766 
L 642.750016 -161.625673 
L 642.495002 -161.641238 
L 642.239989 -161.660898 
L 641.984975 -161.676918 
L 641.729961 -161.682004 
L 641.474947 -161.676184 
L 641.219933 -161.668102 
L 640.964919 -161.667347 
L 640.709905 -161.676377 
L 640.454891 -161.69207 
L 640.199877 -161.711397 
L 639.944863 -161.730738 
L 639.689849 -161.743881 
L 639.434835 -161.746545 
L 639.179821 -161.741361 
L 638.924808 -161.735585 
L 638.669794 -161.734623 
L 638.41478 -161.738674 
L 638.159766 -161.744964 
L 637.904752 -161.751556 
L 637.649738 -161.757744 
L 637.394724 -161.762478 
L 637.13971 -161.764908 
L 636.884696 -161.765695 
L 636.629682 -161.766136 
L 636.374668 -161.766774 
L 636.119654 -161.767845 
L 635.86464 -161.769748 
L 635.609627 -161.772273 
L 635.354613 -161.774587 
L 635.099599 -161.776262 
L 634.844585 -161.777369 
L 634.589571 -161.777735 
L 634.334557 -161.777053 
L 634.079543 -161.775837 
L 633.824529 -161.775492 
L 633.569515 -161.776886 
L 633.314501 -161.779097 
L 633.059487 -161.780472 
L 632.804473 -161.780753 
L 632.549459 -161.781065 
L 632.294446 -161.78206 
L 632.039432 -161.783247 
L 631.784418 -161.783982 
L 631.529404 -161.784086 
L 631.27439 -161.78356 
L 631.019376 -161.782482 
L 630.764362 -161.781399 
L 630.509348 -161.781174 
L 630.254334 -161.782015 
L 629.99932 -161.783199 
L 629.744306 -161.784011 
z
" id="m6bb7bccf3b" style="stroke:#494949;stroke-width:1.5;"/>
    </defs>
    <g clip-path="url(#pec7c1b6cd3)">
     <use style="fill:#28afcc;stroke:#494949;stroke-width:1.5;" x="0" xlink:href="#m6bb7bccf3b" y="378.65875"/>
    </g>
   </g>
   <g id="PolyCollection_10">
    <defs>
     <path d="M 663.982036 -138.486637 
L 663.982036 -138.488006 
L 664.54621 -138.48932 
L 665.110384 -138.491268 
L 665.674557 -138.492795 
L 666.238731 -138.493392 
L 666.802905 -138.494293 
L 667.367079 -138.496235 
L 667.931252 -138.497327 
L 668.495426 -138.495619 
L 669.0596 -138.492151 
L 669.623773 -138.489395 
L 670.187947 -138.48854 
L 670.752121 -138.489526 
L 671.316294 -138.49179 
L 671.880468 -138.494178 
L 672.444642 -138.495405 
L 673.008816 -138.49489 
L 673.572989 -138.492959 
L 674.137163 -138.490991 
L 674.701337 -138.490989 
L 675.26551 -138.494213 
L 675.829684 -138.500085 
L 676.393858 -138.506411 
L 676.958032 -138.511072 
L 677.522205 -138.513738 
L 678.086379 -138.515707 
L 678.650553 -138.517596 
L 679.214726 -138.518695 
L 679.7789 -138.518557 
L 680.343074 -138.517121 
L 680.907247 -138.515564 
L 681.471421 -138.516908 
L 682.035595 -138.523215 
L 682.599769 -138.533335 
L 683.163942 -138.543618 
L 683.728116 -138.549955 
L 684.29229 -138.551333 
L 684.856463 -138.554552 
L 685.420637 -138.570241 
L 685.984811 -138.599431 
L 686.548984 -138.630639 
L 687.113158 -138.652158 
L 687.677332 -138.662228 
L 688.241506 -138.668406 
L 688.805679 -138.678932 
L 689.369853 -138.696748 
L 689.934027 -138.722835 
L 690.4982 -138.754816 
L 691.062374 -138.781868 
L 691.626548 -138.798059 
L 692.190721 -138.818112 
L 692.754895 -138.862396 
L 693.319069 -138.93323 
L 693.883243 -139.015755 
L 694.447416 -139.093855 
L 695.01159 -139.163806 
L 695.575764 -139.234993 
L 696.139937 -139.318236 
L 696.704111 -139.420849 
L 697.268285 -139.552236 
L 697.832459 -139.713445 
L 698.396632 -139.877258 
L 698.960806 -140.01067 
L 699.52498 -140.124758 
L 700.089153 -140.269239 
L 700.653327 -140.476018 
L 701.217501 -140.735625 
L 701.781674 -141.021118 
L 702.345848 -141.320322 
L 702.910022 -141.646139 
L 703.474196 -142.012547 
L 704.038369 -142.432074 
L 704.602543 -142.935285 
L 705.166717 -143.520443 
L 705.73089 -144.115116 
L 706.295064 -144.66095 
L 706.859238 -145.18724 
L 707.423411 -145.74819 
L 707.987585 -146.332647 
L 708.551759 -146.878034 
L 709.115933 -147.32763 
L 709.680106 -147.64492 
L 710.24428 -147.806179 
L 710.808454 -147.796951 
L 711.372627 -147.614064 
L 711.936801 -147.254437 
L 712.500975 -146.681375 
L 713.065148 -145.838532 
L 713.629322 -144.731578 
L 714.193496 -143.464445 
L 714.75767 -142.188527 
L 715.321843 -141.038342 
L 715.886017 -140.099133 
L 716.450191 -139.403243 
L 717.014364 -138.942247 
L 717.578538 -138.678748 
L 718.142712 -138.554353 
L 718.706886 -138.507058 
L 719.271059 -138.492352 
L 719.835233 -138.488432 
L 719.835233 -138.486211 
L 719.835233 -138.486211 
L 719.271059 -138.48229 
L 718.706886 -138.467585 
L 718.142712 -138.42029 
L 717.578538 -138.295894 
L 717.014364 -138.032396 
L 716.450191 -137.5714 
L 715.886017 -136.875509 
L 715.321843 -135.936301 
L 714.75767 -134.786116 
L 714.193496 -133.510198 
L 713.629322 -132.243064 
L 713.065148 -131.13611 
L 712.500975 -130.293268 
L 711.936801 -129.720206 
L 711.372627 -129.360579 
L 710.808454 -129.177691 
L 710.24428 -129.168464 
L 709.680106 -129.329723 
L 709.115933 -129.647013 
L 708.551759 -130.096609 
L 707.987585 -130.641996 
L 707.423411 -131.226453 
L 706.859238 -131.787403 
L 706.295064 -132.313693 
L 705.73089 -132.859527 
L 705.166717 -133.4542 
L 704.602543 -134.039358 
L 704.038369 -134.542569 
L 703.474196 -134.962096 
L 702.910022 -135.328504 
L 702.345848 -135.654321 
L 701.781674 -135.953525 
L 701.217501 -136.239018 
L 700.653327 -136.498625 
L 700.089153 -136.705404 
L 699.52498 -136.849885 
L 698.960806 -136.963973 
L 698.396632 -137.097385 
L 697.832459 -137.261198 
L 697.268285 -137.422407 
L 696.704111 -137.553794 
L 696.139937 -137.656407 
L 695.575764 -137.73965 
L 695.01159 -137.810837 
L 694.447416 -137.880788 
L 693.883243 -137.958888 
L 693.319069 -138.041413 
L 692.754895 -138.112247 
L 692.190721 -138.156531 
L 691.626548 -138.176584 
L 691.062374 -138.192775 
L 690.4982 -138.219827 
L 689.934027 -138.251808 
L 689.369853 -138.277895 
L 688.805679 -138.295711 
L 688.241506 -138.306236 
L 687.677332 -138.312415 
L 687.113158 -138.322485 
L 686.548984 -138.344004 
L 685.984811 -138.375212 
L 685.420637 -138.404401 
L 684.856463 -138.420091 
L 684.29229 -138.42331 
L 683.728116 -138.424688 
L 683.163942 -138.431025 
L 682.599769 -138.441308 
L 682.035595 -138.451428 
L 681.471421 -138.457735 
L 680.907247 -138.459079 
L 680.343074 -138.457522 
L 679.7789 -138.456086 
L 679.214726 -138.455948 
L 678.650553 -138.457047 
L 678.086379 -138.458935 
L 677.522205 -138.460904 
L 676.958032 -138.463571 
L 676.393858 -138.468232 
L 675.829684 -138.474558 
L 675.26551 -138.48043 
L 674.701337 -138.483654 
L 674.137163 -138.483651 
L 673.572989 -138.481684 
L 673.008816 -138.479753 
L 672.444642 -138.479237 
L 671.880468 -138.480465 
L 671.316294 -138.482853 
L 670.752121 -138.485117 
L 670.187947 -138.486102 
L 669.623773 -138.485248 
L 669.0596 -138.482492 
L 668.495426 -138.479024 
L 667.931252 -138.477316 
L 667.367079 -138.478408 
L 666.802905 -138.48035 
L 666.238731 -138.481251 
L 665.674557 -138.481848 
L 665.110384 -138.483375 
L 664.54621 -138.485323 
L 663.982036 -138.486637 
z
" id="m9f3e6bb6ff" style="stroke:#494949;stroke-width:1.5;"/>
    </defs>
    <g clip-path="url(#pec7c1b6cd3)">
     <use style="fill:#3d8adb;stroke:#494949;stroke-width:1.5;" x="0" xlink:href="#m9f3e6bb6ff" y="378.65875"/>
    </g>
   </g>
   <g id="PolyCollection_11">
    <defs>
     <path d="M 663.957318 -115.188999 
L 663.957318 -115.191358 
L 664.527584 -115.194175 
L 665.09785 -115.197879 
L 665.668116 -115.198622 
L 666.238381 -115.195446 
L 666.808647 -115.192048 
L 667.378913 -115.190556 
L 667.949179 -115.190222 
L 668.519445 -115.190181 
L 669.08971 -115.190179 
L 669.659976 -115.190179 
L 670.230242 -115.190179 
L 670.800508 -115.190179 
L 671.370773 -115.190179 
L 671.941039 -115.190179 
L 672.511305 -115.190179 
L 673.081571 -115.190179 
L 673.651836 -115.190179 
L 674.222102 -115.190179 
L 674.792368 -115.190179 
L 675.362634 -115.190179 
L 675.9329 -115.190179 
L 676.503165 -115.190179 
L 677.073431 -115.190179 
L 677.643697 -115.190179 
L 678.213963 -115.190179 
L 678.784228 -115.190179 
L 679.354494 -115.190189 
L 679.92476 -115.190303 
L 680.495026 -115.191015 
L 681.065291 -115.193385 
L 681.635557 -115.197175 
L 682.205823 -115.198874 
L 682.776089 -115.196443 
L 683.346355 -115.193537 
L 683.91662 -115.194326 
L 684.486886 -115.198979 
L 685.057152 -115.203819 
L 685.627418 -115.204757 
L 686.197683 -115.202094 
L 686.767949 -115.202015 
L 687.338215 -115.209972 
L 687.908481 -115.219778 
L 688.478747 -115.219747 
L 689.049012 -115.210607 
L 689.619278 -115.203669 
L 690.189544 -115.206115 
L 690.75981 -115.215507 
L 691.330075 -115.225293 
L 691.900341 -115.229738 
L 692.470607 -115.226444 
L 693.040873 -115.220918 
L 693.611138 -115.219015 
L 694.181404 -115.219818 
L 694.75167 -115.223819 
L 695.321936 -115.230947 
L 695.892202 -115.236342 
L 696.462467 -115.246165 
L 697.032733 -115.275695 
L 697.602999 -115.315611 
L 698.173265 -115.336856 
L 698.74353 -115.335371 
L 699.313796 -115.332724 
L 699.884062 -115.348272 
L 700.454328 -115.386763 
L 701.024593 -115.438843 
L 701.594859 -115.490156 
L 702.165125 -115.538048 
L 702.735391 -115.598059 
L 703.305657 -115.669688 
L 703.875922 -115.73671 
L 704.446188 -115.818804 
L 705.016454 -115.943911 
L 705.58672 -116.097991 
L 706.156985 -116.270443 
L 706.727251 -116.487527 
L 707.297517 -116.743093 
L 707.867783 -116.989322 
L 708.438049 -117.251605 
L 709.008314 -117.601256 
L 709.57858 -118.011123 
L 710.148846 -118.46751 
L 710.719112 -119.029117 
L 711.289377 -119.645527 
L 711.859643 -120.287398 
L 712.429909 -121.111392 
L 713.000175 -122.177072 
L 713.57044 -123.259462 
L 714.140706 -124.082788 
L 714.710972 -124.509036 
L 715.281238 -124.477404 
L 715.851504 -123.994386 
L 716.421769 -123.064546 
L 716.992035 -121.592277 
L 717.562301 -119.654196 
L 718.132567 -117.725263 
L 718.702832 -116.317289 
L 719.273098 -115.566392 
L 719.843364 -115.279716 
L 720.41363 -115.204591 
L 720.41363 -115.175767 
L 720.41363 -115.175767 
L 719.843364 -115.100642 
L 719.273098 -114.813965 
L 718.702832 -114.063069 
L 718.132567 -112.655094 
L 717.562301 -110.726161 
L 716.992035 -108.78808 
L 716.421769 -107.315811 
L 715.851504 -106.385972 
L 715.281238 -105.902953 
L 714.710972 -105.871321 
L 714.140706 -106.29757 
L 713.57044 -107.120895 
L 713.000175 -108.203285 
L 712.429909 -109.268965 
L 711.859643 -110.092959 
L 711.289377 -110.73483 
L 710.719112 -111.351241 
L 710.148846 -111.912847 
L 709.57858 -112.369234 
L 709.008314 -112.779101 
L 708.438049 -113.128752 
L 707.867783 -113.391036 
L 707.297517 -113.637264 
L 706.727251 -113.892831 
L 706.156985 -114.109915 
L 705.58672 -114.282366 
L 705.016454 -114.436446 
L 704.446188 -114.561553 
L 703.875922 -114.643647 
L 703.305657 -114.71067 
L 702.735391 -114.782298 
L 702.165125 -114.842309 
L 701.594859 -114.890201 
L 701.024593 -114.941514 
L 700.454328 -114.993595 
L 699.884062 -115.032085 
L 699.313796 -115.047633 
L 698.74353 -115.044986 
L 698.173265 -115.043501 
L 697.602999 -115.064746 
L 697.032733 -115.104663 
L 696.462467 -115.134193 
L 695.892202 -115.144015 
L 695.321936 -115.14941 
L 694.75167 -115.156538 
L 694.181404 -115.160539 
L 693.611138 -115.161342 
L 693.040873 -115.159439 
L 692.470607 -115.153913 
L 691.900341 -115.150619 
L 691.330075 -115.155064 
L 690.75981 -115.164851 
L 690.189544 -115.174242 
L 689.619278 -115.176688 
L 689.049012 -115.16975 
L 688.478747 -115.16061 
L 687.908481 -115.160579 
L 687.338215 -115.170385 
L 686.767949 -115.178343 
L 686.197683 -115.178264 
L 685.627418 -115.1756 
L 685.057152 -115.176538 
L 684.486886 -115.181378 
L 683.91662 -115.186031 
L 683.346355 -115.18682 
L 682.776089 -115.183914 
L 682.205823 -115.181483 
L 681.635557 -115.183183 
L 681.065291 -115.186973 
L 680.495026 -115.189343 
L 679.92476 -115.190055 
L 679.354494 -115.190168 
L 678.784228 -115.190178 
L 678.213963 -115.190179 
L 677.643697 -115.190179 
L 677.073431 -115.190179 
L 676.503165 -115.190179 
L 675.9329 -115.190179 
L 675.362634 -115.190179 
L 674.792368 -115.190179 
L 674.222102 -115.190179 
L 673.651836 -115.190179 
L 673.081571 -115.190179 
L 672.511305 -115.190179 
L 671.941039 -115.190179 
L 671.370773 -115.190179 
L 670.800508 -115.190179 
L 670.230242 -115.190179 
L 669.659976 -115.190179 
L 669.08971 -115.190178 
L 668.519445 -115.190176 
L 667.949179 -115.190135 
L 667.378913 -115.189801 
L 666.808647 -115.188309 
L 666.238381 -115.184912 
L 665.668116 -115.181735 
L 665.09785 -115.182478 
L 664.527584 -115.186183 
L 663.957318 -115.188999 
z
" id="m62755a7bd5" style="stroke:#494949;stroke-width:1.5;"/>
    </defs>
    <g clip-path="url(#pec7c1b6cd3)">
     <use style="fill:#655ee6;stroke:#494949;stroke-width:1.5;" x="0" xlink:href="#m62755a7bd5" y="378.65875"/>
    </g>
   </g>
   <g id="PolyCollection_12">
    <defs>
     <path d="M 504.213626 -91.892495 
L 504.213626 -91.893576 
L 504.5665 -91.894414 
L 504.919373 -91.895657 
L 505.272247 -91.896756 
L 505.62512 -91.896975 
L 505.977994 -91.896164 
L 506.330867 -91.894978 
L 506.683741 -91.894324 
L 507.036615 -91.8949 
L 507.389488 -91.897225 
L 507.742362 -91.901465 
L 508.095235 -91.906906 
L 508.448109 -91.912009 
L 508.800983 -91.915505 
L 509.153856 -91.917313 
L 509.50673 -91.917816 
L 509.859603 -91.916628 
L 510.212477 -91.913387 
L 510.56535 -91.909743 
L 510.918224 -91.908826 
L 511.271098 -91.911909 
L 511.623971 -91.916534 
L 511.976845 -91.919064 
L 512.329718 -91.91902 
L 512.682592 -91.919713 
L 513.035466 -91.924101 
L 513.388339 -91.93132 
L 513.741213 -91.938255 
L 514.094086 -91.943454 
L 514.44696 -91.948175 
L 514.799833 -91.954278 
L 515.152707 -91.962502 
L 515.505581 -91.972343 
L 515.858454 -91.982568 
L 516.211328 -91.99219 
L 516.564201 -92.001035 
L 516.917075 -92.008413 
L 517.269948 -92.011917 
L 517.622822 -92.009471 
L 517.975696 -92.0026 
L 518.328569 -91.996335 
L 518.681443 -91.995634 
L 519.034316 -92.002446 
L 519.38719 -92.016302 
L 519.740064 -92.03688 
L 520.092937 -92.064856 
L 520.445811 -92.099821 
L 520.798684 -92.137211 
L 521.151558 -92.168198 
L 521.504431 -92.186018 
L 521.857305 -92.194174 
L 522.210179 -92.205292 
L 522.563052 -92.230051 
L 522.915926 -92.26863 
L 523.268799 -92.313555 
L 523.621673 -92.360587 
L 523.974547 -92.414403 
L 524.32742 -92.480527 
L 524.680294 -92.55575 
L 525.033167 -92.632817 
L 525.386041 -92.71035 
L 525.738914 -92.790978 
L 526.091788 -92.87403 
L 526.444662 -92.956856 
L 526.797535 -93.039649 
L 527.150409 -93.124411 
L 527.503282 -93.212053 
L 527.856156 -93.300777 
L 528.20903 -93.38503 
L 528.561903 -93.462693 
L 528.914777 -93.549352 
L 529.26765 -93.675418 
L 529.620524 -93.857319 
L 529.973397 -94.079502 
L 530.326271 -94.318608 
L 530.679145 -94.579544 
L 531.032018 -94.895629 
L 531.384892 -95.29348 
L 531.737765 -95.759842 
L 532.090639 -96.242113 
L 532.443513 -96.680752 
L 532.796386 -97.04243 
L 533.14926 -97.33638 
L 533.502133 -97.615962 
L 533.855007 -97.959157 
L 534.20788 -98.428072 
L 534.560754 -99.030179 
L 534.913628 -99.704943 
L 535.266501 -100.345716 
L 535.619375 -100.848581 
L 535.972248 -101.151216 
L 536.325122 -101.211893 
L 536.677996 -100.934694 
L 537.030869 -100.14748 
L 537.383743 -98.73385 
L 537.736616 -96.83893 
L 538.08949 -94.899941 
L 538.442363 -93.38422 
L 538.795237 -92.482345 
L 539.148111 -92.075474 
L 539.148111 -91.710597 
L 539.148111 -91.710597 
L 538.795237 -91.303726 
L 538.442363 -90.401851 
L 538.08949 -88.88613 
L 537.736616 -86.947141 
L 537.383743 -85.052221 
L 537.030869 -83.638591 
L 536.677996 -82.851378 
L 536.325122 -82.574179 
L 535.972248 -82.634856 
L 535.619375 -82.937491 
L 535.266501 -83.440355 
L 534.913628 -84.081128 
L 534.560754 -84.755892 
L 534.20788 -85.358 
L 533.855007 -85.826914 
L 533.502133 -86.17011 
L 533.14926 -86.449692 
L 532.796386 -86.743641 
L 532.443513 -87.105319 
L 532.090639 -87.543958 
L 531.737765 -88.02623 
L 531.384892 -88.492591 
L 531.032018 -88.890442 
L 530.679145 -89.206527 
L 530.326271 -89.467464 
L 529.973397 -89.70657 
L 529.620524 -89.928753 
L 529.26765 -90.110653 
L 528.914777 -90.236719 
L 528.561903 -90.323378 
L 528.20903 -90.401042 
L 527.856156 -90.485294 
L 527.503282 -90.574018 
L 527.150409 -90.661661 
L 526.797535 -90.746423 
L 526.444662 -90.829215 
L 526.091788 -90.912041 
L 525.738914 -90.995093 
L 525.386041 -91.075722 
L 525.033167 -91.153254 
L 524.680294 -91.230321 
L 524.32742 -91.305545 
L 523.974547 -91.371669 
L 523.621673 -91.425485 
L 523.268799 -91.472517 
L 522.915926 -91.517442 
L 522.563052 -91.556021 
L 522.210179 -91.580779 
L 521.857305 -91.591898 
L 521.504431 -91.600054 
L 521.151558 -91.617874 
L 520.798684 -91.64886 
L 520.445811 -91.686251 
L 520.092937 -91.721215 
L 519.740064 -91.749192 
L 519.38719 -91.769769 
L 519.034316 -91.783626 
L 518.681443 -91.790437 
L 518.328569 -91.789737 
L 517.975696 -91.783472 
L 517.622822 -91.7766 
L 517.269948 -91.774154 
L 516.917075 -91.777658 
L 516.564201 -91.785036 
L 516.211328 -91.793881 
L 515.858454 -91.803504 
L 515.505581 -91.813729 
L 515.152707 -91.823569 
L 514.799833 -91.831794 
L 514.44696 -91.837897 
L 514.094086 -91.842617 
L 513.741213 -91.847816 
L 513.388339 -91.854751 
L 513.035466 -91.861971 
L 512.682592 -91.866359 
L 512.329718 -91.867052 
L 511.976845 -91.867008 
L 511.623971 -91.869537 
L 511.271098 -91.874163 
L 510.918224 -91.877245 
L 510.56535 -91.876328 
L 510.212477 -91.872684 
L 509.859603 -91.869443 
L 509.50673 -91.868256 
L 509.153856 -91.868759 
L 508.800983 -91.870566 
L 508.448109 -91.874062 
L 508.095235 -91.879165 
L 507.742362 -91.884606 
L 507.389488 -91.888846 
L 507.036615 -91.891172 
L 506.683741 -91.891748 
L 506.330867 -91.891093 
L 505.977994 -91.889908 
L 505.62512 -91.889096 
L 505.272247 -91.889315 
L 504.919373 -91.890414 
L 504.5665 -91.891658 
L 504.213626 -91.892495 
z
" id="m646cbc4876" style="stroke:#494949;stroke-width:1.5;"/>
    </defs>
    <g clip-path="url(#pec7c1b6cd3)">
     <use style="fill:#8020df;stroke:#494949;stroke-width:1.5;" x="0" xlink:href="#m646cbc4876" y="378.65875"/>
    </g>
   </g>
   <g id="PolyCollection_13">
    <defs>
     <path d="M 113.051676 -68.595249 
L 113.051676 -68.596537 
L 117.384236 -68.59757 
L 121.716796 -68.599099 
L 126.049356 -68.600395 
L 130.381916 -68.600536 
L 134.714476 -68.59942 
L 139.047036 -68.597924 
L 143.379596 -68.597027 
L 147.712156 -68.597215 
L 152.044716 -68.598608 
L 156.377276 -68.601092 
L 160.709836 -68.604338 
L 165.042397 -68.607842 
L 169.374957 -68.610629 
L 173.707517 -68.611264 
L 178.040077 -68.609335 
L 182.372637 -68.606657 
L 186.705197 -68.605655 
L 191.037757 -68.606768 
L 195.370317 -68.608873 
L 199.702877 -68.612213 
L 204.035437 -68.618906 
L 208.367997 -68.629451 
L 212.700557 -68.640216 
L 217.033117 -68.64612 
L 221.365677 -68.645425 
L 225.698237 -68.640526 
L 230.030797 -68.634599 
L 234.363357 -68.629527 
L 238.695917 -68.626839 
L 243.028477 -68.628183 
L 247.361037 -68.633971 
L 251.693597 -68.642555 
L 256.026157 -68.651358 
L 260.358717 -68.658602 
L 264.691277 -68.664378 
L 269.023837 -68.670977 
L 273.356397 -68.68156 
L 277.688957 -68.697303 
L 282.021517 -68.716367 
L 286.354077 -68.736027 
L 290.686637 -68.755339 
L 295.019198 -68.776177 
L 299.351758 -68.801659 
L 303.684318 -68.833301 
L 308.016878 -68.871342 
L 312.349438 -68.917228 
L 316.681998 -68.971341 
L 321.014558 -69.02866 
L 325.347118 -69.081072 
L 329.679678 -69.122359 
L 334.012238 -69.15121 
L 338.344798 -69.177915 
L 342.677358 -69.22516 
L 347.009918 -69.308062 
L 351.342478 -69.416224 
L 355.675038 -69.526484 
L 360.007598 -69.627804 
L 364.340158 -69.729079 
L 368.672718 -69.852112 
L 373.005278 -70.019335 
L 377.337838 -70.239206 
L 381.670398 -70.49978 
L 386.002958 -70.779554 
L 390.335518 -71.063341 
L 394.668078 -71.342615 
L 399.000638 -71.606608 
L 403.333198 -71.844674 
L 407.665758 -72.052873 
L 411.998318 -72.231477 
L 416.330878 -72.382967 
L 420.663438 -72.515883 
L 424.995998 -72.652403 
L 429.328559 -72.837237 
L 433.661119 -73.120261 
L 437.993679 -73.504723 
L 442.326239 -73.924995 
L 446.658799 -74.300468 
L 450.991359 -74.609506 
L 455.323919 -74.89891 
L 459.656479 -75.221337 
L 463.989039 -75.56636 
L 468.321599 -75.863215 
L 472.654159 -76.077174 
L 476.986719 -76.293485 
L 481.319279 -76.647958 
L 485.651839 -77.158696 
L 489.984399 -77.663558 
L 494.316959 -77.91475 
L 498.649519 -77.689729 
L 502.982079 -76.847475 
L 507.314639 -75.398439 
L 511.647199 -73.577396 
L 515.979759 -71.78131 
L 520.312319 -70.358268 
L 524.644879 -69.437957 
L 528.977439 -68.94396 
L 533.309999 -68.720185 
L 537.642559 -68.633801 
L 541.975119 -68.605546 
L 541.975119 -68.58624 
L 541.975119 -68.58624 
L 537.642559 -68.557984 
L 533.309999 -68.471601 
L 528.977439 -68.247826 
L 524.644879 -67.753828 
L 520.312319 -66.833517 
L 515.979759 -65.410476 
L 511.647199 -63.614389 
L 507.314639 -61.793347 
L 502.982079 -60.34431 
L 498.649519 -59.502057 
L 494.316959 -59.277036 
L 489.984399 -59.528227 
L 485.651839 -60.03309 
L 481.319279 -60.543828 
L 476.986719 -60.898301 
L 472.654159 -61.114612 
L 468.321599 -61.328571 
L 463.989039 -61.625426 
L 459.656479 -61.970449 
L 455.323919 -62.292876 
L 450.991359 -62.58228 
L 446.658799 -62.891318 
L 442.326239 -63.266791 
L 437.993679 -63.687063 
L 433.661119 -64.071525 
L 429.328559 -64.354548 
L 424.995998 -64.539383 
L 420.663438 -64.675903 
L 416.330878 -64.808819 
L 411.998318 -64.960309 
L 407.665758 -65.138913 
L 403.333198 -65.347112 
L 399.000638 -65.585178 
L 394.668078 -65.849171 
L 390.335518 -66.128444 
L 386.002958 -66.412232 
L 381.670398 -66.692006 
L 377.337838 -66.952579 
L 373.005278 -67.17245 
L 368.672718 -67.339674 
L 364.340158 -67.462707 
L 360.007598 -67.563981 
L 355.675038 -67.665302 
L 351.342478 -67.775562 
L 347.009918 -67.883724 
L 342.677358 -67.966626 
L 338.344798 -68.013871 
L 334.012238 -68.040576 
L 329.679678 -68.069427 
L 325.347118 -68.110713 
L 321.014558 -68.163125 
L 316.681998 -68.220445 
L 312.349438 -68.274557 
L 308.016878 -68.320444 
L 303.684318 -68.358485 
L 299.351758 -68.390127 
L 295.019198 -68.415609 
L 290.686637 -68.436447 
L 286.354077 -68.455759 
L 282.021517 -68.475418 
L 277.688957 -68.494483 
L 273.356397 -68.510226 
L 269.023837 -68.520808 
L 264.691277 -68.527408 
L 260.358717 -68.533183 
L 256.026157 -68.540428 
L 251.693597 -68.549231 
L 247.361037 -68.557815 
L 243.028477 -68.563603 
L 238.695917 -68.564947 
L 234.363357 -68.562259 
L 230.030797 -68.557187 
L 225.698237 -68.551259 
L 221.365677 -68.546361 
L 217.033117 -68.545665 
L 212.700557 -68.55157 
L 208.367997 -68.562335 
L 204.035437 -68.57288 
L 199.702877 -68.579573 
L 195.370317 -68.582913 
L 191.037757 -68.585018 
L 186.705197 -68.58613 
L 182.372637 -68.585128 
L 178.040077 -68.582451 
L 173.707517 -68.580522 
L 169.374957 -68.581157 
L 165.042397 -68.583944 
L 160.709836 -68.587448 
L 156.377276 -68.590694 
L 152.044716 -68.593178 
L 147.712156 -68.594571 
L 143.379596 -68.594759 
L 139.047036 -68.593861 
L 134.714476 -68.592366 
L 130.381916 -68.59125 
L 126.049356 -68.591391 
L 121.716796 -68.592686 
L 117.384236 -68.594216 
L 113.051676 -68.595249 
z
" id="m5a896b0ba8" style="stroke:#494949;stroke-width:1.5;"/>
    </defs>
    <g clip-path="url(#pec7c1b6cd3)">
     <use style="fill:#c4c4c4;stroke:#494949;stroke-width:1.5;" x="0" xlink:href="#m5a896b0ba8" y="378.65875"/>
    </g>
   </g>
   <g id="matplotlib.axis_1">
    <g id="xtick_1">
     <g id="line2d_1">
      <defs>
       <path d="M 0 0 
L 0 3.5 
" id="m61dccdcf9e" style="stroke:#000000;stroke-width:0.8;"/>
      </defs>
      <g>
       <use style="stroke:#000000;stroke-width:0.8;" x="104.761062" xlink:href="#m61dccdcf9e" y="333.36"/>
      </g>
     </g>
     <g id="text_1">
      <text style="font-family:DejaVu Sans;font-size:14px;font-stretch:normal;font-style:normal;font-weight:normal;text-anchor:middle;" transform="rotate(-0, 104.761062, 350.997813)" x="104.761062" y="350.997813">14000</text>
     </g>
    </g>
    <g id="xtick_2">
     <g id="line2d_2">
      <g>
       <use style="stroke:#000000;stroke-width:0.8;" x="181.935689" xlink:href="#m61dccdcf9e" y="333.36"/>
      </g>
     </g>
     <g id="text_2">
      <text style="font-family:DejaVu Sans;font-size:14px;font-stretch:normal;font-style:normal;font-weight:normal;text-anchor:middle;" transform="rotate(-0, 181.935689, 350.997813)" x="181.935689" y="350.997813">12000</text>
     </g>
    </g>
    <g id="xtick_3">
     <g id="line2d_3">
      <g>
       <use style="stroke:#000000;stroke-width:0.8;" x="259.110317" xlink:href="#m61dccdcf9e" y="333.36"/>
      </g>
     </g>
     <g id="text_3">
      <text style="font-family:DejaVu Sans;font-size:14px;font-stretch:normal;font-style:normal;font-weight:normal;text-anchor:middle;" transform="rotate(-0, 259.110317, 350.997813)" x="259.110317" y="350.997813">10000</text>
     </g>
    </g>
    <g id="xtick_4">
     <g id="line2d_4">
      <g>
       <use style="stroke:#000000;stroke-width:0.8;" x="336.284944" xlink:href="#m61dccdcf9e" y="333.36"/>
      </g>
     </g>
     <g id="text_4">
      <text style="font-family:DejaVu Sans;font-size:14px;font-stretch:normal;font-style:normal;font-weight:normal;text-anchor:middle;" transform="rotate(-0, 336.284944, 350.997813)" x="336.284944" y="350.997813">8000</text>
     </g>
    </g>
    <g id="xtick_5">
     <g id="line2d_5">
      <g>
       <use style="stroke:#000000;stroke-width:0.8;" x="413.459571" xlink:href="#m61dccdcf9e" y="333.36"/>
      </g>
     </g>
     <g id="text_5">
      <text style="font-family:DejaVu Sans;font-size:14px;font-stretch:normal;font-style:normal;font-weight:normal;text-anchor:middle;" transform="rotate(-0, 413.459571, 350.997813)" x="413.459571" y="350.997813">6000</text>
     </g>
    </g>
    <g id="xtick_6">
     <g id="line2d_6">
      <g>
       <use style="stroke:#000000;stroke-width:0.8;" x="490.634199" xlink:href="#m61dccdcf9e" y="333.36"/>
      </g>
     </g>
     <g id="text_6">
      <text style="font-family:DejaVu Sans;font-size:14px;font-stretch:normal;font-style:normal;font-weight:normal;text-anchor:middle;" transform="rotate(-0, 490.634199, 350.997813)" x="490.634199" y="350.997813">4000</text>
     </g>
    </g>
    <g id="xtick_7">
     <g id="line2d_7">
      <g>
       <use style="stroke:#000000;stroke-width:0.8;" x="567.808826" xlink:href="#m61dccdcf9e" y="333.36"/>
      </g>
     </g>
     <g id="text_7">
      <text style="font-family:DejaVu Sans;font-size:14px;font-stretch:normal;font-style:normal;font-weight:normal;text-anchor:middle;" transform="rotate(-0, 567.808826, 350.997813)" x="567.808826" y="350.997813">2000</text>
     </g>
    </g>
    <g id="xtick_8">
     <g id="line2d_8">
      <g>
       <use style="stroke:#000000;stroke-width:0.8;" x="644.983453" xlink:href="#m61dccdcf9e" y="333.36"/>
      </g>
     </g>
     <g id="text_8">
      <text style="font-family:DejaVu Sans;font-size:14px;font-stretch:normal;font-style:normal;font-weight:normal;text-anchor:middle;" transform="rotate(-0, 644.983453, 350.997813)" x="644.983453" y="350.997813">0</text>
     </g>
    </g>
    <g id="xtick_9">
     <g id="line2d_9">
      <g>
       <use style="stroke:#000000;stroke-width:0.8;" x="722.158081" xlink:href="#m61dccdcf9e" y="333.36"/>
      </g>
     </g>
     <g id="text_9">
      <text style="font-family:DejaVu Sans;font-size:14px;font-stretch:normal;font-style:normal;font-weight:normal;text-anchor:middle;" transform="rotate(-0, 722.158081, 350.997813)" x="722.158081" y="350.997813">2000</text>
     </g>
    </g>
    <g id="xtick_10">
     <g id="line2d_10">
      <defs>
       <path d="M 0 0 
L 0 2 
" id="m9c9020f679" style="stroke:#000000;stroke-width:0.6;"/>
      </defs>
      <g>
       <use style="stroke:#000000;stroke-width:0.6;" x="143.348376" xlink:href="#m9c9020f679" y="333.36"/>
      </g>
     </g>
    </g>
    <g id="xtick_11">
     <g id="line2d_11">
      <g>
       <use style="stroke:#000000;stroke-width:0.6;" x="220.523003" xlink:href="#m9c9020f679" y="333.36"/>
      </g>
     </g>
    </g>
    <g id="xtick_12">
     <g id="line2d_12">
      <g>
       <use style="stroke:#000000;stroke-width:0.6;" x="297.69763" xlink:href="#m9c9020f679" y="333.36"/>
      </g>
     </g>
    </g>
    <g id="xtick_13">
     <g id="line2d_13">
      <g>
       <use style="stroke:#000000;stroke-width:0.6;" x="374.872258" xlink:href="#m9c9020f679" y="333.36"/>
      </g>
     </g>
    </g>
    <g id="xtick_14">
     <g id="line2d_14">
      <g>
       <use style="stroke:#000000;stroke-width:0.6;" x="452.046885" xlink:href="#m9c9020f679" y="333.36"/>
      </g>
     </g>
    </g>
    <g id="xtick_15">
     <g id="line2d_15">
      <g>
       <use style="stroke:#000000;stroke-width:0.6;" x="529.221512" xlink:href="#m9c9020f679" y="333.36"/>
      </g>
     </g>
    </g>
    <g id="xtick_16">
     <g id="line2d_16">
      <g>
       <use style="stroke:#000000;stroke-width:0.6;" x="606.39614" xlink:href="#m9c9020f679" y="333.36"/>
      </g>
     </g>
    </g>
    <g id="xtick_17">
     <g id="line2d_17">
      <g>
       <use style="stroke:#000000;stroke-width:0.6;" x="683.570767" xlink:href="#m9c9020f679" y="333.36"/>
      </g>
     </g>
    </g>
    <g id="text_10">
     <text style="font-family:DejaVu Sans;font-size:14px;font-stretch:normal;font-style:normal;font-weight:normal;text-anchor:middle;" transform="rotate(-0, 417.415312, 368.547188)" x="417.415312" y="368.547188">MRCA Date</text>
    </g>
   </g>
   <g id="matplotlib.axis_2">
    <g id="ytick_1">
     <g id="line2d_18">
      <defs>
       <path d="M 0 0 
L -3.5 0 
" id="m6563cef826" style="stroke:#000000;stroke-width:0.8;"/>
      </defs>
      <g>
       <use style="stroke:#000000;stroke-width:0.8;" x="82.615313" xlink:href="#m6563cef826" y="30.497143"/>
      </g>
     </g>
     <g id="text_11">
      <text style="font-family:DejaVu Sans;font-size:14px;font-stretch:normal;font-style:normal;font-weight:normal;text-anchor:end;" transform="rotate(-0, 75.615313, 35.816049)" x="75.615313" y="35.816049">1.ORI</text>
     </g>
    </g>
    <g id="ytick_2">
     <g id="line2d_19">
      <g>
       <use style="stroke:#000000;stroke-width:0.8;" x="82.615313" xlink:href="#m6563cef826" y="53.794286"/>
      </g>
     </g>
     <g id="text_12">
      <text style="font-family:DejaVu Sans;font-size:14px;font-stretch:normal;font-style:normal;font-weight:normal;text-anchor:end;" transform="rotate(-0, 75.615313, 59.113192)" x="75.615313" y="59.113192">1.IN</text>
     </g>
    </g>
    <g id="ytick_3">
     <g id="line2d_20">
      <g>
       <use style="stroke:#000000;stroke-width:0.8;" x="82.615313" xlink:href="#m6563cef826" y="77.091429"/>
      </g>
     </g>
     <g id="text_13">
      <text style="font-family:DejaVu Sans;font-size:14px;font-stretch:normal;font-style:normal;font-weight:normal;text-anchor:end;" transform="rotate(-0, 75.615313, 82.410335)" x="75.615313" y="82.410335">1.ANT</text>
     </g>
    </g>
    <g id="ytick_4">
     <g id="line2d_21">
      <g>
       <use style="stroke:#000000;stroke-width:0.8;" x="82.615313" xlink:href="#m6563cef826" y="100.388571"/>
      </g>
     </g>
     <g id="text_14">
      <text style="font-family:DejaVu Sans;font-size:14px;font-stretch:normal;font-style:normal;font-weight:normal;text-anchor:end;" transform="rotate(-0, 75.615313, 105.707478)" x="75.615313" y="105.707478">1.PRE</text>
     </g>
    </g>
    <g id="ytick_5">
     <g id="line2d_22">
      <g>
       <use style="stroke:#000000;stroke-width:0.8;" x="82.615313" xlink:href="#m6563cef826" y="123.685714"/>
      </g>
     </g>
     <g id="text_15">
      <text style="font-family:DejaVu Sans;font-size:14px;font-stretch:normal;font-style:normal;font-weight:normal;text-anchor:end;" transform="rotate(-0, 75.615313, 129.004621)" x="75.615313" y="129.004621">2.MED</text>
     </g>
    </g>
    <g id="ytick_6">
     <g id="line2d_23">
      <g>
       <use style="stroke:#000000;stroke-width:0.8;" x="82.615313" xlink:href="#m6563cef826" y="146.982857"/>
      </g>
     </g>
     <g id="text_16">
      <text style="font-family:DejaVu Sans;font-size:14px;font-stretch:normal;font-style:normal;font-weight:normal;text-anchor:end;" transform="rotate(-0, 75.615313, 152.301763)" x="75.615313" y="152.301763">2.ANT</text>
     </g>
    </g>
    <g id="ytick_7">
     <g id="line2d_24">
      <g>
       <use style="stroke:#000000;stroke-width:0.8;" x="82.615313" xlink:href="#m6563cef826" y="170.28"/>
      </g>
     </g>
     <g id="text_17">
      <text style="font-family:DejaVu Sans;font-size:14px;font-stretch:normal;font-style:normal;font-weight:normal;text-anchor:end;" transform="rotate(-0, 75.615313, 175.598906)" x="75.615313" y="175.598906">4.ANT</text>
     </g>
    </g>
    <g id="ytick_8">
     <g id="line2d_25">
      <g>
       <use style="stroke:#000000;stroke-width:0.8;" x="82.615313" xlink:href="#m6563cef826" y="193.577143"/>
      </g>
     </g>
     <g id="text_18">
      <text style="font-family:DejaVu Sans;font-size:14px;font-stretch:normal;font-style:normal;font-weight:normal;text-anchor:end;" transform="rotate(-0, 75.615313, 198.896049)" x="75.615313" y="198.896049">3.ANT</text>
     </g>
    </g>
    <g id="ytick_9">
     <g id="line2d_26">
      <g>
       <use style="stroke:#000000;stroke-width:0.8;" x="82.615313" xlink:href="#m6563cef826" y="216.874286"/>
      </g>
     </g>
     <g id="text_19">
      <text style="font-family:DejaVu Sans;font-size:14px;font-stretch:normal;font-style:normal;font-weight:normal;text-anchor:end;" transform="rotate(-0, 75.615313, 222.193192)" x="75.615313" y="222.193192">0.ANT4</text>
     </g>
    </g>
    <g id="ytick_10">
     <g id="line2d_27">
      <g>
       <use style="stroke:#000000;stroke-width:0.8;" x="82.615313" xlink:href="#m6563cef826" y="240.171429"/>
      </g>
     </g>
     <g id="text_20">
      <text style="font-family:DejaVu Sans;font-size:14px;font-stretch:normal;font-style:normal;font-weight:normal;text-anchor:end;" transform="rotate(-0, 75.615313, 245.490335)" x="75.615313" y="245.490335">0.ANT</text>
     </g>
    </g>
    <g id="ytick_11">
     <g id="line2d_28">
      <g>
       <use style="stroke:#000000;stroke-width:0.8;" x="82.615313" xlink:href="#m6563cef826" y="263.468571"/>
      </g>
     </g>
     <g id="text_21">
      <text style="font-family:DejaVu Sans;font-size:14px;font-stretch:normal;font-style:normal;font-weight:normal;text-anchor:end;" transform="rotate(-0, 75.615313, 268.787478)" x="75.615313" y="268.787478">0.PE</text>
     </g>
    </g>
    <g id="ytick_12">
     <g id="line2d_29">
      <g>
       <use style="stroke:#000000;stroke-width:0.8;" x="82.615313" xlink:href="#m6563cef826" y="286.765714"/>
      </g>
     </g>
     <g id="text_22">
      <text style="font-family:DejaVu Sans;font-size:14px;font-stretch:normal;font-style:normal;font-weight:normal;text-anchor:end;" transform="rotate(-0, 75.615313, 292.084621)" x="75.615313" y="292.084621">0.PRE</text>
     </g>
    </g>
    <g id="ytick_13">
     <g id="line2d_30">
      <g>
       <use style="stroke:#000000;stroke-width:0.8;" x="82.615313" xlink:href="#m6563cef826" y="310.062857"/>
      </g>
     </g>
     <g id="text_23">
      <text style="font-family:DejaVu Sans;font-size:14px;font-stretch:normal;font-style:normal;font-weight:normal;text-anchor:end;" transform="rotate(-0, 75.615313, 315.381763)" x="75.615313" y="315.381763">All</text>
     </g>
    </g>
    <g id="text_24">
     <text style="font-family:DejaVu Sans;font-size:14px;font-stretch:normal;font-style:normal;font-weight:normal;text-anchor:middle;" transform="rotate(-90, 17.837813, 170.28)" x="17.837813" y="170.28">Population</text>
    </g>
   </g>
   <g id="patch_3">
    <path d="M 82.615313 333.36 
L 82.615313 7.2 
" style="fill:none;stroke:#000000;stroke-linecap:square;stroke-linejoin:miter;stroke-width:0.8;"/>
   </g>
   <g id="patch_4">
    <path d="M 752.215312 333.36 
L 752.215312 7.2 
" style="fill:none;stroke:#000000;stroke-linecap:square;stroke-linejoin:miter;stroke-width:0.8;"/>
   </g>
   <g id="patch_5">
    <path d="M 82.615312 333.36 
L 752.215312 333.36 
" style="fill:none;stroke:#000000;stroke-linecap:square;stroke-linejoin:miter;stroke-width:0.8;"/>
   </g>
   <g id="patch_6">
    <path d="M 82.615312 7.2 
L 752.215312 7.2 
" style="fill:none;stroke:#000000;stroke-linecap:square;stroke-linejoin:miter;stroke-width:0.8;"/>
   </g>
   <g id="text_25">
    <text style="font-family:DejaVu Sans;font-size:8px;font-stretch:normal;font-style:normal;font-weight:normal;text-anchor:start;" transform="rotate(-0, 724.648739, 32.826857)" x="724.648739" y="32.826857">1885</text>
   </g>
   <g id="text_26">
    <text style="font-family:DejaVu Sans;font-size:8px;font-stretch:normal;font-style:normal;font-weight:normal;text-anchor:start;" transform="rotate(-0, 725.784038, 56.124)" x="725.784038" y="56.124">1882</text>
   </g>
   <g id="text_27">
    <text style="font-family:DejaVu Sans;font-size:8px;font-stretch:normal;font-style:normal;font-weight:normal;text-anchor:start;" transform="rotate(-0, 723.677122, 79.421143)" x="723.677122" y="79.421143">1780</text>
   </g>
   <g id="text_28">
    <text style="font-family:DejaVu Sans;font-size:8px;font-stretch:normal;font-style:normal;font-weight:normal;text-anchor:start;" transform="rotate(-0, 702.062603, 102.718286)" x="702.062603" y="102.718286">1300</text>
   </g>
   <g id="text_29">
    <text style="font-family:DejaVu Sans;font-size:8px;font-stretch:normal;font-style:normal;font-weight:normal;text-anchor:start;" transform="rotate(-0, 723.441882, 126.015429)" x="723.441882" y="126.015429">1796</text>
   </g>
   <g id="text_30">
    <text style="font-family:DejaVu Sans;font-size:8px;font-stretch:normal;font-style:normal;font-weight:normal;text-anchor:start;" transform="rotate(-0, 724.418607, 149.312571)" x="724.418607" y="149.312571">1798</text>
   </g>
   <g id="text_31">
    <text style="font-family:DejaVu Sans;font-size:8px;font-stretch:normal;font-style:normal;font-weight:normal;text-anchor:start;" transform="rotate(-0, 727.054674, 172.609714)" x="727.054674" y="172.609714">1954</text>
   </g>
   <g id="text_32">
    <text style="font-family:DejaVu Sans;font-size:8px;font-stretch:normal;font-style:normal;font-weight:normal;text-anchor:start;" transform="rotate(-0, 726.440062, 195.906857)" x="726.440062" y="195.906857">1924</text>
   </g>
   <g id="text_33">
    <text style="font-family:DejaVu Sans;font-size:8px;font-stretch:normal;font-style:normal;font-weight:normal;text-anchor:start;" transform="rotate(-0, 659.935668, 219.204)" x="659.935668" y="219.204">223</text>
   </g>
   <g id="text_34">
    <text style="font-family:DejaVu Sans;font-size:8px;font-stretch:normal;font-style:normal;font-weight:normal;text-anchor:start;" transform="rotate(-0, 723.844558, 242.501143)" x="723.844558" y="242.501143">1698</text>
   </g>
   <g id="text_35">
    <text style="font-family:DejaVu Sans;font-size:8px;font-stretch:normal;font-style:normal;font-weight:normal;text-anchor:start;" transform="rotate(-0, 724.682977, 265.798286)" x="724.682977" y="265.798286">1814</text>
   </g>
   <g id="text_36">
    <text style="font-family:DejaVu Sans;font-size:8px;font-stretch:normal;font-style:normal;font-weight:normal;text-anchor:start;" transform="rotate(-0, 543.632945, 289.095429)" x="543.632945" y="289.095429">-2816</text>
   </g>
   <g id="text_37">
    <text style="font-family:DejaVu Sans;font-size:8px;font-stretch:normal;font-style:normal;font-weight:normal;text-anchor:start;" transform="rotate(-0, 545.67706, 312.392571)" x="545.67706" y="312.392571">-3903</text>
   </g>
  </g>
 </g>
 <defs>
  <clipPath id="pec7c1b6cd3">
   <rect height="326.16" width="669.6" x="82.615313" y="7.2"/>
  </clipPath>
 </defs>
</svg>
